<?xml version="1.0" encoding="UTF-8" standalone="no"?>
<!-- Created with Inkscape (http://www.inkscape.org/) -->

<svg
   width="774.31927mm"
   height="587.87073mm"
   viewBox="0 0 774.31931 587.87074"
   version="1.1"
   id="svg1"
   xml:space="preserve"
   xmlns="http://www.w3.org/2000/svg"
   xmlns:svg="http://www.w3.org/2000/svg"><defs
     id="defs1" /><g
     id="layer1"
     transform="translate(-15415.195,-5985.4333)"><path
       style="fill:#000000;stroke-width:1"
       d="m 15451.613,6572.3708 c -1.365,-0.735 -2.019,-0.822 -3.375,-0.447 -2.118,0.585 -14.401,0.231 -16.191,-0.4665 -0.735,-0.288 -2.044,-0.522 -2.905,-0.522 -0.855,0 -2.229,-0.231 -3.039,-0.5145 -1.41,-0.4935 -6.026,-5.2725 -7.167,-7.4318 -0.765,-1.434 -0.69,-3.9889 0.165,-6.03 0.39,-0.9405 0.72,-2.9886 0.72,-4.5516 0,-1.5628 0.225,-3.4392 0.51,-4.1694 0.39,-1.005 0.3,-2.325 -0.33,-5.4406 -0.735,-3.6405 -0.765,-4.8936 -0.285,-10.9117 0.3,-3.7394 0.42,-7.0097 0.27,-7.2672 -0.735,-1.1895 -0.96,-3.8895 -0.615,-7.5534 0.285,-3.0371 0.195,-4.6047 -0.345,-6.5408 -0.645,-2.2974 -0.645,-2.7411 0,-4.5403 1.005,-2.6084 0.975,-6.602 0,-8.5343 -0.84,-1.6024 -0.93,-3.7066 -0.435,-11.5254 0.765,-12.2322 1.02,-21.105 0.645,-22.3837 -0.225,-0.786 -0.39,-5.1792 -0.36,-9.7631 0,-4.584 -0.15,-9.826 -0.255,-11.6493 -0.225,-2.4831 -0.15,-3.9913 0.51,-6.0112 0.765,-2.5179 0.765,-2.9961 0,-7.2218 -0.675,-3.9724 -0.69,-4.7607 -0.15,-6.4513 0.84,-2.3636 0.63,-6.3672 -0.435,-8.874 -0.57,-1.3395 -0.705,-2.487 -0.48,-4.0482 0.18,-1.1985 0.285,-7.6436 0.24,-14.3229 -0.15,-14.8986 -0.15,-16.6367 0.15,-22.622 0.15,-2.6193 0,-5.8873 -0.285,-7.2621 -0.375,-2.0025 -0.3,-3.0441 0.36,-5.2387 0.645,-2.1314 0.705,-3.0366 0.315,-4.0799 -0.66,-1.7379 -0.645,-4.7469 0,-7.0156 0.465,-1.5585 0.39,-2.1536 -0.555,-4.4448 -1.035,-2.4888 -1.065,-2.8365 -0.495,-5.8758 0.33,-1.7768 0.57,-5.1626 0.525,-7.524 0,-2.8794 0.165,-5.0333 0.675,-6.5396 0.69,-2.0365 0.69,-2.4814 0,-4.7686 -0.765,-2.6549 -0.84,-3.62 -0.78,-10.6995 0,-2.4165 -0.165,-4.9487 -0.435,-5.627 -0.69,-1.8159 -0.57,-4.227 0.315,-6.4461 0.735,-1.8331 0.72,-2.3194 -0.15,-7.4851 -0.825,-5.2715 -0.825,-5.6238 0,-7.6932 1.857,-4.8435 1.924,-6.0348 0.525,-9.1592 -0.975,-2.1598 -1.215,-3.2898 -0.99,-4.6035 0.555,-3.3507 0.825,-22.6597 0.345,-24.7998 -0.375,-1.6327 -0.315,-2.5897 0.255,-4.2747 0.675,-1.9966 0.675,-2.3574 -0.15,-4.4923 -1.11,-3.1043 -1.065,-5.5928 0.18,-7.5978 1.425,-2.3105 1.425,-7.8618 0,-11.0853 -0.87,-1.9716 -0.96,-2.7263 -0.63,-5.4183 0.21,-1.7204 0.345,-4.479 0.3,-6.1305 0,-1.7742 0.21,-3.6987 0.63,-4.7033 0.645,-1.5594 0.63,-1.9621 -0.27,-4.8553 -0.78,-2.5215 -0.96,-4.2545 -0.885,-8.6318 0,-3.0123 0,-7.2186 -0.27,-9.3472 -0.315,-3.315 -0.21,-4.3595 0.69,-7.2777 1.551,-5.0131 1.485,-11.514 -0.165,-14.6919 -1.065,-2.0656 -0.96,-4.929 0.255,-7.4565 0.96,-1.9921 1.005,-2.3796 0.48,-6.0849 -0.645,-4.6794 -1.305,-16.7644 -1.095,-20.1499 0.195,-3.1418 0.18,-4.6298 -0.15,-14.7638 -0.15,-4.7148 -0.255,-9.2569 -0.27,-10.0935 -0.01,-0.837 0.315,-2.3251 0.72,-3.3081 0.645,-1.5615 0.675,-2.5713 0.18,-8.004 -0.45,-4.9389 -0.435,-6.8532 0,-9.3124 0.705,-3.63 0.645,-8.8382 -0.15,-12.0084 -0.42,-1.6911 -0.42,-2.8259 -0.01,-4.5974 0.39,-1.6905 0.405,-3.2022 0,-5.3746 -0.27,-1.6626 -0.54,-5.1311 -0.585,-7.7079 -0.15,-3.8699 -0.24,-4.7648 -0.915,-5.1434 -1.035,-0.576 -1.035,-1.6936 0,-4.0437 0.945,-2.1865 1.14,-11.8207 0.6,-28.5141 -0.39,-12.054 -0.435,-11.8296 3.567,-16.8507 3.5,-4.3867 4.956,-4.9524 12.521,-4.8619 12.78,0.153 22.474,0.09 33.958,-0.1935 18.335,-0.465 27.602,-0.372 29.666,0.294 1.425,0.462 2.574,0.4605 5.476,0 3.14,-0.5025 3.969,-0.483 5.721,0.15 1.857,0.663 2.354,0.6585 5.312,-0.045 2.923,-0.702 3.528,-0.7095 5.809,-0.09 2.37,0.651 2.733,0.633 5.261,-0.2685 2.668,-0.9525 2.77,-0.954 6.07,-0.105 3.183,0.8205 3.483,0.8235 5.792,0.06 1.689,-0.561 3.039,-0.705 4.407,-0.4695 2.121,0.3645 2.818,0.3855 5.82,0.1695 1.17,-0.09 2.749,0.2235 3.963,0.7725 2.004,0.903 2.059,0.903 6.63,-0.105 3.963,-0.8775 5.346,-0.9705 9.882,-0.6555 4.162,0.288 5.628,0.585 6.961,1.4085 1.988,1.2285 4.482,1.3365 6.95,0.3 3.13,-1.314 8.14,-2.163 10.038,-1.7015 0.96,0.2325 5.805,0.3735 10.782,0.3135 4.977,-0.06 9.537,0.075 10.134,0.291 0.615,0.228 3.174,0.1605 5.953,-0.156 6.678,-0.762 9.405,-0.714 10.821,0.1905 0.945,0.6075 2.249,0.729 6.429,0.6045 2.882,-0.09 5.775,-0.351 6.431,-0.588 0.66,-0.237 3.333,-0.351 5.952,-0.252 7.08,0.267 6.987,0.2685 9.166,-0.105 1.2,-0.21 2.84,-0.135 4.049,0.1995 3.172,0.864 11.958,1.0005 14.53,0.2265 1.215,-0.3645 2.534,-0.561 2.943,-0.4365 0.405,0.12 2.031,0.3495 3.602,0.504 1.572,0.153 3.564,0.5025 4.426,0.7755 1.245,0.396 1.974,0.3255 3.572,-0.3495 1.531,-0.6465 3.634,-0.8835 8.91,-1.005 3.798,-0.09 7.548,-0.174 8.334,-0.192 0.78,-0.015 4.75,0.3345 8.811,0.786 8.991,0.9975 13.435,0.969 15.862,-0.105 1.611,-0.711 2.408,-0.738 7.145,-0.2445 2.931,0.306 7.044,0.4245 9.139,0.264 2.772,-0.213 4.631,-0.075 6.825,0.4815 3.8,0.975 5.454,0.975 7.34,3e-4 2.863,-1.4805 4.225,-1.6381 7.365,-0.8505 2.421,0.6075 3.312,0.642 4.695,0.186 1.08,-0.3585 2.515,-0.4305 3.934,-0.1965 1.23,0.2025 3.444,0.312 4.934,0.2445 1.485,-0.075 3.442,0.15 4.341,0.468 1.305,0.4725 2.097,0.4695 3.96,-0.015 2.823,-0.741 14.211,-1.065 17.815,-0.5055 1.44,0.222 3.932,0.6735 5.547,1.0035 2.558,0.5205 3.275,0.492 5.522,-0.2145 2.26,-0.711 2.994,-0.738 5.872,-0.2145 4.197,0.7635 7.004,0.672 10.632,-0.345 2.019,-0.567 3.509,-0.7035 4.92,-0.4545 1.11,0.1965 3.645,0.318 5.625,0.2685 2.432,-0.06 4.245,0.168 5.58,0.702 1.8,0.72 2.165,0.726 4.019,0.06 1.125,-0.4005 4.212,-0.858 6.867,-1.0155 3.892,-0.2325 5.212,-0.135 6.816,0.507 1.845,0.738 2.16,0.7395 4.395,0.015 3.013,-0.9735 4.939,-0.981 7.596,-0.03 1.714,0.612 2.395,0.642 3.837,0.1725 1.125,-0.366 2.578,-0.4395 4.048,-0.2055 3.257,0.519 6.089,0.4425 9.839,-0.2655 3.873,-0.7305 13.192,-0.045 16.29,1.191 1.695,0.678 2.361,0.6855 6.412,0.075 2.486,-0.375 5.063,-0.8895 5.724,-1.1445 1.656,-0.636 13.52,-0.3585 16.314,0.381 1.914,0.507 2.673,0.4875 4.763,-0.12 1.801,-0.5265 3.793,-0.6615 7.246,-0.4905 2.621,0.135 6.69,0.2055 9.045,0.1695 2.355,-0.03 5.295,0.177 6.533,0.474 1.83,0.4395 2.676,0.402 4.528,-0.195 2.594,-0.8355 11.816,-0.7605 14.067,0.12 0.99,0.384 2.211,0.324 4.962,-0.2445 3.981,-0.8235 6.663,-0.7185 13.016,0.51 3.871,0.7485 4.276,0.741 9.286,-0.1725 9.479,-1.729 12.101,-1.9546 17.057,-1.467 2.569,0.2535 4.893,0.5955 5.16,0.7605 0.27,0.165 3.927,0.369 8.13,0.453 4.375,0.09 9.546,0.495 12.09,0.9525 l 4.446,0.801 1.485,-1.245 c 2.086,-1.7565 3.394,-1.9573 8.55,-1.314 2.497,0.312 5.215,0.4305 6.042,0.2655 1.08,-0.216 2.239,0.03 4.11,0.894 2.437,1.116 3.009,1.182 8.728,1.02 3.368,-0.09 6.978,-0.408 8.027,-0.693 1.365,-0.372 3.19,-0.375 6.429,-0.014 2.488,0.279 6.703,0.7185 9.367,0.9765 2.664,0.2595 5.378,0.6735 6.03,0.9225 0.645,0.2475 3.08,0.3315 5.396,0.186 2.632,-0.165 5.281,-0.03 7.068,0.345 2.899,0.6195 7.21,1.0335 10.239,0.984 0.915,-0.015 2.631,0.2775 3.81,0.6495 1.185,0.372 3.537,0.6615 5.239,0.642 3.155,-0.03 9.579,0.711 11.054,1.2825 1.215,0.468 1.605,2.1812 0.66,2.8694 -0.435,0.3135 -2.546,0.7155 -4.701,0.891 -3.449,0.282 -7.274,0.8205 -10.709,1.5094 -0.675,0.135 -1.065,0.561 -1.065,1.161 0,0.5205 -0.525,1.407 -1.185,1.9704 -0.645,0.5625 -1.768,1.9011 -2.491,2.9733 -0.72,1.0725 -2.241,3.0054 -3.375,4.2957 -1.14,1.29 -2.622,3.3263 -3.306,4.5245 -0.675,1.1985 -1.562,2.5546 -1.952,3.0147 -0.9,1.0605 -0.465,1.5073 1.08,1.119 0.675,-0.168 1.535,-0.9405 1.947,-1.74 0.48,-0.939 1.632,-1.8581 3.306,-2.6511 1.41,-0.6675 2.675,-1.5032 2.811,-1.8572 0.15,-0.354 1.38,-1.377 2.774,-2.2729 1.395,-0.8955 2.956,-2.1149 3.48,-2.7084 0.525,-0.594 2.077,-1.8011 3.453,-2.6832 1.38,-0.882 2.5,-1.8255 2.5,-2.0963 0,-0.2715 0.54,-0.738 1.2,-1.0365 1.035,-0.468 1.365,-0.3885 2.382,0.57 1.485,1.3995 1.505,2.5329 0,3.6765 -0.63,0.4905 -1.675,1.9532 -2.334,3.2493 -0.66,1.296 -1.777,2.8925 -2.482,3.5474 -0.705,0.654 -1.607,1.8126 -2.003,2.5728 -1.08,2.062 -3.954,5.8917 -5.997,7.9716 -2.059,2.0962 -1.593,2.4019 0.99,0.648 0.96,-0.654 2.148,-1.191 2.633,-1.191 0.48,0 1.728,-0.8565 2.764,-1.905 1.035,-1.047 2.169,-1.905 2.516,-1.905 0.345,0 1.563,-0.7395 2.704,-1.6425 1.926,-1.524 4.946,-2.5298 6.632,-2.2086 0.9,0.1725 1.41,0.96 1.425,2.197 0,0.906 -2.697,5.0133 -4.695,7.1309 -0.495,0.5235 -1.17,1.488 -1.508,2.1432 -0.33,0.654 -1.882,2.6263 -3.438,4.381 -1.557,1.7547 -2.752,3.4211 -2.659,3.7029 0.15,0.282 1.648,-0.4575 3.453,-1.6426 1.804,-1.185 3.669,-2.1551 4.144,-2.1551 0.48,0 1.245,-0.3915 1.715,-0.87 0.465,-0.4785 1.645,-1.3455 2.614,-1.9285 2.081,-1.2525 2.142,-1.422 2.511,-6.9654 0.39,-5.9019 1.23,-12.2148 1.755,-13.2159 0.615,-1.164 2.154,-1.0395 2.966,0.2385 0.375,0.5895 0.825,2.8933 0.99,5.1198 0.165,2.2264 0.615,5.1205 0.975,6.4312 0.765,2.7531 0.78,3.0083 0.72,8.0943 0,3.0104 0.18,4.2897 1.005,6.0953 0.93,1.9954 0.99,2.5368 0.525,4.2672 -0.435,1.6267 -0.39,2.2414 0.225,3.4297 0.57,1.0875 0.78,3.11 0.855,8.1153 0,3.6672 0.345,7.2792 0.645,8.0267 0.33,0.843 0.42,2.7439 0.24,5.0007 -0.255,3.2031 -0.15,4.0386 0.975,6.9411 1.26,3.288 1.26,3.3235 0.75,10.0894 -0.3,4.0584 -0.33,7.2393 -0.15,7.9071 0.24,0.615 0.57,2.9321 0.765,5.1504 0.285,3.4565 0.195,4.3868 -0.645,6.5039 -0.93,2.3398 -0.93,2.5876 -0.225,4.6903 0.54,1.5885 0.66,2.9178 0.42,4.6734 -0.195,1.35 -0.285,2.9891 -0.21,3.644 0.165,1.4595 0.15,4.119 -0.24,12.1443 -0.375,8.7904 -0.33,10.1772 0.45,12.037 0.915,2.1786 0.87,4.8684 -0.15,7.2992 -0.645,1.6084 -0.69,2.2536 -0.24,3.4963 0.75,2.0631 0.69,4.2429 -0.15,6.2669 -0.57,1.371 -0.6,2.0685 -0.15,3.7534 0.42,1.5803 0.42,2.5137 -0.01,3.9515 -0.735,2.4738 -0.69,5.8141 0.15,9.6301 0.78,3.5104 0.945,13.1467 0.27,14.9302 -0.285,0.7455 -0.285,1.7964 0.01,2.8469 0.36,1.275 0.225,2.7625 -0.57,6.3507 -0.87,3.9442 -1.035,6.1366 -1.005,13.8624 0,8.3361 0.15,9.4573 1.125,12.2374 l 1.095,3.0605 -1.02,2.4235 -1.02,2.4237 0.945,2.1444 c 0.84,1.9035 0.885,2.4275 0.39,4.6604 -0.48,2.1705 -0.45,2.731 0.24,4.0834 1.035,1.998 1.035,4.9713 0,7.5497 -0.495,1.248 -0.675,2.427 -0.45,3.0853 0.195,0.5865 0.525,3.5304 0.735,6.5427 0.21,3.0123 0.6,8.2454 0.855,11.6291 0.375,4.8633 0.345,6.5595 -0.165,8.0962 -0.345,1.0755 -0.78,5.4566 -0.945,9.8022 -0.27,6.5706 -0.195,8.1482 0.435,9.6288 0.945,2.2418 0.96,6.5579 0,8.7803 -0.945,2.28 -0.9,3.6309 0.225,5.7232 1.305,2.4468 1.644,5.3091 0.9,7.8102 -0.345,1.1595 -0.675,3.6095 -0.735,5.4431 -0.21,5.6857 -0.495,10.3392 -0.87,13.8361 -0.285,2.6277 -0.165,3.975 0.495,6.1913 0.465,1.5579 1.02,4.7614 1.23,7.1188 0.21,2.3574 0.525,5.3016 0.705,6.5424 0.255,1.7846 0.15,2.7708 -0.735,4.7186 l -1.065,2.4622 1.11,1.9491 c 1.335,2.3426 1.47,7.113 0.285,9.8885 -0.705,1.656 -0.69,1.8943 0.345,4.5243 1.185,2.968 1.245,6.0159 0.45,18.8038 -0.255,4.0659 -0.165,5.5256 0.45,7.3476 0.975,2.8557 0.99,7.3179 0,9.581 -0.66,1.5639 -0.645,1.9288 0,3.7741 0.54,1.416 0.675,2.5979 0.435,3.8495 -0.285,1.5016 -0.735,9.9966 -0.645,12.5221 0.01,0.393 0,2.4288 0.15,4.5243 0,2.0955 0.39,4.7208 0.75,5.8341 0.495,1.5527 0.51,2.4401 0.15,3.81 -0.72,2.4554 -0.84,15.7101 -0.165,17.4141 0.765,1.8914 0.66,5.015 -0.225,7.6217 -0.72,2.1072 -0.705,2.3829 0.225,5.1438 0.87,2.5867 0.93,3.3022 0.48,6.312 -0.285,1.8669 -0.735,4.1974 -1.02,5.179 -0.375,1.2975 -0.36,2.2869 0,3.627 0.3,1.014 0.57,3.1037 0.585,4.6449 0,1.5413 0.195,3.9012 0.39,5.2445 0.21,1.452 0.15,4.5402 -0.315,7.62 -0.525,4.1227 -0.54,5.5359 -0.15,6.9354 0.72,2.2086 0.33,4.7221 -1.035,6.6423 -1.02,1.44 -1.035,1.5972 -0.405,5.1151 0.87,4.848 0.735,13.9818 -0.375,23.2654 -0.345,2.8838 -0.78,4.394 -1.68,5.715 -0.675,0.987 -1.554,2.9942 -1.968,4.4591 -1.626,5.7529 -4.818,7.4817 -11.262,6.0997 -1.425,-0.3075 -3.077,-1.08 -3.977,-1.8706 -1.509,-1.326 -1.587,-1.3395 -4.843,-0.8685 -1.821,0.264 -5.132,0.6675 -7.358,0.8985 -10.198,1.0575 -13.356,1.4655 -16.908,2.1886 -6.153,1.251 -7.756,1.3185 -9.777,0.408 -1.485,-0.672 -2.109,-0.726 -3.358,-0.2895 -1.925,0.6705 -4.74,0.6855 -6.455,0.03 -0.96,-0.366 -2.997,-0.3 -7.533,0.24 -4.309,0.5145 -8.548,0.6675 -13.834,0.504 -7.404,-0.231 -14.664,-0.279 -19.526,-0.135 -1.305,0.045 -3.882,0 -5.715,-0.09 -1.834,-0.09 -6.79,-0.03 -11.014,0.15 -5.175,0.21 -8.517,0.135 -10.241,-0.24 -3.276,-0.708 -3.97,-0.7065 -12.637,0.015 -6.566,0.549 -7.362,0.531 -8.769,-0.1965 -1.29,-0.6675 -1.85,-0.7095 -3.369,-0.2535 -1.973,0.591 -9.551,0.282 -12.11,-0.4935 -1.05,-0.3165 -1.936,-0.255 -3.096,0.213 -1.809,0.729 -11.487,0.789 -17.394,0.105 -2.716,-0.3135 -3.874,-0.2265 -5.887,0.441 -1.83,0.6075 -3.101,0.7365 -4.713,0.4755 -1.215,-0.1965 -3.389,-0.348 -4.829,-0.336 -1.44,0.012 -6.585,0.06 -11.43,0.09 -4.846,0.045 -9.756,-0.135 -10.911,-0.4005 -1.26,-0.285 -5.895,-0.363 -11.557,-0.1965 -6.828,0.201 -10.154,0.105 -11.961,-0.3225 -2.118,-0.5085 -2.886,-0.4875 -4.989,0.135 -1.875,0.5565 -3.687,0.6705 -7.371,0.462 -2.979,-0.1695 -5.882,-0.06 -7.44,0.2715 -2.151,0.462 -2.963,0.42 -5.127,-0.2625 -2.432,-0.7665 -2.799,-0.765 -6.732,0.03 -3.377,0.6825 -4.428,0.7335 -5.588,0.2715 -2.247,-0.8955 -8.221,-0.96 -11.167,-0.12 -1.973,0.561 -3.399,0.645 -5.954,0.348 -1.846,-0.2145 -5.823,-0.4155 -8.835,-0.4485 -3.211,-0.03 -5.907,-0.2925 -6.517,-0.624 -1.455,-0.7935 -6.18,-0.7035 -9.138,0.1755 -1.365,0.408 -3.393,0.7485 -4.493,0.7575 -1.095,0.01 -3.444,0.231 -5.212,0.4935 -2.504,0.372 -4.032,0.3165 -6.906,-0.249 -3.411,-0.6705 -11.729,-0.8655 -29.765,-0.6975 -2.031,0.015 -4.173,0 -4.762,-0.045 -0.585,-0.045 -3.644,0.1605 -6.788,0.459 -8.076,0.768 -9.277,0.72 -11.245,-0.4485 -1.563,-0.9285 -1.955,-0.972 -4.266,-0.477 -1.395,0.3 -3.972,0.426 -5.715,0.2805 -1.899,-0.159 -3.911,-0.03 -5.021,0.306 -2.355,0.7275 -17.812,0.6765 -23.862,-0.075 -3.132,-0.3915 -4.768,-0.4035 -5.715,-0.045 -1.335,0.51 -11.871,1.176 -15.85,1.0035 -1.185,-0.045 -3.858,-0.045 -5.954,8e-4 -6.192,0.153 -8.778,0.075 -13.89,-0.4245 -3.138,-0.306 -5.736,-0.3105 -7.383,-0.013 -2.013,0.3645 -3.132,0.291 -5.397,-0.3525 -3.523,-1.0005 -3.666,-1.002 -9.525,-0.09 -3.447,0.534 -5.331,0.6105 -6.819,0.279 -1.44,-0.321 -2.626,-0.288 -3.954,0.105 -1.425,0.4275 -2.631,0.438 -4.848,0.045 -3.543,-0.627 -14.626,-0.4455 -20.574,0.339 -5.398,0.711 -11.218,0.285 -13.959,-1.02 -1.954,-0.9315 -2.17,-0.942 -4.524,-0.228 -1.365,0.4125 -4.417,0.891 -6.795,1.0635 -3.577,0.2595 -4.594,0.1725 -5.899,-0.5025 -1.125,-0.5835 -1.998,-0.7095 -3.06,-0.441 -0.81,0.2055 -5.447,0.447 -10.292,0.534 -14.019,0.2535 -21.306,0.489 -26.643,0.861 -3.433,0.2385 -5.986,0.156 -8.245,-0.2715 -2.547,-0.48 -3.77,-0.495 -5.505,-0.06 -1.664,0.411 -3.627,0.42 -7.709,0.03 -10.129,-0.9585 -11.002,-0.987 -14.062,-0.4545 -2.252,0.3915 -3.606,0.39 -5.183,-0.01 -1.78,-0.4485 -2.488,-0.4005 -4.294,0.2895 -2.105,0.804 -2.253,0.798 -5.457,-0.2325 -2.97,-0.9555 -3.552,-1.002 -5.906,-0.474 -1.62,0.363 -3.672,0.456 -5.404,0.246 -3.323,-0.402 -3.575,-0.405 -13.034,-0.09 -4.06,0.135 -8.511,0.5145 -9.892,0.846 -1.919,0.462 -2.985,0.4785 -4.524,0.075 -1.395,-0.3705 -2.75,-0.393 -4.395,-0.075 -1.668,0.3255 -3.206,0.294 -5.133,-0.105 -1.805,-0.372 -4.016,-0.441 -6.429,-0.198 -2.024,0.204 -6.696,0.441 -10.386,0.5265 -5.88,0.135 -6.917,0.045 -8.405,-0.753 z m 715.128,-10.8927 c 0.165,-1.7958 0.615,-4.1409 0.99,-5.2113 0.525,-1.4835 0.57,-2.3696 0.195,-3.7275 -0.27,-0.9795 -0.375,-3.4032 -0.24,-5.3853 0.33,-4.8172 1.62,-15.6282 1.92,-16.1142 0.15,-0.213 0.48,-3.4477 0.78,-7.1877 0.42,-5.2429 0.405,-7.8555 0,-11.4102 -0.33,-2.5357 -0.555,-5.0389 -0.51,-5.5629 0,-0.5235 0.165,-3.0955 0.255,-5.715 0.15,-2.6193 0.42,-5.3698 0.72,-6.112 0.3,-0.7425 0.39,-1.5996 0.195,-1.905 -0.9,-1.416 -1.57,-15.1764 -1.095,-22.701 0,-1.179 0,-3.8577 -0.21,-5.9532 -0.36,-4.1084 -0.36,-4.5093 -0.15,-13.8113 0.15,-4.2538 0,-6.8799 -0.495,-8.3922 -0.51,-1.7362 -0.54,-2.6313 -0.15,-4.2381 0.675,-2.4828 0.765,-20.2675 0.15,-23.3265 -0.24,-1.179 -0.405,-5.9497 -0.36,-10.6023 0.15,-7.0123 0.24,-8.7868 0.96,-10.3755 0.825,-1.8399 0.825,-1.9872 0,-3.6853 -0.66,-1.383 -0.9,-3.4307 -1.08,-9.3888 -0.15,-4.191 -0.3,-9.5489 -0.36,-11.9063 0,-2.3574 -0.285,-5.3802 -0.48,-6.7173 -0.255,-1.7403 -0.15,-3.2056 0.45,-5.1577 0.6,-2.0415 0.675,-3.1061 0.33,-4.2365 -1.41,-4.5597 -1.537,-6.6832 -0.54,-9.5791 l 0.96,-2.808 -0.96,-3.4221 c -0.54,-1.9356 -1.05,-5.5316 -1.185,-8.2781 -0.15,-2.6707 -0.315,-5.0203 -0.45,-5.2215 -0.15,-0.201 0,-2.9224 0.21,-6.0475 0.3,-3.9453 0.27,-6.2214 -0.15,-7.4463 -0.39,-1.3275 -0.375,-2.6837 0.15,-5.4768 0.99,-5.949 1.245,-19.9254 0.465,-25.6203 -1.14,-8.259 -1.485,-15.6746 -0.9,-18.6713 0.51,-2.5447 0.465,-3.6187 -0.285,-7.687 -0.585,-3.1731 -0.75,-5.4125 -0.51,-6.8066 0.195,-1.143 0.36,-2.667 0.345,-3.3873 0,-0.72 -0.01,-2.3812 0,-3.6909 0,-10.9819 0.01,-18.0874 0,-25.0032 -0.225,-19.9291 -0.15,-24.3069 0.72,-26.3532 0.63,-1.5741 0.69,-2.2728 0.27,-3.4765 -0.285,-0.8295 -0.525,-2.4258 -0.525,-3.5493 0,-1.1235 -0.285,-3.3953 -0.645,-5.0486 -0.96,-4.4773 -0.435,-22.9736 0.81,-28.0153 0.9,-3.6757 1.08,-7.8549 0.42,-9.531 -0.825,-2.0724 -1.17,-9.988 -0.6,-13.5072 0.405,-2.4786 0.39,-3.8994 0,-5.8158 -0.495,-2.1846 -0.45,-2.8384 0.27,-4.7214 0.69,-1.7986 0.78,-2.9616 0.495,-6.5668 -0.18,-2.4095 -0.645,-5.6285 -1.035,-7.1532 -0.465,-1.8276 -0.57,-3.4503 -0.33,-4.7625 0.195,-1.095 0.3,-2.2047 0.225,-2.4666 -0.15,-0.2625 -0.315,-2.4336 -0.51,-4.8261 -0.345,-3.9036 -0.165,-6.6836 0.78,-12.7766 l 0.3,-1.8864 -1.14,0.8115 c -0.63,0.4455 -1.862,1.1355 -2.75,1.5326 -0.885,0.396 -2.835,1.5549 -4.327,2.5737 -1.5,1.0185 -3.567,2.2875 -4.61,2.8194 -1.05,0.5325 -2.164,1.29 -2.491,1.6854 -0.33,0.3945 -1.275,0.8745 -2.112,1.0635 l -1.515,0.345 1.666,0.444 c 2.655,0.708 3.156,2.2084 1.17,3.5098 -0.795,0.522 -2.877,0.924 -6.072,1.173 -2.671,0.2085 -5.823,0.6375 -7.002,0.954 -1.185,0.3165 -4.285,0.6135 -6.906,0.6615 -2.619,0.045 -5.665,0.3435 -6.768,0.6585 -1.612,0.459 -2.314,0.4455 -3.573,-0.075 -0.915,-0.3765 -2.056,-0.501 -2.755,-0.2985 -0.66,0.1875 -2.112,0.363 -3.239,0.39 -1.125,0.03 -2.656,0.3615 -3.399,0.747 -0.84,0.435 -2.944,0.7305 -5.572,0.7815 -2.322,0.045 -4.581,0.267 -5.022,0.492 -0.435,0.225 -3.597,0.4965 -7.013,0.6045 -4.059,0.135 -7.042,0.4725 -8.614,0.9945 -1.73,0.5745 -3.237,0.72 -5.37,0.5175 -4.08,-0.387 -4.521,-0.3795 -11.54,0.1995 -3.405,0.2805 -6.726,0.5205 -7.381,0.534 -0.66,0.013 -2.394,0.2415 -3.864,0.51 -2.34,0.426 -2.955,0.3615 -4.941,-0.5175 -2.603,-1.1505 -5.276,-1.2645 -8.319,-0.354 -1.185,0.354 -2.763,0.495 -3.573,0.3165 -1.425,-0.312 -29.57,-0.2985 -30.5,0.015 -0.255,0.09 -1.485,10e-5 -2.7,-0.195 -1.47,-0.2355 -3.751,-0.09 -6.756,0.4545 l -4.533,0.81 -2.607,-1.3185 c -2.539,-1.284 -2.658,-1.299 -4.672,-0.5805 -2.924,1.0425 -10.83,1.6078 -17.309,1.2375 -1.05,-0.06 -3.07,0.12 -4.495,0.3855 -2.127,0.4065 -3.263,0.333 -6.351,-0.4035 -2.069,-0.4935 -4.011,-0.7365 -4.316,-0.5385 -0.3,0.198 -2.589,0.3915 -5.077,0.432 -2.489,0.045 -5.618,0.2235 -6.954,0.411 -1.952,0.273 -2.877,0.135 -4.704,-0.6675 -2.61,-1.155 -3.698,-1.2435 -5.162,-0.423 -0.645,0.363 -3.561,0.6315 -7.708,0.711 -3.666,0.075 -7.418,0.1515 -8.334,0.18 -4.964,0.1575 -11.379,-0.504 -13.829,-1.4265 -3.195,-1.203 -7.843,-1.0995 -9.858,0.219 -1.627,1.0665 -9.747,1.1715 -15.841,0.204 -4.844,-0.768 -17.621,-0.9105 -20.1,-0.2235 -1.836,0.5085 -6.603,0.207 -13.238,-0.8385 -1.965,-0.309 -4.323,-0.4905 -5.239,-0.402 -2.894,0.2775 -10.931,0.2715 -18.434,-0.015 -3.982,-0.153 -8.055,-0.135 -9.048,0.03 -0.99,0.171 -2.665,0.12 -3.712,-0.135 -3.783,-0.87 -10.727,-0.7335 -14.219,0.279 -2.782,0.807 -3.732,0.876 -6.429,0.4695 -1.741,-0.2625 -4.137,-0.3795 -5.325,-0.2595 -1.185,0.12 -3.493,-0.135 -5.131,-0.5535 -2.522,-0.654 -3.402,-0.681 -5.807,-0.1845 -2.275,0.4695 -3.307,0.4635 -5.238,-0.03 -1.578,-0.4035 -3.522,-0.504 -5.652,-0.2895 -2.374,0.2385 -3.928,0.12 -5.788,-0.429 -3.758,-1.116 -9.786,-1.0035 -12.152,0.225 -1.59,0.825 -2.374,0.93 -4.983,0.6555 -1.702,-0.1785 -10.275,-0.42 -19.05,-0.537 -14.469,-0.1935 -20.971,-0.366 -26.431,-0.699 -1.05,-0.06 -4.079,0.1605 -6.734,0.501 -4.503,0.5745 -5.098,0.549 -8.818,-0.3825 l -3.99,-0.999 -2.814,0.9885 c -2.211,0.777 -3.33,0.912 -5.231,0.63 -1.335,-0.198 -4.132,-0.4035 -6.228,-0.459 -2.095,-0.06 -4.774,-0.291 -5.952,-0.525 -1.506,-0.2985 -2.781,-0.2385 -4.287,0.2025 -1.567,0.4605 -2.718,0.504 -4.285,0.162 -4.398,-0.957 -8.252,-1.08 -10.071,-0.3195 -2.283,0.954 -12.693,0.945 -14.985,-0.013 -1.095,-0.4575 -1.926,-0.5205 -2.748,-0.207 -0.645,0.246 -3.414,0.699 -6.149,1.008 -4.686,0.528 -5.178,0.4965 -8.631,-0.528 -3.486,-1.035 -3.741,-1.05 -5.311,-0.3 -2.681,1.278 -5.061,1.4505 -8.045,0.5835 -1.993,-0.579 -3.571,-0.7065 -5.908,-0.4755 -1.755,0.1725 -3.953,0.105 -4.886,-0.1545 -1.26,-0.3465 -2.103,-0.2985 -3.255,0.1875 -1.852,0.7785 -3.768,0.837 -5.529,0.168 -0.9,-0.342 -2.133,-0.321 -4.111,0.075 -2.202,0.4335 -3.375,0.4245 -5.309,-0.045 -2.127,-0.51 -2.743,-0.486 -4.312,0.1695 -2.334,0.975 -4.049,0.966 -6.546,-0.03 -1.866,-0.747 -2.141,-0.747 -4.242,0 -2.577,0.915 -5.783,1.038 -7.208,0.2745 -0.735,-0.396 -1.575,-0.345 -3.421,0.21 -1.974,0.5925 -4.862,0.714 -15.063,0.633 -6.942,-0.06 -12.882,-0.264 -13.2,-0.465 -0.315,-0.201 -1.818,-0.075 -3.333,0.2865 -2.7,0.639 -7.607,0.6855 -14.9,0.15 -1.965,-0.15 -4.929,-0.075 -6.586,0.1695 -1.988,0.288 -3.933,0.261 -5.715,-0.075 -1.485,-0.2835 -3.344,-0.4965 -4.13,-0.4755 -0.78,0.015 -4.321,0.1515 -7.858,0.2895 -5.058,0.1965 -6.918,0.09 -8.721,-0.495 -1.872,-0.6075 -3.537,-0.681 -9.095,-0.4035 l -6.804,0.3405 -0.495,2.9226 c -0.315,1.8379 -0.345,4.6018 -0.15,7.447 0.225,2.4884 0.615,7.2033 0.885,10.4775 l 0.495,5.9531 -1.515,3.0226 -1.515,3.0225 1.335,2.3841 c 1.2,2.126 1.305,2.6753 1.02,5.0738 -0.18,1.479 -0.315,3.2253 -0.285,3.8802 0.15,2.8809 0.495,8.5158 0.78,10.5241 0.21,1.452 0,3.0806 -0.45,4.83 -1.17,4.0074 -1.365,9.3051 -0.495,13.046 0.675,2.9299 0.675,3.4767 0,6.3967 -0.75,3.0784 -0.75,3.2596 0.165,5.056 1.512,2.9625 1.71,5.0252 0.78,8.0096 -0.675,2.1582 -0.735,2.9839 -0.3,4.4254 0.285,0.975 0.525,4.2356 0.525,7.2464 0,3.0106 0.01,7.0842 0,9.0523 0,1.9682 -0.165,4.1718 -0.435,4.8969 -0.36,0.942 -0.345,1.9056 0,3.3723 0.465,1.7079 0.42,2.4743 -0.27,4.5509 -0.765,2.3536 -0.765,2.6191 0,4.62 0.69,1.803 0.765,3.1546 0.495,8.9707 -0.165,3.7664 -0.555,7.8938 -0.84,9.1722 -0.45,1.9485 -0.405,2.5665 0.24,3.8225 1.035,2.0037 0.975,4.6026 -0.195,8.3893 l -0.975,3.1343 1.05,2.0356 c 0.915,1.7517 1.08,2.9984 1.26,8.9412 0.15,3.798 0.18,8.2986 0.15,10.0013 0,1.7025 0,5.8333 0,9.1794 0,5.1292 -0.15,6.3742 -0.945,7.9339 -0.93,1.808 -0.93,2.0436 -0.195,10.3469 0.405,4.6731 0.81,9.6753 0.885,11.116 0,1.44 0.285,3.6018 0.48,4.8026 0.255,1.5876 0.15,2.566 -0.375,3.5859 -0.615,1.203 -0.66,2.5546 -0.27,9.4849 0.255,4.4453 0.465,8.618 0.48,9.2729 0,2.7337 -0.525,17.6268 -0.825,20.5713 -0.225,2.277 -0.15,3.7791 0.39,5.2558 0.57,1.6883 0.63,3.5069 0.33,9.9087 -0.21,4.3731 -0.18,9.5261 0,11.651 0.63,5.5192 0.54,8.008 -0.36,10.5799 -1.14,3.2678 -1.05,14.2265 0.15,17.3652 0.75,1.9506 0.78,2.6321 0.285,5.4804 -0.405,2.3711 -0.42,3.8001 0,5.2718 0.375,1.47 0.36,3.4099 0,7.1401 -0.735,6.5454 -0.615,13.0205 0.27,16.1495 0.63,2.1847 0.615,2.811 0,5.6805 -0.405,1.7737 -0.72,4.4191 -0.675,5.8788 0,1.4595 -0.15,3.9397 -0.285,5.5113 -0.24,1.9048 -0.15,4.6042 0.42,8.0962 0.66,4.5273 0.84,8.0456 0.735,14.2875 -0.02,0.786 -0.02,2.6075 0,4.0482 0.01,1.44 0,3.1551 0.01,3.81 0,0.6555 0.15,2.4765 0.285,4.0481 0.27,2.586 0.18,3.0367 -0.99,4.7433 -1.215,1.788 -1.26,2.0127 -0.735,4.3311 0.3,1.3455 0.405,3.339 0.225,4.4314 -0.225,1.3905 0,2.6406 0.51,4.1646 0.63,1.6593 0.75,2.8206 0.495,4.8746 -0.18,1.4835 -0.315,3.7678 -0.285,5.0775 0,1.3095 -0.18,3.2806 -0.48,4.38 -0.48,1.7506 -0.42,2.2567 0.465,4.0794 1.185,2.4582 1.245,3.6021 0.285,6.7372 -0.39,1.2855 -0.705,3.1794 -0.705,4.2078 v 1.87 l 3.453,-0.315 c 2.649,-0.2415 3.871,-0.135 5.25,0.447 1.455,0.6165 1.998,0.651 2.857,0.183 0.585,-0.318 3.096,-0.6375 5.585,-0.7095 2.488,-0.075 6.238,-0.2445 8.334,-0.384 7.302,-0.4845 8.497,-0.4155 10.716,0.624 2.7,1.2645 4.287,1.2735 8.199,0.045 2.958,-0.9285 3.273,-0.9405 5.983,-0.2385 3.725,0.9645 5.064,0.936 8.243,-0.1815 2.721,-0.957 4.692,-0.843 7.02,0.402 0.885,0.474 1.47,0.432 3.21,-0.231 2.38,-0.909 6.196,-0.7335 9.517,0.438 1.569,0.5535 3.174,0.5925 8.796,0.2145 4.916,-0.3315 7.382,-0.3105 8.651,0.075 1.519,0.4545 2.032,0.393 3.574,-0.4335 2.274,-1.2195 4.707,-1.227 7.359,-0.03 2.916,1.323 9.581,1.308 14.757,-0.03 2.984,-0.7725 4.29,-0.9 5.822,-0.564 1.08,0.2385 6.048,0.3585 11.025,0.2685 4.977,-0.09 9.798,-0.162 10.716,-0.1605 0.915,0 2.952,-0.015 4.524,-0.045 8.202,-0.135 15.685,-0.015 19.392,0.309 2.911,0.2565 4.792,0.186 6.298,-0.2355 1.827,-0.5115 2.499,-0.486 4.521,0.1755 2.196,0.7185 2.52,0.7185 4.319,0 2.808,-1.1235 8.653,-0.732 11.302,0.7575 1.943,1.092 2.012,1.0965 4.77,0.3225 3.513,-0.9855 9.416,-1.0125 12.23,-0.06 2.25,0.7635 2.851,0.7035 7.819,-0.777 1.662,-0.4965 3.251,-0.7605 3.53,-0.588 0.285,0.1725 2.775,0.3615 5.548,0.42 2.774,0.06 6.008,0.3285 7.187,0.5985 1.992,0.456 8.422,-0.189 15.942,-1.6004 1.842,-0.345 6.39,0.36 11.277,1.7481 3.793,1.077 4.375,1.0965 7.104,0.2325 1.155,-0.3675 4.252,-0.9255 6.871,-1.2405 4.502,-0.5415 4.914,-0.516 7.506,0.465 2.195,0.831 3.05,0.945 4.286,0.5685 0.855,-0.258 3.043,-0.618 4.878,-0.798 1.833,-0.18 4.405,-0.444 5.715,-0.588 3.364,-0.3675 21.121,-0.1665 23.629,0.267 1.395,0.2415 2.922,0.135 4.623,-0.3405 2.1,-0.5805 3.017,-0.6015 5.337,-0.12 1.541,0.318 3.318,0.4485 3.95,0.291 0.63,-0.159 1.98,-0.06 2.997,0.2055 1.125,0.3015 2.545,0.3345 3.636,0.09 1.005,-0.2295 2.563,-0.2235 3.571,0.014 1.26,0.2985 2.88,0.1905 5.511,-0.3645 3.644,-0.7695 3.792,-0.7635 6.941,0.2685 3.204,1.05 3.226,1.0515 5.562,0.1515 3.079,-1.185 11.785,-1.131 16.542,0.105 3.189,0.8265 3.282,0.8235 5.566,-0.159 2.744,-1.1805 8.787,-1.3725 11.73,-0.372 2.352,0.7995 16.448,0.7005 20.199,-0.135 2.366,-0.531 3.021,-0.4845 6.341,0.447 3.604,1.011 3.802,1.0185 7.363,0.2535 3.129,-0.672 4.757,-0.7185 11.201,-0.318 7.48,0.465 15.201,0.135 19.945,-0.858 1.53,-0.3195 3.047,-0.303 4.763,0.045 1.38,0.285 3.931,0.489 5.659,0.4515 1.727,-0.03 3.675,0.135 4.329,0.384 0.84,0.3195 1.832,0.2415 3.372,-0.2655 1.961,-0.645 2.447,-0.642 4.779,0.03 2.033,0.591 2.922,0.6405 4.103,0.2295 0.96,-0.333 2.758,-0.3975 4.941,-0.177 1.888,0.192 5.47,0.279 7.959,0.1965 4.959,-0.1665 6.655,-0.15 16.192,0.1725 4.829,0.162 6.905,0.045 8.334,-0.4665 2.318,-0.8295 12.701,-0.966 14.676,-0.192 0.735,0.288 3.269,0.525 5.624,0.525 2.355,0 5.262,0.246 6.459,0.5475 1.834,0.462 2.545,0.4155 4.507,-0.2895 1.832,-0.6585 3.12,-0.7725 6.012,-0.534 4.356,0.36 4.655,0.36 10.884,0 3.738,-0.219 5.504,-0.105 7.857,0.531 1.671,0.447 3.515,0.9195 4.1,1.0485 0.585,0.135 2.514,-0.3555 4.287,-1.0815 2.962,-1.212 3.678,-1.311 8.889,-1.227 4.552,0.075 6.123,0.2865 7.981,1.086 1.82,0.783 2.849,0.93 4.811,0.69 7.191,-0.879 8.928,-0.897 10.99,-0.105 1.979,0.756 2.153,0.747 4.35,-0.225 2.09,-0.924 2.529,-0.9615 5.052,-0.426 1.52,0.3225 3.366,0.4335 4.101,0.2475 0.735,-0.1875 4.769,-0.33 8.96,-0.3165 5.364,0.015 8.455,-0.1935 10.444,-0.708 2.675,-0.6915 2.979,-0.678 5.777,0.267 2.331,0.7875 3.229,0.8925 4.264,0.4995 2.228,-0.846 12.044,-0.474 14.46,0.549 1.14,0.4845 2.969,0.8865 4.049,0.8925 1.08,0.01 2.898,0.435 4.039,0.9525 1.14,0.5175 2.699,0.942 3.459,0.942 1.986,0 7.86,1.7061 9.786,2.8419 0.9,0.5325 2.267,0.9675 3.032,0.9675 0.765,0 2.2,0.315 3.187,0.7005 0.99,0.3855 3.902,1.2405 6.473,1.9002 2.572,0.66 5.038,1.41 5.478,1.6657 1.29,0.756 1.365,0.645 1.68,-2.7697 z m -429.982,-96.237 c -1.95,-0.471 -3.126,-1.1535 -4.479,-2.6004 -0.99,-1.0605 -1.2,-1.9042 -1.541,-6.2698 -0.42,-5.4771 -0.21,-6.4634 2.108,-9.8762 0.675,-0.993 1.599,-2.922 2.05,-4.2862 0.45,-1.365 1.32,-3.2832 1.941,-4.2642 0.72,-1.137 1.305,-3.1212 1.625,-5.477 0.36,-2.5905 0.87,-4.2271 1.728,-5.4811 1.11,-1.622 2.124,-3.8589 5.655,-12.4854 0.645,-1.5638 1.912,-3.6087 2.826,-4.5444 1.38,-1.416 1.663,-2.0567 1.681,-3.8243 0.01,-1.1685 0.36,-2.9803 0.765,-4.0281 0.405,-1.047 0.9,-2.9961 1.125,-4.3296 0.21,-1.3335 0.69,-3.0481 1.08,-3.81 0.39,-0.762 0.84,-1.9582 1.005,-2.6583 0.165,-0.7005 0.825,-1.8933 1.47,-2.6514 0.645,-0.7575 1.305,-2.007 1.5,-2.7751 0.48,-1.9886 2.823,-7.1097 4.04,-8.8182 0.75,-1.0635 0.96,-1.8381 0.735,-2.9121 -0.465,-2.2971 0.465,-4.7607 2.556,-6.8013 1.632,-1.5929 1.915,-2.1651 1.915,-3.8565 0,-3.3558 1.707,-9.2025 3.246,-11.1173 0.78,-0.9615 1.553,-2.6482 1.742,-3.7675 0.195,-1.1145 1.185,-3.6785 2.199,-5.6972 1.05,-2.0623 1.858,-4.3623 1.86,-5.2495 0,-1.7597 0.555,-3.0104 2.217,-5.006 0.675,-0.816 1.125,-1.9668 1.125,-2.9236 0,-0.9705 0.915,-3.3237 2.382,-6.1154 1.455,-2.7625 2.385,-5.1585 2.391,-6.1249 0,-0.873 0.435,-2.5257 0.96,-3.6726 0.525,-1.1475 1.08,-2.9687 1.23,-4.0482 0.165,-1.08 1.125,-3.3687 2.139,-5.087 1.02,-1.7184 1.852,-3.2578 1.852,-3.4212 0,-0.1635 0.645,-1.3365 1.44,-2.6068 1.11,-1.7843 1.637,-3.5283 2.318,-7.6647 0.72,-4.3272 1.185,-5.832 2.455,-7.842 2.867,-4.5354 6.174,-12.1361 6.174,-14.1896 0,-1.275 1.785,-6.3592 3.332,-9.4908 0.705,-1.44 1.455,-3.2623 1.638,-4.0482 0.195,-0.786 1.155,-3.1432 2.163,-5.2387 1.005,-2.0955 1.951,-4.3955 2.113,-5.111 0.165,-0.7155 0.93,-2.0224 1.7,-2.9044 1.993,-2.2704 3.342,-5.6993 3.342,-8.5017 0,-2.9717 1.035,-5.2122 3.138,-6.8196 0.885,-0.681 1.624,-1.6113 1.624,-2.0669 0,-1.9021 1.557,-6.6649 2.883,-8.8168 0.81,-1.32 1.517,-3.2237 1.64,-4.4382 0.465,-4.5909 4.591,-9.9459 8.722,-11.318 4.607,-1.53 7.65,0.12 9.602,5.2091 1.35,3.5326 1.485,7.8907 0.3,10.1481 -0.45,0.867 -1.245,3.2017 -1.748,5.1892 -0.51,1.9874 -1.5,4.8146 -2.188,6.2825 -0.69,1.4685 -1.853,3.9549 -2.573,5.5264 -0.72,1.5717 -1.864,3.5957 -2.547,4.4979 -0.675,0.9015 -1.245,2.0277 -1.245,2.5013 0,2.2323 -4.08,12.3519 -5.82,14.4357 -2.23,2.6724 -2.878,4.5603 -3.211,9.3604 -0.33,4.8225 -0.51,5.2623 -3.218,7.8452 -0.855,0.822 -1.561,1.9677 -1.561,2.5476 0,0.5805 -0.75,2.266 -1.662,3.7467 -1.395,2.2506 -1.73,3.357 -2.073,6.7455 -0.405,4.0335 -1.245,6.4069 -2.664,7.5868 -0.405,0.3405 -0.75,1.218 -0.75,1.95 0,1.179 -1.643,5.8976 -4.302,12.3636 -0.48,1.179 -1.125,2.9297 -1.41,3.891 -0.285,0.9615 -0.84,2.0055 -1.215,2.3205 -0.375,0.315 -0.69,1.2435 -0.705,2.0621 -0.01,1.9501 -1.568,5.3289 -2.738,5.9554 -0.66,0.3525 -1.005,1.2045 -1.215,2.963 -0.165,1.3575 -1.02,4.099 -1.918,6.0922 -0.9,1.9931 -1.85,5.081 -2.12,6.8619 -0.36,2.3442 -0.87,3.7067 -1.84,4.9356 -0.75,0.933 -1.485,1.9412 -1.64,2.2389 -0.585,1.092 -2.778,8.2169 -3.096,10.0662 -0.285,1.676 -1.155,3.7191 -3.84,9.0443 -0.39,0.783 -0.915,2.5842 -1.14,4.0018 -0.315,1.9698 -0.93,3.2246 -2.575,5.322 -1.763,2.2443 -2.156,3.1017 -2.156,4.7034 0,1.2045 -0.525,3.0075 -1.365,4.6838 -0.75,1.4985 -1.506,3.6892 -1.678,4.8679 -0.195,1.383 -0.885,2.8658 -1.925,4.1799 -1.155,1.4625 -1.705,2.7386 -1.944,4.5245 -0.345,2.589 -1.425,4.7868 -3.073,6.2835 -0.525,0.4815 -0.96,1.299 -0.96,1.8142 0,0.516 -0.495,2.1437 -1.11,3.6171 -1.655,3.9819 -3.15,8.8128 -3.488,11.2761 -0.21,1.5309 -1.2,3.6011 -3.325,6.9536 -1.664,2.6254 -3.026,5.2603 -3.026,5.8554 0,0.5955 -0.615,2.2369 -1.35,3.649 -0.75,1.4115 -1.741,4.4961 -2.214,6.8535 -0.93,4.6478 -1.977,6.8495 -3.82,8.058 -0.93,0.6075 -1.185,1.179 -1.185,2.6508 0,3.209 -1.803,7.1136 -4.673,10.1222 -3.256,3.4134 -5.496,4.1905 -9.378,3.2536 z m -31.908,-4.596 c -3.933,-2.0131 -6.09,-3.2284 -8.097,-4.5622 -1.05,-0.696 -2.655,-1.4205 -3.572,-1.6103 -2.35,-0.486 -7.492,-3.472 -9.499,-5.5164 -0.93,-0.9495 -3.072,-2.419 -4.76,-3.2671 -1.686,-0.8475 -4.258,-2.6604 -5.715,-4.0275 -2.527,-2.3726 -8.116,-5.5056 -9.82,-5.5056 -1.35,0 -8.33,-3.7214 -10.271,-5.4749 -1.005,-0.9075 -2.755,-1.8846 -3.891,-2.1703 -1.14,-0.2865 -2.856,-1.2465 -3.828,-2.1363 -0.975,-0.8895 -2.565,-1.8324 -3.544,-2.096 -0.975,-0.264 -2.669,-1.074 -3.755,-1.8018 -3.439,-2.3035 -7.305,-5.3851 -7.305,-5.8237 0,-0.2325 -1.035,-0.7665 -2.304,-1.188 -1.26,-0.4215 -3.891,-1.7897 -5.833,-3.0422 -1.943,-1.2525 -4.137,-2.6557 -4.878,-3.1183 -0.735,-0.462 -1.772,-1.5614 -2.291,-2.4416 -0.6,-1.026 -1.44,-1.7106 -2.344,-1.9078 -0.765,-0.1695 -2.276,-1.1475 -3.345,-2.1749 -1.065,-1.0275 -2.364,-1.8669 -2.88,-1.8669 -1.32,0 -3.3,-1.11 -4.7,-2.6316 -0.66,-0.711 -2.125,-1.6983 -3.267,-2.1934 -1.2,-0.5175 -3.193,-2.1104 -4.711,-3.7524 -1.803,-1.9526 -3.192,-3.0024 -4.401,-3.3278 -0.975,-0.261 -2.493,-1.0035 -3.384,-1.6479 -0.885,-0.645 -2.384,-1.5937 -3.318,-2.1088 -1.637,-0.9015 -3.383,-2.4474 -5.496,-4.8621 -1.766,-2.0166 -4.839,-4.2323 -8.396,-6.0509 -1.903,-0.9735 -4.231,-2.3575 -5.172,-3.0757 -0.945,-0.7185 -1.905,-1.305 -2.14,-1.305 -0.24,0 -1.767,-0.9075 -3.401,-2.015 -1.989,-1.3485 -3.328,-2.6883 -4.051,-4.0503 -0.75,-1.4235 -1.542,-2.1883 -2.619,-2.5438 -0.84,-0.279 -2.24,-1.326 -3.096,-2.3247 -1.005,-1.1685 -2.291,-2.0364 -3.614,-2.4327 -1.245,-0.3735 -2.469,-1.1655 -3.096,-2.0067 -1.17,-1.5753 -2.331,-2.7261 -7.648,-7.6103 -3.885,-3.5695 -5.504,-6.1363 -5.522,-8.7589 0,-0.825 -0.54,-2.6471 -1.2,-4.0482 -1.951,-4.1912 -1.507,-6.3014 2.307,-10.9689 1.215,-1.488 2.213,-2.8613 2.213,-3.0507 0,-0.9405 2.521,-3.4518 4.471,-4.4552 1.215,-0.6225 4.014,-2.9103 6.234,-5.0851 3.924,-3.8454 6.125,-5.4195 7.578,-5.4195 0.39,0 1.667,-0.8295 2.838,-1.8426 1.17,-1.014 2.649,-1.9731 3.285,-2.1329 0.75,-0.1875 1.455,-0.9555 2.006,-2.1708 1.155,-2.5545 5.221,-6.03 9.846,-8.4067 1.948,-1.002 3.592,-2.2095 6.522,-4.7922 1.23,-1.0785 3.832,-2.7473 5.797,-3.7068 1.965,-0.96 5.18,-3.0423 7.145,-4.6283 1.963,-1.5859 4.321,-3.2724 5.238,-3.7477 0.915,-0.4755 2.193,-1.428 2.835,-2.1162 0.645,-0.6975 2.311,-1.5839 3.751,-2.0025 2.672,-0.777 5.634,-3.1232 10.797,-8.5505 1.7,-1.786 2.871,-2.593 4.094,-2.8165 1.185,-0.2175 2.805,-1.2975 5.31,-3.5508 2.203,-1.9806 4.497,-3.5691 5.908,-4.0916 6.701,-2.4784 6.518,-2.3641 8.762,-5.497 2.311,-3.2273 5.98,-5.6694 8.514,-5.6694 0.81,0 1.795,-0.5355 2.685,-1.473 0.765,-0.81 2.148,-1.8605 3.066,-2.3349 0.915,-0.474 2.202,-1.4445 2.857,-2.1542 0.66,-0.711 2.681,-2.0215 4.503,-2.9136 1.823,-0.8925 3.752,-2.0211 4.287,-2.509 0.54,-0.4875 1.722,-1.2645 2.64,-1.7277 0.915,-0.462 2.447,-1.6415 3.399,-2.6205 0.945,-0.9795 2.544,-2.0478 3.537,-2.3753 0.99,-0.327 3.105,-1.407 4.697,-2.3991 2.839,-1.7706 4.306,-3.0171 10.989,-9.3381 1.833,-1.7344 4.171,-3.5323 5.196,-3.9955 1.848,-0.8355 3.859,-2.3699 7.615,-5.8098 1.08,-0.984 2.702,-2.0321 3.62,-2.3298 0.915,-0.2985 2.692,-1.074 3.946,-1.7237 1.245,-0.6495 3.852,-1.4085 5.777,-1.6858 2.998,-0.432 3.807,-0.3855 5.674,0.3285 1.2,0.4575 2.858,1.6053 3.689,2.5507 1.485,1.6997 1.504,1.7588 1.185,5.3177 -0.405,4.4974 -1.29,6.3879 -3.783,8.1057 -1.08,0.7425 -3.027,2.233 -4.332,3.3123 -1.305,1.08 -2.591,1.9636 -2.858,1.965 -2.178,0.012 -3.891,1.068 -4.933,3.0409 -0.87,1.6559 -1.745,2.4404 -4.049,3.654 -1.614,0.8505 -3.469,1.9145 -4.123,2.3654 -0.66,0.4515 -1.895,0.972 -2.756,1.158 -0.945,0.204 -1.876,0.843 -2.349,1.6071 -1.395,2.2521 -3.112,3.8535 -4.698,4.377 -0.855,0.2805 -1.905,1.0515 -2.337,1.713 -0.435,0.6615 -2.112,1.8442 -3.73,2.6296 -5.319,2.5811 -6.932,3.5067 -8.28,4.752 -0.735,0.6765 -2.333,1.9032 -3.557,2.7267 -1.23,0.8235 -3.046,2.2704 -4.048,3.2154 -1.005,0.945 -2.786,2.2667 -3.965,2.937 -1.185,0.6705 -2.679,1.6935 -3.333,2.2736 -1.602,1.419 -3.048,2.1234 -4.356,2.1234 -0.69,0 -1.941,0.915 -3.484,2.5666 -3.924,4.1972 -6.303,5.9229 -9.546,6.9248 -3.318,1.0245 -8.378,4.2189 -9.66,6.0991 -2.352,3.4451 -4.14,4.7717 -8.486,6.2937 -3.906,1.368 -4.438,1.7018 -5.37,3.3588 -1.38,2.4617 -3.508,4.176 -5.665,4.5705 -0.975,0.1785 -2.525,0.996 -3.443,1.8183 -0.915,0.822 -2.313,1.7604 -3.099,2.0858 -0.78,0.3255 -1.848,1.2165 -2.361,1.9807 -1.155,1.7189 -3.976,3.3534 -5.793,3.3561 -2.028,0 -6.321,2.8067 -8.035,5.2466 -1.749,2.4906 -4.179,4.2765 -5.819,4.2765 -1.245,0 -3.94,2.3571 -3.94,3.4522 0,1.0035 -1.874,2.559 -4.365,3.6251 -1.365,0.582 -3.758,2.4538 -6.192,4.8363 -2.183,2.1373 -5.007,4.4167 -6.276,5.0653 -2.541,1.3005 -9.87,6.5694 -11.742,8.4446 -0.66,0.6555 -1.799,1.9501 -2.54,2.877 l -1.35,1.6849 0.945,1.3185 c 0.525,0.726 1.835,1.8546 2.924,2.5095 4.222,2.5376 5.035,3.1724 6.112,4.7738 0.615,0.9105 1.74,1.9818 2.508,2.3803 0.765,0.399 2.628,1.8446 4.136,3.2132 7.048,6.3951 8.967,7.8927 11.706,9.1335 1.618,0.7335 3.478,1.9231 4.134,2.6448 0.66,0.7215 2.532,1.92 4.173,2.6628 2.158,0.978 3.253,1.81 3.963,3.0138 0.54,0.915 1.395,1.7959 1.912,1.9585 0.51,0.162 1.943,1.1715 3.18,2.243 1.245,1.071 3.213,2.3722 4.392,2.8911 2.745,1.2075 7.424,4.3678 7.758,5.2392 0.39,1.0095 5.874,4.5214 8.109,5.191 1.095,0.33 2.73,1.3785 3.71,2.3882 0.96,0.99 2.473,2.1036 3.36,2.4742 0.885,0.3705 3.072,1.8702 4.855,3.3321 1.784,1.4625 3.413,2.658 3.618,2.658 0.33,0 1.26,0.918 4.895,4.8123 0.6,0.6405 1.215,0.8055 2.236,0.6 1.752,-0.351 5.348,1.284 6.419,2.9177 0.405,0.627 2.125,1.798 3.813,2.6029 1.686,0.8055 3.619,2.1207 4.294,2.9241 0.69,0.81 2.024,1.6731 3.014,1.9379 0.975,0.2625 2.568,1.095 3.525,1.852 0.96,0.756 2.886,1.8884 4.285,2.5161 1.395,0.627 3.342,1.7591 4.316,2.5145 5.427,4.2111 9.309,6.4368 12.289,7.0447 1.856,0.378 5.661,3.0579 8.687,6.1155 2.424,2.4497 3.061,2.8313 5.467,3.2762 3.084,0.57 4.737,1.3155 5.99,2.6994 0.48,0.5235 3.105,2.0673 5.844,3.4288 3.615,1.7966 5.334,2.9526 6.268,4.2152 0.705,0.957 1.998,2.5911 2.865,3.6318 0.87,1.041 1.908,3.0348 2.315,4.4311 1.66,5.7155 -2.036,11.5499 -7.307,11.5314 -0.735,0 -2.397,-0.5535 -3.706,-1.224 z m 169.998,0.558 c -2.1,-0.915 -3.833,-3.2088 -4.488,-5.9439 -0.735,-3.0615 0.21,-6.6303 2.481,-9.3534 0.87,-1.041 2.155,-2.6751 2.863,-3.6318 0.93,-1.263 2.654,-2.4186 6.269,-4.2151 2.74,-1.362 5.37,-2.9046 5.844,-3.4289 1.245,-1.3845 2.907,-2.1294 5.989,-2.6994 2.408,-0.4455 3.044,-0.8265 5.468,-3.2761 3.025,-3.0576 6.831,-5.7372 8.686,-6.1155 2.981,-0.6075 6.864,-2.8337 12.29,-7.0448 0.975,-0.756 2.916,-1.8868 4.315,-2.5144 1.395,-0.6285 3.329,-1.76 4.287,-2.5161 0.96,-0.756 2.543,-1.5897 3.524,-1.8521 0.99,-0.2655 2.331,-1.1265 3.013,-1.9378 0.675,-0.804 2.609,-2.1194 4.296,-2.9241 1.686,-0.8055 3.402,-1.9763 3.812,-2.603 1.065,-1.6332 4.666,-3.2679 6.418,-2.9176 1.02,0.2055 1.64,0.045 2.237,-0.6 3.633,-3.8946 4.567,-4.8123 4.894,-4.8123 0.21,0 1.835,-1.1955 3.618,-2.658 1.784,-1.4625 3.969,-2.9613 4.856,-3.3321 0.885,-0.3705 2.4,-1.4835 3.36,-2.4743 0.975,-1.0095 2.61,-2.0584 3.709,-2.3881 2.235,-0.669 7.722,-4.182 8.109,-5.1911 0.33,-0.8715 5.013,-4.0312 7.758,-5.2392 1.185,-0.519 3.156,-1.8198 4.392,-2.8911 1.23,-1.071 2.669,-2.0805 3.182,-2.2429 0.51,-0.162 1.365,-1.044 1.911,-1.9586 0.705,-1.203 1.804,-2.0361 3.964,-3.0138 1.64,-0.7425 3.518,-1.9411 4.173,-2.6628 0.66,-0.7215 2.514,-1.9117 4.133,-2.6448 2.739,-1.2405 4.659,-2.7384 11.706,-9.1335 1.507,-1.368 3.369,-2.8144 4.137,-3.2131 0.765,-0.399 1.894,-1.47 2.508,-2.3804 1.08,-1.6014 1.89,-2.2362 6.111,-4.7737 1.095,-0.6555 2.404,-1.7841 2.923,-2.5095 l 0.945,-1.3185 -1.35,-1.685 c -0.735,-0.927 -1.884,-2.2213 -2.538,-2.877 -1.873,-1.8751 -9.201,-7.1446 -11.743,-8.4445 -1.275,-0.648 -4.094,-2.928 -6.276,-5.0654 -2.435,-2.3824 -4.83,-4.2537 -6.192,-4.8363 -2.492,-1.0665 -4.364,-2.6212 -4.364,-3.625 0,-1.095 -2.691,-3.4523 -3.942,-3.4523 -1.639,0 -4.069,-1.7859 -5.818,-4.2765 -1.715,-2.4399 -6.008,-5.2437 -8.034,-5.2465 -1.817,0 -4.64,-1.6373 -5.795,-3.3561 -0.51,-0.7635 -1.576,-1.6556 -2.361,-1.9808 -0.78,-0.3255 -2.179,-1.2645 -3.099,-2.0857 -0.915,-0.822 -2.467,-1.6401 -3.441,-1.8183 -2.158,-0.3945 -4.284,-2.1089 -5.667,-4.5705 -0.93,-1.6571 -1.47,-1.9904 -5.37,-3.3588 -4.345,-1.5221 -6.133,-2.8487 -8.484,-6.2937 -1.29,-1.8803 -6.342,-5.0744 -9.66,-6.0992 -3.244,-1.002 -5.623,-2.7276 -9.547,-6.9247 -1.544,-1.6511 -2.786,-2.5667 -3.485,-2.5667 -1.305,0 -2.754,-0.705 -4.354,-2.1234 -0.66,-0.5805 -2.156,-1.603 -3.335,-2.2735 -1.185,-0.6705 -2.962,-1.992 -3.964,-2.937 -1.005,-0.945 -2.823,-2.3919 -4.049,-3.2154 -1.23,-0.8235 -2.824,-2.0505 -3.556,-2.7267 -1.35,-1.245 -2.961,-2.171 -8.28,-4.752 -1.619,-0.786 -3.297,-1.9686 -3.729,-2.6297 -0.435,-0.6615 -1.485,-1.4325 -2.337,-1.713 -1.587,-0.5235 -3.306,-2.1249 -4.7,-4.377 -0.48,-0.7635 -1.41,-1.4025 -2.349,-1.6071 -0.855,-0.186 -2.1,-0.708 -2.754,-1.158 -0.66,-0.4515 -2.511,-1.5153 -4.125,-2.3653 -2.302,-1.2135 -3.172,-1.9982 -4.047,-3.654 -1.05,-1.9733 -2.757,-3.029 -4.933,-3.041 -0.27,0 -1.554,-0.885 -2.858,-1.965 -1.305,-1.08 -3.255,-2.5698 -4.333,-3.3123 -2.493,-1.7178 -3.375,-3.6082 -3.783,-8.1057 -0.33,-3.5589 -0.315,-3.618 1.185,-5.3176 0.825,-0.945 2.488,-2.0933 3.687,-2.5508 1.867,-0.714 2.676,-0.7605 5.674,-0.3285 1.925,0.2775 4.524,1.035 5.778,1.6859 1.245,0.6495 3.029,1.4265 3.947,1.7236 0.915,0.2985 2.545,1.3455 3.619,2.3298 3.755,3.44 5.766,4.9743 7.614,5.8098 1.02,0.4635 3.363,2.2611 5.196,3.9956 6.683,6.321 8.15,7.5675 10.989,9.3381 1.592,0.9915 3.705,2.0715 4.698,2.3991 0.99,0.327 2.583,1.3965 3.536,2.3752 0.96,0.9795 2.482,2.1582 3.4,2.6205 0.915,0.462 2.105,1.2405 2.639,1.7277 0.54,0.4875 2.464,1.617 4.287,2.5091 1.822,0.8925 3.849,2.2032 4.504,2.9136 0.66,0.711 1.94,1.6797 2.858,2.1541 0.915,0.474 2.296,1.5251 3.064,2.3349 0.885,0.936 1.868,1.473 2.685,1.473 2.535,0 6.203,2.4422 8.514,5.6694 2.244,3.1329 2.063,3.0186 8.762,5.4971 1.41,0.522 3.706,2.1109 5.908,4.0915 2.505,2.253 4.121,3.3329 5.312,3.5508 1.215,0.2235 2.394,1.0305 4.092,2.8166 5.163,5.4273 8.125,7.7737 10.797,8.5504 1.44,0.4185 3.099,1.305 3.751,2.0025 0.645,0.6885 1.919,1.6409 2.835,2.1162 0.915,0.4755 3.275,2.1618 5.24,3.7478 1.963,1.5859 5.178,3.6687 7.143,4.6282 1.965,0.96 4.573,2.6276 5.797,3.7068 2.93,2.5827 4.574,3.7901 6.524,4.7922 4.623,2.3768 8.692,5.8523 9.844,8.4068 0.555,1.215 1.26,1.9831 2.006,2.1708 0.63,0.159 2.115,1.119 3.285,2.1328 1.17,1.014 2.448,1.8426 2.838,1.8426 1.455,0 3.654,1.5741 7.578,5.4195 2.22,2.1749 5.025,4.4633 6.234,5.0852 1.951,1.0035 4.471,3.5149 4.471,4.4551 0,0.189 0.99,1.5623 2.213,3.0507 3.814,4.6676 4.258,6.7778 2.307,10.9689 -0.645,1.401 -1.185,3.2229 -1.2,4.0482 0,2.6226 -1.637,5.1894 -5.523,8.759 -5.318,4.8841 -6.474,6.0349 -7.649,7.6102 -0.63,0.8415 -1.849,1.634 -3.096,2.0067 -1.32,0.396 -2.613,1.2645 -3.613,2.4327 -0.855,0.999 -2.249,2.045 -3.096,2.3247 -1.08,0.3555 -1.865,1.1205 -2.619,2.5439 -0.72,1.362 -2.063,2.7018 -4.052,4.0503 -1.633,1.1085 -3.163,2.0149 -3.399,2.0149 -0.24,0 -1.2,0.588 -2.14,1.305 -0.945,0.7185 -3.27,2.1023 -5.174,3.0758 -3.556,1.8186 -6.63,4.0342 -8.395,6.0508 -2.114,2.4147 -3.86,3.96 -5.496,4.8621 -0.93,0.5145 -2.427,1.464 -3.317,2.1089 -0.885,0.645 -2.415,1.386 -3.385,1.6479 -1.215,0.3255 -2.597,1.3755 -4.401,3.3277 -1.518,1.6421 -3.518,3.2343 -4.712,3.7524 -1.14,0.495 -2.611,1.482 -3.265,2.1935 -1.395,1.5211 -3.384,2.6316 -4.701,2.6316 -0.51,0 -1.812,0.84 -2.88,1.8669 -1.065,1.0275 -2.574,2.0055 -3.345,2.1748 -0.9,0.1965 -1.739,0.882 -2.345,1.9079 -0.525,0.8805 -1.549,1.9788 -2.29,2.4415 -0.735,0.462 -2.936,1.866 -4.878,3.1184 -1.943,1.2525 -4.568,2.6214 -5.834,3.0421 -1.26,0.42 -2.302,0.9555 -2.302,1.188 0,0.438 -3.867,3.5202 -7.307,5.8238 -1.08,0.7275 -2.776,1.5382 -3.754,1.8018 -0.975,0.264 -2.574,1.2075 -3.545,2.0959 -0.975,0.8895 -2.692,1.8504 -3.828,2.1363 -1.14,0.285 -2.886,1.263 -3.891,2.1704 -1.941,1.7535 -8.922,5.4748 -10.27,5.4748 -1.704,0 -7.293,3.1331 -9.821,5.5056 -1.455,1.3665 -4.027,3.1796 -5.715,4.0275 -1.687,0.8475 -3.828,2.3183 -4.759,3.2672 -2.006,2.0443 -7.149,5.0311 -9.5,5.5164 -0.915,0.189 -2.524,0.9135 -3.571,1.6102 -1.05,0.696 -2.763,1.7336 -3.81,2.3048 -6.83,3.7236 -8.129,4.0567 -10.977,2.8159 z m 281.514,-372.8161 c -1.065,-1.5243 -0.915,-2.9467 0.495,-4.62 1.38,-1.6416 2.814,-1.8595 4.953,-0.753 2.055,1.0635 2.892,2.4804 2.334,3.9507 -0.705,1.8326 -1.839,2.4497 -4.565,2.4663 -2.026,0.012 -2.607,-0.177 -3.214,-1.044 z m -18.692,-6.9187 c 0.705,-0.9825 2.205,-3.179 3.332,-4.8815 4.066,-6.1422 5.158,-7.602 6.426,-8.581 0.705,-0.5475 1.861,-1.7531 2.565,-2.6795 2.184,-2.8761 10.414,-7.7895 13.048,-7.7895 0.615,0 1.842,-0.483 2.738,-1.071 0.9,-0.5895 2.025,-1.305 2.509,-1.5915 0.765,-0.453 0.87,-1.0815 0.78,-4.867 0,-2.3909 0.15,-4.9242 0.39,-5.6297 0.33,-0.8805 0.33,-1.4385 0,-1.7767 -0.345,-0.3405 -0.495,-0.318 -0.495,0.075 0,0.3135 -0.735,1.3845 -1.636,2.3808 -1.005,1.116 -1.856,2.7157 -2.207,4.1686 -0.78,3.2387 -2.067,5.2112 -3.976,6.117 -0.885,0.4215 -1.824,0.765 -2.082,0.765 -0.855,0 -5.151,3.2079 -7.766,5.7998 -1.485,1.467 -3.93,3.2137 -5.761,4.1079 -1.986,0.969 -3.737,2.2477 -4.643,3.3916 -0.795,1.0095 -2.274,2.1641 -3.274,2.5647 -1.005,0.4005 -2.424,1.5185 -3.161,2.484 -0.735,0.966 -2.061,2.0571 -2.943,2.4258 -0.885,0.369 -1.605,0.828 -1.605,1.0215 0,0.1935 -1.08,0.954 -2.386,1.6908 -2.373,1.3335 -3.951,1.395 -4.419,0.174 -0.33,-0.873 2.146,-6.0552 3.811,-7.9597 0.795,-0.909 1.602,-2.3735 1.794,-3.2562 0.195,-0.882 0.975,-2.2539 1.728,-3.0471 0.75,-0.7935 1.38,-1.6475 1.38,-1.898 0,-0.2505 0.525,-1.5046 1.17,-2.7868 1.712,-3.4073 0.39,-3.0887 -3.333,0.8025 -2.205,2.3046 -3.546,3.2932 -5.062,3.7336 -1.589,0.462 -2.28,0.999 -3.015,2.3405 -0.69,1.263 -1.784,2.1667 -3.981,3.2911 -1.667,0.852 -3.275,1.8929 -3.573,2.3123 -0.3,0.42 -1.2,1.1025 -2.01,1.5192 -0.81,0.4155 -2.609,1.6567 -4.001,2.7568 l -2.529,2.0001 3.522,0.96 c 1.938,0.528 5.13,1.0065 7.095,1.062 1.965,0.06 4.859,0.2265 6.429,0.3765 1.572,0.15 4.968,0.3765 7.547,0.5025 2.578,0.12 4.81,0.3525 4.96,0.5025 0.63,0.63 1.44,0.168 2.643,-1.513 z m -35.053,-6.4088 c 1.518,-2.4117 3.348,-4.9621 4.068,-5.6679 0.72,-0.7065 1.305,-1.5804 1.305,-1.9435 0,-0.363 0.63,-1.4025 1.41,-2.3093 0.78,-0.9075 1.425,-1.8096 1.425,-2.0061 0,-0.9315 -1.17,-0.045 -5.052,3.7041 -2.319,2.2337 -5.288,4.6779 -6.597,5.4315 -3.039,1.7487 -7.355,6.0887 -6.395,6.4313 0.375,0.135 1.859,0.315 3.299,0.405 1.44,0.09 2.878,0.2025 3.193,0.2505 0.315,0.045 1.817,-1.8851 3.335,-4.2966 z m -20.768,2.8886 c 2.166,-0.7275 2.936,-1.4535 5.441,-5.1386 1.17,-1.7206 2.595,-3.7141 3.168,-4.4302 1.41,-1.7667 0.9,-2.0592 -1.08,-0.6075 -0.885,0.657 -2.246,1.569 -3.006,2.0275 -0.765,0.459 -2.328,1.7448 -3.482,2.8581 -1.155,1.113 -2.284,2.0241 -2.512,2.0241 -0.66,0 -2.477,2.8034 -2.15,3.3305 0.39,0.6285 1.623,0.6075 3.621,-0.06 z m -73.491,-0.8265 c 3.023,-1.5294 4.584,-1.6551 7.044,-0.567 2.721,1.2045 4.257,1.344 2.688,0.2445 -1.425,-0.9975 -1.335,-1.7976 0.48,-4.4195 1.44,-2.0731 2.64,-3.5163 7.149,-8.5813 0.975,-1.104 1.787,-2.2163 1.787,-2.4728 0,-0.7305 -3.266,0.8175 -5.072,2.4021 -0.9,0.786 -1.906,1.431 -2.244,1.431 -0.345,0 -2.1,1.128 -3.913,2.5064 -1.814,1.3785 -3.833,2.776 -4.487,3.1057 -2.74,1.38 -9.076,6.3422 -8.757,6.8589 0.435,0.699 3.521,0.4065 5.322,-0.507 z m -47.209,-0.654 c 0.525,-0.5895 2.359,-3.1076 4.075,-5.5959 1.715,-2.4885 3.594,-4.953 4.178,-5.477 0.585,-0.5235 1.455,-1.7169 1.926,-2.6512 0.48,-0.9345 1.23,-2.0028 1.681,-2.3745 0.45,-0.372 1.215,-1.6164 1.71,-2.7662 0.495,-1.1505 2.363,-3.6175 4.157,-5.4837 1.792,-1.8661 3.39,-3.9289 3.549,-4.5837 0.285,-1.155 1.17,-2.1204 9.007,-9.714 2.031,-1.9683 3.692,-3.9342 3.692,-4.3684 0,-1.3575 1.984,-4.3955 3.852,-5.8962 0.99,-0.7905 2.977,-1.8831 4.429,-2.4264 2.583,-0.966 4.079,-2.2182 12.489,-10.4532 1.335,-1.311 2.777,-2.3843 3.194,-2.3843 1.44,0 3.256,-1.1445 3.955,-2.4951 0.39,-0.747 1.335,-1.7374 2.093,-2.2024 l 1.395,-0.846 -2.379,-0.6105 c -2.09,-0.5355 -2.592,-0.51 -4.115,0.213 -1.365,0.651 -2.424,0.759 -5.034,0.516 -3.121,-0.2895 -3.385,-0.2355 -4.885,1.011 -0.87,0.7245 -2.036,1.6389 -2.585,2.0319 -0.555,0.393 -1.38,1.7859 -1.831,3.0955 -0.66,1.8849 -1.185,2.5574 -2.547,3.2258 -1.29,0.633 -1.959,1.431 -2.688,3.184 -0.69,1.6584 -1.52,2.6847 -2.852,3.5255 -1.035,0.6525 -2.389,1.8664 -3.015,2.6983 -0.63,0.8325 -2.116,2.5088 -3.313,3.7263 -1.2,1.218 -2.952,3.4296 -3.9,4.9155 -1.005,1.5741 -2.85,3.5343 -4.424,4.6964 -2.253,1.6647 -2.959,2.5665 -4.275,5.4529 -1.08,2.3636 -2.079,3.8042 -3.163,4.5507 -0.87,0.6015 -2.609,2.1113 -3.855,3.3566 -1.245,1.245 -3.107,2.5492 -4.131,2.8974 -1.68,0.5715 -6.765,4.7913 -11.379,9.4438 -0.915,0.9165 -2.456,2.0955 -3.438,2.6193 -0.975,0.5235 -2.985,1.5864 -4.452,2.3612 -1.47,0.774 -2.789,1.7869 -2.936,2.2495 -0.15,0.462 -1.155,1.4355 -2.226,2.1633 -3.099,2.0907 -2.937,2.6588 0.645,2.2824 1.668,-0.174 3.891,-0.12 4.944,0.12 1.2,0.273 2.987,0.258 4.772,-0.03 2.365,-0.3915 3.105,-0.3405 4.279,0.2955 1.892,1.023 2.276,0.993 3.401,-0.2655 z m -73.619,-0.075 c 4.445,-0.03 4.599,-0.075 5.862,-1.467 0.72,-0.786 1.616,-2.1387 2.004,-3.0065 0.69,-1.5571 4.2,-6.154 6.011,-7.8853 0.51,-0.489 1.335,-1.8228 1.819,-2.9621 0.495,-1.14 1.776,-3.0349 2.861,-4.2124 1.08,-1.1775 1.875,-2.4164 1.753,-2.753 -0.15,-0.39 -0.9,0.12 -2.092,1.389 -1.035,1.0995 -2.859,2.4225 -4.062,2.9385 -1.44,0.6195 -3.54,2.3396 -6.168,5.0645 -2.189,2.2693 -4.889,4.6642 -6.003,5.322 -1.11,0.657 -2.024,1.35 -2.024,1.5387 0,0.189 -0.75,0.702 -1.675,1.1415 -0.915,0.4395 -1.928,1.353 -2.235,2.0289 -0.315,0.6765 -1.17,1.5409 -1.898,1.9209 -1.758,0.909 -1.776,1.8471 0,1.3515 0.72,-0.204 3.363,-0.3885 5.873,-0.4095 z m 94.095,-0.1935 c -1.455,-1.5983 -1.08,-2.4389 3.756,-8.654 0.915,-1.179 2.039,-2.7642 2.49,-3.5232 0.45,-0.759 1.44,-2.0985 2.183,-2.9766 0.75,-0.8775 1.215,-1.5964 1.05,-1.5964 -1.11,0 -4.665,2.4417 -7.34,5.0385 -1.731,1.6818 -3.301,3.0577 -3.487,3.0577 -0.6,0 -9.921,8.2317 -9.921,8.7603 0,0.135 1.875,0.3225 4.167,0.4095 2.292,0.09 5.004,0.2025 6.027,0.2565 1.774,0.09 1.824,0.06 1.08,-0.7725 z m 56.555,-1.257 c 0.945,-0.999 1.711,-1.9937 1.711,-2.211 0,-0.2175 0.645,-0.867 1.425,-1.4445 0.78,-0.5775 2.12,-2.2224 2.976,-3.656 0.855,-1.434 2.333,-3.4858 3.279,-4.5606 0.945,-1.074 2.078,-2.6506 2.513,-3.502 0.435,-0.8505 0.975,-1.5477 1.185,-1.5477 0.705,0 6.156,-5.8659 7.656,-8.2319 1.54,-2.4291 1.656,-2.7219 1.08,-2.7219 -0.78,0 -12.123,9.1382 -14.111,11.3654 -0.495,0.5595 -1.2,1.017 -1.546,1.017 -0.345,0 -1.47,0.7485 -2.481,1.6644 -1.02,0.915 -2.568,1.9693 -3.455,2.3422 -0.885,0.3735 -2.254,1.3575 -3.04,2.1891 -0.78,0.831 -2.18,1.929 -3.096,2.4395 -1.611,0.897 -2.55,1.5208 -7.155,4.7569 -1.185,0.8325 -2.559,2.0508 -3.054,2.7071 l -0.9,1.194 3.054,-0.2655 c 1.68,-0.15 3.591,-0.105 4.245,0.09 0.66,0.192 2.724,0.315 4.597,0.273 3.293,-0.075 3.467,-0.135 5.121,-1.8906 z m 19.215,0.162 c 0.975,-1.0815 2.059,-2.7398 2.394,-3.6858 0.33,-0.9465 1.35,-2.4815 2.263,-3.4122 0.915,-0.93 1.652,-2.0178 1.652,-2.4158 0,-0.7125 0.63,-1.4715 3.058,-3.6916 1.125,-1.032 1.709,-2.2835 0.87,-1.8822 -3.139,1.5051 -3.877,2.1144 -4.633,3.8268 -0.63,1.4415 -1.335,2.1211 -2.904,2.8146 -1.14,0.5025 -2.201,1.131 -2.364,1.3965 -0.165,0.2655 -1.185,1.044 -2.282,1.7305 -2.011,1.2645 -3.811,2.7573 -5.895,4.8852 l -1.14,1.1715 2.054,0.552 c 3.945,1.0605 4.974,0.87 6.934,-1.29 z m -198.509,0.7905 c 1.539,-0.7965 4.461,-1.053 6.228,-0.549 1.005,0.288 1.29,0.135 1.781,-0.9915 0.33,-0.7335 1.11,-2.1902 1.749,-3.2379 2.292,-3.7544 3.132,-5.453 3.132,-6.3387 0,-0.495 0.645,-1.8429 1.425,-2.9955 0.78,-1.152 1.425,-2.7198 1.425,-3.4827 0,-0.762 0.51,-2.2629 1.125,-3.3338 0.615,-1.071 1.275,-2.5617 1.455,-3.313 0.18,-0.7515 1.29,-2.3478 2.449,-3.5474 1.17,-1.2 2.12,-2.3575 2.12,-2.5734 0,-0.216 0.825,-1.299 1.837,-2.4058 1.005,-1.107 2.103,-2.5211 2.429,-3.1415 1.23,-2.3469 4.996,-6.8791 6.811,-8.1939 1.035,-0.7515 2.324,-2.2492 2.858,-3.3273 0.54,-1.0785 1.69,-2.4234 2.571,-2.9898 1.08,-0.696 1.761,-1.6158 2.097,-2.8426 0.72,-2.6216 3.403,-5.3595 6.325,-6.4526 1.683,-0.63 3.531,-1.9441 5.798,-4.1245 1.828,-1.7603 4.111,-3.7022 5.071,-4.3155 3.125,-1.9958 2.703,-2.8221 -0.705,-1.395 -1.305,0.546 -2.715,0.639 -6.067,0.4005 -4.295,-0.3045 -4.361,-0.294 -4.046,0.7005 0.24,0.7695 -0.15,1.5079 -1.611,3.1051 -1.065,1.152 -1.93,2.4288 -1.93,2.8365 0,1.464 -0.615,2.2944 -2.202,2.9558 -0.885,0.3705 -1.608,1.0125 -1.608,1.4265 0,0.4155 -0.705,1.485 -1.548,2.3781 -0.855,0.8925 -2.294,2.8228 -3.204,4.2886 -1.095,1.7579 -2.066,2.7606 -2.858,2.9462 -1.585,0.3705 -3.82,2.4856 -3.82,3.6127 0,0.492 -0.255,1.3635 -0.555,1.935 -1.05,1.9833 -8.247,9.4703 -9.923,10.325 -2.518,1.2855 -3.892,2.881 -5.857,6.8019 -1.41,2.8032 -2.364,4.0074 -4.595,5.7598 -1.551,1.218 -4.516,3.8739 -6.591,5.9009 -6.195,6.0565 -12.195,11.5984 -13.083,12.0858 -1.546,0.849 -0.855,1.224 2.858,1.5373 2.029,0.171 4.333,0.5055 5.119,0.7425 1.986,0.5985 2.028,0.5955 3.542,-0.1875 z m 60.515,0.105 c 6.207,0.2085 7.855,0.15 9.075,-0.3615 1.425,-0.5895 4.648,-4.9538 5.505,-7.4483 0.615,-1.7748 3.076,-4.7724 5.064,-6.1557 0.72,-0.501 1.305,-1.323 1.305,-1.8271 0,-0.879 0,-0.876 -1.065,0.09 -0.585,0.5505 -1.626,1.1385 -2.306,1.3065 -0.675,0.168 -2.392,1.257 -3.81,2.4211 -1.41,1.1625 -2.95,2.2346 -3.409,2.3807 -0.45,0.15 -0.825,0.462 -0.825,0.7005 0,0.5805 -3.534,2.3589 -4.686,2.3589 -1.863,0 -2.238,-1.2465 -1.26,-4.2017 0.495,-1.488 1.245,-3.2398 1.69,-3.8946 0.435,-0.6555 0.96,-1.7265 1.17,-2.3812 0.195,-0.6555 0.765,-1.9944 1.26,-2.9766 1.02,-2.0178 0.945,-2.0876 -1.125,-1.0215 -2.955,1.5283 -5.425,3.5733 -7.557,6.2574 -1.2,1.5076 -3.097,3.253 -4.222,3.8787 -1.125,0.6255 -2.477,1.8687 -3.003,2.7621 -0.525,0.894 -2.163,2.4651 -3.636,3.4923 -3.189,2.2246 -3.878,2.7951 -4.821,3.9937 -0.675,0.864 -0.63,0.894 0.945,0.6315 0.915,-0.1515 3.703,-0.105 6.192,0.105 2.488,0.207 5.059,0.249 5.715,0.09 0.66,-0.1545 2.368,-0.2415 3.81,-0.1935 z m 75.655,-1.1835 c 0.96,-0.7665 2.738,-2.9016 3.963,-4.7448 1.23,-1.8432 3.419,-4.3962 4.875,-5.6733 1.455,-1.2765 2.651,-2.4719 2.654,-2.655 0.01,-0.5895 -3.527,1.098 -4.782,2.2822 -0.675,0.63 -1.658,1.146 -2.198,1.146 -1.065,0 -4.191,2.2848 -5.299,3.8664 -0.375,0.537 -1.571,1.395 -2.654,1.9062 -2.976,1.404 -7.116,4.1334 -7.611,5.0177 -0.405,0.714 0,0.7605 4.439,0.516 4.479,-0.2475 5.019,-0.3825 6.613,-1.6623 z m -528.153,-0.12 c 0.69,0 2.214,-0.345 3.393,-0.7575 1.824,-0.6375 2.669,-0.666 5.661,-0.186 l 3.519,0.564 1.125,-1.3545 c 0.615,-0.7455 1.305,-1.9977 1.52,-2.7836 0.39,-1.4145 0.435,-1.4265 3.333,-1.2645 2.458,0.135 3.289,-0.03 5.143,-1.071 1.215,-0.6795 2.946,-1.236 3.846,-1.236 h 1.634 l -2.289,2.1365 c -1.26,1.1745 -2.984,2.836 -3.828,3.6909 l -1.539,1.5544 1.41,0.4755 c 0.78,0.2625 5.272,0.4485 9.991,0.4155 8.582,-0.06 10.01,-0.3225 10.01,-1.8333 0,-0.3225 0.525,-1.1595 1.185,-1.861 1.065,-1.1445 2.922,-5.2136 3.838,-8.3895 0.195,-0.6555 1.155,-2.079 2.15,-3.1649 0.99,-1.086 2.025,-2.7634 2.292,-3.7282 0.27,-0.9645 1.08,-2.5392 1.815,-3.4989 0.735,-0.96 1.662,-2.7111 2.067,-3.8919 0.825,-2.4128 6.534,-10.1388 7.188,-9.7343 0.24,0.15 0.42,0.4815 0.42,0.7515 0,0.2685 0.63,1.3815 1.41,2.4722 1.485,2.0941 3.831,8.6469 3.831,10.704 0,0.669 0.465,2.1796 1.035,3.3556 l 1.035,2.138 -1.631,1.401 c -0.9,0.7695 -2.809,2.1796 -4.251,3.132 -3.273,2.1628 -5.787,4.1076 -8.086,6.2559 -0.975,0.9165 -2.681,2.2611 -3.776,2.9872 -1.095,0.726 -1.855,1.5401 -1.689,1.8086 0.195,0.306 2.913,0.4485 7.284,0.3795 4.653,-0.075 7.331,0.075 8.024,0.453 1.38,0.75 3.636,0.7095 5.572,-0.105 1.17,-0.489 1.658,-1.047 1.88,-2.1521 0.36,-1.765 4.056,-7.1884 4.908,-7.1884 0.33,0 0.735,0.237 0.915,0.5265 0.57,0.9345 4.201,2.31 6.16,2.3383 l 1.905,0.03 -1.215,1.0545 c -1.14,0.984 -2.832,3.3182 -2.832,3.8952 0,0.135 0.51,0.255 1.125,0.255 0.615,0 1.757,0.222 2.534,0.492 1.05,0.3675 2.116,0.3105 4.176,-0.2265 2.928,-0.762 4.078,-1.4385 4.078,-2.3988 0,-1.0665 3.239,-4.8532 5.568,-6.5127 1.26,-0.897 3.242,-1.9108 4.404,-2.2534 3.77,-1.1115 6.203,-5.087 5.564,-9.0891 -0.15,-0.936 0,-2.7234 0.42,-3.9969 1.305,-4.3512 -0.3,-7.5777 -5.879,-11.8347 -5.458,-4.1604 -8.493,-4.148 -10.482,0.045 -0.6,1.2615 -1.26,3.5398 -1.47,5.0613 -0.54,3.9784 -2.674,5.3004 -4.503,2.7898 -1.455,-1.9942 -0.45,-4.2943 3.564,-8.1487 1.841,-1.7687 3.881,-3.5373 4.533,-3.9302 0.645,-0.393 1.836,-2.0706 2.63,-3.7281 1.14,-2.3838 1.906,-3.3004 3.663,-4.3855 1.215,-0.7545 2.358,-1.5414 2.527,-1.7487 0.33,-0.3975 10.737,-10.7285 13.98,-13.8695 1.05,-1.0155 2.439,-2.1268 3.093,-2.4708 1.185,-0.621 1.17,-0.63 -1.185,-1.4625 -3.294,-1.1595 -4.971,-1.101 -7.927,0.276 -1.58,0.735 -3.407,1.188 -4.809,1.191 -2.027,0 -2.264,0.12 -2.268,1.0755 0,1.4505 -1.14,4.9449 -2.34,7.2446 -0.54,1.038 -0.99,2.2924 -0.99,2.7883 0,4.7481 -14.694,21.7569 -18.797,21.7569 -0.15,0 -0.255,-1.6258 -0.255,-3.6129 0,-3.415 0.15,-3.702 1.533,-5.2387 0.84,-0.894 1.97,-1.6268 2.501,-1.6277 1.185,0 3.912,-1.6201 5.067,-3.0121 1.095,-1.314 2.029,-5.6652 1.654,-7.6631 -0.48,-2.5204 -2.638,-5.3535 -5.128,-6.7084 -1.26,-0.6855 -2.292,-1.407 -2.292,-1.601 0,-0.1935 0.75,-1.08 1.666,-1.9686 0.915,-0.888 1.667,-1.7574 1.667,-1.9306 0,-0.636 -5.762,-0.9 -8.06,-0.369 -1.822,0.4215 -2.413,0.789 -2.626,1.6378 -0.165,0.639 -1.611,2.0333 -3.486,3.3501 -4.013,2.8182 -10.287,9.1323 -11.567,11.6403 -0.93,1.8329 -1.597,4.3391 -2.193,8.2931 -0.21,1.3755 -0.84,2.4507 -2.251,3.8677 -2.427,2.4263 -4.634,5.3019 -6.789,8.8512 -1.23,2.022 -2.484,3.2714 -4.907,4.8818 -1.791,1.191 -3.586,2.6686 -3.99,3.2851 -0.405,0.6165 -1.845,1.9182 -3.201,2.8929 l -2.467,1.7721 0.285,-2.2978 c 0.15,-1.2645 0.42,-4.2813 0.585,-6.7055 0.345,-5.061 -0.15,-6.6292 -2.379,-8.4966 -0.81,-0.669 -1.914,-1.9951 -2.439,-2.9467 -0.945,-1.7121 -6.201,-5.2578 -7.886,-5.3165 -1.603,-0.06 -2.487,1.2225 -2.892,4.1856 -0.225,1.6134 -1.035,4.1841 -1.803,5.7126 -1.425,2.8346 -4.264,5.7923 -5.547,5.7923 -0.39,0 -1.753,-1.074 -3.024,-2.3852 -2.379,-2.455 -3.499,-5.1858 -3.124,-7.6161 0.765,-5.0037 0.66,-4.7625 2.118,-4.7625 0.75,0 2.811,-0.75 4.57,-1.6669 1.76,-0.9165 3.477,-1.6668 3.818,-1.6668 2.224,0 5.412,-7.2072 4.749,-10.7391 -0.78,-4.1135 -5.903,-6.8937 -12.996,-7.0427 -3.435,-0.075 -4.023,0.075 -8.225,1.9929 -3.333,1.5257 -5.16,2.7162 -6.939,4.5243 -1.335,1.35 -2.988,2.8386 -3.69,3.3087 -1.995,1.338 -2.893,3.5066 -2.809,6.7869 0,2.3306 -0.195,3.4194 -1.335,5.715 -0.78,1.5597 -1.41,3.3407 -1.41,3.9576 0,2.1878 1.485,6.807 3.193,9.9158 0.96,1.7335 1.899,4.2093 2.103,5.5017 0.525,3.2974 2.405,6.2374 5.421,8.466 2.738,2.0227 3.887,2.5986 6.188,3.1018 l 1.425,0.312 -1.425,1.191 c -0.78,0.654 -2.501,1.9301 -3.81,2.8341 -6.62,4.5695 -9.029,6.5838 -8.636,7.2201 0.24,0.378 0.885,0.333 2.279,-0.1605 1.08,-0.3795 2.515,-0.6915 3.202,-0.696 z m 33.635,-11.1998 c 0.78,-0.6435 1.644,-1.164 1.905,-1.1565 0.255,0.01 -0.165,0.5415 -0.945,1.1865 -0.78,0.6435 -1.643,1.164 -1.905,1.1565 -0.255,-0.01 0.165,-0.5415 0.96,-1.1865 z m 317.091,11.4341 c 1.561,-0.201 2.365,-0.549 2.526,-1.0935 0.15,-0.4395 0.54,-1.407 0.93,-2.1483 0.375,-0.741 0.69,-1.706 0.705,-2.1432 0,-0.4365 0.435,-1.3305 0.945,-1.9854 0.51,-0.6555 0.93,-1.7384 0.945,-2.4078 0,-0.669 0.54,-1.9434 1.2,-2.831 0.75,-1.0065 1.185,-2.251 1.2,-3.3072 0,-0.9315 0.48,-2.4435 1.05,-3.3603 0.585,-0.9165 1.44,-2.4169 1.911,-3.3337 0.48,-0.9165 1.17,-2.2028 1.551,-2.8575 0.375,-0.6555 2.016,-3.9335 3.637,-7.2857 2.355,-4.8664 3.417,-6.5149 5.267,-8.1783 1.275,-1.146 2.734,-3.0276 3.246,-4.1815 1.29,-2.9223 2.649,-4.5161 4.762,-5.5943 0.99,-0.5085 2.283,-1.6864 2.859,-2.6176 0.57,-0.9315 1.65,-2.0052 2.387,-2.3867 0.735,-0.381 1.842,-1.3155 2.455,-2.0767 0.615,-0.7605 1.863,-1.7613 2.78,-2.2232 0.915,-0.462 2.322,-1.3365 3.121,-1.945 0.795,-0.6075 2.244,-1.4355 3.21,-1.839 1.2,-0.5025 1.968,-1.242 2.43,-2.3474 0.375,-0.888 1.065,-1.8348 1.553,-2.1051 0.81,-0.453 0.78,-0.5295 -0.375,-0.9675 -0.975,-0.369 -1.871,-0.249 -3.984,0.5295 -2.453,0.903 -3.053,0.951 -5.862,0.4695 -1.722,-0.2955 -3.267,-0.4515 -3.434,-0.3495 -0.165,0.105 -0.585,1.1085 -0.945,2.2349 -0.36,1.1265 -1.02,2.4766 -1.485,3.0004 -0.465,0.5235 -1.29,2.0241 -1.848,3.3338 -0.555,1.3095 -2.062,3.4528 -3.348,4.7625 -1.425,1.458 -3.259,4.1818 -4.72,7.0279 -1.32,2.5556 -3.464,5.9429 -4.784,7.5273 -1.32,1.5845 -2.749,3.5627 -3.18,4.3959 -1.624,3.1403 -6.285,8.9583 -8.541,10.6593 -1.29,0.972 -2.52,2.0595 -2.737,2.418 -1.29,2.1083 -3.662,4.1096 -6.438,5.4189 -1.766,0.8325 -4.133,2.4659 -5.351,3.6924 -2.512,2.5289 -6.03,5.2947 -6.735,5.2947 -0.27,0 -1.215,0.6435 -2.107,1.428 -0.9,0.786 -1.923,1.428 -2.286,1.428 -0.36,0 -1.32,0.843 -2.141,1.8729 -0.81,1.032 -2.208,2.1122 -3.097,2.4056 -0.885,0.2925 -1.872,0.843 -2.187,1.2225 -0.48,0.585 -0.225,0.702 1.747,0.765 2.598,0.09 2.253,0.105 7.854,-0.6 3.689,-0.468 4.313,-0.4275 6.183,0.387 1.638,0.714 2.586,0.8295 4.469,0.5445 1.32,-0.1995 3.42,-0.495 4.678,-0.657 z m 253.353,-0.5295 c 2.469,-2.7861 2.478,-2.9777 0.15,-2.1966 -1.503,0.495 -2.385,1.1595 -3.063,2.3107 l -0.96,1.6161 h 1.185 c 0.765,0 1.731,-0.612 2.722,-1.7302 z m -482.909,-0.03 c 0.84,-0.444 2.489,-0.927 3.668,-1.071 1.815,-0.2235 2.167,-0.4395 2.305,-1.4175 0.255,-1.7945 3.323,-9.1359 4.595,-10.9907 0.675,-0.9855 1.275,-2.7369 1.47,-4.2862 0.495,-4.0542 1.648,-6.17 4.894,-8.9819 l 2.936,-2.5425 v 1.3755 c 0,0.756 0.42,2.216 0.945,3.2435 0.525,1.0275 0.945,2.1609 0.945,2.5185 0,1.428 3.534,8.7619 4.642,9.6343 1.005,0.7965 1.065,0.975 0.405,1.2315 -0.435,0.165 -1.35,1.293 -2.04,2.5068 -1.684,2.9564 -2.794,4.1361 -5.236,5.5677 -1.125,0.6615 -2.054,1.4055 -2.054,1.653 0,0.2475 0.78,0.774 1.724,1.17 1.546,0.645 1.951,0.6435 3.922,-0.03 1.997,-0.678 4.079,-0.648 5.996,0.09 0.78,0.3 3.123,-3.6036 3.123,-5.2071 0,-0.645 0.39,-1.6602 0.885,-2.2569 l 0.885,-1.0845 3.223,1.5083 c 3.563,1.6674 5.906,1.8858 8.519,0.7935 2.356,-0.984 2.751,-0.891 0.93,0.219 -1.395,0.8535 -2.999,3.1204 -2.999,4.2487 0,0.2565 1.02,0.4335 2.262,0.3945 1.245,-0.045 4.529,0.105 7.298,0.33 l 5.035,0.4035 1.035,-2.4097 c 0.57,-1.326 1.035,-2.604 1.035,-2.8413 0,-0.237 1.185,-2.2334 2.619,-4.4357 1.44,-2.2023 2.621,-4.3591 2.621,-4.7929 0,-0.4335 0.69,-1.6649 1.546,-2.7353 3.309,-4.1605 3.735,-4.813 4.436,-6.8035 0.39,-1.131 1.335,-2.8103 2.067,-3.7323 0.735,-0.9225 1.806,-2.5799 2.368,-3.684 0.57,-1.104 1.578,-2.3705 2.255,-2.8142 0.675,-0.444 1.779,-1.9636 2.449,-3.3777 0.675,-1.4145 1.733,-2.9091 2.363,-3.322 0.63,-0.4125 2.343,-2.3415 3.807,-4.2855 1.47,-1.9442 3.754,-4.3616 5.091,-5.372 1.335,-1.011 3.717,-3.1594 5.287,-4.7754 1.596,-1.6398 3.806,-3.3498 5.001,-3.87 1.185,-0.513 2.894,-1.6474 3.81,-2.5219 0.915,-0.8745 2.792,-2.1696 4.166,-2.8778 1.38,-0.708 2.4,-1.4475 2.278,-1.642 -0.15,-0.195 -2.232,-0.486 -4.692,-0.648 -2.46,-0.162 -5.482,-0.5205 -6.717,-0.7965 -1.984,-0.444 -2.403,-0.3885 -3.628,0.483 -1.5,1.062 -5.217,8.3628 -5.217,10.224 0,0.582 -0.525,1.8337 -1.17,2.7817 -0.645,0.948 -1.395,2.5695 -1.676,3.6036 -0.555,2.0643 -2.67,4.1523 -4.692,4.6347 -1.881,0.4485 -2.313,0.9435 -2.646,3.0264 -0.36,2.2985 -1.692,3.8546 -8.829,10.3727 l -5.437,4.9675 -0.855,-1.1205 c -0.48,-0.6165 -0.87,-1.413 -0.87,-1.7695 0,-1.263 -2.024,-4.2099 -3.426,-5.0378 -1.695,-1.002 -6.077,-1.4745 -9.248,-0.999 -2.308,0.3465 -3.706,1.4295 -10.038,7.7801 -1.275,1.2765 -1.734,1.4805 -2.466,1.089 -0.915,-0.492 -1.503,-2.3901 -1.503,-4.8894 0,-0.8505 0.6,-2.1767 1.548,-3.3885 2.055,-2.6438 2.633,-3.0819 4.881,-3.6989 1.05,-0.288 2.429,-0.858 3.069,-1.269 0.645,-0.411 1.818,-0.9045 2.619,-1.0965 0.795,-0.192 1.839,-0.5085 2.309,-0.702 0.765,-0.3135 0.735,-0.1665 -0.165,1.374 -0.555,0.948 -0.81,1.7249 -0.555,1.7249 0.795,0 8.163,-8.0424 9.163,-10.0026 0.525,-1.038 2.252,-2.8955 3.852,-4.1531 1.592,-1.251 4.1,-3.5218 5.571,-5.0457 1.5,-1.5507 3.771,-3.2884 5.162,-3.9462 1.645,-0.7785 2.817,-1.7385 3.469,-2.8425 1.275,-2.1586 0.84,-2.3377 -4.632,-1.9158 -3.357,0.2595 -4.293,0.5055 -4.969,1.3065 -0.465,0.543 -0.84,1.314 -0.84,1.7145 0,0.627 -1.11,2.4285 -5.097,8.2163 -0.45,0.654 -1.41,1.8945 -2.147,2.7549 -0.735,0.861 -1.335,1.9648 -1.335,2.4543 0,0.489 -0.975,1.9285 -2.175,3.1981 -1.87,1.985 -2.142,2.1416 -1.942,1.1175 0.15,-0.6555 0.36,-3.0123 0.525,-5.2387 0.27,-3.6605 0.195,-4.2258 -0.795,-5.9036 -1.245,-2.1292 -3.71,-3.6214 -5.966,-3.6214 -0.855,0 -1.554,-0.12 -1.554,-0.2625 0,-0.8355 1.542,-2.9859 2.811,-3.9198 2.208,-1.6257 1.86,-2.0736 -1.485,-1.9134 -3.216,0.1545 -3.013,-0.03 -4.809,4.243 -0.69,1.6452 -0.855,1.7345 -3.664,2.0528 -3.731,0.4215 -4.632,0.7755 -7.458,2.9262 -6.279,4.7793 -11.28,10.224 -12.143,13.219 -0.315,1.0935 -1.23,2.9261 -2.032,4.0709 -1.35,1.9333 -1.455,2.374 -1.455,6.2022 0,3.8293 -0.15,4.2586 -1.425,6.0651 -1.638,2.2287 -3.642,3.999 -5.75,5.0788 -1.02,0.525 -1.632,1.317 -2.031,2.6465 -0.735,2.4516 -4.161,5.83 -7.533,7.4263 -1.44,0.6795 -3.583,2.1956 -4.773,3.3696 -1.185,1.1745 -2.355,2.1345 -2.587,2.1345 -0.225,0 -1.23,0.7215 -2.21,1.602 -0.99,0.8805 -2.536,1.9755 -3.453,2.4321 -1.825,0.909 -5.428,4.5074 -4.972,4.9641 0.15,0.1575 3.108,0.4095 6.558,0.5625 3.45,0.153 6.55,0.3135 6.891,0.3585 0.345,0.045 1.305,-0.282 2.143,-0.7275 z m 45.305,-28.9674 c 0.975,-0.741 1.525,-0.6225 1.005,0.2175 -0.18,0.279 -0.675,0.501 -1.125,0.4935 -0.705,-0.013 -0.69,-0.105 0.15,-0.7095 z m 97.059,28.8252 c 1.891,-1.1535 5.094,-1.245 7.111,-0.201 0.96,0.498 1.883,0.6315 2.714,0.3945 1.035,-0.2925 10.185,-0.657 16.498,-0.657 0.78,0 2.715,0 4.287,0 1.572,0 3.98,0.321 5.351,0.717 1.365,0.396 2.989,0.597 3.597,0.444 1.185,-0.297 1.17,-0.2685 5.578,-9.2696 2.798,-5.7076 4.284,-8.1726 6.17,-10.2394 0.48,-0.5235 1.66,-2.811 2.629,-5.0826 0.96,-2.2715 2.193,-4.5218 2.721,-5.0006 1.26,-1.134 4.155,-6.8236 3.48,-6.8236 -0.42,0 -6.064,7.417 -6.945,9.1368 -0.495,0.9645 -3.231,4.1281 -6.082,7.0287 -4.352,4.4283 -5.348,5.7262 -6.212,8.0971 -0.975,2.6675 -3.175,5.2649 -4.464,5.2649 -0.3,0 -1.32,0.549 -2.295,1.221 -1.75,1.2135 -5.911,2.5731 -7.906,2.5839 -1.818,0.01 -3.56,-1.9554 -4.031,-4.5473 -1.095,-6.0583 -1.08,-6.4461 0.63,-9.7345 0.885,-1.7027 2.171,-3.953 2.859,-5.0007 1.38,-2.0987 2.102,-4.0505 1.5,-4.044 -0.645,0.01 -3.96,3.3483 -3.96,4.0002 0,0.336 -0.405,0.981 -0.915,1.434 -0.495,0.453 -1.05,1.3965 -1.23,2.0979 -0.18,0.7005 -0.6,1.596 -0.93,1.989 -0.345,0.393 -0.87,1.4895 -1.17,2.4379 -0.795,2.5046 -6.48,7.8638 -8.79,8.297 -2.511,0.471 -5.526,-0.8085 -7.854,-3.335 -2.55,-2.7654 -3.196,-5.1981 -2.536,-9.5316 0.285,-1.8273 0.435,-3.4006 0.33,-3.4965 -0.15,-0.09 -0.75,0.7035 -1.47,1.7748 -0.705,1.0725 -1.983,2.3775 -2.831,2.9009 -0.84,0.5235 -2.13,1.8438 -2.851,2.9344 -1.653,2.4983 -4.334,4.971 -6.192,5.714 -2.094,0.8355 -5.483,3.7711 -7.335,6.3514 l -1.616,2.2505 1.616,-0.4095 c 2.194,-0.5565 9.226,-0.2685 12.898,0.5295 4.223,0.9165 5.846,0.8685 7.637,-0.2235 z m 101.754,-0.8355 c 0.51,-0.9825 1.44,-2.2799 2.092,-2.8836 0.645,-0.6045 1.566,-1.9968 2.045,-3.0956 0.48,-1.0995 1.275,-2.5873 1.759,-3.3076 0.495,-0.72 0.705,-1.3095 0.465,-1.3095 -0.585,0 -2.155,1.8496 -2.989,3.5146 -0.375,0.7545 -1.365,1.6953 -2.196,2.091 -0.825,0.396 -1.773,1.2135 -2.096,1.8167 -0.33,0.603 -1.41,1.7623 -2.427,2.5749 -1.005,0.813 -1.837,1.6818 -1.837,1.9314 0,0.249 0.96,0.4545 2.133,0.4545 1.984,0 2.197,-0.12 3.049,-1.7861 z m -380.522,0.678 c 1.44,-0.075 1.752,-0.3555 2.96,-2.7026 0.735,-1.44 1.782,-4.0125 2.313,-5.715 0.525,-1.7026 1.609,-4.0387 2.397,-5.1913 1.185,-1.7414 1.974,-4.8099 1.23,-4.8099 -0.15,0 -1.425,1.2765 -2.912,2.8384 -1.485,1.5612 -3.399,3.0663 -4.242,3.3449 -0.84,0.279 -2.148,1.1475 -2.898,1.9296 -2.586,2.6988 -7.111,5.2696 -9.955,5.6557 -1.455,0.198 -2.754,0.4665 -2.885,0.5955 -0.15,0.135 -0.36,1.197 -0.525,2.3703 l -0.3,2.1339 6.602,-0.183 c 3.63,-0.105 7.326,-0.2205 8.214,-0.267 z m 211.227,-0.09 c 1.29,-0.39 3.573,-0.7095 5.084,-0.7095 3.771,0 5.032,-1.158 8.034,-7.3796 1.305,-2.7118 2.601,-5.0682 2.872,-5.2365 0.27,-0.168 1.215,-1.4175 2.087,-2.7745 0.87,-1.3575 2.037,-2.8629 2.58,-3.3447 0.54,-0.4815 1.14,-1.7454 1.32,-2.8083 0.24,-1.4145 0.885,-2.474 2.407,-3.9552 1.23,-1.197 2.607,-3.2382 3.374,-5.003 1.23,-2.8213 1.44,-3.0511 4.213,-4.3048 2.987,-1.3545 4.619,-3.003 6.114,-6.1751 0.435,-0.93 3.098,-4.0591 5.907,-6.9537 3.785,-3.8965 5.606,-5.4213 7.016,-5.8737 1.32,-0.423 3.387,-2.046 6.72,-5.2734 3.597,-3.4837 5.298,-4.7926 6.73,-5.1783 4.997,-1.3455 2.78,-3.1812 -3.21,-2.6602 -1.965,0.171 -5.067,0.3495 -6.895,0.3975 l -3.321,0.09 -1.125,2.1432 c -0.615,1.179 -1.509,2.5717 -1.983,3.0955 -0.48,0.5235 -1.425,2.0738 -2.111,3.4443 -0.69,1.371 -1.791,2.849 -2.457,3.2855 -0.66,0.4365 -1.551,1.458 -1.966,2.2707 -0.42,0.813 -1.994,2.6034 -3.507,3.9798 -2.259,2.0557 -2.811,2.8639 -3.087,4.5244 -0.405,2.4491 -1.2,4.0889 -2.606,5.3565 -0.585,0.5235 -1.44,1.7015 -1.914,2.6183 -1.005,1.9315 -4.243,5.1241 -6.675,6.5707 -2.071,1.2315 -7.549,6.9521 -8.644,9.0255 -0.45,0.855 -2.016,2.2863 -3.572,3.2655 -3.783,2.382 -5.275,3.8442 -6.625,6.4899 -1.215,2.3819 -2.432,3.425 -4.622,3.9636 -0.735,0.1815 -1.914,1.0785 -2.619,1.9938 -0.705,0.9165 -1.999,2.3346 -2.874,3.1526 l -1.59,1.488 1.35,0.5775 c 1.793,0.7665 2.804,0.7485 5.595,-0.105 z m 121.74,-0.06 2.634,-0.2715 1.652,-3.1016 c 0.915,-1.7059 2.137,-3.4842 2.728,-3.9516 0.6,-0.468 1.41,-1.7809 1.806,-2.919 0.405,-1.1385 1.335,-2.713 2.057,-3.4998 1.185,-1.2795 2.695,-4.9099 2.232,-5.3724 -0.15,-0.105 -1.005,0.5625 -2.009,1.4685 -1.005,0.9075 -2.607,1.9739 -3.558,2.3708 -1.065,0.441 -2.317,1.5733 -3.238,2.9119 -0.825,1.2045 -1.664,2.1908 -1.856,2.1908 -0.195,0 -1.6,1.4745 -3.13,3.2778 -1.529,1.8028 -3.611,3.7453 -4.628,4.3167 -1.02,0.5715 -1.848,1.1145 -1.848,1.2075 0,0.09 -0.15,0.4905 -0.27,0.8835 -0.33,0.8445 1.2,1.281 3.369,0.9645 0.78,-0.12 2.615,-0.33 4.064,-0.4785 z m -90.003,-1.9884 c 1.155,-1.218 3.002,-4.9856 5.118,-10.4468 1.26,-3.2601 0.375,-3.3612 -2.133,-0.243 -2.265,2.8127 -3.271,3.7155 -5.421,4.863 -0.93,0.498 -1.986,1.2525 -2.335,1.6745 -0.345,0.4215 -1.668,1.2105 -2.928,1.7527 -1.305,0.5595 -2.844,1.7123 -3.575,2.6705 l -1.29,1.6852 5.673,-0.339 c 5.327,-0.318 5.747,-0.417 6.887,-1.6173 z m -256.266,-21.4005 c 0.975,-0.9825 2.718,-3.0717 3.873,-4.6434 1.155,-1.5716 3.671,-4.4648 5.589,-6.4293 2.957,-3.0264 5.351,-6.1913 4.685,-6.1913 -0.15,0 -0.915,0.6585 -1.799,1.4655 -0.885,0.8055 -2.254,1.7616 -3.04,2.1246 -0.78,0.363 -1.919,1.188 -2.517,1.8348 -0.6,0.6465 -1.698,1.3095 -2.441,1.4715 -0.75,0.1635 -1.861,0.8445 -2.484,1.5134 -0.63,0.669 -1.596,1.3965 -2.164,1.6156 -0.9,0.3495 -1.05,0.8355 -1.215,3.8786 -0.15,1.9135 -0.36,3.8544 -0.57,4.3126 -0.615,1.332 0.165,0.972 2.076,-0.9525 z m 326.717,-9.1473 c 0.615,-1.1415 0.615,-1.449 0.01,-1.449 -0.735,0 -2.382,1.8195 -2.382,2.6361 0,0.96 1.668,0.12 2.37,-1.1865 z m 3.822,-5.7917 c 0,-0.2625 -0.21,-0.3435 -0.48,-0.1815 -0.255,0.162 -0.48,0.5085 -0.48,0.771 0,0.2625 0.21,0.3435 0.48,0.1815 0.27,-0.162 0.48,-0.5085 0.48,-0.771 z m 306.961,-2.8329 c 0.51,-0.8295 0,-1.005 -0.72,-0.2175 -0.375,0.453 -0.405,0.726 -0.15,0.726 0.27,0 0.645,-0.228 0.825,-0.5085 z m -565.566,-5.7316 c 0,-0.258 0.93,-1.4775 2.064,-2.7107 1.14,-1.233 2.727,-3.2227 3.539,-4.4217 0.81,-1.1985 2.239,-2.7637 3.175,-3.4774 0.93,-0.714 2.048,-1.9829 2.469,-2.8206 0.42,-0.837 2.085,-2.7455 3.692,-4.2392 l 2.92,-2.716 -1.726,-0.015 c -0.945,-0.012 -2.357,-0.15 -3.126,-0.303 -1.305,-0.261 -1.44,-0.15 -1.974,1.6347 -0.375,1.239 -1.32,2.5774 -2.709,3.7939 -1.215,1.0755 -2.565,2.8713 -3.141,4.1993 -0.555,1.2765 -1.857,3.3462 -2.9,4.6002 -1.035,1.254 -2.107,3.0586 -2.371,4.0105 -0.465,1.7073 -1.913,3.3704 -4.37,5.0427 -0.69,0.471 -1.26,1.179 -1.26,1.5756 0,0.4785 0.96,-0.015 2.858,-1.479 1.572,-1.209 2.857,-2.4097 2.857,-2.6676 z m 360.963,0.5595 c 1.02,-1.0365 2.684,-2.1248 3.741,-2.4416 1.245,-0.3735 2.493,-1.272 3.6,-2.5966 0.93,-1.1145 2.268,-2.1695 2.972,-2.3457 0.705,-0.177 2.427,-1.257 3.831,-2.4012 1.41,-1.1445 3.288,-2.3228 4.185,-2.6187 0.9,-0.2955 1.948,-1.023 2.337,-1.616 0.39,-0.5925 2.923,-2.2087 5.634,-3.5913 2.712,-1.383 5.118,-2.6934 5.349,-2.9131 0.795,-0.756 -2.99,-1.038 -6.227,-0.4635 -2.944,0.522 -3.513,0.483 -6.202,-0.4275 -1.629,-0.552 -3.936,-1.0035 -5.127,-1.0035 -1.932,0 -2.268,0.1665 -3.11,1.5477 -0.525,0.852 -0.945,1.8724 -0.945,2.2693 0,0.3975 -0.975,1.6595 -2.152,2.8061 -1.38,1.3365 -2.936,3.6748 -4.337,6.5164 -1.2,2.4374 -2.698,5.1275 -3.325,5.978 -0.63,0.8505 -1.14,1.7971 -1.14,2.1039 0,0.306 -0.45,1.122 -0.99,1.8124 -1.517,1.9272 -0.15,1.488 1.905,-0.615 z m -95.542,-0.948 c 1.731,-2.8934 5.68,-6.692 8.194,-7.8813 1.44,-0.678 2.96,-1.773 3.393,-2.4344 0.435,-0.6615 1.44,-1.5379 2.231,-1.9483 0.795,-0.411 2.128,-1.4175 2.965,-2.2379 1.931,-1.8922 4.008,-3.4315 5.619,-4.1659 0.69,-0.3165 1.26,-0.7545 1.26,-0.9735 0,-0.2205 -2.539,-0.399 -5.641,-0.399 -6.401,0 -6.024,-0.1965 -8.66,4.4962 -0.87,1.5561 -2.263,3.4211 -3.087,4.1442 -0.825,0.723 -1.747,2.1453 -2.05,3.1601 -0.33,1.1115 -1.41,2.6451 -2.702,3.859 -1.185,1.107 -2.149,2.3774 -2.151,2.8214 -10e-4,0.444 -0.42,1.5034 -0.945,2.3544 -0.885,1.461 -0.9,1.5162 0,0.9915 0.495,-0.306 1.215,-1.1085 1.626,-1.7853 z m -178.196,-1.3875 c 0.435,-0.7815 2.04,-2.2436 3.572,-3.2504 1.941,-1.275 3.076,-2.4303 3.739,-3.807 0.525,-1.0875 1.365,-2.4328 1.872,-2.9907 1.14,-1.2495 6.306,-4.0332 9.408,-5.0635 1.919,-0.6375 3.246,-1.7561 3.246,-2.736 0,-0.12 -0.885,-0.3495 -1.956,-0.522 -1.08,-0.1725 -2.559,-0.6255 -3.298,-1.008 -1.065,-0.5475 -1.871,-0.5955 -3.825,-0.225 -1.365,0.258 -2.553,0.471 -2.642,0.471 -0.465,0 -1.614,3.0081 -1.614,4.246 0,0.8955 -0.51,2.025 -1.365,3.0002 -0.75,0.861 -1.485,2.1001 -1.651,2.755 -0.255,1.0695 -2.108,3.8565 -5.189,7.8383 -1.155,1.494 -2.29,3.4993 -2.265,4.0033 0,0.3945 0.96,-0.918 1.961,-2.7124 z m 426.887,0.396 c 0.99,-0.786 1.966,-1.4295 2.172,-1.4295 0.21,0 1.365,-0.759 2.584,-1.6871 1.26,-0.9645 3.104,-1.8537 4.295,-2.0761 1.14,-0.2145 2.755,-0.9555 3.577,-1.6467 0.825,-0.6915 1.866,-1.257 2.322,-1.257 0.45,0 1.455,-0.663 2.225,-1.473 0.765,-0.81 2.386,-1.9772 3.594,-2.5931 1.2,-0.6165 2.844,-1.6675 3.64,-2.3368 0.795,-0.669 1.647,-1.2165 1.895,-1.2165 0.24,0 1.02,-0.6495 1.734,-1.4445 0.705,-0.795 1.921,-1.5711 2.698,-1.7264 0.78,-0.156 1.41,-0.45 1.41,-0.654 0,-0.4185 -2.97,-0.1575 -6.217,0.546 -1.829,0.3975 -2.823,0.2805 -6.342,-0.7395 l -4.173,-1.209 -1.754,0.936 c -2.59,1.3815 -3.324,2.0691 -3.669,3.4415 -0.165,0.6795 -0.84,1.7343 -1.485,2.3446 -0.645,0.6105 -1.5,1.7808 -1.888,2.6012 -0.39,0.8205 -1.659,2.1744 -2.822,3.009 -1.72,1.236 -2.248,1.9849 -2.844,4.0329 -0.435,1.485 -1.32,3.0721 -2.149,3.8737 -2.526,2.4206 -1.623,2.9493 1.2,0.7035 z m 63.946,-3.8589 c 0.855,-0.7515 2.084,-1.4985 2.73,-1.6607 0.645,-0.162 1.608,-0.999 2.141,-1.8597 1.02,-1.6462 5.775,-5.9557 6.574,-5.9557 0.255,0 1.502,-0.855 2.768,-1.9005 1.26,-1.0455 3.022,-2.244 3.907,-2.6637 0.885,-0.42 1.964,-1.053 2.396,-1.407 0.435,-0.354 1.32,-1.0695 1.978,-1.5897 l 1.185,-0.945 -4.312,0.1815 c -2.373,0.105 -4.905,0.4065 -5.628,0.681 -0.72,0.2745 -1.829,0.4995 -2.46,0.4995 -0.81,0 -1.38,0.45 -1.946,1.5477 -0.435,0.852 -1.2,1.8279 -1.678,2.1702 -0.48,0.342 -0.885,0.927 -0.885,1.299 0,0.372 -0.51,1.0125 -1.14,1.4235 -0.63,0.411 -1.245,1.155 -1.38,1.6539 -0.15,0.498 -0.915,1.3185 -1.745,1.8234 -0.825,0.504 -1.944,1.7473 -2.478,2.7622 -0.54,1.0155 -1.914,2.8173 -3.067,4.005 -1.155,1.188 -2.097,2.3019 -2.097,2.4761 0,0.5955 3.57,-1.173 5.128,-2.5413 z m -260.689,0.273 c 1.08,-0.924 3.265,-2.826 4.864,-4.2266 1.599,-1.401 3.636,-2.788 4.524,-3.0835 0.945,-0.3135 1.952,-1.125 2.417,-1.9442 0.435,-0.774 1.512,-1.7401 2.382,-2.1475 2.842,-1.332 7.719,-4.3788 7.906,-4.9413 0.33,-0.999 -1.41,-1.185 -3.645,-0.39 -1.41,0.501 -3.493,0.756 -5.775,0.7065 -4.441,-0.09 -6.093,0.6795 -7.63,3.5787 -0.615,1.1685 -1.716,2.4732 -2.436,2.898 -1.41,0.834 -2.937,3.6058 -3.743,6.8041 -0.285,1.1025 -0.72,2.1321 -0.96,2.2887 -0.255,0.156 -0.69,0.702 -0.96,1.2105 -0.825,1.5539 0.855,1.1385 3.057,-0.7545 z m 129.754,-1.6812 c 3.453,-2.6738 9.384,-7.0436 11.394,-8.3946 2.729,-1.8354 4.398,-3.4338 4.398,-4.2123 0,-0.354 -1.14,-0.705 -2.922,-0.9075 -2.85,-0.3225 -2.961,-0.2925 -4.546,1.2435 -0.9,0.8655 -2.204,2.7259 -2.912,4.1334 -0.825,1.6482 -1.995,3.0477 -3.276,3.9316 -2.202,1.52 -3.964,3.5375 -3.964,4.5362 0,0.882 0.345,0.8205 1.828,-0.33 z m -193.837,-4.3509 c 1.14,-0.8655 3.277,-2.6769 4.762,-4.0244 1.485,-1.347 3.503,-2.7832 4.485,-3.1905 1.886,-0.7815 2.441,-2.2177 0.855,-2.2177 -0.51,0 -1.485,-0.2505 -2.148,-0.555 -1.065,-0.483 -1.38,-0.405 -2.449,0.5955 -0.675,0.633 -1.533,1.7313 -1.904,2.4417 -0.375,0.711 -2.4,3.0679 -4.51,5.2387 -5.975,6.1421 -5.664,6.7266 0.915,1.7117 z m 44.896,0.342 c 1.005,-0.9105 2.427,-1.7978 3.153,-1.9727 3.42,-0.822 6.057,-2.838 8.358,-6.3883 l 0.84,-1.3035 -1.65,-0.309 c -1.485,-0.279 -2.653,-0.1635 -5.136,0.5055 -0.45,0.12 -0.96,0.69 -1.125,1.266 -0.18,0.576 -1.576,2.2546 -3.111,3.7305 -2.476,2.3821 -3.76,4.3221 -3.76,5.682 0,0.768 0.54,0.498 2.43,-1.209 z m 175.065,0.183 c 0.495,-0.8535 2.261,-2.2997 4.194,-3.4403 1.833,-1.0815 3.902,-2.5627 4.596,-3.2899 0.69,-0.7275 1.722,-1.323 2.285,-1.323 1.05,0 3.358,-1.9503 3.358,-2.8424 0,-0.315 -0.645,-0.234 -1.725,0.216 -0.945,0.396 -2.743,0.7215 -3.988,0.7215 -2.421,0 -2.361,-0.045 -6.672,4.7192 -1.05,1.155 -1.902,2.3383 -1.902,2.6299 0,0.291 -0.66,1.329 -1.47,2.3055 -1.335,1.6137 -1.38,1.7754 -0.51,1.7754 0.57,0 1.305,-0.5985 1.821,-1.473 z m -533.818,-2.4572 c 2.239,-3.0306 2.859,-3.5637 5.941,-5.1064 1.32,-0.6615 2.472,-1.4175 2.556,-1.6796 0.15,-0.2625 -0.75,-0.891 -1.866,-1.3995 -1.11,-0.507 -2.134,-0.9915 -2.274,-1.077 -0.15,-0.09 -0.84,0.9735 -1.546,2.3516 -1.305,2.5248 -1.485,2.8285 -3.714,6.3081 -1.874,2.9175 -1.959,3.1035 -1.44,3.1035 0.27,0 1.32,-1.125 2.337,-2.501 z m 293.503,6e-4 c 0.945,-0.72 2.076,-1.3095 2.522,-1.3095 0.45,0 1.38,-0.5895 2.088,-1.3095 0.705,-0.72 2.338,-1.8517 3.634,-2.5146 3.555,-1.8183 3.482,-2.5732 -0.225,-2.2375 -2.068,0.1875 -3.672,0.045 -5.121,-0.4425 -1.155,-0.3945 -2.286,-0.5385 -2.502,-0.321 -1.125,1.125 -5.206,8.5509 -5.206,9.4641 0,0.987 0.15,1.023 1.548,0.519 0.855,-0.297 2.317,-1.128 3.259,-1.8489 z m 335.951,-0.3585 c 1.14,-0.786 2.532,-2.067 3.087,-2.8458 0.555,-0.7785 1.908,-1.8151 3.007,-2.3028 1.095,-0.4875 2.294,-1.242 2.652,-1.6771 0.6,-0.723 0.45,-0.7665 -1.666,-0.513 -1.92,0.2295 -2.565,0.5745 -3.749,2.0076 -0.78,0.951 -2.592,2.8623 -4.015,4.2459 -2.859,2.7793 -2.532,3.298 0.69,1.086 z m -12.375,-4.1661 c 1.914,-2.0299 3.418,-3.7548 3.34,-3.8331 -0.885,-0.891 -6.943,3.5259 -8.226,5.9982 -0.78,1.5053 -0.78,1.526 0.405,1.526 0.63,0 2.286,-1.362 4.485,-3.6911 z m -117.033,1.0065 c 0.45,-0.4485 2.155,-1.422 3.793,-2.1651 3.401,-1.5418 3.971,-2.7699 1.29,-2.7699 -0.93,0 -2.356,0.3435 -3.168,0.7635 -1.69,0.8745 -6.096,5.1288 -6.096,5.8872 0,0.6525 3.075,-0.609 4.182,-1.7161 z m -444.773,-3.292 c 0.54,-0.504 0.405,-0.7305 -0.81,-1.362 -2.434,-1.2585 -5.31,-0.696 -5.332,1.0455 0,0.4485 -0.435,1.7397 -0.945,2.868 l -0.93,2.0512 3.679,-1.9989 c 2.024,-1.0995 3.975,-2.2711 4.335,-2.6038 z m 609.66,3.5232 c 0.66,-0.249 1.623,-1.137 2.153,-1.9754 0.525,-0.8385 1.656,-1.8516 2.503,-2.2519 0.84,-0.4005 2.022,-1.2195 2.61,-1.82 0.585,-0.6 1.818,-1.5468 2.735,-2.1027 1.41,-0.855 1.524,-1.041 0.735,-1.2105 -0.51,-0.105 -2.039,0.075 -3.398,0.393 -2.143,0.5145 -2.646,0.873 -3.814,2.7224 -0.735,1.1715 -2.525,3.3259 -3.963,4.7878 -1.44,1.461 -2.196,2.489 -1.685,2.2829 0.51,-0.2055 1.47,-0.5775 2.121,-0.8265 z m 22.22,-7.106 c 0.75,-0.2715 1.833,-1.2405 2.416,-2.1541 l 1.065,-1.661 -1.777,0.3255 c -2.837,0.5175 -3.905,1.0515 -4.415,2.207 -0.27,0.594 -1.065,1.8556 -1.777,2.8038 -3.683,4.8847 -3.696,4.9873 -0.255,1.9581 1.864,-1.6421 4,-3.2075 4.746,-3.4785 z m -697.185,3.2411 c 1.14,-0.888 0.585,-1.356 -1.425,-1.209 -1.805,0.135 -2.04,0.2865 -2.174,1.4415 -0.15,1.269 -0.15,1.284 1.425,0.7635 0.87,-0.2925 1.845,-0.741 2.174,-0.996 z m 496.848,0.5775 1.185,-0.957 -1.425,0.135 c -0.915,0.09 -1.485,0.435 -1.584,0.9675 -0.21,1.083 0.345,1.0395 1.818,-0.15 z m -456.443,-0.804 c -0.33,-0.33 -1.23,0.3405 -1.23,0.9165 0,0.315 0.27,0.279 0.72,-0.09 0.405,-0.3315 0.63,-0.7005 0.51,-0.8205 z"
       id="vctrly-chalky-icon-programming" /></g></svg>
