<?xml version="1.0" encoding="UTF-8" standalone="no"?>
<!-- Created with Inkscape (http://www.inkscape.org/) -->

<svg
   width="786.16809mm"
   height="556.00684mm"
   viewBox="0 0 786.16812 556.00685"
   version="1.1"
   id="svg1"
   xml:space="preserve"
   xmlns="http://www.w3.org/2000/svg"
   xmlns:svg="http://www.w3.org/2000/svg"><defs
     id="defs1" /><g
     id="layer1"
     transform="translate(-15455.248,-225.77547)"><path
       style="fill:#000000;stroke-width:1"
       d="m 15522.209,781.62457 c -1.44,-0.201 -4.012,-0.387 -5.715,-0.414 -2.385,-0.03 -3.79,-0.3765 -6.115,-1.476 -1.869,-0.8835 -3.785,-1.428 -5.028,-1.428 -1.11,0 -2.426,-0.315 -2.934,-0.699 -0.51,-0.384 -1.782,-0.717 -2.831,-0.7395 -2.68,-0.06 -8.365,-1.134 -9.649,-1.8288 -0.645,-0.3525 -1.742,-0.459 -2.759,-0.2685 -1.17,0.2205 -1.923,0.105 -2.493,-0.396 -0.45,-0.39 -1.779,-0.837 -2.958,-0.9915 -3.282,-0.432 -6.577,-1.1865 -7.626,-1.74795 -1.065,-0.57 -1.245,-2.02095 -0.345,-2.73015 0.6,-0.471 5.006,-1.197 6.786,-1.119 0.525,0.03 1.455,-0.075 2.081,-0.219 l 1.125,-0.261 -0.39,-5.57295 c -0.21,-3.0651 -0.45,-8.3589 -0.54,-11.7642 -0.24,-9.96765 -0.405,-12.78525 -0.75,-14.0493 -0.18,-0.6555 -0.465,-3.65519 -0.63,-6.66749 -0.285,-5.27505 -0.315,-6.453 -0.24,-11.6682 0.15,-9.5223 -0.315,-23.1519 -0.81,-24.8544 -0.315,-1.0965 -0.45,-2.8287 -0.285,-3.84825 0.21,-1.3635 0,-2.5077 -0.765,-4.3212 -0.93,-2.15445 -1.02,-2.9643 -0.75,-6.39105 0.165,-2.15805 0.27,-4.45965 0.21,-5.1144 -0.15,-1.7667 -0.15,-4.68075 0.15,-12.6207 0.15,-5.47604 0,-7.41164 -0.45,-8.29124 -0.36,-0.6315 -0.765,-2.89515 -0.9,-5.03085 -0.195,-3.2016 -0.15,-4.2594 0.705,-6.02625 1.23,-2.77425 1.185,-9.6816 -0.15,-12.5268 -0.54,-1.2315 -0.735,-2.4528 -0.555,-3.57195 0.87,-5.28585 1.14,-10.6449 0.735,-14.6952 -0.27,-2.61435 -0.27,-5.2428 0,-6.4293 0.225,-1.104 0.285,-4.36455 0.15,-7.2459 -0.165,-2.8812 -0.18,-6.3102 0,-7.62 0.21,-1.78005 0,-2.91015 -0.645,-4.47645 -0.705,-1.59944 -0.855,-2.66984 -0.63,-4.52429 0.36,-2.9346 0.42,-21.04035 0.15,-31.2423 -0.15,-4.06005 -0.33,-11.2842 -0.465,-16.0536 -0.15,-4.7694 -0.36,-8.86875 -0.495,-9.1095 -0.15,-0.24 0.15,-2.26785 0.615,-4.50495 0.915,-4.16025 0.9,-4.22145 -0.495,-10.33695 -0.72,-3.15014 -0.645,-5.31254 0.285,-7.09904 0.6,-1.1655 0.6,-1.6191 0,-3.66375 -0.525,-1.68105 -0.63,-3.20025 -0.39,-5.4297 0.3,-2.85525 0.3,-19.377 0,-28.33695 -0.24,-6.99615 -0.315,-7.10535 -3.393,-4.75635 -2.784,2.12595 -3.973,2.6133 -6.376,2.6133 -2.039,0 -7.112,-2.2032 -8.864,-3.84915 -2.166,-2.0346 -2.256,-3.1311 -2.008,-24.4878 0.01,-1.04849 -0.15,-3.65864 -0.345,-5.80214 -0.33,-3.5043 -0.255,-4.07115 0.66,-5.62305 1.26,-2.1444 1.26,-2.59635 0,-5.01255 -0.825,-1.5783 -0.945,-2.3607 -0.66,-4.18185 0.195,-1.233 0.42,-3.5262 0.495,-5.0979 0.15,-1.57155 0.39,-4.572 0.69,-6.6675 0.3,-2.0955 0.615,-4.77435 0.675,-5.95305 0,-1.179 0.435,-2.679 0.795,-3.33375 0.375,-0.6555 0.705,-2.4765 0.735,-4.0482 0.15,-5.4696 2.629,-20.84625 3.57,-21.97845 1.185,-1.428 3.274,-0.06 3.274,2.15295 0,0.714 0.24,1.5345 0.525,1.82175 0.48,0.4755 1.125,3.81345 1.613,8.3235 0.15,0.963 0.645,2.6544 1.215,3.7602 0.96,1.89 0.975,2.12145 0.3,3.86025 -0.705,1.7928 -0.675,1.93155 0.675,4.50345 0.885,1.6683 1.395,3.38745 1.41,4.62945 0,1.086 0.42,4.22595 0.915,6.97635 0.495,2.75025 1.14,6.3936 1.425,8.09625 0.3,1.7025 0.75,4.31055 1.005,5.7954 0.315,1.8063 0.3,3.42165 0,4.88145 -0.39,1.7277 -0.33,2.7786 0.315,5.049 0.795,2.85855 0.795,2.87955 -0.525,6.94575 -0.99,3.05429 -1.245,4.51694 -0.99,5.82434 0.18,0.96 0.51,2.71035 0.705,3.88905 0.495,2.8239 1.875,6.72945 2.694,7.6029 0.57,0.612 0.645,0.612 0.645,0 0,-0.384 -0.225,-1.497 -0.495,-2.4759 -0.345,-1.218 -0.345,-2.34855 0,-3.5868 0.33,-1.2405 0.33,-2.37285 0,-3.6033 -0.6,-2.1957 0,-4.16925 1.998,-6.98445 2.568,-3.54539 6.762,-4.58879 12.47,-3.10229 2.901,0.756 14.343,0.6855 23.671,-0.15 3.858,-0.3435 4.916,-0.273 7.182,0.4785 2.633,0.873 2.679,0.8715 4.935,-0.12 1.724,-0.762 2.778,-0.933 4.331,-0.7005 1.125,0.1695 4.026,0.3165 6.441,0.3285 2.415,0.0114 5.205,0.309 6.201,0.66 1.29,0.4545 2.281,0.51 3.438,0.1905 2.104,-0.582 6.429,-0.6465 21.309,-0.321 6.691,0.15 13.012,0.492 14.049,0.768 1.2,0.3195 2.566,0.3465 3.754,0.075 1.125,-0.258 2.843,-0.246 4.341,0.03 1.754,0.324 2.873,0.2955 3.846,-0.105 2.312,-0.939 11.273,-1.2615 19.299,-0.6945 6.228,0.4395 7.988,0.4185 9.831,-0.12 1.425,-0.417 3.024,-0.534 4.389,-0.324 2.574,0.3975 3.62,0.3945 7.478,-0.03 1.656,-0.18 3.549,-0.105 4.312,0.1545 0.84,0.2925 3.411,0.3375 6.714,0.12 3.327,-0.222 7.307,-0.1515 10.52,0.189 4.057,0.4305 5.662,0.4185 7.479,-0.06 3.222,-0.8355 5.002,-0.765 8.236,0.324 2.409,0.8115 4.008,0.936 11.534,0.8955 6.948,-0.03 9.03,-0.1995 10.165,-0.795 1.728,-0.903 9.617,-1.0245 14.882,-0.2265 2.781,0.4215 3.966,0.3885 6.103,-0.1695 2.205,-0.576 3.791,-0.6045 9.408,-0.1725 3.716,0.2865 7.625,0.846 8.687,1.2435 1.753,0.6555 2.127,0.648 4.048,-0.075 3.14,-1.191 5.732,-1.3545 7.794,-0.4935 1.625,0.6795 2.009,0.681 4.046,0.0144 2.049,-0.6705 2.44,-0.666 4.36,0.045 1.155,0.4275 2.324,0.7635 2.585,0.7485 4.807,-0.273 7.941,-0.759 8.391,-1.3005 0.3,-0.3615 0.735,-1.67295 0.96,-2.91435 0.225,-1.242 1.05,-3.16035 1.821,-4.2639 1.2,-1.7046 1.395,-2.4216 1.335,-4.7625 0,-3.1824 0.885,-5.41965 2.857,-6.65865 0.72,-0.4485 2.105,-1.5225 3.087,-2.38575 2.006,-1.76025 4.217,-2.0607 6.495,-0.882 1.29,0.669 1.395,0.6255 3.77,-1.63965 3.016,-2.877 5.082,-3.54945 8.545,-2.7831 1.896,0.42 2.945,0.42 4.343,10e-4 2.848,-0.8535 7.345,-0.6765 10.179,0.4005 3.256,1.2375 6.195,1.212 8.86,-0.075 1.938,-0.9375 2.378,-0.981 4.823,-0.4755 1.485,0.306 4.071,0.5715 5.758,0.5925 1.686,0.015 3.804,0.303 4.704,0.6285 1.335,0.483 1.992,0.468 3.572,-0.075 1.065,-0.3705 2.913,-0.5805 4.11,-0.468 2.049,0.192 2.91,0.519 6.397,2.4276 0.78,0.4305 2.694,1.266 4.242,1.85775 1.952,0.747 3.264,1.63725 4.286,2.90805 1.395,1.7436 1.485,2.0547 1.548,6.42945 0,2.5284 0.225,6.31695 0.405,8.41905 l 0.345,3.82185 5.541,-0.06 c 3.811,-0.045 6.097,0.1605 7.323,0.6345 1.17,0.453 2.476,0.579 3.81,0.369 1.11,-0.1755 5.956,-0.429 10.759,-0.5655 8.169,-0.2295 8.924,-0.177 11.745,0.819 l 3.017,1.06499 7.615,-1.10249 c 7.448,-1.077 7.739,-1.0845 13.074,-0.3225 4.905,0.702 5.715,0.708 8.021,0.06 4.438,-1.2405 5.967,-1.3335 8.458,-0.519 3.615,1.182 12.923,1.0995 15.23,-0.135 1.588,-0.8505 5.014,-0.4005 8.571,1.1235 l 3.025,1.29599 2.303,-0.98999 c 2.484,-1.068 4.927,-1.26 6.834,-0.5355 0.855,0.327 1.825,0.2415 3.421,-0.303 1.734,-0.591 3.078,-0.6795 6.096,-0.402 2.13,0.195 4.73,0.2985 5.777,0.228 2.122,-0.15 4.402,-0.15 6.906,-0.015 1.615,0.09 4.888,0.135 8.811,0.15 1.05,0.002 3.298,-0.1515 5.001,-0.342 2.497,-0.279 3.607,-0.165 5.754,0.594 2.406,0.8505 2.787,0.873 4.005,0.234 2.518,-1.32 3.994,-1.5192 6.24,-0.843 1.857,0.5595 2.445,0.549 4.281,-0.075 1.185,-0.402 2.916,-0.6195 3.901,-0.4875 0.975,0.135 3.81,0.48 6.299,0.777 2.488,0.297 5.595,0.6975 6.904,0.891 2.061,0.3045 8.079,-0.1635 15.138,-1.176 1.26,-0.18 2.531,0.06 4.209,0.777 3.359,1.44449 8.331,1.81484 10.352,0.7695 0.855,-0.441 3.627,-1.0185 6.166,-1.284 2.54,-0.2655 5.528,-0.597 6.641,-0.7365 1.5,-0.1875 2.523,0.006 3.945,0.747 2.307,1.203 3.363,1.248 5.34,0.2265 1.17,-0.6075 2.427,-0.726 5.826,-0.5475 2.38,0.12 4.789,0.4725 5.353,0.774 1.455,0.78 7.727,0.666 9.183,-0.1665 1.664,-0.951 3.963,-0.8745 8.088,0.2685 2.726,0.7545 3.803,0.8655 4.656,0.4755 1.29,-0.5865 6.401,-0.6195 11.585,-0.075 3.147,0.3315 3.997,0.64049 6.592,2.40344 4.097,2.781 5.252,5.724 3.627,9.2379 -0.465,1.017 -0.765,3.8028 -0.915,8.6445 -0.24,7.9836 -0.81,12.8124 -1.708,14.4867 -0.585,1.0905 -0.555,2.01465 0.27,9.462 0.18,1.5981 0,3.68505 -0.48,5.715 -0.63,2.6118 -0.735,5.24775 -0.57,14.3895 0.15,6.15555 0.345,12.15629 0.51,13.33499 0.255,1.7682 0.15,2.54325 -0.915,4.43055 -0.675,1.2585 -1.23,2.52705 -1.23,2.82 0,0.2925 0.525,1.83555 1.155,3.42765 1.125,2.8314 1.14,3.05145 0.69,10.0386 -0.255,3.9291 -0.645,7.74285 -0.885,8.475 -0.285,0.9285 -0.195,1.854 0.315,3.06195 0.45,1.0695 0.615,2.3808 0.435,3.4314 -0.87,5.2365 -1.38,11.87895 -1.29,16.70235 0,3.0123 -0.15,7.0842 -0.375,9.04875 -0.33,2.4336 -0.315,4.1073 0,5.25225 0.345,1.1835 0.33,3.7908 0,8.81069 -0.3,3.9216 -0.525,8.6934 -0.51,10.6041 0,2.80425 -0.195,4.01385 -1.2,6.2742 -1.08,2.4048 -1.185,3.024 -0.75,4.3842 0.75,2.3226 0.795,15.40755 0,18.01455 -0.33,1.179 -0.645,4.0719 -0.705,6.4293 0,2.35755 -0.345,4.7544 -0.66,5.3265 -0.645,1.2165 -0.72,4.38435 -0.15,5.33385 0.315,0.495 1.962,0.69 6.633,0.7815 5.229,0.105 6.426,0.2685 7.552,1.041 1.5,1.029 5.505,2.0376 8.16,2.0535 0.96,0.006 2.684,0.4335 3.825,0.9525 1.14,0.5175 2.711,0.942 3.485,0.942 0.78,0 1.876,0.261 2.448,0.5805 1.614,0.9015 4.269,1.785 5.388,1.79295 0.555,0.004 1.782,-0.3135 2.722,-0.708 2.196,-0.9165 4.038,-0.9015 7.383,0.06 4.102,1.1805 7.003,2.82525 8.691,4.9248 0.84,1.0455 1.977,2.0352 2.527,2.1984 0.555,0.1635 1.535,0.6435 2.19,1.068 1.598,1.03649 5.711,2.81234 9.686,4.18364 3.972,1.371 6.27,3.1275 8.695,6.64995 1.29,1.87365 2.535,3.03045 4.131,3.83895 4.257,2.15715 13.683,13.3713 13.683,16.2789 0,1.6455 -1.29,1.9605 -3.987,0.975 -1.335,-0.489 -2.539,-0.888 -2.674,-0.888 -0.15,0 -0.255,1.0185 -0.255,2.26215 -0.01,2.8104 -1.83,6.87315 -4.31,9.61665 -1.773,1.962 -4.744,3.83745 -6.082,3.83745 -0.375,0 -0.975,0.3585 -1.32,0.7965 -0.36,0.438 -1.856,1.56315 -3.323,2.5002 -1.47,0.9375 -3.774,3.0372 -5.125,4.6668 -1.35,1.62975 -2.882,3.1902 -3.401,3.46785 -0.525,0.2775 -2.947,2.5089 -5.397,4.95855 -2.449,2.44965 -4.866,4.58475 -5.37,4.7448 -0.51,0.1605 -1.32,1.041 -1.815,1.95855 -0.495,0.9165 -1.776,2.187 -2.848,2.8215 -1.08,0.6345 -2.7,1.94685 -3.617,2.91614 -3.355,3.54645 -10.127,9.9966 -10.996,10.47165 -0.495,0.2685 -1.504,1.4475 -2.253,2.6193 -1.84,2.8833 -5.332,6.00075 -7.176,6.40545 -1.245,0.273 -1.762,0.831 -2.94,3.16455 -1.41,2.80125 -3.558,4.6998 -5.31,4.7037 -0.45,9e-4 -1.665,0.8595 -2.701,1.9068 -1.035,1.047 -2.226,1.905 -2.642,1.905 -0.42,0 -2.641,1.69035 -4.945,3.7563 -2.304,2.0661 -5.537,4.47705 -7.184,5.35785 -1.647,0.8805 -3.67,1.9761 -4.498,2.4342 -2.027,1.122 -3.537,1.05 -6.194,-0.2955 -2.19,-1.1085 -2.335,-1.119 -7.819,-0.567 -3.074,0.309 -6.446,0.402 -7.494,0.2055 -1.05,-0.1965 -3.363,-0.135 -5.145,0.135 -1.784,0.2685 -3.558,0.3675 -3.944,0.219 -0.39,-0.15 -2.196,0.09 -4.023,0.528 -2.856,0.6855 -4.126,0.726 -9.048,0.288 -4.683,-0.4155 -6.078,-0.387 -7.669,0.162 -1.065,0.369 -2.388,0.5295 -2.93,0.357 -1.614,-0.513 -4.897,-0.282 -7.738,0.5445 -2.919,0.849 -7.301,0.6255 -10.067,-0.5145 -0.87,-0.3585 -2.331,-0.5115 -3.45,-0.3615 -1.065,0.15 -2.853,0.006 -3.967,-0.306 -1.79,-0.4995 -2.297,-0.447 -4.334,0.456 -2.059,0.912 -2.625,0.969 -5.239,0.5235 -8.304,-1.4115 -9.242,-1.4655 -17.157,-0.9915 -4.415,0.2655 -8.463,0.3435 -8.996,0.174 -0.54,-0.1695 -7.099,-0.3495 -14.59,-0.4005 -10.248,-0.075 -14.085,0.06 -15.488,0.537 -1.02,0.3465 -3.813,0.681 -6.192,0.7425 -3.472,0.09 -4.69,-0.075 -6.175,-0.8055 -1.677,-0.8325 -2.102,-0.861 -4.524,-0.306 -1.47,0.3375 -3.854,0.777 -5.294,0.9795 -1.44,0.201 -3.55,0.621 -4.687,0.9315 -1.601,0.4365 -2.624,0.435 -4.524,-0.008 -3.06,-0.7125 -9.102,-1.0335 -17.459,-0.9255 -3.645,0.045 -7.006,-0.135 -7.762,-0.4275 -0.99,-0.381 -1.718,-0.3525 -2.858,0.12 -1.065,0.438 -4.639,0.648 -12.003,0.708 -5.761,0.045 -11.799,0.336 -13.414,0.6435 -2.543,0.4845 -3.23,0.4485 -5.111,-0.2715 -1.891,-0.7215 -2.515,-0.7545 -4.798,-0.243 -2.048,0.459 -4.065,0.4665 -9.185,0.03 -4.05,-0.339 -7.131,-0.3855 -8.05,-0.12 -0.915,0.264 -2.36,0.243 -3.755,-0.06 -1.831,-0.39 -2.572,-0.336 -3.876,0.285 -2.172,1.035 -4.309,0.966 -7.464,-0.24 l -2.635,-1.0095 -2.598,1.077 c -2.294,0.951 -2.852,1.014 -4.749,0.5355 -1.185,-0.297 -3.401,-0.426 -4.929,-0.2865 -4.886,0.45 -12.108,0.723 -19.208,0.726 -3.798,0.002 -10.335,0.006 -14.526,0.009 -9.948,0.007 -11.385,-4.5e-4 -17.706,-0.09 -2.926,-0.045 -6.37,0.18 -7.653,0.4875 -1.927,0.462 -2.697,0.432 -4.44,-0.1755 -2.598,-0.9045 -3.495,-0.915 -5.92,-0.075 -2.888,1.0035 -9.086,0.885 -11.592,-0.2235 -1.839,-0.813 -2.441,-0.855 -5.477,-0.387 -1.875,0.2895 -6.838,0.618 -11.029,0.729 -4.191,0.105 -9.443,0.2535 -11.669,0.315 -2.226,0.06 -4.81,0.282 -5.742,0.489 -1.245,0.2775 -2.469,0.12 -4.62,-0.6075 -2.35,-0.792 -3.187,-0.8835 -4.258,-0.4665 -2.498,0.972 -9.099,1.72245 -11.46,1.3035 -7.391,-1.3125 -18.992,-2.007 -21.393,-1.281 -1.643,0.4965 -9.56,0.9225 -20.868,1.1205 -10.611,0.186 -21.11,0.621 -22.545,0.9315 -0.705,0.1515 -2.448,-0.03 -3.891,-0.411 -3.753,-0.9825 -8.375,-0.9975 -11.052,-0.03 -2.07,0.744 -2.417,0.7485 -4.464,0.045 -1.215,-0.4155 -2.456,-0.6105 -2.744,-0.4335 -0.87,0.5415 -12.349,0.594 -14.031,0.06 -1.155,-0.3615 -1.953,-0.339 -2.973,0.075 -1.926,0.798 -4.744,0.6825 -6.942,-0.2835 -2.848,-1.2525 -9.826,-1.3005 -12.54,-0.09 -2.278,1.02 -4.872,0.969 -10.564,-0.207 -2.768,-0.5715 -3.386,-0.498 -10.706,1.281 -1.782,0.4335 -3.58,0.4725 -6.667,0.15 -7.889,-0.828 -18.215,-0.8295 -21.68,-0.003 -2.598,0.6195 -3.769,0.66 -6.534,0.2325 -1.924,-0.2985 -4.141,-0.36 -5.17,-0.15 -2.964,0.6225 -8.769,0.855 -11.564,0.4635 z m -18.705,-15.7005 c 0.66,-0.5235 1.823,-0.9525 2.57,-0.9525 0.75,0 2.772,-0.75 4.5,-1.66695 3.31,-1.7568 4.966,-1.9923 8.028,-1.143 1.588,0.441 2.353,0.3555 5.067,-0.5685 2.68,-0.912 3.568,-1.0155 5.511,-0.6405 1.663,0.321 3.033,0.2685 4.866,-0.1875 2.185,-0.543 2.865,-0.5325 4.762,0.09 1.725,0.5595 2.999,0.6255 5.784,0.297 4.952,-0.582 10.056,-0.558 11.81,0.06 1.08,0.375 2.544,0.357 5.428,-0.06 3.279,-0.4815 10.964,-0.7005 34.436,-0.9795 1.05,-0.0125 4.048,0.12 6.667,0.2835 7.232,0.465 23.319,0.2325 35.262,-0.5085 4.755,-0.2955 5.48,-0.2295 7.562,0.693 2.896,1.281 3.028,1.2765 7.38,-0.225 2.92,-1.008 4.054,-1.179 5.988,-0.9045 1.305,0.186 3.711,0.3045 5.331,0.261 1.744,-0.045 3.489,0.198 4.285,0.6 1.485,0.7455 4.812,0.5025 8.841,-0.6465 1.985,-0.5655 2.799,-0.537 6.668,0.225 2.425,0.4785 5.587,0.864 7.027,0.858 1.44,-0.007 4.013,-0.004 5.715,0.005 1.703,0.01 4.007,-0.004 5.12,-0.03 2.901,-0.075 8.752,-0.045 11.668,0.045 1.757,0.06 3.245,-0.2625 5.007,-1.068 2.358,-1.0785 2.64,-1.107 4.763,-0.4845 1.245,0.3645 2.898,0.627 3.684,0.585 4.38,-0.2355 16.23,-0.135 19.416,0.1575 2.422,0.2265 4.663,0.135 6.487,-0.246 2.39,-0.507 3.173,-0.4785 5.505,0.1995 2.267,0.6585 3.012,0.693 4.469,0.2085 1.849,-0.6165 5.866,-0.6945 13.614,-0.2625 3.775,0.21 5.017,0.105 6.192,-0.4965 1.752,-0.9075 10.56,-1.2675 13.135,-0.537 1.08,0.306 3.666,0.318 7.353,0.03 3.6,-0.279 6.308,-0.273 7.382,0.015 0.93,0.252 3.09,0.4425 4.792,0.423 6.888,-0.075 14.607,-0.5295 15.954,-0.93 2.003,-0.5955 23.069,-0.12 26.324,0.5985 1.02,0.225 2.247,0.075 3.645,-0.465 1.671,-0.6375 2.968,-0.741 6.307,-0.5025 2.313,0.1665 4.955,0.2715 5.873,0.2355 0.915,-0.03 2.256,-0.06 2.976,-0.045 0.72,0.0125 2.809,0.01 4.644,-0.005 7.815,-0.06 11.191,-0.0142 19.525,0.2955 6.866,0.255 9.38,0.18 11.388,-0.339 1.802,-0.4665 3.233,-0.543 4.763,-0.2565 1.2,0.225 2.757,0.285 3.454,0.135 0.705,-0.153 2.117,-0.045 3.152,0.2295 1.44,0.3885 2.317,0.3525 3.76,-0.156 1.365,-0.483 4.038,-0.636 9.818,-0.5655 4.366,0.06 8.07,0.228 8.229,0.387 0.165,0.159 1.185,-0.03 2.271,-0.423 2.235,-0.8055 5.266,-0.5865 7.438,0.537 1.17,0.606 2.154,0.642 6.198,0.2265 2.642,-0.2715 4.998,-0.3735 5.235,-0.2265 0.24,0.15 1.994,0.03 3.903,-0.273 2.963,-0.459 4.022,-0.414 7.203,0.3135 3.516,0.804 3.857,0.8055 5.964,0.045 2.73,-0.978 4.152,-1.002 6.678,-0.105 1.761,0.621 2.184,0.6015 4.509,-0.216 3.209,-1.128 11.973,-0.993 14.895,0.228 1.005,0.4185 2.153,0.6255 2.559,0.462 0.915,-0.369 7.944,-1.1445 13.389,-1.476 3.098,-0.189 4.514,-0.06 5.894,0.51 2.22,0.9285 3.937,0.942 5.508,0.045 1.576,-0.9015 3.837,-0.8865 6.153,0.045 1.335,0.5325 2.841,0.69 5.13,0.534 23.895,-1.6251 30.336,-1.61745 34.084,0.045 1.538,0.6795 2.759,0.879 4.32,0.702 1.77,-0.1995 2.574,-0.0117 4.31,1.005 1.32,0.7725 2.844,1.2495 3.997,1.2495 1.02,0 3.131,0.4455 4.677,0.99 1.928,0.6795 3.938,0.984 6.386,0.9675 3.67,-0.03 6.307,0.4545 8.809,1.59555 1.727,0.7875 13.662,2.4117 14.724,2.004 0.435,-0.165 0.765,-0.8595 0.78,-1.61415 0.01,-0.729 0.3,-2.1237 0.66,-3.10035 0.45,-1.26 0.51,-2.42175 0.21,-3.9972 -0.225,-1.221 -0.51,-5.18025 -0.63,-8.7969 -0.15,-3.6165 -0.42,-6.96135 -0.66,-7.4328 -0.57,-1.074 -1.485,-9.33914 -1.743,-15.62114 -0.48,-11.75565 -1.17,-19.2735 -1.891,-20.67795 -0.84,-1.6284 -0.915,-6.59475 -0.18,-11.2308 0.375,-2.34195 0.285,-3.6513 -0.525,-7.25775 -1.125,-5.07075 -1.26,-9.4884 -0.345,-11.68845 0.36,-0.843 0.915,-2.9715 1.245,-4.73025 0.57,-3.0093 0.54,-3.32805 -0.465,-5.41185 -1.02,-2.12085 -1.05,-2.3874 -0.465,-6.3273 0.33,-2.26214 0.87,-4.64894 1.2,-5.30369 0.33,-0.6555 0.735,-2.3694 0.915,-3.81 0.18,-1.44 0.765,-4.86975 1.32,-7.62 0.99,-4.989 1.005,-7.5723 0.15,-15.1578 -0.255,-2.07405 -0.15,-2.96415 0.795,-4.8759 l 1.095,-2.3388 -1.275,-2.3322 c -1.485,-2.72625 -1.652,-5.68845 -0.555,-9.87705 1.02,-3.90765 0.525,-17.22765 -0.81,-21.7521 l -0.945,-3.23189 1.02,-2.72805 c 0.855,-2.26725 1.005,-3.65205 0.945,-8.1981 0,-3.00855 0.165,-7.06065 0.465,-9.0048 0.375,-2.44125 0.39,-3.9882 0,-5.00055 -0.27,-0.8055 -0.465,-2.64465 -0.45,-4.08525 0,-1.44 -0.15,-3.5445 -0.3,-4.67505 -0.195,-1.1715 -0.15,-2.91345 0.21,-4.0482 0.63,-2.33775 0.72,-6.4692 0.345,-16.25205 -0.255,-6.5259 0.27,-12.57705 1.32,-15.50595 0.285,-0.7725 -0.48,-17.85284 -0.945,-21.52679 -0.195,-1.4925 0,-3.01485 0.48,-4.56915 0.42,-1.2825 0.645,-2.65005 0.495,-3.0408 -0.15,-0.39 0,-1.6701 0.45,-2.84295 0.615,-1.79925 0.645,-2.79765 0.18,-6.38865 -0.3,-2.34075 -0.525,-5.0061 -0.495,-5.9229 0.15,-3.1644 0.945,-10.7181 1.29,-11.54355 0.195,-0.456 0.15,-1.91865 -0.225,-3.2517 l -0.585,-2.4237 -2.345,0.3225 c -2.151,0.2955 -5.379,-0.075 -10.779,-1.257 -1.593,-0.3465 -2.557,-0.264 -4.363,0.378 -2.076,0.738 -3.045,0.768 -9.3,0.2985 -4.29,-0.3225 -7.581,-0.36 -8.537,-0.09 -1.08,0.2985 -2.239,0.2235 -3.807,-0.249 -1.966,-0.5925 -2.467,-0.588 -3.946,0.03 -1.41,0.588 -3.641,0.6615 -13.185,0.4335 -6.32,-0.1515 -11.811,-0.294 -12.204,-0.3165 -0.39,-0.03 -6.146,0.06 -12.782,0.198 -6.817,0.135 -12.721,0.045 -13.573,-0.201 -0.825,-0.243 -2.579,-0.4035 -3.888,-0.3585 -3.153,0.105 -10.887,0.06 -13.572,-0.09 -1.185,-0.06 -3.002,0.12 -4.049,0.4185 -1.365,0.3885 -2.64,0.399 -4.524,0.045 -1.641,-0.312 -3.331,-0.3405 -4.525,-0.075 -1.125,0.252 -4.617,0.243 -8.573,-0.015 -9.105,-0.609 -15.102,-0.4845 -17.989,0.372 -3.219,0.9555 -10.994,0.954 -13.707,-0.004 -1.862,-0.657 -2.274,-0.6495 -4.443,0.075 -2.118,0.7035 -2.828,0.723 -6.224,0.1695 -3.303,-0.5385 -8.634,-0.6315 -21.691,-0.381 -0.915,0.015 -3.618,-0.135 -6.003,-0.3315 -3.602,-0.303 -4.706,-0.222 -6.524,0.471 -2.196,0.8385 -3.453,0.8115 -7.239,-0.1605 -6.088,-1.56165 -6.567,-1.5855 -10.444,-0.522 -2.657,0.729 -4.341,0.93 -5.921,0.7065 -1.215,-0.171 -3.28,-0.294 -4.59,-0.2715 -10.494,0.1755 -13.668,0.045 -16.636,-0.7035 -2.721,-0.6825 -3.536,-0.714 -5.339,-0.21 -1.44,0.402 -3.894,0.5085 -7.575,0.3285 -3.811,-0.1875 -5.547,-0.105 -5.781,0.273 -0.18,0.297 -0.315,2.3691 -0.285,4.6041 0,2.86455 -0.18,4.6257 -0.765,5.9685 -0.645,1.50705 -0.795,3.1623 -0.72,7.9236 0,3.3102 0.345,7.16775 0.66,8.5725 0.495,2.2023 0.45,2.84895 -0.27,4.6971 -0.795,2.03175 -0.915,3.4545 -0.705,7.85805 0.21,4.4661 0,9.84075 -0.495,11.06415 -0.27,0.7245 -0.585,3.84405 -0.675,6.93089 -0.15,3.087 -0.315,6.05685 -0.48,6.6 -0.18,0.543 -0.165,2.15475 0.01,3.5817 0.27,2.15565 0.675,2.99055 2.406,4.93845 1.185,1.3335 2.211,3.0339 2.382,3.9447 0.825,4.4073 -5.172,10.7601 -10.191,10.7928 -2.379,0.015 -6.254,-4.11525 -6.254,-6.66675 0,-0.621 -1.02,-1.99305 -2.587,-3.48405 -1.59,-1.51095 -2.699,-3.01035 -2.876,-3.88815 -0.165,-0.786 -0.72,-2.8521 -1.26,-4.5918 -0.78,-2.5542 -0.87,-3.50445 -0.48,-4.93695 0.27,-0.975 0.36,-3.09015 0.21,-4.6989 -0.18,-1.9632 0,-4.16309 0.57,-6.68999 0.69,-3.11295 0.78,-4.94265 0.51,-10.56375 -0.285,-5.85945 -0.225,-7.0116 0.465,-8.34075 0.69,-1.3455 0.72,-1.8612 0.195,-4.047 -0.405,-1.69155 -0.465,-3.24945 -0.195,-4.7973 0.405,-2.2914 0.525,-9.7071 0.21,-14.19855 -0.15,-1.3095 0.15,-3.13335 0.45,-4.05255 0.54,-1.5063 0.48,-1.96155 -0.63,-4.6092 -0.705,-1.6662 -1.2,-3.7257 -1.17,-4.758 0,-1.0005 -0.165,-2.8968 -0.45,-4.2126 -0.765,-3.4881 0,-7.99545 1.736,-11.38484 1.608,-3.0129 1.836,-4.7733 0.795,-6.1455 -0.57,-0.7575 -1.35,-0.867 -5.834,-0.8325 -4.344,0.03 -5.475,-0.12 -7.062,-0.939 -2.146,-1.113 -5.407,-0.978 -9.319,0.3855 -2.082,0.7275 -2.411,0.711 -6.747,-0.3345 -4.151,-0.999 -4.83,-1.044 -7.587,-0.4965 -2.637,0.5235 -3.458,0.495 -6.348,-0.228 -1.827,-0.4575 -3.714,-1.0395 -4.196,-1.296 -1.23,-0.6585 -1.455,-0.2145 -0.645,1.353 1.005,1.95555 0.825,13.71704 -0.24,15.40334 -0.6,0.9465 -0.81,3.36555 -1.05,11.8146 -0.225,8.148 -0.465,10.95225 -1.02,12.03225 -0.87,1.6716 -2.22,8.17695 -2.127,10.20495 0,0.786 0.15,3.03615 0.15,5.0007 0,1.96455 0.33,4.0044 0.645,4.53315 0.99,1.7268 1.23,4.2762 0.54,5.98635 -1.29,3.25275 -0.45,19.60529 1.26,24.48479 0.375,1.0485 0.93,3.65475 1.23,5.79315 0.48,3.37215 0.45,4.2072 -0.24,6.2916 -0.63,1.89075 -0.72,3.0882 -0.405,5.61495 l 0.39,3.2118 2.382,0.843 c 1.305,0.4635 2.838,1.3665 3.398,2.0079 0.555,0.6405 1.845,1.59075 2.857,2.11155 1.005,0.5205 2.471,1.60935 3.24,2.4192 2.171,2.28435 2.945,1.9812 3.317,-1.2975 0.18,-1.55745 0.15,-3.85695 -0.225,-5.2533 -0.45,-2.0949 -0.405,-2.84685 0.3,-4.8072 0.78,-2.1786 0.795,-2.48265 0,-4.8669 -0.45,-1.464 -0.75,-3.8571 -0.69,-5.6388 0,-1.70265 -0.195,-5.44455 -0.525,-8.3154 -0.48,-4.02119 -0.495,-5.64224 0,-7.06034 0.69,-2.301 0.21,-6.6138 -0.99,-9.01305 -1.005,-2.00025 -1.155,-4.69875 -0.345,-6.24165 0.3,-0.5715 1.44,-2.21895 2.535,-3.65955 1.095,-1.44 2.47,-3.6366 3.064,-4.8798 1.245,-2.61375 2.753,-3.9441 5.346,-4.7208 2.856,-0.8565 5.28,0.105 8.471,3.3339 2.374,2.4093 2.793,3.14895 3.949,6.981 2.196,7.2723 3.054,14.49645 2.22,18.69 -0.525,2.62245 -0.495,3.41414 0.27,6.30794 0.75,2.8878 0.795,3.8802 0.33,7.79265 -0.48,4.086 -0.45,4.66845 0.39,6.5688 0.735,1.67595 0.93,3.21435 0.945,7.83735 0.01,4.1937 0.225,6.2538 0.795,7.60365 0.66,1.57155 0.69,2.23455 0.21,4.3833 -0.45,1.99635 -0.435,3.03285 0,4.90125 0.495,1.9296 0.495,2.83185 -0.01,4.86105 -1.035,4.15335 -0.705,19.1643 0.465,21.35085 0.405,0.7515 0.48,2.37015 0.255,5.3949 -0.33,4.50059 -1.335,7.28294 -3.851,10.70159 -0.66,0.8895 -1.185,2.1291 -1.185,2.7537 0,0.624 -0.3,1.82505 -0.66,2.66805 -1.612,3.78465 -5.511,5.1294 -9.396,3.24045 -8.367,-4.06995 -10.045,-5.29215 -10.926,-7.95885 -0.315,-0.972 -0.48,-5.3412 -0.42,-11.47049 0,-5.4456 0,-11.23545 -0.27,-12.86625 -0.24,-1.91115 -0.18,-3.68865 0.18,-5.00055 0.645,-2.3988 0.825,-9.45345 0.3,-11.71635 -0.42,-1.8012 -0.315,-1.80195 -6.202,0.045 -2.495,0.783 -4.532,1.0485 -8.096,1.053 -4.548,0.006 -4.923,-0.075 -8.334,-1.77015 -10.962,-5.451 -12.652,-7.3938 -12.184,-14.0043 0.21,-2.87385 0.15,-4.31505 -0.435,-5.58075 -0.855,-2.0445 -0.9,-4.3575 -0.165,-7.30485 0.435,-1.72335 0.42,-2.5401 -0.15,-3.9018 -0.345,-0.9465 -0.69,-3.1152 -0.75,-4.8177 0,-1.70265 -0.255,-4.28205 -0.435,-5.73225 -0.18,-1.473 -0.15,-3.41384 0.15,-4.39769 0.36,-1.3215 0.315,-2.5074 -0.225,-4.7454 -0.465,-1.92375 -0.645,-4.42245 -0.51,-7.03215 0.15,-2.8437 0,-4.54005 -0.495,-5.7015 -0.48,-1.155 -0.585,-2.37405 -0.36,-4.04805 0.45,-3.25215 0.42,-4.96155 -0.24,-10.25295 -0.315,-2.4885 -0.615,-6.23895 -0.675,-8.33445 0,-2.0955 -0.33,-4.5933 -0.6,-5.5506 -0.27,-0.957 -0.375,-3.2613 -0.24,-5.1198 l 0.24,-3.3789 -2.088,-0.045 c -1.155,-0.03 -2.624,-0.2025 -3.279,-0.393 -0.66,-0.1905 -1.832,-0.1695 -2.616,0.045 -0.96,0.264 -2.282,0.15 -4.013,-0.3585 -1.51,-0.4395 -3.244,-0.6285 -4.171,-0.4545 -0.9,0.1695 -2.901,-0.03 -4.644,-0.4695 -2.871,-0.72 -3.155,-0.7155 -4.641,0.075 -1.335,0.708 -2.978,0.8595 -10.157,0.933 -7.635,0.075 -8.818,-0.015 -10.819,-0.8655 -1.862,-0.7905 -2.507,-0.864 -3.762,-0.426 -2.133,0.744 -4.733,0.657 -8.055,-0.267 l -2.858,-0.795 -4.476,1.5282 c -4.659,1.59105 -6.025,1.6212 -8.322,0.183 -0.96,-0.6015 -1.531,-0.6255 -3.571,-0.15 -1.629,0.384 -4.703,0.4815 -9.333,0.297 -9.884,-0.393 -11.94,-0.3945 -23.099,-0.0118 -5.5,0.189 -10.644,0.309 -11.43,0.27 -0.78,-0.045 -4.108,-0.156 -7.381,-0.255 -3.275,-0.105 -9.024,-0.309 -12.777,-0.465 -3.753,-0.1545 -7.182,-0.09 -7.62,0.135 -0.45,0.2325 -5.423,0.2625 -11.274,0.075 -6.089,-0.2025 -12.911,-0.153 -16.284,0.12 -5.468,0.441 -5.916,0.4095 -7.721,-0.531 -1.722,-0.897 -2.074,-0.933 -3.481,-0.3525 -0.855,0.3555 -4.385,0.879 -7.832,1.164 -5.233,0.432 -6.646,0.402 -8.572,-0.1815 -2.805,-0.8505 -5.187,-0.891 -8.796,-0.15 -2.081,0.4305 -3.305,0.4335 -5.112,0.015 -1.961,-0.453 -2.76,-0.4185 -4.571,0.1995 -1.522,0.519 -2.737,0.6315 -3.964,0.3705 -2.606,-0.555 -8.475,-0.7335 -22.488,-0.684 -7.493,0.03 -16.106,-0.2325 -18.497,-0.5565 l -1.11,-0.15 -0.165,8.47515 c -0.15,4.66125 -0.42,10.36965 -0.735,12.6852 -0.51,3.76305 -0.48,4.4454 0.27,6.426 0.705,1.863 0.765,2.6112 0.33,4.698 -0.63,3.0429 -0.465,13.45485 0.255,15.14175 0.78,1.86795 0.405,13.06484 -0.54,15.61154 -0.675,1.8528 -0.69,2.34225 0,4.5243 0.855,3.0516 1.665,12.8106 1.215,14.79915 -0.18,0.8145 -0.585,1.9368 -0.87,2.49345 -0.435,0.8025 -0.345,1.58085 0.405,3.75435 1.11,3.2259 1.2,7.71165 0.21,10.4511 -0.945,2.6433 -0.9,7.53 0.15,9.4296 1.155,2.1834 1.035,5.89785 -0.24,7.9536 -1.35,2.1693 -1.305,3.98625 0.15,6.8673 1.395,2.7576 1.587,6.64695 0.48,9.80145 -0.915,2.59889 -0.9,5.78189 0,9.83429 0.945,4.05 1.035,9.2544 0.255,14.36145 -0.435,2.8998 -0.465,4.3485 -0.15,5.42895 0.72,2.0487 0.645,5.71365 -0.21,10.599 -0.69,4.00575 -0.69,4.25205 0.285,6.9267 0.78,2.1459 0.945,3.34815 0.705,5.3148 -0.45,3.7527 -0.45,5.38725 0,10.50285 0.315,3.8907 0.255,4.9737 -0.45,6.8013 -0.885,2.33355 -0.84,4.2834 0.255,9.86789 0.585,2.976 0.555,3.3747 -0.39,5.715 -1.215,3.0381 -1.678,6.831 -1.746,14.42205 0,4.5357 -0.225,6.0393 -0.915,7.2864 -0.765,1.3905 -0.825,2.44095 -0.6,9.1209 0.21,5.9508 0.15,7.89735 -0.435,9.1917 -0.42,1.0215 -0.78,4.05225 -0.915,8.0241 -0.39,10.8369 -1.17,21.05069 -1.752,23.15039 -0.3,1.1025 -0.42,2.5212 -0.27,3.15225 0.165,0.6315 0,3.69885 -0.375,6.81735 -0.705,5.98125 -0.585,7.88805 0.495,8.7864 0.36,0.3015 0.66,1.0875 0.66,1.7451 0,0.6585 0.24,2.01495 0.54,3.01575 0.465,1.52625 0.42,2.0151 -0.255,3.0318 l -0.795,1.212 h 5.532 c 4.811,0 5.69,-0.12 6.743,-0.9525 z m 637.527,-26.214 c 0.465,-0.7965 2.859,-3.4221 5.306,-5.83395 3.382,-3.33329 4.686,-4.98494 5.431,-6.88544 0.54,-1.3755 0.855,-2.50035 0.705,-2.50035 -0.15,0 -0.84,0.402 -1.54,0.894 -2.076,1.467 -4.056,1.66755 -6.362,0.645 -1.125,-0.4995 -2.338,-1.2615 -2.695,-1.6944 -1.095,-1.32 -1.335,-0.5295 -0.945,3.0654 0.21,1.8915 0.255,3.6186 0.15,3.8382 -0.15,0.219 -0.435,1.845 -0.675,3.61214 -0.24,1.76715 -0.57,3.90945 -0.735,4.7607 -0.39,1.94625 0.285,1.99365 1.395,0.105 z m 2.669,-38.31794 c 0,-0.2625 -0.21,-0.1545 -0.465,0.2385 -0.255,0.393 -0.465,0.9285 -0.465,1.191 0,0.2625 0.21,0.1545 0.465,-0.2385 0.255,-0.393 0.465,-0.9285 0.465,-1.191 z m 6.606,-7.7211 c 3.447,-3.7227 6.268,-7.01775 6.268,-7.32225 0,-0.8325 -2.635,-0.1845 -5.953,1.4625 -1.572,0.78 -3.779,1.5585 -4.902,1.7295 l -2.045,0.3105 0.15,5.3727 c 0.15,2.955 0.165,5.33715 0.18,5.29365 0,-0.045 2.864,-3.1248 6.311,-6.84765 z m 67.681,-7.5651 c 1.597,-1.82085 1.753,-3.28755 0.345,-3.28755 -0.525,0 -1.41,0.9555 -2.295,2.50035 -1.335,2.3226 -1.38,2.50035 -0.495,2.50035 0.51,0 1.618,-0.771 2.446,-1.71315 z m -20.822,-16.8288 c 1.215,-1.089 1.425,-1.52445 0.99,-1.9758 -0.45,-0.4545 -0.84,-0.4065 -1.786,0.2175 -0.66,0.438 -1.215,0.9885 -1.215,1.2225 0,0.234 -0.15,0.765 -0.285,1.1805 -0.45,1.1805 0.6,0.8865 2.305,-0.6435 z m -36.778,-209.38797 c -5.041,-2.18655 -6.699,-7.3158 -4,-12.3864 1.05,-1.971 1.2,-2.71605 0.945,-4.80135 -0.165,-1.377 0,-3.0612 0.225,-3.81 1.215,-3.2004 1.335,-5.4999 0.405,-7.88264 -1.08,-2.7228 -1.155,-5.3766 -0.255,-7.85595 0.36,-0.987 1.05,-3.02985 1.528,-4.5384 0.84,-2.6646 0.84,-2.7855 -0.01,-4.23855 -0.735,-1.242 -0.855,-2.2713 -0.72,-6.0678 0.195,-5.41785 0.15,-8.7798 -0.255,-14.5734 -0.21,-3.0597 -0.15,-5.03115 0.405,-6.88935 0.675,-2.5107 0.66,-2.67945 -0.45,-4.7586 -1.35,-2.5392 -1.425,-4.42005 -0.39,-9.96075 0.585,-3.15885 0.645,-4.4502 0.24,-5.80845 -0.33,-1.1235 -0.45,-4.89495 -0.3,-10.58069 0.18,-6.9864 0.15,-9.1164 -0.45,-10.1832 -0.63,-1.2645 -0.66,-5.33505 -0.15,-14.2077 0.15,-2.19645 0.93,-2.0769 -7.629,-1.1535 -4.884,0.528 -5.529,0.504 -7.248,-0.2715 -1.649,-0.744 -2.157,-0.774 -4.034,-0.249 -1.647,0.4605 -2.644,0.4755 -4.279,0.06 -1.833,-0.462 -2.471,-0.4035 -4.551,0.417 -2.937,1.158 -5.876,1.215 -8.918,0.174 -1.903,-0.651 -2.713,-0.6915 -4.921,-0.24 -1.959,0.4005 -3.561,0.402 -6.192,0.008 -1.952,-0.2925 -4.191,-0.5085 -4.977,-0.48 -11.891,0.432 -13.959,0.4275 -15.147,-0.03 -1.065,-0.411 -1.872,-0.3345 -3.924,0.3615 -2.298,0.7815 -3.063,0.8205 -6.822,0.345 -3.641,-0.459 -4.539,-0.4245 -6.399,0.2445 -1.845,0.663 -2.576,0.6945 -4.938,0.207 -1.835,-0.378 -4.875,-0.4695 -8.976,-0.273 -5.226,0.252 -6.44,0.1755 -7.716,-0.4845 -1.878,-0.972 -3.431,-0.993 -5.198,-0.075 -1.56,0.8145 -8.595,0.9615 -13.314,0.279 -1.812,-0.2625 -4.224,-0.234 -6.429,0.075 -1.941,0.2715 -4.6,0.489 -5.91,0.4845 -1.305,-0.005 -6.882,-0.045 -12.382,-0.105 -5.501,-0.045 -11.037,0.06 -12.303,0.249 -1.44,0.2145 -3.272,0.105 -4.884,-0.276 -2.295,-0.5505 -2.87,-0.522 -5.184,0.2655 -2.3,0.7815 -2.883,0.813 -4.998,0.27 -1.95,-0.4995 -2.84,-0.501 -4.773,-0.004 -2.175,0.558 -2.598,0.519 -4.949,-0.456 -2.044,-0.8475 -3.06,-1.0005 -4.972,-0.7455 -1.32,0.1755 -3.027,0.105 -3.792,-0.165 -1.08,-0.3765 -2.001,-0.2775 -4.152,0.4485 -2.384,0.8055 -3.078,0.858 -5.067,0.381 -1.908,-0.4575 -2.687,-0.423 -4.527,0.204 -1.926,0.6555 -3.147,0.6885 -9.132,0.2445 -5.138,-0.381 -7.41,-0.372 -8.868,0.03 -1.485,0.414 -3.18,0.414 -6.947,-0.003 -5.944,-0.6585 -5.974,-0.6585 -14.749,-0.015 -4.944,0.3585 -7.353,0.354 -8.481,-0.015 -1.835,-0.6045 -12.635,-0.75 -15.909,-0.2145 -1.62,0.2655 -2.867,0.1545 -4.49,-0.399 -2.943,-1.002 -4.392,-0.966 -7.315,0.1875 -3.066,1.2075 -5.048,1.203 -8.159,-0.03 l -2.478,-0.9765 -2.421,1.0575 c -2.209,0.9645 -3.274,1.0665 -12.184,1.161 -8.733,0.09 -13.862,-0.1605 -21.101,-1.038 -1.26,-0.153 -3.25,-0.03 -4.426,0.261 -1.541,0.3885 -2.667,0.3975 -4.023,0.03 -1.47,-0.396 -2.343,-0.351 -3.966,0.1995 -1.739,0.5895 -3.054,0.624 -7.977,0.204 -3.242,-0.276 -14.145,-0.546 -24.23,-0.6 -13.732,-0.075 -18.615,-0.249 -19.446,-0.7005 -0.885,-0.48 -1.603,-0.4845 -3.532,-0.015 -1.587,0.381 -4.026,0.4755 -7.083,0.2745 -3.911,-0.2565 -5.033,-0.162 -6.947,0.5805 -3.805,1.4775 -7.81,1.65165 -11.239,0.4905 -2.489,-0.843 -3.545,-0.945 -6.759,-0.657 -4.296,0.3855 -6.351,0.3975 -17.132,0.105 -5.697,-0.156 -7.99,-0.045 -9.142,0.435 -1.628,0.6795 -7.172,0.519 -10.908,-0.3165 -1.29,-0.288 -5.033,-0.1815 -11.192,0.321 -15.994,1.305 -17.997,1.3215 -20.901,0.177 -2.121,-0.8355 -3.097,-0.9495 -5.842,-0.6795 -2.243,0.2205 -3.899,0.12 -5.183,-0.2985 -1.636,-0.54 -2.242,-0.5115 -4.558,0.219 -1.895,0.597 -3.384,0.753 -5.115,0.537 -1.751,-0.219 -2.966,-0.09 -4.29,0.4665 -2.076,0.8685 -7.416,0.663 -13.245,-0.5085 -2.805,-0.564 -3.483,-0.5505 -5.396,0.105 -1.32,0.45 -2.95,0.642 -4.113,0.4875 -1.065,-0.135 -3.049,-0.015 -4.423,0.2655 -2.202,0.462 -2.883,0.3945 -5.73,-0.567 -3.354,-1.1325 -4.379,-1.1415 -10.467,-0.09 -2.603,0.45 -9.155,0.675 -15.24,0.5205 -1.305,-0.03 -4.31,-0.045 -6.668,-0.015 -2.356,0.03 -5.691,-0.201 -7.408,-0.4995 -2.676,-0.4665 -3.336,-0.4335 -4.62,0.2295 -1.824,0.9435 -4.949,1.002 -6.687,0.12 -1.874,-0.945 -11.486,-0.9255 -12.561,0.03 -1.29,1.1445 -4.422,1.3275 -6.852,0.399 -1.185,-0.4545 -2.552,-0.7245 -3.026,-0.6015 -0.48,0.12 -2.074,0.03 -3.555,-0.1965 -2.089,-0.327 -2.998,-0.2655 -4.051,0.2805 -1.626,0.84 -13.772,0.7065 -19.52,-0.2145 -2.547,-0.408 -4.05,-0.423 -5.476,-0.06 -1.08,0.279 -4.646,0.4845 -7.92,0.456 -3.275,-0.03 -7.964,-0.015 -10.421,0.014 l -4.467,0.06 0.255,1.62645 c 0.285,1.71825 -0.48,5.7516 -1.764,9.3273 -1.185,3.3123 -4.231,9.13305 -4.915,9.39585 -1.38,0.5295 -2.894,-1.9167 -5.666,-9.159 l -1.699,-4.4433 0.45,-6.11205 c 0.36,-4.93425 0.33,-6.47925 -0.21,-8.0172 -0.405,-1.1355 -0.555,-2.5716 -0.36,-3.55575 0.54,-2.9064 1.984,-4.299 6.855,-6.5946 4.377,-2.06265 4.768,-2.157 9.729,-2.33745 3.696,-0.135 6.033,0.03 8.208,0.5745 2.298,0.576 3.475,0.6465 4.833,0.285 3.949,-1.05 7.972,-1.1565 9.862,-0.2595 1.688,0.801 1.916,0.804 4.004,0.06 2.796,-1.002 3.754,-0.993 5.805,0.045 1.35,0.6885 2.637,0.813 7.125,0.696 3.012,-0.075 6.226,-0.159 7.144,-0.1785 0.915,-0.015 3.125,0.12 4.908,0.324 2.52,0.279 3.855,0.1725 6.003,-0.477 2.267,-0.687 3.185,-0.7455 5.132,-0.3285 1.873,0.402 2.86,0.36 4.711,-0.2025 2.195,-0.666 2.537,-0.645 5.385,0.3105 3.288,1.104 5.06,1.0395 9.294,-0.345 2.865,-0.9375 9.375,-0.6495 12.813,0.564 2.265,0.801 2.315,0.7965 5.06,-0.4365 3.165,-1.4205 4.513,-1.52685 7.048,-0.558 0.99,0.3765 3.042,0.93 4.565,1.23 2.319,0.456 3.073,0.423 4.653,-0.2085 2.401,-0.9615 4.204,-0.954 6.655,0.03 1.878,0.7515 2.022,0.741 3.797,-0.255 1.02,-0.57 2.443,-1.0425 3.177,-1.0485 2.773,-0.03 19.003,0.9795 20.076,1.2435 1.69,0.4155 5.347,-0.267 5.649,-1.056 0.15,-0.381 -0.18,-1.58625 -0.72,-2.6787 -1.485,-3.00075 -1.631,-4.14555 -0.84,-6.74865 0.93,-3.05025 0.93,-5.8494 0,-8.07825 -0.495,-1.188 -0.645,-2.4279 -0.435,-3.7947 0.345,-2.3364 0.705,-6.99525 0.705,-9.08204 0,-13.39905 -0.01,-13.84635 0.93,-16.66875 0.525,-1.57155 1.185,-3.78765 1.47,-4.92465 0.54,-2.2218 3.518,-5.8593 5.711,-6.99315 1.825,-0.9435 4.321,0.348 4.975,2.57535 0.285,0.963 1.305,2.28885 2.531,3.29685 1.125,0.927 2.335,2.238 2.676,2.91315 0.975,1.92285 1.425,14.91525 0.585,16.57995 -0.525,1.047 -0.585,2.58525 -0.3,7.50749 0.21,3.4053 0.6,6.9414 0.87,7.8582 0.27,0.9165 0.51,3.48855 0.525,5.715 0,2.22645 0.15,5.11965 0.15,6.4293 0,1.3095 0,3.37425 -0.27,4.58775 l -0.375,2.2065 5.14,-0.09 c 2.828,-0.06 6.06,-0.3855 7.184,-0.7395 1.782,-0.561 2.365,-0.5415 4.566,0.1515 3.636,1.146 3.721,1.086 2.422,-1.7049 -1.455,-3.11835 -1.455,-4.15425 0,-9.3126 0.63,-2.27775 1.305,-5.0907 1.485,-6.25095 0.285,-1.7733 0.855,-2.619 3.564,-5.3082 2.159,-2.1426 3.753,-3.3132 4.826,-3.5451 0.885,-0.1905 2.563,-0.855 3.739,-1.479 2.477,-1.3095 5.421,-1.4685 7.917,-0.426 1.47,0.612 1.865,0.6165 2.991,0.03 0.72,-0.3705 2.681,-0.807 4.367,-0.972 1.686,-0.16499 4.5,-0.62849 6.253,-1.03049 2.414,-0.5535 3.747,-0.618 5.478,-0.2655 1.26,0.2565 5.253,0.3885 8.879,0.294 5.044,-0.135 6.985,-0.007 8.272,0.531 2.456,1.02599 4.211,0.86849 6.72,-0.6015 2.043,-1.197 2.583,-1.2945 6.515,-1.182 2.358,0.075 4.999,0.3555 5.871,0.6405 0.87,0.2835 2.478,0.384 3.571,0.2235 1.095,-0.1605 2.699,-0.09 3.569,0.165 0.975,0.285 2.019,0.291 2.74,0.015 0.645,-0.243 3.089,-0.6885 5.445,-0.9915 3.693,-0.474 4.91,-0.432 8.811,0.303 3.635,0.684 4.772,0.741 5.771,0.285 1.743,-0.795 7.972,-1.0515 14.704,-0.606 3.621,0.24 6.152,0.2025 6.906,-0.105 1.44,-0.5805 6.069,-0.7695 19.527,-0.801 5.631,-0.0135 11.31,-0.045 12.62,-0.06 9.385,-0.12 20.815,0.261 21.567,0.726 0.3,0.186 1.744,-0.0105 3.208,-0.4365 2.148,-0.6255 3.092,-0.6735 4.898,-0.255 1.23,0.285 4.486,0.819 7.237,1.185 4.122,0.549 5.652,0.561 8.708,0.06 2.161,-0.3495 4.524,-0.4515 5.662,-0.243 1.08,0.1965 2.619,0.1665 3.432,-0.06 2.226,-0.639 5.541,-0.5115 8.336,0.318 2.026,0.6015 2.976,0.6435 5.028,0.216 1.86,-0.3855 3.096,-0.3825 4.668,0.0131 1.746,0.4395 2.547,0.399 4.362,-0.216 2.925,-0.993 2.925,-0.993 9.714,0.858 6.745,1.83974 7.374,2.29229 10.102,7.26284 3.036,5.5323 2.466,8.4336 -2.253,11.4522 l -2.679,1.7136 -3.088,-0.5685 c -1.7,-0.3135 -3.531,-0.879 -4.073,-1.2585 -0.54,-0.378 -1.959,-0.6885 -3.153,-0.6885 -1.2,0 -4.771,-0.3225 -7.948,-0.7155 -3.179,-0.393 -6.066,-0.609 -6.416,-0.477 -0.975,0.366 -10.312,1.305 -13.257,1.3335 -1.44,0.0144 -3.691,-0.135 -5.001,-0.339 -1.807,-0.2775 -2.725,-0.183 -3.81,0.39 -1.857,0.9825 -2.605,0.96 -8.881,-0.2685 -5.187,-1.014 -5.298,-1.017 -7.716,-0.15 -3.126,1.1265 -7.682,1.137 -11.9,0.03 -2.518,-0.663 -3.864,-0.765 -5.952,-0.45 -1.485,0.2235 -7.413,0.4275 -13.176,0.4545 -5.763,0.03 -11.673,0.21 -13.132,0.4095 -2.228,0.303 -2.975,0.1995 -4.625,-0.6435 -2.331,-1.188 -3.891,-1.254 -7.051,-0.2955 -2.745,0.8325 -11.222,0.969 -12.653,0.204 -0.705,-0.381 -1.35,-0.3555 -2.454,0.105 -0.825,0.339 -2.997,0.6435 -4.839,0.6765 -1.84,0.03 -4.452,0.228 -5.8,0.4365 -1.824,0.2805 -3.038,0.1785 -4.728,-0.3975 -2.88,-0.981 -7.521,-0.9885 -12.107,-0.015 -6.538,1.3815 -15.862,1.59135 -18.15,0.408 -1.777,-0.9195 -2.422,-0.8715 -4.767,0.351 -1.888,0.984 -2.199,1.008 -6.019,0.4545 -3.564,-0.5145 -4.166,-0.492 -5.217,0.1965 -1.827,1.197 -4.785,1.029 -7.518,-0.426 -3.912,-2.0823 -5.634,-1.63125 -6.258,1.6386 -0.165,0.8925 -0.57,2.1573 -0.9,2.8122 -0.33,0.654 -0.735,2.44845 -0.93,3.98595 l -0.345,2.7954 1.827,-0.294 c 5.359,-0.8625 8.64,-0.8805 11.115,-0.06 1.89,0.627 3.103,0.741 4.944,0.459 1.335,-0.2055 3.574,-0.3345 4.963,-0.2865 1.395,0.045 3.603,-0.2325 4.919,-0.624 2.151,-0.639 2.59,-0.633 4.378,0.06 2.81,1.083 11.699,0.8955 16.644,-0.351 2.037,-0.513 4.179,-0.8295 4.763,-0.7005 0.585,0.135 5.131,0.3555 10.108,0.5055 4.977,0.15 9.264,0.2835 9.525,0.3 0.255,0.015 2.222,-0.135 4.353,-0.324 3.617,-0.3285 4.155,-0.252 8.01,1.143 l 4.134,1.4955 3.381,-1.485 c 3.936,-1.7271 6.467,-1.70835 8.958,0.06 1.38,0.9855 1.688,1.0335 3.021,0.483 1.365,-0.567 4.803,-1.011 13.446,-1.7394 2.835,-0.2385 3.768,-0.12 5.681,0.726 2.209,0.9765 2.398,0.9855 5.418,0.258 2.808,-0.6765 3.546,-0.681 7.153,-0.045 3.992,0.699 4.04,0.696 6.191,-0.453 2.034,-1.086 2.479,-1.1385 7.17,-0.8565 2.833,0.171 5.683,0.615 6.579,1.026 1.32,0.6045 2.919,0.669 9.655,0.3885 5.244,-0.2175 8.652,-0.576 9.717,-1.0215 2.037,-0.8505 4.529,-0.864 7.623,-0.045 2.711,0.7215 11.624,0.6045 16.172,-0.213 1.558,-0.2805 4.237,-0.369 5.953,-0.198 6.341,0.633 15.207,0.6045 21.636,-0.075 3.638,-0.381 6.96,-0.5595 7.383,-0.3975 1.631,0.627 15.036,0.7365 17.363,0.15 2.058,-0.525 2.724,-0.471 6.19,0.5115 5.223,1.479 8.984,1.7715 10.932,0.8505 2.298,-1.086 8.804,-1.85325 10.809,-1.275 2.558,0.738 10.278,0.57 14.387,-0.3135 3.966,-0.852 7.312,-0.558 13.165,1.158 2.042,0.5985 2.849,0.636 4.077,0.192 0.84,-0.3045 3.339,-0.5595 5.55,-0.567 2.211,-0.007 4.877,-0.015 5.925,-0.015 5.298,-0.03 12.887,0.456 15.564,0.984 2.583,0.51 3.375,0.4845 5.597,-0.18 1.425,-0.4245 4.021,-0.7725 5.775,-0.7725 1.872,0 3.952,-0.3195 5.034,-0.774 1.59,-0.6675 2.251,-0.6945 4.791,-0.192 1.621,0.321 3.184,0.4365 3.474,0.258 0.285,-0.1785 2.502,0.03 4.918,0.4665 4.295,0.7725 4.452,0.768 6.905,-0.198 3.195,-1.26 5.8,-1.254 8.292,0.015 1.921,0.981 2.005,0.984 3.43,0.135 1.275,-0.7515 2.357,-0.84 8.37,-0.69 12.137,0.303 19.425,0.7245 20.958,1.2105 0.42,0.135 1.832,-0.075 3.125,-0.468 3.138,-0.9525 4.411,-0.906 6.655,0.24 1.83,0.9345 1.986,0.939 5.22,0.168 1.835,-0.4365 4.941,-0.8505 6.906,-0.918 1.965,-0.075 4.52,-0.336 5.676,-0.5955 1.59,-0.357 2.675,-0.303 4.443,0.222 1.29,0.3825 2.951,0.5595 3.699,0.396 2.961,-0.651 5.993,1.08 12.045,6.87825 4.238,4.05885 5.646,6.87465 6.093,12.17685 0.27,3.16095 0.195,4.9644 -0.255,6.47505 -0.51,1.7379 -0.51,2.40735 0,3.9396 0.87,2.4819 0.825,3.40455 -0.375,6.93705 l -1.02,3.01485 1.08,3.30855 c 0.99,3.0048 1.035,3.53835 0.48,5.81174 -0.465,1.908 -0.465,2.74725 0,3.5292 0.3,0.564 0.66,3.33105 0.81,6.14865 0.855,16.9248 1.035,25.35135 0.585,26.6634 -0.195,0.5835 -0.18,4.01295 0,7.62 0.42,6.5142 0.15,16.03035 -1.005,28.2276 -0.63,7.07594 -0.63,7.80839 -0.165,12.18569 0.24,2.2299 0.18,3.9429 -0.195,5.04825 -0.3,0.9195 -0.75,2.9202 -1.005,4.4445 -0.525,3.2304 -1.89,4.94175 -5.341,6.70275 -2.66,1.3575 -7.245,1.5366 -9.894,0.387 z m -407.673,-77.18369 c -0.39,-0.12 -1.602,-0.663 -2.688,-1.218 l -1.971,-1.011 -2.521,1.0845 c -1.914,0.8235 -2.987,1.0095 -4.457,0.771 -1.065,-0.1725 -6.442,-0.3765 -11.95,-0.453 -6.866,-0.09 -10.365,-0.327 -11.129,-0.7365 -0.84,-0.4515 -1.594,-0.471 -3.082,-0.09 -1.08,0.2805 -3.966,0.7365 -6.408,1.0125 -3.818,0.432 -4.802,0.387 -7.034,-0.3165 -2.466,-0.777 -2.757,-0.7755 -5.896,0.045 -2.775,0.72 -3.674,0.768 -5.612,0.303 -1.581,-0.3795 -2.698,-0.405 -3.55,-0.075 -1.886,0.717 -15.921,0.285 -18.248,-0.561 -1.155,-0.42 -2.857,-0.6105 -4.285,-0.4785 -1.305,0.12 -3.246,0.015 -4.314,-0.2295 -1.395,-0.3195 -3.083,-0.24 -5.954,0.2805 -3.655,0.6645 -6.262,0.8145 -10.201,0.5895 -0.78,-0.045 -2.718,0.06 -4.293,0.2325 -2.441,0.2685 -3.317,0.135 -5.916,-0.9255 -3.533,-1.4355 -5.378,-1.54395 -7.949,-0.4695 -1.26,0.525 -3.592,0.81 -7.321,0.894 -3.012,0.06 -6.456,0.2805 -7.655,0.4725 -1.749,0.282 -2.563,0.153 -4.147,-0.6555 -2.495,-1.2735 -4.85,-1.2765 -7.328,-0.0126 -1.569,0.7995 -2.466,0.9375 -4.624,0.7095 -4.112,-0.435 -4.791,-0.438 -8.69,-0.045 -3.067,0.3135 -3.88,0.237 -5.239,-0.489 -2.405,-1.287 -14.417,-1.383 -17.801,-0.135 -3.078,1.128 -8.868,1.1685 -11.727,0.075 -1.14,-0.4365 -3.583,-0.837 -5.418,-0.8895 -4.423,-0.135 -8.802,-0.8985 -10.705,-1.88385 -1.2,-0.6165 -2.18,-0.726 -4.301,-0.48 -1.995,0.231 -3.115,0.135 -4.065,-0.3675 -1.02,-0.531 -1.741,-0.5775 -3.204,-0.2055 -1.485,0.3765 -2.373,0.3105 -4.096,-0.297 -1.215,-0.4275 -3.81,-1.0035 -5.775,-1.278 -1.965,-0.2745 -4.857,-0.6945 -6.429,-0.933 -1.572,-0.237 -3.29,-0.327 -3.816,-0.1995 -1.065,0.2565 -4.556,-1.0395 -5.106,-1.89225 -0.51,-0.7875 -0.465,-0.9735 0.54,-2.04765 0.615,-0.6585 1.798,-1.074 3.69,-1.29 1.533,-0.1755 3.823,-0.66 5.089,-1.0755 1.26,-0.4155 2.897,-0.6375 3.623,-0.492 0.735,0.15 2.478,-0.045 3.889,-0.4185 1.41,-0.3765 3.279,-0.6855 4.148,-0.6885 0.87,-0.003 2.002,-0.2325 2.52,-0.51 0.525,-0.2775 3.171,-0.5775 5.893,-0.6675 2.723,-0.09 5.177,-0.3045 5.453,-0.4755 0.285,-0.171 2.701,-0.6045 5.388,-0.9615 2.686,-0.3585 5.659,-0.8535 6.607,-1.0995 1.245,-0.3225 2.244,-0.267 3.573,0.201 2.006,0.705 3.849,0.4485 9.441,-1.314 3.632,-1.1445 4.968,-1.125 9.24,0.135 3.446,1.0215 3.537,1.0245 6.042,0.1725 2.13,-0.7245 4.077,-0.861 11.979,-0.8445 8.694,0.015 20.915,0.717 21.422,1.224 0.15,0.12 1.365,-0.09 2.757,-0.45 2.322,-0.606 2.806,-0.582 5.568,0.2835 3.666,1.149 5.811,1.2015 8.562,0.2085 2.256,-0.8145 3.118,-0.8445 20.092,-0.7155 6.239,0.045 11.868,0.2865 12.512,0.531 0.78,0.2985 1.987,0.237 3.66,-0.1845 2.274,-0.5745 9.343,-0.6315 31.066,-0.2505 1.05,0.015 2.915,-0.045 4.149,-0.135 1.701,-0.12 2.762,0.12 4.395,1.0125 l 2.153,1.176 2.64,-1.2945 c 2.817,-1.3815 5.992,-1.6896 7.998,-0.7755 0.795,0.363 1.669,0.372 2.902,0.03 1.335,-0.3705 2.345,-0.3135 4.197,0.2355 2.006,0.5955 2.798,0.621 4.493,0.15 1.528,-0.4275 2.583,-0.444 4.105,-0.06 1.61,0.405 2.48,0.3675 4.059,-0.177 2.834,-0.9765 20.337,-0.6285 23.39,0.465 1.918,0.687 2.302,0.6825 4.609,-0.045 2.202,-0.6945 2.922,-0.717 5.766,-0.1815 1.787,0.3375 3.891,0.576 4.677,0.531 1.569,-0.09 17.553,-0.4965 22.86,-0.582 1.835,-0.03 7.406,0.06 12.383,0.2025 5.445,0.1545 9.67,0.06 10.608,-0.219 1.14,-0.348 2.853,-0.258 6.423,0.342 3.795,0.6375 5.334,0.7065 7.012,0.312 3.434,-0.8055 8.027,-0.615 11.847,0.489 2.99,0.864 3.776,0.9315 5.357,0.4515 6.244,-1.88955 11.578,-2.60685 14.035,-1.8873 1.02,0.3015 2.082,0.48 2.345,0.399 1.44,-0.4485 13.849,-0.831 15.121,-0.4665 0.96,0.2745 2.124,0.2355 3.284,-0.105 1.365,-0.408 2.467,-0.396 4.581,0.06 2.365,0.5025 3.168,0.4785 5.317,-0.1605 1.395,-0.414 2.714,-0.6405 2.934,-0.5025 0.225,0.135 2.54,0.4335 5.15,0.6615 3.733,0.324 5.172,0.267 6.733,-0.2715 3.011,-1.038 7.038,-1.0335 9.159,0.01 1.425,0.702 2.31,0.8115 4.286,0.531 4.216,-0.5985 15.19,-0.705 18.274,-0.1785 2.187,0.375 3.194,0.357 3.992,-0.075 1.35,-0.7245 8.544,-1.0215 10.579,-0.438 1.005,0.2895 2.082,0.264 3.098,-0.075 1.23,-0.405 2.064,-0.345 3.973,0.2895 1.964,0.6525 2.79,0.705 4.403,0.282 2.211,-0.5805 9.508,-0.429 11.119,0.2325 0.6,0.2445 3.332,0.258 6.429,0.03 4.986,-0.3645 7.053,-0.396 13.488,-0.2085 1.305,0.045 4.203,0.03 6.431,-0.03 2.226,-0.045 5.869,-0.045 8.095,0.001 2.226,0.045 8.12,0.045 13.097,-0.015 4.977,-0.06 14.49,-0.105 21.141,-0.105 6.651,0.005 12.267,-0.105 12.48,-0.2295 0.795,-0.492 3.765,1.155 3.765,2.0886 0,1.3125 -0.855,1.82835 -3.572,2.14575 -1.305,0.153 -3.988,0.504 -5.953,0.78 -1.965,0.276 -4.322,0.591 -5.238,0.699 -0.915,0.105 -3.383,0.4155 -5.478,0.681 -9.246,1.173 -17.783,2.14155 -25.479,2.8893 -3.012,0.2925 -6.492,0.8895 -7.733,1.326 -1.942,0.684 -2.581,0.7095 -4.606,0.1905 -2.006,-0.513 -2.516,-0.4965 -3.461,0.12 -0.78,0.51 -2.638,0.7545 -6.346,0.8355 -3.968,0.09 -5.64,0.3255 -6.899,0.981 -0.915,0.477 -2.371,0.8655 -3.241,0.8655 -0.87,0 -2.54,0.2415 -3.71,0.5355 -1.593,0.4005 -2.841,0.396 -4.957,-0.015 -2.516,-0.495 -3.08,-0.453 -5.108,0.384 -3.469,1.4325 -9.606,2.1225 -15.613,1.7565 -8.541,-0.5205 -11.844,-0.3165 -16.109,0.99 -2.844,0.8715 -5.355,1.251 -9.307,1.4055 -2.976,0.12 -5.778,0.408 -6.225,0.6465 -1.29,0.69 -13.361,0.168 -15.353,-0.6645 -1.275,-0.534 -2.116,-0.5985 -3.31,-0.255 -0.885,0.252 -2.487,0.459 -3.57,0.459 -1.08,0 -2.799,0.3645 -3.813,0.81 -1.511,0.6645 -3.314,0.8055 -9.962,0.783 -4.464,-0.015 -9.178,-0.261 -10.477,-0.5475 -6.938,-1.5285 -7.343,-1.5597 -8.937,-0.6885 -1.2,0.6555 -2.781,0.843 -7.473,0.885 -3.275,0.03 -6.75,0.2175 -7.725,0.417 -1.02,0.21 -2.655,0.135 -3.87,-0.165 -1.685,-0.4245 -2.592,-0.381 -4.61,0.2175 -1.623,0.4815 -3.118,0.6255 -4.227,0.4035 -1.455,-0.2895 -19.704,-0.747 -27.432,-0.6885 -2.299,0.015 -4.033,6e-4 -11.667,-0.12 -1.965,-0.03 -5.028,0.243 -6.807,0.606 -2.892,0.591 -3.574,0.5745 -6.43,-0.1575 -1.757,-0.45 -4.197,-0.8175 -5.426,-0.8145 -1.23,0.002 -2.742,-0.1905 -3.367,-0.4275 -0.81,-0.306 -1.884,-0.174 -3.722,0.4605 -2.839,0.981 -6.039,1.164 -8.413,0.483 -0.855,-0.2475 -2.219,-0.267 -3.093,-0.045 -1.968,0.498 -7.518,0.924 -8.462,0.6495 z m 359.055,-12.98475 c -1.606,-1.60605 -1.72,-2.3871 -0.555,-3.8067 1.08,-1.3245 5.336,-1.92885 6.204,-0.882 2.022,2.43615 0.465,6.081 -2.584,6.081 -1.215,0 -2.052,-0.3825 -3.062,-1.392 z m -132.699,-82.07069 c -0.945,-1.2405 -1.725,-3.873 -1.843,-6.23804 -0.195,-3.8907 -1.455,-11.9589 -2.045,-13.0572 -0.3,-0.5505 -0.54,-2.1015 -0.54,-3.44565 0,-1.344 -0.255,-2.9088 -0.555,-3.47685 -0.3,-0.5685 -0.705,-3.6081 -0.9,-6.7554 -0.195,-3.14715 -0.51,-6.31155 -0.69,-7.03185 -0.33,-1.281 -0.42,-1.3095 -3.874,-1.3095 -2.01,0 -4.248,-0.2985 -5.187,-0.69 -1.395,-0.5865 -1.884,-0.5925 -3.2,-0.045 -0.855,0.354 -2.983,0.795 -4.74,0.981 -2.772,0.294 -3.487,0.1965 -5.43,-0.744 -2.212,-1.071 -2.332,-1.077 -11.571,-0.5805 -5.133,0.276 -11.476,0.351 -14.097,0.168 -3.474,-0.243 -5.385,-0.1575 -7.066,0.321 -2.159,0.6135 -4.065,0.6285 -19.365,0.1605 -0.39,-0.012 -3.714,0.06 -7.382,0.15 -5.536,0.135 -7.03,0.339 -8.811,1.1685 -2.589,1.2075 -4.06,1.266 -5.953,0.2385 -0.78,-0.4275 -2.456,-0.9495 -3.713,-1.1625 -1.959,-0.3315 -2.596,-0.2205 -4.476,0.7785 -2.55,1.356 -3.73,1.4385 -6.237,0.435 -1.863,-0.7455 -1.95,-0.741 -12.063,0.591 -0.96,0.12 -2.334,-0.06 -3.096,-0.426 -1.47,-0.6975 -8.175,-0.753 -15.061,-0.12 -2.406,0.2205 -4.394,0.135 -5.715,-0.2295 -1.775,-0.4965 -2.298,-0.4455 -4.218,0.405 -2.918,1.293 -17.72,2.3898 -19.923,1.4775 -1.095,-0.4545 -1.782,-0.456 -3.141,-0.008 -1.02,0.3375 -2.357,0.4275 -3.243,0.2205 -0.825,-0.195 -4.719,-0.4215 -8.649,-0.504 -3.929,-0.09 -8.924,-0.3 -11.102,-0.483 -3.57,-0.2985 -4.174,-0.222 -6.174,0.777 -2.814,1.404 -5.904,1.47 -15.876,0.3345 -3.115,-0.3555 -4.546,-0.3195 -5.953,0.15 -1.02,0.336 -4.451,0.66 -7.628,0.72 -3.175,0.06 -6.832,0.2535 -8.124,0.432 -1.719,0.2355 -2.898,0.105 -4.384,-0.4905 -1.749,-0.699 -2.391,-0.7335 -4.584,-0.243 -1.395,0.3135 -3.261,0.438 -4.128,0.2775 -0.975,-0.1815 -2.25,-0.012 -3.35,0.4485 -2.079,0.8715 -4.398,0.9495 -6.495,0.219 -1.17,-0.408 -2.292,-0.348 -5.098,0.276 -3.104,0.69 -4.055,0.7185 -6.935,0.204 -2.667,-0.477 -3.804,-0.477 -5.652,-0.004 -1.38,0.3525 -3.195,0.4605 -4.486,0.267 -1.26,-0.1905 -3.471,-0.075 -5.28,0.2925 -2.483,0.4935 -3.567,0.501 -5.384,0.03 -1.968,-0.504 -2.527,-0.471 -4.161,0.2505 -1.587,0.702 -3.48,0.843 -11.889,0.8895 -5.791,0.03 -10.644,0.273 -11.527,0.573 -1.245,0.423 -2.261,0.3165 -5.516,-0.579 -5.554,-1.5285 -6.729,-2.2347 -7.968,-4.7955 -1.395,-2.8935 -1.125,-5.93505 0.795,-9.0924 2.019,-3.29265 3.936,-4.4625 7.313,-4.4625 1.5,0 3.654,-0.327 4.786,-0.726 1.125,-0.399 3.249,-0.702 4.704,-0.6705 1.455,0.03 6.716,-0.294 11.693,-0.723 8.485,-0.7305 10.92,-0.7275 21.84,0.03 2.395,0.1665 5.329,-0.0111 8.154,-0.492 5.112,-0.8715 7.77,-0.9465 9.546,-0.2715 0.93,0.3555 1.828,0.2895 3.43,-0.255 1.931,-0.6555 6.396,-0.903 12.036,-0.669 0.915,0.045 3.584,-0.183 5.925,-0.492 3.086,-0.4065 4.814,-0.42 6.281,-0.045 1.425,0.36 2.413,0.3615 3.355,0.003 2.16,-0.8205 13.685,-1.083 18.968,-0.4305 6.223,0.768 7.231,0.7485 9.639,-0.18 1.86,-0.717 2.197,-0.7185 4.276,-0.0128 1.95,0.663 2.688,0.684 5.441,0.165 1.863,-0.351 3.943,-0.453 5.011,-0.246 2.594,0.5055 8.765,0.5955 10.086,0.15 2.6,-0.879 8.138,-1.7379 10.79,-1.67325 1.572,0.045 4.812,0.007 7.201,-0.075 3.317,-0.105 4.703,0.045 5.864,0.645 1.23,0.6375 1.821,0.687 3.112,0.261 0.87,-0.2895 2.523,-0.4815 3.662,-0.429 1.14,0.06 3.087,-0.195 4.33,-0.552 2.022,-0.5805 2.537,-0.5565 4.841,0.2265 2.688,0.9135 3.306,0.8715 7.105,-0.477 2.046,-0.726 2.667,-0.747 5.628,-0.189 2.607,0.492 4.19,0.513 7.314,0.09 2.609,-0.3495 4.532,-0.378 5.561,-0.075 1.005,0.2895 2.526,0.279 4.24,-0.03 1.47,-0.2655 4.04,-0.459 5.718,-0.4275 1.679,0.03 3.588,-0.075 4.242,-0.243 0.66,-0.165 2.798,-0.06 4.763,0.246 4.488,0.6855 5.313,0.6825 11.374,-0.03 4.166,-0.4875 6.294,-0.453 13.475,0.213 8.07,0.7485 8.719,0.7455 12.076,-0.045 3.089,-0.7275 4.095,-0.7635 7.76,-0.276 3.583,0.477 4.582,0.45 6.724,-0.186 2.028,-0.6015 2.943,-0.645 4.724,-0.219 1.629,0.39 3.081,0.384 5.541,-0.015 5.815,-0.954 7.41,-1.032 9.445,-0.4635 2.567,0.717 8.723,0.9345 10.557,0.3735 1.17,-0.36 11.33,-0.9045 17.145,-0.921 4.46,-0.0126 12.543,0.9585 13.893,1.66815 2.303,1.2105 3.15,2.7891 5.87,10.9272 2.382,7.12575 2.493,7.68345 2.254,11.19195 -0.15,2.22705 -0.765,5.11005 -1.531,7.26435 -0.705,1.96455 -1.275,3.94695 -1.26,4.40535 0.01,0.459 0,1.70565 0.15,2.7717 0,1.287 -0.225,2.3676 -0.855,3.21465 -0.915,1.236 -1.11,1.82385 -2.054,6.1647 -0.24,1.1175 -0.705,2.5101 -1.035,3.0957 -0.33,0.585 -0.84,1.92195 -1.155,2.9697 -0.69,2.31885 -2.652,7.39694 -3.181,8.21534 -0.21,0.327 -0.885,0.5955 -1.485,0.5955 -0.6,0 -1.305,-0.2685 -1.56,-0.5955 z"
       id="vctrly-chalky-icon-briefcase" /></g></svg>
