<?xml version="1.0" encoding="UTF-8" standalone="no"?>
<svg
   width="3593.1423"
   height="2343.2834"
   viewBox="0 0 3593.1424 2343.2835"
   version="1.1"
   xml:space="preserve"
   style="clip-rule:evenodd;fill-rule:evenodd;stroke-linejoin:round;stroke-miterlimit:2"
   id="svg5353"
   xmlns="http://www.w3.org/2000/svg"
   xmlns:svg="http://www.w3.org/2000/svg"><defs
   id="defs5353" />&#10;    <g
   id="vectorly-UNI-map-pin"
   style="stroke:none;stroke-width:0.2"
   transform="matrix(4.9999999,0,0,4.9999999,-116.83418,-52841.059)"><path
     d="m 425.30411,10841.912 c -7.18798,-22.4 -19.95195,-38.9 -33.59591,-54.5 -14.53997,-16.7 -30.05793,-32.4 -41.6399,-52.6 -8.85098,-15.5 -15.36696,-33.5 -17.54996,-56.3 -2.04199,-22.4 5.69599,-53.7 26.02994,-77.2 16.43096,-19 40.9849,-32.9 74.80381,-33.1 30.77793,0.2 56.00387,17.1 71.97883,40.7 16.32996,24.1 22.88394,54.9 16.42796,80.4 -4.90899,19.2 -12.86597,35.5 -22.26195,50.2 -23.77194,37.3 -56.79786,63.8 -67.44183,102.2 -0.393,1.6 -1.752,2.6 -3.32499,2.7 -1.573,0 -2.974,-1 -3.426,-2.5 z m 3.198,-12.8 c 12.17097,-34 40.5539,-60.5 61.31884,-95.5 8.28798,-14 15.30397,-29.4 19.33196,-47.3 5.02698,-22.1 -1.593,-48.4 -16.06696,-68.9 -13.56697,-19.3 -34.28092,-33.4 -59.70886,-33.2 -28.49892,-0.1 -49.23687,11.4 -63.32384,27.2 -17.83195,20 -25.30494,46.7 -23.96794,66 1.347,20.8 6.79098,37.3 14.37597,51.6 10.55997,19.9 25.12893,35.6 38.5909,52.2 11.58697,14.3 22.37894,29.3 29.44993,47.9 z"
     id="path2878"
     style="stroke:none;stroke-width:0.2" /><path
     d="m 445.47371,10687.186 c -0.32195,-1.93 0.88458,-3.707 2.77377,-4.046 1.9622,-0.407 3.75293,0.889 4.1472,2.75 1.23115,4.619 1.21214,9.378 0.21016,13.975 -1.04806,4.695 -3.44632,8.988 -6.83556,12.824 -5.7141,6.324 -13.68779,9.413 -21.69032,9.576 -8.13078,0.173 -16.22026,-3.23 -22.61759,-9.349 -6.08822,-6.52 -9.28919,-14.795 -8.87358,-23.047 0.3419,-8.185 3.85986,-16.229 10.48314,-21.891 6.58707,-5.41 14.51805,-7.964 22.33382,-7.02 7.32531,0.866 14.50363,4.183 19.52048,10.45 1.33639,1.4 1.26359,3.64 -0.11047,4.952 -1.37407,1.312 -3.61548,1.282 -4.95188,-0.117 -4.25821,-3.735 -9.57199,-5.245 -14.83021,-4.96 -4.78938,0.198 -9.32084,2.403 -12.81347,6.275 -3.21806,3.435 -4.38146,8.009 -4.26915,12.47 0.0969,4.3 1.63806,8.665 4.93776,11.976 3.1449,3.582 7.34912,5.668 11.66217,6.13 4.68677,0.419 9.51521,-0.461 13.38395,-3.65 2.58061,-2.076 4.6234,-4.57 5.78987,-7.403 1.37632,-3.192 2.06555,-6.524 1.74991,-9.895 z"
     id="path2880"
     style="stroke:none;stroke-width:0.2" /><path
     d="m 725.87345,10937.831 c -30.09093,-28 -52.82387,-54.4 -69.92383,-77.9 -29.90692,-41.1 -42.72989,-73.3 -47.72688,-88.9 -9.32598,11 -21.64995,18.3 -38.1769,23.3 -27.26594,8.1 -66.42684,9.7 -123.0487,11.3 -1.93299,0.1 -3.55999,-1.4 -3.63099,-3.4 -0.071,-1.9 1.44,-3.5 3.37299,-3.6 55.55486,-2.5 93.98377,-4.6 120.6147,-13.1 17.92296,-5.7 30.24093,-14.3 38.65791,-28.4 1.06999,-1.7 3.10199,-2.6 5.12498,-2.3 2.023,0.4 3.624,1.9 4.03799,3.9 0,0 8.40498,38.6 50.15488,94.3 17.88396,23.8 41.8499,50.7 73.84682,79.1 1.99999,1.7 2.76799,3.8 2.81699,6 0.05,2.1 -0.872,5 -4.01099,7.8 -5.18099,4.5 -20.77995,11.1 -41.5649,17 -31.25392,8.8 -74.51181,16.6 -109.25373,15.5 -7.66798,1.5 -69.91782,13.3 -117.9697,23.4 -21.84095,4.6 -40.7229,8.8 -50.02688,11.5 -0.575,0.2 -1.167,0.3 -1.764,0.3 0,0 -55.11586,3.2 -102.52674,8.7 -21.25395,2.4 -40.9399,5.3 -53.18187,8.7 -3.92599,1 -8.43498,3.1 -8.72298,3.3 -1.28299,1.4 -3.06799,2.3 -5.00099,2.5 -2.03699,0.2 -4.07099,-0.4 -5.64998,-1.7 l -202.998498,-169.3 c -1.924995,-1.6 -2.730993,-4.1 -2.052995,-6.5 0.678999,-2.4 2.711994,-4.2 5.183987,-4.6 l 175.605566,-23.4 120.0397,-28.5 c 0.246,-0.1 0.496,-0.1 0.749,-0.1 l 71.26882,-2.7 c 1.933,-0.1 3.56299,1.4 3.63699,3.3 0.074,2 -1.43499,3.6 -3.36799,3.7 l -70.68682,3.8 -119.51971,30.4 c -0.166,0 -0.333,0.1 -0.502,0.1 l -161.311595,23.8 c 41.966895,34.3 189.350535,154.5 189.349535,154.5 1.77099,-0.8 3.84799,-1.7 6.22598,-2.5 9.37598,-3 24.47194,-5.9 41.8459,-8.3 47.19188,-6.6 111.56672,-10.6 119.8157,-11.1 9.81497,-2.7 28.66593,-6.9 50.39087,-11.3 51.48188,-10.6 119.23371,-22.8 119.23371,-22.8 0.552,-0.1 1.114,-0.2 1.67499,-0.2 18.74896,0.9 40.1899,-1 60.74485,-4.2 28.59893,-4.6 55.49387,-11.7 71.08183,-18 2.55599,-1 5.14398,-2.3 7.14498,-3.4 z"
     id="path2882"
     style="stroke:none;stroke-width:0.2" /><path
     d="m 216.69763,10839.012 c -1.46999,-1.3 -1.64299,-3.5 -0.385,-5 1.257,-1.4 3.47099,-1.6 4.94099,-0.4 0,0 27.35193,20.9 61.66785,48.2 7.84898,6.2 16.00696,12.9 24.27394,19.7 5.31598,4.4 10.69197,8.8 15.96196,13.4 13.46596,11.7 26.66193,23.6 38.8369,34.8 32.38592,29.5 57.22886,53.3 57.22886,53.3 1.47,1.3 1.643,3.5 0.385,4.9 -1.257,1.5 -3.47199,1.7 -4.94199,0.4 0,0 -27.31693,-20.8 -61.55185,-48.3 -12.87096,-10.3 -26.73293,-21.4 -40.3509,-32.9 -5.32998,-4.5 -10.55197,-9.2 -15.71296,-13.7 -8.02498,-7.1 -15.84696,-14.2 -23.23894,-21 -32.31192,-29.6 -57.11386,-53.4 -57.11386,-53.4 z"
     id="path2884"
     style="stroke:none;stroke-width:0.2" /><path
     d="m 337.13933,10809.712 c -1.61199,-1.1 -2.05299,-3.2 -0.98399,-4.9 1.06899,-1.6 3.24599,-2 4.85798,-0.9 0,0 33.70092,20 76.18881,46.3 9.72198,6 19.85596,12.4 30.14193,19 6.61498,4.3 13.30597,8.6 19.90695,13 16.86396,11.3 33.49692,23 48.85888,33.8 40.8479,28.8 72.41482,52 72.41482,52 1.613,1.1 2.05299,3.2 0.984,4.9 -1.069,1.6 -3.24599,2 -4.85799,0.9 0,0 -33.67192,-20 -76.09181,-46.4 -15.95196,-10 -33.15192,-20.8 -50.14588,-31.9 -6.65098,-4.3 -13.21096,-8.8 -19.69395,-13.3 -10.07997,-6.9 -19.92895,-13.7 -29.26093,-20.3 -40.7869,-28.9 -72.31882,-52.2 -72.31882,-52.2 z"
     id="path2886"
     style="stroke:none;stroke-width:0.2" /><path
     d="m 159.38877,10959.912 c -1.92199,0.2 -3.66299,-1.2 -3.88699,-3.1 -0.223,-1.9 1.155,-3.7 3.077,-3.9 0,0 29.16792,-5 64.46384,-10.1 13.91096,-2 28.74592,-4.1 43.12289,-5.8 12.75297,-1.5 25.12694,-2.7 36.11691,-3.6 15.44496,-1.2 28.18393,-1.6 35.48491,-1.5 6.08299,-2.4 28.52193,-11.3 50.05188,-18.3 13.96896,-4.6 27.52093,-8.3 36.06791,-9.2 1.91399,-0.2 3.69899,1.1 3.98499,3 0.286,1.9 -1.036,3.7 -2.94899,4 -8.06198,1.5 -20.59495,6.4 -33.55292,11.8 -24.10194,10 -49.38488,22.4 -49.38488,22.4 -0.921,0.4 -1.91899,0.6 -2.92799,0.6 -8.01898,0.1 -24.48894,2 -44.38589,3.9 -13.92897,1.3 -29.51193,2.4 -44.99989,3.6 -9.17398,0.8 -18.30495,1.4 -27.05893,2 -34.72692,2.4 -63.22385,4.2 -63.22385,4.2 z"
     id="path2888"
     style="stroke:none;stroke-width:0.2" /><path
     d="m 662.41453,10858.112 c 1.68299,-1 3.82399,-0.4 4.77698,1.3 0.954,1.7 0.362,3.8 -1.32099,4.8 0,0 -12.45097,7.6 -24.88494,13.2 -7.05198,3.2 -14.13697,5.6 -19.18195,5.9 -4.17099,0.3 -10.80198,-1.9 -18.66096,-5.3 -10.46697,-4.6 -23.59094,-11.4 -35.77991,-15.1 -7.12698,-2.2 -13.83396,-3.4 -19.12595,-1.3 -12.42697,4.7 -35.94091,12.7 -57.30886,18.5 -17.17796,4.6 -33.02292,7.7 -40.7919,7.7 -7.25898,0 -11.68997,2.8 -14.45496,7.4 -3.88999,6.6 -5.33399,15.7 -6.85898,25.2 -1.625,10.1 -3.234,20.5 -6.80099,29.2 -3.74999,9.2 -5.09098,18.4 -5.18298,26.9 -0.127,11.7 1.95499,21.8 3.48599,28.2 0.514,1.9 -0.584,3.8 -2.449,4.3 -1.86499,0.6 -3.79599,-0.5 -4.30999,-2.4 -2.09399,-6.7 -5.04298,-17.4 -5.71698,-29.9 -0.523,-9.6 0.415,-20.2 4.01999,-30.9 3.38699,-9.9 3.87299,-21.9 5.20698,-32.9 1.119,-9.2 2.882,-17.8 6.43499,-24.5 4.80399,-9 12.68797,-15 26.35693,-15.5 7.06699,-0.3 21.26595,-4 36.88891,-8.2 20.88895,-5.7 44.17389,-12.6 56.42086,-16.9 8.01198,-2.8 18.03296,-1.6 28.46993,2.1 12.49797,4.5 25.76994,12.4 36.37391,17.9 5.66199,2.9 10.27198,5.3 13.37297,5.3 4.20399,0 10.16297,-1.8 16.19196,-4 12.32597,-4.5 24.82894,-11 24.82894,-11 z"
     id="path2890"
     style="stroke:none;stroke-width:0.2" /><path
     d="m 250.25055,10987.312 c -1.622,-1.1 -2.082,-3.3 -1.028,-4.9 1.054,-1.6 3.22699,-2.1 4.84899,-1 0,0 7.26198,2.4 16.54896,6.6 2.07199,0.9 4.16099,1.9 6.29098,3.1 1.354,0.7 2.725,1.5 4.00899,2.4 3.30399,2.3 6.32999,4.9 9.12498,7.3 7.61798,6.7 12.82797,12.3 12.82797,12.3 1.62199,1.1 2.08299,3.2 1.028,4.9 -1.054,1.6 -3.227,2 -4.84899,1 0,0 -7.24998,-2.5 -16.45296,-6.7 -3.37699,-1.6 -6.96298,-3.3 -10.39498,-5.4 -1.33299,-0.8 -2.57499,-1.8 -3.79999,-2.7 -1.92499,-1.5 -3.73399,-3 -5.42198,-4.5 -7.56698,-6.8 -12.73197,-12.4 -12.73197,-12.4 z"
     id="path2892"
     style="stroke:none;stroke-width:0.2" /><path
     d="m 315.67239,10974.112 c -1.466,-1.3 -1.63,-3.5 -0.367,-4.9 1.26199,-1.5 3.47699,-1.7 4.94298,-0.4 0,0 6.89899,3.4 15.57997,8.8 1.93599,1.2 3.87399,2.5 5.83698,4 1.249,0.9 2.513,1.8 3.67099,2.9 2.981,2.7 5.64799,5.7 8.10198,8.5 6.68599,7.7 11.12298,14 11.12298,14 1.46599,1.2 1.63099,3.5 0.36799,4.9 -1.26299,1.5 -3.47799,1.7 -4.94298,0.4 0,0 -6.88099,-3.5 -15.46497,-8.9 -3.14999,-2.1 -6.48798,-4.2 -9.62297,-6.8 -1.218,-1 -2.327,-2.1 -3.41999,-3.2 -1.718,-1.7 -3.31999,-3.4 -4.79799,-5.2 -6.61998,-7.8 -11.00797,-14.1 -11.00797,-14.1 z"
     id="path2894"
     style="stroke:none;stroke-width:0.2" /><path
     d="m 37.174077,10891.312 c 7.545981,4.6 24.774938,16.3 46.107886,31.1 9.893975,6.8 20.692947,14.3 31.745917,22.1 10.37998,7.4 20.95595,15.1 31.44193,22.5 16.85995,11.9 33.32691,23.3 47.89988,32.2 11.26597,6.9 21.25394,12.3 29.28192,15.3 5.10799,1.9 9.23398,3 12.23097,2.5 1.891,-0.4 3.75799,0.8 4.16799,2.7 0.41,1.9 -0.79299,3.8 -2.68399,4.2 -5.09099,1.3 -13.25897,-0.1 -23.52294,-3.9 -12.68897,-4.6 -28.87293,-12.8 -46.40189,-22.9 -14.03496,-8.2 -28.96592,-17.4 -43.55089,-27.1 -9.58597,-6.4 -19.02095,-13 -27.975929,-19.5 -12.439969,-9.1 -23.95794,-17.9 -33.929916,-25.7 -17.072957,-13.2 -29.320927,-23.2 -33.068918,-25.5 -4.692988,-2.9 -5.756985,-6.1 -5.517986,-8.4 0.246999,-2.4 1.925995,-5.5 6.128985,-7.4 9.861975,-4.4 37.645907,-6.1 37.645907,-6.1 1.925995,-0.1 3.640991,1.3 3.82799,3.2 0.187,1.9 -1.223997,3.6 -3.149992,3.8 0,0 -20.33495,2.9 -30.676924,6.9 z"
     id="path2896"
     style="stroke:none;stroke-width:0.2" /><path
     d="m 67.512002,10880.912 169.112578,139.5 c -32.00592,7 -189.639527,-117.4 -205.031489,-125.9 -15.391962,-8.6 35.918911,-13.6 35.918911,-13.6 z"
     id="path2898"
     style="stroke:none;stroke-width:0.2" /></g>&#10;</svg>
