<?xml version="1.0" encoding="UTF-8" standalone="no"?>
<!-- Created with Inkscape (http://www.inkscape.org/) -->

<svg
   width="726.06421mm"
   height="815.02051mm"
   viewBox="0 0 726.06424 815.02053"
   version="1.1"
   id="svg1"
   xml:space="preserve"
   xmlns="http://www.w3.org/2000/svg"
   xmlns:svg="http://www.w3.org/2000/svg"><defs
     id="defs1" /><g
     id="layer1"
     transform="translate(-8771.8221,-121.74376)"><path
       style="fill:#000000;stroke-width:1"
       d="m 9118.6307,936.5576 c -0.5235,-0.12 -2.1312,-0.6135 -3.5718,-1.083 -4.0519,-1.32 -8.4225,-1.6179 -10.8945,-0.7425 -1.146,0.405 -2.9679,0.735 -4.0482,0.7335 -2.0613,-0.005 -5.7763,-1.58085 -8.0385,-3.4101 -0.9105,-0.735 -2.268,-1.1595 -4.432,-1.383 -2.1702,-0.225 -4.091,-0.825 -6.3083,-1.97415 -2.0065,-1.0395 -4.5037,-1.863 -6.7386,-2.22255 -2.4469,-0.3945 -4.5936,-1.1415 -6.9055,-2.4033 -2.037,-1.113 -5.8807,-2.52585 -9.7843,-3.5985 -7.7753,-2.13645 -9.0551,-2.6484 -11.5392,-4.61595 -1.5062,-1.1925 -2.5982,-1.60905 -4.9706,-1.89465 -4.1077,-0.495 -6.5119,-1.6479 -10.4283,-5.0028 -1.8171,-1.5567 -4.4826,-3.6135 -5.9232,-4.57065 -1.44,-0.957 -3.526,-2.8023 -4.6341,-4.10025 -1.7023,-1.9938 -2.4022,-2.44275 -4.5135,-2.8956 -2.8705,-0.615 -10.6672,-5.0337 -13.4016,-7.59435 -1.008,-0.9435 -2.6764,-2.9478 -3.7083,-4.45365 -1.413,-2.0616 -2.9595,-3.46019 -6.2638,-5.66309 -4.2621,-2.84145 -7.9877,-5.96115 -13.5792,-11.3709 -2.0346,-1.96845 -2.9912,-3.3651 -3.8165,-5.57265 -0.9045,-2.41875 -1.5135,-3.24195 -3.4038,-4.60005 -1.266,-0.909 -2.853,-2.3667 -3.5262,-3.2379 -6.6769,-8.6409 -10.9533,-16.2495 -11.7337,-20.8764 -0.4605,-2.72835 -1.1985,-4.34535 -4.6022,-10.0734 -4.7286,-7.95885 -5.1856,-8.9616 -5.8872,-12.9153 -0.2895,-1.6293 -1.161,-4.35554 -1.9392,-6.05834 -0.804,-1.76145 -1.783,-5.20515 -2.271,-7.98945 l -0.858,-4.89345 -3.3765,-3.2025 c -3.5497,-3.3669 -4.4265,-4.9137 -5.3662,-9.4677 -1.0485,-5.0829 -2.1966,-7.4091 -5.0199,-10.17495 -1.4655,-1.4355 -3.0641,-3.38265 -3.5534,-4.3272 -0.489,-0.945 -1.8531,-2.84655 -3.031,-4.22655 -1.365,-1.60005 -2.6064,-3.783 -3.4241,-6.0249 -0.9555,-2.6217 -1.7784,-3.96405 -3.2329,-5.2782 -5.4789,-4.94985 -9.0716,-10.0218 -9.837,-13.88775 -0.849,-4.28594 -0.9225,-4.42154 -4.2849,-7.91774 -3.7775,-3.927 -4.656,-5.49615 -5.2886,-9.4458 -0.5745,-3.5862 -1.1865,-4.5711 -4.2664,-6.8637 -3.2532,-2.4216 -4.9923,-5.20035 -5.9507,-9.5076 -0.666,-2.99265 -1.14,-3.9621 -2.9185,-5.9646 -1.1685,-1.3155 -2.8232,-3.91755 -3.678,-5.7834 -0.855,-1.86585 -2.5094,-4.5711 -3.6767,-6.0117 -4.7046,-5.8062 -11.8348,-17.77065 -11.8348,-19.8588 0,-0.06 -1.134,-1.3785 -2.5194,-2.93115 -2.207,-2.4735 -2.7671,-3.55304 -4.5183,-8.70959 -1.0995,-3.2373 -2.2091,-7.3863 -2.4659,-9.2199 -0.2565,-1.83345 -1.0095,-4.92495 -1.6728,-6.87 -0.825,-2.41845 -1.206,-4.5579 -1.206,-6.7689 0,-2.1954 -0.3255,-4.0407 -1.0155,-5.75055 -0.885,-2.1918 -1.038,-3.69015 -1.191,-11.5668 -0.249,-12.8721 0.399,-15.1992 5.2623,-18.87435 1.275,-0.9645 2.9166,-2.71335 3.6476,-3.88755 0.7305,-1.1745 2.245,-2.7504 3.3649,-3.50235 1.6691,-1.1205 2.2542,-1.94055 3.2468,-4.54754 0.666,-1.749 1.7686,-3.78285 2.4504,-4.51965 0.6825,-0.7365 1.9111,-2.3385 2.7321,-3.55935 2.4109,-3.5856 4.8685,-5.3727 9.0133,-6.5538 7.5287,-2.14545 10.3517,-3.15885 11.5265,-4.13745 2.7079,-2.25555 4.3656,-2.77875 9.0642,-2.8605 2.9505,-0.045 5.1403,-0.345 6.295,-0.846 2.0184,-0.873 4.9511,-0.9945 6.8291,-0.2805 2.4409,0.9285 10.2472,7.2216 12.1468,9.79305 1.0695,1.4475 3.0779,3.31815 4.6217,4.30455 1.5018,0.96 3.5877,2.4387 4.6354,3.2871 1.047,0.849 3.0839,2.13345 4.5245,2.8557 1.44,0.723 3.9171,2.62305 5.503,4.22354 1.5861,1.6005 3.7934,3.62745 4.905,4.50435 1.1115,0.8775 2.5217,2.3772 3.1332,3.33375 0.612,0.957 2.262,2.9265 3.6675,4.37745 1.4055,1.4505 3.1986,3.69885 3.9843,4.9953 0.987,1.6275 2.5017,3.0963 4.8944,4.7439 2.1576,1.4865 4.362,3.55485 5.841,5.4822 2.4381,3.177 4.0794,4.5849 7.2997,6.2616 1.1415,0.594 2.012,0.7905 2.2872,0.5145 0.2445,-0.2445 0.8655,-3.3951 1.3785,-7.00125 0.5145,-3.6063 1.056,-6.75195 1.203,-6.9906 0.15,-0.2385 -0.12,-2.0514 -0.579,-4.0284 -0.7905,-3.3516 -0.7965,-3.8094 -0.09,-6.7719 0.7695,-3.2133 0.8595,-14.44469 0.135,-17.71589 -0.1725,-0.783 -0.075,-3.40455 0.2325,-5.82525 1.203,-9.7149 2.0079,-15.012 2.6817,-17.65755 0.639,-2.50755 0.63,-3.13515 -0.09,-6.42945 -0.4395,-2.00775 -1.0125,-3.91845 -1.272,-4.24575 -0.321,-0.4035 -1.9755,-0.5955 -5.1349,-0.5955 -3.5735,0 -5.2658,-0.231 -7.2489,-0.99 l -2.5871,-0.99 -3.0513,1.296 c -2.4258,1.0305 -3.9573,1.326 -7.4725,1.4475 -2.4317,0.09 -4.5819,0.252 -4.7783,0.3735 -0.1965,0.12 -1.9573,-0.09 -3.9132,-0.471 -1.9558,-0.381 -6.5563,-0.795 -10.2235,-0.9225 -3.6671,-0.12 -7.4066,-0.3525 -8.3102,-0.5025 -0.903,-0.15 -4.1854,10e-4 -7.2933,0.336 -4.2882,0.4605 -6.2656,0.4785 -8.2015,0.075 -2.0268,-0.4245 -3.0725,-0.396 -5.0892,0.135 -3.2204,0.858 -5.4912,0.8625 -7.88,0.015 -1.0395,-0.366 -3.4771,-0.8145 -5.4177,-0.9945 -3.0412,-0.2835 -3.8895,-0.18 -6.1474,0.744 -2.4005,0.9825 -3.515,1.0845 -13.335,1.224 -5.8937,0.09 -11.6801,0.189 -12.8588,0.2355 -1.398,0.06 -2.8468,-0.2775 -4.1664,-0.9525 -1.2825,-0.657 -2.4457,-0.93 -3.177,-0.7455 -0.6345,0.159 -3.0459,0.354 -5.3586,0.432 -2.3127,0.075 -7.0981,0.4365 -10.6342,0.798 -3.5627,0.363 -7.5974,0.51 -9.0488,0.3285 -4.8505,-0.606 -13.0329,-0.5565 -16.0549,0.09 -2.6219,0.567 -3.3656,0.543 -6.5459,-0.207 -2.9308,-0.6915 -4.0285,-0.7515 -5.995,-0.33 -3.3473,0.7185 -5.5844,0.6915 -4.8369,-0.06 1.341,-1.341 0.6015,-2.08005 -3.3882,-3.3792 -4.1798,-1.362 -5.7257,-2.55015 -7.2483,-5.5743 -0.462,-0.9165 -2.2542,-3.0678 -3.9834,-4.7799 -2.5913,-2.5656 -3.6648,-4.15695 -6.1043,-9.04875 -2.7001,-5.415 -3.0502,-6.47655 -3.9897,-12.09944 -0.858,-5.1369 -0.9405,-6.55125 -0.492,-8.48985 0.2955,-1.2795 0.54,-4.935 0.543,-8.1237 0,-4.1796 0.2445,-6.59535 0.8595,-8.6553 0.732,-2.44875 0.843,-4.5261 0.7725,-14.52555 -0.06,-8.77365 -0.258,-12.2589 -0.7935,-14.04945 -0.552,-1.84935 -0.639,-3.65745 -0.387,-8.09625 0.1785,-3.14325 0.15,-6.5322 -0.075,-7.53105 -0.234,-1.059 -0.18,-4.43504 0.135,-8.09624 0.2925,-3.45405 0.471,-7.0302 0.3975,-7.947 -0.174,-2.17545 -0.135,-11.00745 0.06,-14.04945 0.105,-1.5507 -0.162,-3.15975 -0.7515,-4.61355 -0.8205,-2.02245 -0.846,-2.49255 -0.2715,-5.00055 0.7545,-3.2991 1.8693,-9.15075 2.2589,-11.85045 0.183,-1.2735 -0.09,-3.3963 -0.801,-6.19125 -0.9495,-3.73515 -1.0965,-5.6442 -1.212,-15.68295 -0.075,-6.28649 -0.2685,-13.35869 -0.435,-15.71624 -0.2325,-3.2868 -0.135,-4.7664 0.4365,-6.3459 0.6585,-1.83165 0.663,-2.247 0.03,-3.7491 -0.801,-1.91775 -0.9705,-9.46545 -0.2685,-11.91675 0.5505,-1.91715 0.687,-8.9136 0.255,-12.99255 -0.183,-1.73205 -0.12,-3.8544 0.15,-4.818 0.3075,-1.116 0.3165,-2.54175 0.03,-4.04805 -0.3675,-1.8936 -0.276,-2.88795 0.498,-5.3508 0.855,-2.72145 0.8985,-3.4782 0.4365,-7.54155 -0.3915,-3.45135 -0.3675,-5.6157 0.105,-9.17684 0.3435,-2.59005 0.471,-5.6925 0.288,-6.984 -0.876,-6.1746 -0.879,-7.4301 -0.03,-10.22835 0.765,-2.5254 0.792,-3.30135 0.2685,-7.4583 -0.321,-2.55195 -0.555,-5.49705 -0.5175,-6.5448 0.03,-1.0485 -0.171,-5.13915 -0.4605,-9.09195 -0.3285,-4.4577 -0.3615,-7.6242 -0.09,-8.33805 0.2595,-0.681 0.276,-3.63315 0.045,-7.2309 -0.312,-4.8054 -0.2505,-6.55185 0.2895,-8.33085 0.8775,-2.892 0.867,-4.2675 -0.06,-6.8343 -1.008,-2.80979 -1.002,-5.49884 0.015,-8.17679 0.8355,-2.18835 0.831,-2.29155 -0.2565,-6.05685 -0.9975,-3.45045 -1.05,-4.10415 -0.5385,-6.5847 0.7605,-3.6786 0.7305,-4.21785 -0.4185,-7.7544 -0.9375,-2.88645 -0.951,-3.21765 -0.273,-6.6105 0.393,-1.96455 0.951,-5.1792 1.2405,-7.14375 0.2895,-1.96455 0.9465,-4.965 1.461,-6.6675 0.5145,-1.70265 1.2735,-4.3815 1.6876,-5.9532 1.9956,-7.5864 2.7072,-9.6693 4.2966,-12.5766 2.1776,-3.98325 2.792,-4.65735 5.4951,-6.02805 1.2135,-0.615 2.8986,-1.99335 3.7452,-3.06225 1.9301,-2.43689 4.1942,-3.60449 8.3852,-4.32419 1.8067,-0.3105 4.2475,-1.0725 5.4243,-1.69305 1.176,-0.621 2.844,-1.1295 3.7053,-1.1295 0.861,0 2.8389,-0.5355 4.3947,-1.191 3.2826,-1.3815 5.0535,-1.485 7.5162,-0.438 1.6287,0.693 2.0416,0.6855 5.1513,-0.075 2.7426,-0.6735 3.8211,-0.7335 5.715,-0.318 1.284,0.282 4.4256,0.9555 6.9817,1.4985 l 4.6473,0.9855 2.3949,-0.9435 c 1.317,-0.519 2.9124,-0.9435 3.5448,-0.9435 0.633,0 2.3843,-0.321 3.8931,-0.714 1.5087,-0.393 3.1397,-0.588 3.6242,-0.435 1.014,0.3225 6.0586,0.945 13.0842,1.6143 3.3687,0.321 5.2858,0.309 6.1912,-0.045 0.7215,-0.2775 2.919,-0.4545 4.8836,-0.3945 7.1179,0.222 8.9125,0.135 14.9349,-0.7155 5.2945,-0.75 6.5529,-0.7845 9.2869,-0.2595 1.7394,0.3345 4.0197,0.5895 5.0675,0.5655 7.2558,-0.1605 13.7799,0.005 14.7508,0.3735 0.6405,0.243 6.4058,0.336 13.0844,0.21 9.6564,-0.1815 12.1896,-0.09 13.2454,0.444 0.7245,0.3705 3.6777,0.822 6.6308,1.0125 5.0974,0.3285 5.4409,0.2895 8.0379,-0.8985 2.4979,-1.143 3.2454,-1.245 9.4387,-1.2795 5.6385,-0.03 7.2551,0.135 10.0001,0.9915 l 3.2743,1.029 4.1076,-1.302 c 3.5525,-1.1265 5.0729,-1.326 11.2512,-1.47 10.5648,-0.246 10.599,-0.2445 12.2103,0.588 0.9885,0.5115 2.0676,0.6735 3.2118,0.483 0.948,-0.1575 4.1403,-0.4995 7.0947,-0.759 5.1852,-0.456 5.4692,-0.432 8.1735,0.7065 2.5487,1.0725 3.2669,1.1595 7.9476,0.9615 2.8302,-0.12 6.728,-0.5685 8.6615,-0.999 3.8059,-0.846 6.8133,-0.6765 9.1209,0.5175 1.7991,0.93 4.6729,0.918 7.9486,-0.03 1.9546,-0.5685 3.2181,-0.6525 5.0739,-0.3405 1.359,0.228 3.6498,0.2415 5.0904,0.03 7.2724,-1.0815 18.9715,-1.61475 25.2412,-1.152 1.9646,0.15 4.9649,0.045 6.6675,-0.234 2.7506,-0.441 3.3791,-0.384 5.6387,0.513 2.3113,0.918 2.7999,0.957 5.365,0.4275 2.1284,-0.4395 3.4409,-0.453 5.3391,-0.06 1.9928,0.4185 3.0575,0.3855 5.1125,-0.1545 2.7459,-0.7215 5.1901,-0.54 7.8894,0.588 2.4639,1.029 7.4674,0.8505 9.8224,-0.351 2.6174,-1.335 12.419,-2.19465 15.4266,-1.353 2.3981,0.672 6.5606,0.7695 10.2543,0.243 2.3265,-0.3315 3.008,-0.234 4.9577,0.7095 1.2435,0.6015 2.6013,1.065 3.0177,1.029 0.417,-0.03 2.5546,-0.075 4.7514,-0.105 2.1969,-0.015 4.447,-0.276 5.0007,-0.573 1.5859,-0.852 12.0036,-0.861 14.7712,-0.0136 1.7762,0.5445 3.2577,0.627 6.1913,0.345 4.6989,-0.4515 4.1602,-0.4605 12.9282,0.2265 6.3051,0.4935 7.6792,0.465 11.43,-0.2445 11.6503,-2.2029 26.3991,-2.4306 39.5701,-0.6105 3.1997,0.4425 4.7499,0.399 8.8995,-0.2475 6.953,-1.083 10.8726,-1.0125 14.4132,0.2565 l 2.8985,1.0395 3.0547,-1.2495 c 2.471,-1.011 4.1561,-1.308 8.8175,-1.5531 3.5272,-0.186 6.4834,-0.105 7.62,0.1965 3.436,0.924 20.8807,1.5657 26.0919,0.96 3.637,-0.423 5.3191,-0.417 7.287,0.03 2.169,0.486 3.096,0.4455 6.0919,-0.261 3.4721,-0.819 3.5991,-0.8145 7.3061,0.201 4.9533,1.3575 7.89,1.305 12.8185,-0.2325 3.8034,-1.1865 4.283,-1.2315 7.5492,-0.7245 3.6777,0.5715 11.3994,0.354 14.8484,-0.4185 2.2273,-0.4995 3.7327,-0.27 6.3036,0.9615 1.9747,0.945 8.4852,0.924 15.7162,-0.045 2.4884,-0.336 6.5604,-0.6075 9.0488,-0.6045 11.0602,0.015 22.2295,0.357 23.1632,0.7065 0.5595,0.21 1.5515,0.915 2.204,1.5672 0.6525,0.6525 2.0529,1.446 3.112,1.7634 1.2885,0.387 3.0876,1.69725 5.4401,3.96555 3.1017,2.99069 6.3244,5.35619 13.6051,9.98609 2.2982,1.461 3.5456,3.25305 4.6907,6.73755 0.4305,1.3095 1.1325,2.91705 1.5615,3.57195 0.4275,0.654 1.8403,3.2853 3.1377,5.8455 1.9179,3.78465 2.5389,4.6305 3.3213,4.5243 0.924,-0.12 0.9795,0.228 1.374,8.8632 0.381,8.33115 0.3405,9.2433 -0.555,12.3825 -0.8775,3.07305 -0.9555,4.5204 -0.837,15.53325 0.09,8.02155 0.324,12.62234 0.699,13.55234 0.36,0.891 0.567,4.21365 0.5625,9.04875 0,4.2024 0.03,8.49795 0.06,9.5457 0.03,1.0485 -0.09,3.94095 -0.285,6.42945 -0.456,5.892 -0.4605,6.51375 -0.075,12.1443 0.243,3.56505 0.15,5.41725 -0.381,7.36605 -0.648,2.38965 -0.636,2.74185 0.135,4.28625 1.485,2.96655 1.5691,4.2735 0.555,8.56245 -2.2496,9.519 -2.373,11.6724 -0.957,16.70429 0.8865,3.1497 1.017,5.0511 1.1355,16.42095 0.075,7.07235 0.291,14.09985 0.4845,15.61665 0.2685,2.10765 0.159,3.258 -0.459,4.87995 -0.7605,1.99095 -0.7605,2.271 -0.011,4.5297 0.8475,2.5524 0.816,5.02515 -0.1995,15.9312 -0.345,3.69855 -0.3375,5.7096 0.03,6.84 0.3075,0.9585 0.3765,2.67855 0.1725,4.28625 -0.1875,1.476 -0.303,4.29239 -0.258,6.25694 0.06,2.3562 -0.201,4.413 -0.7545,6.0432 -0.7575,2.232 -0.7785,2.90835 -0.219,6.98685 0.501,3.64605 0.5055,5.283 0.03,8.5017 -0.5475,3.6795 -0.498,6.228 0.24,12.52005 0.195,1.6656 0.014,3.20655 -0.603,5.127 -0.7185,2.2332 -0.804,3.29985 -0.4635,5.715 0.231,1.63305 0.492,4.791 0.582,7.01745 0.09,2.22645 0.393,6.98655 0.675,10.578 0.285,3.63645 0.336,7.0077 0.12,7.6083 -0.219,0.5925 -0.2925,4.02509 -0.1635,7.62644 0.186,5.17605 0.075,7.1322 -0.5475,9.33705 -0.7485,2.66805 -0.741,2.90955 0.1725,5.56365 1.1505,3.34365 1.2225,6.44115 0.195,8.42685 -0.8295,1.60425 -0.7485,2.88375 0.4695,7.36215 0.6195,2.2806 0.69,3.38115 0.3165,5.00055 -0.6975,3.02475 -0.606,5.8434 0.258,8.0031 0.5055,1.2645 0.6825,2.7387 0.528,4.41495 -0.459,4.9896 -1.3965,10.63185 -2.3127,13.92435 -0.513,1.84605 -1.1565,4.428 -1.428,5.73765 -0.2715,1.3095 -0.897,3.45284 -1.389,4.76249 -0.492,1.3095 -1.131,3.49515 -1.4175,4.8564 -0.288,1.362 -1.5257,4.1475 -2.751,6.19125 -1.8573,3.09765 -2.6346,3.93405 -4.6704,5.025 -1.344,0.72 -3.2093,2.24475 -4.1466,3.3888 -2.0525,2.5047 -3.9504,3.46665 -8.5929,4.35495 -1.9302,0.369 -4.233,1.0965 -5.1176,1.61505 -0.885,0.519 -2.787,1.0935 -4.2276,1.275 -1.44,0.183 -3.4144,0.7305 -4.3863,1.2195 -2.1351,1.0725 -5.0407,1.14 -7.3569,0.1725 -1.522,-0.636 -1.9779,-0.636 -4.1193,0 -3.2211,0.957 -5.6362,0.9015 -9.5569,-0.2205 -5.0062,-1.431 -8.4235,-1.6869 -11.1037,-0.8295 -6.1781,1.977 -9.4407,2.24805 -15.8643,1.317 -8.025,-1.1625 -12.4473,-1.3365 -15.24,-0.603 -2.1999,0.579 -3.3221,0.594 -7.0071,0.09 -2.4132,-0.3255 -4.7706,-0.4395 -5.2388,-0.2535 -1.4385,0.5715 -9.7365,1.65195 -12.7573,1.66185 -1.5716,0.005 -3.9615,-0.285 -5.3111,-0.6435 -1.6101,-0.429 -3.1504,-0.5265 -4.4803,-0.2835 -2.4744,0.453 -11.3393,0.168 -13.7178,-0.441 -1.7592,-0.45 -18.791,-0.2745 -21.0803,0.216 -0.7065,0.1515 -2.5356,-0.165 -4.2048,-0.726 -2.1696,-0.7305 -4.3036,-1.0155 -8.0361,-1.0725 -4.4307,-0.06 -5.3872,0.06 -7.4634,1.0365 -2.1696,1.0155 -3.0159,1.113 -9.525,1.1025 -5.3698,-0.009 -7.6611,-0.204 -9.2275,-0.7815 -2.8679,-1.0575 -4.6149,-0.969 -9.1548,0.465 -3.4211,1.08 -4.3734,1.1925 -7.6728,0.9 -2.3313,-0.207 -5.163,-0.105 -7.4297,0.2475 -3.2529,0.516 -3.9024,0.4875 -5.8057,-0.2595 -2.4408,-0.957 -3.2702,-0.975 -11.2947,-0.246 -5.7284,0.5205 -5.8617,0.5115 -8.6772,-0.675 -2.7911,-1.1745 -3.0045,-1.1925 -8.9459,-0.75 -3.3477,0.249 -6.8353,0.678 -7.7503,0.9525 -2.633,0.7905 -6.0342,0.6015 -8.0994,-0.453 -2.106,-1.074 -4.688,-1.218 -7.1469,-0.3975 -0.915,0.306 -3.914,0.585 -6.6644,0.6225 -9.3462,0.12 -18.8047,0.81 -21.0901,1.52805 -1.799,0.5655 -2.751,0.609 -4.5245,0.2085 -2.7396,-0.6195 -9.0154,-0.789 -12.2473,-0.3315 -1.8122,0.2565 -2.9939,0.12 -4.9452,-0.591 -1.9626,-0.7095 -2.9361,-0.8235 -4.1505,-0.489 -0.873,0.2415 -3.6834,0.396 -6.2466,0.345 -2.5631,-0.045 -5.7317,0.075 -7.0415,0.2685 -1.8751,0.285 -2.985,0.15 -5.2221,-0.639 -4.0209,-1.416 -7.5523,-1.3185 -11.0319,0.303 -2.5737,1.1985 -3.2689,1.3035 -8.749,1.3095 -3.2742,0.004 -7.3313,-0.231 -9.0156,-0.522 -3.3276,-0.5745 -4.5974,-0.438 -4.9704,0.5355 -0.4365,1.1385 0.4425,3.24645 1.7653,4.23405 1.1025,0.8235 1.8633,0.9465 4.9751,0.8115 9.5266,-0.4155 12.6943,-0.279 15.3418,0.663 3.8603,1.374 8.8667,1.254 13.0968,-0.315 6.1907,-2.2962 9.1814,-2.21115 13.3629,0.3795 1.2105,0.75 2.9552,1.82085 3.8772,2.3796 0.9225,0.5595 2.8968,1.1535 4.3886,1.323 4.3374,0.4905 7.9257,2.49165 11.2956,6.29895 1.6063,1.8147 3.7882,3.90075 4.8489,4.63575 2.1549,1.4925 1.4715,1.479 14.6143,0.3 7.0925,-0.636 14.3729,-0.201 20.4788,1.224 1.5717,0.3675 3.8484,0.6705 5.0593,0.6735 2.8911,0.009 12.9815,3.06615 15.4701,4.68675 2.3909,1.55685 9.2847,8.8041 10.353,10.8837 0.4275,0.8325 1.155,1.60755 1.6164,1.7217 0.462,0.12 3.4418,0.2415 6.6233,0.2835 4.4532,0.06 6.5907,-0.135 9.2868,-0.867 7.1533,-1.92555 14.2281,-2.36865 25.4397,-1.59315 10.0558,0.696 8.6632,-0.1665 22.1566,13.72409 6.4485,6.63855 6.8001,7.12095 7.9058,10.8441 0.4005,1.35 1.5631,3.8382 2.5825,5.5284 2.2689,3.76185 2.4791,5.9238 1.0605,10.90515 -0.8925,3.13245 -0.693,3.9597 1.7348,7.21455 2.727,3.6549 3.1699,5.62095 2.2032,9.77835 -0.945,4.06485 -0.951,5.06265 -0.045,8.0529 1.0425,3.43695 0.8745,7.14255 -0.498,10.9971 -2.7186,7.63154 -2.7693,8.02379 -3.2058,24.76499 -0.03,1.3095 0.12,3.6363 0.342,5.17005 0.264,1.82445 0.1875,4.6773 -0.225,8.2497 -0.492,4.27185 -0.507,5.94585 -0.06,7.6887 0.7275,2.88615 0.7185,3.72 -0.2355,21.4614 -0.234,4.36635 -0.135,6.225 0.495,8.715 0.8805,3.51224 0.699,5.89829 -0.7275,9.57374 -1.194,3.075 -1.125,4.03365 0.543,7.5597 1.7544,3.70815 1.782,5.43555 0.168,10.49565 -1.1925,3.73905 -1.2345,4.1862 -0.762,8.2398 0.2745,2.35755 0.387,5.6328 0.2505,7.27845 -0.1695,2.04765 0.01,3.91095 0.5685,5.9025 1.041,3.7098 0.6945,6.1437 -1.4655,10.28835 -1.479,2.83725 -3.5199,10.179 -3.5199,12.6618 0,0.513 0.618,1.91625 1.374,3.1179 1.9554,3.10949 2.1219,4.85879 1.005,10.56419 -1.3065,6.67425 -1.6805,7.7496 -4.0446,11.62305 -1.119,1.8336 -2.574,4.40535 -3.2334,5.715 -0.6585,1.3095 -2.2796,3.61245 -3.6005,5.11725 -1.5,1.70835 -3.759,5.38995 -6.0151,9.8013 -3.0246,5.9142 -4.1444,7.60575 -6.8733,10.3839 -1.7931,1.82535 -3.7386,4.25655 -4.3233,5.40285 -1.431,2.80395 -5.4938,6.78375 -8.4614,8.2875 -3.3045,1.6746 -7.8496,5.54235 -10.4544,8.89665 -2.0616,2.65469 -9.4092,8.79929 -14.0148,11.72009 -2.1493,1.3635 -5.5386,4.2378 -12.0193,10.19505 -1.8726,1.7214 -4.3647,3.543 -5.538,4.0482 -2.3541,1.014 -4.6188,2.17035 -8.5737,4.3794 -1.44,0.804 -3.8258,1.6824 -5.3003,1.95075 -1.6933,0.3075 -3.7372,1.17 -5.5483,2.3412 -3.0039,1.94145 -7.5218,3.38055 -16.7739,5.34315 -3.3765,0.7155 -6.0834,1.6407 -8.3345,2.8464 -1.8334,0.9825 -4.191,2.05335 -5.2387,2.38035 -1.047,0.327 -3.5123,1.299 -5.4768,2.16195 -1.9646,0.8625 -5.5185,2.05815 -7.8977,2.658 -4.0158,1.0125 -4.5654,1.0455 -7.6671,0.4605 -3.2584,-0.615 -3.4753,-0.5925 -8.7691,0.915 -4.6722,1.3305 -5.793,1.491 -8.0493,1.1535 -1.4415,-0.216 -5.6216,-0.3345 -9.2888,-0.2625 -5.2041,0.105 -7.6557,0.384 -11.1703,1.29 -4.613,1.1895 -4.8156,1.215 -6.4509,0.8205 z m 5.5338,-34.8861 c 2.5829,-0.7155 5.0879,-0.9555 10.6367,-1.0215 6.4816,-0.075 7.5843,0.03 10.3075,1.002 l 3.0495,1.0875 3.2543,-1.7331 c 3.0931,-1.6473 3.4822,-1.7334 7.8582,-1.73925 3.5806,-0.005 5.4282,-0.27 8.313,-1.191 2.04,-0.651 4.2043,-1.185 4.8097,-1.185 0.606,0 2.4771,-0.7305 4.1595,-1.6233 1.6824,-0.8925 4.9505,-2.0724 7.2626,-2.62155 2.3119,-0.549 5.9427,-1.76295 8.0682,-2.6976 2.5429,-1.1175 5.0688,-1.8342 7.3857,-2.094 l 3.5209,-0.3945 2.9259,-3.09315 c 3.4011,-3.59549 4.8728,-4.43234 9.4857,-5.39414 3.0983,-0.6465 3.6369,-0.948 6.5142,-3.65625 2.7462,-2.58465 3.906,-3.2685 9.3188,-5.49495 3.4002,-1.398 6.8302,-2.81865 7.6222,-3.15555 0.792,-0.3375 3.2256,-1.95825 5.408,-3.6027 3.0418,-2.292 4.4685,-3.77835 6.1135,-6.3693 2.8895,-4.55085 3.9576,-5.6301 8.8385,-8.92935 4.9783,-3.36525 6.1107,-4.83525 10.0738,-13.0767 1.6631,-3.4584 3.7058,-7.2792 4.5392,-8.4906 0.834,-1.212 2.0722,-3.42795 2.7528,-4.92585 0.681,-1.4985 1.783,-3.58065 2.4501,-4.6284 0.9375,-1.473 1.2345,-2.6079 1.308,-5.00055 0.219,-7.15724 1.0995,-16.57859 1.7344,-18.55949 0.579,-1.806 0.5865,-2.4918 0.045,-4.5243 -0.8805,-3.3072 -1.3245,-11.9496 -0.744,-14.4393 0.351,-1.506 0.3045,-2.7816 -0.18,-4.8579 -0.4515,-1.93755 -0.744,-7.7958 -0.936,-18.7857 -0.237,-13.566 -0.1665,-16.4073 0.465,-18.87404 0.4095,-1.59705 0.744,-4.47465 0.744,-6.3948 0,-2.40645 0.312,-4.30815 1.0065,-6.12165 l 1.0065,-2.6307 -1.0065,-2.9811 c -1.6986,-5.0301 -1.1445,-10.5495 1.9146,-19.05555 l 0.966,-2.68635 -1.332,-2.79045 c -1.7761,-3.7206 -1.7799,-7.15965 -0.012,-10.77375 1.5179,-3.10245 1.5651,-4.09065 0.312,-6.5457 -2.2167,-4.3452 -2.139,-8.6877 0.2655,-14.84849 l 0.8715,-2.23125 -1.5165,-6.1032 c -1.2405,-4.99275 -1.4655,-6.6663 -1.233,-9.19875 0.2295,-2.49705 0.09,-3.58245 -0.7185,-5.6136 -0.5505,-1.3845 -1.002,-3.55905 -1.002,-4.83135 0,-1.272 -0.399,-3.67545 -0.888,-5.34015 -0.489,-1.6647 -1.137,-3.9279 -1.4415,-5.02935 -0.903,-3.26745 -2.5285,-4.69545 -8.8503,-7.7733 l -5.8294,-2.8383 -5.7234,0.3855 c -5.3979,0.3645 -5.8284,0.4695 -7.5689,1.8492 -3.5821,2.8407 -3.7117,3.10005 -2.854,5.7069 0.972,2.9535 1.6743,7.58655 2.1889,14.43525 0.2265,3.0123 0.6675,6.63825 0.9825,8.05785 0.6645,3.0057 0.3615,6.4944 -0.753,8.6475 -0.5565,1.077 -0.8055,2.91285 -0.8595,6.33585 -0.09,5.43719 -0.651,6.81809 -4.7635,11.60384 -1.1805,1.374 -2.5898,3.68235 -3.1313,5.1297 -2.2609,6.04275 -5.7427,11.64135 -9.2515,14.8755 -1.2075,1.113 -2.4284,2.0235 -2.7134,2.0235 -2.3158,0 -5.218,-5.1678 -5.218,-9.2916 0,-2.1375 -0.4215,-3.57 -2.1731,-7.39185 -1.8016,-3.9306 -2.2392,-5.4531 -2.5608,-8.91135 -0.2565,-2.75625 -0.81,-5.14004 -1.6342,-7.02839 -1.2315,-2.82435 -1.2435,-2.9595 -1.0065,-11.66805 0.1995,-7.31595 0.4065,-9.26535 1.224,-11.49075 l 0.984,-2.6802 -1.407,-2.79675 c -0.774,-1.53825 -1.5603,-3.97545 -1.7472,-5.41605 -0.186,-1.44 -0.93,-3.6909 -1.653,-5.0007 -2.0184,-3.65955 -3.4497,-8.53305 -3.7896,-12.9027 -0.261,-3.35865 -0.4965,-4.16805 -1.5368,-5.2941 -0.675,-0.7305 -1.9069,-2.3385 -2.7364,-3.5718 -1.1205,-1.6668 -1.9641,-2.36895 -3.2849,-2.7357 -2.7142,-0.7545 -5.3919,-0.5985 -8.4886,0.492 -2.2881,0.8055 -3.4841,0.939 -6.4086,0.711 -4.8039,-0.3735 -5.1695,-0.075 -5.7798,4.7526 -0.264,2.0817 -0.9135,5.0709 -1.446,6.64245 -1.4745,4.35735 -1.5338,5.86815 -0.345,8.8134 0.81,2.00865 1.0485,3.5358 1.023,6.57285 -0.015,2.1759 0.2715,4.962 0.645,6.19125 0.87,2.86785 0.864,5.0754 -0.015,7.99335 -0.39,1.2855 -0.711,3.3171 -0.714,4.51365 -0.01,3.9633 -1.1985,6.7557 -4.3659,10.25055 -3.0057,3.31665 -5.1299,7.2684 -6.3161,11.75024 -0.363,1.371 -1.9132,4.9581 -3.4449,7.9704 -2.4022,4.72395 -2.959,5.49705 -4.0507,5.62335 -2.3168,0.2685 -4.43,-3.0645 -5.1447,-8.1126 -0.603,-4.2555 -2.0528,-8.81564 -3.7737,-11.86499 -0.9645,-1.70835 -1.4835,-3.28605 -1.4835,-4.5033 0,-1.1235 -0.5865,-3.07485 -1.464,-4.87365 -1.9524,-4.002 -2.1651,-5.7048 -1.1715,-9.37695 0.669,-2.46975 0.7335,-3.5076 0.333,-5.3385 -1.014,-4.6335 -1.1145,-6.3237 -1.074,-18.0441 0.03,-9.89115 -0.09,-12.29055 -0.7095,-13.77315 -0.4125,-0.987 -0.924,-3.20925 -1.1355,-4.93725 -0.3735,-3.0504 -2.5542,-12.00044 -3.1641,-12.98729 -0.1665,-0.2685 -1.5828,-1.317 -3.1478,-2.32815 -2.8227,-1.82445 -2.8743,-1.8369 -6.4909,-1.56225 -3.4476,0.2625 -3.9918,0.1575 -10.0259,-1.92345 -3.5092,-1.2105 -7.1107,-2.2002 -8.0034,-2.2002 -0.8925,0 -3.1648,0.666 -5.0496,1.4805 -2.6664,1.152 -4.4395,1.5546 -7.992,1.81545 -5.2714,0.387 -7.3504,1.314 -8.6731,3.8643 -0.879,1.6953 -0.8865,3.74595 -0.045,13.49324 0.2595,3.0255 0.165,3.4971 -1.2585,6.3018 -1.5065,2.96805 -1.5264,3.0897 -0.9495,5.80605 0.4935,2.3253 0.4725,3.16485 -0.12,5.1852 -0.774,2.6043 -0.846,2.3316 1.7253,6.5004 1.8829,3.0531 2.5801,7.59675 1.7541,11.4324 -0.348,1.6158 -0.651,5.5095 -0.672,8.65275 -0.045,5.4717 -0.09,5.8005 -1.4025,7.7232 -0.8175,1.206 -3.0531,3.16605 -5.5931,4.9056 -3.1489,2.15685 -4.2976,3.2262 -4.4932,4.1832 -0.693,3.39045 -1.2795,4.88145 -2.0904,5.3154 -1.257,0.67199 -3.021,-0.8415 -4.0158,-3.4461 -0.6945,-1.8168 -1.1655,-2.25915 -3.693,-3.4674 -3.3065,-1.5804 -5.2944,-3.61935 -6.9089,-7.08645 -1.0425,-2.2386 -1.1235,-3.0021 -1.128,-10.5993 0,-7.6413 0.075,-8.4189 1.245,-11.6682 0.687,-1.9146 1.8515,-4.67805 2.5865,-6.14085 1.128,-2.2449 1.275,-2.95035 0.9405,-4.5243 -0.2175,-1.026 -0.4125,-4.78905 -0.432,-8.3634 -0.03,-6.41745 -0.06,-6.5283 -1.5185,-8.88375 -1.6674,-2.6823 -1.6924,-3.4857 -0.4215,-13.55444 l 0.6465,-5.1243 -1.311,-2.67285 c -1.7659,-3.6009 -2.2804,-6.5946 -1.7254,-10.041 0.3315,-2.058 0.2775,-3.63705 -0.2055,-5.94375 -0.771,-3.68535 -0.4485,-6.0384 1.3665,-9.99045 1.5567,-3.3879 1.9953,-6.81315 1.185,-9.258 -1.3605,-4.10565 -0.495,-9.1872 2.2374,-13.1442 1.1835,-1.7133 1.203,-1.8669 0.66,-5.00055 -0.657,-3.7938 -1.5911,-6.98685 -3.1032,-10.6149 -0.6,-1.43999 -1.2105,-4.01249 -1.3575,-5.71499 -0.162,-1.8789 -0.78,-4.21875 -1.5743,-5.9532 -1.6354,-3.57165 -1.8241,-8.13315 -0.4439,-10.71555 1.0394,-1.9431 1.5746,-5.60535 1.9943,-13.63185 0.3735,-7.1475 -0.15,-9.5655 -2.9897,-13.87425 -1.326,-2.00955 -2.6003,-4.80315 -3.4046,-7.4619 -1.077,-3.5589 -1.6731,-4.67655 -3.6672,-6.87285 -3.2128,-3.5391 -9.5688,-8.1654 -11.218,-8.1654 -0.708,0 -2.0976,0.339 -3.0894,0.753 -0.9915,0.414 -3.0779,0.9585 -4.6358,1.209 -4.2574,0.6855 -6.9441,2.31645 -11.9613,7.26075 -3.7486,3.6942 -4.735,4.97685 -5.5944,7.2747 -0.573,1.5342 -1.6989,3.85575 -2.5003,5.15895 -1.113,1.8099 -1.535,3.1815 -1.7861,5.81055 -0.3975,4.16265 -1.3335,5.8848 -4.3983,8.09145 -2.2984,1.6548 -2.3184,1.692 -2.0322,3.7797 0.159,1.1595 0.9495,3.6591 1.758,5.55435 1.3725,3.2187 1.494,3.98295 1.8417,11.59095 0.2055,4.47975 0.5355,8.4081 0.7335,8.7297 0.1995,0.321 0,2.4516 -0.444,4.7334 -0.744,3.83249 -0.7485,4.42814 -0.045,7.81499 0.8295,4.0185 0.6075,6.01365 -1.1055,9.88365 -0.8805,1.9902 -0.9105,2.4975 -0.4005,6.9 0.849,7.33185 0.7215,10.515 -0.5535,13.9173 -0.945,2.51925 -1.0425,3.28395 -0.6375,5.00055 0.5685,2.4078 0.3855,15.6984 -0.2445,17.74275 -0.3405,1.107 -0.1815,2.17125 0.702,4.71825 1.2105,3.48885 1.1745,5.47635 -0.1605,8.6721 -0.939,2.24835 -0.816,4.18169 0.5355,8.41634 1.6337,5.11545 1.5594,7.9191 -0.312,11.7534 l -1.4955,3.066 1.02,3.46545 c 1.218,4.13745 1.2765,6.6162 0.2595,10.95675 -0.699,2.98845 -0.696,3.6036 0.03,7.80225 1.4385,8.26275 -0.06,14.1012 -6.0387,23.5407 -1.3275,2.0955 -2.9601,4.39875 -3.6279,5.1183 -1.5805,1.7034 -5.6832,3.21615 -8.7219,3.21615 -1.6519,0 -2.8326,0.30149 -3.7575,0.95999 -4.1991,2.98995 -8.7465,3.6387 -12.4308,1.77345 -2.4132,-1.221 -7.3396,-5.28869 -10.1758,-8.40074 -1.05,-1.152 -5.1296,-5.3313 -9.0656,-9.2868 -5.5402,-5.5677 -7.3486,-7.6977 -8.0079,-9.4314 -0.6285,-1.6542 -1.4595,-2.676 -3.175,-3.9087 -1.278,-0.918 -3.7197,-3.5535 -5.4264,-5.85675 -1.7069,-2.3031 -5.0265,-5.9577 -7.377,-8.12115 -3.24,-2.9823 -4.5981,-4.61925 -5.6154,-6.76845 -1.0845,-2.29215 -1.9002,-3.2256 -4.2587,-4.87695 -6.9721,-4.88175 -16.2678,-12.10785 -19.4671,-15.1332 -1.0485,-0.99 -2.8694,-2.3754 -4.0481,-3.0771 -1.179,-0.702 -3.3219,-2.54475 -4.7625,-4.09589 l -2.6194,-2.8203 -3.285,1.2015 c -1.8068,0.66 -3.8642,1.61385 -4.572,2.11785 -0.708,0.504 -2.1227,1.12199 -3.1443,1.37249 -2.7407,0.6735 -7.3982,2.7234 -7.8509,3.4557 -0.246,0.399 0.045,1.374 0.7605,2.6076 0.6345,1.083 1.6131,3.6414 2.1735,5.68365 1.026,3.7428 1.032,4.0935 0.1635,11.6859 -0.2235,1.95915 -0.045,3.67935 0.7005,6.5358 0.5565,2.14785 1.005,5.36115 1.005,7.2054 0,2.2965 0.315,4.10955 1.017,5.8467 0.7725,1.91175 1.038,3.66465 1.101,7.2804 0.105,6.06795 1.4955,9.58875 5.4588,13.8351 2.3102,2.47545 3.0086,3.70335 4.9566,8.7147 1.2465,3.20834 3.198,7.19264 4.3355,8.85404 1.137,1.6614 2.542,4.4448 3.1212,6.1851 0.606,1.82025 1.9459,4.3206 3.1552,5.88585 1.1565,1.497 3.0114,3.9714 4.1226,5.499 1.1115,1.5276 3.2244,4.4208 4.6958,6.4293 1.4715,2.00865 3.1128,4.50915 3.6474,5.5569 0.534,1.0485 1.6023,2.5035 2.3724,3.2349 0.7695,0.732 1.8469,2.3388 2.3928,3.5718 0.546,1.233 1.5106,3.4305 2.1441,4.88295 0.633,1.452 2.3313,3.96285 3.7732,5.5788 1.4415,1.6158 3.8388,4.97775 5.3265,7.4709 1.488,2.49315 3.7902,5.76915 5.1165,7.27995 3.3291,3.79245 4.7738,6.77999 5.877,12.15374 0.15,0.72 1.7859,2.97105 3.6398,5.0007 1.854,2.0295 3.7602,4.44015 4.2361,5.35695 0.4755,0.9165 1.8746,2.95275 3.1079,4.5243 2.1532,2.7441 4.3125,6.8706 6.681,12.76845 0.6105,1.5219 1.7959,3.54705 2.6328,4.50015 0.837,0.954 1.9495,2.7084 2.4724,3.90045 0.5235,1.1925 2.2866,3.58905 3.9191,5.3268 1.8571,1.977 3.2884,4.02675 3.8241,5.4768 0.471,1.275 1.5474,4.03185 2.3925,6.12735 2.3142,5.7381 3.2466,10.60425 2.9196,15.23715 -0.225,3.17999 -0.135,4.10654 0.5295,5.08319 0.4425,0.657 1.5055,2.2425 2.3623,3.5238 0.8565,1.281 1.9223,3.4854 2.3675,4.89795 0.5475,1.7358 1.5538,3.36 3.1054,5.0106 1.263,1.344 2.9244,3.7707 3.6926,5.39415 1.047,2.2119 2.0265,3.4284 3.9091,4.85235 2.5604,1.93635 7.3451,7.0464 9.4154,10.05525 3.0442,4.4244 5.8152,7.05045 9.5737,9.0735 3.7589,2.02305 5.6754,3.8568 7.2509,6.93795 0.927,1.8138 5.2972,5.8209 6.691,6.1359 0.558,0.12 2.0543,0.4515 3.3255,0.7215 3.2996,0.7035 13.9019,6.4191 16.8495,9.0831 1.371,1.239 3.4067,2.5608 4.5245,2.93775 2.3277,0.7845 6.8047,2.33204 11.37,3.92894 1.7307,0.606 4.1987,1.63395 5.4848,2.28555 1.2855,0.6525 3.2954,1.443 4.4654,1.7577 1.17,0.315 3.1299,1.0815 4.3552,1.7019 1.2255,0.621 4.1583,1.55025 6.5172,2.06505 2.3591,0.5145 5.1555,1.3785 6.2144,1.91835 1.35,0.6885 2.8344,0.9825 4.9687,0.9825 3.456,0 5.4623,0.576 8.1521,2.34315 1.6482,1.083 2.3622,1.2285 6.001,1.2285 3.8331,0 4.3668,0.12 7.4162,1.73595 3.9018,2.0613 4.4326,2.11545 8.8195,0.9 z M 8838.8274,517.81195 c 0.6075,-0.384 0.618,-0.6705 0.075,-2.01675 -1.5482,-3.8232 -1.5537,-5.5719 -0.045,-12.62894 0.3495,-1.62975 0.507,-3.0924 0.348,-3.25035 -0.1575,-0.1575 -1.146,0.282 -2.1953,0.9765 -1.9792,1.3095 -3.498,4.23 -4.0996,7.88264 -0.1755,1.0695 -1.155,2.7291 -2.661,4.5096 -1.3095,1.5495 -2.3114,3.02955 -2.225,3.2889 0.3735,1.119 9.3587,2.15025 10.7999,1.239 z m 29.5839,-3.1098 c 1.0425,-3.35145 1.248,-9.47699 0.3075,-9.17504 -0.327,0.105 -1.14,1.1865 -1.806,2.40405 -0.666,1.21649 -1.6697,2.70254 -2.2305,3.30119 -1.191,1.272 -2.0357,3.30225 -2.0357,4.89645 0,1.2045 0.9645,1.61625 3.5096,1.4955 1.2375,-0.06 1.4505,-0.333 2.2552,-2.9223 z m 35.0274,2.3634 c 0.1545,-0.4035 -0.06,-1.64235 -0.492,-2.75445 -0.906,-2.37435 -0.972,-4.3449 -0.2415,-7.24739 0.5955,-2.3643 0.2625,-4.06035 -0.624,-3.1746 -0.2955,0.2955 -1.2315,2.58315 -2.0802,5.08259 -0.9765,2.8779 -2.099,5.17875 -3.0605,6.2739 -1.8949,2.1582 -1.4535,2.53485 2.9865,2.5449 2.4714,0.006 3.2957,-0.165 3.5108,-0.7245 z m 380.8961,-0.2085 c 1.3545,-0.5145 1.6299,-1.78995 0.4815,-2.23065 -0.9765,-0.375 -4.4988,1.233 -4.4988,2.0532 0,0.7605 2.2244,0.8595 4.0172,0.177 z m 107.9016,-1.236 c 1.9646,-0.1515 3.8639,-0.3675 4.2209,-0.483 1.041,-0.3345 -0.21,-1.5108 -3.2399,-3.0447 -1.4565,-0.738 -3.1408,-2.0115 -3.7432,-2.8314 -1.0875,-1.48049 -1.104,-1.48499 -2.4711,-0.678 -1.407,0.831 -3.8154,4.66875 -3.8154,6.0795 0,1.0575 1.7736,1.73595 3.81,1.458 0.9165,-0.12 3.2742,-0.3495 5.2387,-0.501 z m -268.2052,-0.15 c 0.516,-0.327 0.447,-0.7785 -0.3675,-2.3739 -0.552,-1.083 -1.086,-1.96965 -1.1865,-1.96965 -0.36,0 -2.1806,3.4038 -2.1806,4.07535 0,0.7665 2.6463,0.957 3.7335,0.2685 z m -323.2927,-8.62979 c 0.3315,-3.6378 0.8805,-6.7224 1.413,-7.93095 0.8145,-1.85205 1.9023,-5.37285 2.5887,-8.38065 0.4995,-2.1906 -0.918,-1.57815 -2.7581,1.191 -0.9135,1.3755 -2.2701,2.85915 -3.0148,3.2979 -0.744,0.438 -1.7474,1.233 -2.2284,1.764 -0.852,0.942 -0.8355,1.0935 0.6075,5.82195 0.8385,2.748 1.482,5.92034 1.482,7.30859 0,1.3485 0.2655,2.71815 0.5895,3.0423 0.732,0.732 0.6705,1.02 1.32,-6.11384 z m 72.5455,-10.7157 c 0.531,-2.56605 1.2645,-4.48785 2.2467,-5.8863 0.801,-1.1415 1.389,-2.1453 1.305,-2.2293 -0.09,-0.09 -1.1985,0.753 -2.475,1.8615 -2.4864,2.157 -2.3125,1.66755 -3.4051,9.58785 -0.327,2.37045 -0.324,2.3769 0.606,1.4295 0.561,-0.5715 1.2495,-2.47725 1.7235,-4.7625 z m 71.405,-4.7796 c 1.8435,-1.2525 2.1138,-2.2449 1.3545,-4.97085 -0.3015,-1.0815 -0.4725,-0.9195 -2.0957,1.98225 -2.5213,4.50855 -2.3733,5.1051 0.741,2.9886 z m 394.7449,-19.39005 c 0.5175,-0.972 0.4965,-1.011 -0.222,-0.4185 -0.435,0.36 -0.792,0.8415 -0.792,1.071 0,0.7275 0.423,0.4545 1.014,-0.654 z m 7.0825,-12.42735 c 0,-0.585 0.4455,-1.91235 0.99,-2.95005 1.3305,-2.5347 2.3807,-5.4585 1.9607,-5.4585 -0.5835,0 -1.5707,1.90905 -3.1805,6.1515 -2.4469,6.44895 -2.3832,6.153 -1.0035,4.6566 0.678,-0.735 1.233,-1.8147 1.233,-2.39955 z m -100.4887,-3.47085 c 0,-1.4955 -0.672,-1.7508 -1.6788,-0.639 -0.732,0.8085 -0.7695,1.1295 -0.2595,2.2461 0.573,1.257 0.6165,1.2705 1.266,0.384 0.3705,-0.5055 0.672,-1.4025 0.672,-1.99125 z m 4.3056,-8.3076 c 0.252,-0.4695 0.4575,-1.4835 0.4575,-2.2533 0,-1.9002 1.4235,-4.95765 4.0174,-8.63025 1.1895,-1.6839 2.2845,-3.82694 2.4338,-4.76249 0.5415,-3.39195 0.7275,-3.82845 2.6089,-6.08025 1.0515,-1.2585 2.6603,-3.18525 3.5759,-4.2816 1.1295,-1.353 1.8168,-2.79675 2.1384,-4.4919 0.261,-1.374 0.9285,-3.2634 1.485,-4.1979 0.5835,-0.981 1.1625,-3.0582 1.3695,-4.9161 0.279,-2.4987 0.663,-3.59415 1.7236,-4.9071 2.9277,-3.62625 3.3813,-4.54245 4.1511,-8.3829 0.528,-2.63205 1.2465,-4.6146 2.1327,-5.877 0.735,-1.0485 1.7084,-2.9061 2.1629,-4.12965 0.4545,-1.224 1.125,-2.4723 1.4895,-2.775 0.3645,-0.303 1.0215,-1.65915 1.461,-3.0141 0.5385,-1.6638 1.4055,-3.00495 2.6701,-4.13055 1.6914,-1.50615 1.9458,-2.046 2.6375,-5.5995 0.4215,-2.163 0.636,-4.0626 0.477,-4.22145 -0.159,-0.159 -1.05,0.1815 -1.9809,0.7575 -1.6554,1.023 -1.6919,1.1115 -1.6919,4.11765 0,3.61125 -0.819,5.8662 -2.5402,6.99405 -2.54,1.66425 -5.0073,5.64225 -5.7812,9.32085 -0.8775,4.1715 -1.2105,4.8378 -3.282,6.5727 -1.368,1.146 -1.6432,1.72605 -1.8417,3.8829 -0.15,1.6089 -0.6075,3.0015 -1.2585,3.81 -1.2405,1.542 -2.2887,3.681 -2.6533,5.41605 -0.15,0.7065 -1.194,2.22225 -2.3241,3.36825 -1.7672,1.79235 -2.2286,2.71155 -3.3008,6.5736 -0.6855,2.4696 -2.1184,6.07545 -3.1843,8.0133 -1.0665,1.9377 -2.2479,4.56795 -2.6273,5.84505 -0.3795,1.2765 -1.485,3.61109 -2.458,5.18699 -1.4745,2.38935 -1.8158,3.4434 -2.0532,6.34515 -0.228,2.7906 -0.543,3.8184 -1.5876,5.18835 -0.717,0.939 -1.3035,2.1561 -1.3035,2.70345 0,0.957 0.045,0.9645 1.2105,0.2025 0.666,-0.4365 1.416,-1.1775 1.6669,-1.64655 z m 103.5757,-2.3664 c 0.6195,-1.2225 1.676,-2.8764 2.3466,-3.67335 0.6705,-0.7965 1.356,-2.16705 1.5239,-3.04455 0.168,-0.8775 0.729,-2.44215 1.2465,-3.4773 0.519,-1.035 1.341,-3.04154 1.8289,-4.45844 0.4875,-1.4175 1.6124,-3.3801 2.4996,-4.36215 0.888,-0.9825 2.6091,-3.61275 3.8265,-5.84595 1.2165,-2.2332 2.8515,-4.86345 3.6318,-5.8452 0.78,-0.981 1.653,-2.667 1.9397,-3.7449 0.2865,-1.0785 1.068,-2.68185 1.7352,-3.564 0.6675,-0.882 1.6272,-2.69205 2.1324,-4.0218 0.5055,-1.3305 1.761,-3.4755 2.7904,-4.7685 1.314,-1.64955 1.8717,-2.81325 1.8717,-3.9012 0,-1.0155 0.657,-2.53395 1.905,-4.4031 1.047,-1.569 1.905,-3.05205 1.905,-3.2955 0,-0.243 0.5355,-1.1685 1.191,-2.0565 0.6555,-0.888 1.191,-1.96005 1.191,-2.38335 0,-0.423 0.75,-2.292 1.6668,-4.15305 0.9165,-1.8609 1.667,-3.64905 1.667,-3.97365 0,-0.324 0.7575,-1.94565 1.6842,-3.6021 0.927,-1.65645 1.989,-3.8751 2.3611,-4.9302 0.372,-1.0545 1.3005,-2.72085 2.0643,-3.70155 0.7635,-0.981 2.0505,-3.3903 2.8613,-5.35484 0.81,-1.96455 2.017,-4.62615 2.6809,-5.9148 0.663,-1.2885 1.2075,-2.74125 1.2075,-3.2283 0,-1.0815 2.5749,-6.2655 4.115,-8.28495 1.104,-1.4475 1.6398,-5.43195 0.7305,-5.43195 -1.1925,0 -5.798,7.8906 -5.798,9.933 0,1.8531 -8.3356,18.07829 -11.8203,23.00774 -0.8025,1.1355 -1.6011,2.9208 -1.7751,3.96855 -0.174,1.0485 -1.1505,3.3108 -2.1709,5.02905 -1.02,1.71825 -2.357,4.3971 -2.9711,5.9532 -0.6135,1.55595 -1.7854,3.87735 -2.6031,5.15865 -0.8175,1.281 -1.9362,3.68025 -2.4856,5.3313 -0.714,2.14635 -1.7369,3.8289 -3.5883,5.90385 -2.2572,2.5296 -2.5907,3.15915 -2.5998,4.908 -0.012,2.3313 -1.2975,5.40405 -2.8304,6.76845 -1.1865,1.056 -2.3808,3.21765 -3.7164,6.7272 -0.486,1.2765 -1.6738,3.35595 -2.64,4.6203 -0.966,1.2645 -1.7611,2.76435 -1.767,3.33375 -0.015,1.8384 -1.7013,4.8228 -3.4876,6.18525 -1.5468,1.1805 -1.7406,1.56525 -1.7406,3.46184 0,2.39115 -0.699,4.33605 -2.5235,7.0143 -1.0305,1.5138 -2.7153,6.00915 -2.7153,7.2462 0,0.8115 1.5945,-1.086 2.6301,-3.12945 z m -456.5117,-1.85475 c 0.309,-0.5775 0.324,-1.029 0.045,-1.2045 -0.396,-0.2445 -1.4535,1.1085 -1.4535,1.8582 0,0.6375 0.96,0.192 1.413,-0.654 z m 299.725,-0.4065 c 0.4245,-0.4695 1.3305,-2.3445 2.0133,-4.1673 0.6825,-1.82265 1.8492,-4.2783 2.5926,-5.457 1.5522,-2.46164 2.6455,-4.93949 3.6772,-8.33444 0.3975,-1.3095 1.4505,-3.18555 2.3373,-4.1685 1.128,-1.2495 1.6161,-2.25225 1.6215,-3.33375 0.01,-1.4355 0.9105,-3.31335 2.9783,-6.18885 0.4635,-0.645 1.4625,-2.9412 2.2185,-5.103 0.807,-2.30595 1.9594,-4.5489 2.7882,-5.42685 0.918,-0.972 1.5213,-2.2206 1.723,-3.5643 0.366,-2.43435 1.6731,-5.1498 3.5265,-7.32495 1.227,-1.44 7.2365,-13.00425 7.2365,-13.92555 0,-0.222 0.5055,-1.068 1.122,-1.878 1.5394,-2.022 2.9769,-4.9536 3.4081,-6.95055 0.198,-0.9165 0.852,-2.7384 1.452,-4.0482 0.6,-1.3095 1.368,-3.13125 1.7045,-4.04805 0.3375,-0.9165 1.5108,-2.63129 2.608,-3.80999 1.5048,-1.6164 2.0346,-2.6019 2.1558,-4.0101 0.183,-2.1264 -0.24,-2.43345 -2.7139,-1.96935 -1.284,0.2415 -1.8456,0.7065 -2.571,2.12775 -0.51,1.0005 -1.4445,2.4375 -2.0765,3.19275 -0.6315,0.756 -1.3095,1.90905 -1.5081,2.56395 -0.618,2.04659 -4.7898,10.12019 -6.607,12.78749 -0.99,1.452 -1.736,3.1287 -1.736,3.89805 0,1.9776 -0.657,3.40245 -2.9974,6.50055 -2.4384,3.228 -4.4279,7.56585 -5.1035,11.12835 -0.2625,1.3845 -0.8895,3.17715 -1.3935,3.98445 -1.5913,2.54775 -7.6498,14.92995 -7.6498,15.6348 0,0.3705 -0.4365,2.1573 -0.969,3.96945 -0.5325,1.8123 -1.293,4.4166 -1.6887,5.78745 -0.396,1.371 -1.464,3.46635 -2.3721,4.65675 -1.9964,2.6154 -3.3723,6.0822 -3.8127,9.60689 -0.24,1.9164 -0.7575,3.18 -1.9337,4.72155 -2.1403,2.8041 -2.1658,5.5089 -0.03,3.1485 z m -212.4411,-19.50644 c 0.402,-1.245 0.6615,-2.3373 0.5775,-2.42895 -0.663,-0.7245 -2.7349,2.8251 -2.3046,3.9465 0.4845,1.263 0.9675,0.8385 1.7273,-1.51755 z m -129.1785,-2.08035 c 0,-0.2625 -0.2145,-0.3435 -0.4755,-0.1815 -0.2625,0.162 -0.4755,0.5085 -0.4755,0.771 0,0.2625 0.2145,0.3435 0.4755,0.1815 0.2625,-0.162 0.4755,-0.5085 0.4755,-0.771 z m 134.1867,-7.2066 c 0.2625,-0.327 0.81,-2.57175 1.218,-4.9875 0.5625,-3.33375 1.323,-5.58855 3.1532,-9.3558 1.4265,-2.93535 2.413,-5.61645 2.4147,-6.56145 0,-2.454 0.921,-5.2812 2.1403,-6.59865 0.606,-0.6555 1.3245,-2.0121 1.5951,-3.01605 0.2715,-1.0035 1.3455,-2.93265 2.3856,-4.28625 1.1235,-1.461 2.0216,-3.2346 2.2103,-4.3659 0.447,-2.6772 1.6491,-6.4665 2.4651,-7.76745 0.3795,-0.6045 1.191,-2.5338 1.8022,-4.28625 2.7006,-7.73729 3.158,-8.81489 4.334,-10.21244 1.086,-1.29 1.2045,-1.75095 0.9255,-3.6096 -0.2775,-1.8471 -0.09,-2.57925 1.3755,-5.51025 0.9315,-1.8591 1.9093,-4.2375 2.172,-5.28525 0.2625,-1.0485 1.3395,-2.9463 2.3938,-4.21905 1.452,-1.75365 1.919,-2.7339 1.9275,-4.04805 0.01,-0.954 0.5415,-3.01995 1.188,-4.59165 1.293,-3.1383 1.3845,-3.5718 0.7605,-3.5718 -0.7845,0 -1.983,2.3739 -2.4544,4.85985 -0.279,1.4685 -1.2405,3.65715 -2.3684,5.388 -1.044,1.6035 -1.8994,3.23325 -1.8994,3.62175 0,0.3885 -0.6405,1.57695 -1.422,2.64105 -1.9688,2.67705 -5.5067,11.21655 -7.0698,17.0649 -1.3035,4.87739 -5.811,17.48369 -7.3221,20.47874 -0.9255,1.8336 -2.2637,5.02875 -2.9745,7.10025 -0.711,2.0715 -1.7034,4.533 -2.2056,5.46975 -0.5025,0.9375 -0.9135,2.28585 -0.9135,2.9976 0,0.711 -0.8565,2.92185 -1.905,4.91115 -1.047,1.98945 -1.905,4.08735 -1.905,4.66185 0,0.5745 -0.726,2.54685 -1.6148,4.3827 -1.8106,3.7431 -2.7253,9.29115 -1.5319,9.29115 0.357,0 0.864,-0.2685 1.1265,-0.5955 z m -97.345,-6.50115 c 1.9515,-3.1617 2.0184,-3.381 1.0305,-3.381 -0.7065,0 -3.5687,4.47765 -3.5771,5.5959 -0.01,1.26 0.879,0.4875 2.5472,-2.2149 z m -24.7565,-6.2571 c 1.9391,-2.0946 2.8626,-3.5634 3.3978,-5.40465 1.011,-3.4755 0.393,-5.00415 -0.708,-1.75245 -0.5475,1.61655 -1.7034,3.3411 -3.5091,5.23425 -2.3955,2.5113 -3.4765,4.79895 -2.268,4.79895 0.234,0 1.6232,-1.2945 3.0878,-2.8761 z m 39.4049,-21.70065 c 0.465,-0.42 1.4175,-2.56335 2.1175,-4.7625 1.4175,-4.4523 1.9928,-4.83315 4.3394,-2.8746 2.1549,1.7985 4.2508,2.68635 6.3421,2.68635 1.071,0 2.7767,0.423 3.7899,0.9405 3.9554,2.0178 6.9914,1.74375 11.4603,-1.035 1.6088,-1.0005 3.2531,-1.53375 5.6537,-1.83525 1.8619,-0.234 3.9756,-0.738 4.6971,-1.119 2.6752,-1.416 7.8333,-6.1884 9.7537,-9.02565 1.0905,-1.61025 3.1188,-4.0071 4.5089,-5.32649 2.6862,-2.54985 2.6571,-2.46345 2.8039,-8.31675 0.045,-1.96455 0.2505,-5.47575 0.4455,-7.80255 0.327,-3.8922 0.249,-4.5531 -0.9825,-8.2599 -0.7365,-2.21595 -2.0406,-5.1342 -2.8983,-6.48495 -0.858,-1.35 -2.1588,-3.52725 -2.8914,-4.83705 -0.732,-1.3095 -2.5107,-3.5286 -3.9513,-4.9311 -1.554,-1.51275 -3.9753,-4.80555 -5.9532,-8.09625 -2.9331,-4.87995 -3.5964,-5.67675 -5.5203,-6.63195 -2.1169,-1.0515 -2.4048,-1.071 -9.0487,-0.6405 -3.7742,0.2445 -7.9353,0.336 -9.2469,0.2025 -2.1719,-0.222 -2.8026,-0.03 -7.0688,2.1999 -2.5762,1.344 -5.9283,3.288 -7.449,4.3206 -3.8751,2.6316 -8.6764,8.385 -10.2706,12.3072 -0.7095,1.7457 -2.1224,4.88835 -3.1398,6.98385 -2.5428,5.23725 -3.1461,8.5224 -2.1336,11.61795 0.4275,1.305 0.7755,3.7311 0.7755,5.3919 0,2.45025 0.3015,3.6456 1.5997,6.3399 0.8805,1.8261 2.4936,4.39185 3.5861,5.7015 1.092,1.3095 2.7393,3.96254 3.6594,5.89529 1.107,2.32545 2.5497,4.3698 4.2648,6.04425 l 2.5915,2.5302 -1.398,3.11715 c -1.4685,3.27465 -2.2851,6.4638 -1.6537,6.4638 0.2055,0 0.753,-0.3435 1.2165,-0.765 z m 27.5793,-27.69164 c 0.03,-0.69 3.3373,-4.8816 3.8608,-4.8816 0.315,0 0.213,0.435 -0.249,1.071 -0.429,0.5895 -1.137,1.76805 -1.5751,2.6193 -0.7005,1.362 -2.0684,2.16255 -2.0363,1.191 z m -3.7326,-19.19895 c 0.12,-0.3435 0.489,-0.7185 0.834,-0.834 0.357,-0.12 0.5355,0.06 0.417,0.417 -0.12,0.3435 -0.489,0.7185 -0.834,0.834 -0.357,0.12 -0.5355,-0.06 -0.417,-0.417 z m -50.1741,41.21579 c 0.135,-1.1985 0.075,-1.2885 -0.5955,-0.738 -0.897,0.744 -1.0245,2.5827 -0.159,2.29875 0.327,-0.105 0.6675,-0.81 0.7545,-1.56045 z m 200.42,-5.03715 c 5.184,-1.551 6.7851,-2.3829 8.3229,-4.3245 0.876,-1.1055 1.8473,-1.8207 2.4735,-1.821 1.7154,-6e-4 6.7037,-2.6238 8.0642,-4.24065 0.702,-0.83399 1.5138,-2.41829 1.8037,-3.51959 0.3315,-1.257 1.302,-2.7996 2.61,-4.14555 3.2825,-3.37755 3.4419,-4.10445 3.3443,-15.24 -0.045,-5.7834 -0.291,-10.1514 -0.591,-10.7157 -0.2775,-0.5235 -0.609,-2.4858 -0.7365,-4.36005 -0.1545,-2.2542 -0.561,-3.94665 -1.2015,-5.00055 -0.5325,-0.876 -1.1115,-2.46825 -1.2855,-3.53805 -0.174,-1.0695 -0.7125,-2.5953 -1.1955,-3.3903 -1.1655,-1.9176 -5.9658,-5.55825 -8.351,-6.3342 -1.047,-0.3405 -3.2631,-1.476 -4.9231,-2.52135 -2.7005,-1.70145 -3.4775,-1.94595 -7.3818,-2.3229 -2.4,-0.231 -5.2211,-0.375 -6.2688,-0.3195 -1.047,0.06 -2.9153,-0.075 -4.1502,-0.276 -3.354,-0.564 -7.9648,1.0365 -15.3498,5.32665 -3.4195,1.9869 -6.6166,3.9504 -7.1046,4.36335 -1.446,1.2225 -4.8936,5.95335 -5.974,8.1945 -0.552,1.1445 -1.649,3.0564 -2.4383,4.248 -0.834,1.2585 -1.6149,3.255 -1.864,4.7625 -0.2355,1.428 -0.87,3.5604 -1.4085,4.7391 -1.3275,2.90325 -1.2555,5.51895 0.24,8.7867 0.6825,1.491 1.416,4.11795 1.6288,5.838 0.231,1.869 0.9705,4.2987 1.8354,6.03855 0.7965,1.6011 1.5872,3.7137 1.7576,4.6947 0.4335,2.4918 2.7343,5.76764 5.199,7.40009 1.146,0.759 2.6566,2.0616 3.3582,2.8953 0.702,0.834 1.7343,1.7622 2.2954,2.0634 1.254,0.6735 6.2244,1.7703 8.1639,1.80135 0.786,0.0126 2.5004,0.5535 3.81,1.2045 2.197,1.089 2.7558,1.1625 7.2222,0.9345 2.7924,-0.15 6.2184,-0.6585 8.0962,-1.221 z m 1.5885,-44.81984 c -0.6555,-0.255 -2.53,-0.3615 -4.1671,-0.237 -1.6371,0.12 -2.9766,0.1695 -2.9766,0.105 0,-0.075 0.7665,-0.711 1.7029,-1.4265 1.6215,-1.236 1.8048,-1.2705 3.8294,-0.7035 1.17,0.327 2.3491,1.0125 2.6218,1.5213 0.6345,1.185 0.456,1.317 -1.011,0.7455 z m 269.4572,45.78494 c 5.5302,-0.609 9.4839,-2.2062 11.6796,-4.71585 0.8355,-0.9555 2.4877,-2.097 3.676,-2.54055 2.4315,-0.9075 9.3915,-6.68384 11.6988,-9.70889 0.8355,-1.0965 1.9037,-3.0237 2.3729,-4.284 0.4695,-1.26 1.6572,-3.43275 2.6401,-4.82775 1.362,-1.9335 1.8581,-3.1785 2.0855,-5.23875 0.1635,-1.4865 0.7425,-3.94185 1.284,-5.4567 0.804,-2.24505 0.9255,-3.3453 0.66,-5.95305 -0.18,-1.7595 -0.369,-4.9461 -0.4215,-7.08135 -0.09,-3.5769 -0.2175,-4.0452 -1.6562,-5.95305 -2.7906,-3.7017 -4.0591,-5.8302 -5.1819,-8.69415 -1.455,-3.7128 -2.154,-4.42095 -6.1836,-6.27045 -2.2198,-1.0185 -3.8433,-2.1402 -4.6729,-3.228 -0.699,-0.9165 -1.8335,-2.03505 -2.5206,-2.48535 -1.5381,-1.008 -7.4198,-1.8126 -13.4916,-1.84635 -4.2378,-0.03 -4.7055,0.075 -6.6093,1.332 -2.007,1.329 -2.142,1.35 -6.6314,1.0335 -5.3265,-0.3765 -6.5854,-0.03 -9.3451,2.535 -2.6592,2.47635 -5.4216,4.54425 -7.3818,5.52645 -0.9165,0.459 -2.6552,1.8318 -3.8633,3.0501 -1.2075,1.218 -2.8813,2.72385 -3.7188,3.3459 -2.2777,1.69185 -3.0043,3.11535 -3.3868,6.63525 -0.1905,1.7532 -1.014,4.902 -1.8308,6.9975 -1.1865,3.04395 -1.485,4.5222 -1.4865,7.3515 0,4.05885 1.0485,8.82735 2.6286,11.9367 0.6,1.179 1.3035,3.32175 1.5665,4.7625 1.0605,5.82165 2.2735,7.9926 7.4202,13.27664 5.107,5.24385 6.732,6.26175 11.481,7.19295 3.9775,0.78 8.1063,1.8486 11.1919,2.8971 3.1518,1.071 2.3804,1.0305 7.9959,0.4125 z m -9.0675,-23.34074 c -1.5699,-0.915 -0.8235,-1.152 3.6697,-1.17 4.4741,-0.015 4.4909,-0.0132 3.212,0.831 -1.428,0.942 -5.5032,1.143 -6.8817,0.3405 z m -134.4216,22.01669 c 3.37,-0.351 4.1908,-0.6555 7.1436,-2.65965 0.8985,-0.609 2.5585,-1.2465 3.6897,-1.416 2.7465,-0.4125 4.4991,-1.54875 7.0461,-4.5705 1.1685,-1.386 3.0081,-3.39809 4.0896,-4.47269 1.0815,-1.074 2.5048,-2.81085 3.163,-3.8586 0.6585,-1.0485 2.2713,-3.0084 3.5847,-4.35705 2.6805,-2.7528 2.9843,-3.7305 3.8816,-12.4953 0.5445,-5.32335 0.01,-10.104 -1.8846,-16.7232 -0.486,-1.70265 -1.014,-3.8931 -1.173,-4.8678 -0.3195,-1.9566 -0.6525,-2.33325 -8.7707,-9.89595 -2.9523,-2.7504 -6.0634,-5.24445 -6.9136,-5.54235 -2.2946,-0.804 -10.9326,-1.76895 -15.285,-1.7076 -4.9563,0.075 -14.1785,1.71225 -16.1514,2.8764 -0.8505,0.5025 -2.3447,1.176 -3.3191,1.497 -0.975,0.321 -3.0301,1.5825 -4.5681,2.80185 -1.5379,1.2195 -3.7918,2.9673 -5.0085,3.8841 -5.7132,4.30515 -6.5527,5.3412 -7.1535,8.82705 -0.1785,1.038 -0.9465,3.86835 -1.704,6.288 -1.191,3.7986 -1.3845,5.1969 -1.4175,10.2393 -0.015,3.2121 0.1695,6.483 0.426,7.2687 0.4185,1.2855 3.4352,7.56675 6.819,14.19945 0.8175,1.60215 2.6117,3.69 5.1092,5.94494 4.1683,3.7635 5.8723,4.8513 7.6069,4.8558 0.615,0.002 1.7253,0.4365 2.4689,0.966 2.7682,1.97115 10.0285,3.9234 13.0827,3.5178 1.047,-0.135 3.4053,-0.408 5.2387,-0.5985 z m 8.3136,-39.48074 c -0.012,-0.72 -0.324,-2.1588 -0.693,-3.1965 -0.7875,-2.20995 -0.612,-2.7057 0.4005,-1.131 0.942,1.464 1.5658,5.6373 0.843,5.6373 -0.291,0 -0.54,-0.5895 -0.5505,-1.3095 z m 75.2496,30.84719 c 1.131,-0.6045 1.9237,-2.93159 1.9237,-5.64104 v -2.15505 l -1.167,1.095 c -1.1565,1.086 -2.6436,4.63004 -2.6436,6.29879 0,0.9705 0.5895,1.095 1.8863,0.402 z m 174.0346,-18.19754 c 0.441,-2.20515 0.3495,-7.05375 -0.135,-7.05375 -0.663,0 -1.0035,1.308 -0.7155,2.74905 0.15,0.72 -0.06,2.2575 -0.4635,3.41565 -0.399,1.158 -0.6225,2.27145 -0.498,2.4741 0.4665,0.7545 1.5286,-0.1755 1.8105,-1.58505 z m -668.8396,-9.435 c 0,-0.4605 -0.321,-1.1025 -0.714,-1.428 -0.6165,-0.5115 -0.714,-0.3135 -0.714,1.428 0,1.743 0.105,1.93995 0.714,1.428 0.393,-0.3255 0.714,-0.969 0.714,-1.428 z m 615.3268,-5.0316 c 0.57,-1.4985 0.588,-2.11215 0.06,-2.11215 -0.4155,0 -1.5052,2.0853 -1.5052,2.87985 0,0.9375 0.993,0.4065 1.44,-0.768 z m 3.9593,-7.20105 c 0.8175,-1.1595 1.2885,-2.3691 1.191,-3.0579 -0.15,-1.05 -0.303,-0.954 -1.9472,1.191 -1.7523,2.2869 -2.3761,4.3728 -1.191,3.9816 0.327,-0.105 1.203,-1.059 1.947,-2.11425 z m -589.5852,-1.485 c 0.69,-0.996 1.2555,-2.3754 1.2555,-3.06465 0,-1.97595 0.7275,-3.4104 3.0573,-6.0345 1.1925,-1.3425 2.3075,-3.02595 2.4789,-3.7419 0.645,-2.6964 2.9498,-7.0644 4.3946,-8.3301 0.948,-0.831 1.4985,-1.761 1.4985,-2.5311 0,-0.669 0.414,-2.22195 0.921,-3.44925 0.5055,-1.227 1.2615,-3.46275 1.6795,-4.9677 0.417,-1.50495 1.3815,-3.44445 2.141,-4.31009 0.7605,-0.8655 1.7854,-2.6358 2.2786,-3.93375 0.4935,-1.2975 1.9719,-3.85905 3.2859,-5.69115 1.314,-1.8321 2.8895,-4.18845 3.5009,-5.2362 0.612,-1.0485 1.5489,-2.39355 2.0833,-2.9907 0.639,-0.714 0.9345,-1.6314 0.864,-2.67885 -0.135,-2.0379 0.48,-3.6423 2.7636,-7.1892 1.0125,-1.57155 2.2082,-4.1433 2.6579,-5.715 0.819,-2.8608 3.5041,-8.40225 5.4816,-11.3106 0.579,-0.852 2.2873,-2.75655 3.7966,-4.2336 2.3361,-2.28615 2.8331,-3.08295 3.3428,-5.3607 0.3285,-1.4715 0.4695,-2.80515 0.3105,-2.9637 -0.2895,-0.2895 -4.3431,2.7603 -5.4572,4.1043 -0.3255,0.393 -0.969,1.77915 -1.4295,3.0807 -0.4875,1.3785 -1.6468,3.16755 -2.7781,4.28625 -2.4653,2.43795 -7.2635,9.44685 -8.1189,11.8596 -0.36,1.014 -1.9286,3.2064 -3.4869,4.8723 -2.7914,2.98395 -3.8274,5.12055 -3.8331,7.90545 -0.01,3.22815 -1.227,6.38235 -5.0411,13.02525 -2.2132,3.8553 -4.6503,7.7229 -5.4157,8.5947 -1.9968,2.27414 -3.8342,6.64034 -4.5206,10.74239 -0.165,0.99 -1.5895,3.65955 -3.3019,6.19125 -1.6559,2.4483 -3.3726,5.54895 -3.815,6.8904 -0.4425,1.341 -1.5463,3.6714 -2.4532,5.1774 -1.0275,1.7073 -1.649,3.35325 -1.649,4.3713 0,1.6869 1.149,4.443 1.8525,4.443 0.219,0 0.9645,-0.816 1.6547,-1.81155 z m 200.8004,-3.891 c 1.1475,-3.85425 1.218,-4.88535 0.24,-3.48765 -0.6555,0.936 -2.5967,6.4836 -2.6111,7.4625 0,0.228 0.3135,0.15 0.705,-0.174 0.3915,-0.324 1.1415,-2.0346 1.6668,-3.80055 z m 392.4185,-4.0326 c -0.015,-0.9645 -0.03,-0.966 -0.714,-0.06 -0.384,0.5085 -0.693,1.3665 -0.684,1.905 0.015,0.9645 0.03,0.966 0.714,0.06 0.384,-0.5085 0.693,-1.365 0.684,-1.905 z m -385.4525,-9.66 c 1.6714,-3.4641 3.039,-6.72495 3.039,-7.2462 0,-0.522 0.3375,-1.9401 0.7485,-3.15285 0.411,-1.212 0.636,-2.3178 0.498,-2.4558 -0.135,-0.135 -0.885,0.3825 -1.6604,1.158 -1.017,1.017 -1.4985,2.0616 -1.7317,3.74895 -0.5835,4.23375 -1.1655,5.75265 -3.0191,7.869 -1.182,1.35 -1.941,2.7654 -2.1424,3.99555 -0.171,1.047 -0.453,2.4408 -0.6255,3.0957 l -0.3135,1.191 1.0845,-0.9525 c 0.5955,-0.5235 2.4513,-3.78675 4.1229,-7.2507 z m 364.0364,0.705 c 0,-0.792 -0.12,-0.8535 -0.714,-0.36 -0.393,0.3255 -0.714,1.0215 -0.714,1.5453 0,0.7935 0.12,0.8535 0.714,0.36 0.393,-0.3255 0.714,-1.0215 0.714,-1.54545 z m -357.017,-16.43295 c 0.5145,-1.827 0.7875,-4.17449 0.3735,-3.21479 -0.906,2.10149 -1.392,4.04819 -1.011,4.04819 0.222,0 0.5085,-0.375 0.6375,-0.834 z m 368.2748,-2.73854 c 0.15,-0.393 0.135,-1.089 -0.045,-1.5477 -0.3015,-0.777 -0.369,-0.771 -1.0035,0.09 -0.3735,0.5085 -0.681,1.2045 -0.681,1.54785 0,0.86099 1.3965,0.78749 1.7328,-0.09 z m -46.6903,-0.975 c 0.168,-0.6675 0.1605,-1.3575 -0.015,-1.5339 -0.414,-0.414 -1.2045,0.8325 -1.215,1.9134 -0.011,1.27049 0.8865,0.99299 1.2315,-0.3795 z m 3.5238,-8.93595 c 0,-0.2625 -0.429,-0.09 -0.9525,0.3855 -0.5235,0.474 -0.9525,1.077 -0.9525,1.338 0,0.2625 0.429,0.09 0.9525,-0.3855 0.5235,-0.474 0.9525,-1.0755 0.9525,-1.338 z m 49.0537,-3.2772 c 0,-0.474 -0.192,-0.861 -0.4245,-0.861 -0.54,0 -1.008,1.203 -0.9885,2.5392 0.015,1.011 0.03,1.0125 0.714,0.105 0.384,-0.5085 0.699,-1.3125 0.699,-1.7859 z m -364.7603,-2.45055 c 1.239,-1.5072 2.3076,-6.50715 1.392,-6.50715 -0.8865,0 -2.5151,3.0228 -3.0645,5.68965 -0.639,3.10245 -0.3285,3.2541 1.6728,0.8175 z m 101.2931,0.045 c 0.27,-0.327 0.6435,-1.407 0.8295,-2.39805 0.186,-0.9915 1.482,-3.6276 2.883,-5.85825 1.401,-2.23065 2.6852,-4.84845 2.855,-5.8173 0.1695,-0.969 0.8415,-2.7261 1.4925,-3.9048 1.224,-2.2179 2.5195,-6.4335 2.5195,-8.2026 v -1.0125 l -1.071,1.02 c -1.6239,1.545 -6.649,11.69985 -9.4758,19.14915 -1.8015,4.7475 -1.8211,9.19095 -0.03,7.02465 z m 80.8077,-6.6675 c 0.4395,-1.113 1.628,-2.88135 2.6396,-3.9291 1.0125,-1.0485 1.9923,-2.52735 2.1792,-3.28815 0.2985,-1.215 -0.075,-0.9675 -3.0642,2.0274 -3.0833,3.08925 -3.4038,3.58965 -3.4038,5.31225 0,2.4657 0.645,2.41785 1.6492,-0.12 z m -410.573,-2.14305 c 4.0879,-4.71825 5.3991,-6.3288 6.1462,-7.5498 0.465,-0.759 1.5659,-2.50965 2.4477,-3.89025 0.882,-1.3815 1.7399,-3.4167 1.9065,-4.52445 0.1665,-1.107 0.9405,-3.27645 1.7195,-4.8195 0.93,-1.8423 1.416,-3.52365 1.416,-4.8969 0,-2.58165 1.0455,-5.1813 2.8413,-7.0614 0.75,-0.786 1.6143,-2.3931 1.9198,-3.5718 0.306,-1.179 1.0425,-3.00045 1.6394,-4.0482 1.077,-1.8939 1.9338,-5.4771 1.308,-5.4765 -0.18,1.5e-4 -1.5584,1.377 -3.063,3.0594 -2.1672,2.42355 -2.8466,3.576 -3.2691,5.54625 -0.381,1.7769 -1.0605,3.0594 -2.3805,4.49115 -1.0155,1.1025 -2.1735,2.9289 -2.5725,4.05945 -0.849,2.4057 -3.425,6.4053 -5.18,8.0418 -0.6765,0.6315 -1.365,1.86345 -1.5291,2.73825 -0.2415,1.2885 -0.09,1.75485 0.768,2.4537 1.5006,1.215 0.9855,2.3853 -2.4961,5.6769 -4.7582,4.4979 -6.5601,6.4425 -6.5601,7.07955 0,1.1055 2.1321,3.96135 2.9728,3.98175 0.456,0.0111 1.341,-0.5685 1.9646,-1.29 z m 582.1631,-14.11785 c 1.302,-1.4085 4.0083,-6.4989 4.6272,-8.7021 0.5265,-1.8762 -0.714,-1.7007 -2.794,0.3945 -1.575,1.587 -2.1272,2.56185 -2.3834,4.20855 -0.183,1.179 -0.9615,3.2574 -1.7293,4.6194 -0.768,1.362 -1.5102,3.39795 -1.6499,4.52445 l -0.2535,2.04795 1.4085,-2.8068 c 0.774,-1.5438 2.0234,-3.4725 2.7755,-4.28625 z m -162.0336,-0.9735 c 0.99,-2.5935 0.7305,-3.86415 -0.429,-2.09475 -0.978,1.4925 -1.6662,4.9965 -0.8865,4.515 0.282,-0.174 0.8745,-1.263 1.317,-2.42025 z m 171.9167,-19.79445 c 0.9675,-1.4415 1.8672,-3.36945 1.9981,-4.28625 0.21,-1.4685 -0.015,-1.2315 -1.9536,2.00415 -1.206,2.01915 -2.1919,4.03725 -2.1919,4.4847 0,0.999 -0.013,1.0125 2.1474,-2.2026 z m -192.6548,-1.5759 c -0.01,-0.849 -0.09,-0.9105 -0.4695,-0.3285 -0.606,0.9375 -0.606,2.04165 0,1.6668 0.2625,-0.162 0.4725,-0.7635 0.4695,-1.338 z m 4.1847,-8.69295 c -0.159,-0.159 -0.5475,0.21 -0.861,0.822 -0.5445,1.0635 -0.5325,1.0755 0.291,0.291 0.474,-0.453 0.7305,-0.9525 0.57,-1.113 z m 195.2108,-2.94705 c 2.2507,-5.40854 4.1823,-8.76389 6.5527,-11.38289 2.5959,-2.8683 2.6451,-2.9754 2.3505,-5.12385 -0.3705,-2.70165 -0.747,-2.47605 -3.846,2.3037 -2.7574,4.25295 -3.9187,6.79035 -3.9394,8.607 -0.01,0.786 -0.513,2.2986 -1.122,3.3618 -0.6075,1.06349 -1.2285,2.40254 -1.3785,2.97644 -0.453,1.7301 0.585,1.173 1.383,-0.7425 z m -192.7758,-1.98705 c 0.7515,-1.55114 1.8028,-3.43364 2.3367,-4.18319 0.534,-0.75 1.1205,-2.16345 1.3035,-3.14175 0.1845,-0.9855 1.377,-3.19245 2.6713,-4.9455 2.5317,-3.4296 2.6003,-3.6171 3.0371,-8.30445 0.4605,-4.941 -1.7285,-9.2517 -2.2679,-4.46625 -0.1605,1.422 -0.846,3.0192 -2.0355,4.74735 -1.4835,2.15295 -1.8487,3.1653 -2.1085,5.83485 -0.18,1.845 -0.762,4.08975 -1.3605,5.23515 -0.576,1.1025 -1.0455,2.29875 -1.0455,2.6577 0,0.3585 -0.5355,1.70685 -1.188,2.9955 -1.044,2.0574 -1.6886,6.39104 -0.951,6.39104 0.135,0 0.8565,-1.269 1.608,-2.82045 z m 245.0149,-1.93019 c 1.0665,-2.7315 1.2405,-3.747 0.9795,-5.715 -0.4485,-3.3765 -1.4055,-3.0501 -2.8214,0.9615 -0.4035,1.1445 -1.371,3.0741 -2.1495,4.28685 -2.0047,3.12389 -1.8925,3.78869 0.639,3.78869 h 2.0543 z m -504.1183,1.1685 c 0.135,-1.1985 0.075,-1.2885 -0.5955,-0.738 -0.897,0.744 -1.0245,2.58269 -0.159,2.29874 0.327,-0.105 0.6675,-0.81 0.7545,-1.56044 z M 8848.1532,203.886 c 1.086,-2.0994 0.5265,-2.84055 -0.672,-0.8895 -1.0755,1.7508 -1.362,3.12045 -0.5475,2.6172 0.264,-0.1635 0.813,-0.9405 1.2195,-1.72725 z m 553.7954,-3.54825 c 0.159,-0.414 0.2895,-1.101 0.2895,-1.524 0,-0.9885 -0.735,-0.231 -1.1685,1.206 -0.3645,1.2045 0.4305,1.4925 0.8805,0.318 z m -421.5133,-9.06165 c 0.57,-0.684 1.7727,-2.0937 2.6738,-3.13425 1.137,-1.3125 1.7388,-2.57265 1.9672,-4.1154 0.1815,-1.2225 0.492,-2.9736 0.69,-3.8904 l 0.3615,-1.66695 -1.5535,1.428 c -0.855,0.786 -1.868,2.1789 -2.2524,3.0957 -0.384,0.9165 -1.353,2.35125 -2.1518,3.1878 -1.1145,1.167 -1.5067,2.082 -1.6842,3.92895 -0.267,2.7723 0.3195,3.1224 1.9499,1.1655 z m -30.8946,-0.9585 c 0.972,-0.3735 2.1686,-2.64585 2.1516,-4.08585 -0.012,-1.0155 -0.135,-0.9645 -1.6668,0.684 -0.9105,0.978 -1.654,2.2107 -1.654,2.7384 0,1.059 0.06,1.0905 1.1685,0.663 z m 484.6563,-3.55425 c 1.8616,-1.4745 2.3854,-3.14805 1.4475,-4.626 -0.501,-0.789 -0.9375,-0.276 -2.6327,3.10245 -1.8105,3.60675 -1.6714,3.78555 1.185,1.52355 z m -476.8959,-11.4399 c 1.113,-1.3005 2.0241,-2.58315 2.0241,-2.85195 0,-0.2685 1.035,-1.60125 2.3,-2.9607 1.2645,-1.359 3.0711,-3.8649 4.0138,-5.5674 0.942,-1.70265 2.7159,-4.06005 3.9405,-5.23875 1.3995,-1.347 2.8065,-3.4017 3.7887,-5.5335 0.8595,-1.8648 1.8015,-3.53835 2.094,-3.7191 0.2925,-0.1815 0.531,-0.7065 0.531,-1.167 0,-0.726 -0.4575,-0.834 -3.4234,-0.7995 l -3.4236,0.045 -0.843,2.3754 c -0.4635,1.3065 -0.8535,2.9112 -0.864,3.5661 -0.03,1.7313 -1.5701,3.99045 -3.5523,5.2155 -1.9722,1.2195 -3.1332,3.1452 -3.1332,5.1987 0,0.777 -0.711,2.7702 -1.5791,4.42905 -0.8685,1.65885 -1.8711,3.7662 -2.2281,4.683 -0.357,0.9165 -1.254,2.44785 -1.9929,3.4023 -0.7395,0.954 -1.3335,2.13315 -1.323,2.6193 0.015,0.7785 0.12,0.753 0.834,-0.222 0.447,-0.6075 1.7231,-2.16885 2.8362,-3.46875 z m 120.3079,1.83585 c 0.6465,-0.852 1.3275,-2.4051 1.5156,-3.45285 0.4305,-2.40615 0.8415,-3.1986 3.3318,-6.4293 1.11,-1.4415 2.396,-3.36945 2.8563,-4.28625 0.951,-1.89405 3.8378,-5.43495 6.648,-8.1552 8.954,-8.66655 9.3921,-9.6501 3.3527,-7.52745 -1.5432,0.543 -3.2174,0.879 -3.7205,0.747 -1.4415,-0.3765 -2.1679,0.135 -2.5111,1.7595 -0.1755,0.8295 -0.8535,2.57955 -1.5092,3.8892 -0.6555,1.3095 -1.501,3.4095 -1.8796,4.66635 -0.4275,1.422 -1.5449,3.23085 -2.9555,4.78845 -1.7272,1.90725 -2.4697,3.23445 -3.1182,5.5731 -0.468,1.68825 -1.257,3.73605 -1.7533,4.5507 -1.221,2.00325 -2.3952,5.4246 -1.8627,5.4246 0.237,0 0.96,-0.696 1.6057,-1.54785 z m 139.0823,-3.05505 c 2.3565,-2.3904 2.446,-2.60145 1.6971,-4.00095 -0.957,-1.78785 -1.9059,-1.059 -3.8835,2.98485 -0.936,1.9131 -1.113,3.23775 -0.4335,3.23775 0.2355,0 1.4145,-0.999 2.6194,-2.22165 z m 220.9873,0.963 c 0.399,-1.0395 -0.135,-1.5219 -0.693,-0.633 -0.564,0.891 -0.5745,1.4145 -0.03,1.4145 0.234,0 0.561,-0.3525 0.726,-0.783 z m -568.4189,-4.5099 c 0.8865,-1.068 2.1415,-3.03795 2.7879,-4.37805 1.3845,-2.8698 10.4961,-12.62895 13.9843,-14.9781 1.2825,-0.864 2.3321,-1.85685 2.3321,-2.20695 0,-1.0695 -4.7102,-2.28735 -6.6644,-1.72335 -0.915,0.264 -2.5705,0.48 -3.6787,0.48 -1.7865,0 -2.1086,0.1755 -2.8401,1.54785 -0.4545,0.852 -0.9705,2.83365 -1.1475,4.4052 -0.345,3.05055 -1.299,6.1281 -3.1167,10.04895 -0.6195,1.3365 -1.1265,2.8476 -1.1265,3.35955 0,0.5115 -0.639,1.9371 -1.419,3.1671 -1.7429,2.748 -1.284,2.8917 0.888,0.2775 z m 123.5836,0.1725 c 0.375,-0.72 1.2285,-1.8207 1.8968,-2.445 0.792,-0.741 1.4055,-2.04975 1.761,-3.76365 0.423,-2.04075 1.0125,-3.12795 2.6373,-4.86435 1.182,-1.2645 2.2272,-2.91345 2.4033,-3.79425 0.171,-0.8565 1.365,-2.87145 2.6541,-4.47675 2.2818,-2.84325 2.3139,-2.92695 1.239,-3.2295 -2.7536,-0.7755 -2.9747,-0.609 -5.1107,3.84885 -1.1205,2.34 -2.7912,5.13375 -3.7111,6.20835 -0.9195,1.074 -1.9548,2.85705 -2.3001,3.9609 -0.345,1.104 -1.284,3.77505 -2.0864,5.93595 -1.152,3.1026 -1.3125,3.9291 -0.762,3.9291 0.384,0 1.0035,-0.5895 1.3785,-1.3095 z m 448.4468,-3.03285 c 0,-0.2625 -0.2145,-0.3435 -0.4755,-0.1815 -0.2625,0.162 -0.477,0.5085 -0.477,0.771 0,0.2625 0.2145,0.3435 0.477,0.1815 0.2625,-0.162 0.4755,-0.5085 0.4755,-0.771 z m -138.172,-1.062 c 0.2925,-0.354 0.741,-1.7343 0.993,-3.0687 0.2715,-1.428 1.104,-3.3066 2.0253,-4.56795 0.861,-1.1775 2.2083,-3.04065 2.994,-4.13895 0.786,-1.098 2.1254,-2.95605 2.9766,-4.1283 0.852,-1.173 1.5479,-2.29725 1.5479,-2.50005 0,-0.4635 -5.9982,-1.131 -6.6345,-0.738 -0.2745,0.1695 -0.363,1.52355 -0.213,3.2511 0.2355,2.71395 0.12,3.23805 -1.4475,6.29415 -0.9375,1.8336 -1.7042,3.6024 -1.7049,3.9309 -9e-4,0.3285 -0.4305,1.3965 -0.954,2.3742 -1.446,2.697 -1.134,5.15985 0.417,3.29175 z m -267.9827,-8.0661 c 0.702,-0.6525 1.513,-2.06265 1.8013,-3.13335 0.288,-1.071 1.377,-2.93235 2.4198,-4.137 1.0425,-1.2045 1.7732,-2.3883 1.6235,-2.63055 -0.15,-0.2415 -0.987,-0.441 -1.8597,-0.441 -1.326,0 -2.0163,0.4635 -4.1898,2.81085 -1.805,1.94955 -2.7653,3.4575 -3.1337,4.9206 -0.2925,1.1595 -0.8475,2.71965 -1.2345,3.46515 -0.387,0.7455 -0.5955,1.53015 -0.4635,1.74345 0.3135,0.5085 3.4142,-1.0905 5.0367,-2.59875 z m -183.2073,-0.327 c 0.171,-0.7785 0.9135,-2.01105 1.65,-2.7384 3.3004,-3.2601 6.1338,-5.67195 7.5418,-6.42015 0.84,-0.447 1.5266,-1.128 1.5266,-1.5147 0,-1.092 -1.9077,-1.1475 -4.5245,-0.135 -1.8942,0.735 -3.7279,0.9405 -8.9659,1.0065 l -6.5847,0.075 -1.3845,2.3517 c -1.9479,3.30915 -1.8714,3.49515 1.4175,3.44865 3.3844,-0.045 5.4621,0.99 7.1439,3.5676 1.392,2.13495 1.7739,2.196 2.1796,0.3495 z m 548.9939,-1.87275 c 0.9795,-1.536 2.7257,-4.05045 3.8813,-5.5878 2.9884,-3.9756 2.9901,-4.52745 0.015,-5.20125 -1.7828,-0.4035 -2.8487,-0.4095 -4.0481,-0.015 l -1.6282,0.5265 -0.075,5.83545 c -0.045,3.2094 -0.192,6.15615 -0.342,6.5484 -0.618,1.6101 0.5235,0.516 2.1909,-2.09925 z m -121.5592,-8.5317 c 0,-0.3795 -0.4215,-0.5685 -1.0695,-0.477 -0.882,0.12 -1.0935,0.4905 -1.1955,2.0571 l -0.12,1.905 1.194,-1.428 c 0.657,-0.786 1.194,-1.7115 1.1955,-2.0571 z m -341.826,0.462 c 1.8044,-1.50705 0.3975,-2.03895 -2.0478,-0.774 -0.828,0.429 -1.4055,1.1085 -1.4055,1.6566 0,0.8325 0.135,0.8715 1.3095,0.372 0.72,-0.3075 1.6848,-0.8715 2.1432,-1.254 z m 228.4833,0.399 c 0.438,-0.8175 0.3315,-1.026 -0.729,-1.428 -0.6825,-0.2595 -1.6956,-0.4725 -2.2515,-0.4725 -0.951,0 -0.9285,0.09 0.3585,1.4295 1.6152,1.68585 1.9407,1.74435 2.6218,0.471 z"
       id="vctrly-chalky-icon-bubble-chat" /></g></svg>
