<?xml version="1.0" encoding="UTF-8" standalone="no"?>
<svg
   width="2820.7656"
   height="3294.8022"
   viewBox="0 0 2820.7656 3294.8023"
   version="1.1"
   xml:space="preserve"
   style="clip-rule:evenodd;fill-rule:evenodd;stroke-linecap:round;stroke-linejoin:round;stroke-miterlimit:1.5"
   id="svg1780"
   xmlns="http://www.w3.org/2000/svg"
   xmlns:svg="http://www.w3.org/2000/svg"><defs
   id="defs1780" />
    <g
   id="vctrly-notion-regards-deal-man"
   transform="matrix(2.0003049,0,0,2.0006295,-24204.265,-12059.478)"
   style="stroke-width:9.99766;stroke-dasharray:none"><path
     d="m 13084.398,6183.521 c -33.1,28.61 -67.1,10.11 -36.9,-37.13 -37.4,0.66 -31.2,-43.91 20.1,-70.12 -9.9,-19.65 29.4,-36.34 71.7,-16.44 31,-14.16 97.6,-14.02 86.5,18.78 25.1,4.86 79.8,29.98 54.2,56.65 50.8,31.87 36.7,89.26 -16.8,94.66 -1.1,-5.97 -4.1,-10.57 -9.4,-11.29 -12.7,-1.74 -15.9,15.13 -23.1,14.19 -7.2,-0.94 -9,-16.88 -8.4,-23 -25,1.24 -40,-22.83 -44.6,-33.06 -33.6,16.23 -66.1,14.97 -88,-17.6 -2.2,8.2 -3.9,16.34 -5.3,24.36 z"
     style="fill:none;stroke:#000000;stroke-width:9.99766;stroke-dasharray:none"
     id="path20" /><path
     d="m 13235.698,6323.581 c 36,53.02 261.8,469.75 269.5,487.39 5.6,12.86 -71.2,17.91 -81.1,17.11 -9.9,-0.8 -8.8,-12.23 -18.1,-11.33 -9.2,0.9 -205.8,42.8 -212.7,44.82 -3.7,1.08 -0.4,-136.82 12.4,-272.96 10.9,-117.17 31.5,-232.3 30,-265.03 z"
     id="path22"
     style="stroke-width:9.99766;stroke-dasharray:none" /><path
     d="m 13170.598,6435.501 c 6.3,57.7 24,209.83 10.1,427.72 -18.7,7.84 -73.9,17.13 -71.5,9.09 2.3,-8.05 61.4,-436.81 61.4,-436.81 z"
     id="path23"
     style="stroke-width:9.99766;stroke-dasharray:none" /><path
     d="m 13164.798,6399.361 c 0.2,2.43 0.5,4.82 0.8,7.1 -3.6,20.47 -33,227.75 -52.3,363.9 -20.5,21.39 -91.8,86.2 -102.3,97.97 -8.4,9.51 -81.2,-78.09 -104.1,-120 19.9,-25.82 123.3,-145.47 150.2,-184.5 59.5,-86.54 96.7,-160.83 107.7,-164.47 z"
     id="path24"
     style="stroke-width:9.99766;stroke-dasharray:none" /><path
     d="m 13101.398,6885.281 c 35.9,4.4 286.2,-39.16 302.2,-45.38 17.3,-6.73 -9.3,58.03 -3.4,60.91 14,6.72 16.8,-16.75 22.9,-15.26 6.2,1.49 -12.8,54.36 -8,59.58 4.8,5.22 30.8,-57.41 36.3,-56.61 5.4,0.81 -5.7,58.55 -0.1,58.34 0.6,-0.02 1.3,-0.9 2,-2.42 2.1,50.74 28.5,564.29 26,585.73 -1.1,10.36 -15.7,15.84 -93.9,18.46 -48.2,1.62 -98,1.69 -99.3,-4.87 -2.5,-12.68 -8.5,-211.13 -8.5,-211.13 0,0 -13.3,187 -15.4,211.46 -0.9,11.61 -41.4,13.77 -104.8,13.04 -106.5,-1.23 -119.9,-13.18 -118.6,-29.51 2.4,-31.09 61.2,-622.59 62.6,-642.34 z"
     id="path25"
     style="stroke-width:9.99766;stroke-dasharray:none" /><path
     d="m 12439.698,6237.731 c -62.8,-1.49 -133.1,-38.13 -105.6,-115.37 25.4,-70.96 121.8,-60.52 148,-53 50.2,-58.59 169.3,-45.89 169.3,32.6 0.1,50.22 -73.4,65.97 -109.2,63.97 -9,32.26 -36.4,59.92 -46.9,62.69 -5,1.31 -13.2,-18.26 -24.7,-23.12 -12.9,-5.45 -27.4,4.53 -30.2,16.5 -1.3,5.25 -1.7,10.61 -0.7,15.73 z"
     id="path26"
     style="stroke-width:9.99766;stroke-dasharray:none" /><path
     d="m 12190.198,6880.691 c 96.7,30.79 244.8,67.5 271.5,62.94 0.6,40.32 31.1,566.79 31.4,596.4 0.1,10.56 -20.1,16.12 -103.2,24.28 -127.5,12.53 -142.7,-1.29 -143.5,-11.67 -1.3,-18.91 -51.8,-634.19 -56.2,-671.95 z"
     id="path27"
     style="stroke-width:9.99766;stroke-dasharray:none" /><path
     d="m 12545.998,6232.021 c 7.2,0.78 15.8,0.63 23.2,-7.11"
     style="fill:none;stroke:#000000;stroke-width:9.99766;stroke-dasharray:none"
     id="path29" /><path
     d="m 12552.898,6194.501 c 4.8,-1.89 13.6,-1.38 18.9,5.92"
     style="fill:none;stroke:#000000;stroke-width:9.99766;stroke-dasharray:none"
     id="path1520" /><path
     d="m 12464.098,6261.951 c -23.9,-8.94 -27.3,-24.84 -23.7,-39.95 2.8,-11.97 17.3,-21.95 30.2,-16.5 11.5,4.86 19.7,24.43 24.7,23.12 10.5,-2.77 37.9,-30.43 46.9,-62.69 35.8,2 109.3,-13.75 109.2,-63.97 0,-78.49 -119.1,-91.19 -169.3,-32.6 -26.2,-7.52 -122.6,-17.96 -148,53 -27.5,77.24 42.8,113.88 105.6,115.37"
     style="fill:none;stroke:#000000;stroke-width:9.99766;stroke-dasharray:none"
     id="path1521" /><path
     d="m 12494.698,6328.231 c 23.9,9.31 65.2,-18.13 80.2,-56.34 3.7,-9.36 20.8,5.23 21,-21.27 0.1,-25.1 -2.1,-57.91 -9.3,-89.27"
     style="fill:none;stroke:#000000;stroke-width:9.99766;stroke-dasharray:none"
     id="path1522" /><path
     d="m 12532.998,6288.881 c 3.7,9.54 14.9,13.22 24.6,11.43"
     style="fill:none;stroke:#000000;stroke-width:9.99766;stroke-dasharray:none"
     id="path1523" /><path
     d="m 12480.298,6408.601 c -1.2,-8.38 2.7,-41 -1.6,-50.36 -4.4,-9.36 -28.5,-37.43 -39.5,-63.43 -3.4,-8 -324.1,530.5 -333.8,548.95 -9.6,18.44 358,118.51 360.5,97.32 2.4,-21.18 9.8,-168.64 13.2,-193.48"
     style="fill:none;stroke:#000000;stroke-width:9.99766;stroke-dasharray:none"
     id="path1524" /><path
     d="m 12407.498,6695.111 c 40.6,29.28 242.3,181.16 297.8,201.61 6,2.21 51.5,-122.27 40.1,-130.81 -22.8,-17.06 -226.4,-243.87 -294.5,-346.34"
     style="fill:none;stroke:#000000;stroke-width:9.99766;stroke-dasharray:none"
     id="path1525" /><path
     d="m 12489.698,6434.011 c 23.6,25.37 191.3,220.89 275,306.86 4.9,5.07 -0.7,22.94 -0.7,22.94"
     style="fill:none;stroke:#000000;stroke-width:9.99766;stroke-dasharray:none"
     id="path1526" /><path
     d="m 12816.698,6758.671 c -13.6,-1.24 -37.5,-3.54 -50,-8.75"
     style="fill:none;stroke:#000000;stroke-width:9.99766;stroke-dasharray:none"
     id="path1527" /><path
     d="m 12746.498,6780.881 c 46.7,13.67 125.2,4.28 127.7,12.18 2.5,7.9 -23.1,17.76 -32.9,19.02"
     style="fill:none;stroke:#000000;stroke-width:9.99766;stroke-dasharray:none"
     id="path1528" /><path
     d="m 12839.198,6821.521 c 38.9,2.78 77.4,-7.05 81,0.88 3.7,7.92 -52.6,19.46 -52.6,19.46 0,0 56.7,-2.31 57.6,6.84 1,9.14 -59.9,13.39 -61.2,13.35 -1.4,-0.03 52.7,4.41 50.4,14.07 -2.3,9.66 -44.2,6.32 -44.2,6.32"
     style="fill:none;stroke:#000000;stroke-width:9.99766;stroke-dasharray:none"
     id="path1529" /><path
     d="m 12733.698,6875.741 c 50.7,18.99 154.1,23.18 158.6,17.71 4.4,-5.47 -15.1,-10.62 -15.1,-10.62"
     style="fill:none;stroke:#000000;stroke-width:9.99766;stroke-dasharray:none"
     id="path1530" /><path
     d="m 12190.198,6880.691 c 4.4,37.76 54.9,653.04 56.2,671.95 0.8,10.38 16,24.2 143.5,11.67 83.1,-8.16 103.3,-13.72 103.2,-24.28 -0.3,-29.61 -30.8,-556.08 -31.4,-596.4"
     style="fill:none;stroke:#000000;stroke-width:9.99766;stroke-dasharray:none"
     id="path1531" /><path
     d="m 12343.998,7651.741 c -9.2,-9.6 -8.1,-21.04 -7.8,-83.27"
     style="fill:none;stroke:#000000;stroke-width:9.99766;stroke-dasharray:none"
     id="path1532" /><path
     d="m 12379.898,7647.991 c -11.3,-6.1 -18.1,-18.84 -15.4,-81.4"
     style="fill:none;stroke:#000000;stroke-width:9.99766;stroke-dasharray:none"
     id="path1533" /><path
     d="m 12397.998,7655.071 c 15.4,5.79 155,2.03 171.7,-3.33 14.3,-4.58 -3.7,-21.32 -27.2,-25.77 -29,-5.52 -82.9,-15.89 -91.3,-30.78 -6,-10.71 -6.9,-23.16 -7.9,-36.92"
     style="fill:none;stroke:#000000;stroke-width:9.99766;stroke-dasharray:none"
     id="path1534" /><path
     d="m 13094.498,6198.001 c 23,-7 36.8,37.46 39.5,78.49"
     style="fill:none;stroke:#000000;stroke-width:9.99766;stroke-dasharray:none"
     id="path1535" /><path
     d="m 13155.298,6206.991 c 6.9,-5.54 18.3,-8.47 30.7,-5.17"
     style="fill:none;stroke:#000000;stroke-width:9.99766;stroke-dasharray:none"
     id="path1536" /><path
     d="m 13135.498,6299.721 c 6.3,1.82 15.7,0.05 19.8,-6.59"
     style="fill:none;stroke:#000000;stroke-width:9.99766;stroke-dasharray:none"
     id="path1537" /><path
     d="m 13232.298,6270.741 c 3.1,-5.31 13.1,2.98 25.2,-12.93 8.4,-10.95 9.6,-37.36 -3.7,-39.18 -12.7,-1.74 -15.9,15.13 -23.1,14.19 -7.2,-0.94 -9,-16.88 -8.4,-23 -25,1.24 -40,-22.83 -44.6,-33.06 -33.6,16.23 -66.1,14.97 -88,-17.6 -19.3,72.83 -4.5,140.48 21,165.03 32.4,31.33 85,9.07 121.6,-53.45 z"
     style="fill:none;stroke:#000000;stroke-width:9.99766;stroke-dasharray:none"
     id="path1538" /><ellipse
     cx="12672.851"
     cy="7061.4673"
     rx="4.7729979"
     ry="10.572807"
     id="ellipse1538"
     transform="rotate(-3.6983935)"
     style="stroke-width:9.99766;stroke-dasharray:none" /><ellipse
     cx="12741.601"
     cy="7063.7666"
     rx="4.7729979"
     ry="10.572807"
     id="ellipse1539"
     transform="rotate(-3.6983935)"
     style="stroke-width:9.99766;stroke-dasharray:none" /><path
     d="m 13084.398,6183.521 c -33.1,28.61 -67.1,10.11 -36.9,-37.13 -37.4,0.66 -31.2,-43.91 20.1,-70.12 -9.9,-19.65 29.4,-36.34 71.7,-16.44 31,-14.16 97.6,-14.02 86.5,18.78 25.1,4.86 79.8,29.98 54.2,56.65 50.8,31.87 36.7,89.26 -16.8,94.66"
     style="fill:none;stroke:#000000;stroke-width:9.99766;stroke-dasharray:none"
     id="path1539" /><path
     d="m 13113.298,6770.361 c -20.5,21.39 -91.8,86.2 -102.3,97.97 -10.4,11.76 -119.3,-124.93 -110.5,-140.18 8.8,-15.25 122.2,-136.69 134.3,-159.29 12.1,-22.59 109.6,-189.23 120.5,-200.71 10.9,-11.49 7.2,62.54 17,55.55 9.8,-6.99 12.7,-36.32 18.2,-42.28 5.5,-5.95 15.2,41.38 15.2,41.38"
     style="fill:none;stroke:#000000;stroke-width:9.99766;stroke-dasharray:none"
     id="path1540" /><path
     d="m 13165.598,6406.461 c -5.1,28.68 -60.6,423.98 -68.4,476.76 -2.1,13.79 289.1,-36.59 306.4,-43.32 17.3,-6.73 -9.3,58.03 -3.4,60.91 14,6.72 16.8,-16.75 22.9,-15.26 6.2,1.49 -12.8,54.36 -8,59.58 4.8,5.22 30.8,-57.41 36.3,-56.61 5.4,0.81 -5.7,58.55 -0.1,58.34 5.5,-0.21 13.3,-61.31 18.5,-62.95 5.2,-1.63 8.4,48.96 9,53.29 1,8.55 8.4,3.46 8.4,3.46"
     style="fill:none;stroke:#000000;stroke-width:9.99766;stroke-dasharray:none"
     id="path1541" /><path
     d="m 13492.498,6912.591 c 0.7,6.85 0.7,27.18 6.6,26.75 5.9,-0.42 9.8,-74.21 -8.6,-118.45"
     style="fill:none;stroke:#000000;stroke-width:9.99766;stroke-dasharray:none"
     id="path1542" /><path
     d="m 13169.198,6422.801 c 4.4,44.89 26.6,203.92 11.5,440.42 -18.7,7.84 -73.9,17.13 -71.5,9.09 2.3,-8.05 61.4,-436.81 61.4,-436.81"
     style="fill:none;stroke:#000000;stroke-width:9.99766;stroke-dasharray:none"
     id="path1543" /><path
     d="m 13183.198,6589.851 c 6,-52.76 34.6,-281.18 48.3,-271.66 13.7,9.53 265.6,474.13 273.7,492.78 5.6,12.86 -71.2,17.91 -81.1,17.11 -9.9,-0.8 -8.8,-12.23 -18.1,-11.33 -9.2,0.9 -205.8,42.8 -212.7,44.82 -3.7,1.08 -0.4,-136.82 12.4,-272.96 10.9,-117.17 31.5,-232.3 30,-265.03"
     style="fill:none;stroke:#000000;stroke-width:9.99766;stroke-dasharray:none"
     id="path1544" /><path
     d="m 13101.398,6885.281 c -1.4,19.75 -60.2,611.25 -62.6,642.34 -1.3,16.33 12.1,28.28 118.6,29.51 63.4,0.73 103.9,-1.43 104.8,-13.04 2.1,-24.46 15.4,-211.46 15.4,-211.46 0,0 6,198.45 8.5,211.13 1.3,6.56 51.1,6.49 99.3,4.87 78.2,-2.62 92.8,-8.1 93.9,-18.46 2.5,-21.44 -23.9,-534.99 -26,-585.73"
     style="fill:none;stroke:#000000;stroke-width:9.99766;stroke-dasharray:none"
     id="path1545" /><path
     d="m 13139.098,7579.851 c 2.3,16.52 3.6,49.52 -7.9,55.25 -11.5,5.74 -146.7,29.66 -156.2,18.07 -13.7,-16.79 69.4,-47.24 82.6,-61.33 16.9,-17.98 19.6,-39.55 19.6,-39.55"
     style="fill:none;stroke:#000000;stroke-width:9.99766;stroke-dasharray:none"
     id="path1546" /><path
     d="m 13315.698,7549.171 c -0.7,20.54 0.3,51.58 6.3,63.36 5.1,9.96 74.8,58.84 92.3,57.13 19.9,-1.95 25.6,-21.96 11.9,-37.19 -11.1,-12.26 -33,-30.32 -37.7,-41.37 -3.4,-8.04 -3.9,-23.33 -3.7,-42.45"
     style="fill:none;stroke:#000000;stroke-width:9.99766;stroke-dasharray:none"
     id="path1547" /><path
     d="m 12819.598,6781.141 c -6.6,-2.84 -3.5,-6.42 14.6,-10.6 21.8,-5.06 54.4,-14.44 72.7,-22.21"
     style="fill:none;stroke:#000000;stroke-width:9.99766;stroke-dasharray:none"
     id="path1548" /><path
     d="m 12906.898,6748.331 c 19.9,-25.82 123.3,-145.47 150.2,-184.5 59.5,-86.54 96.7,-160.83 107.7,-164.47"
     style="fill:none;stroke:#000000;stroke-width:9.99766;stroke-dasharray:none"
     id="path1549" /><path
     d="m 12934.998,6847.561 c 5.1,-1.92 21.5,-13.4 28.8,-20.61"
     style="fill:none;stroke:#000000;stroke-width:9.99766;stroke-dasharray:none"
     id="path1550" /></g>
</svg>
