<?xml version="1.0" encoding="UTF-8" standalone="no"?>
<!-- Created with Inkscape (http://www.inkscape.org/) -->

<svg
   width="788.98584mm"
   height="598.43225mm"
   viewBox="0 0 788.98587 598.43226"
   version="1.1"
   id="svg1"
   xml:space="preserve"
   xmlns="http://www.w3.org/2000/svg"
   xmlns:svg="http://www.w3.org/2000/svg"><defs
     id="defs1" /><g
     id="layer1"
     transform="translate(-10634.226,-4076.0882)"><path
       style="fill:#000000;stroke-width:1"
       d="m 11156.585,4674.0808 c -0.654,-0.348 -1.619,-1.3155 -2.143,-2.1514 -0.525,-0.8355 -1.382,-1.6587 -1.906,-1.8298 -0.524,-0.171 -2.453,-1.0065 -4.287,-1.8555 -4.969,-2.3024 -5.872,-2.6268 -7.309,-2.6268 -0.725,0 -2.625,-0.8535 -4.244,-1.905 -1.955,-1.2705 -3.469,-1.905 -4.544,-1.905 -2.888,0 -8.002,-2.0993 -10.573,-4.3397 -0.523,-0.456 -2.154,-1.278 -3.622,-1.8256 -1.67,-0.6225 -3.313,-1.6911 -4.389,-2.8533 -1.221,-1.32 -2.473,-2.0771 -4.323,-2.615 -2.706,-0.786 -4.724,-2.1996 -7.18,-5.0265 -0.792,-0.912 -1.869,-2.0353 -2.393,-2.4964 -0.524,-0.4605 -1.666,-1.4835 -2.537,-2.2709 -0.983,-0.888 -2.101,-1.4325 -2.945,-1.4325 -1.453,0 -2.169,-1.125 -1.622,-2.5522 0.257,-0.669 -0.135,-0.795 -2.727,-0.87 -1.665,-0.045 -3.671,-0.162 -4.457,-0.2535 -0.786,-0.09 -3.25,-0.264 -5.477,-0.3855 -2.226,-0.12 -5.119,-0.345 -6.429,-0.495 -1.309,-0.15 -4.953,-0.36 -8.096,-0.4665 -3.143,-0.105 -8.35,-0.45 -11.571,-0.7635 -4.68,-0.456 -6.473,-0.4485 -8.929,0.045 -1.689,0.336 -3.448,0.4635 -3.907,0.285 -0.459,-0.18 -2.763,-0.525 -5.121,-0.768 -3.001,-0.309 -4.992,-0.8055 -6.64,-1.6553 -2.139,-1.1025 -2.684,-1.185 -5.982,-0.897 -3.293,0.2865 -3.85,0.204 -6.022,-0.897 -2.345,-1.188 -2.438,-1.197 -4.555,-0.4365 -2.069,0.744 -2.358,0.729 -6.863,-0.3585 -2.587,-0.6255 -6.204,-1.1565 -8.038,-1.1805 -2.458,-0.03 -3.86,-0.3225 -5.338,-1.101 -1.593,-0.8385 -2.817,-1.059 -5.954,-1.0725 -2.529,-0.01 -4.84,-0.324 -6.431,-0.873 -2.037,-0.7035 -2.907,-0.771 -4.849,-0.3735 -1.751,0.3585 -2.964,0.3255 -4.661,-0.12 -1.261,-0.336 -4.223,-0.777 -6.58,-0.9795 -2.358,-0.2025 -5.465,-0.8055 -6.906,-1.341 -2.332,-0.867 -3.063,-0.924 -6.668,-0.5145 -3.992,0.453 -4.979,0.372 -12.858,-1.0545 -1.703,-0.309 -4.382,-0.522 -5.953,-0.4755 -1.687,0.045 -3.736,-0.237 -5.001,-0.702 -2.548,-0.9375 -6.776,-1.3485 -12.553,-1.2225 -3.936,0.09 -4.395,-0.01 -6.876,-1.407 -2.581,-1.4565 -2.773,-1.491 -6.735,-1.185 -6.878,0.5295 -10.277,0.414 -11.857,-0.402 -0.804,-0.4155 -2.442,-0.756 -3.641,-0.756 -1.277,0 -3.401,-0.513 -5.121,-1.2375 -2.691,-1.1325 -3.158,-1.1925 -5.542,-0.714 -3.677,0.738 -5.077,0.657 -7.189,-0.4215 -1.71,-0.873 -2.001,-0.891 -3.832,-0.2445 -2.335,0.8235 -4.853,0.4095 -9.114,-1.501 -2.14,-0.96 -2.888,-1.0995 -3.66,-0.687 -1.53,0.819 -5.174,0.612 -7.173,-0.408 -0.999,-0.51 -2.927,-1.074 -4.284,-1.254 -1.618,-0.2145 -3.158,-0.828 -4.474,-1.7823 -2.711,-1.9647 -6.455,-2.8128 -9.517,-2.1561 -1.299,0.279 -4.066,0.372 -6.226,0.2115 -2.137,-0.159 -7.316,-0.381 -11.507,-0.4935 -4.191,-0.105 -8.477,-0.234 -9.525,-0.2715 -1.048,-0.045 -5.548,0.09 -10.001,0.273 -10.757,0.4545 -10.467,0.465 -12.591,-0.492 -1.76,-0.7935 -1.966,-0.795 -4.001,-0.015 -1.908,0.729 -2.793,0.7605 -8.016,0.291 -3.23,-0.291 -7.69,-0.7485 -9.913,-1.0185 -3.013,-0.366 -4.616,-0.342 -6.306,0.09 -2.025,0.519 -2.532,0.4725 -4.77,-0.4365 -3.078,-1.251 -7.928,-1.44 -13.934,-0.54 -3.869,0.579 -6.666,0.654 -15.716,0.42 -1.572,-0.045 -6.072,0.045 -10.002,0.2025 -9.991,0.387 -10.079,0.3825 -12.047,-0.627 -2.535,-1.3005 -3.871,-2.9235 -5.41,-6.5706 -1.691,-4.0068 -1.734,-6.1511 -0.168,-8.2868 2.326,-3.1716 2.783,-4.7341 3.12,-10.6669 0.178,-3.1433 0.568,-6.3183 0.867,-7.0557 0.298,-0.738 0.541,-1.9236 0.541,-2.636 0,-0.7125 0.408,-2.4664 0.908,-3.898 0.499,-1.431 1.275,-5.1746 1.723,-8.3178 0.448,-3.1433 1.111,-6.2937 1.473,-7.0011 0.361,-0.7065 0.658,-2.6421 0.658,-4.2995 0,-2.7609 1.784,-9.7174 2.842,-11.0832 0.519,-0.6705 1.787,-7.2397 1.836,-9.5196 0.03,-1.0455 0.371,-2.761 0.773,-3.814 0.897,-2.3484 2.563,-9.4745 3.118,-13.3364 1.191,-8.284 2.536,-13.917 4.027,-16.8591 0.981,-1.9368 1.101,-2.5917 0.72,-3.9217 -0.685,-2.3889 -0.558,-4.1819 0.447,-6.3342 0.498,-1.065 1.005,-2.9367 1.128,-4.1595 0.12,-1.2225 0.731,-3.0446 1.352,-4.0482 2.294,-3.71 2.855,-6.1821 3.007,-13.2548 0.135,-6.3034 0.24,-6.9388 1.914,-11.6352 0.973,-2.7322 1.873,-5.8239 1.999,-6.8704 0.273,-2.2613 0.794,-3.3354 2.661,-5.4846 1.023,-1.1775 1.32,-1.9085 1.112,-2.7387 -0.777,-3.0938 -0.815,-5.4356 -0.12,-7.6238 0.402,-1.275 0.862,-3.4312 1.021,-4.7911 0.161,-1.3605 0.603,-3.2174 0.984,-4.1277 0.522,-1.248 0.62,-2.7533 0.398,-6.1311 -0.27,-4.1078 -0.194,-4.709 0.924,-7.3025 0.67,-1.5544 1.338,-3.8353 1.483,-5.0688 0.15,-1.233 0.791,-3.5361 1.433,-5.1171 0.642,-1.581 1.237,-3.4303 1.321,-4.1098 l 0.153,-1.236 -8.334,-0.159 c -7.003,-0.135 -8.523,-0.03 -9.514,0.6 -1.565,1.0065 -8.668,1.5712 -13.552,1.077 -2.289,-0.231 -4.92,-0.1995 -6.509,0.075 -2.373,0.417 -3.074,0.327 -6.372,-0.8115 -2.909,-1.0035 -4.82,-1.317 -8.883,-1.452 -4.064,-0.135 -5.815,-0.4215 -8.153,-1.3335 -1.637,-0.639 -4.369,-1.389 -6.072,-1.6667 -2.642,-0.432 -3.314,-0.7545 -4.584,-2.1987 -0.984,-1.119 -2.841,-2.2753 -5.477,-3.4104 -2.473,-1.065 -4.912,-2.5534 -6.42,-3.9184 -1.338,-1.2105 -3.332,-2.9198 -4.432,-3.7982 -1.693,-1.3515 -1.978,-1.8265 -1.854,-3.0955 l 0.15,-1.4985 2.857,0.135 c 1.572,0.075 3.626,0.3405 4.565,0.5925 6.306,1.6957 15.642,2.0883 22.299,0.9375 2.902,-0.501 3.831,-0.498 5.239,0.015 0.94,0.348 3.64,0.672 5.997,0.7215 2.357,0.045 4.842,0.315 5.52,0.588 0.927,0.3735 1.795,0.312 3.483,-0.243 1.812,-0.597 2.601,-0.6345 4.06,-0.198 0.996,0.2985 2.69,0.543 3.763,0.543 1.074,0 2.938,0.3345 4.143,0.744 2.074,0.7035 2.383,0.687 5.797,-0.327 3.505,-1.041 3.671,-1.047 5.908,-0.2535 1.722,0.612 3.057,0.741 5.293,0.513 1.87,-0.1905 3.793,-0.075 5.134,0.2895 2.093,0.582 7.535,0.7035 9.106,0.2055 0.596,-0.189 0.849,-1.0335 1.034,-3.4497 0.381,-4.9781 1.167,-9.2066 2.466,-13.2759 0.655,-2.0541 1.195,-4.6596 1.198,-5.7902 0,-1.131 0.242,-2.4958 0.53,-3.0342 0.288,-0.5385 0.591,-3.6855 0.673,-6.9934 0.07,-3.308 0.384,-6.6218 0.671,-7.3641 0.598,-1.5485 0.339,-2.2223 -0.852,-2.2223 -0.459,0 -1.25,-0.315 -1.758,-0.699 -0.508,-0.384 -1.294,-0.7065 -1.747,-0.714 -0.453,-0.01 -1.953,-0.534 -3.334,-1.1685 -1.382,-0.6345 -3.797,-1.416 -5.368,-1.7368 -1.572,-0.321 -3.357,-0.8895 -3.968,-1.2645 -0.61,-0.3735 -2.325,-0.9945 -3.81,-1.38 -1.485,-0.3855 -3.479,-1.323 -4.431,-2.0855 -1.386,-1.11 -2.476,-1.479 -5.477,-1.8565 -2.06,-0.2595 -4.542,-0.804 -5.516,-1.212 -0.974,-0.408 -2.153,-0.741 -2.62,-0.741 -0.466,0 -2.241,-0.861 -3.944,-1.9124 -1.703,-1.0515 -3.953,-2.1397 -5.001,-2.4178 -1.047,-0.2775 -2.658,-1.101 -3.578,-1.8293 -1.254,-0.9915 -2.358,-1.38 -4.405,-1.5501 -2.177,-0.18 -3.126,-0.543 -4.675,-1.7884 -1.07,-0.8595 -3.021,-1.8459 -4.337,-2.1932 -2.962,-0.7815 -5.314,-2.3659 -9.79,-6.5951 -1.912,-1.8068 -4.49,-3.7608 -5.729,-4.3425 -2.634,-1.2375 -6.132,-3.8775 -9.154,-6.9087 -1.181,-1.185 -2.734,-2.5278 -3.453,-2.9852 -0.718,-0.4575 -1.865,-1.9528 -2.549,-3.3234 -0.684,-1.371 -1.949,-3.2418 -2.811,-4.1586 -1.579,-1.6801 -2.968,-5.1142 -4.046,-10.0012 -0.318,-1.44 -0.914,-3.5969 -1.323,-4.7915 -0.684,-1.9927 -0.68,-2.3037 0.05,-3.7641 0.436,-0.876 0.793,-2.5288 0.793,-3.6738 0,-1.8315 0.158,-2.1414 1.307,-2.5783 1.155,-0.4395 1.434,-0.342 2.41,0.8445 0.608,0.738 1.914,2.1993 2.902,3.247 0.989,1.047 2.249,2.5628 2.8,3.3666 0.766,1.119 1.69,1.6533 3.943,2.2799 2.2,0.612 3.32,1.2465 4.435,2.5117 0.82,0.9315 2.091,2.0061 2.824,2.3882 1.669,0.8685 6.889,6.3492 8.179,8.5857 0.73,1.266 1.547,1.8735 3.347,2.4861 3.023,1.029 8.726,5.3005 10.105,7.5684 1.12,1.842 3.978,3.573 6.802,4.1181 0.916,0.177 4.505,1.735 7.973,3.4621 4.834,2.4068 6.879,3.7239 8.758,5.6393 1.825,1.8607 2.911,2.5725 4.253,2.7871 0.991,0.159 2.414,0.8025 3.162,1.4325 0.747,0.6285 2.214,1.374 3.259,1.6555 1.046,0.282 3.182,1.4355 4.749,2.5659 3.643,2.6258 5.836,3.893 7.943,4.5882 0.925,0.306 2.87,1.2705 4.322,2.1453 1.452,0.8745 3.41,1.7346 4.35,1.9109 1.033,0.1935 2.339,0.9705 3.304,1.9635 0.878,0.903 2.24,1.7718 3.028,1.9293 1.326,0.2655 1.491,0.135 2.217,-1.6736 0.432,-1.0785 0.789,-2.4381 0.795,-3.0222 0,-0.5835 0.402,-1.9239 0.881,-2.9776 0.664,-1.4625 0.882,-3.1778 0.918,-7.2495 0.03,-2.9336 0.261,-5.7327 0.522,-6.22 0.261,-0.4875 0.465,-2.1545 0.453,-3.7043 -0.01,-2.1742 0.316,-3.5499 1.455,-6.0222 0.811,-1.7623 1.476,-3.8439 1.476,-4.6257 0,-0.7815 0.402,-2.4475 0.895,-3.7014 1.343,-3.4222 1.67,-6.8799 0.978,-10.3603 -0.556,-2.8034 -0.523,-3.2469 0.429,-5.7366 0.569,-1.4835 1.032,-3.3758 1.029,-4.2038 0,-2.038 0.909,-8.6926 1.506,-10.9872 0.267,-1.0245 0.875,-2.4171 1.35,-3.0957 0.869,-1.239 1.289,-4.6471 1.601,-12.9859 0.105,-2.8562 0.415,-4.1942 1.413,-6.1161 1.063,-2.0514 1.276,-3.0762 1.276,-6.1665 0,-2.0769 0.314,-4.5962 0.714,-5.7309 0.393,-1.113 0.714,-3.3977 0.714,-5.0757 0,-1.8012 0.321,-3.7764 0.786,-4.8218 0.467,-1.0515 0.746,-2.7786 0.689,-4.2531 -0.06,-1.365 0.15,-2.9317 0.436,-3.481 0.294,-0.549 0.632,-2.5347 0.749,-4.412 0.156,-2.4754 0.511,-3.8745 1.297,-5.0914 0.941,-1.458 1.097,-2.381 1.19,-7.0427 0.07,-3.5977 0.358,-5.995 0.873,-7.279 0.505,-1.2645 0.664,-2.5502 0.466,-3.7875 -0.187,-1.173 -0.03,-2.6352 0.411,-3.9128 0.392,-1.122 0.714,-2.6827 0.719,-3.4686 0,-1.413 0.81,-5.635 2.156,-11.3443 0.381,-1.6187 0.697,-3.6971 0.7,-4.6185 0,-0.9615 0.485,-2.3822 1.127,-3.3338 0.616,-0.912 1.278,-2.5083 1.47,-3.547 0.192,-1.038 0.67,-2.5103 1.063,-3.2703 0.393,-0.7605 0.599,-1.8281 0.456,-2.3736 -0.15,-0.546 0.161,-1.9407 0.674,-3.1005 0.513,-1.1595 0.933,-2.5208 0.933,-3.0243 0,-0.504 0.294,-1.494 0.652,-2.2017 0.359,-0.7065 0.798,-2.2904 0.977,-3.5181 0.178,-1.227 0.835,-2.9844 1.459,-3.9041 0.809,-1.191 1.232,-2.6727 1.47,-5.1498 0.185,-1.9128 0.627,-3.9004 0.984,-4.4172 0.357,-0.516 0.648,-1.4235 0.648,-2.0143 0,-0.591 0.288,-1.8831 0.641,-2.8707 1.794,-5.0249 1.792,-5.012 0.781,-6.0879 -1.15,-1.224 -1.173,-1.7463 -0.162,-3.7022 1.427,-2.7571 4.181,-5.6439 6.597,-6.9132 2.261,-1.188 2.802,-1.2585 10.716,-1.4145 13.272,-0.261 21.397,-0.2895 25.241,-0.09 6.151,0.3225 15.301,-0.285 17.249,-1.1445 2.236,-0.987 4.205,-0.9915 6.46,-0.014 3.142,1.3605 4.818,1.5337 10.179,1.0485 3.362,-0.3045 5.909,-0.3135 7.047,-0.03 1.426,0.3615 2.105,0.2805 3.403,-0.411 1.816,-0.9675 4.494,-1.1445 6.392,-0.423 0.927,0.3525 1.662,0.3015 2.769,-0.1905 2.638,-1.173 3.751,-1.218 6.577,-0.2655 3.12,1.0515 4.352,1.146 5.676,0.438 0.506,-0.2715 2.083,-0.7065 3.506,-0.9705 2.152,-0.3975 3.03,-0.327 5.24,0.4185 2.396,0.8085 2.755,0.825 3.687,0.1725 1.535,-1.0755 17.17,-1.2915 20.033,-0.2775 2.443,0.8655 9.28,0.54 12.93,-0.615 1.954,-0.618 2.98,-0.6495 6.429,-0.198 6.772,0.8865 10.009,0.7965 12.439,-0.345 2.719,-1.2765 3.946,-1.278 6.583,-8e-4 1.933,0.936 2.38,0.978 5.032,0.4815 3.561,-0.6675 8.215,-0.795 11.757,-0.3225 1.918,0.2565 3.04,0.1695 4.048,-0.3135 2.195,-1.053 41.72,-0.8295 45.589,0.258 2.571,0.723 2.868,0.72 4.286,-0.03 1.764,-0.93 9.4,-1.0725 14.614,-0.273 2.037,0.312 3.548,0.3135 4.439,0 0.763,-0.267 2.318,-0.3165 3.579,-0.12 2.076,0.33 9.934,0.7095 13.183,0.636 2.056,-0.045 2.89,-0.01 7.143,0.318 5.026,0.387 18.093,0.8145 22.752,0.7455 2.036,-0.03 4.112,0.165 4.612,0.432 0.617,0.33 1.32,0.3315 2.179,0.01 0.873,-0.3315 1.874,-0.3195 3.209,0.045 1.174,0.3165 5.809,0.4845 11.74,0.426 12.49,-0.12 11.389,-0.135 16.945,0.1995 2.619,0.1575 5.244,0.285 5.834,0.282 2.846,-0.011 13.16,0.327 21.55,0.7065 2.75,0.12 7.658,0.3465 10.905,0.495 3.248,0.15 6.088,0.381 6.311,0.519 0.673,0.417 0.456,1.9409 -0.377,2.6316 -0.507,0.42 -3.484,0.8655 -8.453,1.2615 -7.216,0.576 -10.408,0.75 -22.689,1.2405 -2.759,0.105 -5.9,0.465 -6.98,0.7875 -1.461,0.438 -2.346,0.456 -3.455,0.075 -1.032,-0.36 -1.884,-0.3705 -2.77,-0.03 -0.703,0.267 -2.784,0.453 -4.625,0.411 -1.841,-0.045 -4.634,0.162 -6.205,0.4515 -1.572,0.2895 -3.424,0.405 -4.116,0.258 -0.691,-0.15 -2.533,0.06 -4.092,0.4665 -1.937,0.5025 -4.255,0.6735 -7.315,0.5415 -2.464,-0.105 -5.444,0 -6.623,0.24 -3.828,0.771 -15.648,1.3965 -16.961,0.897 -0.809,-0.3075 -2.206,-0.2865 -4.154,0.06 -1.614,0.288 -4.114,0.732 -5.555,0.9855 -1.44,0.2535 -5.298,0.5445 -8.572,0.6495 -3.275,0.105 -6.811,0.2235 -7.858,0.2655 -1.047,0.045 -2.763,0.045 -3.81,0.015 -7.046,-0.204 -21.131,0.288 -22.259,0.7785 -1.207,0.525 -4.951,0.711 -12.831,0.6405 -1.749,-0.015 -4.101,0.2955 -5.225,0.693 -2.432,0.858 -9.016,0.561 -12.125,-0.546 -1.488,-0.5295 -2.278,-0.5745 -3.295,-0.1875 -0.737,0.2805 -2.535,0.519 -3.996,0.531 -1.638,0.014 -3.481,0.4005 -4.801,1.008 -1.84,0.846 -3.154,0.9945 -9.287,1.047 -3.929,0.03 -8.122,-0.1725 -9.318,-0.459 -1.314,-0.3135 -3.577,-0.387 -5.715,-0.1845 -1.948,0.1845 -4.971,0.2205 -6.72,0.075 -2.161,-0.174 -3.762,-0.03 -5,0.4275 -1.449,0.543 -4.598,0.6645 -15.368,0.5925 -7.451,-0.045 -15.702,-0.2175 -18.336,-0.3735 -5.75,-0.339 -16.386,0.315 -19.19,1.1805 -1.81,0.558 -2.256,0.5235 -4.309,-0.3435 -2.132,-0.9 -2.502,-0.9225 -5.363,-0.3105 -3.448,0.7365 -16.059,0.9075 -18.303,0.2475 -0.931,-0.273 -2.321,-0.1965 -4.048,0.225 -1.693,0.4125 -5.006,0.606 -9.298,0.5445 -3.667,-0.06 -9.123,0.1665 -12.125,0.4875 -4.656,0.4995 -5.74,0.4815 -7.382,-0.12 -1.059,-0.387 -3.424,-0.7095 -5.258,-0.717 -1.833,-0.01 -4.082,-0.24 -4.997,-0.5145 -2.505,-0.7545 -4.721,-0.6075 -7.623,0.501 -2.111,0.807 -3.347,0.96 -6.368,0.789 -2.494,-0.135 -4.399,0.012 -5.693,0.459 -2.102,0.7245 -4.772,0.5475 -9.439,-0.6225 -1.54,-0.387 -5.023,-0.675 -8.154,-0.675 h -5.466 l -0.298,2.2623 c -0.164,1.2435 -0.174,4.6461 -0.01,7.5599 0.247,4.7583 0.169,5.5446 -0.768,7.7226 -1.065,2.4742 -1.079,3.6288 -0.105,8.007 0.325,1.455 0.259,2.5161 -0.248,4.0192 -0.549,1.6236 -0.579,2.4134 -0.15,3.8553 0.377,1.254 0.399,2.3646 0.08,3.6009 -0.258,0.9825 -0.604,5.9568 -0.771,11.0531 -0.22,6.7192 -0.496,9.6372 -1.003,10.6176 -0.534,1.032 -0.626,2.275 -0.39,5.2599 0.298,3.7701 0.255,4.0087 -1.227,6.7654 -1.475,2.7428 -1.535,3.0677 -1.497,8.0963 0.05,6.262 -0.414,8.2552 -2.439,10.5613 -1.637,1.8638 -1.847,3.4815 -1.074,8.2505 0.273,1.6839 0.12,2.7045 -0.708,4.7625 -1.913,4.7496 -2.411,7.2064 -1.825,8.9991 0.743,2.2701 0.254,6.4642 -1.137,9.7629 -1.143,2.7118 -1.158,2.8761 -0.436,5.1306 0.621,1.9438 0.652,2.7724 0.183,5.0082 -0.309,1.473 -1.022,3.5568 -1.585,4.6294 -0.563,1.0725 -1.235,3.5577 -1.494,5.5223 -0.495,3.7629 -0.507,4.0158 -0.362,7.9662 0.06,1.8081 -0.178,2.9269 -0.897,4.0884 -0.723,1.17 -0.979,2.3547 -0.955,4.4163 0.01,1.5495 -0.201,3.4206 -0.486,4.158 -0.285,0.738 -0.519,2.1925 -0.519,3.2335 0,1.041 -0.425,2.7255 -0.944,3.743 -0.747,1.4655 -0.982,3.0714 -1.132,7.72 -0.197,6.1433 -0.611,7.7621 -2.805,10.9844 -0.999,1.467 -1.148,2.0707 -0.84,3.429 0.204,0.906 0.298,1.7226 0.207,1.813 -0.09,0.09 -0.39,2.6195 -0.668,5.6197 -0.408,4.4369 -0.768,5.9997 -1.923,8.3712 -1.162,2.3847 -1.42,3.5207 -1.42,6.2348 0,1.8252 -0.314,4.3587 -0.696,5.6301 -0.516,1.7136 -0.579,2.8344 -0.243,4.3339 0.249,1.113 0.34,2.3171 0.202,2.6771 -0.244,0.639 3.604,3.4155 7.403,5.3395 3.313,1.6776 4.166,3.1083 2.413,4.0466 -1.022,0.546 -5.872,-0.375 -8.387,-1.593 -0.774,-0.375 -2.29,-0.8235 -3.368,-0.996 -1.63,-0.261 -2.019,-0.168 -2.302,0.5505 -0.188,0.4755 -0.324,4.1865 -0.303,8.2465 0.03,4.6922 -0.207,8.51 -0.632,10.4775 -1.113,5.1494 -1.707,8.7797 -1.718,10.5062 0,0.9015 -0.438,2.581 -0.961,3.7332 -0.524,1.152 -0.861,2.184 -0.753,2.2927 0.477,0.477 15.495,0.2235 17.046,-0.288 1.06,-0.3495 2.092,-0.3975 2.815,-0.135 0.627,0.2325 3.008,0.3165 5.288,0.186 l 4.147,-0.237 0.324,1.29 c 0.179,0.7095 0.135,1.4685 -0.09,1.6859 -0.9,0.8535 -15.07,5.2548 -16.906,5.2516 -1.251,0 -6.187,1.5068 -10.658,3.2577 -1.309,0.513 -2.992,1.1145 -3.738,1.3365 -1.203,0.3585 -1.371,0.6495 -1.488,2.5688 -0.08,1.191 -0.562,3.0123 -1.089,4.0482 -0.724,1.4265 -0.898,2.4742 -0.718,4.3215 0.184,1.9012 -0.03,3.0549 -0.944,5.2387 -2.506,5.9403 -3.214,8.1225 -3.214,9.9117 0,1.122 -0.474,2.6621 -1.198,3.9 -1.121,1.9122 -1.215,2.5742 -1.434,10.1159 -0.213,7.3056 -0.347,8.3149 -1.421,10.6599 -0.997,2.1801 -1.167,3.192 -1.066,6.3888 0.105,3.5023 0.02,3.9327 -1.191,5.5206 -1.193,1.5672 -1.31,2.0877 -1.31,5.7858 0,2.3922 -0.271,4.7071 -0.66,5.6277 -2.084,4.9428 -2.81,7.432 -2.997,10.2834 -0.292,4.4683 -0.46,5.0551 -1.939,6.8143 -1.086,1.29 -1.323,2.0522 -1.383,4.442 -0.178,7.0542 -0.729,10.4665 -2.075,12.8856 -1.166,2.0931 -1.385,3.1722 -1.816,8.9199 -0.408,5.4468 -0.689,6.9181 -1.678,8.8107 -0.654,1.2495 -1.287,3.298 -1.407,4.5522 -0.12,1.254 -0.918,3.6999 -1.772,5.4349 -1.454,2.9531 -1.513,3.2637 -0.927,4.8633 0.903,2.4648 0.735,5.8406 -0.399,7.9743 -0.534,1.0065 -1.086,2.9684 -1.227,4.3587 -0.159,1.569 -0.804,3.4868 -1.702,5.0555 -1.377,2.4054 -1.443,2.7732 -1.392,7.6152 0.05,4.6162 -0.06,5.3103 -1.192,7.4901 -0.686,1.3215 -1.25,3.0792 -1.254,3.9063 0,0.8265 -0.566,3.4327 -1.245,5.7901 -0.705,2.4428 -1.278,5.7201 -1.332,7.62 -0.09,3.3351 -0.602,4.8807 -2.192,6.6675 -0.787,0.885 -1.882,3.9915 -1.888,5.3579 0,0.741 1.598,0.759 4.655,0.06 2.033,-0.4695 2.774,-0.408 5.512,0.4515 l 3.164,0.993 2.739,-0.9615 c 2.434,-0.8535 3.434,-0.9255 8.991,-0.6435 3.439,0.1755 8.582,0.378 11.43,0.45 3.135,0.075 6.024,0.426 7.321,0.8775 1.816,0.6315 2.979,0.669 7.62,0.2505 10.146,-0.918 18.487,-0.705 20.913,0.534 1.57,0.801 2.274,0.873 5.099,0.5235 1.803,-0.2235 4.203,-0.753 5.333,-1.1775 1.131,-0.423 2.31,-0.6135 2.62,-0.4215 0.31,0.192 3.564,0.357 7.231,0.3675 5.521,0.015 6.941,0.168 8.257,0.885 1.509,0.822 1.679,0.825 3.297,0.06 1.308,-0.621 2.42,-0.7425 4.765,-0.5235 1.788,0.1665 3.921,0.06 5.136,-0.27 1.747,-0.4665 2.509,-0.42 4.772,0.2925 2.813,0.8865 3.122,0.8685 11.397,-0.699 1.791,-0.339 3.062,-0.273 5.13,0.2655 2.292,0.5985 3.302,0.6225 6.075,0.15 2.733,-0.468 3.687,-0.4515 5.348,0.105 2.805,0.9285 19.339,0.7215 31.786,-0.399 2.75,-0.2475 5.215,-0.3165 5.477,-0.153 0.666,0.417 22.033,0.699 33.099,0.438 1.703,-0.045 4.917,0.01 7.144,0.105 4.649,0.2115 18.748,-0.3105 20.113,-0.744 0.504,-0.1605 2.711,-0.03 4.904,0.303 3.564,0.5295 4.222,0.504 6.178,-0.243 2.014,-0.7695 2.809,-0.7875 9.905,-0.2295 11.94,0.939 14.492,0.9255 17.6,-0.09 3.617,-1.182 10.503,-1.221 13.724,-0.075 1.966,0.6975 2.625,0.7335 4.476,0.2385 3.045,-0.8145 9.426,-0.7395 11.518,0.135 0.94,0.393 2.312,0.714 3.049,0.714 0.737,0 1.879,0.2055 2.538,0.456 0.659,0.2505 4.022,0.5745 7.473,0.72 5.121,0.216 6.746,0.12 8.846,-0.5475 2.252,-0.7095 2.794,-0.729 4.346,-0.1575 1.236,0.456 4.442,0.675 10.584,0.7215 4.845,0.03 10.928,0.2445 13.517,0.459 l 4.706,0.3915 -0.333,-3.1055 c -0.343,-3.2112 0.3,-5.7729 1.893,-7.5334 0.384,-0.4245 0.926,-2.0391 1.205,-3.5892 0.564,-3.1373 2.498,-8.3733 3.769,-10.2005 0.456,-0.6555 1.099,-2.0478 1.429,-3.0955 0.33,-1.0485 1.107,-2.5818 1.724,-3.4089 1.694,-2.2692 2.551,-5.3331 2.518,-9.0041 -0.03,-3.6741 1.146,-7.4968 3.147,-10.2078 0.655,-0.888 1.191,-2.0695 1.191,-2.6253 0,-0.555 0.856,-2.6967 1.905,-4.7577 1.446,-2.8429 1.905,-4.3047 1.905,-6.0562 0,-1.2705 0.297,-3.0203 0.66,-3.8898 0.363,-0.87 0.814,-2.5236 1.003,-3.6756 0.614,-3.7479 2.737,-10.6062 4.112,-13.2866 0.74,-1.44 1.55,-3.9471 1.801,-5.5699 0.252,-1.6229 0.686,-3.3768 0.965,-3.8978 0.279,-0.5205 0.507,-1.9363 0.507,-3.1452 0,-1.209 0.292,-2.7768 0.651,-3.4842 0.358,-0.7065 0.795,-2.0866 0.972,-3.0654 0.177,-0.978 0.736,-2.6931 1.243,-3.81 0.507,-1.1175 0.932,-2.5663 0.944,-3.2212 0.01,-0.654 0.567,-2.4765 1.234,-4.0481 1.262,-2.9706 2.271,-7.1772 2.8,-11.6682 0.169,-1.44 0.802,-3.4765 1.405,-4.5243 0.603,-1.0485 1.247,-3.0837 1.431,-4.5244 0.185,-1.44 0.749,-3.5574 1.256,-4.704 0.507,-1.146 0.924,-2.7539 0.928,-3.5718 0,-0.8175 0.342,-2.8803 0.752,-4.583 0.409,-1.7025 0.93,-4.3513 1.155,-5.8861 0.247,-1.6869 0.921,-3.5636 1.703,-4.7451 0.972,-1.4685 1.26,-2.4332 1.16,-3.8771 -0.234,-3.378 -0.15,-3.8658 1.359,-7.966 0.816,-2.2146 1.483,-4.7144 1.483,-5.5551 0,-0.8415 0.35,-2.3255 0.777,-3.2993 0.428,-0.9735 0.95,-2.934 1.161,-4.3558 0.212,-1.422 0.831,-3.1365 1.379,-3.81 1.94,-2.3876 2.545,-4.4697 2.92,-10.0355 0.392,-5.8113 1.167,-8.7076 3.069,-11.4556 0.903,-1.3065 1.18,-2.3399 1.215,-4.5245 0.05,-3.2506 1.579,-9.9135 2.66,-11.5843 0.429,-0.6645 0.778,-2.4357 0.844,-4.2863 0.06,-1.8715 0.552,-4.3153 1.194,-6.0111 0.732,-1.9339 1.056,-3.7393 1.001,-5.5857 -0.09,-2.9755 0.825,-5.551 3.39,-9.5472 1.402,-2.1861 1.468,-2.5186 1.557,-7.8624 0.07,-4.7923 0.249,-5.8809 1.197,-7.7143 0.834,-1.6134 1.159,-3.1836 1.327,-6.4295 0.158,-3.0141 0.492,-4.7643 1.125,-5.8696 0.495,-0.867 0.911,-1.9379 0.923,-2.3813 0.01,-0.444 0.357,-1.6635 0.768,-2.7112 0.411,-1.047 0.901,-3.4533 1.09,-5.3457 0.273,-2.7283 0.675,-3.9607 1.943,-5.9532 1.528,-2.3997 1.605,-2.7366 1.703,-7.513 0.06,-2.7503 0.338,-5.7492 0.623,-6.6644 0.285,-0.915 0.519,-3.2548 0.519,-5.1996 0,-3.283 0.153,-3.8176 2.131,-7.4776 l 2.132,-3.9419 -0.729,-2.0505 c -0.854,-2.4034 -0.56,-4.7334 0.85,-6.7119 0.72,-1.011 0.897,-1.7953 0.693,-3.0591 -0.178,-1.0995 0.06,-2.637 0.657,-4.3546 0.513,-1.461 0.936,-3.1988 0.938,-3.8627 0,-0.6645 0.526,-2.3274 1.164,-3.6967 0.991,-2.1288 1.12,-2.9573 0.897,-5.715 -0.215,-2.6477 -0.07,-3.6945 0.802,-5.8448 0.585,-1.44 1.244,-4.2267 1.463,-6.1912 0.966,-8.6796 1.335,-11.4411 1.577,-11.8338 0.15,-0.231 0.01,-1.6007 -0.291,-3.0437 -0.488,-2.3271 -0.437,-2.94 0.456,-5.4222 0.553,-1.5391 1.147,-3.6556 1.318,-4.7034 0.171,-1.0485 0.75,-3.006 1.287,-4.3515 0.818,-2.0497 0.888,-2.6985 0.435,-4.0002 -0.778,-2.2342 -0.654,-4.2138 0.416,-6.5694 0.657,-1.4475 1.029,-3.6475 1.246,-7.3819 0.171,-2.9258 0.593,-5.8802 0.938,-6.5654 0.486,-0.9645 0.538,-2.5272 0.231,-6.9057 -0.35,-4.9818 -0.293,-5.9163 0.477,-7.8028 1.276,-3.1266 1.984,-7.8821 1.629,-10.9424 -0.218,-1.8678 -0.09,-3.2401 0.399,-4.5567 0.39,-1.0365 0.835,-3.4245 0.988,-5.3074 0.153,-1.8828 0.494,-3.9863 0.755,-4.6745 0.261,-0.6885 0.475,-2.3227 0.475,-3.6325 0,-1.3095 0.254,-2.8497 0.563,-3.4218 0.309,-0.5715 0.609,-2.6477 0.664,-4.6122 0.06,-1.9646 0.342,-5.1792 0.635,-7.1438 0.292,-1.9645 0.631,-4.429 0.753,-5.4768 0.519,-4.4872 2.57,-7.3798 4.248,-5.988 0.345,0.2865 0.76,1.8575 0.925,3.4922 0.165,1.6347 0.492,3.9364 0.728,5.1151 1.446,7.2359 1.972,10.8446 1.723,11.8328 -0.154,0.618 0.05,2.7628 0.45,4.7659 0.402,2.0031 0.704,4.9278 0.671,6.4995 -0.06,2.7755 0.37,5.3877 1.449,8.8074 0.288,0.915 0.525,2.2746 0.525,3.0212 0,0.978 0.279,1.431 0.999,1.6185 0.549,0.15 2.708,1.0875 4.798,2.0985 2.407,1.164 4.477,1.8375 5.648,1.8375 1.017,0 3.805,0.561 6.197,1.248 3.235,0.9285 4.977,1.1805 6.807,0.987 2.277,-0.2415 4.265,0.09 10.08,1.6765 1.047,0.2865 3.405,0.7875 5.239,1.113 8.086,1.44 9.674,1.752 12.144,2.3817 1.44,0.3675 4.321,0.9975 6.4,1.401 2.431,0.471 4.572,1.2405 5.995,2.1543 1.218,0.7815 2.726,1.4205 3.352,1.4205 1.439,0 8.03,1.272 11.161,2.1531 1.31,0.369 3.132,0.771 4.048,0.8925 3.199,0.4275 8.524,2.093 9.961,3.1161 1.411,1.005 7.361,2.7495 14.09,4.1318 3.743,0.768 9.752,2.5299 10.477,3.0705 0.768,0.573 7.98,2.8281 9.043,2.8281 0.535,0 1.772,0.429 2.75,0.9525 0.978,0.5235 2.089,0.9525 2.47,0.9525 1.328,0 8.973,2.7858 9.372,3.4147 1.144,1.8059 -0.27,3.0078 -3.086,2.6219 l -2.061,-0.282 -0.57,2.7189 c -0.313,1.4955 -0.666,3.7449 -0.783,4.999 -0.12,1.254 -0.43,2.6865 -0.697,3.1833 -0.266,0.4965 -0.483,1.5194 -0.483,2.2724 0,0.753 -0.315,1.785 -0.699,2.2935 -0.384,0.5085 -0.707,1.6905 -0.714,2.6269 0,0.936 -0.557,3.2934 -1.218,5.238 -0.743,2.1831 -1.095,4.0277 -0.92,4.8224 0.177,0.8085 -0.09,2.116 -0.702,3.5142 -0.541,1.2255 -0.985,2.5597 -0.985,2.9664 0,0.4065 -0.41,2.0403 -0.909,3.6304 -2.031,6.4596 -2.404,8.0127 -2.066,8.5938 0.638,1.095 3.179,2.9442 4.807,3.4995 0.876,0.2985 2.314,1.176 3.194,1.9488 1.067,0.936 2.362,1.5161 3.883,1.7373 2.683,0.39 4.305,1.14 5.617,2.5949 0.524,0.5805 2.88,1.9794 5.238,3.109 2.357,1.1295 5.45,2.9271 6.872,3.9944 1.422,1.0665 2.947,1.9402 3.387,1.9402 0.439,0 1.526,0.4905 2.414,1.089 0.888,0.5985 3.114,1.9139 4.948,2.9222 1.834,1.008 4.046,2.3625 4.916,3.0093 0.87,0.6465 2.884,1.4805 4.476,1.8514 1.592,0.372 3.762,1.314 4.822,2.093 1.061,0.78 2.174,1.4175 2.475,1.4175 0.3,0 0.955,0.4605 1.453,1.0245 1.268,1.431 4.97,3.7378 6,3.7378 0.472,0 1.662,0.7185 2.645,1.5963 0.983,0.8775 2.373,1.7382 3.088,1.9119 0.716,0.174 2.03,0.9555 2.921,1.7375 0.891,0.7815 1.858,1.422 2.15,1.422 0.293,0 1.335,0.7215 2.319,1.6039 1.626,1.4595 3.024,2.3325 7.473,4.6676 0.833,0.4365 1.796,1.134 2.14,1.5477 0.343,0.414 0.891,0.753 1.215,0.753 0.325,0 1.399,0.6435 2.388,1.4295 0.989,0.786 2.069,1.428 2.399,1.428 0.33,0 1.742,0.858 3.137,1.905 1.395,1.0485 2.755,1.9192 3.024,1.9366 0.703,0.045 4.592,2.9379 5.16,3.8393 0.75,1.1895 0.05,2.3203 -1.443,2.3203 -1.569,0 -6.2,-1.3305 -10.848,-3.1159 -1.833,-0.705 -4.405,-1.5534 -5.715,-1.8867 -1.309,-0.333 -3.56,-1.164 -5,-1.845 -1.44,-0.681 -2.894,-1.242 -3.229,-1.2435 -0.717,-0.01 -5.975,-2.1059 -7.799,-3.1152 -0.694,-0.384 -1.92,-0.699 -2.722,-0.699 -0.802,0 -2.162,-0.309 -3.022,-0.6855 -0.86,-0.3765 -2.149,-0.8085 -2.865,-0.96 -0.715,-0.1515 -2.034,-0.918 -2.931,-1.7054 -0.897,-0.7875 -2.776,-1.8313 -4.176,-2.3202 -1.399,-0.489 -3.189,-1.113 -3.974,-1.386 -0.786,-0.273 -3.31,-0.822 -5.608,-1.2195 -2.609,-0.4515 -4.645,-1.089 -5.422,-1.6999 -0.724,-0.57 -1.95,-0.978 -2.936,-0.978 -1.106,0 -2.777,-0.636 -4.818,-1.8336 -8.539,-5.0115 -10.377,-5.9639 -14.403,-7.4604 -2.456,-0.9135 -4.988,-2.2196 -5.821,-3.0029 -0.81,-0.762 -2.117,-1.5999 -2.903,-1.8606 -0.786,-0.261 -2.263,-1.0395 -3.281,-1.7308 -1.101,-0.747 -2.507,-1.257 -3.468,-1.257 -2.27,0 -4.863,-1.1895 -6.882,-3.1563 l -1.725,-1.6811 -1.056,2.1806 c -0.581,1.2 -1.245,2.1805 -1.478,2.1805 -0.768,0 -1.813,2.6585 -2.357,5.996 -0.47,2.8765 -1.603,5.8861 -4.081,10.8304 -0.372,0.741 -0.675,2.0672 -0.675,2.9456 0,2.284 -0.627,3.6498 -3.236,7.0548 -1.531,1.9974 -2.686,4.1943 -3.44,6.5446 -0.626,1.946 -1.747,4.5233 -2.494,5.7273 -0.833,1.3425 -1.516,3.2978 -1.764,5.0559 -0.224,1.5768 -0.747,3.5277 -1.164,4.3356 -0.419,0.807 -0.759,2.238 -0.759,3.1783 0,2.0639 -1.54,5.2527 -2.885,5.9723 -1.047,0.5595 -2.825,3.172 -2.828,4.1527 0,0.3825 0.721,0.5955 2.022,0.5985 1.113,0 2.667,0.3405 3.453,0.753 0.786,0.4125 3.25,1.0275 5.477,1.368 3.836,0.5865 4.326,0.8055 9.375,4.1912 2.929,1.965 6.959,4.3795 8.955,5.3658 1.996,0.9855 4.666,2.7261 5.935,3.8665 1.269,1.14 2.557,2.0736 2.864,2.0736 0.306,0 1.26,0.5355 2.118,1.191 0.858,0.654 1.813,1.191 2.122,1.191 0.309,0 1.467,0.828 2.574,1.8413 1.107,1.0125 2.699,2.1912 3.537,2.6188 0.837,0.4275 2.445,1.3665 3.572,2.0879 1.126,0.72 2.477,1.5478 3.001,1.8384 0.61,0.339 0.952,1.0215 0.952,1.905 0,1.3695 -0.01,1.377 -2.857,1.3455 -1.572,-0.015 -4.465,-0.4755 -6.43,-1.0185 -1.964,-0.5415 -5.607,-1.362 -8.096,-1.8228 -2.488,-0.4605 -5.543,-1.3455 -6.788,-1.9676 -1.657,-0.828 -2.932,-1.1025 -4.762,-1.0275 -1.374,0.06 -3.785,-0.27 -5.357,-0.7245 -1.571,-0.4545 -4.143,-1.1235 -5.715,-1.4835 -1.571,-0.3615 -4.893,-1.494 -7.382,-2.5192 -2.488,-1.0245 -5.167,-2.0226 -5.953,-2.2184 -0.786,-0.195 -2.805,-1.2225 -4.487,-2.2837 -2.883,-1.8174 -3.095,-1.8785 -3.691,-1.0635 -0.348,0.4755 -0.632,1.425 -0.632,2.1091 0,1.194 -2.248,5.2848 -3.242,5.8989 -0.263,0.162 -0.63,1.4205 -0.818,2.7954 -0.421,3.1127 -1.224,4.7118 -3.098,6.1794 -1.217,0.9525 -1.53,1.6239 -1.867,4.0094 -0.402,2.8423 -2.216,7.0167 -4.534,10.4317 -0.663,0.9765 -1.206,2.1453 -1.206,2.5961 0,0.4515 -0.546,1.6242 -1.213,2.6074 -0.668,0.984 -1.421,2.8836 -1.675,4.2227 -0.254,1.3395 -1.047,3.2677 -1.763,4.2861 -2.361,3.358 -3.438,5.2918 -3.925,7.0488 -0.266,0.954 -1.445,2.9739 -2.62,4.4886 -1.96,2.5231 -2.139,2.9809 -2.139,5.457 0,2.2666 -0.238,3.0316 -1.476,4.7407 -1.164,1.6076 -1.341,2.1242 -0.834,2.4455 0.354,0.2235 0.84,0.411 1.082,0.414 0.241,0 0.777,0.3105 1.191,0.6825 0.685,0.615 6.666,3.7137 11.125,5.7639 2.094,0.963 5.301,5.3551 4.822,6.6039 -0.41,1.068 -2.161,1.422 -4.843,0.978 -1.241,-0.2055 -2.448,-0.3255 -2.682,-0.2685 -1.015,0.249 -3.168,-0.567 -4.324,-1.6377 -0.688,-0.639 -1.687,-1.161 -2.219,-1.161 -0.533,0 -1.898,-0.7635 -3.037,-1.6956 -2.08,-1.7051 -5.081,-2.8886 -5.955,-2.3486 -0.258,0.159 -0.469,0.783 -0.469,1.386 0,1.1625 -1.695,3.9672 -3.664,6.0629 -0.653,0.6945 -1.734,2.4085 -2.404,3.81 -1.122,2.3452 -1.362,3.3897 -1.502,6.5407 -0.03,0.69 -0.985,2.0556 -2.432,3.4791 -1.996,1.9649 -2.383,2.6286 -2.391,4.1036 -0.01,2.0806 -1.248,4.9789 -3.018,7.074 -0.699,0.828 -1.579,2.3796 -1.956,3.4492 -0.854,2.4176 -4.687,8.8482 -6.417,10.7627 -1.944,2.1514 -5.128,7.8694 -5.464,9.8137 -0.164,0.945 -0.917,2.6591 -1.675,3.81 -0.906,1.3755 -1.376,2.702 -1.373,3.872 0,1.0035 -0.429,2.4571 -0.993,3.3337 -0.549,0.855 -1.452,2.4962 -2.005,3.6476 -0.554,1.152 -1.912,2.9728 -3.018,4.048 -1.714,1.6673 -2.054,2.3256 -2.308,4.4733 -0.424,3.588 -1.915,5.9622 -4.694,7.4747 -2.456,1.3365 -3.449,2.7355 -3.991,5.6206 -0.3,1.6016 -0.234,1.7694 0.705,1.7694 0.57,0 1.467,0.231 1.994,0.513 0.527,0.282 2.602,0.69 4.612,0.909 3.089,0.336 4.379,0.7845 8.329,2.9031 2.571,1.3785 5.694,3.4874 6.94,4.6868 2.707,2.604 6.281,5.7918 9.29,8.2861 3.431,2.8437 2.819,4.6143 -1.592,4.604 -1.453,0 -4.036,-0.453 -5.738,-1.0005 -1.73,-0.555 -4.203,-0.9675 -5.604,-0.9345 -1.874,0.045 -3.5,-0.3525 -6.429,-1.5741 -2.157,-0.8985 -5.208,-2.1095 -6.779,-2.6903 -1.572,-0.5805 -3.329,-1.2345 -3.904,-1.452 -0.576,-0.2175 -1.424,-0.9945 -1.883,-1.7272 -0.461,-0.732 -1.53,-2.1203 -2.376,-3.0845 -1.843,-2.1004 -2.247,-1.8111 -2.973,2.1312 -0.604,3.2802 -1.108,4.0758 -3.97,6.2612 -2.151,1.6419 -3.23,3.5926 -3.23,5.8378 0,1.413 -1.012,3.4286 -2.312,4.6052 -0.54,0.4875 -1.447,2.3094 -2.018,4.047 -0.784,2.3901 -1.543,3.6373 -3.116,5.1219 -1.143,1.08 -2.08,2.151 -2.082,2.3812 0,1.55 -1.266,4.3056 -2.913,6.3894 -1.062,1.344 -2.252,3.3831 -2.643,4.5323 -0.714,2.0962 -3.412,4.9752 -4.662,4.9752 -1.616,0 -2.994,2.9229 -4.082,8.656 -0.392,2.0604 -1.13,3.542 -3.104,6.2328 -1.425,1.9415 -3.128,3.7746 -3.784,4.0736 -0.919,0.4185 -1.192,0.9 -1.192,2.1046 0,3.4284 -2.455,7.9065 -5.249,9.5741 -0.771,0.4605 -1.4,1.455 -1.753,2.7781 -0.303,1.134 -1.277,3.0258 -2.163,4.2045 -0.885,1.179 -2.554,3.429 -3.709,5.0007 -1.155,1.5716 -2.685,3.5496 -3.401,4.3956 -0.715,0.846 -1.737,3.0027 -2.27,4.7927 -0.559,1.8772 -1.459,3.715 -2.128,4.3429 -0.637,0.5985 -1.425,1.7639 -1.75,2.5893 -0.802,2.0342 -2.229,3.5565 -4.359,4.6485 -1.194,0.612 -1.873,1.341 -2.068,2.2158 -0.159,0.717 -0.391,1.6802 -0.517,2.1399 -0.417,1.5354 -2.642,3.7229 -5.007,4.9212 l -2.34,1.1865 1.675,1.9568 c 1.759,2.0548 4.322,3.4503 7.748,4.2181 2.807,0.6285 12.904,8.2658 15.251,11.5341 0.582,0.81 1.76,1.7606 2.619,2.1123 0.859,0.3525 3.399,2.5106 5.645,4.797 3.691,3.7584 9.882,9.174 10.907,9.5411 0.222,0.075 0.767,-1.098 1.209,-2.6183 0.638,-2.1906 1.287,-3.208 3.137,-4.9087 1.284,-1.1805 2.334,-2.4048 2.334,-2.7219 0,-0.3165 0.877,-1.4205 1.951,-2.4513 1.074,-1.0305 2.413,-2.8463 2.977,-4.0332 0.564,-1.1865 3.239,-4.5693 5.944,-7.5165 2.818,-3.0704 5.502,-6.5142 6.285,-8.0654 1.267,-2.5107 3.753,-5.2153 4.793,-5.2153 0.245,0 0.953,-1.1475 1.573,-2.5484 0.672,-1.5181 2.335,-3.7803 4.115,-5.5959 1.643,-1.6762 4.187,-4.9764 5.653,-7.3338 2.44,-3.9253 4.173,-5.9343 8.671,-10.0513 0.888,-0.813 2.258,-2.3846 3.044,-3.4916 0.786,-1.107 2.202,-2.9062 3.148,-3.9981 0.947,-1.092 1.978,-2.7798 2.293,-3.7507 1.108,-3.4199 4.066,-7.6265 7.938,-11.2919 2.149,-2.034 4.387,-4.6381 4.973,-5.787 1.249,-2.449 4.17,-6.4723 5.674,-7.816 0.581,-0.519 1.326,-1.5902 1.658,-2.3813 0.774,-1.848 3.628,-5.7793 6.882,-9.4788 1.41,-1.6023 2.948,-3.8086 3.421,-4.903 0.999,-2.3144 7.81,-10.8711 10.364,-13.0209 0.963,-0.81 2.232,-1.8734 2.822,-2.3628 0.693,-0.576 1.071,-1.416 1.071,-2.3786 0,-2.029 1.128,-4.0855 3.812,-6.9456 1.243,-1.3245 2.604,-3.0738 3.024,-3.8862 0.42,-0.813 1.509,-2.0913 2.419,-2.8417 1.768,-1.4565 4.625,-5.6123 6.413,-9.326 0.602,-1.2495 1.501,-2.4886 2,-2.7556 0.499,-0.267 1.437,-1.5321 2.085,-2.8116 0.648,-1.2795 2.252,-3.2309 3.563,-4.3361 1.772,-1.494 2.637,-2.6893 3.376,-4.6648 0.546,-1.461 1.997,-4.1226 3.224,-5.9157 1.227,-1.7931 2.659,-3.9632 3.183,-4.8222 0.523,-0.8595 1.968,-2.6876 3.208,-4.0632 1.326,-1.47 2.472,-3.3027 2.78,-4.4457 0.343,-1.278 1.461,-2.9366 3.256,-4.8371 1.628,-1.723 3.071,-3.8055 3.569,-5.1496 0.819,-2.2107 1.727,-3.1668 5.01,-5.2709 0.907,-0.582 1.828,-1.6777 2.077,-2.4735 0.246,-0.786 1.034,-2.1789 1.749,-3.0957 0.715,-0.9165 1.742,-2.6644 2.281,-3.8839 0.538,-1.2195 1.888,-3.3624 2.999,-4.7625 1.112,-1.3995 2.63,-3.9008 3.377,-5.5574 0.747,-1.6566 2.43,-4.5646 3.742,-6.4623 1.312,-1.8978 2.385,-3.685 2.385,-3.9715 0,-0.717 5.243,-7.6656 7.086,-9.3915 0.825,-0.774 1.712,-2.1876 1.969,-3.1428 0.258,-0.9555 0.986,-2.4656 1.62,-3.3564 0.633,-0.891 2.038,-3.0128 3.122,-4.7154 1.083,-1.7025 2.817,-4.2743 3.854,-5.715 3.499,-4.8656 4.341,-6.302 5.008,-8.5475 0.447,-1.5054 1.29,-2.8002 2.576,-3.9543 1.051,-0.9435 1.911,-2.0509 1.911,-2.4601 0,-0.4095 1.061,-1.9146 2.356,-3.345 1.583,-1.7486 2.462,-3.1937 2.683,-4.4103 0.515,-2.8364 2.013,-5.3745 4.749,-8.0453 1.386,-1.3545 3.081,-3.5664 3.765,-4.9167 0.684,-1.35 1.968,-3.2562 2.853,-4.2354 0.964,-1.068 1.745,-2.5374 1.951,-3.6738 0.538,-2.9797 1.039,-3.6961 7.908,-11.3368 1.301,-1.446 2.431,-3.2726 2.74,-4.4247 0.29,-1.0785 0.911,-2.4722 1.383,-3.0957 0.471,-0.624 1.188,-2.0039 1.592,-3.0674 0.798,-2.1003 2.954,-5.7801 7.924,-13.5255 2.153,-3.3549 3.943,-5.5453 5.482,-6.7075 1.257,-0.9495 3.002,-2.7897 3.877,-4.0899 0.876,-1.3005 2.345,-2.9384 3.266,-3.6407 0.921,-0.702 2.145,-2.0382 2.72,-2.9686 0.574,-0.93 2.31,-2.5506 3.855,-3.5999 1.545,-1.05 2.809,-2.0931 2.809,-2.3193 0,-0.2265 0.696,-0.8595 1.548,-1.4085 0.852,-0.5489 2.191,-1.4249 2.977,-1.9495 1.704,-1.137 3.7,-1.236 4.537,-0.228 0.648,0.78 0.652,0.753 -1.469,7.8426 -0.588,1.9645 -1.257,3.8163 -1.488,4.1149 -0.895,1.1595 -2.77,6.6201 -2.77,8.0664 0,0.951 -0.605,2.4008 -1.607,3.8589 -0.883,1.284 -2.087,3.291 -2.674,4.4588 -0.586,1.167 -1.546,2.7658 -2.131,3.5517 -0.585,0.786 -1.211,2.217 -1.389,3.1806 -0.321,1.7271 -2.081,4.045 -3.79,4.9918 -0.582,0.3225 -1.104,1.5731 -1.557,3.7367 -0.48,2.2905 -1.302,4.1935 -2.781,6.4375 -1.155,1.752 -2.404,3.9131 -2.779,4.802 -0.373,0.8895 -1.461,2.5474 -2.416,3.6855 -0.954,1.1385 -1.736,2.2626 -1.736,2.499 0,0.237 -0.726,1.2345 -1.612,2.217 -0.887,0.9825 -1.968,2.6446 -2.403,3.6924 -0.435,1.047 -1.39,2.655 -2.123,3.5718 -0.733,0.9165 -1.594,2.4636 -1.915,3.4372 -0.597,1.8107 -2.62,3.8784 -4.326,4.4198 -0.525,0.1665 -1.08,0.8775 -1.234,1.5807 -0.909,4.1373 -1.854,6.4245 -3.969,9.6123 -3.516,5.2996 -4.243,6.13 -6.272,7.1652 -2.268,1.1565 -3.095,2.4085 -3.502,5.3014 -0.173,1.2255 -0.836,2.9396 -1.473,3.81 -0.638,0.87 -1.567,2.4537 -2.065,3.5184 -0.498,1.065 -1.524,2.4575 -2.281,3.0956 -0.757,0.6375 -1.817,2.0173 -2.356,3.0651 -3.982,7.7421 -4.737,8.9629 -6.266,10.1292 -0.925,0.705 -1.995,2.0371 -2.377,2.9587 -0.383,0.921 -1.744,2.7881 -3.026,4.1475 -1.562,1.6575 -2.33,2.8814 -2.33,3.7146 0,1.6509 -1.008,3.498 -2.86,5.2437 -0.834,0.786 -2.12,2.6075 -2.858,4.0481 -0.738,1.44 -2.231,3.4767 -3.318,4.5244 -2.108,2.0327 -4.775,6.2648 -4.775,7.5779 0,1.5603 -1.917,4.5133 -3.791,5.8384 -1.122,0.7935 -2.318,2.2286 -2.91,3.4905 -0.552,1.179 -1.819,3.0005 -2.815,4.0482 -2.204,2.3195 -3.13,4.1274 -3.468,6.7688 -0.333,2.6145 -4.031,8.535 -7.663,12.2712 -1.533,1.5771 -3.009,3.5104 -3.28,4.2963 -0.752,2.1819 -5.561,9.184 -7.298,10.6258 -0.849,0.7035 -2.303,2.8469 -3.232,4.7613 -0.928,1.9146 -2.341,4.2245 -3.139,5.133 -0.798,0.909 -1.874,2.4813 -2.391,3.4949 -0.517,1.014 -1.605,2.347 -2.418,2.9632 -2.235,1.6943 -3.136,2.6618 -6.629,7.1229 -2.262,2.8881 -3.298,4.6512 -3.509,5.9733 -0.194,1.2135 -0.819,2.373 -1.773,3.2844 -0.81,0.774 -2.022,2.4177 -2.694,3.651 -1.151,2.1107 -4.401,5.2923 -6.604,6.4634 -0.543,0.288 -1.245,1.386 -1.561,2.4366 -0.315,1.0515 -1.156,2.598 -1.87,3.4368 -0.714,0.8385 -2.047,2.9382 -2.964,4.665 -1.333,2.5125 -2.217,3.5056 -4.422,4.9723 -2.831,1.8833 -4.561,4.4822 -6.059,9.0992 -0.418,1.2915 -1.846,3.0964 -4.548,5.7507 -2.166,2.1271 -4.279,4.6015 -4.695,5.4987 -1.433,3.0876 -4.138,7.119 -5.277,7.8651 -0.656,0.429 -1.475,1.75 -1.923,3.1023 -0.548,1.648 -1.356,2.8156 -2.694,3.8911 -1.052,0.8445 -2.243,2.1794 -2.648,2.9652 -0.405,0.786 -1.428,2.286 -2.275,3.3338 -0.846,1.047 -2.015,2.8497 -2.597,4.0044 -0.582,1.155 -3.037,4.1551 -5.456,6.6675 -2.441,2.5357 -4.872,5.5665 -5.463,6.8122 -0.604,1.2765 -1.717,2.6511 -2.578,3.1875 -1.531,0.954 -5.154,4.8867 -7.72,8.3796 -0.769,1.047 -2.935,3.5784 -4.811,5.6237 -2.241,2.4418 -3.513,4.2511 -3.704,5.2693 -0.37,1.9751 -3.623,6.3915 -7.41,10.062 -1.621,1.5716 -3.448,3.8219 -4.06,5.0006 -0.612,1.179 -2.005,3.0004 -3.098,4.0482 -1.094,1.047 -2.505,2.9158 -3.137,4.1512 -0.632,1.236 -1.846,2.979 -2.697,3.8745 -0.851,0.8955 -1.977,2.3414 -2.501,3.2129 -1.108,1.8442 -3.451,3.5384 -5.897,4.265 -2.916,0.867 -7.313,1.041 -8.627,0.342 z m -61.935,-44.0467 c 0.01,-1.0005 0.516,-2.0947 1.45,-3.1584 1.002,-1.1415 1.428,-2.122 1.428,-3.286 0,-0.945 0.416,-2.187 0.965,-2.8859 1.527,-1.9419 2.368,-4.3953 2.368,-6.9087 0,-1.9071 0.347,-2.8584 1.935,-5.3167 1.065,-1.6467 2.377,-4.1748 2.917,-5.6181 0.656,-1.7526 1.744,-3.3528 3.275,-4.8188 1.625,-1.555 3.094,-3.7797 5.04,-7.6321 2.359,-4.6703 3.032,-5.6108 4.776,-6.6675 1.587,-0.9615 2.096,-1.5941 2.333,-2.8971 0.32,-1.7544 2.315,-5.2388 3,-5.2388 0.51,0 3.391,-4.3237 5.015,-7.5286 0.684,-1.35 2.313,-4.0311 3.621,-5.9586 1.308,-1.9277 2.379,-3.8072 2.381,-4.1766 0,-2.0531 1.252,-4.5176 3.525,-6.9779 1.392,-1.5084 2.696,-3.2784 2.896,-3.9333 0.201,-0.6555 0.98,-2.0365 1.733,-3.0703 0.753,-1.0335 1.368,-2.2769 1.368,-2.7621 0,-1.0995 1.128,-3.3264 2.089,-4.1243 0.398,-0.33 1.058,-1.7503 1.467,-3.1558 0.408,-1.4055 0.947,-2.6816 1.197,-2.8361 0.251,-0.1545 1.109,-1.6504 1.907,-3.3243 0.996,-2.088 1.965,-3.3597 3.084,-4.0515 1.279,-0.7905 1.793,-1.5645 2.38,-3.5851 0.447,-1.536 1.488,-3.4305 2.578,-4.6899 1.232,-1.422 1.935,-2.7768 2.154,-4.1451 0.253,-1.5869 0.831,-2.5233 2.635,-4.271 1.271,-1.2315 2.471,-2.7504 2.667,-3.3762 0.196,-0.6255 0.952,-2.0085 1.681,-3.0729 0.729,-1.0635 1.478,-2.7445 1.663,-3.7338 0.186,-0.9885 1.032,-2.8308 1.881,-4.0926 0.849,-1.2615 1.779,-2.9664 2.065,-3.7882 0.287,-0.822 0.948,-2.0933 1.469,-2.8256 0.522,-0.732 1.405,-2.5528 1.963,-4.0456 0.558,-1.4925 1.854,-3.6833 2.88,-4.8677 1.024,-1.185 1.863,-2.4277 1.863,-2.763 0,-0.3345 1.094,-2.4115 2.431,-4.6144 1.336,-2.2028 2.616,-4.6244 2.843,-5.3814 0.549,-1.8264 3.523,-6.4532 6.037,-9.3888 1.731,-2.0214 2.024,-2.6736 2.024,-4.506 0,-2.9079 0.962,-4.9929 3.387,-7.3467 1.684,-1.6347 2.186,-2.5602 2.889,-5.3274 0.534,-2.1044 1.497,-4.2482 2.589,-5.7689 0.957,-1.3305 1.927,-3.1044 2.158,-3.9411 0.231,-0.837 1.082,-2.3505 1.89,-3.3642 1.704,-2.1375 3.28,-5.0628 3.28,-6.0897 0,-0.3915 1.071,-2.7672 2.381,-5.2783 1.31,-2.5112 2.381,-5.0783 2.381,-5.7047 0,-1.8609 0.902,-3.7099 2.725,-5.5861 1.392,-1.4325 1.785,-2.2746 2.082,-4.4631 0.267,-1.9635 0.777,-3.2082 1.874,-4.5749 0.83,-1.032 1.726,-2.6649 1.992,-3.6274 0.266,-0.963 1.193,-2.4195 2.061,-3.2375 0.955,-0.9015 1.791,-2.311 2.12,-3.5775 0.299,-1.149 1.146,-2.9473 1.883,-3.9951 0.816,-1.1625 1.47,-2.8641 1.674,-4.366 0.195,-1.4295 0.825,-3.1242 1.504,-4.0437 0.642,-0.87 1.583,-2.9265 2.09,-4.5692 1.071,-3.4672 1.637,-4.6287 3.129,-6.4228 0.597,-0.717 1.435,-2.5389 1.864,-4.0481 0.429,-1.5091 1.381,-3.6012 2.115,-4.6489 0.735,-1.047 1.677,-3.0837 2.095,-4.5245 0.417,-1.44 1.669,-4.0123 2.783,-5.715 1.115,-1.7025 2.809,-5.3458 3.766,-8.0962 0.957,-2.7503 2.274,-6.2865 2.925,-7.8581 0.651,-1.5717 1.567,-3.9084 2.035,-5.1928 0.468,-1.284 1.553,-3.1112 2.409,-4.0592 1.598,-1.7688 3.33,-5.8714 3.977,-9.4168 0.201,-1.0995 0.936,-2.8637 1.634,-3.9189 0.699,-1.056 1.27,-2.3627 1.27,-2.9051 0,-1.2165 1.1,-3.407 2.147,-4.2757 1.41,-1.17 2.531,-4.0345 3.056,-7.8156 0.362,-2.6046 1.016,-4.6693 2.178,-6.8809 0.913,-1.7381 1.994,-4.4459 2.402,-6.0174 0.726,-2.7932 1.073,-3.4602 3.12,-6.0104 0.551,-0.6855 1.4,-2.679 1.884,-4.4281 0.494,-1.7789 1.609,-4.1708 2.532,-5.4279 1.321,-1.8006 1.75,-2.9567 2.152,-5.8113 0.443,-3.1344 3.249,-11.2068 4.404,-12.6638 0.23,-0.291 0.828,-2.1285 1.328,-4.0851 1.069,-4.1794 5.211,-12.4507 7.164,-14.304 0.75,-0.7125 1.517,-1.9984 1.703,-2.8575 0.186,-0.8595 0.759,-2.1574 1.273,-2.8854 0.515,-0.7275 1.145,-2.0824 1.401,-3.0102 0.257,-0.927 1.202,-2.5014 2.101,-3.4969 0.9,-0.996 1.635,-2.1731 1.635,-2.6169 0,-1.1895 0.864,-2.6426 2.896,-4.8684 1.018,-1.116 2.048,-2.8835 2.359,-4.0482 0.305,-1.137 1.335,-3.2625 2.293,-4.7235 0.957,-1.461 2.275,-3.5447 2.93,-4.6307 0.655,-1.086 1.432,-1.98 1.726,-1.987 0.294,-0.01 0.666,-0.666 0.827,-1.464 0.159,-0.798 0.829,-2.1575 1.488,-3.0215 0.658,-0.864 1.198,-1.8144 1.198,-2.1121 0,-0.69 -1.571,-1.0815 -5.08,-1.266 -1.528,-0.075 -4.599,-0.2865 -6.826,-0.459 -2.226,-0.1725 -5.119,-0.3675 -6.429,-0.435 -4.79,-0.246 -9.594,-0.855 -12.435,-1.5762 -2.207,-0.561 -3.148,-0.612 -3.898,-0.21 -1.581,0.846 -4.124,0.618 -7.572,-0.6795 -2.929,-1.1025 -3.408,-1.158 -5.479,-0.627 -3.189,0.8175 -11.188,-0.045 -14.431,-1.5668 -1.552,-0.7245 -3.377,-1.14 -5.239,-1.191 -1.572,-0.045 -5.688,-0.2745 -9.147,-0.516 -5.863,-0.408 -6.455,-0.5415 -8.723,-1.9512 -1.937,-1.2045 -2.95,-1.5127 -4.963,-1.5127 -1.392,0 -3.299,-0.321 -4.24,-0.714 -0.94,-0.393 -2.841,-0.711 -4.225,-0.7065 -2.632,0.01 -10.037,-1.449 -13.708,-2.6979 -2.112,-0.7185 -4.09,-1.1235 -9.818,-2.0081 -1.602,-0.2475 -3.574,-0.792 -4.382,-1.209 -2.487,-1.2855 -2.723,-1.0785 -3.6,3.1695 -0.447,2.1611 -1.149,4.8935 -1.563,6.0722 -0.412,1.179 -0.711,2.679 -0.661,3.3337 0.423,5.6982 0.01,12.5759 -0.941,15.9933 -0.804,2.867 -0.97,4.3583 -0.727,6.5087 0.213,1.8901 0.09,3.5875 -0.386,5.2647 -0.385,1.362 -0.705,3.3982 -0.711,4.5262 0,1.2855 -0.441,2.7965 -1.162,4.0481 -0.86,1.4895 -1.094,2.464 -0.924,3.8311 0.12,1.008 -0.135,3.1757 -0.579,4.8158 -0.444,1.6401 -0.738,3.6934 -0.653,4.563 0.15,1.497 0.344,1.651 3.726,2.8986 1.965,0.7245 4.082,1.329 4.705,1.3425 0.623,0.014 2.249,0.663 3.614,1.4445 1.55,0.8865 3.66,1.5865 5.619,1.864 2.026,0.2865 3.78,0.8805 4.95,1.6758 0.998,0.678 2.266,1.2315 2.821,1.2315 0.555,0 1.951,0.639 3.104,1.4205 1.152,0.7815 3.221,1.7516 4.597,2.1566 1.375,0.405 3.947,1.4535 5.715,2.3301 4.249,2.107 6.185,2.9476 8.295,3.6015 0.962,0.2985 2.006,0.852 2.321,1.2315 0.315,0.3795 0.921,0.6915 1.348,0.6915 0.426,0 1.472,0.426 2.323,0.945 1.812,1.104 2.149,3.084 0.609,3.5728 -0.969,0.3075 -13.18,0 -20.73,-0.525 -2.358,-0.1635 -5.09,-0.6165 -6.071,-1.0065 -0.981,-0.39 -2.101,-0.588 -2.486,-0.441 -0.385,0.15 -3.223,-0.045 -6.306,-0.426 -3.172,-0.393 -6.865,-0.567 -8.508,-0.3975 -2.335,0.24 -3.329,0.105 -5.09,-0.6705 -1.705,-0.7545 -2.807,-0.912 -4.989,-0.714 l -2.801,0.2535 -0.769,2.2043 c -0.423,1.212 -0.774,3.295 -0.779,4.6281 0,1.5508 -0.447,3.4159 -1.225,5.1789 -0.671,1.5154 -1.22,3.5322 -1.221,4.482 0,0.9495 -0.33,2.3524 -0.728,3.1173 -0.399,0.765 -0.802,2.5027 -0.897,3.8619 -0.09,1.359 -0.409,2.916 -0.7,3.4596 -0.291,0.543 -0.53,1.6413 -0.53,2.4396 0,0.798 -0.256,2.9457 -0.57,4.7722 -0.526,3.0735 -0.501,3.3977 0.357,4.3472 0.51,0.564 2.106,1.6395 3.546,2.3893 1.44,0.75 3.155,1.6569 3.81,2.0159 0.656,0.3585 2.262,1.1655 3.572,1.7911 2.704,1.293 7.49,5.9414 7.282,7.0725 -0.225,1.2255 -4.151,2.9194 -6.329,2.7321 -1.395,-0.12 -2.48,0.1665 -4.049,1.0695 -1.853,1.0665 -2.722,1.239 -6.429,1.2675 -5.687,0.045 -6.429,0.3165 -6.429,2.3467 0,1.6181 -2.536,9.1409 -3.363,9.9779 -0.246,0.249 -0.447,1.4955 -0.447,2.7697 0,1.275 -0.242,2.7696 -0.539,3.3225 -0.295,0.5535 -0.685,2.9576 -0.865,5.3438 -0.272,3.5961 -0.548,4.66 -1.605,6.2178 -0.845,1.242 -1.284,2.5276 -1.298,3.7927 -0.03,3.2435 -0.747,5.8812 -2.12,7.8641 -1.083,1.5639 -1.211,2.0259 -0.72,2.6178 0.328,0.3945 1.266,0.72 2.086,0.723 2.467,0.01 5.658,1.8972 6.656,3.9412 1.761,3.6035 -0.427,5.8226 -5.643,5.7221 -1.572,-0.03 -3.262,-0.135 -3.757,-0.219 -0.774,-0.135 -0.918,0.183 -1.035,2.3355 -0.09,1.7581 -0.586,3.286 -1.656,5.1552 -1.227,2.1457 -1.466,2.9938 -1.239,4.4119 0.21,1.3125 -0.03,2.4158 -0.941,4.37 -0.793,1.6996 -1.345,3.9472 -1.578,6.4243 -0.335,3.5718 -1.31,6.4617 -2.411,7.1417 -0.264,0.1635 -0.48,1.7419 -0.48,3.5088 0,2.79 -0.198,3.5221 -1.503,5.5678 -2.049,3.2097 -2.822,6.0255 -2.692,9.8012 0.09,2.662 -0.105,3.6064 -1.202,5.7745 -1.024,2.0243 -1.356,3.4515 -1.516,6.5147 -0.15,2.8704 -0.468,4.3501 -1.189,5.5168 -0.608,0.984 -1.142,2.991 -1.395,5.2437 -0.338,3.0105 -0.689,4.0373 -2.004,5.8652 -1.499,2.0815 -1.598,2.4604 -1.636,6.2637 -0.03,2.4439 -0.36,4.9918 -0.846,6.4294 -0.442,1.3095 -1.254,3.7743 -1.803,5.4768 -0.549,1.7027 -1.399,3.8045 -1.892,4.6707 -0.531,0.9345 -0.896,2.4995 -0.896,3.8484 0,1.5354 -0.403,3.0338 -1.243,4.6161 -1.014,1.9103 -1.229,2.9166 -1.164,5.4485 0.08,2.7436 -0.07,3.3291 -1.308,5.0232 -1.01,1.3935 -1.448,2.6305 -1.606,4.5283 -0.15,1.7843 -0.619,3.2042 -1.489,4.4844 -1.166,1.7148 -1.248,2.1405 -0.981,5.0246 0.336,3.612 -0.258,5.3073 -2.963,8.4681 -1.668,1.9479 -2.189,3.576 -3.012,9.4036 -0.225,1.5896 -0.75,3.552 -1.168,4.361 -0.419,0.8085 -1.22,3.1516 -1.779,5.206 -0.559,2.0544 -1.228,4.1342 -1.485,4.6217 -0.256,0.4875 -0.525,2.7525 -0.597,5.0332 -0.135,4.3787 -0.552,5.634 -2.574,7.8014 -1.241,1.329 -2.316,5.4727 -2.407,9.277 -0.02,0.8625 -0.437,2.3619 -0.923,3.3338 -0.487,0.972 -1.029,2.6977 -1.203,3.8353 -0.178,1.1595 -1.327,3.7746 -2.617,5.9531 -1.737,2.9338 -2.442,4.7197 -2.881,7.2954 -0.319,1.8759 -0.879,3.8047 -1.243,4.2862 -0.39,0.5145 -0.671,2.0538 -0.681,3.7332 -0.01,3.0008 -0.545,4.1592 -2.951,6.5007 -0.9,0.876 -1.356,1.9178 -1.559,3.5598 -0.461,3.7113 -1.413,6.4116 -3.298,9.3467 -1.181,1.8382 -2.072,2.7384 -2.713,2.7384 -0.525,0 -1.454,0.327 -2.065,0.7275 -0.87,0.57 -2.381,0.7035 -7.008,0.618 -3.244,-0.06 -7.961,0.15 -10.482,0.4545 -2.521,0.3105 -8.629,0.7005 -13.573,0.867 -4.944,0.1665 -9.32,0.477 -9.726,0.6885 -0.405,0.2115 -4.015,0.615 -8.023,0.897 -4.008,0.282 -7.473,0.627 -7.701,0.768 -0.228,0.135 -3.153,0.333 -6.502,0.429 -3.348,0.09 -9.196,0.621 -12.994,1.1685 -3.798,0.5475 -9.37,1.0065 -12.382,1.0215 -31.164,0.15 -38.459,0.4305 -36.609,1.4205 1.275,0.6825 5.09,0.9315 16.392,1.071 l 11.454,0.15 2.833,1.3875 c 2.453,1.2015 3.293,1.371 6.251,1.2615 2.424,-0.09 3.851,0.105 4.911,0.6465 1.269,0.6555 1.87,0.6885 3.976,0.2175 2.089,-0.468 2.773,-0.4335 4.321,0.213 1.96,0.819 6.922,1.4685 15.046,1.968 4.063,0.2505 5.536,0.558 7.858,1.6417 2.971,1.3875 6.822,2.1506 9.872,1.9572 3.162,-0.201 6.855,0.876 9.752,2.8446 1.518,1.0305 3.152,1.875 3.632,1.8756 0.48,6e-4 2.338,0.6435 4.128,1.4295 1.79,0.786 3.852,1.428 4.58,1.428 0.729,0 3.051,0.618 5.159,1.374 2.109,0.756 5.12,1.7477 6.692,2.204 1.571,0.456 3.368,1.23 3.993,1.7212 0.624,0.4905 1.696,0.894 2.381,0.8955 0.686,0 1.889,0.432 2.675,0.957 0.786,0.525 2.286,1.182 3.333,1.461 2.522,0.672 5.467,2.6247 5.516,3.6578 0.06,1.425 1.345,-1.9023 1.368,-3.5622 z m 126.722,-321.694 c -1.886,-2.0249 -0.841,-4.1966 2.02,-4.1966 2.456,0 3.616,3.1313 1.666,4.4975 -1.454,1.0185 -2.539,0.93 -3.686,-0.3015 z m -250.526,209.2494 c -4.994,-2.4701 -6.233,-3.8939 -5.473,-6.2897 0.413,-1.302 4.942,-4.381 7.14,-4.8556 5.3,-1.1445 6.071,-1.071 8.29,0.783 4.39,3.6681 4.574,4.5997 1.621,8.2096 -2.956,3.6131 -7.076,4.3791 -11.578,2.1528 z m -174.069,-0.3705 c -0.99,-0.2025 -13.69,-1.1775 -16.193,-1.242 -0.786,-0.015 -2.186,0.12 -3.112,0.3135 -4.043,0.843 -8.309,-1.8884 -9.479,-6.0671 -0.843,-3.0096 0.01,-7.0843 1.788,-8.454 5.435,-4.2069 8.132,-5.4211 10.976,-4.9417 2.072,0.3495 6.444,0.5325 14.829,0.6195 1.965,0.015 5.002,-0.204 6.749,-0.501 2.387,-0.4035 3.878,-0.399 6.001,0.015 2.926,0.576 8.173,0.366 12.086,-0.4845 2.297,-0.4995 3.801,-0.2475 7.13,1.1895 1.608,0.6945 1.846,0.681 3.545,-0.1845 2.75,-1.4025 4.56,-1.5738 7.809,-0.741 3.765,0.9645 7.031,0.9615 9.35,-0.01 2.195,-0.918 4.851,-0.6615 6.72,0.6465 1.146,0.8025 1.904,0.9015 5.416,0.708 3.299,-0.1815 4.397,-0.06 5.715,0.6225 1.329,0.69 2.956,0.8625 8.775,0.9225 4.352,0.045 7.542,0.2895 8.164,0.6255 0.561,0.303 3.24,0.63 5.953,0.729 2.713,0.105 6.54,0.5235 8.505,0.945 1.964,0.4215 5.929,0.8685 8.81,0.993 5.726,0.249 16.597,1.467 17.373,1.9467 0.734,0.4545 0.584,1.9523 -0.265,2.658 -0.414,0.3435 -1.861,0.7995 -3.215,1.0125 -8.776,1.3845 -12.186,1.8857 -13.654,2.0099 -5.881,0.498 -12.969,1.4205 -15.002,1.9542 -2.67,0.7005 -10.266,1.4145 -13.652,1.2825 -1.223,-0.045 -4.159,0.318 -6.526,0.8145 -3.418,0.7155 -4.675,0.795 -6.112,0.39 -3.407,-0.963 -12.535,-0.4605 -16.973,0.9345 -1.955,0.615 -3.097,0.642 -7.519,0.1785 -2.867,-0.3 -5.435,-0.408 -5.707,-0.24 -1.335,0.825 -8.589,0.999 -14.193,0.342 -5.313,-0.624 -6.158,-0.618 -8.335,0.06 -2.1,0.6525 -2.74,0.6675 -4.818,0.105 -2.014,-0.5385 -2.776,-0.5385 -4.763,0.01 -2.979,0.816 -4.957,1.083 -6.175,0.8325 z m -12.762,-67.8375 c -0.734,-0.213 -2.822,-1.4055 -4.641,-2.649 -5.507,-3.7625 -6.485,-7.5296 -3.435,-13.2218 1.022,-1.9047 1.818,-2.6985 3.596,-3.58 2.163,-1.0725 2.43,-1.0995 5.001,-0.5025 3.446,0.801 10.601,0.624 13.568,-0.336 1.513,-0.489 3.994,-0.726 7.381,-0.7035 2.807,0.015 6.175,0.03 7.484,0.013 1.31,-0.011 3.346,-0.01 4.525,0.01 4.991,0.06 11.787,-0.381 13.332,-0.8685 2.252,-0.711 5.421,-0.6615 7.281,0.12 2.665,1.11 6.182,1.332 9.446,0.5955 1.672,-0.378 4.648,-0.675 6.612,-0.66 1.965,0.014 5.573,-0.327 8.019,-0.7575 4.459,-0.7845 7.678,-0.528 8.42,0.6735 0.441,0.7125 2.967,0.5505 4.602,-0.2955 0.807,-0.417 2.993,-0.933 4.858,-1.1475 1.865,-0.213 4.205,-0.6015 5.2,-0.8625 1.865,-0.489 4.716,-0.015 5.946,0.9855 0.429,0.3495 1.376,0.3165 3.171,-0.12 2.42,-0.5805 5.962,-0.4935 11.515,0.2835 1.372,0.192 2.442,0.03 3.558,-0.5505 1.55,-0.801 4.893,-1.371 11.507,-1.9617 2.435,-0.2175 3.736,-0.09 5.357,0.531 2.079,0.7935 2.187,0.789 3.746,-0.174 1.91,-1.1805 4.855,-1.29 7.294,-0.2715 1.235,0.516 2.549,0.636 4.628,0.426 2.284,-0.231 3.511,-0.075 5.746,0.708 3.169,1.119 7.797,1.3155 11.623,0.495 2.024,-0.4335 2.874,-0.3555 5.858,0.537 4.342,1.299 13.033,2.3489 14.721,1.7781 0.753,-0.255 1.734,-0.2235 2.531,0.075 0.716,0.2715 2.346,0.495 3.621,0.495 1.275,0 2.923,0.2415 3.66,0.5355 0.738,0.294 2.769,0.507 4.514,0.4725 1.746,-0.03 3.711,0.135 4.367,0.39 0.657,0.249 2.336,0.5085 3.733,0.5745 2.463,0.12 4.213,0.963 4.198,2.0298 -0.03,1.8509 -1.43,2.2347 -12.376,3.3852 -1.964,0.207 -4.419,0.6705 -5.455,1.032 -1.052,0.366 -4.84,0.774 -8.573,0.921 -3.951,0.156 -7.423,0.5415 -8.484,0.939 -1.093,0.411 -3.595,0.6735 -6.401,0.6735 -4.771,0 -8.663,0.543 -12.758,1.7798 -3.108,0.939 -8.161,1.6606 -12.621,1.8033 -1.964,0.06 -5.929,0.363 -8.811,0.6675 -2.881,0.3045 -12.739,0.6495 -21.907,0.7665 -10.96,0.135 -17.123,0.4005 -17.996,0.759 -0.877,0.3615 -2.247,0.417 -4.048,0.1635 -1.497,-0.21 -4.007,-0.3555 -5.579,-0.3225 -11.619,0.24 -14.434,0.4575 -16.906,1.3005 -1.628,0.555 -3.657,0.852 -5.358,0.783 -4.492,-0.183 -5.492,-0.1725 -13.692,0.135 -26.428,1.0065 -27.186,1.014 -31.786,0.333 -3.52,-0.522 -4.085,-0.495 -5.477,0.2505 -1.051,0.564 -2.856,0.8715 -5.6,0.954 -6.654,0.2025 -11.485,0.1695 -11.891,-0.075 -0.21,-0.135 -0.996,-0.045 -1.746,0.195 -2.416,0.7635 -3.716,0.8895 -5.078,0.492 z m 264.46,-8.1761 c -4.942,-2.2746 -6.131,-2.7601 -6.759,-2.7601 -0.804,0 -1.988,-1.2255 -2.458,-2.5452 -0.414,-1.161 1.617,-3.0461 5.693,-5.2863 l 3.125,-1.718 4.865,0.495 c 4.977,0.5055 12.474,2.7294 13.232,3.924 0.647,1.0185 0.444,2.5628 -0.433,3.3222 -1.821,1.5737 -6.787,3.6375 -9.915,4.1198 -1.815,0.2805 -3.944,0.6195 -4.73,0.753 -0.786,0.135 -1.965,0 -2.619,-0.3045 z m -226.933,-68.4876 c -0.786,-0.189 -3.264,-0.237 -5.506,-0.105 -4.673,0.2745 -4.828,0.2175 -9.537,-3.5613 -2.501,-2.0059 -3.423,-3.0823 -3.843,-4.4848 -0.779,-2.597 0.06,-5.1465 2.342,-7.0752 0.98,-0.8295 2.505,-2.1309 3.392,-2.892 1.846,-1.5852 4.096,-2.1461 6.63,-1.6527 2.194,0.4275 2.602,0.426 5.685,-0.01 1.538,-0.216 3.555,-0.12 5.255,0.234 2.382,0.5055 3.098,0.474 5.242,-0.2265 2.305,-0.7545 2.654,-0.7575 4.836,-0.045 1.293,0.423 2.956,0.7695 3.694,0.7695 0.738,0 2.043,0.201 2.9,0.447 1.277,0.366 1.964,0.2415 3.807,-0.693 2.487,-1.26 2.329,-1.2495 20.347,-1.2105 5.5,0.012 10.803,0.2145 11.783,0.45 1.141,0.2745 4.732,0.192 10.001,-0.231 11.113,-0.891 23.042,-1.1745 25.369,-0.6045 1.303,0.3195 3.117,0.294 5.715,-0.075 2.093,-0.3015 4.587,-0.6555 5.543,-0.7875 1.102,-0.153 2.368,0.06 3.463,0.579 1.488,0.7065 2.015,0.738 3.825,0.231 2.142,-0.6 8.457,-0.321 11.316,0.4995 0.93,0.267 2.005,0.15 3.371,-0.366 1.649,-0.6225 4.079,-0.7485 13.673,-0.708 20.599,0.09 24.76,0.2745 27.384,1.2375 3.989,1.4625 5.58,1.7001 7.737,1.158 1.628,-0.4095 2.497,-0.3525 4.47,0.2925 1.551,0.507 3.094,0.6915 4.209,0.504 1.114,-0.189 2.444,-0.03 3.626,0.4335 1.026,0.402 2.938,0.711 4.247,0.687 1.31,-0.03 4.417,0.1725 6.906,0.438 15.368,1.6335 16.142,1.8244 15.507,3.8238 -0.348,1.0995 -2.523,1.9978 -4.832,1.9978 -0.861,0 -2.106,0.2055 -2.768,0.4575 -0.661,0.252 -2.803,0.5565 -4.758,0.6795 -1.956,0.12 -3.986,0.4515 -4.512,0.7335 -0.525,0.2805 -1.775,0.5115 -2.776,0.5115 -1.002,0 -2.569,0.2415 -3.484,0.5355 -0.915,0.294 -3.7,0.693 -6.189,0.8865 -2.488,0.1935 -6.56,0.7185 -9.048,1.1685 -2.731,0.4935 -5.51,0.708 -7.011,0.54 -1.688,-0.1875 -3.14,-0.03 -4.524,0.471 -3.554,1.305 -9.114,2.6357 -11.087,2.6547 -1.047,0.01 -4.362,-0.09 -7.366,-0.2205 -4.151,-0.1815 -5.773,-0.075 -6.763,0.435 -1.812,0.9375 -4.479,0.84 -7.664,-0.279 -3.242,-1.14 -4.586,-1.1865 -6.856,-0.2385 -0.94,0.393 -2.728,0.714 -3.972,0.714 -1.245,0 -3.175,-0.321 -4.288,-0.714 -2.648,-0.9345 -5.393,-0.906 -7.287,0.075 -1.021,0.5295 -2.467,0.753 -4.382,0.6795 -4.008,-0.1545 -4.208,-0.15 -9.525,0.3945 -3.367,0.342 -6.126,0.3285 -9.417,-0.045 -4.585,-0.5265 -6.567,-0.3975 -15.348,1.002 -1.309,0.2085 -3.881,0.1935 -5.715,-0.03 -1.833,-0.228 -5.798,-0.5895 -8.81,-0.804 -4.526,-0.3225 -5.725,-0.2625 -6.906,0.3375 -1.063,0.5415 -3.556,0.7785 -9.763,0.93 -7.671,0.1875 -26.512,0.153 -32.147,-0.06 -1.309,-0.045 -2.917,0.045 -3.572,0.1995 -0.655,0.159 -1.833,0.135 -2.619,-0.06 z m 243.541,-9.4323 c -2.242,-1.119 -2.407,-2.9316 -0.447,-4.8925 1.425,-1.425 1.543,-1.4535 4.676,-1.1475 4.225,0.4125 4.778,0.5925 5.119,1.6669 0.313,0.987 -0.693,3.2801 -1.869,4.2551 -1.176,0.9765 -5.62,1.047 -7.479,0.12 z m -143.29,-56.5075 c -1.493,-0.483 -3.059,-1.6187 -5.156,-3.7377 -3.735,-3.7742 -4.116,-5.3565 -2.279,-9.4729 1.519,-3.4034 2.773,-4.2447 6.59,-4.4213 1.643,-0.075 4.809,-0.459 7.036,-0.852 2.416,-0.426 5.776,-0.6375 8.334,-0.525 12.939,0.5685 19.125,0.537 21.511,-0.105 1.353,-0.366 4.033,-0.663 5.953,-0.657 5.295,0.013 10.859,-0.2775 13.32,-0.696 1.724,-0.294 2.878,-0.1515 5.277,0.6465 2.67,0.888 3.391,0.954 5.521,0.4965 1.961,-0.42 2.952,-0.3825 4.962,0.1875 4.664,1.3245 12.41,0.774 20.207,-1.4325 1.94,-0.549 2.872,-0.5835 4.437,-0.162 1.091,0.294 5.354,0.816 9.476,1.1595 5.13,0.429 7.994,0.885 9.08,1.446 0.928,0.48 2.198,0.7305 3.065,0.603 0.813,-0.12 2.124,-0.03 2.913,0.207 0.789,0.2325 3.359,0.438 5.712,0.4545 2.497,0.015 4.776,0.288 5.476,0.6465 0.756,0.3885 2.132,0.5235 3.722,0.369 1.706,-0.1665 3.092,-0.01 4.286,0.498 1.065,0.4485 3.767,0.8295 6.813,0.96 2.777,0.12 5.455,0.432 5.953,0.696 0.498,0.264 2.506,0.6345 4.463,0.8205 4.168,0.399 5.639,0.8775 6.059,1.9707 0.639,1.6665 -1.793,2.5981 -8.665,3.3186 -0.523,0.06 -2.774,0.4605 -5,0.9015 -2.227,0.441 -6.084,0.81 -8.573,0.819 -4.114,0.015 -8.682,0.747 -10.085,1.6134 -0.302,0.186 -2.818,0.3885 -5.591,0.447 -2.936,0.06 -6.035,0.4185 -7.422,0.8535 -4.341,1.359 -21.303,2.647 -30.718,2.3332 -8.635,-0.288 -10.753,-0.276 -20.003,0.105 -11.662,0.4815 -22.42,0.4005 -23.948,-0.18 -0.923,-0.351 -1.667,-0.33 -2.602,0.075 -0.888,0.381 -5.91,0.5985 -15.598,0.6735 -7.858,0.06 -16.109,0.231 -18.335,0.3765 -2.877,0.1875 -4.668,0.06 -6.191,-0.4305 z m -108.824,-1.6608 c -2.587,-1.0695 -5.953,-7.071 -5.953,-10.614 0,-2.0484 0.209,-2.5609 1.566,-3.862 0.861,-0.825 2.629,-2.0949 3.929,-2.8218 1.3,-0.7275 3.094,-1.7846 3.987,-2.3502 1.585,-1.005 1.741,-1.0125 6.667,-0.3675 2.775,0.363 7.188,0.678 9.807,0.699 3.678,0.03 5.14,0.24 6.418,0.924 2.704,1.446 6.596,2.1432 12.068,2.1612 3.079,0.01 5.569,0.2475 6.191,0.588 0.572,0.315 2.112,0.729 3.422,0.9225 9.658,1.4205 15.543,2.4558 17.349,3.0505 1.159,0.3825 2.666,0.6945 3.347,0.6945 2.639,0 4.462,2.7078 2.521,3.7462 -0.459,0.246 -1.905,0.5835 -3.215,0.7515 -1.309,0.168 -3.137,0.5295 -4.061,0.8025 -1.065,0.3165 -2.284,0.3405 -3.333,0.075 -1.705,-0.4425 -2.357,-0.3315 -6.417,1.098 -1.757,0.618 -4.005,0.8535 -8.573,0.8985 -4.531,0.045 -6.765,0.276 -8.334,0.8655 -5.08,1.9086 -18.484,3.0975 -23.336,2.07 -1.065,-0.225 -2.691,-0.09 -4.505,0.39 -3.023,0.7905 -7.969,0.939 -9.545,0.288 z m 104.824,-69.0301 c -3.044,-1.233 -3.447,-1.287 -5.477,-0.7425 -6.026,1.6194 -7.344,1.7506 -11.997,1.194 -3.344,-0.399 -5.679,-0.408 -8.714,-0.03 -2.8,0.348 -4.705,0.3615 -5.862,0.045 -0.984,-0.2715 -4.272,-0.357 -7.717,-0.201 -4.97,0.2265 -6.37,0.135 -8.145,-0.5385 -1.179,-0.447 -3.214,-1.0035 -4.524,-1.236 -1.31,-0.234 -3.346,-0.645 -4.524,-0.9135 -1.179,-0.2685 -3.992,-0.681 -6.252,-0.918 -2.26,-0.237 -4.756,-0.765 -5.547,-1.173 -1.87,-0.9675 -7.203,-0.543 -9.85,0.7845 -1.651,0.828 -2.752,0.9345 -8.918,0.864 -8.1,-0.09 -9.989,-0.5685 -11.97,-3.0162 -1.311,-1.6193 -1.377,-1.9224 -1.32,-6.0701 0.06,-4.9165 0.639,-6.4878 2.975,-8.1508 1.348,-0.96 2.476,-1.146 10.08,-1.662 4.709,-0.3195 8.851,-0.4695 9.205,-0.3345 0.354,0.135 1.461,-0.075 2.461,-0.48 0.999,-0.399 3.582,-0.9855 5.739,-1.3005 l 3.923,-0.573 2.989,1.5171 2.989,1.5171 2.343,-1.26 c 2.081,-1.119 2.691,-1.227 5.44,-0.9735 1.702,0.1575 3.779,0.09 4.615,-0.1575 2.178,-0.636 7.935,0.192 10.206,1.4685 1.694,0.9525 2.036,0.9945 3.413,0.4245 0.841,-0.348 3.03,-0.96 4.864,-1.3605 3.188,-0.6945 3.514,-0.6795 7.468,0.345 l 4.135,1.0725 2.803,-0.9705 c 2.246,-0.777 3.176,-0.879 4.676,-0.513 4.517,1.101 6.932,1.341 8.207,0.8145 1.194,-0.492 9.774,-0.9795 14.144,-0.8025 2.364,0.09 2.756,0.075 10.954,-0.456 3.949,-0.258 7.639,-0.261 9.049,-0.01 4.018,0.72 9.925,1.425 11.43,1.3665 5.308,-0.2085 13.126,0.105 14.525,0.597 1.035,0.3585 3.834,0.534 7.382,0.4605 3.276,-0.06 6.68,0.12 7.975,0.453 1.933,0.4875 2.503,0.4545 3.945,-0.234 2.204,-1.0515 5.361,-1.02 8.258,0.075 3.005,1.1415 8.777,0.9075 12.178,-0.495 1.83,-0.7545 2.834,-0.891 4.524,-0.615 1.196,0.195 3.673,0.414 5.507,0.4875 1.833,0.075 4.114,0.258 5.067,0.4095 1.032,0.1635 2.565,-0.015 3.786,-0.4485 1.511,-0.5325 4.317,-0.741 10.648,-0.7905 13.353,-0.105 15.249,0.01 18.296,1.0605 2.196,0.7605 3.763,0.9405 7.266,0.84 3.985,-0.12 4.662,-0.01 6.275,0.9885 1.503,0.93 2.554,1.1385 6.227,1.239 2.43,0.06 5.153,0.3465 6.05,0.6225 0.897,0.276 2.631,0.6375 3.854,0.8025 2.498,0.3375 3.4,1.113 3.171,2.7274 -0.12,0.8205 -0.636,1.2345 -2.06,1.6421 -6.8,1.9422 -9.35,2.6787 -11.669,3.3693 -1.44,0.429 -3.621,0.801 -4.845,0.8265 -1.435,0.03 -2.567,0.3555 -3.189,0.918 -1.098,0.993 -8.124,3.1227 -10.362,3.1402 -0.819,0.01 -2.246,0.3285 -3.171,0.714 -1.352,0.564 -3.445,0.66 -10.655,0.483 -4.935,-0.12 -9.532,-0.3405 -10.216,-0.4875 -0.818,-0.177 -1.859,0.09 -3.042,0.7935 -1.735,1.023 -1.965,1.041 -6.407,0.486 -3.987,-0.498 -5.016,-0.471 -7.636,0.201 -2.22,0.5685 -3.953,0.6885 -6.498,0.45 -2.23,-0.2085 -4.428,-0.105 -6.15,0.2745 -2.365,0.5295 -2.985,0.4965 -5.257,-0.276 -2.706,-0.9195 -3.708,-0.8565 -12.132,0.765 -2.176,0.4185 -2.967,0.375 -4.457,-0.2475 -1.977,-0.8265 -3.816,-0.7155 -8.693,0.519 -2.122,0.537 -3.709,0.6405 -5.715,0.3705 -1.529,-0.2055 -3.315,-0.3315 -3.97,-0.279 -0.655,0.045 -2.242,-0.225 -3.528,-0.615 -1.807,-0.5475 -2.564,-0.585 -3.334,-0.1635 -1.27,0.696 -16.319,1.9526 -21.951,1.833 -2.357,-0.045 -5.386,-0.4335 -6.73,-0.852 -2.383,-0.7425 -2.541,-0.729 -6.244,0.4995 -4.728,1.5683 -6.186,1.5512 -10.313,-0.12 z m -88.869,-65.0315 c -1.44,-0.6315 -3.417,-1.278 -4.391,-1.4385 -2.351,-0.3855 -4.529,-2.29 -5.117,-4.4737 -0.924,-3.4301 0.839,-9.8342 3.118,-11.3271 1.813,-1.188 6.949,-2.5422 9.655,-2.546 1.403,0 4.021,0.351 5.816,0.7845 3.064,0.7395 3.531,0.7365 7.605,-0.045 4.088,-0.7905 4.463,-0.792 6.445,-0.03 1.561,0.5955 2.873,0.729 5.084,0.513 1.638,-0.159 8.659,-0.423 15.6,-0.5865 6.941,-0.1635 14.121,-0.3375 15.954,-0.3885 1.834,-0.045 4.253,-0.3195 5.375,-0.5955 1.829,-0.4515 3.463,-0.3675 9.151,0.465 0.393,0.06 1.92,-0.186 3.394,-0.5415 2.384,-0.5745 2.973,-0.5535 5.334,0.189 1.915,0.603 3.157,0.726 4.464,0.444 0.996,-0.2145 3.631,-0.4455 5.858,-0.5115 4.025,-0.12 6.985,-0.306 13.811,-0.87 2.653,-0.219 4.614,-0.06 7.62,0.609 4.02,0.897 4.066,0.897 6.599,-0.06 2.217,-0.8385 2.824,-0.8925 4.65,-0.4035 1.155,0.309 4.4,0.567 7.213,0.573 2.812,0.01 6.005,0.2175 7.096,0.4695 1.498,0.3465 2.478,0.2835 4.008,-0.2565 1.115,-0.393 2.447,-0.5805 2.962,-0.417 0.516,0.1635 2.677,0.39 4.802,0.504 2.126,0.12 5.902,0.315 8.39,0.447 2.488,0.135 5.979,0.2265 7.757,0.21 1.777,-0.015 3.633,0.1845 4.124,0.447 0.639,0.342 1.392,0.2685 2.654,-0.2595 1.467,-0.6135 2.013,-0.636 3.258,-0.135 1.075,0.4305 5.969,0.624 17.449,0.6945 26.588,0.162 38.617,0.5865 39.872,1.4085 1.378,0.903 1.383,1.91 0.02,2.7692 -0.924,0.5805 -6.581,1.3035 -15.209,1.9456 -1.227,0.09 -2.512,0.345 -2.857,0.564 -0.345,0.219 -2.878,0.552 -5.628,0.738 -2.75,0.1875 -7.037,0.564 -9.525,0.8355 -2.488,0.273 -5.81,0.5955 -7.382,0.7185 -1.572,0.12 -3.576,0.4365 -4.454,0.699 -0.877,0.2625 -3.449,0.4845 -5.715,0.495 -2.265,0.01 -4.948,0.216 -5.962,0.459 -1.014,0.243 -2.102,0.342 -2.418,0.2205 -0.317,-0.12 -1.191,0.014 -1.944,0.3 -0.753,0.2865 -3.895,0.6105 -6.982,0.7185 -3.823,0.135 -6.073,0.4365 -7.053,0.942 -0.823,0.426 -2.403,0.7035 -3.696,0.651 -1.242,-0.045 -4.079,0.183 -6.305,0.519 -5.715,0.8655 -11.395,1.0545 -13.255,0.4425 -1.268,-0.417 -2.001,-0.3645 -3.643,0.264 -2.626,1.002 -5.64,1.5639 -13.344,2.4845 -7.147,0.8535 -7.062,0.852 -15.24,0.4785 -3.405,-0.156 -9.835,-0.3075 -14.288,-0.3375 -7.343,-0.045 -8.271,0.03 -9.982,0.936 -2.114,1.1115 -3.99,1.2045 -6.434,0.3225 -1.104,-0.399 -2.342,-0.468 -3.729,-0.21 -1.591,0.297 -2.728,0.168 -4.88,-0.558 -3.612,-1.2165 -4.19,-1.1955 -8.254,0.3135 -3.729,1.3845 -8.963,1.6465 -12.71,0.6375 -1.421,-0.3825 -3.481,-0.387 -7.512,-0.014 -3.054,0.282 -6.571,0.6075 -7.815,0.7215 -1.243,0.12 -3.28,-0.105 -4.524,-0.4785 -2.954,-0.897 -12.681,-0.8865 -16.789,0.015 -4.205,0.9255 -5.064,0.8775 -8.096,-0.4515 z m 276.701,-7.489 c -3.721,-0.531 -5.239,-1.41 -5.239,-3.0345 0,-0.8895 0.536,-1.5299 2.126,-2.5383 1.855,-1.176 2.731,-1.3815 6.879,-1.61 6.463,-0.3555 10.045,0.8085 10.045,3.2645 0,1.5028 -1.573,2.443 -4.762,2.8465 -1.44,0.1815 -3.198,0.624 -3.906,0.981 -0.706,0.357 -1.458,0.6225 -1.666,0.591 -0.21,-0.03 -1.774,-0.258 -3.477,-0.4995 z"
       id="vctrly-chalky-icon-document" /></g></svg>
