<?xml version="1.0" encoding="UTF-8" standalone="no"?>
<!-- Created with Inkscape (http://www.inkscape.org/) -->

<svg
   width="450.8793mm"
   height="838.11578mm"
   viewBox="0 0 450.87932 838.1158"
   version="1.1"
   id="svg1"
   xml:space="preserve"
   xmlns="http://www.w3.org/2000/svg"
   xmlns:svg="http://www.w3.org/2000/svg"><defs
     id="defs1" /><g
     id="layer1"
     transform="translate(-17460.012,-3952.5726)"><path
       style="fill:#000000;stroke-width:1"
       d="m 17772.569,4789.4604 c -6.056,-2.6076 -7.302,-5.5617 -4.994,-11.8307 0.36,-0.9915 0.465,-2.6653 0.285,-4.5243 -0.9,-9.0153 -0.9,-9.7318 0,-12.4372 0.81,-2.5869 0.81,-2.7446 0,-4.6794 -0.75,-1.6607 -0.87,-2.8959 -0.75,-7.2353 0.15,-3.1051 0.435,-5.8932 0.84,-6.8571 0.9,-2.1517 0.855,-5.7184 -0.15,-7.9842 -0.525,-1.2465 -0.675,-2.5068 -0.48,-3.949 0.165,-1.1655 0,-3.345 -0.27,-4.8435 -0.48,-2.3408 -0.45,-3.0255 0.255,-4.8588 0.63,-1.6481 0.72,-2.5782 0.375,-4.0842 -0.285,-1.245 -0.255,-3.2219 0,-5.4668 0.375,-2.5782 0.36,-5.0931 0,-9.4219 -0.315,-3.2478 -0.66,-9.4413 -0.765,-13.7633 -0.18,-7.635 -0.15,-7.9155 0.99,-9.8778 l 1.17,-2.0196 -1.05,-1.419 c -1.555,-2.1049 -1.726,-5.8408 -0.45,-9.6997 0.9,-2.7027 0.96,-3.3798 0.48,-5.1682 -0.345,-1.257 -0.435,-3.3663 -0.255,-5.4185 0.225,-2.4424 0.15,-3.9211 -0.42,-5.4133 -0.825,-2.3562 -0.54,-9.0092 0.51,-12.0581 0.525,-1.497 0.51,-2.0464 0,-3.4375 -0.96,-2.2958 -0.87,-5.1965 0.24,-7.3637 0.795,-1.567 0.885,-2.4351 0.645,-6.0532 -0.15,-2.3231 -0.555,-4.7636 -0.885,-5.4231 -0.645,-1.278 -0.615,-17.1542 0,-24.2801 0.18,-1.9645 0.27,-4.7505 0.18,-6.1912 -0.15,-1.44 -0.15,-4.1195 0,-5.9531 0.27,-10.9404 0.435,-13.5193 1.005,-15.1765 0.615,-1.8224 0.585,-2.4326 -0.42,-8.3306 -0.42,-2.4679 -0.39,-3.4926 0.21,-5.5363 0.555,-1.9143 0.615,-2.8521 0.225,-3.9614 -0.315,-0.894 -0.42,-4.2493 -0.3,-8.7105 0.18,-6.2967 0.15,-7.6035 -0.705,-9.8715 -0.735,-2.1091 -0.825,-3.0369 -0.465,-4.803 0.465,-2.2923 0.495,-2.7348 0.525,-10.0471 0,-2.4884 0.27,-5.9579 0.585,-7.7102 0.525,-2.9475 0.48,-3.3712 -0.51,-5.6691 -0.975,-2.284 -1.035,-2.7741 -0.57,-6.1012 1.584,-11.3762 1.751,-13.5153 1.41,-18.0077 -0.195,-2.5629 -0.705,-5.7876 -1.14,-7.1659 -0.63,-2.0621 -0.675,-2.9067 -0.225,-4.7675 0.345,-1.425 0.435,-4.0201 0.24,-7.0189 -0.45,-6.9956 -0.39,-8.2248 0.51,-9.5877 0.765,-1.161 0.765,-1.341 0,-3.0326 -0.57,-1.2525 -0.735,-2.5006 -0.555,-4.1118 1.395,-12.8002 1.38,-12.5439 0.6,-14.4969 -0.9,-2.2414 -0.96,-4.1835 -0.195,-6.7083 0.465,-1.5538 0.42,-2.1303 -0.24,-3.5242 -0.93,-1.9638 -1.005,-4.1553 -0.225,-7.0595 0.45,-1.6605 0.435,-2.6554 0,-4.7098 -0.525,-2.1707 -0.51,-3.0312 0,-5.1645 0.36,-1.4085 0.615,-2.9885 0.555,-3.5123 -1.185,-11.4291 -1.08,-14.5131 0.645,-20.3293 0.465,-1.5998 0.525,-2.5865 0.18,-3.4839 -0.615,-1.6011 -0.63,-18.3585 0,-19.9517 0.345,-0.894 0.21,-1.8991 -0.48,-3.9156 -1.185,-3.4341 -1.185,-5.2177 0.01,-7.444 l 0.945,-1.7705 -1.005,-2.5087 c -1.2,-2.9967 -1.035,-7.1544 0.435,-11.5136 0.81,-2.3808 0.855,-3.0142 0.345,-4.7302 -0.315,-1.089 -0.495,-3.2672 -0.375,-4.8387 0.15,-1.7012 -0.15,-4.0139 -0.51,-5.715 -0.87,-3.4253 -0.78,-15.8304 0.15,-18.0975 0.45,-1.11 0.45,-1.8154 0,-3.1627 -0.39,-1.197 -0.465,-3.1863 -0.225,-6.4295 0.345,-4.6743 0.435,-11.5902 0.21,-16.1253 0,-1.3095 0.15,-4.5244 0.48,-7.1437 0.645,-5.0853 0.435,-12.6546 -0.45,-16.7442 -0.375,-1.7586 -0.39,-2.99 0,-4.3334 0.27,-1.032 0.54,-3.972 0.57,-6.5331 0,-2.5609 0.21,-5.3257 0.39,-6.1441 0.375,-1.7427 0,-6.884 -1.11,-12.9177 -1.02,-5.8083 -0.96,-8.7629 0.225,-11.7626 0.93,-2.371 0.945,-2.6833 0.285,-5.6134 -0.495,-2.1873 -0.675,-5.6429 -0.615,-11.7113 0,-7.3888 0.195,-8.793 0.93,-9.9099 0.825,-1.263 0.825,-1.3635 -0.195,-3.457 -0.915,-1.8759 -0.99,-2.5679 -0.675,-5.3301 0.45,-3.7914 0.435,-9.4511 0,-12.5883 -0.225,-1.5528 -0.15,-2.8317 0.36,-4.0481 0.555,-1.443 0.66,-4.3362 0.555,-15.3513 -0.15,-7.4652 -0.24,-16.1448 -0.375,-19.288 -0.15,-3.1433 0,-6.3788 0.225,-7.1901 0.33,-1.056 0.255,-2.2589 -0.27,-4.2314 -0.57,-2.1807 -0.6,-3.1929 -0.195,-4.8454 0.405,-1.5858 0.375,-2.6054 0,-4.2332 -0.39,-1.3665 -0.48,-3.046 -0.255,-4.6333 0.195,-1.3695 0.285,-3.2393 0.21,-4.1561 0,-0.9165 -0.15,-4.4529 -0.01,-7.858 0,-3.4052 0.18,-9.5132 0.255,-13.5732 0.15,-6.2766 0.615,-11.9117 1.29,-14.7527 0.15,-0.537 -0.51,-0.7785 -2.688,-1.0185 -4.278,-0.4725 -11.661,-1.8543 -13.749,-2.5719 -1.02,-0.348 -2.114,-0.5295 -2.447,-0.4005 -0.33,0.135 -1.969,-0.03 -3.636,-0.3495 -1.665,-0.321 -3.886,-0.633 -4.933,-0.693 -2.477,-0.15 -6.762,-0.927 -8.573,-1.5649 -0.78,-0.2775 -3.679,-0.8505 -6.43,-1.275 -2.75,-0.4245 -6.237,-1.002 -7.751,-1.284 -1.512,-0.282 -2.868,-0.3945 -3.012,-0.2505 -0.15,0.15 -0.945,0.045 -1.774,-0.222 -0.825,-0.267 -3.227,-0.6405 -5.322,-0.831 -6.359,-0.579 -16.56,-2.4708 -18.435,-3.4188 -0.975,-0.492 -2.733,-0.894 -3.914,-0.894 -1.185,0 -3.063,-0.3045 -4.185,-0.6765 -1.215,-0.402 -3.781,-0.66 -6.327,-0.6345 -5.769,0.06 -9.66,-0.495 -11.668,-1.6556 -1.245,-0.717 -2.64,-0.9855 -5.477,-1.0515 -2.095,-0.045 -4.278,-0.3435 -4.851,-0.654 -0.57,-0.3105 -2.241,-0.5655 -3.709,-0.5655 -1.653,0 -3.344,-0.3375 -4.437,-0.8865 -0.975,-0.4875 -2.975,-1.005 -4.452,-1.1505 -1.47,-0.15 -3.341,-0.6045 -4.143,-1.0185 -0.81,-0.4155 -2.211,-0.7545 -3.132,-0.7545 -0.915,0 -2.76,-0.429 -4.089,-0.9525 -1.47,-0.576 -3.585,-0.9615 -5.376,-0.9735 -1.628,-0.012 -3.708,-0.3105 -4.626,-0.666 -5.486,-2.1214 -6.948,-2.8281 -8.597,-4.1526 -1.501,-1.2075 -2.073,-1.4055 -3.166,-1.104 -2.814,0.777 -6.183,0.519 -7.68,-0.588 -1.185,-0.8775 -1.823,-1.008 -3.795,-0.774 -1.935,0.2295 -2.871,0.045 -5.102,-0.9705 -1.74,-0.7965 -3.561,-1.251 -5.016,-1.251 -1.699,0 -3.097,-0.432 -5.463,-1.6866 -2.619,-1.389 -3.744,-1.704 -6.387,-1.7859 -2.637,-0.075 -3.499,-0.3225 -4.846,-1.35 -1.41,-1.074 -1.979,-1.218 -4.052,-1.0185 -1.656,0.159 -2.869,0 -3.87,-0.522 -0.795,-0.414 -2.391,-0.897 -3.531,-1.0725 -1.14,-0.1755 -3.253,-0.9105 -4.693,-1.6317 -1.44,-0.7215 -3.798,-1.455 -5.24,-1.6278 -1.44,-0.174 -3.322,-0.729 -4.183,-1.233 -1.38,-0.813 -1.811,-0.852 -3.717,-0.342 -1.853,0.495 -2.465,0.456 -4.389,-0.2835 -1.23,-0.4725 -3.237,-1.041 -4.463,-1.2615 -1.23,-0.222 -2.724,-0.7185 -3.333,-1.1055 -0.615,-0.387 -2.071,-0.852 -3.25,-1.032 -1.185,-0.1815 -3.063,-0.858 -4.185,-1.5054 -1.47,-0.8475 -3.23,-1.299 -6.299,-1.6159 -4.395,-0.4545 -4.828,-0.546 -12.318,-2.5908 -2.455,-0.6705 -4.879,-1.0875 -5.385,-0.927 -1.2,0.3795 -5.227,-0.5985 -8.242,-2.0033 -1.305,-0.6105 -3.2,-1.113 -4.196,-1.116 -0.99,0 -2.466,-0.345 -3.268,-0.759 -1.976,-1.0215 -2.352,-0.51 -2.769,3.7475 -0.195,1.9468 -0.495,3.7771 -0.675,4.0672 -0.18,0.2895 0.15,1.338 0.57,2.3298 1.08,2.145 1.774,11.6274 1.02,13.7991 -0.285,0.8115 -0.315,2.2011 0,3.4865 0.225,1.2405 0.21,2.7378 0,3.5667 -0.24,0.786 -0.51,3.3576 -0.6,5.715 -0.15,2.3574 -0.3,5.8206 -0.48,7.6959 -0.27,2.7957 -0.15,4.0536 0.735,6.9861 0.87,2.9259 1.005,4.1682 0.72,6.8298 -0.42,4.1223 -0.42,13.9789 0.01,16.9509 0.225,1.5981 0.15,2.8638 -0.42,4.2862 -0.87,2.336 -1.155,8.4006 -0.495,10.8291 0.27,1.002 0.3,4.7097 0.15,9.287 -0.21,4.191 -0.39,7.9414 -0.405,8.3343 0,0.6585 0.45,5.4906 1.245,12.6952 0.195,1.806 0.15,3.5207 -0.21,4.4649 -0.42,1.2165 -0.375,2.0814 0.24,4.1861 0.645,2.2393 0.69,3.2415 0.24,6.4221 -0.3,2.073 -0.39,4.0042 -0.21,4.2918 0.18,0.288 0.36,4.6038 0.42,9.5917 0.15,7.9602 0,9.3237 -0.81,11.1534 -0.495,1.146 -0.9,2.9696 -0.9,4.0514 0,1.0815 -0.21,2.7136 -0.48,3.6268 -0.36,1.2645 -0.3,2.2046 0.285,3.9408 0.465,1.395 0.84,4.6317 0.975,8.3379 0.315,8.7098 0.495,11.5092 0.9,13.8002 0.255,1.488 0.15,2.6157 -0.48,4.2342 -0.69,1.7947 -0.795,3.1044 -0.585,7.0209 0.15,2.6479 0.54,6.3309 0.87,8.1843 0.57,3.1816 0.54,3.4938 -0.48,5.5923 -1.05,2.1538 -1.05,2.2869 -0.285,4.2966 0.675,1.7655 0.75,3.2362 0.48,9.8857 -0.165,4.2965 -0.285,10.3836 -0.27,13.5269 0,4.3665 -0.165,6.2641 -0.81,8.0427 -0.735,2.0268 -0.78,2.7964 -0.33,5.953 0.285,1.9941 0.81,4.4021 1.155,5.3513 0.495,1.3635 0.525,2.6623 0.15,6.1912 -0.48,4.2285 -0.15,9.7889 1.065,15.4193 0.165,0.786 0,2.3931 -0.345,3.5718 -0.465,1.5549 -0.525,2.9929 -0.225,5.2387 0.285,2.1047 0.225,3.8717 -0.165,5.5194 -0.435,1.8603 -0.435,2.667 -0.01,3.4698 0.42,0.7875 0.435,2.603 0,7.3393 -0.36,4.4586 -0.345,6.8303 0.01,8.1348 0.285,1.0125 0.375,2.361 0.225,2.996 -0.285,1.116 -0.315,15.5949 0,18.4989 0,0.786 -0.195,2.1787 -0.585,3.0955 -0.39,0.9165 -0.78,3.2742 -0.84,5.2388 -0.15,3.5884 0,4.6888 1.52,11.6179 0.75,3.4794 0.75,3.9233 0,5.9531 -0.51,1.443 -0.675,2.9743 -0.495,4.474 0.195,1.6085 0,2.8137 -0.54,4.0895 -0.78,1.7409 -0.78,1.9372 0.225,5.2192 1.125,3.6807 1.11,6.7656 0,9.4848 -0.555,1.3185 -0.555,1.7763 0,3.0956 0.72,1.6525 0.825,5.9607 0.24,10.4878 -0.255,2.0303 -0.15,3.5048 0.465,5.6399 0.69,2.4393 0.72,3.2619 0.24,5.2639 -0.345,1.4415 -0.435,3.4344 -0.24,5.0757 0.555,4.4952 0.705,20.9075 0.255,26.9328 -0.27,3.5309 -0.255,7.0514 0,9.3693 0.3,2.3486 0.3,4.4703 0,5.7738 -0.51,2.3312 -0.72,15.5838 -0.33,20.6346 0.15,1.8336 0.345,5.4059 0.45,7.9385 0.15,2.5326 0.33,4.8216 0.495,5.0865 0.165,0.2655 -0.165,1.8802 -0.72,3.5896 -0.975,2.9526 -0.975,3.2043 -0.24,5.0435 0.975,2.4451 0.975,4.477 0,7.3359 -0.705,2.0755 -0.705,2.416 0,4.2679 0.9,2.3678 0.945,4.6443 0.15,8.8862 -0.405,2.1219 -0.45,4.1289 -0.165,6.3804 0.255,2.0124 0.24,4.1928 0,5.6293 -0.36,1.8002 -0.3,2.9172 0.27,4.8114 0.63,2.1366 0.645,2.9772 0.15,6.2771 -0.72,4.3311 -0.75,6.1204 -0.24,11.2629 0.3,2.9647 0.21,4.0821 -0.48,6.0025 -0.81,2.2449 -0.81,2.5427 0,6.1203 1.35,6.2148 1.821,13.8503 1.02,16.3811 -0.375,1.179 -0.9,3.5362 -1.185,5.2387 -0.45,2.7771 -0.39,3.3534 0.54,5.5995 0.945,2.2853 0.975,2.7129 0.42,4.8966 -0.33,1.3155 -0.48,2.9198 -0.315,3.5639 0.165,0.6435 0,2.1343 -0.24,3.3114 -0.45,1.7839 -0.405,2.4748 0.27,4.1517 0.66,1.6687 0.795,3.5166 0.72,10.842 0,4.8568 -0.315,10.1256 -0.585,11.7085 -0.39,2.2445 -0.345,3.5024 0.21,5.715 0.525,2.1356 0.675,5.4869 0.6,13.5527 0,5.8936 -0.15,11.1442 -0.21,11.6682 -0.15,1.059 0.42,7.993 0.75,9.6019 0.15,0.771 0.675,1.1085 2.068,1.344 1.29,0.2175 2.75,1.0815 4.739,2.8043 3.013,2.6104 6.546,4.1089 9.684,4.1089 2.217,0 4.468,0.8025 6.913,2.4642 1.095,0.7485 2.708,1.4955 3.572,1.66 1.935,0.369 4.755,1.749 7.326,3.5849 1.32,0.942 2.874,1.5211 4.818,1.7959 2.587,0.366 3.541,0.741 6.99,2.7515 0.555,0.324 1.5,0.591 2.1,0.5955 1.26,0.01 4.432,1.5195 6.616,3.157 0.84,0.6255 2.162,1.1355 2.951,1.1355 1.774,0 9.456,3.0501 10.764,4.2738 0.525,0.495 2.028,1.26 3.33,1.7018 1.305,0.441 3.121,1.3125 4.041,1.9375 0.975,0.66 2.373,1.1385 3.346,1.1415 2.094,0.01 5.861,1.1295 7.977,2.3786 0.885,0.522 2.21,0.9495 2.942,0.9495 0.735,0 2.059,0.5265 2.949,1.1715 0.885,0.645 2.467,1.6359 3.504,2.2033 1.035,0.567 2.86,1.7012 4.051,2.5194 2.274,1.5605 4.689,2.3952 15.257,5.2757 5.107,1.392 6.966,2.1375 9.042,3.6256 1.558,1.1175 3.154,1.8732 3.952,1.8732 1.601,0 3.575,0.9555 4.821,2.3325 0.645,0.714 1.485,1.0005 2.9,1.0005 1.245,0 2.782,0.4455 4.093,1.1865 4.844,2.7378 9.998,5.0046 11.381,5.0046 1.8,0 3.664,0.921 5.208,2.5742 0.885,0.945 1.618,1.236 3.123,1.236 2.829,0 7.455,1.6998 9.595,3.5263 2.517,2.1464 4.289,2.9904 7.089,3.3762 1.305,0.18 3.66,0.726 5.232,1.2135 1.572,0.4875 4.416,1.356 6.323,1.9322 1.905,0.576 4.369,1.7412 5.476,2.5905 1.862,1.4295 9.486,4.341 13.68,5.2254 2.4,0.5055 6.189,2.4859 7.937,4.1479 0.93,0.885 2.305,1.5818 3.598,1.8231 1.155,0.2145 3.794,1.3995 5.874,2.6328 2.082,1.233 4.506,2.4434 5.39,2.6892 0.885,0.246 2.467,1.0725 3.523,1.8378 1.095,0.795 2.528,1.3905 3.338,1.3905 1.065,0 1.965,0.5655 3.645,2.3012 1.914,1.9746 2.634,2.3806 5.077,2.8614 1.655,0.3255 3.839,1.2105 5.213,2.1105 1.305,0.852 3.757,2.1475 5.46,2.8776 1.702,0.7305 3.417,1.5351 3.81,1.789 0.39,0.2535 1.47,0.804 2.377,1.221 0.915,0.417 2.27,1.2705 3.012,1.8954 0.75,0.6255 1.623,1.1355 1.958,1.1355 0.93,0 8.961,4.2225 10.029,5.2737 0.75,0.735 0.84,1.104 0.42,1.7577 -0.9,1.4055 -3.257,1.1115 -14.18,-1.7617 -2.071,-0.5445 -4.011,-1.194 -4.309,-1.4415 -0.3,-0.2475 -1.712,-0.666 -3.14,-0.93 -1.425,-0.264 -3.702,-0.6855 -5.052,-0.939 -1.35,-0.252 -3.106,-0.7965 -3.904,-1.2105 -0.795,-0.4125 -1.818,-0.75 -2.267,-0.75 -0.81,0 -4.159,-0.8715 -8.353,-2.1747 -1.215,-0.3795 -2.537,-0.5655 -2.93,-0.414 -0.645,0.249 -1.953,-0.1875 -7.635,-2.5482 -1.005,-0.417 -2.682,-0.708 -3.726,-0.6465 -1.335,0.075 -2.568,-0.267 -4.126,-1.1475 -2.793,-1.5791 -8.51,-3.6293 -10.086,-3.617 -3.434,0.03 -9.183,-1.4055 -11.193,-2.788 -1.155,-0.7935 -3.212,-1.6548 -4.571,-1.9125 -1.365,-0.258 -3.396,-1.0815 -4.525,-1.8291 -1.125,-0.7485 -3.081,-1.6178 -4.337,-1.9323 -1.26,-0.315 -3.129,-0.795 -4.164,-1.068 -1.05,-0.279 -2.622,-1.245 -3.571,-2.205 -1.455,-1.4775 -2.112,-1.7609 -4.787,-2.0885 -1.852,-0.2265 -4.242,-0.954 -5.952,-1.8133 -1.572,-0.789 -3.607,-1.5764 -4.525,-1.7501 -1.848,-0.3495 -4.506,-1.4085 -8.81,-3.5064 -1.572,-0.7665 -3.64,-1.5118 -4.596,-1.657 -0.96,-0.15 -2.559,-0.8205 -3.562,-1.5017 -1.005,-0.681 -2.613,-1.5165 -3.579,-1.8574 -0.96,-0.3405 -2.816,-1.347 -4.107,-2.2362 -1.992,-1.3695 -3.017,-1.6986 -6.72,-2.1546 -2.993,-0.369 -4.805,-0.849 -5.754,-1.5242 -0.765,-0.543 -2.282,-1.3035 -3.378,-1.6896 -2.576,-0.909 -8.771,-4.6656 -10.994,-6.6667 -1.545,-1.389 -2.038,-1.5593 -4.525,-1.5548 -2.013,0 -3.885,-0.42 -6.717,-1.5186 -2.16,-0.8385 -4.047,-1.7197 -4.196,-1.9594 -0.15,-0.24 -1.065,-0.4365 -2.026,-0.4365 -2.019,-5e-4 -7.38,-2.3787 -9.141,-4.0542 -1.658,-1.5786 -4.265,-2.5755 -7.662,-2.9307 -1.826,-0.1905 -3.485,-0.7035 -4.493,-1.3875 -3.598,-2.4413 -8.367,-4.4861 -10.462,-4.4861 -2.649,0 -4.011,-0.528 -7.856,-3.0468 -1.707,-1.1175 -3.96,-2.265 -5.007,-2.5491 -3.456,-0.9375 -8.359,-2.8521 -9.187,-3.5874 -1.23,-1.0875 -3.941,-2.0976 -9.246,-3.439 -2.633,-0.666 -5.348,-1.6005 -6.035,-2.0784 -2.653,-1.8449 -12.337,-6.2543 -13.737,-6.2543 -0.81,0 -2.619,-0.6075 -4.029,-1.3485 -1.41,-0.741 -3.303,-1.497 -4.209,-1.6774 -0.9,-0.1815 -2.439,-0.9675 -3.409,-1.7474 -1.08,-0.873 -2.321,-1.419 -3.21,-1.419 -0.795,0 -2.36,-0.408 -3.48,-0.9075 -1.125,-0.4995 -2.961,-1.287 -4.089,-1.7518 -1.125,-0.465 -2.499,-1.5032 -3.047,-2.3078 -0.54,-0.804 -2.355,-2.7565 -4.02,-4.3378 -2.893,-2.7496 -3.025,-2.9742 -3.025,-5.151 0,-2.5194 0.48,-3.7309 2.259,-5.6332 1.08,-1.158 1.17,-1.5561 0.945,-4.2863 -0.15,-1.6552 -0.495,-4.3462 -0.78,-5.9802 -0.735,-4.0662 -0.405,-42.187 0.375,-44.1168 0.63,-1.5396 0.405,-9.2727 -0.465,-16.2537 -0.285,-2.3574 -0.51,-5.2507 -0.495,-6.4294 0.15,-5.964 0.435,-12.3236 0.66,-12.6873 0.15,-0.225 0,-1.5534 -0.15,-2.9514 -0.225,-1.4145 -0.225,-3.5237 0,-4.7556 0.3,-1.6212 0.24,-2.6457 -0.255,-3.8267 -0.915,-2.1736 -0.855,-6.4779 0.15,-9.0202 0.705,-1.8632 0.735,-2.5557 0.165,-6.6834 -0.84,-6.0626 -0.795,-8.012 0.18,-10.5788 0.735,-1.9278 0.765,-2.7829 0.24,-8.7963 -0.54,-6.1665 -0.66,-10.0332 -0.48,-15.4716 0,-1.179 0,-3.2146 0,-4.5243 0,-1.3095 0.225,-3.7888 0.615,-5.5093 0.66,-2.8619 0.645,-3.2841 -0.15,-4.9608 -1.14,-2.5979 -1.518,-6.3569 -0.87,-8.846 0.495,-1.9299 0.735,-21.9034 0.42,-36.4051 0,-2.6195 0.18,-6.947 0.51,-9.6168 0.585,-4.635 0.57,-4.9617 -0.42,-7.2321 -1.26,-2.9229 -1.365,-7.919 -0.255,-11.1999 0.72,-2.112 0.72,-2.3861 0,-4.1145 -0.63,-1.398 -0.75,-2.4111 -0.495,-4.1324 0.615,-4.0869 0.675,-10.3257 0.15,-12.6882 -0.465,-2.0119 -0.405,-2.6641 0.45,-5.0352 0.975,-2.6604 0.975,-2.7618 0.15,-4.3561 -1.02,-1.9215 -1.155,-5.4468 -0.3,-7.509 0.465,-1.101 0.51,-2.4356 0.18,-5.4126 -0.615,-5.6474 -0.6,-6.5967 0.375,-13.3419 0.825,-5.7714 0.84,-6.1596 0,-8.2227 -0.66,-1.728 -0.81,-3.5823 -0.78,-9.1826 0.15,-17.581 -0.21,-38.8071 -0.66,-41.4192 -0.24,-1.3815 -0.15,-2.7369 0.42,-4.3036 0.63,-1.9067 0.735,-4.1099 0.57,-13.2547 -0.15,-6.845 -0.42,-11.7174 -0.795,-12.9617 -0.48,-1.6146 -0.48,-2.4913 0,-4.6105 0.495,-2.0406 0.51,-3.0227 0.15,-4.4594 -0.765,-2.5614 -0.69,-4.6837 0.255,-7.33 0.69,-1.9479 0.735,-2.6505 0.24,-5.0292 -0.795,-3.824 -0.72,-7.332 0.21,-9.6371 0.6,-1.4925 0.72,-2.8972 0.525,-6.0049 -0.15,-2.2314 0,-4.799 0.21,-5.7057 0.315,-1.161 0.27,-2.1707 -0.15,-3.4106 -0.78,-2.2611 -1.08,-12.2113 -0.87,-27.7176 0.15,-5.4745 0,-7.3452 -0.705,-9.0271 -0.585,-1.5581 -0.705,-2.76 -0.465,-4.5245 0.795,-5.6476 0.825,-23.3239 0.15,-43.8364 0,-1.5717 0,-5.1078 0,-7.8582 0.15,-2.7503 0,-6.1979 -0.18,-7.6611 -0.255,-2.0336 -0.15,-3.0123 0.435,-4.1531 0.615,-1.2015 0.72,-2.4918 0.54,-6.6264 -0.15,-2.8236 -0.45,-6.3124 -0.735,-7.7532 -0.525,-2.7598 -0.39,-4.0267 0.81,-7.7875 0.6,-1.8869 0.63,-2.5419 0.15,-3.5718 -0.39,-0.8505 -0.645,-4.9091 -0.765,-12.4493 -0.15,-6.1534 -0.39,-12.2824 -0.675,-13.6201 -0.405,-1.9523 -0.36,-2.8622 0.24,-4.6112 0.495,-1.4415 0.81,-4.5673 0.93,-9.2398 0.165,-5.8877 0,-7.8258 -0.81,-11.6649 -0.99,-4.5333 -0.99,-4.6622 -0.15,-8.3898 0.51,-2.2613 0.735,-4.4348 0.555,-5.3973 -0.84,-4.3376 -0.855,-6.003 -0.15,-7.4336 0.63,-1.2165 0.66,-1.9348 0.24,-4.3651 -0.36,-2.0657 -0.36,-3.7446 0,-5.7887 0.33,-1.872 0.345,-3.298 0,-4.0771 -0.255,-0.6585 -0.435,-2.5244 -0.39,-4.1456 0,-1.6212 -0.195,-4.3011 -0.51,-5.9553 -0.42,-2.2078 -0.42,-3.4263 0,-4.5811 0.345,-1.05 0.375,-2.4851 0.15,-4.3125 -0.255,-1.6758 -0.255,-3.41 0,-4.4676 1.425,-5.4885 1.662,-8.5665 1.14,-15.0635 l -0.375,-4.7625 1.47,-2.0199 c 0.855,-1.1715 1.47,-2.6076 1.47,-3.4183 0,-1.6181 1.875,-3.3725 3.603,-3.3725 1.125,0 2.257,-0.8715 3.051,-2.3562 1.02,-1.9188 3.4,-2.4447 10.839,-2.4019 3.868,0.015 8.212,0.015 9.654,0 5.961,-0.105 17.802,0.8955 18.937,1.5981 0.27,0.165 1.635,-0.2175 3.038,-0.852 2.347,-1.062 3.049,-1.143 8.781,-1.02 4.587,0.105 6.822,0.36 8.472,0.99 2.163,0.8265 2.329,0.825 4.837,-0.03 2.528,-0.8595 2.69,-0.8595 6.141,4e-4 3.792,0.945 5.789,0.7815 12.2,-0.999 2.257,-0.627 3.357,-0.6495 7.62,-0.156 6.213,0.7185 6.892,0.7155 9.372,-0.06 1.635,-0.5055 2.448,-0.51 4.363,-0.015 2.015,0.516 2.684,0.492 4.619,-0.165 2.527,-0.858 4.225,-0.654 6.697,0.804 1.455,0.861 2.138,0.9225 6.966,0.6405 2.943,-0.1725 7.025,-0.6585 9.071,-1.0785 3.039,-0.6255 4.158,-0.6645 6.115,-0.213 1.32,0.3045 2.607,0.4215 2.865,0.2625 0.255,-0.159 3.507,-0.3975 7.22,-0.528 9.399,-0.33 8.602,-0.3225 23.656,-0.2625 7.466,0.03 17.861,-0.015 23.099,-0.105 5.239,-0.09 13.062,-0.135 17.383,-0.105 8.339,0.06 9.423,0.03 16.907,-0.396 6.195,-0.3525 7.881,-0.3615 14.925,-0.075 4.423,0.1785 6.273,0.075 7.485,-0.435 1.873,-0.783 6.36,-0.8775 8.842,-0.1875 1.26,0.351 2.409,0.3045 4.26,-0.1695 1.752,-0.4485 3.117,-0.5175 4.419,-0.225 1.035,0.2325 2.778,0.2895 3.872,0.12 1.35,-0.2025 2.584,-0.045 3.858,0.483 1.636,0.684 2.392,0.7095 6.058,0.2085 3.33,-0.4545 4.707,-0.4485 6.71,0.03 1.38,0.333 3.357,0.4905 4.383,0.3495 1.02,-0.135 4.282,-0.5235 7.239,-0.852 5.215,-0.5805 5.452,-0.5655 8.005,0.492 2.031,0.8415 3.033,1.0065 4.388,0.7215 0.96,-0.2025 3.579,-0.447 5.805,-0.5415 2.227,-0.09 4.477,-0.1935 5.001,-0.2205 0.525,-0.03 3.676,0.21 7.006,0.5265 3.329,0.3165 6.659,0.441 7.398,0.279 0.735,-0.162 2.195,0 3.233,0.369 1.485,0.522 2.809,0.567 6.175,0.2115 4.482,-0.474 5.798,-0.486 11.669,-0.105 1.965,0.12 7.858,0.315 13.096,0.417 8.552,0.1665 13.727,0.3195 33.338,0.99 17.575,0.6 23.049,0.852 24.765,1.1385 1.737,0.291 1.908,0.45 1.935,1.7988 0,0.972 0.51,1.9638 1.425,2.8919 0.765,0.777 1.902,2.839 2.515,4.5829 1.035,2.9207 1.095,3.6737 0.84,9.5489 -0.15,3.5079 -0.48,6.9046 -0.72,7.5483 -0.24,0.6435 -0.435,4.0396 -0.42,7.5465 0.01,3.6835 -0.195,6.9394 -0.51,7.71 -0.45,1.1145 -0.36,1.6633 0.48,3.3333 0.9,1.7655 1.035,2.9742 1.2,10.3342 0.42,18.8676 0.525,20.7807 1.335,24.0512 0.615,2.4696 0.735,4.1361 0.48,6.4293 -0.195,1.7026 -0.42,4.8522 -0.51,6.9991 -0.15,2.147 -0.465,4.6404 -0.84,5.5412 -0.6,1.44 -0.6,1.9114 0,3.9163 0.675,2.0603 0.675,2.4881 0,4.4603 -0.54,1.617 -0.675,3.4747 -0.525,7.1818 0.315,7.329 0.15,23.4446 -0.345,24.527 -0.15,0.2625 0.15,1.6081 0.435,2.9914 0.51,2.0204 0.51,3.119 0,5.5824 -0.435,2.2809 -0.45,3.4548 0,4.5804 0.66,1.9151 0.675,4.4664 0,7.5488 -0.45,2.1357 -0.39,2.7135 0.555,5.0064 1.005,2.4162 1.035,2.7718 0.435,5.2429 -0.345,1.458 -0.585,3.0197 -0.525,3.4706 0,0.45 0.195,3.0699 0.3,5.8201 0.15,2.7504 0.33,6.687 0.495,8.7482 0.285,3.3018 0.195,4.0231 -0.765,6.0643 -0.975,2.0825 -1.02,2.5152 -0.495,4.2783 0.33,1.116 0.45,2.7566 0.27,3.8079 -0.165,1.0155 -0.15,2.5476 0.195,3.4043 0.69,2.0988 0.69,2.95 0,10.1302 -0.765,7.6722 -0.78,17.4948 0,21.9075 0.3,1.8336 0.57,4.0838 0.615,5.0006 0.15,2.9997 -1.02,22.104 -1.41,23.8342 -0.21,0.939 -0.165,2.2076 0.15,2.8575 0.945,2.4407 1.485,8.1327 1.541,16.409 0,4.7148 0.225,9.66 0.42,10.9893 0.27,1.8579 0.15,3.0693 -0.57,5.2387 -1.506,4.5719 -1.557,6.903 -0.24,11.0369 1.08,3.384 1.125,3.8995 0.6,6.9807 -0.435,2.593 -0.435,4.0156 0,6.4509 0.435,2.3136 0.45,3.609 0,4.993 -0.375,1.332 -0.375,2.4492 0,3.8895 0.345,1.3845 0.36,2.7449 0,4.3195 -0.27,1.2645 -0.36,3.9755 -0.225,6.0246 0.195,2.814 0,4.4241 -0.615,6.5798 -0.84,2.7759 -0.84,2.9551 0,6.5635 0.72,2.9262 0.87,4.7552 0.675,8.6603 -0.15,2.7229 0,5.8407 0.195,6.9285 0.255,1.1895 0.255,2.7085 0,3.81 -0.24,1.008 -0.285,3.5467 -0.15,5.6422 0.195,2.0955 0.165,4.9887 0,6.4293 -0.21,1.44 -0.315,7.6557 -0.225,13.8113 0.15,6.7039 0,12.0925 -0.345,13.4379 -0.405,1.8226 -0.345,2.7039 0.3,4.6743 0.495,1.5091 0.705,3.0925 0.525,4.1833 -0.15,0.9645 -0.48,3.4124 -0.735,5.438 -0.24,2.0256 -0.585,3.9027 -0.75,4.1715 -0.165,0.2685 0.15,2.1825 0.675,4.2529 0.9,3.4884 0.96,4.6491 0.675,15.831 -0.165,6.6368 -0.285,12.8168 -0.27,13.7336 0.01,0.9165 0,4.9887 0,9.0487 0,9.4703 0,10.9355 0.555,20.955 0.285,4.8828 0.315,8.9798 0,9.8927 -0.225,0.8565 -0.3,2.6803 -0.165,4.0516 0.18,1.6781 0,3.0627 -0.465,4.2348 -0.555,1.347 -0.63,2.2088 -0.27,3.8012 0.315,1.4055 0.3,2.7268 0,4.1622 -0.405,1.599 -0.39,2.664 0,4.4463 0.525,2.0259 0.495,2.6541 -0.21,4.6326 -0.705,2.0049 -0.735,2.4879 -0.15,3.8935 0.375,0.912 0.9,5.3334 1.23,10.2392 0.525,7.8834 0.51,8.7705 -0.24,10.1985 -0.69,1.338 -0.735,2.0518 -0.315,4.9386 0.27,1.8559 0.51,6.5892 0.525,10.5183 0.15,21.0133 0,28.9428 -0.225,32.385 -0.18,2.3086 0,5.3853 0.315,7.8076 0.54,3.5543 0.525,4.2497 -0.195,6.2687 -0.705,2.0025 -0.735,2.5714 -0.165,4.8129 0.855,3.3825 0.795,26.6368 -0.15,28.6839 -0.48,1.1385 -0.45,1.7352 0.21,3.4528 0.585,1.5209 0.705,2.681 0.435,4.3382 -0.195,1.2435 -0.405,5.0482 -0.48,8.4534 0,3.4051 -0.285,7.3699 -0.465,8.8105 -0.225,1.8227 -0.15,3.1265 0.345,4.2863 0.495,1.227 0.645,3.5538 0.555,8.8107 -0.21,12.6654 -0.96,14.9451 -5.997,18.3126 -2.863,1.9129 -2.922,1.9279 -7.38,1.9279 -3.193,0 -4.921,0.2205 -5.971,0.7635 -1.14,0.588 -2.253,0.6975 -4.859,0.4755 -6.78,-0.5775 -14.862,-0.6675 -16.953,-0.1875 -1.572,0.36 -3.033,0.327 -5.476,-0.12 -5.183,-0.9615 -16.068,-0.8715 -19.43,0.159 -2.35,0.72 -4.51,0.8385 -14.526,0.795 -6.471,-0.03 -12.514,0.135 -13.432,0.369 -1.538,0.387 -1.658,0.546 -1.542,2.0617 0,0.903 0.15,4.3209 0.15,7.5951 -0.01,13.4889 0,15.1043 0.54,17.3985 0.42,1.9721 0.375,2.9003 -0.3,5.2388 -0.99,3.4272 -1.035,5.0551 -0.195,7.7244 0.525,1.6843 0.525,2.4052 0,4.2862 -0.81,2.9004 -0.885,19.9568 -0.15,22.832 0.375,1.383 0.42,3.2851 0.15,6.1912 -0.225,2.307 -0.465,6.2912 -0.51,8.8536 0,2.5625 -0.39,5.634 -0.75,6.8256 -0.555,1.8498 -0.555,2.448 0,4.0923 0.9,2.54 0.885,2.6042 -0.57,2.9699 -1.32,0.333 -4.268,3.0942 -6.536,6.1317 -0.75,1.0005 -1.926,2.0679 -2.619,2.3725 -1.749,0.768 -5.79,4.1928 -10.368,8.786 -3.997,4.0096 -4.359,4.2006 -8.752,4.6245 -8.684,0.8385 -8.619,0.8415 -12.144,-0.6765 z m 19.251,-20.5293 c 2.923,-0.6735 3.465,-1.5132 3.054,-4.7301 -0.51,-3.9363 -0.18,-29.9712 0.405,-31.9574 0.39,-1.326 0.33,-2.3046 -0.255,-4.3134 -0.87,-2.9698 -0.705,-11.356 0.255,-14.0266 0.45,-1.224 0.435,-2.0559 0,-3.8499 -1.17,-4.346 -1.185,-7.5732 0,-9.7794 0.975,-1.8714 1.005,-2.171 0.405,-4.8714 -0.615,-2.7839 -0.735,-10.2312 -0.465,-28.5949 0,-3.9291 0.15,-9.3674 0,-12.0851 0,-2.7177 0.3,-7.1871 0.72,-9.9319 0.555,-3.5625 0.645,-5.3513 0.3,-6.2507 -0.585,-1.536 -1.503,-9.0363 -1.503,-12.2121 0,-1.2735 0.255,-3.0132 0.555,-3.8662 0.45,-1.263 0.42,-2.0666 -0.225,-4.3202 -1.29,-4.4922 -1.395,-10.7931 -0.225,-14.134 0.81,-2.3594 0.915,-3.4422 0.645,-6.9083 -0.18,-2.2606 -0.39,-5.3962 -0.465,-6.9678 -0.15,-1.5717 -0.3,-4.0713 -0.51,-5.5548 -0.315,-2.2681 -0.21,-3.031 0.645,-4.7938 1.125,-2.331 1.335,-6.6377 0.495,-10.3683 -0.81,-3.5771 -1.305,-11.9664 -0.795,-13.5531 0.255,-0.7965 0.525,-3.0561 0.615,-5.0207 0.15,-1.9645 0.405,-4.2147 0.705,-5.0005 0.45,-1.161 0.39,-1.8993 -0.3,-3.945 -0.81,-2.4039 -0.825,-2.6955 0,-6.5352 0.81,-3.9239 0.81,-4.0836 -0.15,-6.7541 -1.14,-3.2617 -1.185,-4.4791 -0.255,-8.0316 0.63,-2.4045 0.615,-2.8752 0,-4.4286 -0.99,-2.2861 -1.02,-6.1354 -0.15,-7.9293 0.675,-1.2975 0.69,-1.7452 0.01,-4.8588 -0.705,-3.3006 -0.705,-3.5641 0.315,-6.9891 0.84,-2.841 0.96,-3.9267 0.6,-5.3806 -0.87,-3.4985 -1.05,-8.9982 -0.345,-11.3193 0.6,-1.9901 0.57,-2.4528 -0.24,-4.794 -1.125,-3.1842 -1.155,-5.7905 -0.15,-8.3781 0.66,-1.6347 0.69,-2.2428 0.225,-3.5511 -0.315,-0.8685 -0.57,-3.2534 -0.57,-5.3001 0,-2.0468 0,-4.793 0,-6.1026 0,-1.3095 0.195,-4.3101 0.48,-6.6675 0.675,-5.3705 0.705,-12.345 0,-14.5289 -0.27,-0.915 -0.6,-4.2655 -0.72,-7.4455 -0.18,-4.5287 0,-6.2685 0.525,-8.0267 0.6,-1.78 0.66,-2.7025 0.27,-4.4574 -0.27,-1.2165 -0.45,-5.6514 -0.39,-9.8539 0.15,-6.3671 0.24,-7.8534 0.93,-8.913 1.095,-1.6668 1.05,-3.8211 -0.15,-6.9218 -0.765,-1.9977 -0.96,-3.6288 -0.93,-7.8582 0.01,-2.9355 0,-5.6586 0,-6.0516 0,-0.393 0.21,-2.6431 0.51,-5.0005 0.615,-4.8957 0.615,-4.941 0.315,-11.6682 -0.15,-3.2241 -0.01,-5.6978 0.36,-6.9629 0.66,-2.2027 0.255,-8.2192 -0.75,-11.2572 -0.465,-1.3785 -0.465,-2.3268 0,-4.1293 0.39,-1.6736 0.405,-3.5378 0,-6.545 -0.27,-2.3127 -0.36,-4.7109 -0.195,-5.3293 0.15,-0.618 0,-2.2877 -0.3,-3.7095 -0.525,-2.3202 -0.48,-2.8395 0.405,-5.0669 0.705,-1.7685 1.065,-4.0558 1.26,-7.9587 0.255,-4.9273 0.18,-5.7292 -0.765,-7.9928 -0.945,-2.2749 -0.975,-2.7087 -0.42,-4.5245 0.42,-1.3365 0.585,-4.24 0.51,-8.6757 -0.195,-11.4583 0.01,-20.7481 0.495,-22.894 0.315,-1.398 0.3,-2.4935 0,-3.396 -0.48,-1.269 -1.155,-10.5249 -1.08,-14.7461 0,-1.0905 0.495,-2.9307 1.065,-4.0881 0.885,-1.8363 0.96,-2.4634 0.585,-4.9219 -0.24,-1.5498 -0.735,-3.6021 -1.095,-4.5608 -1.08,-2.8608 -0.735,-12.9132 0.57,-16.4782 0.96,-2.6336 0.99,-2.9636 0.315,-4.2591 -0.675,-1.299 -0.99,-6.7548 -0.705,-12.0477 0.15,-1.6185 0,-5.8167 -0.15,-11.6681 0,-1.5717 0,-6.8223 0,-11.6682 0,-5.1411 -0.165,-10.0006 -0.495,-11.668 -0.435,-2.1911 -0.435,-3.4434 0,-5.3693 0.345,-1.5205 0.435,-3.7131 0.24,-5.5567 -0.24,-2.2916 -0.15,-3.6488 0.48,-5.4848 0.855,-2.595 0.825,-4.1781 -0.255,-10.8328 -0.57,-3.5109 -0.555,-4.1747 0.195,-6.5396 0.66,-2.1097 0.72,-2.8414 0.27,-3.6861 -0.39,-0.726 -0.48,-2.5428 -0.27,-5.8431 0.18,-2.9709 0.15,-5.8137 -0.255,-7.4883 -0.48,-2.3118 -0.435,-3.1062 0.3,-5.5321 0.555,-1.8426 0.765,-3.5628 0.585,-4.9208 -0.15,-1.1475 -0.525,-5.016 -0.84,-8.5948 -0.555,-6.3521 -0.54,-6.5712 0.525,-9.1962 0.975,-2.3846 1.02,-2.9069 0.51,-4.61 -0.57,-1.8892 -1.23,-11.5599 -1.065,-15.5245 0.42,-10.0529 0.405,-10.1603 -1.35,-13.6922 -1.659,-3.3186 -1.666,-3.36 -1.54,-9.0487 0.15,-4.7709 0.27,-5.8172 0.945,-6.3332 0.465,-0.3435 1.245,-0.4785 1.779,-0.303 2.106,0.696 4.56,0.7695 5.298,0.1575 0.42,-0.345 1.26,-1.7554 1.864,-3.1342 0.735,-1.6577 1.643,-2.8299 2.688,-3.4596 0.87,-0.5235 2.444,-2.0831 3.501,-3.465 1.32,-1.7214 3.116,-3.2313 5.715,-4.7943 4.113,-2.4743 4.77,-3.1953 2.909,-3.1953 -0.72,0 -2.091,0.771 -3.416,1.9174 -3.025,2.6186 -5.508,3.7976 -7.995,3.7976 -1.765,0 -2.794,0.4605 -6.544,2.9268 -4.827,3.1746 -7.209,3.8398 -10.059,2.809 -0.87,-0.315 -2.711,-0.8745 -4.091,-1.245 -6.225,-1.6705 -9.154,-4.287 -9.157,-8.1819 0,-1.7815 -0.15,-2.0238 -1.08,-2.0223 -0.585,0 -2.357,0.6435 -3.929,1.4265 -1.572,0.7845 -3.501,1.4295 -4.285,1.434 -0.78,0.01 -1.751,0.2175 -2.144,0.471 -0.615,0.399 -0.6,0.462 0.15,0.4695 0.435,0 1.395,0.5175 2.144,1.14 0.825,0.6915 2.182,1.221 3.489,1.3575 1.185,0.12 3.321,0.7125 4.762,1.3095 1.44,0.597 3.69,1.5095 5.001,2.028 3.939,1.5599 7.545,3.4259 7.728,3.9996 0.15,0.297 -0.195,0.9075 -0.645,1.356 -0.675,0.6825 -1.335,0.762 -3.949,0.483 -1.724,-0.183 -3.549,-0.555 -4.058,-0.8265 -0.51,-0.2715 -2.329,-0.669 -4.048,-0.8865 -2.814,-0.354 -8.97,-1.615 -14.078,-2.8821 -1.05,-0.2595 -3.087,-0.5535 -4.531,-0.654 -1.44,-0.105 -3.42,-0.513 -4.391,-0.918 -0.975,-0.405 -2.451,-0.7365 -3.289,-0.7365 -3.224,0 -9.711,-1.5132 -11.39,-2.6566 -0.93,-0.6345 -2.371,-1.1535 -3.204,-1.1535 -0.825,0 -2.958,-0.5445 -4.728,-1.2105 -2.581,-0.972 -3.697,-1.1505 -5.646,-0.9075 -1.713,0.2145 -3.54,0.015 -6.199,-0.651 -2.075,-0.525 -5.346,-1.1715 -7.272,-1.437 -2.502,-0.345 -3.824,-0.7845 -4.629,-1.5411 -0.855,-0.8025 -2.027,-1.1565 -4.833,-1.4625 -2.039,-0.222 -4.992,-0.609 -6.563,-0.8595 -1.572,-0.252 -4.317,-0.6825 -6.1,-0.9585 -1.784,-0.276 -3.861,-0.822 -4.62,-1.2135 -0.765,-0.3915 -1.977,-0.714 -2.711,-0.7155 -2.209,0 -4.929,-0.8865 -9.169,-2.9756 -3.192,-1.5721 -4.475,-1.9602 -6.192,-1.873 -2.648,0.135 -7.872,-1.053 -11.628,-2.6429 -1.538,-0.651 -4.217,-1.3905 -5.954,-1.6438 -1.735,-0.2535 -4.246,-0.765 -5.58,-1.1385 -1.335,-0.372 -3.154,-0.678 -4.048,-0.678 -0.9,-3e-4 -2.375,-0.4185 -3.291,-0.9285 -5.283,-2.9417 -6.369,-3.2841 -11.43,-3.6056 -3.516,-0.2235 -5.55,-0.5955 -6.852,-1.2525 -1.02,-0.513 -2.733,-1.1295 -3.81,-1.3695 -1.08,-0.24 -3.353,-0.7695 -5.055,-1.1775 -1.703,-0.408 -4.382,-0.9585 -5.952,-1.2225 -1.628,-0.2745 -3.846,-1.089 -5.153,-1.8921 -1.755,-1.08 -2.872,-1.413 -4.762,-1.4205 -1.365,-0.01 -3.339,-0.405 -4.43,-0.9015 -1.38,-0.63 -2.601,-0.819 -4.143,-0.645 -1.783,0.201 -2.578,0.014 -4.348,-1.0245 -1.2,-0.699 -2.168,-1.4535 -2.168,-1.6795 0,-0.5895 -2.754,-1.4655 -3.592,-1.143 -0.39,0.15 -2.259,-0.06 -4.155,-0.4545 -8.46,-1.7832 -12.651,-2.3501 -17.286,-2.3381 -2.733,0.01 -6.065,-0.276 -7.403,-0.6285 -1.894,-0.4995 -3.394,-0.534 -6.786,-0.156 -2.395,0.267 -4.428,0.5595 -4.518,0.6495 -0.15,0.09 0.51,0.5145 1.35,0.9435 1.125,0.5835 2.141,0.7005 4.023,0.465 2.549,-0.318 6.065,0.411 9.798,2.0327 0.915,0.399 2.738,1.002 4.049,1.341 6.696,1.7361 10.047,2.7148 10.477,3.0595 0.255,0.21 2.015,0.465 3.897,0.567 2.991,0.162 3.659,0.378 5.318,1.7103 1.629,1.3095 2.47,1.5896 5.955,1.9856 2.451,0.279 4.872,0.8775 6.112,1.5123 1.455,0.7485 3.287,1.1325 6.341,1.335 3.381,0.2235 4.602,0.51 5.788,1.3545 1.14,0.8175 2.163,1.0725 4.286,1.074 2.041,0 3.229,0.2805 4.45,1.047 1.32,0.828 2.412,1.0515 5.24,1.0695 3.097,0.015 3.823,0.198 5.467,1.3335 1.395,0.966 2.475,1.3095 4.097,1.3095 1.455,0 2.989,0.42 4.528,1.2375 1.751,0.9315 2.777,1.1775 4.136,0.996 2.17,-0.291 4.909,0.399 6.474,1.6296 0.735,0.5715 1.944,0.909 3.342,0.927 4.276,0.06 11.304,2.0476 14.854,4.2124 1.26,0.771 2.435,0.9975 5.202,1.0065 2.642,0.01 4.131,0.2775 5.715,1.029 1.185,0.5595 3.585,1.1655 5.346,1.347 2.322,0.24 3.755,0.6945 5.204,1.6542 1.675,1.1085 2.715,1.377 6.408,1.6569 3.664,0.2775 4.677,0.5355 5.989,1.5311 1.095,0.828 2.442,1.2855 4.368,1.4805 1.533,0.156 3.158,0.618 3.609,1.026 0.45,0.4095 1.592,0.744 2.531,0.744 1.035,0 2.944,0.6555 4.851,1.6669 1.983,1.0515 3.802,1.6668 4.932,1.6668 0.99,0 3.285,0.441 5.112,0.9795 1.828,0.5385 4.534,1.257 6.013,1.5975 1.485,0.339 3.408,1.0545 4.286,1.5899 0.9,0.5445 2.961,1.122 4.693,1.3125 1.703,0.1875 3.632,0.636 4.286,0.9945 1.11,0.612 6.69,2.2192 10.477,3.0202 0.915,0.1935 2.522,0.816 3.566,1.3815 1.05,0.5655 2.527,1.029 3.297,1.029 0.765,0 2.76,0.5445 4.425,1.2105 1.663,0.666 3.243,1.077 3.508,0.912 0.27,-0.1635 1.5,0.2235 2.726,0.861 2.095,1.083 5.757,2.3138 12.006,4.0352 1.44,0.3975 4.668,0.75 7.173,0.7845 5.074,0.075 6.439,0.624 8.116,3.2941 0.765,1.215 0.9,2.0021 0.675,3.9032 -0.435,3.5656 -0.42,3.6361 0.255,6.0555 0.525,1.8289 0.525,2.6772 0,4.5724 -0.36,1.38 -0.465,3.2841 -0.285,4.6793 0.21,1.5385 0,3.1696 -0.39,4.7145 -0.645,2.1682 -0.63,2.5965 0.21,5.2195 0.615,1.9292 0.81,3.4565 0.6,4.701 -0.255,1.5167 -0.48,4.7042 -0.72,10.3008 0,1.3185 0.915,9.278 1.23,10.0808 0.165,0.4365 0,2.1133 -0.51,3.726 -0.69,2.4376 -0.78,4.1223 -0.54,9.9873 0.195,4.8439 0.15,7.5123 -0.255,8.5141 -0.435,1.167 -0.39,2.2971 0.285,5.6495 0.75,3.6916 0.795,5.3694 0.405,14.0925 -0.3,6.6313 -0.27,10.6089 0,12.042 0.36,1.5508 0.33,2.958 -0.15,5.1109 -0.93,4.7085 -1.035,13.1849 -0.21,16.3904 0.87,3.3189 0.585,5.9755 -0.84,7.8996 l -1.065,1.431 1.05,3.2487 c 1.125,3.5163 1.14,3.793 0.15,20.8479 -0.39,6.3136 -0.345,7.5393 0.285,8.7694 0.555,1.0635 0.66,2.1114 0.42,4.0905 -0.42,3.5241 -0.435,4.6652 0,7.0062 0.24,1.335 0,3.0147 -0.495,5.2388 -0.465,1.8009 -0.9,4.6674 -0.96,6.3699 0,1.7026 -0.27,4.6044 -0.465,6.4485 -0.3,2.9005 -0.21,3.6177 0.645,5.3169 0.9,1.7646 0.975,2.5602 0.795,7.839 -0.15,3.2313 -0.33,6.9466 -0.48,8.2563 -0.15,1.3665 0,3.7249 0.405,5.5365 0.51,2.362 0.57,3.799 0.21,5.715 -0.465,2.5098 -0.42,3.4179 0.525,12.0724 0.42,3.7944 0.36,4.5933 -0.495,7.1202 -0.54,1.621 -0.84,3.369 -0.675,4.0605 0.705,3.0445 1.575,8.8345 1.395,9.3094 -0.66,1.7415 -1.761,13.3647 -1.77,18.8127 -0.01,8.0915 0.57,17.8283 1.155,19.3664 0.63,1.6642 0.555,4.0828 -0.195,5.856 -0.48,1.146 -0.525,2.1016 -0.165,3.8893 0.375,1.8993 0.3,2.9216 -0.375,5.1474 -0.915,3.0057 -0.81,4.6689 0.495,8.3111 0.795,2.2228 0.795,2.5138 -0.01,6.5157 -0.66,3.2557 -0.78,5.2306 -0.525,8.865 0.18,2.5719 0.33,5.6404 0.315,6.8191 0,5.8623 0,27.6527 0,29.5275 0,1.179 -0.285,3.429 -0.735,5.0007 -0.81,2.8508 -0.795,2.8629 0.375,5.2004 1.38,2.7342 1.455,3.8583 0.435,6.4248 -0.66,1.6374 -0.675,2.3946 -0.15,5.8437 0.99,6.4929 0.825,10.7311 -0.48,13.3158 -1.185,2.335 -1.185,3.514 0,7.435 0.495,1.6095 0.495,2.4657 0,4.1741 -0.75,2.7883 -0.75,10.9278 0,12.2872 0.885,1.6151 0.975,15.3972 0.15,17.066 -0.81,1.5568 -0.87,3.832 -0.165,6.123 0.84,2.7451 0.96,17.6815 0.18,21.7672 -0.6,3.1425 -0.6,3.7964 0,5.8344 0.66,2.0031 0.675,3.0449 0.165,8.1813 -1.335,13.4619 -1.305,32.0948 0,36.4613 0.495,1.5775 0.51,2.6346 0.15,5.0005 -0.99,5.423 -1.155,13.2108 -0.36,15.8157 0.975,3.1943 0.9,6.9285 -0.21,10.1121 -0.84,2.3994 -0.87,2.7966 -0.24,4.0125 0.945,1.8323 0.87,4.1939 -0.195,6.6941 -0.765,1.7686 -0.84,2.7372 -0.57,6.3885 0.18,2.367 0.48,4.5534 0.675,4.8586 1.035,1.6665 1.05,15.6288 0,18.7866 -0.645,2.0154 -0.645,2.3739 0,3.7034 0.63,1.212 0.705,2.4546 0.465,7.0554 -0.165,3.0708 -0.6,6.6879 -0.975,8.0379 -0.915,3.3331 -0.855,5.1007 0.27,7.3085 1.125,2.1927 1.215,4.634 0.285,6.879 -0.51,1.2195 -0.615,2.9742 -0.405,7.2476 0.36,7.5348 0.33,12.7507 -0.15,21.5922 -0.51,10.1035 -0.435,11.9227 1.005,22.1457 0.15,1.047 0,3.6195 -0.285,5.715 -1.11,7.6498 -1.335,12.7251 -0.645,14.7 0.9,2.5542 0.825,4.2633 -0.33,6.9424 -0.87,2.009 -0.915,2.5508 -0.42,4.3746 1.08,4.0094 1.6,4.286 6.139,3.2399 z m 62.998,-117.2893 c 1.749,-0.444 3.618,-0.534 6.095,-0.291 1.965,0.192 3.703,0.2715 3.862,0.1785 0.165,-0.09 0.42,-1.41 0.57,-2.9232 0.15,-1.5135 0.42,-3.2342 0.6,-3.8235 0.495,-1.6647 -1.35,-1.3815 -3.484,0.534 -1.988,1.7859 -6.431,4.1562 -9.527,5.0827 -2.434,0.729 -2.59,1.119 -0.735,1.8462 0,0.015 1.23,-0.2505 2.621,-0.603 z m -37.063,-33.6093 c 1.11,-0.7635 2.299,-1.7282 2.644,-2.1431 0.54,-0.6435 0.495,-0.7545 -0.285,-0.7545 -0.495,0 -1.857,0.9645 -3.015,2.1432 -2.43,2.4765 -2.211,2.7278 0.66,0.7545 z m 72.21,-1.2585 c 0,-0.798 -0.435,-0.8595 -1.425,-0.2025 -0.615,0.408 -0.63,0.5265 0,0.9135 0.825,0.534 1.455,0.2295 1.455,-0.711 z m -61.089,-4.8249 c 0.33,-0.135 1.05,-0.9855 1.606,-1.8938 0.555,-0.909 1.866,-2.2108 2.898,-2.8941 1.035,-0.684 2.205,-1.876 2.606,-2.6502 l 0.735,-1.4085 -1.35,0.3345 c -1.605,0.396 -4.098,2.6525 -5.709,5.1656 -0.63,0.9915 -1.997,2.3841 -3.026,3.0957 -2.376,1.6423 -2.433,2.2459 -0.15,1.257 0.975,-0.42 2.049,-0.873 2.372,-1.0065 z m 61.18,-20.031 c 1.455,-1.5663 2.033,-4.2473 1.305,-6.1325 l -0.525,-1.368 -1.656,1.905 c -0.915,1.0485 -2.206,2.7459 -2.877,3.7737 -1.17,1.781 -1.185,1.8986 -0.36,2.5004 1.35,0.9855 2.775,0.75 4.107,-0.678 z m -68.91,-5.3579 c 0.75,-0.786 1.11,-1.428 0.795,-1.428 -1.02,0 -3.624,1.254 -4.3,2.0694 -0.585,0.7035 -0.495,0.7875 0.75,0.7875 0.93,0 1.854,-0.477 2.766,-1.4295 z m -1.993,-25.6924 c 0.99,-0.33 1.893,-1.1655 2.598,-2.4002 l 1.08,-1.8948 -1.32,0.501 c -0.72,0.276 -2.445,1.1445 -3.821,1.9319 -2.142,1.2255 -2.5,1.6347 -2.5,2.8587 v 1.428 l 1.215,-0.96 c 0.675,-0.528 1.903,-1.188 2.739,-1.4655 z m 8.347,-7.2056 c 1.065,-1.0215 3.069,-2.4037 4.457,-3.0705 3.402,-1.6338 3.889,-2.0521 5.061,-4.3503 1.17,-2.3013 3.057,-3.9243 5.005,-4.314 1.47,-0.294 5.079,-3.4083 5.079,-4.3843 0,-0.3225 -0.885,0.1635 -1.948,1.0815 -1.08,0.9165 -3.377,2.4235 -5.12,3.3474 -2.016,1.068 -3.937,2.5777 -5.275,4.1454 -1.365,1.6105 -2.96,2.8452 -4.575,3.5593 -2.156,0.9525 -6.405,4.929 -6.416,6.0024 0,0.7515 1.955,-0.3075 3.732,-2.0163 z m 25.754,-21.7153 c 0.15,-0.09 -0.165,-0.156 -0.6,-0.156 -0.435,0 -1.601,0.759 -2.579,1.6866 l -1.779,1.6866 2.381,-1.5312 c 1.305,-0.8415 2.47,-1.6011 2.58,-1.6866 z m -32.607,-4.7304 c 2.013,-2.1029 3.742,-3.3866 5.739,-4.2597 3.546,-1.5509 4.273,-2.1965 5.716,-5.0703 1.562,-3.1083 0.48,-3.0582 -2.238,0.105 -1.911,2.2288 -6.936,5.9224 -11.514,8.4649 -2.698,1.4985 -3.129,2.0366 -2.83,3.5393 0.225,1.149 0.375,1.236 1.245,0.765 0.555,-0.2925 2.29,-1.8872 3.874,-3.5426 z m 31.008,-49.4642 c 0.51,-0.384 0.69,-0.7065 0.42,-0.714 -0.285,-0.01 -0.915,0.3 -1.425,0.684 -0.51,0.384 -0.69,0.7065 -0.42,0.714 0.27,0.01 0.915,-0.3 1.425,-0.684 z m -34.746,-1.6923 c 0.765,-0.267 1.842,-1.1985 2.407,-2.0689 1.305,-2.0216 4.85,-4.3653 8.165,-5.4102 1.521,-0.48 2.91,-1.2765 3.366,-1.9322 2.101,-3.0187 3.328,-4.1466 5.605,-5.1535 1.41,-0.6255 4.184,-2.6555 6.446,-4.725 4.449,-4.07 5.301,-4.5993 8.833,-5.4881 2.096,-0.528 3.113,-1.233 6.503,-4.5105 2.479,-2.3974 5.028,-4.3629 6.654,-5.133 4.132,-1.9566 10.789,-6.9219 10.789,-8.0481 0,-0.882 -1.977,-0.2685 -4.357,1.3515 -1.395,0.954 -5.442,3.2175 -8.978,5.0306 -3.714,1.9039 -7.234,4.0816 -8.337,5.1555 -1.05,1.023 -3.225,2.4981 -4.837,3.2788 -1.611,0.7815 -4.058,2.4216 -5.438,3.6462 -1.38,1.2255 -3.22,2.5251 -4.093,2.8899 -0.87,0.3645 -2.244,1.571 -3.045,2.6801 -0.795,1.11 -2.169,2.4495 -3.041,2.9784 -0.87,0.5295 -2.526,1.8321 -3.681,2.8956 -1.155,1.0635 -3.702,3.0165 -5.662,4.3396 -1.961,1.323 -3.867,2.7683 -4.235,3.2114 -0.36,0.4425 -1.5,1.2285 -2.509,1.7449 -1.709,0.8715 -2.916,2.5623 -2.424,3.3965 0.27,0.4485 0.225,0.4515 1.869,-0.135 z m 2.224,-30.8823 c 1.11,-1.0125 2.657,-2.1696 3.444,-2.5708 0.78,-0.4005 2.715,-1.9413 4.286,-3.4223 1.57,-1.4805 3.82,-3.2518 4.999,-3.9354 1.185,-0.684 2.786,-1.809 3.572,-2.5009 0.78,-0.6915 2.92,-2.3183 4.743,-3.614 3.484,-2.4757 8.121,-6.7951 7.723,-7.1932 -0.15,-0.135 -0.84,0.075 -1.587,0.4485 -0.75,0.375 -1.998,0.8055 -2.782,0.957 -0.78,0.1515 -2.849,1.092 -4.584,2.092 -1.736,0.999 -4.274,2.4602 -5.642,3.246 -1.365,0.786 -3.162,1.9088 -3.988,2.4954 -0.825,0.5865 -3.003,1.833 -4.836,2.7696 -2.967,1.515 -3.612,1.6725 -5.855,1.4265 -3.499,-0.3825 -4.207,0.12 -4.507,3.1734 -0.195,1.9733 0.01,3.1596 0.945,5.4935 0.645,1.6371 1.38,2.9764 1.623,2.9764 0.24,0 1.35,-0.828 2.449,-1.8412 z m -2.307,-54.3009 c 0.15,-0.231 1.215,-0.8715 2.388,-1.422 1.17,-0.5505 2.342,-1.3995 2.603,-1.8858 0.435,-0.825 0.255,-0.8805 -2.718,-0.8145 l -3.191,0.075 -0.15,2.2355 c -0.15,2.0331 0.39,2.9137 1.065,1.8144 z m 72.83,-10.0693 c 0.225,-0.2025 0.255,-1.0515 0,-1.8845 l -0.33,-1.5151 -1.11,1.0425 c -0.615,0.573 -2.144,1.5547 -3.407,2.1814 l -2.296,1.1385 3.333,-0.297 c 1.833,-0.1635 3.516,-0.4635 3.739,-0.666 z m -40.019,-18.8345 c 1.17,-0.354 2.703,-1.5823 2.703,-2.1573 0,-0.2085 -0.735,-0.075 -1.651,0.312 -0.915,0.3795 -2.154,0.69 -2.768,0.69 -0.615,0 -1.72,0.6285 -2.457,1.398 -1.05,1.0965 -1.275,1.6694 -1.02,2.6568 l 0.315,1.2585 1.922,-1.9216 c 1.05,-1.056 2.388,-2.0634 2.958,-2.237 z m -32.301,1.9338 c 0,-0.6345 -0.375,-0.999 -1.14,-1.107 -0.9,-0.12 -1.08,0.01 -0.84,0.6345 0.165,0.438 0.3,1.008 0.3,1.2675 0,0.2595 0.375,0.4005 0.84,0.312 0.465,-0.09 0.84,-0.5835 0.84,-1.107 z m 69.323,-5.55 c 1.215,-0.978 1.876,-1.8987 1.876,-2.6194 0,-1.32 -0.15,-1.3335 -2.047,-0.339 -1.659,0.84 -3.623,2.9227 -3.65,3.8722 0,1.083 1.916,0.618 3.821,-0.9135 z m -68.858,-15.6906 c 0.51,-0.8865 1.005,-1.7469 1.095,-1.9107 0.15,-0.1635 -0.345,-0.4035 -0.945,-0.534 -0.6,-0.135 -1.41,-0.375 -1.813,-0.5445 -0.57,-0.24 -0.855,0.2775 -1.335,2.3339 -0.345,1.4535 -0.465,3.1069 -0.285,3.6753 0.33,1.032 0.33,1.0305 1.335,-0.1875 0.555,-0.6705 1.425,-1.9461 1.95,-2.8332 z m 0.75,-31.4839 c 0.78,-1.4985 1.41,-2.9453 1.41,-3.2147 0,-0.606 -4.128,-0.6555 -4.5,-0.06 -0.54,0.873 -0.855,4.7739 -0.525,6.534 l 0.345,1.8044 0.93,-1.173 c 0.51,-0.645 1.565,-2.3991 2.342,-3.8978 z m 61.895,-24.3309 c 0,-0.2625 -0.435,-0.09 -0.945,0.3855 -0.525,0.474 -0.945,1.077 -0.945,1.338 0,0.2625 0.435,0.09 0.945,-0.3855 0.525,-0.474 0.945,-1.077 0.945,-1.338 z m 8.526,-3.9589 c 0.375,-0.324 0.285,-4.3908 -0.15,-4.7793 -0.21,-0.216 -0.63,0.03 -0.915,0.555 -0.285,0.522 -1.335,1.7436 -2.346,2.7154 -1.005,0.972 -1.832,1.89 -1.832,2.0405 0,0.276 4.835,-0.2205 5.193,-0.5325 z m -70.08,-35.3589 c 0.51,-0.2715 1.29,-1.461 1.743,-2.6412 0.555,-1.4355 1.365,-2.4813 2.455,-3.1569 2.088,-1.2915 2.073,-1.8852 0,-1.8852 -0.93,0 -2.526,-0.429 -3.552,-0.9525 -1.035,-0.5235 -2.197,-0.9525 -2.601,-0.9525 -0.81,0 -0.915,1.0845 -0.945,9.864 v 4.8633 l 1.02,-2.3222 c 0.57,-1.2765 1.44,-2.5447 1.952,-2.8168 z m 21.31,-11.4933 c 0.165,-0.2625 0,-0.4755 -0.21,-0.4755 -0.27,0 -0.51,0.2145 -0.51,0.4755 0,0.2625 0.15,0.4755 0.21,0.4755 0.15,0 0.345,-0.2145 0.51,-0.4755 z m 2.144,-4.1025 c 0,-0.3105 -0.675,-0.1905 -1.365,0.24 -0.42,0.264 -0.525,0.7845 -0.315,1.4655 0.33,1.0425 0.345,1.0395 1.005,-0.2325 0.36,-0.7095 0.675,-1.371 0.675,-1.473 z m -23.28,-16.4159 c 0.765,-0.546 1.717,-1.7701 2.115,-2.721 0.945,-2.2768 1.95,-3.3298 4.258,-4.4883 1.05,-0.5265 2.841,-2.0139 3.986,-3.3066 1.41,-1.5952 3.283,-2.9545 5.821,-4.2303 3.102,-1.5601 4.025,-2.3049 5.423,-4.3804 0.93,-1.3755 1.47,-2.5742 1.2,-2.6637 -0.27,-0.09 -1.754,1.008 -3.299,2.4376 -3.301,3.057 -6.292,4.6286 -8.808,4.6286 -1.485,0 -2.116,0.3285 -3.54,1.854 -2.209,2.3664 -4.282,3.3973 -7.495,3.729 -2.462,0.2535 -2.582,0.333 -3.041,1.9842 -0.27,0.9465 -0.48,2.0226 -0.48,2.3928 0,1.1595 1.644,5.7492 2.067,5.7528 0.225,0 1.035,-0.4425 1.797,-0.9885 z m 66.142,-24.8692 3.096,0.045 0.15,-4.2389 c 0.15,-2.3314 0,-4.239 -0.24,-4.239 -1.155,0 -5.397,3.4763 -7.494,6.152 l -2.397,3.0561 1.893,-0.414 c 1.035,-0.228 3.287,-0.3915 4.989,-0.3645 z m -68.845,-8.3856 c 0.15,-0.2385 0.15,-0.804 0,-1.257 -0.3,-0.771 -0.36,-0.7695 -0.96,0.045 -0.345,0.48 -0.645,1.0455 -0.645,1.257 0,0.5265 1.305,0.489 1.639,-0.045 z m 8.101,-4.2873 c 0.39,-0.762 1.41,-1.9392 2.274,-2.6142 1.02,-0.807 1.29,-1.2285 0.795,-1.233 -0.765,-0.01 -4.155,2.4445 -4.818,3.4873 -0.57,0.9075 -0.42,1.7462 0.33,1.7462 0.39,0 1.02,-0.624 1.425,-1.386 z m -8.458,-11.3439 c -0.15,-0.4635 -0.225,-0.1995 -0.24,0.5865 -0.01,0.786 0.15,1.1655 0.225,0.843 0.15,-0.3225 0.15,-0.9645 0,-1.4295 z m 72.744,-15.3192 c 0.345,-0.5625 -0.225,-3.3827 -0.69,-3.3827 -0.195,0 -0.63,0.663 -0.975,1.473 -0.51,1.23 -0.495,1.5428 0,1.8977 0.855,0.543 1.26,0.546 1.593,0.012 z m -52.197,-6.9705 2.697,-2.6354 -1.61,0.135 c -1.365,0.12 -1.857,0.5205 -3.21,2.6355 -0.885,1.3755 -1.365,2.5002 -1.08,2.5002 0.285,0 1.728,-1.1865 3.21,-2.6353 z m -18.962,-25.3185 c 0.78,-1.23 1.425,-2.4087 1.425,-2.6193 0,-0.21 -0.99,-0.3825 -2.194,-0.3825 -2.129,0 -2.186,0.03 -1.881,1.2465 0.165,0.6855 0.435,1.8642 0.585,2.6194 0.15,0.756 0.36,1.3725 0.465,1.3725 0.15,0 0.825,-1.0065 1.608,-2.2363 z m 24.734,-10.5599 c 1.2,-0.3585 2.226,-1.068 2.71,-1.8681 0.435,-0.7095 1.2,-1.8963 1.707,-2.6371 1.47,-2.1291 0.465,-2.1735 -1.29,-0.06 -0.87,1.0515 -2.628,2.4094 -3.897,3.0159 -2.583,1.2345 -4.689,3.513 -4.266,4.6156 0.21,0.564 0.585,0.369 1.691,-0.882 0.795,-0.9105 2.25,-1.8591 3.342,-2.1862 z m -4.38,-37.9236 c 1.974,-0.6885 5.383,-3.7042 4.819,-4.263 -0.585,-0.5805 -4.341,0.705 -5.184,1.7756 -1.2,1.5181 -4.603,3.201 -6.486,3.201 -0.78,0 -1.842,0.315 -2.35,0.699 -0.855,0.651 -0.78,0.7005 1.08,0.714 1.546,0.012 2.131,0.246 2.545,1.0215 0.525,0.9795 0.57,0.963 1.926,-0.678 0.855,-1.038 2.255,-1.9856 3.647,-2.4708 z m 32.745,-0.3615 c 4.152,-4.0911 5.568,-7.7716 1.857,-4.8255 -0.96,0.756 -2.456,1.8588 -3.338,2.4488 -0.885,0.5895 -2.037,1.921 -2.566,2.9577 -1.185,2.3329 -1.185,2.3989 0,2.3989 0.57,0 2.257,-1.2465 4.017,-2.9799 z m -51.902,-22.4586 c 0.42,-0.6315 2.516,-2.5464 4.67,-4.2537 2.155,-1.7071 4.339,-3.57 4.854,-4.1397 0.51,-0.57 1.74,-1.446 2.722,-1.9471 0.975,-0.501 1.787,-1.1355 1.787,-1.41 0,-0.2745 -0.63,-0.045 -1.41,0.504 -0.78,0.552 -2.114,1.242 -2.976,1.5357 -0.855,0.294 -2.258,1.2315 -3.099,2.0839 -1.5,1.5177 -2.09,1.7433 -6.207,2.3645 -1.11,0.168 -2.144,0.504 -2.295,0.7485 -0.39,0.642 0.3,5.6652 0.795,5.6652 0.225,0 0.75,-0.5175 1.17,-1.149 z m -75.027,-41.2365 c 0.54,-1.0485 0.84,-1.905 0.675,-1.905 -0.855,0 -6.868,2.1873 -6.868,2.4959 0,0.1995 0.585,0.3645 1.305,0.369 0.72,0 1.63,0.2145 2.023,0.4695 1.26,0.8175 1.866,0.516 2.858,-1.4295 z m 134.616,-13.1263 c 3.396,-3.4979 4.056,-4.4949 2.975,-4.4949 -0.615,0 -6.989,6.0586 -7.635,7.2628 -0.345,0.642 -0.255,0.834 0.36,0.834 0.45,0 2.379,-1.6206 4.303,-3.6013 z m -166.599,0.636 c 1.32,-1.3695 2.312,-2.5769 2.204,-2.6843 -0.15,-0.105 -1.26,0.2625 -2.559,0.822 -1.35,0.582 -3.449,1.0335 -4.896,1.056 -2.321,0.03 -2.43,0.09 -1.32,0.5955 0.66,0.306 1.822,1.038 2.563,1.6283 0.735,0.5895 1.41,1.071 1.47,1.071 0,0 1.215,-1.1205 2.526,-2.4888 z m -12.042,-19.1871 c 0.87,-0.675 0.81,-0.7125 -0.945,-0.5955 -1.035,0.075 -1.956,0.393 -2.064,0.7215 -0.285,0.846 1.877,0.756 3.008,-0.12 z m 64.616,-1.1445 c 1.816,-1.6227 1.596,-2.1293 -0.735,-1.6922 -1.14,0.213 -1.754,0.63 -1.931,1.3035 -0.57,2.1491 0.51,2.3063 2.664,0.3885 z m 57.753,-2.6918 c 1.05,-0.339 2.44,-0.7395 3.096,-0.891 0.66,-0.1515 1.81,-0.789 2.568,-1.4145 l 1.38,-1.1385 -1.59,-0.822 c -1.35,-0.699 -1.935,-0.7425 -3.914,-0.285 -1.275,0.2955 -2.91,0.537 -3.625,0.537 -1.982,0 -2.772,0.9405 -3.114,3.705 l -0.315,2.5143 1.803,-0.795 c 0.99,-0.4365 2.662,-1.071 3.709,-1.41 z m 54.228,-5.4784 c 1.819,-1.431 1.558,-1.8705 -1.11,-1.8705 -1.884,0 -2.321,0.15 -2.142,0.714 0.15,0.393 0.33,1.0365 0.45,1.428 0.315,0.9915 1.335,0.8925 2.808,-0.273 z m -135.797,509.3836 c -2.367,-1.029 -6.855,-4.3836 -7.818,-5.8449 -0.495,-0.756 -0.855,-2.1813 -0.855,-3.4103 0,-1.92 0.225,-2.3259 2.448,-4.4737 l 2.45,-2.3622 -0.795,-2.1936 c -0.45,-1.2495 -0.78,-3.527 -0.75,-5.2895 0,-1.7025 -0.165,-4.3815 -0.405,-5.953 -0.33,-2.153 -0.27,-3.5361 0.255,-5.6097 0.615,-2.4147 0.615,-2.9696 0,-4.5245 -0.87,-2.2186 -1.734,-7.3548 -1.658,-9.8683 0.15,-3.2217 -0.6,-19.8608 -0.855,-20.2653 -0.15,-0.21 0.15,-1.392 0.525,-2.6289 0.63,-1.8636 0.66,-2.5929 0.195,-4.2665 -0.435,-1.5615 -0.435,-2.5974 0,-4.5739 0.345,-1.5275 0.45,-3.8009 0.27,-5.6511 -0.465,-4.7259 -0.48,-7.6355 0,-10.1109 0.465,-2.7096 0,-3.0867 -3.085,-2.2674 l -2.021,0.5445 0.315,5.0836 c 0.285,4.4699 0.21,5.2995 -0.6,6.8697 -0.9,1.7544 -0.9,1.8171 0,3.5535 1.155,2.2512 1.125,4.1192 -0.15,6.7727 -0.93,2.0467 -0.93,2.266 -0.21,7.225 0.42,2.8128 1.185,6.3429 1.712,7.8446 0.93,2.6574 0.945,2.8425 0.15,6.9238 -0.45,2.3064 -1.155,4.7112 -1.578,5.3439 -0.42,0.633 -1.185,1.7394 -1.694,2.459 -1.47,2.0659 -1.791,5.8189 -0.705,7.986 0.72,1.437 0.915,2.9272 0.96,7.5084 0,4.5754 0.24,6.0661 0.96,7.4752 1.593,3.1247 0.87,6.491 -1.909,8.8256 -2.627,2.2101 -8.316,2.9964 -11.637,1.6086 -2.867,-1.197 -6.003,-6.0192 -6.024,-9.2621 0,-0.867 -0.36,-2.6607 -0.795,-3.9849 -0.72,-2.2101 -0.72,-2.6004 0,-4.7622 0.735,-2.2908 0.72,-2.4174 -0.405,-4.6569 -0.84,-1.6681 -1.155,-3.0846 -1.155,-5.1447 v -2.8426 l -2.064,-0.789 c -1.757,-0.6705 -2.436,-0.7035 -4.535,-0.219 -2.2,0.5085 -2.737,0.462 -4.959,-0.4245 -1.641,-0.6555 -4.14,-1.0965 -7.327,-1.293 -4.037,-0.2505 -5.985,-0.684 -11.789,-2.6289 -4.69,-1.5714 -7.53,-2.8049 -8.727,-3.7913 -0.975,-0.804 -1.972,-1.4625 -2.215,-1.4625 -0.975,0 -3.525,-2.4201 -4.103,-3.9 -0.345,-0.867 -1.803,-3.355 -3.253,-5.5284 l -2.637,-3.9514 0.48,-4.9361 c 0.555,-5.8203 1.756,-7.9936 4.831,-8.7726 6.372,-1.6143 8.933,-2.04 11.607,-1.9299 1.664,0.075 4.005,-0.03 5.204,-0.234 2.478,-0.408 5.112,0.4515 7.108,2.3166 2.508,2.3444 8.669,4.3934 13.638,4.5362 0.3,0.01 1.634,0.765 2.966,1.6825 1.335,0.9165 2.863,1.6668 3.402,1.6668 0.54,0 1.749,0.321 2.689,0.714 0.945,0.393 1.821,0.714 1.958,0.714 0.15,0 0.15,-1.768 0,-3.9289 -0.225,-3.1967 -0.15,-4.4618 0.69,-6.7866 0.78,-2.2895 0.9,-3.4256 0.615,-5.715 -0.195,-1.5717 -0.33,-3.9291 -0.285,-5.2388 0,-1.3095 0,-5.1033 0,-8.4303 0,-7.2915 0.57,-9.0831 4.462,-12.9721 2.925,-2.9241 5.387,-3.8655 8.994,-3.4395 1.23,0.15 2.945,0.06 3.81,-0.204 0.87,-0.2565 5.739,-0.5505 10.83,-0.654 8.418,-0.171 9.416,-0.105 11.054,0.7305 0.99,0.5055 2.457,0.918 3.262,0.918 3.326,0 6.192,2.2384 7.107,5.5501 0.24,0.897 1.11,2.3759 1.905,3.2874 2.043,2.3265 2.204,3.5046 1.26,9.2247 -1.621,9.8279 -1.722,11.2952 -0.99,14.472 0.57,2.4408 0.6,4.1187 0.18,9.3885 -0.6,7.5635 -0.84,12.0986 -1.05,19.3959 -0.15,4.407 -0.345,5.7804 -1.26,7.7292 l -1.11,2.37 0.915,2.0339 c 0.78,1.7451 0.9,3.0147 0.795,8.9395 0,3.7982 -0.36,8.2335 -0.675,9.8565 -0.45,2.3684 -0.45,3.4763 0,5.6136 0.6,2.4774 0.57,2.8397 -0.42,5.2028 -0.585,1.3965 -1.185,3.3712 -1.335,4.3875 -0.435,2.7867 -1.774,5.091 -4.219,7.2444 -4.178,3.6772 -8.334,4.7755 -12.015,3.1756 z"
       id="vctrly-chalky-icon-door" /></g></svg>
