<?xml version="1.0" encoding="UTF-8" standalone="no"?>
<!-- Created with Inkscape (http://www.inkscape.org/) -->

<svg
   width="592.38818mm"
   height="750.20685mm"
   viewBox="0 0 592.38821 750.20687"
   version="1.1"
   id="svg1"
   xml:space="preserve"
   xmlns="http://www.w3.org/2000/svg"
   xmlns:svg="http://www.w3.org/2000/svg"><defs
     id="defs1" /><g
     id="layer1"
     transform="translate(-14533.185,-5864.9476)"><path
       style="fill:#000000;stroke-width:1"
       d="m 15110.33,6614.5458 c -1.44,-0.648 -5.146,-4.2717 -6.597,-6.4506 -0.57,-0.8475 -0.78,-2.2447 -0.78,-4.992 0,-2.6944 -0.33,-4.8658 -1.125,-7.395 -5.07,-16.0396 -5.239,-16.7566 -5.859,-24.7735 -0.165,-2.0927 -0.66,-4.3352 -1.2,-5.4149 -0.795,-1.5855 -0.9,-2.583 -0.735,-7.1437 0.15,-3.8357 0.42,-5.7461 1.035,-6.9119 1.035,-1.9761 0.75,-2.206 -3.213,-2.6547 -3.496,-0.396 -4.161,-0.72 -7.264,-3.5387 -1.335,-1.2075 -3.113,-2.7326 -3.962,-3.3873 -1.08,-0.84 -1.86,-2.1033 -2.62,-4.2863 -0.585,-1.7026 -2.082,-4.5867 -3.309,-6.409 -1.23,-1.8225 -2.571,-4.5014 -2.988,-5.9532 -0.42,-1.452 -1.29,-4.0328 -1.923,-5.7353 -0.855,-2.2942 -1.14,-3.897 -1.065,-6.1912 0.15,-3.3965 -0.795,-6.9872 -2.663,-10.7273 -1.546,-3.0856 -2.604,-8.1321 -2.614,-12.4708 0,-3.4685 -1.854,-12.0089 -3.128,-14.4714 -0.36,-0.684 -0.855,-2.9369 -1.11,-5.0049 -0.255,-2.0681 -1.02,-5.2115 -1.69,-6.9855 -0.885,-2.349 -1.215,-4.1411 -1.215,-6.5942 0,-2.0503 -0.27,-3.8631 -0.69,-4.6324 -1.995,-3.6413 -3.594,-8.2542 -3.602,-10.3928 -0.02,-3.6813 -1.26,-9.7351 -3.073,-14.9466 -0.93,-2.6565 -1.683,-5.1844 -1.685,-5.6175 0,-0.4335 -0.54,-1.9374 -1.2,-3.3429 -0.72,-1.5319 -1.275,-3.7257 -1.395,-5.4769 -0.15,-1.6067 -0.54,-3.8856 -0.975,-5.0643 -1.095,-3.0198 -2.263,-9.951 -1.983,-11.7579 0.18,-1.146 -0.15,-2.0409 -1.17,-3.6471 -1.08,-1.6389 -1.51,-2.988 -1.843,-5.8634 -0.24,-2.0541 -1.005,-5.3421 -1.701,-7.3066 -0.705,-1.9646 -1.425,-5.2865 -1.614,-7.382 -0.225,-2.4693 -0.705,-4.4739 -1.38,-5.6965 -0.78,-1.4295 -1.035,-2.6982 -1.035,-5.2394 0,-2.6613 -0.39,-4.507 -1.905,-8.9493 -1.05,-3.0781 -1.905,-6.0418 -1.905,-6.586 0,-1.065 -2.4,-8.151 -3.492,-10.3119 -0.36,-0.7245 -0.795,-2.6027 -0.945,-4.1744 -0.495,-5.0199 -1.275,-9.4584 -2.054,-11.8435 -0.495,-1.497 -0.66,-3.0573 -0.48,-4.4045 0.24,-1.7965 0.15,-2.3668 -1.125,-4.1107 -1.08,-1.5512 -1.585,-3.0836 -2.155,-6.5493 -0.405,-2.4885 -1.17,-5.7983 -1.677,-7.3553 -0.57,-1.7268 -0.93,-4.1412 -0.93,-6.1902 0,-2.9548 -0.225,-3.8179 -1.887,-7.1703 -1.899,-3.838 -3.824,-9.555 -3.833,-11.3923 0,-0.5445 -0.345,-2.063 -0.75,-3.3726 -0.51,-1.6661 -0.645,-3.2646 -0.435,-5.3225 0.24,-2.3659 0.15,-3.1924 -0.54,-4.2253 -0.465,-0.7065 -1.305,-3.0261 -1.882,-5.1551 -0.57,-2.1289 -1.601,-5.7493 -2.288,-8.0452 -0.825,-2.772 -1.26,-5.3319 -1.275,-7.62 0,-2.4773 -0.36,-4.3826 -1.245,-6.7794 -2.308,-6.2967 -4.059,-13.658 -3.772,-15.8738 0.15,-1.134 0,-2.4657 -0.21,-2.9584 -0.72,-1.329 -2.3,-9.4775 -2.238,-11.4831 0,-1.353 -0.375,-2.3069 -1.898,-4.2863 -2.019,-2.6343 -2.991,-5.2068 -2.995,-7.935 0,-0.8685 -0.24,-2.0112 -0.51,-2.5393 -0.285,-0.528 -0.615,-2.175 -0.72,-3.6597 -0.15,-1.485 -0.72,-4.0925 -1.35,-5.795 -0.63,-1.7026 -1.625,-4.8555 -2.214,-7.0063 -1.035,-3.7744 -1.05,-4.0065 -0.285,-6.6675 0.78,-2.7324 0.765,-2.778 -0.42,-5.1513 -0.66,-1.317 -1.35,-3.4569 -1.535,-4.7553 -0.33,-2.3013 -0.39,-2.3691 -2.238,-2.6976 -3.036,-0.5385 -5.709,-0.4425 -7.437,0.2685 -2.449,1.005 -15.741,1.8222 -18.343,1.1265 -1.692,-0.453 -2.388,-0.432 -3.632,0.105 -0.84,0.369 -2.718,0.63 -4.158,0.582 -7.047,-0.2355 -16.702,-0.045 -19.002,0.378 -1.869,0.342 -4.923,0.264 -11.191,-0.288 -4.742,-0.417 -10.034,-0.6315 -11.76,-0.477 -2.327,0.21 -4.065,0.045 -6.714,-0.654 -3.726,-0.9765 -4.448,-0.9165 -8.111,0.6585 -2.2,0.9465 -4.894,0.972 -7.449,0.075 -1.591,-0.561 -2.446,-0.588 -4.567,-0.15 -2.373,0.498 -2.855,0.4455 -5.321,-0.576 -2.434,-1.0095 -2.86,-1.0575 -4.183,-0.4785 -1.686,0.738 -3.521,0.7335 -13.142,-0.03 -7.303,-0.5775 -9.463,-0.639 -19.155,-0.543 l -6.058,0.06 -0.99,1.9455 c -0.96,1.8881 -2.159,2.8178 -6.327,4.923 -1.185,0.597 -2.267,1.5903 -2.66,2.4369 -0.885,1.908 -5.557,8.1344 -6.711,8.9421 -0.51,0.354 -1.335,1.5938 -1.831,2.7559 -1.14,2.6466 -5.381,7.8242 -9.587,11.7173 -2.203,2.0409 -3.771,4.0339 -4.98,6.3355 -0.975,1.8468 -2.455,4.0524 -3.301,4.9011 -0.84,0.849 -3.458,3.6546 -5.807,6.2354 -2.347,2.5807 -4.84,4.989 -5.542,5.3517 -0.93,0.483 -1.47,1.341 -2.013,3.201 -0.405,1.398 -1.185,2.9506 -1.743,3.4504 -0.555,0.4995 -1.782,1.9842 -2.735,3.2985 -2.272,3.135 -7.371,8.1867 -10.215,10.1208 -1.723,1.1715 -2.55,2.1836 -3.454,4.2288 -0.66,1.479 -2.481,4.1079 -4.061,5.8422 -1.579,1.7342 -3.882,4.5275 -5.118,6.2075 -1.23,1.6798 -2.941,3.4197 -3.79,3.8662 -2.309,1.215 -2.891,1.8174 -3.225,3.3392 -0.165,0.7605 -1.305,2.4954 -2.531,3.8544 -2.473,2.7439 -4.519,5.5675 -6.795,9.3741 -0.825,1.3935 -2.61,3.4023 -3.949,4.4647 -1.335,1.062 -3.342,2.9228 -4.449,4.1343 -1.11,1.212 -4.193,4.4978 -6.858,7.3029 -3.513,3.6978 -5.12,5.7881 -5.846,7.6017 -0.75,1.8627 -1.603,2.9568 -3.363,4.2852 -1.44,1.0905 -2.811,2.6715 -3.516,4.0665 -0.63,1.2555 -2.839,3.9792 -4.899,6.0528 -2.061,2.0736 -4.384,4.9014 -5.164,6.2838 -0.99,1.7556 -2.087,2.9046 -3.63,3.8096 -1.44,0.8445 -2.447,1.8595 -2.888,2.9145 -0.87,2.07 -5.25,7.9663 -7.534,10.1301 -0.975,0.9165 -2.18,2.4811 -2.693,3.4765 -0.51,0.996 -3.729,4.5315 -7.147,7.8582 -6.519,6.3446 -9.221,9.5657 -12.488,14.8872 -1.38,2.2466 -3.067,4.1001 -5.62,6.1653 -2.928,2.369 -3.944,3.5519 -5.139,5.9802 -1.02,2.0594 -2.315,3.731 -4.067,5.2283 -1.41,1.2105 -3.154,3.2017 -3.858,4.4248 -0.705,1.2225 -2.59,3.5222 -4.191,5.1092 -4.308,4.2744 -6.99,7.7247 -9.546,12.2785 -2.235,3.9807 -3.93,5.9232 -10.663,12.2205 -2.469,2.3076 -3.462,3.6105 -3.902,5.1185 -0.435,1.5126 -1.654,3.0999 -4.81,6.2931 -2.322,2.3485 -5.406,5.1441 -6.852,6.2122 -1.44,1.068 -3.135,2.7459 -3.756,3.7284 -0.615,0.9825 -1.856,2.4258 -2.747,3.2075 -0.885,0.7815 -2.119,2.2329 -2.733,3.225 -0.615,0.9915 -1.995,2.3596 -3.072,3.039 -2.37,1.497 -3.439,2.7462 -5.31,6.2088 -1.84,3.4086 -3.283,4.4443 -6.708,4.8165 -2.617,0.285 -2.803,0.393 -3.738,2.1877 -1.848,3.549 -5.23,4.8033 -9.793,3.6309 -0.915,-0.2355 -3.108,-0.561 -4.869,-0.723 l -3.201,-0.2955 -1.155,1.7979 c -3.162,4.9371 -20.768,20.1335 -23.324,20.1335 -1.44,0 -1.846,-1.2435 -1.11,-3.4191 1.02,-3.008 1.835,-4.7721 2.775,-6.0264 0.465,-0.6105 1.275,-2.3142 1.833,-3.7847 1.005,-2.6775 5.739,-9.4899 6.914,-9.9402 0.345,-0.135 0.975,-1.134 1.41,-2.2267 0.435,-1.0935 1.095,-2.3301 1.47,-2.7489 0.6,-0.6645 0.57,-1.0275 -0.27,-2.8575 -0.525,-1.1535 -0.96,-3.0201 -0.96,-4.1496 0,-1.1295 -0.36,-3.1377 -0.795,-4.4627 -0.735,-2.2512 -0.735,-2.6361 0,-5.877 0.45,-1.9074 1.41,-4.3998 2.128,-5.5386 0.72,-1.1385 1.854,-3.259 2.519,-4.7116 0.66,-1.452 1.882,-3.4098 2.707,-4.3491 0.825,-0.939 1.5,-2.217 1.5,-2.8389 0,-2.6408 1.065,-4.4457 5.387,-9.1242 4.776,-5.1696 5.914,-6.9858 7.218,-11.514 0.45,-1.5647 1.44,-3.6335 2.206,-4.5975 0.81,-1.032 1.578,-2.7569 1.851,-4.1964 0.3,-1.55 1.08,-3.2466 2.141,-4.6389 0.915,-1.2075 1.675,-2.5209 1.675,-2.9193 0,-0.399 0.825,-2.2428 1.818,-4.0988 1.005,-1.8559 2.109,-4.291 2.462,-5.4115 0.36,-1.1205 1.305,-2.6577 2.112,-3.4161 0.81,-0.759 2.191,-2.0501 3.076,-2.8704 1.554,-1.4385 1.601,-1.5825 1.305,-4.0998 -0.27,-2.343 -0.15,-2.8857 1.2,-5.3319 0.825,-1.4985 2.01,-3.4697 2.625,-4.3818 0.615,-0.912 1.125,-2.1839 1.125,-2.8262 0,-1.9482 1.863,-5.1748 3.611,-6.2556 2.064,-1.275 2.58,-2.2423 2.58,-4.8333 0,-1.5517 0.48,-2.8869 1.942,-5.389 1.065,-1.8294 2.252,-3.671 2.631,-4.0922 1.095,-1.2075 4.256,-8.0526 4.875,-10.5357 0.315,-1.239 1.844,-4.387 3.411,-6.9954 1.566,-2.6082 3.287,-5.8554 3.822,-7.2159 0.54,-1.3605 1.908,-3.6775 3.047,-5.149 1.26,-1.6235 2.2,-3.4247 2.403,-4.5806 0.42,-2.4301 2.622,-6.5698 5.037,-9.4921 1.035,-1.254 1.884,-2.4752 1.884,-2.7143 0,-0.2385 0.54,-1.2435 1.185,-2.2306 0.66,-0.9885 1.425,-3.0728 1.711,-4.6332 0.69,-3.7442 1.632,-5.2299 4.383,-6.9248 2.442,-1.504 3.708,-3.6828 4.655,-8.0106 0.255,-1.2045 0.87,-2.7316 1.35,-3.3946 0.48,-0.663 1.365,-2.1587 1.953,-3.3242 0.6,-1.1655 1.684,-2.8732 2.421,-3.7953 0.735,-0.9225 1.576,-2.7481 1.864,-4.0578 0.63,-2.8546 3.156,-7.0066 6.485,-10.6594 1.35,-1.4715 2.899,-3.7286 3.46,-5.0156 0.555,-1.287 1.931,-3.3514 3.039,-4.5877 1.11,-1.236 2.574,-3.0879 3.255,-4.1148 0.675,-1.0275 2.504,-2.7131 4.049,-3.7467 2.713,-1.8155 2.965,-1.8849 7.384,-2.0411 l 4.577,-0.162 0.825,-1.726 c 0.45,-0.9495 1.656,-2.7198 2.673,-3.9344 2.229,-2.6637 2.832,-4.1275 2.832,-6.8881 0,-1.635 0.735,-3.5865 3.363,-8.8988 1.851,-3.7425 3.726,-7.5492 4.168,-8.4594 1.185,-2.4321 3.996,-3.9007 6.993,-3.6463 5.285,0.4485 10.397,1.3065 12.056,2.0248 0.96,0.417 2.787,1.041 4.048,1.3875 4.874,1.335 5.906,2.9199 6.804,10.4496 1.005,8.4068 0.9,9.7238 -0.975,13.3299 -0.9,1.7313 -2.265,3.9435 -3.028,4.9161 -1.305,1.6701 -2.892,6.5105 -2.316,7.0866 0.405,0.408 6.217,-4.8981 7.819,-7.1403 0.78,-1.0935 1.991,-3.2031 2.691,-4.6887 1.035,-2.2033 1.947,-3.2121 4.944,-5.4768 4.229,-3.1939 4.373,-3.3526 4.382,-4.8237 0,-0.603 0.36,-1.7811 0.795,-2.6194 1.065,-2.051 5.137,-6.6975 6.537,-7.4462 0.615,-0.3315 1.572,-1.3965 2.118,-2.3662 0.54,-0.969 1.455,-2.1803 2.016,-2.6904 0.57,-0.51 2.229,-2.6421 3.699,-4.7376 1.47,-2.0955 4.185,-5.3101 6.031,-7.1437 1.847,-1.8336 3.867,-4.1603 4.49,-5.1705 0.63,-1.0095 2.283,-2.5731 3.69,-3.4728 2.587,-1.6551 6.25,-6.3164 5.685,-7.2326 -0.51,-0.8265 -4.962,-1.6087 -7.314,-1.2855 -1.395,0.192 -2.831,0.09 -3.699,-0.2535 -0.78,-0.312 -3.189,-0.72 -5.354,-0.906 -3.391,-0.291 -4.231,-0.552 -6.097,-1.8909 -2.159,-1.5508 -2.175,-1.5538 -9.162,-1.7842 -3.849,-0.12 -9.143,-0.273 -11.762,-0.324 -4.204,-0.075 -5.125,-0.264 -7.858,-1.5461 -1.703,-0.7995 -3.404,-1.8261 -3.779,-2.2825 -0.585,-0.717 -1.215,-0.7875 -4.524,-0.516 -3.496,0.285 -4.077,0.204 -6.46,-0.912 -1.44,-0.675 -3.186,-1.2285 -3.878,-1.2315 -0.69,0 -2.191,-0.429 -3.334,-0.9465 -1.14,-0.5175 -2.612,-0.9495 -3.266,-0.957 -0.66,-0.01 -2.265,-0.5145 -3.577,-1.1265 -1.305,-0.6105 -3.546,-1.389 -4.965,-1.7298 -1.763,-0.423 -3.195,-1.1805 -4.52,-2.3925 -2.221,-2.0306 -3.802,-2.9177 -8.935,-5.0138 -2.856,-1.167 -4.346,-2.1654 -6.78,-4.5448 -3.305,-3.2306 -3.969,-4.4448 -5.273,-9.6479 -0.6,-2.3935 -0.78,-4.6668 -0.645,-8.5834 0.165,-5.022 0.255,-5.4633 1.674,-7.6977 0.825,-1.3035 1.817,-3.1305 2.198,-4.0595 0.81,-1.9773 2.904,-3.8547 6.105,-5.4772 1.26,-0.639 2.89,-1.9535 3.624,-2.9228 2.415,-3.1927 3.942,-4.3665 6.711,-5.1561 1.5,-0.426 4.569,-1.9396 6.831,-3.363 6.505,-4.0936 9.076,-5.1133 12.738,-5.0509 2.76,0.045 3.495,-0.15 6.235,-1.6722 1.937,-1.0755 4.362,-1.9482 6.441,-2.3166 6.437,-1.1415 13.767,-3.3618 16.167,-4.8969 1.904,-1.218 2.852,-1.5071 4.944,-1.5071 1.715,0 3.09,-0.3075 4.074,-0.9105 1.797,-1.1025 3.566,-1.32 6.728,-0.8295 2.1,0.3255 2.754,0.1965 5.479,-1.0785 3.791,-1.774 7.41,-2.503 10.644,-2.1439 1.922,0.213 3.212,7e-4 6.018,-0.993 6.221,-2.2028 10.116,-2.8544 12.99,-2.1726 1.761,0.417 2.858,0.4485 3.749,0.105 0.69,-0.267 3.364,-0.8445 5.937,-1.2825 4.005,-0.6825 5.044,-0.708 7.258,-0.177 2.442,0.585 2.69,0.558 4.541,-0.5115 1.485,-0.8595 2.529,-1.098 4.339,-0.9945 3.654,0.2085 5.252,0.15 11.43,-0.465 3.144,-0.309 7.293,-0.528 9.222,-0.4875 1.929,0.045 4.25,-0.1695 5.157,-0.4695 0.915,-0.3 4.902,-0.6225 8.876,-0.7185 3.975,-0.09 9.787,-0.3195 12.918,-0.498 l 5.692,-0.324 2.33,-2.1798 c 1.275,-1.1985 2.763,-3.0425 3.291,-4.0967 1.245,-2.4982 3.054,-4.4071 5.211,-5.517 1.41,-0.7275 2.119,-1.6696 3.793,-5.076 1.832,-3.7249 2.783,-4.9116 8.687,-10.8499 4.105,-4.1309 6.942,-7.3922 7.453,-8.5725 0.48,-1.1175 2.037,-2.9567 3.761,-4.4513 1.672,-1.4505 3.424,-3.5085 4.069,-4.7817 1.305,-2.5719 4.829,-6.0115 7.16,-6.9856 2.02,-0.8445 2.943,-2.1549 5.869,-8.3321 1.926,-4.065 2.924,-5.5293 5.445,-7.992 l 3.087,-3.0151 0.3,1.467 c 0.165,0.807 0.57,1.4625 0.9,1.455 0.66,-0.013 5.729,-4.8705 8.637,-8.2875 1.035,-1.215 2.955,-2.7057 4.385,-3.405 l 2.542,-1.245 -0.27,-2.9525 c -0.225,-2.4277 -0.15,-3.3028 0.735,-4.9233 0.555,-1.0845 1.23,-2.1121 1.514,-2.2849 0.285,-0.1725 1.005,-1.4205 1.597,-2.7708 0.6,-1.3515 1.965,-3.2445 3.033,-4.2077 1.899,-1.7106 2.828,-2.0094 7.487,-2.4123 1.125,-0.09 1.51,-0.426 1.846,-1.5516 0.24,-0.786 0.78,-2.28 1.2,-3.3205 0.465,-1.1205 0.705,-2.8032 0.615,-4.1273 -0.15,-1.23 0.27,-4.0215 0.795,-6.2044 0.525,-2.183 1.095,-5.1356 1.26,-6.5615 0.165,-1.4265 0.945,-5.2834 1.718,-8.5725 0.78,-3.289 1.633,-7.1587 1.905,-8.5993 0.27,-1.4415 0.945,-3.9572 1.485,-5.592 0.615,-1.8735 0.885,-3.579 0.72,-4.6124 -0.345,-2.1229 0.765,-6.8523 2.283,-9.6957 0.66,-1.2315 1.185,-2.6233 1.185,-3.0942 0,-1.2675 1.689,-4.308 2.748,-4.9461 0.51,-0.306 2.83,-1.5715 5.16,-2.8126 5.596,-2.9813 7.206,-3.0174 12.094,-0.2715 4.305,2.4181 6.038,4.1881 6.452,6.5958 0.165,0.9945 0.945,3.0676 1.735,4.6084 1.11,2.1995 1.38,3.2228 1.185,4.7625 -0.825,6.9191 -1.44,9.8318 -2.491,11.9013 -1.02,2.0079 -1.14,2.7135 -0.885,5.2436 0.225,2.1621 0.15,3.4024 -0.465,4.7626 -0.42,1.011 -0.765,3.0453 -0.765,4.5195 0,2.0124 -0.3,3.155 -1.17,4.5852 -0.9,1.4655 -1.185,2.5737 -1.185,4.8057 0,4.22 -1.766,12.0444 -3.069,13.7658 -0.6,0.7875 -1.215,2.465 -1.395,3.7284 -0.195,1.437 -0.855,3.0659 -1.782,4.35 -1.395,1.9503 -1.44,2.1203 -0.765,3.4175 0.39,0.7515 1.365,1.8534 2.182,2.4499 0.81,0.597 2.648,2.6451 4.083,4.5522 4.116,5.4677 6.056,13.4219 4.299,17.6259 -0.39,0.9405 -0.72,2.3367 -0.72,3.1032 0,1.188 0.33,1.5596 2.261,2.5157 3.025,1.5007 4.407,3.6423 4.407,6.8313 0,1.5516 0.555,4.0539 1.5,6.7162 1.41,4.0128 1.5,4.6442 1.548,11.6252 v 7.3818 l 1.521,2.0584 c 1.86,2.5161 2.836,5.4963 3.18,9.7049 0.18,2.1181 0.69,4.0392 1.545,5.715 0.945,1.8486 1.32,3.3528 1.395,5.6199 0,1.7025 0.45,3.8923 0.885,4.8663 0.42,0.9735 0.765,2.2629 0.765,2.8645 0,0.6015 0.42,1.8896 0.945,2.862 0.525,0.972 1.155,2.5767 1.395,3.5649 0.24,0.9885 0.78,2.6538 1.17,3.7016 0.405,1.047 0.735,2.6965 0.75,3.664 v 1.7589 l 2.317,-0.06 c 1.56,-0.03 2.922,0.282 4.167,0.9705 5.624,3.1127 9.222,4.749 11.069,5.034 2.44,0.3765 4.236,1.2405 6.372,3.0693 0.855,0.732 3.055,2.2473 4.888,3.369 1.833,1.122 3.795,2.586 4.358,3.254 0.57,0.6675 2.172,1.7731 3.573,2.4561 1.395,0.6825 2.776,1.7134 3.055,2.2903 0.285,0.5775 1.704,2.3619 3.164,3.9671 3.837,4.2174 4.806,8.4193 2.068,8.9575 -0.45,0.09 -1.29,-0.273 -1.854,-0.804 -0.57,-0.531 -1.944,-1.173 -3.063,-1.4235 -1.125,-0.252 -2.619,-0.8535 -3.333,-1.3365 -1.963,-1.329 -3.882,-2.0742 -5.34,-2.0742 -0.72,0 -1.819,-0.3975 -2.445,-0.882 -0.915,-0.714 -2.718,-0.9975 -9.469,-1.494 -5.175,-0.3795 -8.852,-0.873 -9.696,-1.3005 -0.75,-0.378 -1.871,-0.5595 -2.492,-0.4035 -1.08,0.27 -1.11,0.4245 -0.84,3.0633 0.18,1.6797 0,3.4617 -0.285,4.5041 -0.51,1.5243 -0.435,2.0449 0.6,4.4764 3.674,8.6358 4.19,10.5089 4.074,14.8172 -0.15,3.8284 0,4.2993 1.305,6.5082 1.746,2.9311 2.436,4.6756 2.823,7.1437 0.6,3.7832 0.525,3.7161 3.206,3.3612 1.32,-0.1755 2.827,-0.5415 3.333,-0.8115 0.51,-0.27 2.187,-0.672 3.736,-0.8895 1.92,-0.2715 3.282,-0.789 4.274,-1.6237 0.975,-0.819 2.025,-1.2255 3.169,-1.2255 0.945,0 2.094,-0.3465 2.562,-0.771 0.915,-0.822 6.803,-3.0339 8.096,-3.0374 0.42,0 1.05,0.324 1.38,0.723 0.765,0.918 -0.3,3.4979 -3.083,7.5459 -1.065,1.5369 -2.403,3.725 -2.985,4.8623 -0.6,1.1625 -1.686,2.3929 -2.493,2.8104 -0.795,0.408 -2.164,1.383 -3.055,2.1642 -0.885,0.7815 -2.396,1.7458 -3.345,2.1423 -1.14,0.477 -2.201,1.4865 -3.126,2.9749 -0.93,1.4925 -2.172,2.6763 -3.686,3.5045 -1.26,0.687 -2.25,1.5448 -2.205,1.905 0,0.36 0.66,2.6905 1.365,5.179 0.885,3.1035 1.26,5.4218 1.185,7.3818 0,1.5717 -0.15,3.552 -0.15,4.4009 0,0.849 0.42,2.5633 0.96,3.81 0.54,1.2465 1.245,4.1955 1.554,6.5529 0.3,2.3573 0.945,5.1434 1.425,6.1912 0.48,1.047 1.02,2.8695 1.215,4.0482 0.18,1.179 0.735,3.1324 1.2,4.3416 0.48,1.209 1.125,4.4238 1.44,7.1437 0.315,2.7198 1.065,6.4454 1.67,8.279 0.6,1.8336 1.245,4.5124 1.425,5.9532 0.18,1.44 0.735,3.8448 1.215,5.3427 0.495,1.4985 0.9,3.4701 0.9,4.3827 0,1.0155 0.735,3.0628 1.905,5.2764 1.395,2.6623 1.905,4.1812 1.905,5.7544 0,1.176 0.33,2.6364 0.735,3.2465 0.915,1.3875 2.395,6.8245 2.812,10.2873 0.465,3.885 2.151,10.9239 3.132,13.0968 0.48,1.0485 1.215,3.5596 1.656,5.5819 0.675,3.0824 0.705,4.0908 0.225,6.237 -0.57,2.5397 -0.555,2.5931 1.455,6.6632 1.934,3.9028 2.037,4.3285 2.126,8.7232 0.15,4.4402 0.15,4.6659 1.455,5.7905 1.065,0.9195 1.35,1.5409 1.29,2.899 0,0.951 0.225,3.0149 0.6,4.5864 0.36,1.5717 0.9,5.9651 1.2,9.7632 0.465,5.9915 0.675,7.1262 1.668,8.5725 1.957,2.8653 2.662,5.2019 3.073,10.1822 0.225,2.6508 0.63,5.4229 0.915,6.1603 0.285,0.738 0.525,2.1305 0.525,3.0957 0,0.9645 0.45,2.4834 0.99,3.374 0.54,0.891 1.38,3.4051 1.854,5.5882 0.585,2.6541 1.275,4.4498 2.088,5.4197 1.535,1.8237 1.934,3.9295 1.596,8.4019 -0.24,3.1356 -0.15,3.749 0.885,5.5362 0.735,1.281 1.155,2.7714 1.155,4.1112 0,2.1567 0.855,5.606 2.408,9.8049 0.48,1.3095 1.035,3.2385 1.215,4.2863 0.18,1.047 0.6,2.5479 0.93,3.3337 0.33,0.786 0.75,3.1433 0.93,5.2388 0.255,2.8995 0.66,4.393 1.716,6.2493 0.975,1.7259 1.38,3.0907 1.38,4.6671 0,1.2255 0.345,2.8821 0.75,3.6817 1.245,2.406 2.095,5.739 2.109,8.2619 0,1.3095 0.33,3.6672 0.705,5.2387 0.375,1.5717 0.69,3.5648 0.705,4.4291 0.01,0.864 0.375,2.2573 0.81,3.0955 0.435,0.8385 0.945,3.0791 1.125,4.9796 0.255,2.5941 0.66,3.9102 1.603,5.2801 1.913,2.7605 2.241,4.4615 1.625,8.4255 -0.54,3.4616 -0.54,3.4694 0.945,5.7732 0.81,1.269 1.726,3.3786 2.031,4.6883 0.3,1.3095 0.975,3.4528 1.504,4.7625 1.892,4.7295 2.298,6.6574 2.258,10.6929 0,2.6026 0.225,4.8225 0.705,6.1548 0.405,1.146 0.75,3.2235 0.75,4.6162 0,1.62 0.33,3.0996 0.9,4.1073 0.495,0.8655 1.065,2.3252 1.245,3.242 0.195,0.9165 0.855,2.6839 1.485,3.9273 0.645,1.2765 1.26,3.5563 1.425,5.2387 0.15,1.638 0.585,3.8966 0.945,5.019 0.36,1.122 0.66,3.1331 0.66,4.4682 0,1.6212 0.33,2.9556 0.975,4.0176 0.54,0.8745 1.395,3.6776 1.915,6.2286 0.75,3.7332 0.84,5.2556 0.495,7.8011 -0.69,4.9489 -1.684,6.3804 -5.928,8.5008 l -1.513,0.756 -0.255,5.0007 c -0.27,5.4904 -1.245,8.3692 -3.494,10.4413 -0.69,0.6345 -1.26,1.428 -1.26,1.7608 0,0.333 1.11,2.064 2.471,3.846 3.693,4.841 4.696,7.7202 6.049,17.3541 0.285,2.019 0.885,3.8306 1.673,5.0163 0.69,1.053 1.35,2.879 1.512,4.2216 0.15,1.3005 0.585,3.1734 0.96,4.161 0.375,0.987 0.675,2.7663 0.675,3.9527 0,1.1865 0.36,2.8431 0.795,3.6813 0.75,1.4415 1.557,4.2201 3.285,11.2636 0.6,2.4611 0.645,3.4919 0.225,5.1837 -1.23,4.8546 -3.147,7.0445 -7.956,9.05 -2.811,1.173 -4.988,1.281 -7.056,0.3495 z m -11.308,-87.5452 c -0.15,-0.327 -0.72,-0.669 -1.35,-0.7605 -0.63,-0.09 -1.425,-0.384 -1.749,-0.654 -1.502,-1.2345 0.165,-6.0862 2.262,-6.5767 1.32,-0.3075 1.38,-0.882 0.705,-5.5829 -0.39,-2.7333 -1.005,-3.2425 -1.44,-1.191 -0.405,1.9343 -1.688,4.3479 -3.437,6.4473 -1.83,2.1965 -1.848,2.3865 -0.54,5.3984 1.41,3.2397 1.712,3.5134 3.846,3.5134 1.29,0 1.826,-0.186 1.691,-0.5955 z m -8.021,-19.1691 c 0,-0.786 0,-0.828 -0.435,-0.2385 -0.255,0.393 -0.45,1.2495 -0.435,1.905 0,1.0905 0,1.11 0.435,0.2385 0.225,-0.5235 0.42,-1.3815 0.435,-1.905 z m 3.026,-5.235 c 1.155,-1.5909 1.681,-4.2558 0.78,-3.9619 -1.23,0.399 -3.066,5.1795 -1.977,5.1339 0.195,-0.01 0.735,-0.5355 1.2,-1.1715 z m -9.803,-9.3799 c -0.15,-0.3795 -0.27,-0.267 -0.285,0.288 0,0.5025 0.15,0.783 0.255,0.6255 0.165,-0.1575 0.18,-0.5685 0,-0.9135 z m 1.02,-10.6487 c 0.3,-0.6675 0.555,-1.7268 0.555,-2.3545 0,-0.6285 0.72,-2.9217 1.589,-5.0973 1.908,-4.7483 2.289,-6.4895 1.813,-8.2674 -0.6,-2.2379 -1.29,-1.8203 -2.202,1.3215 -0.48,1.6444 -1.485,4.1293 -2.245,5.5221 -1.775,3.2554 -2.597,7.4302 -1.77,8.976 0.78,1.446 1.575,1.41 2.263,-0.105 z m -7.722,-41.7864 0.255,-2.4825 -1.23,1.3365 c -1.23,1.332 -1.5,2.8463 -0.915,5.0379 l 0.3,1.1355 0.66,-1.272 c 0.36,-0.7005 0.78,-2.3895 0.915,-3.7549 z m -11.728,-38.7079 c 0,-0.3795 0.855,-2.3486 1.912,-4.3773 2.469,-4.7622 2.876,-7.5282 1.44,-9.8454 -1.305,-2.1195 -1.926,-2.1623 -1.926,-0.135 0,0.8625 -0.855,3.6666 -1.905,6.2317 -2.118,5.1852 -2.292,6.507 -1.08,8.1354 0.87,1.164 1.548,1.1595 1.548,-0.011 z m -457.439,-28.7826 c 0.165,-0.2625 0,-0.477 -0.21,-0.477 -0.27,0 -0.51,0.2145 -0.51,0.477 0,0.2625 0.15,0.4755 0.21,0.4755 0.15,0 0.345,-0.2145 0.51,-0.4755 z m 449.621,-14.0952 c 2.013,-3.9144 2.205,-5.4546 1.35,-10.908 -0.555,-3.5811 -1.56,-3.831 -2.385,-0.5955 -0.315,1.2435 -1.245,3.0298 -2.076,3.9681 -0.915,1.0485 -1.395,2.0199 -1.245,2.5201 0.15,0.4485 0.45,2.3441 0.69,4.2138 0.705,5.6142 1.14,5.7083 3.66,0.801 z m -13.113,-43.6502 c 0.3,-1.113 0.84,-2.667 1.2,-3.4528 0.57,-1.2255 2.007,-5.1782 2.905,-7.9772 0.435,-1.377 -0.78,-0.9405 -1.32,0.4755 -0.285,0.72 -1.35,3.0809 -2.371,5.2458 -1.809,3.825 -2.171,5.4234 -1.574,6.9788 0.42,1.1145 0.57,0.9555 1.17,-1.2705 z m -7.175,-36.7801 c 0.585,-0.9465 0.96,-2.2233 0.87,-2.9766 l -0.15,-1.32 -1.065,1.7232 c -0.915,1.476 -1.485,4.23 -0.87,4.23 0.15,0 0.66,-0.7455 1.23,-1.6568 z m -328.416,-23.7759 c 1.806,-0.681 3.627,-1.239 4.047,-1.2405 0.42,0 1.41,-0.351 2.193,-0.7755 0.78,-0.4245 2.286,-1.032 3.333,-1.3485 1.455,-0.441 2.27,-1.125 3.453,-2.9097 0.855,-1.284 1.548,-2.52 1.548,-2.7479 0,-0.603 -2.361,0.09 -3.796,1.1085 -0.675,0.4845 -2.009,1.0245 -2.954,1.203 -0.945,0.177 -2.974,1.2615 -4.509,2.4104 -2.931,2.1931 -4.708,3.163 -7.072,3.8565 -0.795,0.234 -1.5,0.807 -1.595,1.3065 -0.21,1.074 0.525,0.9555 5.352,-0.861 z m 322.212,-12.3122 c 0.33,-1.1055 1.125,-2.6313 1.763,-3.3897 1.2,-1.4265 1.32,-2.6929 0.285,-3.0379 -0.345,-0.12 -0.975,0.6765 -1.485,1.8655 -0.495,1.1355 -1.35,2.472 -1.905,2.9711 -0.75,0.6705 -1.02,1.4655 -1.02,3.0502 0,2.0537 0,2.1099 0.885,1.347 0.48,-0.438 1.155,-1.7007 1.485,-2.8065 z m -336.016,-6.583 c 1.534,-1.8236 1.551,-2.3447 0.15,-2.3447 -1.185,0 -3.131,1.9583 -3.131,3.1598 0,1.164 1.791,0.6855 3.054,-0.8145 z m 35.389,-6.8658 c 1.065,-0.915 2.876,-2.093 4.016,-2.6178 6.031,-2.7794 13.014,-8.6705 14.154,-11.9424 0.645,-1.8345 0,-2.1338 -1.685,-0.7515 -1.795,1.5006 -4.68,2.9353 -7.306,3.6337 -2.111,0.561 -4.994,2.5236 -8.898,6.0581 -2.036,1.8421 -5.063,6.4956 -4.556,7.003 0.72,0.714 2.502,0.135 4.275,-1.383 z m 286.473,-31.7252 c -0.21,-2.4601 -0.21,-6.8305 0,-9.7119 0.225,-2.8813 0.465,-6.5245 0.54,-8.0962 0.15,-1.5716 0.3,-4.0898 0.51,-5.5959 0.465,-3.3929 -0.27,-3.6358 -2.727,-0.9105 -1.485,1.6491 -4.65,7.51 -4.65,8.6236 0,0.246 0.435,1.1865 0.96,2.0897 0.54,0.903 1.08,2.7906 1.23,4.1944 0.15,1.404 0.57,3.3605 0.93,4.3481 0.375,0.987 0.675,2.5483 0.675,3.4686 0,1.5765 2.193,6.7503 2.663,6.2809 0.15,-0.12 0,-2.2305 -0.165,-4.6908 z m -253.744,-8.8407 c 3.966,-2.6511 5.605,-3.489 6.829,-3.4897 1.455,0 4.391,-1.2555 4.391,-1.8747 0,-0.2715 1.23,-1.1175 2.743,-1.8786 2.214,-1.1175 2.865,-1.7229 3.377,-3.138 0.345,-0.9645 0.51,-1.8807 0.345,-2.0366 -0.15,-0.156 -1.305,0.1605 -2.544,0.7035 -1.245,0.543 -3.975,1.38 -6.071,1.8596 -2.769,0.6345 -4.101,1.2 -4.873,2.0706 -2.123,2.3902 -5.27,5.5267 -7.491,7.4658 -2.322,2.0266 -2.603,3.3439 -0.54,2.5621 0.615,-0.231 2.334,-1.2405 3.834,-2.244 z m 156.553,-56.87 c 1.809,-0.9225 2.894,-1.0035 15.578,-1.164 22.08,-0.2775 29.641,-0.543 32.877,-1.1505 1.678,-0.315 4.249,-0.504 5.715,-0.42 l 2.664,0.153 -0.18,-3.5307 c -0.15,-2.7999 -0.51,-4.2264 -1.787,-6.8922 -0.885,-1.8488 -1.612,-3.9033 -1.615,-4.5656 0,-0.663 -0.3,-2.1684 -0.645,-3.3471 -0.36,-1.224 -0.555,-3.2656 -0.42,-4.7625 0.18,-2.0436 0,-3.4045 -1.065,-6.1912 -0.705,-1.9646 -1.559,-4.6436 -1.884,-5.9532 -0.33,-1.3095 -1.05,-3.2208 -1.598,-4.2471 -0.555,-1.026 -1.125,-2.8479 -1.275,-4.0481 -0.27,-2.1414 -1.05,-5.5083 -2.412,-10.3204 -0.375,-1.332 -0.675,-3.9248 -0.675,-5.7602 0,-3.9516 -0.525,-4.6381 -3.931,-5.0787 -1.245,-0.162 -3.099,-0.72 -4.122,-1.242 -1.754,-0.8955 -1.982,-0.906 -4.049,-0.201 -2.8,0.954 -5.905,0.6645 -9.484,-0.885 -2.364,-1.023 -3.066,-1.134 -4.763,-0.7485 -2.7,0.612 -5.422,0.3105 -10.906,-1.209 -4.386,-1.215 -4.88,-1.257 -9.288,-0.7875 -9.902,1.0575 -9.438,0.891 -12.695,4.5252 -1.602,1.7888 -3.556,4.226 -4.342,5.4159 -0.78,1.1895 -2.198,2.7081 -3.138,3.3735 -0.945,0.666 -3.869,3.4811 -6.51,6.2568 -3.531,3.7124 -4.937,5.5469 -5.31,6.9368 -0.285,1.0395 -1.065,2.4114 -1.755,3.0492 -0.69,0.6375 -1.871,2.0605 -2.633,3.1618 -0.765,1.101 -2.673,2.9918 -4.243,4.2011 -1.713,1.3185 -3.134,2.8596 -3.548,3.8493 -0.375,0.9075 -1.834,2.875 -3.234,4.3714 -1.395,1.497 -3.225,3.6033 -4.056,4.6818 -0.825,1.0785 -2.904,2.9849 -4.609,4.2365 -2.34,1.7182 -3.645,3.1626 -5.325,5.8972 -2.768,4.5062 -3.297,5.1305 -5.556,6.5658 -2.591,1.6464 -2.303,2.9978 0.825,3.879 2.089,0.588 2.646,0.5685 5.133,-0.1845 l 2.788,-0.8445 3.114,1.2795 c 1.712,0.7035 3.299,1.164 3.527,1.0245 0.225,-0.135 3.084,-0.06 6.349,0.195 5.373,0.4065 6.224,0.3585 8.963,-0.5025 2.347,-0.7395 3.825,-0.897 6.597,-0.702 6.627,0.4635 12.175,1.065 12.675,1.374 0.27,0.1695 3.645,0.345 7.494,0.3915 3.847,0.045 7.687,0.249 8.533,0.45 0.84,0.201 1.709,0.387 1.916,0.414 0.21,0.03 1.245,-0.3975 2.32,-0.9435 z m -99.451,-5.1284 c 1.825,-0.324 2.764,-0.867 4.501,-2.6046 1.215,-1.2075 2.091,-2.3001 1.964,-2.428 -0.57,-0.5745 -7.71,1.107 -8.72,2.0563 -0.585,0.5505 -1.599,1.0005 -2.253,1.0005 -0.66,0 -1.603,0.321 -2.112,0.714 -0.915,0.7065 -0.915,0.723 0,1.4655 0.96,0.7605 1.215,0.753 6.593,-0.204 z m 180.235,-0.1905 c 0.51,-0.6225 2.481,-5.5507 2.481,-6.2193 0,-0.2115 -0.195,-0.2625 -0.45,-0.105 -0.48,0.3 -3.366,5.8841 -3.366,6.5262 0,0.597 0.765,0.483 1.32,-0.195 z m -212.091,-3.8704 c 0.63,-0.417 1.814,-1.7118 2.615,-2.8772 0.795,-1.1655 2.091,-2.5689 2.863,-3.1191 0.78,-0.5505 2.058,-1.9575 2.856,-3.1273 0.795,-1.17 2.118,-3.1034 2.933,-4.2968 0.81,-1.194 2.367,-2.7256 3.453,-3.4048 2.329,-1.4595 2.665,-1.8932 2.689,-3.474 0,-0.6555 0.42,-2.0654 0.9,-3.1344 0.87,-1.9161 8.411,-10.763 11.942,-14.0106 0.99,-0.9165 2.19,-2.417 2.652,-3.3338 0.465,-0.9165 2.163,-3.06 3.781,-4.7625 1.617,-1.7026 3.93,-4.4034 5.141,-6.0018 1.29,-1.7029 3.477,-3.7735 5.287,-5.0007 4.4,-2.9841 5.525,-5.6662 2.376,-5.6662 -0.945,0 -2.536,-0.2415 -3.523,-0.537 -1.455,-0.435 -2.226,-0.39 -4.07,0.2385 -2.649,0.903 -6.049,0.996 -9.024,0.246 -1.948,-0.4905 -2.419,-0.4005 -6.459,1.236 -4.662,1.8868 -4.807,1.8958 -11.283,0.693 -2.923,-0.543 -3.705,-0.543 -4.999,0.01 -0.84,0.3585 -3.357,0.792 -5.583,0.9645 -2.226,0.1725 -4.848,0.675 -5.826,1.1175 -1.47,0.6645 -2.615,0.75 -6.585,0.489 l -4.808,-0.315 -3.619,1.8598 c -3.12,1.6038 -4.05,1.8608 -6.749,1.8648 -1.722,0 -3.964,0.297 -4.981,0.654 -1.185,0.417 -2.742,0.5445 -4.341,0.3555 -1.625,-0.1905 -3.299,-0.045 -4.818,0.4125 -1.275,0.3885 -2.837,0.708 -3.461,0.711 -0.63,0 -1.873,0.462 -2.776,1.02 -1.05,0.6465 -2.622,1.0665 -4.343,1.1565 -1.485,0.075 -3.664,0.558 -4.843,1.0665 -1.185,0.5085 -3.75,1.299 -5.715,1.7549 -1.965,0.456 -4.716,1.2345 -6.114,1.7283 -1.47,0.5175 -3.819,0.8985 -5.549,0.8985 -2.656,0 -3.298,0.1965 -5.535,1.7019 -2.224,1.497 -10.131,4.9656 -11.32,4.9656 -0.24,0 -1.586,0.534 -2.987,1.1865 -1.395,0.6525 -3.201,1.188 -4.002,1.191 -1.666,0.01 -5.173,2.0815 -8.347,4.9431 -1.2,1.0815 -2.931,2.5366 -3.848,3.2325 -1.792,1.362 -3.319,3.9705 -2.925,4.9984 0.465,1.203 5.745,3.9867 8.552,4.5057 3.64,0.6735 4.324,1.044 6.613,3.5906 1.722,1.9155 2.373,2.2635 6.192,3.3109 8.057,2.2101 13.595,3.1391 18.483,3.1004 4.767,-0.045 5.898,0.2505 7.814,1.9963 0.96,0.87 1.753,0.9885 7.144,1.0635 6.896,0.09 11.736,0.7455 15.834,2.1254 1.553,0.5235 3.788,0.9525 4.965,0.9525 1.185,0 3.353,0.453 4.833,1.008 1.898,0.7095 3.276,0.927 4.662,0.7335 1.14,-0.159 3.234,0.045 4.956,0.4635 2.303,0.5685 3.33,0.6195 4.476,0.219 1.884,-0.657 3.993,-0.609 6.054,0.135 1.986,0.7185 6.716,0.246 8.367,-0.8355 z m 205.904,-24.9114 c 0.315,-0.5715 0.57,-1.7724 0.57,-2.6673 0,-2.061 0.795,-4.4024 2.221,-6.5234 1.668,-2.4864 1.533,-5.6995 -0.36,-8.6583 -0.81,-1.2675 -1.548,-2.3038 -1.632,-2.3038 -0.21,0 -2.604,5.0985 -2.605,5.5663 0,0.213 -0.645,1.6221 -1.455,3.1319 -1.365,2.6014 -1.425,2.9377 -1.125,6.4293 0.18,2.0263 0.72,4.7103 1.215,5.9641 0.495,1.254 0.9,3.1827 0.93,4.2863 0,1.972 0,1.9533 0.855,-1.089 0.45,-1.7027 1.065,-3.5639 1.38,-4.136 z m -150.398,-4.2396 c 1.872,-0.4485 3.969,-0.63 5.309,-0.459 l 2.212,0.282 2.39,-2.9865 c 1.32,-1.6425 3.157,-3.725 4.096,-4.6277 0.945,-0.903 1.709,-1.8135 1.709,-2.0241 0,-0.7485 -1.98,-0.366 -4.185,0.8085 -1.23,0.6555 -2.903,1.191 -3.717,1.191 -0.81,0 -2.442,0.5115 -3.617,1.1355 -1.17,0.624 -2.868,1.2915 -3.762,1.4835 -2.068,0.4425 -2.671,0.945 -3.804,3.164 -1.59,3.115 -1.47,3.1909 3.369,2.0337 z m 141.98,-25.2644 c -0.285,-0.6195 -0.84,-1.1265 -1.245,-1.1265 -0.615,0 -0.675,0.5505 -0.45,3.4527 0.405,4.9241 0.705,5.2937 1.5,1.8408 0.525,-2.2657 0.57,-3.3277 0.195,-4.1671 z m -29.393,-25.9207 c 0,-0.915 -0.645,-3.0122 -1.395,-4.6595 -0.795,-1.7875 -1.335,-3.7983 -1.335,-4.9872 0,-3.1849 1.5,-7.3848 3.29,-9.3658 1.41,-1.5632 1.618,-2.1156 1.627,-4.3521 0,-1.5144 0.39,-3.4104 0.945,-4.6377 0.585,-1.293 0.945,-3.1034 0.945,-4.8009 0,-1.9619 0.33,-3.3807 1.185,-5.0676 0.855,-1.6836 1.185,-3.1091 1.185,-5.0648 0,-1.497 0.3,-3.64 0.675,-4.7625 1.778,-5.4211 2.34,-8.1667 2.667,-12.9945 0.315,-4.6591 0.54,-5.6323 2.082,-8.7972 0.945,-1.957 1.725,-3.9175 1.725,-4.3566 0,-0.4395 -0.525,-1.731 -1.185,-2.871 -0.645,-1.14 -1.185,-2.4477 -1.185,-2.9061 -0.01,-1.7143 -1.735,-2.7384 -4.609,-2.7384 -2.121,0 -3.245,-0.3075 -5.232,-1.4295 -3.972,-2.242 -4.487,-2.0796 -9.402,2.9765 l -4.283,4.4053 v 2.8575 c 0,2.2241 -0.42,3.5115 -1.633,5.8068 -1.455,2.7524 -1.575,3.3234 -1.757,8.5521 -0.15,3.1458 -0.495,6.5069 -0.9,7.664 -0.39,1.134 -0.705,2.8005 -0.705,3.7042 0,0.903 -0.645,3.5784 -1.425,5.9436 -1.641,4.9391 -1.666,5.234 -0.75,8.7702 0.375,1.4445 0.84,4.1561 1.02,6.0269 l 0.33,3.4012 3.149,2.2118 c 1.731,1.2165 4.005,3.0985 5.053,4.1823 1.05,1.0845 2.39,2.1169 2.982,2.2959 1.455,0.441 2.607,2.7285 2.081,4.1559 -0.225,0.606 -1.599,1.9599 -3.059,3.0076 -4.422,3.174 -7.425,5.6861 -7.453,6.2349 0,0.9225 3.427,1.5978 6.877,1.3365 2.996,-0.2265 3.528,-0.135 5.24,0.9615 2.509,1.599 3.346,1.4205 3.288,-0.7035 z m -29.839,-3.8997 c -0.3,-0.8895 -1.625,-0.987 -1.949,-0.15 -0.21,0.5475 0,0.738 0.93,0.738 0.765,0 1.14,-0.2235 1.02,-0.5955 z m -28.955,-1.4115 c 1.14,-2.048 0.255,-2.3987 -3.297,-1.2945 -1.684,0.525 -3.61,0.84 -4.278,0.699 -1.455,-0.3045 -2.86,0.4305 -2.161,1.1295 0.405,0.4095 5.319,0.891 8.076,0.792 0.51,-0.015 1.26,-0.615 1.66,-1.326 z m 17.073,-30.473 c 0.315,-0.315 0.57,-1.723 0.57,-3.1306 0,-2.0945 -0.15,-2.5311 -0.765,-2.405 -0.42,0.09 -1.17,1.2255 -1.669,2.5352 -0.855,2.2306 -0.855,2.4189 -0.15,2.9766 1.005,0.738 1.245,0.741 1.959,0.03 z"
       id="vctrly-chalky-icon-drawing-compass" /></g></svg>
