<?xml version="1.0" encoding="UTF-8" standalone="no"?>
<!-- Created with Inkscape (http://www.inkscape.org/) -->

<svg
   width="862.66431mm"
   height="832.76794mm"
   viewBox="0 0 862.66434 832.76796"
   version="1.1"
   id="svg1"
   xml:space="preserve"
   xmlns="http://www.w3.org/2000/svg"
   xmlns:svg="http://www.w3.org/2000/svg"><defs
     id="defs1" /><g
     id="layer1"
     transform="translate(-12513.878,-5828.1218)"><path
       style="fill:#000000;stroke-width:1"
       d="m 12602.977,6660.2618 c -0.818,-0.3555 -2.104,-1.4565 -2.858,-2.4447 -1.234,-1.6179 -1.371,-2.1614 -1.371,-5.4335 0,-3.6339 0,-3.6376 2.755,-7.776 1.516,-2.2771 3.268,-4.4758 3.894,-4.8861 0.625,-0.4095 1.375,-1.425 1.664,-2.2539 0.289,-0.8295 1.2,-2.2033 2.023,-3.0532 0.824,-0.8505 2.479,-3.2363 3.677,-5.3031 3.318,-5.721 4.714,-7.5617 8.728,-11.5119 2.03,-1.9977 3.691,-3.9755 3.691,-4.395 0,-1.191 2.263,-3.5874 4.694,-4.9715 3.045,-1.7331 4.732,-3.3756 5.076,-4.9414 0.16,-0.7275 1.787,-3.0014 3.617,-5.0528 1.83,-2.0512 3.736,-4.5064 4.236,-5.4558 0.937,-1.7787 3.259,-3.9969 5.026,-4.8021 0.553,-0.252 1.554,-1.5768 2.224,-2.9443 0.671,-1.368 2.636,-4.0293 4.366,-5.9148 1.73,-1.8857 3.146,-3.6348 3.146,-3.8868 0,-0.252 0.965,-1.5443 2.143,-2.8715 1.179,-1.3275 2.144,-2.6179 2.144,-2.8684 0,-0.489 3.087,-4.1948 7.333,-8.7998 4.295,-4.6579 5.281,-5.6347 7.361,-7.2921 1.089,-0.867 2.33,-2.2605 2.758,-3.0957 0.428,-0.8355 2.032,-2.8626 3.563,-4.5054 1.531,-1.6427 3.269,-3.6514 3.862,-4.4633 0.593,-0.8115 2.091,-2.1629 3.329,-3.0015 1.237,-0.8385 3.349,-3.0093 4.692,-4.8234 1.342,-1.8141 3.254,-4.1558 4.249,-5.2035 0.994,-1.047 2.366,-3.0242 3.048,-4.392 0.683,-1.368 1.886,-2.9643 2.675,-3.5477 0.837,-0.618 1.629,-1.7802 1.9,-2.7873 0.492,-1.8267 2.037,-3.5749 4.723,-5.3442 1.096,-0.723 1.853,-1.7451 2.311,-3.1264 0.488,-1.4685 1.819,-3.1821 4.68,-6.0248 2.2,-2.1846 3.999,-4.1901 3.999,-4.4568 0,-0.267 0.755,-0.951 1.679,-1.5223 0.924,-0.57 2.002,-1.6643 2.398,-2.4303 0.852,-1.649 2.514,-3.5159 9.39,-10.5543 3.3,-3.378 5.68,-6.2889 6.667,-8.1533 0.998,-1.8846 2.107,-3.2341 3.167,-3.8551 2.555,-1.497 5.686,-4.9002 8.327,-9.0518 2.075,-3.261 2.815,-4.0144 5.137,-5.2293 1.841,-0.963 3.024,-1.9755 3.686,-3.1527 0.536,-0.954 1.301,-2.004 1.699,-2.3346 0.399,-0.33 1.119,-1.4835 1.601,-2.5621 0.984,-2.201 2.947,-4.3232 4.964,-5.3661 0.839,-0.4335 1.708,-1.5357 2.3,-2.9168 1.333,-3.1096 3.776,-5.9254 6.304,-7.2669 1.528,-0.81 2.611,-1.8984 3.731,-3.7471 0.867,-1.4325 2.473,-3.5123 3.569,-4.6209 1.095,-1.1085 2.322,-2.6558 2.727,-3.438 0.405,-0.7815 1.411,-1.925 2.237,-2.5395 1.912,-1.422 3.026,-2.5956 9.646,-10.166 2.978,-3.4051 6.676,-7.2895 8.218,-8.6319 5.601,-4.8775 9.653,-9.1251 10.393,-10.8957 0.415,-0.996 1.557,-2.7039 2.536,-3.7966 0.979,-1.0935 2.596,-2.9912 3.593,-4.2183 0.997,-1.227 2.658,-2.6625 3.691,-3.1895 1.033,-0.5265 1.878,-1.1505 1.878,-1.386 0,-0.7485 4.686,-5.5887 8.653,-8.9364 2.519,-2.1265 4.221,-4.0002 4.965,-5.4684 0.622,-1.2285 1.886,-2.8087 2.807,-3.5118 0.923,-0.7035 2.674,-2.8059 3.894,-4.6729 2.984,-4.5668 4.318,-5.9642 6.672,-6.9893 1.712,-0.7455 2.231,-1.35 3.725,-4.3506 2.062,-4.1395 2.46,-4.5783 6.265,-6.9205 2.022,-1.245 3.71,-2.8361 5.448,-5.1369 2.502,-3.3119 5.373,-8.3157 4.991,-8.6982 -0.455,-0.4545 -1.775,0.771 -3.128,2.9047 -0.792,1.2495 -2.113,2.636 -2.934,3.0804 -0.822,0.444 -1.837,1.218 -2.257,1.7202 -0.42,0.5025 -2.799,2.9951 -5.288,5.5407 -2.488,2.5458 -5.488,5.8536 -6.667,7.3508 -4.047,5.1405 -4.403,5.5206 -5.891,6.2853 -0.82,0.4215 -2.382,1.6462 -3.472,2.7214 -1.089,1.0755 -3.624,3.5621 -5.632,5.5266 -2.008,1.9646 -4.301,4.598 -5.096,5.8523 -0.795,1.254 -2.18,2.7802 -3.079,3.3913 -0.899,0.6105 -2.24,2.0649 -2.98,3.2309 -0.829,1.308 -2.052,2.4552 -3.194,2.9958 -3.277,1.5513 -6.766,4.4895 -7.091,5.9709 -0.311,1.41 -0.863,2.0238 -5.668,6.2989 -4.162,3.7014 -6.86,6.4986 -8.846,9.1692 -0.973,1.3095 -2.99,3.423 -4.48,4.6964 -1.548,1.3215 -3.211,3.3018 -3.877,4.6153 -0.901,1.7805 -2.162,3.0407 -5.577,5.5754 -2.426,1.8013 -5.555,4.5969 -6.953,6.2125 -1.824,2.108 -3.071,3.0963 -4.418,3.4997 -2.048,0.6135 -3.156,1.7241 -9.395,9.4131 -2.184,2.6926 -4.644,5.2495 -5.465,5.6823 -2.051,1.08 -4.392,3.6358 -5.511,6.0186 -0.974,2.0716 -3.909,5.0074 -5.007,5.0074 -1.212,0 -2.972,1.8492 -3.616,3.8004 -0.749,2.2668 -3.103,4.5405 -5.174,4.9955 -1.874,0.411 -5.578,3.699 -6.745,5.9857 -0.507,0.993 -1.623,2.2881 -2.48,2.8761 -2.873,1.971 -4.268,3.5192 -5.345,5.9318 -0.884,1.9779 -1.781,2.9161 -5.143,5.3742 -2.336,1.7082 -4.187,3.4279 -4.34,4.033 -0.335,1.3155 -6.742,7.1636 -9.061,8.2695 -1.161,0.5535 -2.038,1.476 -2.697,2.8364 -1.036,2.1421 -4.072,5.146 -6.528,6.4597 -0.816,0.4365 -1.909,1.6269 -2.429,2.6447 -1.303,2.554 -3.573,4.6534 -5.73,5.2999 -1.811,0.543 -3.47,2.1515 -8.776,8.5133 -3.856,4.6233 -5.592,6.8998 -6.288,8.2452 -1.126,2.1769 -5.23,5.5068 -7.608,6.1728 -1.651,0.462 -2.379,0.9765 -2.952,2.0842 -0.974,1.8815 -9.14,10.6934 -10.232,11.04 -0.454,0.15 -1.955,1.6976 -3.335,3.4515 -5.027,6.39 -6.386,7.8028 -8.598,8.9422 -1.522,0.783 -2.554,1.7403 -3.174,2.9427 -1.161,2.2503 -4.004,4.9683 -6.499,6.2154 -2.867,1.4325 -12.137,10.7583 -13.958,14.0414 -1.086,1.9572 -2.183,3.168 -3.776,4.1673 -1.236,0.774 -3.319,2.4421 -4.628,3.7054 -1.31,1.263 -3.721,3.2342 -5.358,4.3799 -1.637,1.146 -2.977,2.2524 -2.977,2.4592 0,0.207 -1.768,2.267 -3.929,4.5779 -2.161,2.3107 -4.276,4.8544 -4.701,5.6526 -0.424,0.798 -2.139,2.5878 -3.81,3.9768 -1.671,1.389 -3.392,3.1047 -3.824,3.8125 -1.346,2.202 -3.714,3.5621 -6.204,3.5621 -2.758,0 -3.974,-0.8505 -7.725,-5.4047 -2.381,-2.8914 -2.842,-3.7605 -3.03,-5.7159 -0.135,-1.4325 0.03,-2.7742 0.428,-3.5424 0.789,-1.5046 7.123,-7.2814 8.441,-7.7001 0.522,-0.165 1.415,-1.095 1.984,-2.0658 0.568,-0.9705 1.764,-2.3706 2.656,-3.1111 0.891,-0.741 2.27,-2.2892 3.063,-3.4416 0.794,-1.152 2.387,-2.649 3.541,-3.3257 1.317,-0.771 2.586,-2.0635 3.402,-3.4641 1.971,-3.3777 6.765,-8.1655 9.423,-9.4105 1.527,-0.7155 2.929,-1.8869 4.052,-3.3875 1.025,-1.368 2.559,-2.6986 3.799,-3.295 1.434,-0.69 2.288,-1.4925 2.747,-2.5839 0.366,-0.8715 3.178,-4.0638 6.249,-7.0956 3.071,-3.0318 6.016,-6.2607 6.544,-7.1755 0.582,-1.008 2.415,-2.618 4.652,-4.0866 4.251,-2.7896 6.394,-4.7138 6.82,-6.1212 0.602,-1.9872 2.649,-4.0694 5.489,-5.5835 1.6,-0.8535 3.473,-2.2897 4.162,-3.1932 0.689,-0.903 2.325,-2.8833 3.634,-4.3998 1.31,-1.5165 2.908,-3.4458 3.55,-4.2871 0.642,-0.8415 1.823,-1.9163 2.624,-2.3885 0.799,-0.4725 1.829,-1.4925 2.287,-2.2668 0.457,-0.774 1.755,-1.8553 2.884,-2.4016 1.338,-0.648 2.317,-1.5483 2.812,-2.5875 1.097,-2.2985 5.702,-7.1093 8.733,-9.1208 1.836,-1.2195 2.943,-2.3968 3.752,-3.9934 0.764,-1.5065 2.526,-3.4493 5.264,-5.8037 4.772,-4.1032 11.313,-10.507 14.852,-14.5399 6.299,-7.1789 6.859,-7.698 9.567,-8.8778 1.502,-0.654 3.094,-1.314 3.538,-1.4655 0.444,-0.1515 1.391,-1.5192 2.101,-3.039 1.236,-2.6392 2.203,-3.7219 14.826,-16.5885 0.778,-0.7935 2.441,-1.7613 3.696,-2.1508 2.172,-0.675 2.309,-0.8205 2.88,-3.0672 0.412,-1.6244 1.062,-2.7341 2.084,-3.564 2.281,-1.8509 8.265,-7.8566 9.256,-9.2895 0.486,-0.7035 1.527,-1.6691 2.312,-2.1465 0.784,-0.477 1.887,-1.6242 2.449,-2.5484 1.047,-1.7202 5.711,-6.0558 7.593,-7.0578 2.599,-1.3845 8.075,-6.9256 9.518,-9.6318 1.119,-2.1004 2.119,-3.2194 3.9,-4.3633 2.603,-1.6719 6.651,-5.7633 10.688,-10.8 1.41,-1.7592 3.442,-3.7902 4.517,-4.5135 2.726,-1.8344 7.415,-6.1518 8.98,-8.2676 0.722,-0.975 2.115,-2.1459 3.096,-2.6013 1.644,-0.7635 5.076,-4.1541 6.785,-6.7041 2.769,-4.1332 11.973,-13.2636 16.252,-16.1232 1.208,-0.807 1.817,-1.6288 2.026,-2.733 0.453,-2.4 1.946,-4.5025 4.207,-5.9259 2.185,-1.3755 4.543,-3.1921 7.697,-5.9314 1.08,-0.9375 2.965,-2.3834 4.189,-3.2114 1.53,-1.0365 2.4,-2.0392 2.789,-3.2166 0.31,-0.9405 1.453,-2.7562 2.538,-4.0338 1.086,-1.278 2.482,-2.9854 3.103,-3.7956 0.621,-0.81 2.19,-2.187 3.486,-3.0595 1.296,-0.873 4.216,-3.633 6.49,-6.1344 2.274,-2.5013 5.206,-5.4075 6.516,-6.458 4.312,-3.4588 5.382,-4.5574 6.357,-6.5248 0.574,-1.158 2.316,-3.0518 4.308,-4.6809 1.839,-1.5048 3.47,-3.1353 3.625,-3.6231 0.342,-1.077 -1.831,-4.2222 -4.487,-6.4964 -2.115,-1.8097 -2.522,-1.9044 -3.435,-0.798 -0.36,0.435 -1.554,1.191 -2.656,1.6796 -1.614,0.7155 -2.515,1.6747 -4.65,4.9504 -2.025,3.1058 -3.056,4.233 -4.378,4.7856 -2.548,1.065 -4.792,2.9918 -6.303,5.414 -1.812,2.9034 -5.694,7.1437 -6.541,7.1437 -0.378,0 -1.61,0.9105 -2.738,2.024 -1.128,1.113 -2.943,2.7339 -4.034,3.6013 -1.09,0.867 -2.326,2.2605 -2.747,3.0956 -1.103,2.1904 -3.463,4.5508 -5.659,5.6598 -1.047,0.5295 -2.869,1.9044 -4.048,3.0561 -5.078,4.9611 -6.884,6.4695 -9.081,7.5829 -1.699,0.861 -2.415,1.5368 -2.635,2.4876 -0.584,2.5181 -2.55,5.2238 -5.761,7.9271 -1.782,1.5003 -4.215,3.6517 -5.407,4.7811 -1.193,1.1295 -2.855,2.2044 -3.695,2.389 -1.259,0.276 -1.743,0.789 -2.744,2.9045 -1.369,2.8954 -2.711,4.023 -6.452,5.4225 -1.799,0.6735 -2.85,1.41 -3.442,2.4117 -0.468,0.7935 -1.963,2.2636 -3.32,3.2667 -1.358,1.0035 -3.487,3.0163 -4.732,4.4737 -1.261,1.4775 -3.202,3.1046 -4.387,3.6782 -1.237,0.5985 -2.552,1.72 -3.148,2.6857 -0.564,0.912 -1.59,2.0031 -2.281,2.4257 -1.826,1.1175 -5.049,4.6188 -6.446,7.0015 -0.745,1.272 -2.175,2.6753 -3.725,3.6555 -1.383,0.8745 -5.264,4.1696 -8.624,7.3217 -3.36,3.1522 -6.789,6.084 -7.62,6.5152 -0.831,0.4305 -2.221,1.668 -3.089,2.7483 -1.153,1.437 -2.153,2.1182 -3.715,2.5361 -1.836,0.4905 -2.26,0.849 -3.01,2.5458 -0.48,1.086 -1.472,2.3778 -2.204,2.8711 -0.732,0.4935 -2.418,2.0117 -3.746,3.3737 -1.329,1.362 -3.594,3.2428 -5.035,4.1794 -1.44,0.936 -3.279,2.6082 -4.085,3.7148 -0.933,1.281 -2.691,2.7042 -4.836,3.9168 -2.481,1.4025 -4.724,3.3279 -8.5,7.2958 -2.821,2.9651 -5.945,5.8068 -6.941,6.315 -0.996,0.5085 -2.118,1.5114 -2.493,2.2292 -1.082,2.0718 -3.293,3.8992 -5.804,4.7974 -1.878,0.672 -2.857,1.4925 -5.133,4.2978 -1.547,1.9071 -3.623,3.9792 -4.613,4.6047 -0.992,0.6255 -2.287,2.0007 -2.88,3.0561 -0.593,1.056 -1.952,2.502 -3.019,3.2147 -1.79,1.1955 -3.585,2.7798 -8.342,7.3644 -0.995,0.9585 -2.532,2.1087 -3.418,2.5576 -0.885,0.4485 -3.432,2.5115 -5.658,4.5834 -2.227,2.072 -4.477,4.1571 -5.001,4.6335 -0.523,0.477 -2.399,2.3451 -4.166,4.1526 -1.768,1.8077 -3.804,3.8573 -4.525,4.5546 -0.72,0.6975 -1.811,1.9323 -2.422,2.7441 -0.624,0.828 -2.609,2.2151 -4.525,3.1613 -4.323,2.1354 -6.584,4.1308 -7.934,7.0024 -1.194,2.5409 -2.955,4.0202 -5.32,4.4688 -2.096,0.3975 -2.605,0.849 -2.96,2.6226 -0.18,0.903 -1.18,2.3214 -2.558,3.6308 -1.243,1.182 -3.118,2.9605 -4.166,3.952 -1.049,0.9915 -3.109,2.3291 -4.58,2.972 -1.472,0.6435 -3.079,1.7556 -3.572,2.4724 -1.665,2.4201 -5.144,6.0275 -6.48,6.7182 -0.731,0.378 -1.869,1.5447 -2.532,2.5938 -0.661,1.0485 -2.068,2.4896 -3.125,3.201 -2.161,1.455 -7.83,6.9516 -9.153,8.8739 -0.477,0.693 -2.039,1.9216 -3.472,2.7302 -1.753,0.99 -2.894,2.0378 -3.49,3.2061 -0.926,1.8146 -3.198,4.343 -3.903,4.343 -0.225,0 -1.213,0.7215 -2.197,1.602 -0.982,0.8805 -2.471,1.9515 -3.307,2.3787 -0.835,0.4275 -1.901,1.4235 -2.368,2.2132 -0.466,0.7905 -2.086,2.3048 -3.599,3.366 -1.513,1.062 -2.999,2.3928 -3.302,2.9589 -0.87,1.6263 -5.232,6.071 -7.157,7.2932 -0.964,0.612 -2.42,2.083 -3.235,3.2686 -1.145,1.6631 -2.222,2.4996 -4.716,3.6615 -3.026,1.41 -3.351,1.7183 -5.098,4.8312 -2.536,4.5188 -7.444,8.7165 -11.749,10.0488 -1.065,0.33 -1.093,2.405 -0.07,4.8596 0.557,1.332 0.674,2.4817 0.431,4.2253 -0.672,4.8192 -0.557,5.3732 1.559,7.5314 1.083,1.104 2.307,2.9685 2.72,4.1436 0.414,1.1745 1.256,2.6751 1.871,3.3337 0.615,0.6585 1.456,1.8681 1.869,2.6879 0.414,0.819 1.508,1.9369 2.433,2.4826 0.925,0.546 2.372,1.9722 3.217,3.1698 1.731,2.4563 4.611,4.4691 8.471,5.9205 1.44,0.5415 3.901,1.9494 5.468,3.1286 2.385,1.7952 3.198,2.1454 5,2.1549 1.184,0.01 3.01,0.2505 4.058,0.5415 2.88,0.801 12.089,0.8025 13.771,0 1.836,-0.873 5.039,-0.483 6.897,0.84 1.675,1.1925 2.65,4.0465 3.103,9.0832 0.609,6.7695 -2.08,8.564 -15.675,10.4591 -4.811,0.6705 -8.514,-0.03 -15.24,-2.8748 -3.551,-1.503 -5.696,-2.0998 -8.432,-2.3463 -2.911,-0.2625 -4.01,-0.5895 -5.311,-1.5822 -0.903,-0.6885 -2.748,-1.6878 -4.101,-2.2209 -3.743,-1.476 -7.446,-4.0392 -9.068,-6.2779 -0.802,-1.1085 -2.271,-2.5614 -3.264,-3.2294 -5.488,-3.6945 -6.329,-4.7443 -9.167,-11.4538 -0.831,-1.9646 -2.218,-4.3994 -3.083,-5.4107 -1.182,-1.3845 -1.764,-2.7388 -2.352,-5.4769 -0.429,-2.0009 -1.18,-4.4954 -1.667,-5.5431 -1.876,-4.0322 -3.429,-9.4074 -3.148,-10.9008 1.028,-5.4681 2.142,-8.0543 4.508,-10.4699 2.317,-2.3659 2.383,-2.5104 2.132,-4.6476 -0.412,-3.5136 0.444,-5.2131 4.424,-8.7748 1.963,-1.757 3.981,-4.0019 4.485,-4.9886 0.504,-0.987 1.618,-2.2353 2.478,-2.7744 0.859,-0.5385 2.413,-1.866 3.452,-2.9487 1.039,-1.083 2.7,-2.382 3.691,-2.8873 0.991,-0.5055 1.801,-1.1565 1.801,-1.449 0,-0.888 8.231,-8.7218 9.88,-9.4035 1.041,-0.4305 2.009,-1.4505 2.969,-3.1278 0.867,-1.5144 2.985,-3.848 5.411,-5.9599 2.193,-1.9091 4.563,-4.193 5.267,-5.0754 0.704,-0.882 2.075,-2.0156 3.045,-2.5181 0.971,-0.5025 3.265,-2.3392 5.099,-4.0819 1.833,-1.7426 4.289,-3.7973 5.456,-4.5657 2.004,-1.3185 3.411,-2.864 7.43,-8.1599 1.104,-1.455 3.127,-3.1174 5.747,-4.7244 2.224,-1.3635 4.317,-3.0012 4.651,-3.639 0.624,-1.191 10.7,-10.5844 11.353,-10.5844 0.704,0 4.168,-3.4446 5.195,-5.1657 1.696,-2.8407 3.241,-4.2375 5.864,-5.3022 1.632,-0.663 3.083,-1.7295 4.251,-3.1271 0.975,-1.167 2.449,-2.4706 3.274,-2.8975 0.825,-0.4275 2.904,-2.2197 4.62,-3.9845 1.715,-1.7646 4.054,-3.6825 5.197,-4.2619 1.143,-0.579 2.193,-1.4925 2.333,-2.0282 0.812,-3.1033 2.305,-4.8211 5.715,-6.5749 1.887,-0.9705 4.375,-2.5991 5.529,-3.6186 1.154,-1.02 2.799,-2.2824 3.656,-2.8064 1.111,-0.6795 1.73,-1.5472 2.161,-3.0274 0.723,-2.487 1.947,-3.8786 4.627,-5.2616 1.099,-0.567 2.49,-1.7844 3.09,-2.7043 0.6,-0.9195 2.05,-2.2811 3.223,-3.0246 1.173,-0.744 2.55,-1.8839 3.062,-2.534 0.511,-0.6495 2.103,-1.7377 3.538,-2.4171 1.796,-0.8505 3.229,-2.02 4.599,-3.7536 2.24,-2.8342 12.508,-12.2457 15.246,-13.9738 0.984,-0.621 2.359,-1.8777 3.057,-2.7924 0.698,-0.915 2.161,-2.1876 3.253,-2.8289 1.092,-0.642 2.445,-1.7925 3.008,-2.5582 0.564,-0.7665 2.189,-2.0016 3.611,-2.7464 2.098,-1.098 2.835,-1.8298 3.905,-3.873 0.726,-1.386 2.101,-3.1081 3.057,-3.8283 1.723,-1.2975 2.491,-1.99 8.826,-7.9608 1.803,-1.699 3.89,-3.3429 4.639,-3.6529 0.748,-0.3105 2.103,-1.5971 3.01,-2.8599 0.908,-1.263 3.213,-3.3843 5.125,-4.7147 5.764,-4.0126 10.306,-7.7827 11.507,-9.5532 0.626,-0.921 1.645,-1.9537 2.267,-2.2956 0.622,-0.342 1.705,-1.446 2.407,-2.4529 0.702,-1.0065 2.631,-2.7404 4.286,-3.8513 1.655,-1.1115 4.097,-3.0342 5.426,-4.2739 1.329,-1.239 3.261,-2.6853 4.295,-3.2124 1.188,-0.606 2.178,-1.5861 2.692,-2.6648 0.447,-0.939 1.865,-2.4618 3.15,-3.385 1.286,-0.924 2.597,-2.3058 2.914,-3.0726 0.893,-2.1552 11.304,-10.8371 14.557,-12.1385 1.413,-0.5655 2.183,-1.305 3.039,-2.9193 1.55,-2.9221 5.804,-6.7528 7.944,-7.1542 1.245,-0.234 1.968,-0.7725 2.795,-2.0817 0.613,-0.972 1.75,-2.301 2.526,-2.9543 0.777,-0.654 1.784,-1.9716 2.239,-2.9296 0.454,-0.9585 1.5,-2.1644 2.323,-2.6807 0.824,-0.516 2.741,-2.3388 4.26,-4.0498 1.52,-1.7112 3.77,-3.6926 5.001,-4.4031 3.303,-1.907 8.471,-6.6357 9.88,-9.0398 0.678,-1.1565 2.085,-2.7204 3.128,-3.4758 1.042,-0.756 2.31,-1.9002 2.816,-2.544 0.507,-0.6435 1.732,-1.4955 2.723,-1.8916 2.21,-0.8835 7.649,-6.1227 8.89,-8.5611 0.952,-1.8726 4.195,-5.0382 8.329,-8.1318 1.343,-1.0035 3.027,-2.6112 3.744,-3.5717 0.717,-0.96 2,-2.4145 2.851,-3.2314 0.852,-0.8175 1.548,-1.8188 1.548,-2.226 0,-1.2465 2.462,-3.7517 4.743,-4.8254 1.889,-0.8895 7.164,-4.4128 7.164,-4.7856 0,-0.075 -0.321,-0.9045 -0.714,-1.8457 -0.884,-2.1165 -0.849,-8.6988 0.06,-11.7408 0.352,-1.179 0.645,-2.6466 0.648,-3.2618 0,-0.615 0.307,-1.794 0.676,-2.6194 0.369,-0.825 1.262,-3.4296 1.985,-5.787 1.222,-3.9861 3.694,-8.7404 4.95,-9.5162 0.297,-0.1845 1.045,-1.4745 1.661,-2.8665 1.161,-2.6235 4.228,-5.9947 6.545,-7.1932 0.734,-0.3795 1.332,-0.972 1.332,-1.317 0,-0.345 -1.062,-1.8422 -2.361,-3.3261 -2.605,-2.9772 -4.062,-5.8598 -4.969,-9.8327 -0.488,-2.1342 -0.9,-2.8191 -2.23,-3.6972 -2.776,-1.8337 -3.739,-2.9782 -4.444,-5.2776 -0.373,-1.2195 -1.354,-3.5892 -2.18,-5.2663 -2.02,-4.1055 -4.295,-10.4256 -4.292,-11.9247 0,-1.8726 -2.405,-8.2176 -3.626,-9.5529 -2.005,-2.193 -2.668,-4.5501 -2.329,-8.2822 0.285,-3.138 0.217,-3.5055 -0.912,-5.0186 -0.671,-0.8985 -1.359,-2.3982 -1.528,-3.3337 -0.17,-0.936 -0.732,-2.5428 -1.25,-3.5717 -0.517,-1.029 -1.059,-3.1717 -1.203,-4.7622 -0.15,-1.5903 -0.762,-3.9633 -1.371,-5.2731 -1.374,-2.9515 -1.414,-5.4108 -0.135,-7.9296 l 0.989,-1.9381 -0.948,-2.2101 c -0.522,-1.215 -1.103,-3.0674 -1.29,-4.1151 -0.189,-1.047 -0.654,-2.5203 -1.035,-3.2724 -0.501,-0.99 -0.597,-2.0421 -0.347,-3.81 0.191,-1.344 0.306,-5.8716 0.258,-10.0626 -0.05,-4.191 0.152,-9.8703 0.444,-12.6206 0.293,-2.7504 0.609,-7.7044 0.704,-11.0091 0.12,-4.3557 0.397,-6.5172 0.993,-7.858 0.643,-1.4505 0.843,-3.4286 0.919,-9.1524 l 0.105,-7.3026 1.733,-3.3173 c 1.482,-2.8374 1.733,-3.7713 1.733,-6.4564 0,-2.1173 0.302,-3.7764 0.924,-5.0964 0.509,-1.077 1.056,-2.9616 1.215,-4.1892 0.161,-1.2285 0.843,-3.0458 1.518,-4.0403 1.136,-1.6731 1.994,-3.7677 3.754,-9.1624 0.376,-1.155 0.685,-3.0443 0.685,-4.1985 0,-2.493 0.507,-3.5957 2.723,-5.9141 1.363,-1.428 2.193,-3.3154 4.682,-10.6594 1.664,-4.9086 3.435,-9.3786 3.937,-9.9333 1.69,-1.8692 4.413,-6.555 4.69,-8.0739 0.41,-2.2374 2.292,-5.2674 4.389,-7.0632 1.167,-1.0005 2.042,-2.2724 2.364,-3.4371 0.28,-1.017 1.024,-2.6244 1.653,-3.5718 1.508,-2.2742 3.51,-5.6768 5.598,-9.5169 1.149,-2.1141 2.381,-3.6045 3.81,-4.6103 1.429,-1.0065 2.343,-2.1114 2.828,-3.4228 0.825,-2.229 2.013,-3.672 3.96,-4.8063 0.753,-0.438 1.866,-1.7727 2.473,-2.9643 0.607,-1.1925 2.322,-3.2277 3.811,-4.5245 1.953,-1.7013 3.084,-3.1879 4.061,-5.3401 0.986,-2.1687 2.35,-3.9555 5.002,-6.5484 2.007,-1.9614 3.83,-3.566 4.052,-3.566 0.222,0 5.377,-4.9326 11.454,-10.9614 10.173,-10.0929 11.247,-11.0191 13.556,-11.6902 2.454,-0.714 3.467,-1.566 7.268,-6.1179 0.611,-0.7305 2.496,-1.9566 4.19,-2.7248 2.431,-1.1025 4.104,-2.4292 7.939,-6.2976 3.834,-3.8665 5.563,-5.2381 8.193,-6.4995 1.834,-0.879 3.87,-2.0691 4.525,-2.644 0.655,-0.5745 2.895,-1.9484 4.978,-3.0522 2.083,-1.104 4.278,-2.3925 4.878,-2.864 0.6,-0.471 1.807,-0.9915 2.684,-1.1565 0.878,-0.165 2.112,-0.852 2.743,-1.5277 1.527,-1.6346 3.069,-2.3763 5.752,-2.7665 1.798,-0.261 2.471,-0.648 3.516,-2.0173 1.398,-1.8323 3.682,-3.0218 5.803,-3.0218 0.733,0 2.106,-0.525 3.05,-1.167 0.943,-0.642 2.279,-1.284 2.968,-1.428 0.688,-0.15 1.773,-0.3705 2.409,-0.501 0.636,-0.135 1.926,-0.963 2.865,-1.8493 1.107,-1.044 3.193,-2.1461 5.934,-3.1343 2.324,-0.8385 4.946,-2.0095 5.826,-2.6031 2.263,-1.5261 7.384,-3.196 9.411,-3.0688 3.519,0.2205 4.624,-0.075 7.071,-1.9176 1.848,-1.389 3.109,-1.9394 4.988,-2.1785 2.896,-0.369 9.574,-2.2455 12.863,-3.6154 2.702,-1.125 9.179,-2.3282 12.605,-2.3403 1.74,-0.01 3.155,-0.3735 4.763,-1.2375 1.836,-0.987 2.751,-1.1865 4.638,-1.014 1.434,0.135 2.986,-0.045 3.98,-0.465 0.896,-0.375 2.724,-0.69 4.063,-0.699 1.338,-0.01 3.834,-0.3405 5.545,-0.7335 3.577,-0.822 13.3,-1.467 26.764,-1.7763 5.151,-0.12 10.295,-0.4665 11.43,-0.7725 2.481,-0.6705 12.161,-0.21 15.863,0.7545 3.178,0.828 9.844,1.6636 12.872,1.6141 4.218,-0.075 10.72,0.5415 20.142,1.8896 1.844,0.264 4.592,1.2015 7.144,2.4358 5.662,2.7404 6.547,2.9589 9.51,2.3484 3.136,-0.6465 5.261,-0.03 7.653,2.2293 1.177,1.1115 2.162,1.6107 3.172,1.6107 0.806,0 2.685,0.429 4.175,0.9525 1.491,0.5235 3.369,0.9525 4.175,0.9525 1.543,0 3.165,0.705 5.911,2.5682 0.915,0.621 2.689,1.2765 3.942,1.458 1.346,0.1935 3.574,1.104 5.437,2.2201 1.737,1.0395 4.294,2.3063 5.683,2.8137 1.389,0.507 3.205,1.5819 4.036,2.3874 1.114,1.08 2.08,1.5203 3.676,1.6766 1.191,0.12 3.312,0.7455 4.713,1.398 1.401,0.6525 2.81,1.188 3.131,1.191 0.321,0 1.714,1.0845 3.096,2.4058 1.666,1.5933 3.181,2.5707 4.501,2.9052 1.239,0.3135 3.193,1.5188 5.181,3.1949 1.756,1.4805 3.883,3.1561 4.728,3.7252 0.844,0.5685 2.478,2.096 3.629,3.3929 1.151,1.2975 2.986,2.9121 4.077,3.5893 1.092,0.6765 2.119,1.4475 2.282,1.7135 0.164,0.2655 1.274,0.9135 2.466,1.44 1.192,0.528 3.183,1.98 4.426,3.2283 1.242,1.248 3.205,2.9208 4.361,3.7168 1.602,1.1025 2.347,2.067 3.127,4.0482 0.718,1.8233 1.501,2.8998 2.619,3.6014 2.454,1.539 9.904,8.6409 13.542,12.9093 1.07,1.2555 2.317,3.247 2.771,4.4257 0.453,1.179 1.469,2.9522 2.254,3.9411 0.786,0.9885 1.831,2.7087 2.324,3.8219 0.687,1.5544 1.399,2.269 3.068,3.0796 2.369,1.152 3.804,3.0708 4.306,5.7632 0.213,1.14 0.999,2.3859 2.305,3.6546 1.411,1.371 3.106,4.1788 5.893,9.763 2.151,4.3112 4.925,9.2315 6.165,10.9341 2.291,3.1463 4.909,7.878 4.92,8.8931 0,0.3075 0.544,1.1985 1.203,1.9815 1.954,2.3229 2.604,4.5426 2.916,9.9561 0.264,4.5819 0.42,5.2599 1.479,6.3984 1.449,1.5577 1.935,4.9299 1.084,7.5081 -0.547,1.6567 -0.496,1.9896 0.593,3.8968 0.717,1.2555 1.294,3.1776 1.452,4.8324 0.153,1.6112 0.696,3.4521 1.314,4.4523 0.964,1.5615 1.065,2.3945 1.176,9.8736 0.12,8.1131 0.594,12.6263 1.908,18.2397 0.377,1.6103 0.555,3.5826 0.395,4.383 -0.161,0.801 0.07,3.8765 0.522,6.8355 0.736,4.8749 0.745,5.6487 0.09,8.2377 -0.396,1.5716 -0.87,5.7455 -1.056,9.2754 -0.185,3.5298 -0.647,7.2803 -1.025,8.3343 -0.426,1.185 -0.756,4.3706 -0.864,8.3459 -0.09,3.5361 -0.429,7.608 -0.739,9.0487 -0.311,1.44 -0.596,4.2267 -0.633,6.1913 -0.06,3.0237 -0.266,3.8641 -1.352,5.4768 -1.045,1.5514 -1.339,2.6565 -1.588,5.9532 -0.516,6.8554 -2.676,13.4253 -6.165,18.75 -0.447,0.6825 -0.645,2.0962 -0.576,4.1218 0.09,2.669 -0.105,3.4815 -1.444,6.0408 -0.852,1.6263 -1.548,3.2553 -1.548,3.62 0,0.3645 -0.512,1.624 -1.136,2.7987 -0.624,1.1745 -1.291,2.8675 -1.482,3.7618 -0.19,0.894 -0.841,2.5907 -1.447,3.7694 -4.295,8.3587 -6.352,12.8985 -6.642,14.6611 -0.185,1.122 -0.86,2.6624 -1.499,3.4223 -0.639,0.7605 -1.468,2.4136 -1.843,3.675 -0.398,1.341 -1.488,3.1834 -2.623,4.4359 -1.068,1.179 -2.052,2.6782 -2.189,3.3331 -0.388,1.8645 -1.45,3.8246 -3.642,6.7218 -1.113,1.47 -2.712,3.5807 -3.553,4.689 -0.842,1.1085 -2.317,3.6095 -3.28,5.5581 -0.963,1.9485 -2.215,3.9104 -2.784,4.3598 -0.568,0.4485 -1.659,1.9678 -2.423,3.3745 -0.765,1.407 -2.082,3.0855 -2.928,3.7307 -0.846,0.645 -2.066,2.074 -2.711,3.1749 -0.645,1.101 -1.728,2.2987 -2.406,2.6617 -0.678,0.363 -1.89,1.6832 -2.692,2.934 -1.467,2.2853 -4.829,5.658 -5.641,5.658 -0.522,0 -5.606,7.1361 -6.845,9.6081 -0.517,1.0335 -1.96,2.4959 -3.523,3.5718 -1.455,1.002 -3.26,2.7141 -4.01,3.8045 -0.986,1.4325 -1.995,2.2152 -3.633,2.8204 -2.97,1.098 -3.329,1.4055 -4.639,3.9777 -1.347,2.6466 -2.554,3.7694 -5.963,5.5461 -1.44,0.7515 -4.012,2.7878 -5.715,4.5261 -1.703,1.7384 -3.846,3.5352 -4.762,3.9929 -0.917,0.4575 -2.525,1.6557 -3.572,2.6623 -1.049,1.0065 -3.096,2.3552 -4.552,2.9972 -1.455,0.642 -3.277,1.6945 -4.048,2.3392 -0.771,0.645 -2.259,1.6124 -3.307,2.1503 -1.047,0.5385 -2.151,1.3875 -2.452,1.887 -0.302,0.4995 -1.909,1.6035 -3.572,2.4522 -1.663,0.849 -3.774,1.9573 -4.691,2.4636 -0.917,0.5055 -2.135,0.921 -2.707,0.921 -0.686,4e-4 -1.497,0.6735 -2.381,1.9767 -1.631,2.403 -3.999,3.739 -6.626,3.739 -1.482,0 -2.422,0.363 -3.818,1.476 -1.018,0.8115 -2.709,1.9065 -3.756,2.4326 -1.047,0.5265 -2.563,1.5805 -3.366,2.3431 -0.804,0.762 -2.626,1.8338 -4.049,2.3801 -1.422,0.546 -3.337,1.2825 -4.253,1.6366 -0.917,0.354 -2.155,0.6525 -2.75,0.6645 -0.596,0.012 -2.115,0.7305 -3.376,1.5983 -1.262,0.867 -2.917,1.8196 -3.68,2.1157 -0.762,0.297 -2.886,1.1355 -4.72,1.8663 -2.58,1.0275 -3.997,1.3035 -6.268,1.221 -2.462,-0.09 -3.372,0.12 -5.645,1.3185 -1.489,0.7845 -3.186,1.425 -3.768,1.425 -0.582,0 -2.715,0.858 -4.74,1.905 -2.024,1.047 -4.133,1.905 -4.685,1.905 -0.552,0 -2.094,0.3105 -3.427,0.6915 -4.062,1.158 -9.007,2.169 -10.608,2.1677 -0.834,-8e-4 -2.12,0.231 -2.857,0.5145 -0.737,0.2835 -2.625,0.726 -4.195,0.981 -1.57,0.2565 -3.794,0.8805 -4.942,1.389 -1.452,0.642 -3.16,0.924 -5.614,0.924 -2.333,0 -4.529,0.339 -6.488,1.005 -2.305,0.7815 -3.628,0.9435 -5.967,0.729 -1.652,-0.1515 -4.653,-0.03 -6.667,0.2595 -2.015,0.294 -4.949,0.558 -6.52,0.5895 -1.572,0.03 -4.05,0.453 -5.508,0.939 -2.453,0.8175 -2.907,0.831 -6.123,0.1845 -2.98,-0.5985 -3.874,-0.6045 -6.297,-0.045 -2.202,0.5085 -3.267,0.534 -4.829,0.12 -2.054,-0.5535 -7.658,-1.0155 -11.057,-0.9135 -1.047,0.03 -2.762,0.045 -3.81,0.045 -1.047,-0.01 -3.711,-0.03 -5.918,-0.03 -3.587,-0.012 -4.289,-0.168 -6.604,-1.4745 l -2.59,-1.461 -2.295,0.987 c -2.671,1.149 -5.847,1.2585 -9.52,0.33 -1.43,-0.3615 -3.458,-0.7965 -4.506,-0.9675 -1.048,-0.1695 -2.655,-0.5955 -3.571,-0.9435 -3.334,-1.2675 -7.942,-2.294 -11.669,-2.5976 -2.792,-0.228 -4.294,-0.612 -5.624,-1.4385 -2.258,-1.404 -4.166,-1.8735 -9.63,-2.37 -3.855,-0.3495 -4.565,-0.5715 -6.84,-2.1373 -1.944,-1.3365 -3.012,-1.7463 -4.558,-1.7463 -1.239,0 -2.884,-0.4605 -4.258,-1.191 -1.232,-0.654 -2.924,-1.1955 -3.762,-1.2015 -2.664,-0.015 -5.157,-0.825 -7.283,-2.3516 -1.136,-0.816 -2.983,-1.783 -4.105,-2.1499 -6.467,-2.1146 -7.859,-2.7672 -9.656,-4.5272 -1.385,-1.3545 -2.474,-1.9587 -3.961,-2.1948 -3.314,-0.5265 -9.428,-4.9585 -16.867,-12.2289 -1.499,-1.4655 -4.178,-3.6802 -5.953,-4.9221 -1.775,-1.242 -3.763,-2.7432 -4.418,-3.3361 -0.656,-0.5925 -2.208,-1.5125 -3.451,-2.0435 -1.244,-0.531 -3.017,-1.722 -3.942,-2.6467 -0.924,-0.924 -2.523,-2.111 -3.552,-2.636 -1.029,-0.525 -2.47,-1.7145 -3.202,-2.6433 -0.732,-0.9285 -2.189,-2.0853 -3.236,-2.5699 -2.251,-1.041 -12.379,-10.7412 -12.844,-12.3008 -0.177,-0.594 -1.431,-1.7989 -2.788,-2.6788 -3.267,-2.1198 -5.491,-4.5219 -6.261,-6.7625 -0.8,-2.3236 -1.436,-2.5266 -2.356,-0.75 -0.402,0.7755 -1.592,2.1498 -2.647,3.0525 -1.054,0.903 -1.917,2.0028 -1.917,2.4444 0,1.3635 -1.239,3.8567 -2.798,5.6325 -0.819,0.9315 -1.488,2.1038 -1.488,2.6031 0,0.4995 -0.438,1.757 -0.972,2.7947 -1.028,1.9936 -1.022,2.7717 0.08,9.8661 0.378,2.4295 0.352,3.7921 -0.105,5.5668 -0.572,2.2273 -0.54,2.445 0.606,4.1755 0.664,1.0035 1.655,2.6781 2.202,3.72 0.548,1.0425 2.88,3.8451 5.185,6.2295 l 4.19,4.335 3.365,0.3285 c 1.851,0.18 4.378,0.633 5.616,1.005 3.298,0.993 14.525,0.5055 17.393,-0.7545 1.146,-0.504 2.835,-0.9165 3.753,-0.9165 0.918,0 2.359,-0.426 3.201,-0.9465 0.843,-0.5205 3.011,-1.5021 4.819,-2.1811 1.808,-0.6795 3.955,-1.6461 4.772,-2.1491 2.391,-1.473 5.417,-1.227 7.827,0.633 6.673,5.1546 6.815,10.4457 0.427,15.9296 -4.35,3.7345 -6.997,5.1306 -11.906,6.2793 -2.214,0.5175 -4.953,1.284 -6.088,1.7005 -1.134,0.417 -4.028,0.8445 -6.429,0.951 -2.402,0.105 -5.76,0.5265 -7.462,0.9345 -1.703,0.408 -4.534,0.7455 -6.292,0.75 -3.424,0.01 -12.28,-1.9855 -13.918,-3.1321 -1.627,-1.14 -2.166,-0.777 -3.603,2.4243 -1.131,2.5221 -1.787,3.3363 -3.543,4.3968 -2.051,1.239 -2.972,2.3445 -2.415,2.901 0.402,0.402 3.101,-1.0455 5.946,-3.1895 1.434,-1.08 2.962,-1.9647 3.398,-1.9647 0.435,0 1.897,-0.357 3.25,-0.7935 2.884,-0.9315 3.227,-0.7245 4.464,2.699 0.979,2.7097 0.495,7.0983 -0.96,8.6956 -1.422,1.5606 -2.044,2.9598 -2.044,4.5944 0,0.795 -0.528,2.6415 -1.174,4.102 -1.134,2.5635 -1.789,3.3075 -12.219,13.878 -1.333,1.3515 -2.832,3.1277 -3.33,3.9476 -0.498,0.8205 -1.628,1.9162 -2.509,2.4361 -1.076,0.6345 -1.867,1.6395 -2.408,3.0549 -0.442,1.1595 -1.595,2.7909 -2.56,3.624 -4.575,3.9479 -12.564,12.1307 -15.567,15.9455 -4.48,5.6911 -10.03,11.4994 -12.492,13.0743 -1.85,1.1835 -3.74,3.4471 -7.503,8.9865 -0.781,1.1505 -2.206,2.6106 -3.166,3.2461 -0.96,0.636 -2.641,2.2167 -3.734,3.5136 -1.094,1.2975 -2.805,2.7743 -3.802,3.2831 -1.42,0.7245 -1.88,1.284 -2.124,2.5846 -0.182,0.9705 -0.947,2.2557 -1.843,3.0951 -5.048,4.7319 -8.119,8.1941 -9.124,10.2854 -1.535,3.1929 -2.781,4.4257 -5.842,5.7793 -2.088,0.924 -2.706,1.473 -3.282,2.9181 -1.27,3.1901 -1.745,3.8879 -3.394,4.985 -0.894,0.5955 -2.126,2.0458 -2.738,3.2245 -0.617,1.188 -3.415,4.3814 -6.277,7.164 -2.84,2.7615 -5.767,5.901 -6.505,6.9765 -0.738,1.0755 -2.345,2.8881 -3.572,4.0278 -1.227,1.14 -2.931,3.1023 -3.787,4.3613 -0.894,1.3125 -2.213,2.5635 -3.096,2.9328 -1.051,0.4395 -1.916,1.3725 -2.729,2.941 -0.719,1.386 -2.129,3.002 -3.559,4.0755 -1.664,1.2495 -2.687,2.5022 -3.442,4.2135 -0.591,1.3395 -2.044,3.513 -3.228,4.8303 -1.185,1.317 -2.154,2.5743 -2.154,2.7932 0,0.219 -0.609,0.7575 -1.354,1.197 -0.746,0.4395 -1.673,1.3245 -2.062,1.9659 -0.39,0.6405 -2.222,2.8117 -4.074,4.8229 -1.851,2.0114 -3.957,4.3706 -4.68,5.2427 -0.723,0.8715 -2.487,2.2474 -3.92,3.0565 -1.744,0.984 -3.065,2.1933 -3.99,3.6531 -1.504,2.3726 -7.337,8.6117 -8.05,8.6117 -0.243,0 -0.795,1.2705 -1.227,2.8246 -0.878,3.1583 -4.387,7.8953 -7.082,9.5609 -2.489,1.5382 -9.77,9.4695 -10.713,11.6701 -0.47,1.0965 -1.49,2.5089 -2.267,3.1377 -0.777,0.6285 -2.537,2.8131 -3.912,4.8536 -1.376,2.0406 -3.052,4.0765 -3.724,4.5244 -2.108,1.4025 -5.769,5.4933 -6.721,7.5085 -0.503,1.062 -1.286,2.2412 -1.743,2.6193 -0.456,0.378 -1.98,2.1303 -3.388,3.8937 -1.407,1.7633 -3.838,4.0751 -5.402,5.1374 -1.565,1.062 -2.845,2.1469 -2.845,2.4103 0,0.264 -0.921,1.488 -2.045,2.7207 -1.125,1.233 -2.29,2.811 -2.589,3.5067 -0.298,0.696 -1.341,1.8746 -2.316,2.6195 -3.81,2.91 -5.772,5.0314 -8.29,8.965 -1.44,2.2506 -3.725,5.4482 -5.077,7.1058 -1.351,1.6575 -2.896,3.8738 -3.432,4.9248 -0.537,1.0515 -2.892,3.7056 -5.235,5.8988 -2.478,2.3197 -5.296,5.5584 -6.738,7.7437 -1.364,2.066 -3.849,5.1539 -5.524,6.8619 -1.675,1.7081 -3.045,3.303 -3.045,3.5444 0,0.2415 -1.299,1.7611 -2.885,3.3775 -6.006,6.117 -7.002,7.2578 -7.346,8.4156 -0.195,0.654 -1.884,2.7024 -3.753,4.5501 -1.869,1.8477 -4.626,5.1696 -6.126,7.382 -1.5,2.2122 -3.898,5.4153 -5.329,7.1179 -5.24,6.2343 -5.807,6.9504 -7.4,9.3543 -1.89,2.8505 -3.379,3.8438 -7.092,4.7315 -3.383,0.8085 -4.691,0.807 -6.561,-0.01 z m 284.179,-342.8127 c 0.3,-0.588 1.308,-2.1952 2.238,-3.5704 0.93,-1.3755 1.552,-2.6408 1.38,-2.8122 -0.393,-0.393 -4.574,3.8808 -5.663,5.7888 -0.449,0.786 -1.19,1.9377 -1.645,2.5597 l -0.83,1.131 1.987,-1.014 c 1.093,-0.558 2.232,-1.4955 2.533,-2.0835 z m 182.696,-32.1183 c 2.224,-0.7005 2.939,-0.7275 5.464,-0.207 2.289,0.4725 3.58,0.48 6.088,0.03 2.684,-0.48 3.794,-0.4455 7.077,0.2205 3.366,0.6825 4.072,0.699 5.207,0.135 2.328,-1.173 3.803,-1.287 7.003,-0.5445 l 3.138,0.7275 3.583,-1.434 c 2.116,-0.8475 5.183,-1.6177 7.492,-1.8816 2.15,-0.246 4.927,-0.714 6.171,-1.0395 1.641,-0.429 2.841,-0.4605 4.371,-0.105 2.511,0.5745 6.964,-0.2055 11.478,-2.0118 1.605,-0.642 3.464,-1.1685 4.131,-1.1685 0.666,0 2.124,-0.321 3.237,-0.714 1.113,-0.393 2.618,-0.714 3.342,-0.714 0.724,0 2.251,-0.4245 3.393,-0.942 1.141,-0.5175 2.522,-0.9465 3.067,-0.9525 1.175,-0.012 6.922,-1.6828 9.146,-2.658 0.859,-0.378 2.038,-0.69 2.619,-0.6945 0.58,0 1.951,-0.6165 3.046,-1.359 1.178,-0.798 2.93,-1.4655 4.287,-1.6338 1.263,-0.156 3.144,-0.723 4.181,-1.26 1.038,-0.537 2.299,-0.9765 2.801,-0.9765 0.503,0 2.548,-0.8325 4.543,-1.8514 1.996,-1.0185 4.164,-2.0885 4.819,-2.3783 0.656,-0.2895 1.938,-0.957 2.85,-1.482 0.92,-0.5295 2.527,-0.9555 3.602,-0.9555 1.527,0 2.229,-0.2985 3.281,-1.398 1.268,-1.323 8.457,-4.7934 9.931,-4.7934 0.378,0 1.231,-0.429 1.898,-0.9525 0.666,-0.525 2.57,-1.5664 4.231,-2.3161 1.661,-0.75 3.449,-1.8521 3.973,-2.4495 0.523,-0.597 2.131,-1.6086 3.572,-2.2467 1.44,-0.6375 3.155,-1.6608 3.81,-2.2728 0.655,-0.612 2.436,-1.4715 3.959,-1.9094 2.468,-0.7095 2.923,-1.0455 4.177,-3.0838 1.101,-1.7886 2.002,-2.5668 4.136,-3.5696 1.501,-0.705 3.265,-1.7764 3.92,-2.3803 0.656,-0.6045 2.048,-1.5273 3.096,-2.0522 1.047,-0.525 3.619,-2.6991 5.715,-4.8313 4.128,-4.2012 6.222,-5.7491 7.774,-5.7491 0.671,0 2.66,-1.8652 6.096,-5.715 2.805,-3.1432 5.118,-5.721 5.14,-5.7285 0.01,-0.01 1.203,-0.399 2.624,-0.8715 2.291,-0.7605 2.657,-1.0665 3.22,-2.6934 0.788,-2.2762 1.794,-3.4134 4.028,-4.5534 1.194,-0.609 2.073,-1.5835 2.817,-3.1197 1.06,-2.1919 8.237,-9.7227 13.089,-13.737 1.787,-1.479 2.724,-2.8317 4.308,-6.2199 1.113,-2.3818 2.353,-4.6036 2.755,-4.9374 0.402,-0.3345 1.261,-1.511 1.909,-2.6159 0.663,-1.131 1.939,-2.4138 2.923,-2.9361 1.059,-0.5625 2.127,-1.6761 2.717,-2.8323 0.534,-1.047 1.67,-2.6838 2.524,-3.6356 0.995,-1.1085 1.679,-2.4771 1.904,-3.8088 0.337,-1.9984 2.429,-4.7143 4.567,-5.9302 1.07,-0.609 4.709,-7.8578 4.709,-9.3804 0,-1.263 4.619,-10.7753 5.942,-12.2372 0.393,-0.4335 0.969,-1.5246 1.283,-2.4243 0.313,-0.9 1.173,-2.5888 1.911,-3.7533 0.738,-1.164 1.341,-2.3668 1.341,-2.6719 0,-0.3045 0.531,-1.338 1.182,-2.2958 0.649,-0.957 1.381,-2.9697 1.626,-4.4716 0.512,-3.1407 2.006,-6.8456 3.604,-8.9414 0.608,-0.7965 1.43,-2.619 1.825,-4.0488 0.396,-1.4295 1.073,-3.5421 1.502,-4.6941 0.606,-1.6213 0.671,-2.4175 0.284,-3.5239 -1.161,-3.3312 -0.56,-5.8563 2.124,-8.907 1.524,-1.7342 2.575,-6.3068 2.274,-9.8987 -0.174,-2.0683 -0.03,-3.6132 0.488,-5.0007 0.508,-1.383 0.84,-4.7509 1.063,-10.8181 0.209,-5.6573 0.558,-9.3756 0.975,-10.389 0.495,-1.203 0.537,-2.1119 0.171,-3.818 -0.739,-3.4458 -0.615,-13.7107 0.237,-19.6621 0.317,-2.2148 0.206,-3.1506 -0.652,-5.4432 -0.873,-2.3322 -0.987,-3.3369 -0.726,-6.3741 0.255,-2.976 0.135,-4.1045 -0.684,-6.4631 -0.546,-1.5715 -1.179,-4.6791 -1.406,-6.9055 -0.258,-2.5415 -0.895,-5.2004 -1.711,-7.1438 -1.885,-4.4923 -4.078,-11.8143 -4.078,-13.6173 0,-0.9465 -1.026,-3.5661 -2.619,-6.6874 -1.44,-2.8224 -2.62,-5.3556 -2.621,-5.6294 0,-0.5685 -2.061,-5.6409 -4.211,-10.3737 -0.801,-1.7644 -1.604,-3.9915 -1.784,-4.9489 -0.21,-1.1175 -1.147,-2.6474 -2.618,-4.271 -1.284,-1.4175 -2.506,-3.3301 -2.781,-4.3482 -0.315,-1.17 -1.311,-2.5929 -2.795,-3.9942 -1.648,-1.555 -2.618,-3.0103 -3.399,-5.0986 -1.17,-3.1281 -4.151,-7.1714 -7.698,-10.4384 -1.203,-1.1085 -2.811,-3.1666 -3.571,-4.5726 -0.974,-1.7979 -2.602,-3.5692 -5.49,-5.9706 -3.873,-3.2194 -9.943,-9.6493 -9.943,-10.5316 0,-0.222 -1,-0.7845 -2.222,-1.251 -2.428,-0.927 -4.776,-3.0266 -6.579,-5.8821 -0.787,-1.2465 -1.63,-1.9392 -2.628,-2.1584 -0.808,-0.177 -2.438,-1.161 -3.621,-2.1855 -1.184,-1.0245 -2.536,-1.8628 -3.005,-1.8628 -1.047,0 -3.918,-2.0555 -6.501,-4.6544 -1.064,-1.0695 -3.207,-2.508 -4.763,-3.1948 -1.555,-0.687 -3.493,-1.8926 -4.306,-2.6792 -1.017,-0.984 -2.411,-1.6476 -4.467,-2.1271 -1.73,-0.4035 -3.715,-1.2675 -4.713,-2.0519 -2.188,-1.7185 -4.148,-2.6952 -6.192,-3.0844 -1.991,-0.3795 -6.364,-2.8451 -8.612,-4.8564 -0.978,-0.8745 -2.483,-1.6506 -3.589,-1.8495 -1.047,-0.189 -2.843,-0.7545 -3.99,-1.257 -1.146,-0.5025 -3.031,-0.915 -4.189,-0.915 -1.33,0 -2.926,-0.438 -4.341,-1.191 -1.23,-0.654 -2.62,-1.191 -3.089,-1.191 -0.47,0 -1.864,-0.5055 -3.1,-1.1235 -1.348,-0.675 -3.903,-1.332 -6.394,-1.6472 -2.281,-0.288 -5.005,-0.9615 -6.053,-1.4955 -1.098,-0.5595 -2.831,-0.972 -4.087,-0.972 -1.329,0 -2.964,-0.411 -4.186,-1.053 -1.764,-0.927 -2.749,-1.056 -8.196,-1.071 -5.579,-0.015 -6.4,-0.135 -8.306,-1.146 -1.883,-1.0035 -2.509,-1.095 -5.715,-0.8295 -1.98,0.165 -4.506,0.426 -5.612,0.5805 -1.304,0.183 -2.813,0.01 -4.287,-0.4995 -4.301,-1.4805 -8.792,-1.7574 -15.078,-0.9285 -3.239,0.4275 -7.158,0.648 -8.935,0.504 -2.089,-0.168 -3.95,-0.015 -5.472,0.438 -2.099,0.6315 -4.113,0.7185 -15.086,0.651 -1.26,-0.01 -4.363,0.339 -6.895,0.7695 -2.802,0.477 -5.588,0.669 -7.119,0.489 -2.32,-0.273 -2.699,-0.168 -4.891,1.3395 -3.014,2.073 -5.245,2.8079 -7.766,2.5568 -1.273,-0.12 -2.681,0.105 -3.898,0.657 -1.047,0.471 -2.911,0.8595 -4.14,0.8655 -1.365,0.01 -2.865,0.3825 -3.853,0.9645 -0.889,0.525 -2.834,1.179 -4.321,1.4535 -1.487,0.2745 -3.825,1.0215 -5.196,1.6602 -1.371,0.639 -3.163,1.1625 -3.982,1.1655 -0.819,0 -2.212,0.303 -3.096,0.666 -0.883,0.3645 -2.785,0.8175 -4.225,1.008 -3.07,0.405 -4.022,0.8295 -5.953,2.65 -1.894,1.7858 -5.373,3.2798 -8.454,3.6308 -1.376,0.156 -3.036,0.6555 -3.691,1.1085 -2.527,1.7488 -8.909,4.6513 -10.953,4.9815 -2.348,0.3795 -6.092,2.4304 -8.345,4.5714 -0.792,0.753 -2.636,1.7791 -4.097,2.2819 -1.461,0.5025 -3.707,1.6604 -4.99,2.5722 -2.899,2.0603 -4.748,2.9843 -6.722,3.3594 -0.975,0.186 -2.36,1.146 -3.81,2.643 -1.569,1.6202 -2.911,2.5206 -4.312,2.8937 -1.119,0.2985 -2.776,1.0455 -3.683,1.6603 -0.906,0.615 -2.761,1.5167 -4.122,2.0031 -1.914,0.684 -2.833,1.3845 -4.065,3.0963 -0.876,1.2165 -2.343,2.5686 -3.262,3.0045 -0.918,0.435 -2.224,1.6305 -2.902,2.655 -0.801,1.2105 -2.031,2.2232 -3.514,2.8935 -1.254,0.567 -2.548,1.5291 -2.874,2.1377 -0.325,0.609 -1.793,1.953 -3.261,2.9875 -1.467,1.035 -3.311,2.5611 -4.097,3.3923 -0.786,0.831 -2.548,2.0422 -3.916,2.6914 -2.708,1.2855 -6.554,4.809 -9.181,8.4099 -3.143,4.3082 -3.933,5.1402 -5.775,6.0798 -1.015,0.5175 -1.845,1.2765 -1.845,1.6874 0,0.9285 -5.346,6.5491 -7.491,7.8744 -0.873,0.54 -1.987,1.7643 -2.475,2.7213 -0.489,0.957 -2.035,2.8365 -3.438,4.1766 -4.101,3.9178 -7.355,8.0019 -9.249,11.6055 -1.076,2.0466 -2.513,3.9514 -3.677,4.8733 -1.311,1.0395 -2.393,2.5661 -3.45,4.8701 -1.04,2.2647 -2.256,3.9939 -3.739,5.3157 -1.472,1.311 -2.2,2.3412 -2.2,3.114 0,1.3395 -0.802,2.9449 -4.203,8.4159 -1.356,2.1802 -2.464,4.491 -2.464,5.1349 0,1.8731 -1.293,4.4582 -3.34,6.6788 -1.044,1.134 -1.905,2.4402 -1.912,2.9044 -0.01,1.461 -2.585,6.9444 -4.707,10.0682 -1.643,2.4192 -2.211,3.8457 -2.928,7.3459 -0.489,2.3891 -1.097,4.8888 -1.349,5.555 -0.252,0.666 -0.592,2.2144 -0.756,3.4407 -0.163,1.2255 -0.843,3.2622 -1.512,4.5243 -0.669,1.263 -1.599,3.0451 -2.068,3.9619 -1.702,3.3221 -3.812,11.7729 -3.812,15.2652 0,2.0805 -0.298,4.0065 -0.79,5.1098 -0.854,1.9132 -1.346,5.1372 -1.979,12.9625 -0.222,2.7503 -0.767,5.8401 -1.208,6.8661 -0.748,1.7396 -0.75,2.0049 -0.01,3.9245 0.63,1.6509 0.711,2.7912 0.41,5.7544 -0.641,6.2832 -0.435,18.0689 0.4,22.9884 0.582,3.4245 0.684,5.7816 0.419,9.6642 -0.318,4.6449 -0.246,5.4606 0.756,8.5472 0.78,2.4024 1.018,3.9459 0.804,5.2149 -0.233,1.3755 -0.08,2.1841 0.688,3.4105 0.701,1.1325 0.995,2.402 0.995,4.2942 0,2.229 0.243,3.0221 1.428,4.6587 1.179,1.6283 1.428,2.4339 1.428,4.6193 0,2.3536 0.177,2.8336 1.603,4.3338 1.824,1.9183 2.683,4.0879 2.683,6.7776 0,1.0185 0.429,2.6931 0.952,3.72 0.524,1.0275 0.953,2.1637 0.953,2.5266 0,0.363 0.864,1.9958 1.919,3.6292 1.115,1.7245 2.205,4.1941 2.601,5.8894 0.582,2.496 1.022,3.2331 3.029,5.0811 1.726,1.589 2.538,2.7926 3.066,4.5429 1.322,4.3797 2.751,7.0788 4.576,8.6412 2.291,1.9611 5.526,6.9384 6.218,9.5657 0.402,1.5277 1.063,2.4219 2.741,3.7024 1.217,0.9285 2.897,2.7075 3.736,3.953 0.839,1.245 2.355,2.8441 3.369,3.5526 1.014,0.708 2.36,2.0499 2.99,2.9812 0.63,0.9315 1.978,2.3523 2.995,3.1577 1.017,0.8055 2.262,2.2744 2.767,3.2647 0.627,1.23 1.585,2.1233 3.024,2.82 1.208,0.585 2.664,1.8243 3.414,2.906 0.718,1.038 2.327,2.5138 3.573,3.2806 1.246,0.7665 2.844,2.1521 3.55,3.0786 0.707,0.927 1.746,1.8308 2.309,2.0096 0.562,0.1785 2.117,1.3905 3.453,2.6917 2.127,2.0718 4.936,3.7992 13.474,8.2854 2.002,1.053 3.217,1.8989 8.866,6.1811 1.805,1.368 3.283,2.0709 4.854,2.3062 3.179,0.477 8.113,3.116 10.591,5.6657 2.322,2.3893 3.559,2.8275 8.136,2.8822 2.379,0.03 3.433,0.2775 4.554,1.077 0.801,0.5715 2.055,1.1895 2.784,1.3725 0.731,0.183 2.273,1.0545 3.428,1.9367 1.155,0.882 2.642,1.6036 3.303,1.6036 0.661,0 1.971,0.321 2.911,0.714 1.07,0.447 3.249,0.7155 5.819,0.717 3.532,0 4.377,0.168 6.014,1.176 1.145,0.705 2.644,1.179 3.754,1.188 1.017,0.01 2.559,0.4545 3.428,0.99 1.35,0.834 2.498,0.9945 7.914,1.1025 5.413,0.105 6.88,0.312 10.077,1.4025 2.058,0.702 3.923,1.164 4.143,1.0275 0.221,-0.135 1.707,0.192 3.302,0.729 2.254,0.759 3.56,0.912 5.858,0.6855 1.665,-0.1635 3.479,-0.075 4.149,0.1965 1.666,0.6825 2.193,0.6555 5.093,-0.258 z m 8.672,-18.9249 c -0.651,-0.651 -9.203,-1.758 -14.718,-1.9056 -3.536,-0.09 -7.072,-0.4305 -7.858,-0.747 -0.786,-0.3165 -3.969,-0.669 -7.074,-0.7815 -4.989,-0.183 -6.124,-0.3915 -9.763,-1.8034 -4.365,-1.6931 -6.232,-2.0952 -11.999,-2.5853 -2.237,-0.1905 -4.096,-0.633 -4.92,-1.1745 -0.729,-0.4785 -2.508,-1.1775 -3.954,-1.5541 -1.446,-0.3765 -3.083,-1.0035 -3.639,-1.392 -0.557,-0.39 -1.57,-0.708 -2.253,-0.708 -0.684,0 -2.272,-0.522 -3.531,-1.158 -1.258,-0.6375 -3.301,-1.401 -4.539,-1.6986 -1.564,-0.375 -2.809,-1.1115 -4.08,-2.4132 -1.448,-1.482 -2.182,-1.8738 -3.519,-1.8759 -3.123,-0.01 -5.123,-0.885 -7.089,-3.1188 -1.373,-1.56 -2.52,-2.3286 -4.236,-2.838 -1.294,-0.384 -3.243,-1.344 -4.332,-2.1329 -1.089,-0.789 -3.028,-1.8322 -4.308,-2.3188 -1.281,-0.486 -4.152,-2.0856 -6.381,-3.5535 -3.03,-1.9952 -4.421,-3.2681 -5.513,-5.0424 -1.185,-1.9257 -1.78,-2.4335 -3.154,-2.6912 -2.35,-0.441 -7.184,-3.7984 -8.45,-5.8696 -1.613,-2.6378 -5.47,-6.5556 -9.425,-9.5747 -1.966,-1.5003 -3.866,-3.2716 -4.222,-3.9361 -0.355,-0.6645 -1.255,-1.6581 -1.998,-2.208 -0.744,-0.5505 -2.361,-2.8106 -3.593,-5.0237 -1.548,-2.7793 -2.64,-4.189 -3.532,-4.5586 -1.877,-0.777 -4.08,-3.2555 -5.033,-5.6622 -0.959,-2.4204 -3.312,-6.207 -5.369,-8.6418 -0.785,-0.9285 -2.197,-3.5006 -3.137,-5.715 -0.941,-2.2146 -2.022,-4.5622 -2.402,-5.217 -0.38,-0.6555 -1.1,-2.0479 -1.599,-3.0957 -0.499,-1.0485 -1.564,-2.7228 -2.366,-3.7222 -0.885,-1.1025 -1.692,-2.8832 -2.052,-4.5243 -0.325,-1.4895 -1.101,-3.4865 -1.721,-4.4388 -0.716,-1.098 -1.368,-3.215 -1.786,-5.7908 -0.361,-2.2326 -1.191,-5.112 -1.842,-6.3987 -1.371,-2.7061 -2.685,-7.4343 -2.685,-9.6658 0,-0.8475 -0.457,-2.2824 -1.017,-3.1875 -0.882,-1.4265 -0.976,-2.0817 -0.712,-4.9308 0.28,-3.0201 0.186,-3.5385 -1.176,-6.422 -1.302,-2.7567 -1.443,-3.4464 -1.163,-5.6922 0.234,-1.8739 0.135,-2.8489 -0.379,-3.6567 -1.319,-2.0793 -1.397,-3.9588 -0.276,-6.5658 l 1.051,-2.4444 -1.092,-2.3302 c -0.906,-1.9356 -1.035,-2.7581 -0.754,-4.8563 0.577,-4.3231 0.66,-10.0461 0.178,-12.4173 -0.352,-1.7377 -0.288,-2.8567 0.273,-4.7625 0.404,-1.3695 0.866,-3.777 1.028,-5.3487 0.162,-1.5715 0.469,-4.572 0.685,-6.6675 0.554,-5.3823 1.594,-9.7141 2.818,-11.742 0.719,-1.191 0.956,-2.1253 0.746,-2.9571 -0.405,-1.6125 0.675,-7.7176 1.747,-9.8827 0.469,-0.9465 1.105,-2.7252 1.414,-3.9515 0.309,-1.2255 1.406,-3.5362 2.438,-5.1334 2.709,-4.1903 3.714,-7.0568 3.714,-10.5878 0,-2.7244 0.185,-3.3006 1.867,-5.8192 1.026,-1.5375 2.022,-3.4371 2.212,-4.2215 0.19,-0.7845 0.957,-2.6521 1.705,-4.1508 0.748,-1.4985 1.36,-3.0663 1.36,-3.4836 0,-1.9224 2.109,-5.4825 4.384,-7.4008 2.281,-1.9233 5.137,-6.6641 5.143,-8.5364 0,-1.062 1.498,-3.2955 3.857,-5.7604 3.434,-3.5886 5.533,-6.3333 6.363,-8.3204 0.43,-1.0305 1.278,-2.4094 1.885,-3.0642 0.606,-0.6555 1.907,-2.4765 2.891,-4.0482 0.984,-1.5715 2.823,-4.0362 4.087,-5.4768 3.961,-4.5148 6.793,-7.6164 9.06,-9.9198 1.204,-1.224 2.523,-2.8713 2.931,-3.6616 0.408,-0.7905 3.719,-4.4337 7.356,-8.0963 5.003,-5.0382 7.362,-7.0495 9.689,-8.2624 1.692,-0.882 4.041,-2.5434 5.219,-3.6924 1.179,-1.149 3.429,-3.3567 5.001,-4.9061 1.571,-1.5495 3.39,-2.9725 4.042,-3.1623 1.153,-0.336 2.207,-1.1085 7.305,-5.3589 1.357,-1.131 3.404,-2.3071 4.556,-2.6172 1.585,-0.426 2.36,-0.987 3.197,-2.3133 1.719,-2.7235 3.923,-4.1026 8.296,-5.191 4.939,-1.23 5.885,-1.716 9.17,-4.718 1.446,-1.3215 3.528,-2.7201 4.625,-3.1074 1.098,-0.387 2.673,-1.2765 3.501,-1.9756 1.7,-1.437 6.078,-3.5027 7.422,-3.5027 0.489,0 2.062,-0.6165 3.493,-1.368 1.431,-0.753 3.756,-1.7428 5.168,-2.2003 1.411,-0.4575 4.018,-1.4595 5.793,-2.2262 1.775,-0.7665 4.819,-1.8013 6.765,-2.299 1.946,-0.498 4.03,-1.2225 4.632,-1.611 1.222,-0.7905 12.176,-3.63 13.999,-3.63 0.645,0 1.97,-0.339 2.944,-0.7545 0.973,-0.4155 3.117,-0.951 4.762,-1.191 1.645,-0.24 4.264,-0.972 5.82,-1.6269 3.06,-1.2885 5.728,-1.4835 9.424,-0.6915 1.992,0.4275 2.687,0.3585 4.804,-0.4755 1.362,-0.537 3.228,-0.975 4.148,-0.975 0.92,0 2.338,-0.3435 3.152,-0.765 1.179,-0.609 2.259,-0.699 5.334,-0.444 3.544,0.2955 4.029,0.225 5.999,-0.864 2.24,-1.2405 2.665,-1.257 15.954,-0.669 0.786,0.03 2.822,0.01 4.524,-0.06 4.578,-0.186 12.289,0.4245 14.969,1.185 1.292,0.366 3.074,0.666 3.961,0.666 0.886,0 2.08,0.252 2.652,0.561 0.589,0.318 3.414,0.6015 6.517,0.6555 9.633,0.168 13.897,0.753 15.754,2.1652 1.353,1.0275 2.351,1.296 5.885,1.5798 4.349,0.3495 10.432,2.0918 12.651,3.6239 0.655,0.4515 1.941,0.978 2.857,1.17 0.917,0.192 2.31,0.726 3.096,1.188 0.786,0.462 2.16,0.975 3.053,1.143 0.892,0.1665 3.572,1.071 5.953,2.0082 3.894,1.533 5.847,2.3925 12.502,5.503 1.091,0.51 3.078,2.0049 4.417,3.3234 2.169,2.1353 2.742,2.4404 5.245,2.7942 4.22,0.597 7.988,3.1533 11.008,7.4696 0.399,0.57 2.603,1.9461 4.897,3.0573 2.538,1.2285 4.553,2.556 5.146,3.3877 0.535,0.7515 1.926,1.8153 3.091,2.3628 2.428,1.1415 12.934,11.2425 14.161,13.6154 0.45,0.8715 1.623,1.957 2.714,2.5137 1.248,0.636 2.371,1.7503 3.205,3.1777 0.707,1.209 2.684,3.6183 4.396,5.3543 1.849,1.8753 3.637,4.2663 4.407,5.8915 0.712,1.5045 2.441,4.0865 3.842,5.7377 1.401,1.6513 2.7,3.615 2.888,4.3636 0.188,0.7485 1.63,3.0503 3.204,5.1143 1.575,2.064 3.09,4.4329 3.367,5.2644 0.278,0.831 1.031,2.2201 1.675,3.0862 0.708,0.9525 1.309,2.6001 1.521,4.1714 0.21,1.5475 0.746,3.0277 1.325,3.664 1.521,1.6703 2.044,2.9858 2.044,5.1453 0,1.338 0.462,2.8058 1.401,4.4466 1.889,3.3026 4.313,10.6809 4.313,13.1294 0,1.428 0.402,2.5702 1.427,4.0609 1.789,2.6009 2.246,3.8027 2.837,7.4717 0.324,2.0095 0.312,3.567 -0.03,4.9507 -0.459,1.824 -0.387,2.226 0.748,4.1639 1.007,1.7173 1.244,2.6994 1.188,4.9251 -0.05,1.5291 0.189,5.1375 0.504,8.0188 0.537,4.9068 0.615,7.0578 0.492,13.5732 -0.03,1.44 -0.03,4.3727 0,6.5157 0.05,2.8079 -0.177,4.3847 -0.776,5.6448 -0.723,1.5242 -0.753,2.0456 -0.237,4.0623 0.501,1.9535 0.476,2.7204 -0.166,4.9277 -0.464,1.5946 -0.738,4.2012 -0.702,6.6841 0.06,3.7895 -0.05,4.2293 -1.422,6.3761 -0.866,1.3485 -1.479,2.9374 -1.479,3.8272 0,0.837 -0.312,2.2662 -0.692,3.1764 -0.457,1.0935 -0.597,2.4524 -0.412,4.0064 0.327,2.7607 -0.461,6.3039 -1.827,8.2233 -1.092,1.5339 -2.454,7.2319 -2.091,8.7469 0.347,1.4445 -0.462,3.8498 -2.301,6.8505 -0.888,1.449 -1.758,3.3044 -1.933,4.1234 -0.175,0.819 -0.843,2.2 -1.485,3.069 -0.784,1.0635 -1.165,2.2104 -1.165,3.5073 0,1.7515 -0.428,2.8561 -3.942,10.1674 -0.288,0.5985 -1.223,1.5197 -2.076,2.0477 -0.855,0.528 -1.697,1.431 -1.873,2.0077 -0.338,1.107 -2.158,5.1861 -4.61,10.3349 -0.812,1.7025 -2.197,3.864 -3.08,4.803 -0.882,0.939 -2.204,2.9751 -2.937,4.5244 -0.767,1.6181 -3.378,5.195 -6.137,8.4045 -2.642,3.0732 -4.956,6.0735 -5.141,6.6675 -0.186,0.594 -0.857,1.6998 -1.49,2.4574 -0.633,0.7575 -1.683,2.4258 -2.332,3.707 -0.68,1.341 -1.967,2.8788 -3.033,3.6231 -1.018,0.711 -2.284,2.0437 -2.811,2.9605 -1.239,2.1546 -4.717,5.528 -6.318,6.1293 -0.78,0.2925 -1.641,1.275 -2.286,2.6082 -1.305,2.6966 -4.139,5.3214 -8.486,7.8602 -3.505,2.0472 -5.086,3.4465 -8.605,7.6174 -1.439,1.7043 -2.632,2.6078 -3.982,3.012 -1.21,0.363 -2.394,1.1865 -3.184,2.2161 -2.926,3.8135 -4.041,4.8291 -6.161,5.6162 -1.232,0.4575 -3.216,1.7254 -4.407,2.8185 -1.313,1.203 -3.191,2.3226 -4.763,2.8375 -4.062,1.3305 -7.167,3.041 -9.564,5.2686 -1.275,1.185 -3.024,2.2706 -4.145,2.5725 -1.391,0.375 -2.452,1.1475 -3.748,2.729 -1.308,1.597 -2.86,2.721 -5.617,4.0677 -2.096,1.023 -4.766,2.3821 -5.935,3.0195 -1.169,0.6375 -2.694,1.158 -3.389,1.158 -0.694,0 -1.774,0.3945 -2.399,0.8775 -4.574,3.5328 -6.244,4.3614 -8.793,4.3614 -1.995,0 -3.2,0.3525 -5.542,1.6189 -1.647,0.891 -3.526,1.7784 -4.178,1.973 -0.651,0.195 -1.937,0.8475 -2.857,1.4505 -0.92,0.603 -3.495,1.5576 -5.721,2.1211 -2.227,0.564 -5.729,1.7748 -7.782,2.6916 -2.896,1.293 -4.178,1.62 -5.715,1.458 -1.176,-0.12 -2.54,0.075 -3.354,0.4755 -1.216,0.6075 -4.734,1.3065 -12.439,2.4753 -1.309,0.1995 -3.409,0.8355 -4.665,1.416 -1.867,0.8625 -3.039,1.0395 -6.429,0.972 -3.817,-0.075 -7.028,0.2475 -14.623,1.4745 -1.572,0.2535 -6.501,0.4905 -10.954,0.528 -5.407,0.045 -8.709,0.279 -9.942,0.708 -1.695,0.591 -7.962,0.915 -8.44,0.438 z m 14.547,-19.0939 c 1.887,-1.1055 2.534,-1.2045 8.129,-1.2465 4.796,-0.03 6.498,-0.231 8.062,-0.9225 1.483,-0.6555 3.593,-0.936 8.386,-1.1085 5.219,-0.189 6.753,-0.414 8.29,-1.2105 2.077,-1.0755 6.858,-1.341 9.061,-0.504 1.435,0.546 3.565,-0.405 6.52,-2.9096 1.511,-1.2795 2.083,-1.4715 4.167,-1.3905 1.329,0.045 3.006,0.105 3.726,0.12 2.704,0.075 6.359,-1.092 9.263,-2.9418 4.738,-3.0193 7.609,-4.3023 9.668,-4.3206 1.338,-0.012 2.677,-0.5085 4.502,-1.6714 1.499,-0.9555 3.211,-1.6556 4.048,-1.6568 0.813,-10e-4 2.393,-0.6285 3.594,-1.4265 1.179,-0.7845 2.894,-1.5492 3.81,-1.7008 2.761,-0.456 4.26,-1.209 5.289,-2.655 1.176,-1.6524 2.843,-2.5622 5.504,-3.0041 1.09,-0.1815 2.337,-0.723 2.772,-1.203 0.435,-0.4815 1.409,-1.1295 2.163,-1.443 0.754,-0.312 1.707,-1.08 2.117,-1.7067 0.411,-0.627 1.774,-1.6596 3.03,-2.296 1.255,-0.636 2.576,-1.5095 2.933,-1.94 0.978,-1.179 3.115,-2.1489 4.732,-2.1489 1.05,0 1.865,-0.4665 3,-1.7187 0.858,-0.945 3.167,-2.5354 5.132,-3.5338 2.614,-1.329 4.593,-2.8523 7.381,-5.6825 2.096,-2.127 4.668,-4.3786 5.715,-5.0038 1.047,-0.6255 2.863,-2.3498 4.034,-3.8325 1.17,-1.4835 2.745,-3.015 3.499,-3.4047 0.754,-0.39 3.045,-2.3919 5.091,-4.4492 2.046,-2.0572 4.597,-4.294 5.669,-4.9705 1.072,-0.6765 1.948,-1.4745 1.948,-1.7744 0,-1.2255 2.606,-3.8207 5.657,-5.6335 4.159,-2.4709 4.941,-3.3889 6.017,-7.0656 0.714,-2.4417 1.304,-3.3939 3.09,-5.0005 1.214,-1.092 3.693,-4.3089 5.509,-7.1496 1.816,-2.8409 4.105,-6.1221 5.087,-7.2918 0.983,-1.17 1.786,-2.4053 1.786,-2.7458 0,-0.3405 0.573,-1.452 1.274,-2.4712 0.7,-1.0185 2.255,-3.7814 3.453,-6.1388 1.199,-2.3574 2.737,-5.0362 3.419,-5.953 0.681,-0.9165 1.572,-2.6313 1.978,-3.81 3.226,-9.3411 3.586,-10.1742 5.684,-13.1691 1.793,-2.5598 2.922,-5.9483 3.469,-10.4054 0.585,-4.7692 0.774,-5.406 2.109,-7.0864 1.152,-1.4505 1.323,-2.0243 1.126,-3.7763 -0.172,-1.5265 0.05,-2.5984 0.807,-4.1032 0.572,-1.1205 1.244,-3.3549 1.494,-4.9656 0.251,-1.6106 0.768,-3.8928 1.151,-5.0715 0.411,-1.266 0.897,-5.945 1.189,-11.43 0.579,-10.8759 1.067,-15.582 1.935,-18.6777 0.543,-1.9332 0.516,-2.9666 -0.19,-7.3982 -0.464,-2.9118 -0.797,-7.4392 -0.764,-10.4143 0.05,-4.7405 -0.09,-5.6831 -1.416,-9.4907 -0.811,-2.3251 -1.476,-5.2 -1.477,-6.3886 0,-2.9061 -0.804,-5.6048 -2.207,-7.4444 -0.847,-1.1115 -1.264,-2.4637 -1.553,-5.0352 -0.233,-2.0746 -0.849,-4.3893 -1.502,-5.6473 -0.609,-1.173 -1.263,-3.2034 -1.452,-4.5131 -0.645,-4.4559 -2.135,-8.6397 -3.771,-10.5891 -0.876,-1.044 -1.964,-2.9452 -2.418,-4.2264 -0.455,-1.281 -1.2,-3.4011 -1.659,-4.7107 -0.459,-1.3095 -1.539,-3.1752 -2.401,-4.1457 -0.862,-0.9705 -1.983,-2.5797 -2.491,-3.5762 -0.508,-0.996 -3.109,-4.0602 -5.779,-6.808 -3.209,-3.3017 -5.492,-6.1502 -6.732,-8.3984 -3.117,-5.6517 -9.868,-11.8924 -16.173,-14.95 -4.564,-2.2134 -6.111,-3.0066 -12.105,-6.2078 -2.357,-1.2585 -6.832,-3.1479 -9.945,-4.1974 -4.144,-1.398 -6.039,-2.2973 -7.081,-3.3632 -0.783,-0.801 -1.68,-1.455 -1.995,-1.455 -0.315,0 -1.473,-0.771 -2.574,-1.7142 -1.166,-0.9975 -3.181,-2.0707 -4.821,-2.5674 -1.55,-0.4695 -3.42,-1.275 -4.155,-1.7907 -0.825,-0.579 -2.478,-1.0365 -4.314,-1.197 -1.94,-0.1695 -3.682,-0.6735 -5.001,-1.446 -1.113,-0.6525 -2.981,-1.443 -4.15,-1.7578 -1.17,-0.315 -2.645,-0.981 -3.279,-1.479 -0.761,-0.5985 -1.911,-0.906 -3.386,-0.906 -1.341,0 -4.124,-0.669 -6.96,-1.6742 -4.34,-1.5369 -4.903,-1.6302 -6.871,-1.1385 -1.774,0.444 -2.635,0.3915 -5,-0.303 -1.572,-0.462 -4.572,-0.8625 -6.668,-0.8895 -2.291,-0.03 -4.279,-0.315 -4.987,-0.7155 -0.648,-0.366 -1.924,-0.636 -2.837,-0.603 -0.913,0.03 -2.713,-0.2505 -4.001,-0.633 -1.289,-0.3825 -2.583,-0.543 -2.878,-0.3585 -0.567,0.357 -8.111,0.7095 -11.729,0.549 -9.584,-0.426 -20.906,0.2805 -23.846,1.4895 -2.642,1.086 -10.912,2.7621 -13.539,2.7438 -2.165,-0.015 -7.818,1.467 -10.097,2.6472 -0.838,0.4335 -2.553,0.7965 -3.81,0.807 -3.519,0.03 -7.32,1.119 -9.685,2.7861 -1.551,1.0935 -3.058,1.6544 -5.443,2.0258 -3.633,0.5655 -9.955,2.8911 -11.447,4.2108 -1.661,1.47 -2.962,1.9141 -5.609,1.9141 -2.034,0 -2.768,0.2145 -3.484,1.02 -1.166,1.311 -4.337,2.7663 -6.054,2.7798 -0.888,0.01 -2.326,0.816 -4.286,2.4128 -1.623,1.3215 -4.261,3.0331 -5.864,3.8041 -1.602,0.771 -3.164,1.7046 -3.471,2.0744 -0.308,0.3705 -1.782,1.155 -3.278,1.7448 -1.495,0.5895 -3.734,1.9071 -4.974,2.9271 -1.241,1.02 -3.383,2.2336 -4.763,2.6967 -3.077,1.0335 -7.432,3.7981 -10.604,6.7338 -3.546,3.2811 -4.931,4.2313 -6.966,4.7793 -1.405,0.378 -2.29,1.104 -3.738,3.0631 -2.301,3.1158 -3.341,3.8865 -6.489,4.808 -2.194,0.642 -2.482,0.8895 -2.982,2.559 -0.569,1.8952 -3.35,4.7937 -4.601,4.7937 -0.381,0 -1.255,0.9105 -1.943,2.0239 -1.856,3.002 -4.904,6.0062 -7.383,7.2761 -1.414,0.7245 -2.402,1.6287 -2.782,2.5461 -0.324,0.783 -1.534,2.2822 -2.689,3.3328 -1.155,1.05 -2.099,2.3226 -2.099,2.8265 0,1.4685 -1.671,3.1966 -5.201,5.3743 -2.112,1.3035 -3.635,2.6423 -4.25,3.7361 -0.526,0.9375 -1.535,2.239 -2.24,2.8917 -0.705,0.6525 -1.675,2.0911 -2.154,3.1965 -0.48,1.1055 -1.737,2.9481 -2.795,4.095 -1.956,2.1228 -2.964,4.0725 -4.134,7.9963 -0.36,1.2075 -1.297,3.0045 -2.084,3.9945 -0.786,0.99 -1.427,2.0382 -1.424,2.3297 0,0.291 -0.727,2.0299 -1.625,3.8635 -0.897,1.8336 -2.18,4.5125 -2.85,5.9532 -0.671,1.44 -2.184,3.6503 -3.365,4.9101 -1.238,1.32 -2.36,3.0813 -2.649,4.1561 -0.276,1.026 -1.353,2.8476 -2.392,4.0483 -1.811,2.0931 -1.89,2.3204 -1.89,5.4942 0,3.6707 -1.362,9.269 -2.743,11.2808 -2.077,3.0246 -4.082,10.4151 -3.971,14.6398 0.05,1.5717 -0.236,3.7148 -0.614,4.7625 -0.379,1.047 -0.934,3.3977 -1.236,5.222 -0.301,1.8243 -0.961,4.4958 -1.468,5.9365 -1.134,3.2252 -1.154,4.7273 -0.105,7.6877 0.699,1.9662 0.733,2.6244 0.238,4.4761 -0.319,1.194 -0.58,3.8778 -0.58,5.9643 0,2.3645 -0.287,4.5101 -0.761,5.6955 -0.721,1.8035 -0.711,1.983 0.203,3.4625 0.531,0.858 1.332,3.0243 1.781,4.8133 0.687,2.735 0.735,3.8336 0.304,6.9009 -0.469,3.3488 -0.432,3.7766 0.456,5.2151 0.533,0.8625 1.253,2.7928 1.6,4.291 1.75,7.5576 3.417,12.2159 5.213,14.57 1.392,1.8244 4.583,10.6752 5.264,14.5986 0.168,0.9645 1.422,3.1918 2.947,5.2339 1.955,2.6162 2.829,4.2986 3.314,6.3746 0.997,4.2772 3.198,8.443 6.853,12.9751 3.109,3.8542 3.305,4.2394 3.305,6.4951 0,2.2161 0.15,2.5277 1.965,4.1079 1.08,0.9405 2.956,2.7018 4.167,3.914 1.21,1.212 2.901,2.5584 3.755,2.9914 0.853,0.4335 2.335,1.9661 3.292,3.4068 1.467,2.2101 2.267,2.8703 5.115,4.2227 1.856,0.882 4.068,2.3659 4.916,3.2985 0.907,0.999 2.308,1.9021 3.409,2.1985 1.758,0.474 3.26,1.8411 5.356,4.8761 0.429,0.6225 2.573,2.1711 4.763,3.442 2.189,1.2705 4.945,2.9048 6.124,3.6308 1.179,0.726 4.179,2.1093 6.668,3.0739 2.488,0.9645 5.81,2.469 7.381,3.3431 1.694,0.942 5.282,2.2092 8.811,3.1116 3.274,0.837 6.748,1.9224 7.72,2.4117 0.972,0.489 2.174,0.8895 2.672,0.8895 0.498,0 1.739,0.5835 2.758,1.2975 1.556,1.0905 2.385,1.3065 5.186,1.3575 2.633,0.045 3.843,0.3315 5.759,1.3515 2.536,1.3485 4.073,1.5366 8.079,0.9855 2.007,-0.276 2.95,-0.12 5.647,0.963 2.363,0.945 3.707,1.2195 4.977,1.017 0.957,-0.153 2.809,0 4.117,0.3375 1.308,0.339 2.913,0.4605 3.568,0.273 2.274,-0.654 4.978,-0.447 6.533,0.4995 1.519,0.9255 1.55,0.927 3.571,0.01 2.736,-1.242 3.872,-1.1685 7.517,0.483 1.702,0.771 3.379,1.4085 3.725,1.416 0.347,0.01 1.552,-0.528 2.68,-1.188 z m 143.376,-89.1588 c -1.93,-0.483 -3.726,-2.2525 -4.92,-4.8466 -2.744,-5.9592 -0.899,-11.0214 5.45,-14.9522 1.566,-0.9705 2.063,-1.6287 2.482,-3.291 0.556,-2.2113 1.895,-3.7482 4.652,-5.343 1.284,-0.7425 1.971,-1.6558 2.801,-3.7264 1.088,-2.7111 2.527,-4.7184 6.169,-8.5991 1.505,-1.6039 1.941,-2.4931 2.229,-4.552 0.542,-3.8658 2.528,-5.5272 10.299,-8.615 2.257,-0.897 2.645,-0.927 4.109,-0.315 1.275,0.5325 1.794,1.164 2.455,2.9864 0.461,1.2705 1.344,3.3706 1.963,4.6663 0.619,1.296 1.12,2.903 1.114,3.5718 -0.01,1.6935 -1.491,4.772 -3.249,6.7748 -0.815,0.927 -2.141,3.157 -2.947,4.9545 -0.914,2.0349 -2.445,4.294 -4.059,5.9863 -1.427,1.4955 -2.593,2.94 -2.593,3.2111 0,0.2715 -0.958,1.6707 -2.131,3.1098 -1.173,1.44 -3.048,4.2736 -4.167,6.2986 -2.638,4.7709 -6.179,8.351 -9.499,9.6045 -1.397,0.5265 -3.717,1.5113 -5.158,2.187 -2.62,1.2285 -3.218,1.335 -5,0.8895 z m 31.685,-78.3652 c -0.647,-0.327 -1.684,-1.3425 -2.303,-2.2553 -1.061,-1.5612 -1.115,-1.9854 -0.921,-7.1367 0.156,-4.1409 0.52,-6.5151 1.494,-9.7332 0.708,-2.341 1.474,-6.3057 1.701,-8.8107 0.228,-2.5048 0.773,-5.8165 1.211,-7.3594 0.637,-2.2448 0.693,-3.1965 0.28,-4.7625 -0.283,-1.077 -0.523,-3.4575 -0.532,-5.2911 -0.01,-1.8336 -0.03,-4.2981 -0.05,-5.4768 -0.01,-1.179 0.01,-3.3422 0.06,-4.8074 0.06,-1.7532 -0.197,-3.2143 -0.743,-4.2726 -0.457,-0.885 -1.009,-3.0075 -1.225,-4.7176 -1.071,-8.4512 -1.164,-8.8182 -2.795,-11.189 -1.979,-2.8762 -2.819,-5.1288 -2.85,-7.6366 -0.01,-1.7876 -0.372,-2.5578 -2.567,-5.6457 -0.485,-0.6825 -1.085,-2.1395 -1.331,-3.2379 -0.247,-1.098 -1.404,-3.3635 -2.571,-5.0331 -1.167,-1.6697 -2.122,-3.2324 -2.122,-3.4727 0,-0.24 -0.643,-1.17 -1.431,-2.0659 -0.786,-0.8955 -1.775,-2.4572 -2.196,-3.4694 -0.422,-1.0125 -1.619,-2.767 -2.661,-3.8997 -3.883,-4.2223 -4.561,-8.0893 -2.322,-13.249 0.9,-2.073 1.371,-2.5674 3.066,-3.2147 3.324,-1.269 5.732,-1.0065 9.053,0.99 5.823,3.5001 7.471,5.3403 8.877,9.9131 0.322,1.0485 1.176,2.5479 1.898,3.3337 0.722,0.786 1.608,1.9881 1.968,2.6718 0.36,0.684 1.351,2.1624 2.202,3.2862 0.915,1.2075 1.548,2.6039 1.548,3.4146 0,1.0035 0.642,2.0315 2.395,3.8307 1.317,1.353 2.527,3.0069 2.687,3.6767 0.161,0.669 0.696,2.025 1.191,3.0118 0.495,0.987 1.103,2.8713 1.353,4.1879 0.249,1.317 1.044,3.1671 1.765,4.1121 1.2,1.5735 1.332,2.1669 1.563,7.0401 0.232,4.9053 0.354,5.4417 1.543,6.8548 1.893,2.2508 2.52,4.7441 1.856,7.382 -0.805,3.1989 -0.673,4.3956 0.731,6.6193 1.739,2.7546 1.931,5.5556 0.645,9.3695 -0.914,2.706 -0.968,3.3144 -0.455,5.1469 0.461,1.6466 0.458,2.5952 -0.01,4.5663 -0.433,1.8057 -0.462,2.9763 -0.105,4.2683 0.33,1.197 0.336,2.2845 0.01,3.3186 -0.261,0.846 -0.658,3.0432 -0.882,4.8819 -0.223,1.8388 -0.775,4.3033 -1.227,5.4769 -0.553,1.44 -0.787,3.2447 -0.718,5.5487 0.12,4.0368 -0.569,5.6923 -3.175,7.6201 -0.983,0.726 -3.246,2.5595 -5.029,4.0727 -2.951,2.5051 -3.442,2.751 -5.477,2.7445 -1.23,0 -2.764,-0.2745 -3.411,-0.6015 z"
       id="vctrly-chalky-icon-magnifier-glass" /></g></svg>
