<?xml version="1.0" encoding="UTF-8" standalone="no"?>
<svg
   width="1344.8743"
   height="3533.0381"
   viewBox="0 0 1344.8743 3533.0381"
   version="1.1"
   xml:space="preserve"
   style="clip-rule:evenodd;fill-rule:evenodd;stroke-linecap:round;stroke-linejoin:round;stroke-miterlimit:1.5"
   id="svg1780"
   xmlns="http://www.w3.org/2000/svg"
   xmlns:svg="http://www.w3.org/2000/svg"><defs
   id="defs1780" />
    <g
   id="vctrly-notion-draft-paper-man-business-plan-planning"
   transform="matrix(2.0003049,0,0,2.0006295,-29073.407,-7950.686)"
   style="stroke-width:9.99766;stroke-dasharray:none"><path
     d="m 14736.298,4722.961 c 5.1,-3.34 8.7,-5.64 10.1,-6.24 10.7,-4.47 42.3,-8.81 82.8,-12.18 0.8,1.76 1.5,3.33 2,4.69 11.2,43.7 20.9,82.33 21.8,87.73 1.9,12.07 30.4,25.17 63.6,17.47 36.2,-8.39 47.1,-24.9 42.1,-31.46 -2.3,-3.91 -5.4,-9.51 -9.3,-16.56 6.4,-3.64 22.7,-21.65 16.2,-30.24 -8.9,-11.64 -18.2,-24.37 -27.3,-37.49 46.4,-1.26 91.7,-0.91 123.9,1.87 0,0 -78.1,35.73 -73.6,48.14 0.9,2.33 13.3,-0.69 28.2,-5.26 -14.6,7.72 -25.6,23.17 -13.5,22.98 1.2,-0.02 4.1,-0.58 8.1,-1.49 -7.3,3.77 -15.7,17.88 -7.6,15.35 8.1,-2.54 63.6,-17.42 63.6,-17.42 0,0 -57.8,28.26 -56.3,37.06 1.1,6.36 30.2,-4.02 48.8,-11.36 2.8,38.96 26.5,605.53 21.5,804.52 -0.5,21.96 -202.1,22.97 -203.2,0.25 -1.1,-22.72 9.5,-350.24 1.5,-425.57 -3.4,17.91 -46.1,412.48 -48.5,438.88 -2.3,26.39 -201.4,-3.48 -201.8,-29.06 -3.2,-184.09 98.4,-816.04 106.9,-854.61 z"
     id="path49"
     style="stroke-width:9.99766;stroke-dasharray:none" /><path
     d="m 14825.498,4127.381 c -31.7,-67.62 -4.4,-122.2 38.2,-102.79 5.2,-42.03 46.4,-37.36 54.2,-26.47 29,-34.81 83.4,-19.36 77.2,25.94 31.3,10.83 49.6,33.92 21.9,55.45 5.2,15.78 2.6,36.63 -0.2,44.82 -5,-2.27 -11.5,-1.4 -17.4,3.08 0.9,-14.58 0.9,-28.51 0.1,-40.75 -36,17.16 -132.2,11.47 -155.4,-0.12 -0.6,12.78 0,28.06 1.8,44.28 -6.2,-3.25 -14.1,-4.94 -20.4,-3.44 z"
     id="path50"
     style="stroke-width:9.99766;stroke-dasharray:none" /><path
     d="m 14933.798,4138.391 c 0.1,9.27 3.4,44.73 2.9,48.19 -0.4,3.46 -3.4,4.64 -3.4,4.64"
     style="fill:none;stroke:#000000;stroke-width:9.99766;stroke-dasharray:none"
     id="path1122" /><path
     d="m 14915.098,4216.711 c 2.4,1.9 15.2,4.34 21.7,0.88"
     style="fill:none;stroke:#000000;stroke-width:9.99766;stroke-dasharray:none"
     id="path1123" /><path
     d="m 14867.998,4112.731 c 2,-2.49 10.6,-7.06 16.7,-5.37"
     style="fill:none;stroke:#000000;stroke-width:9.99766;stroke-dasharray:none"
     id="path1124" /><path
     d="m 14955.398,4106.991 c 3.4,-1.36 13.3,-1.2 16.7,0"
     style="fill:none;stroke:#000000;stroke-width:9.99766;stroke-dasharray:none"
     id="path1125" /><ellipse
     cx="14962.397"
     cy="4139.7412"
     rx="6.9369998"
     ry="11.561"
     id="ellipse1125"
     style="stroke-width:9.99766;stroke-dasharray:none" /><ellipse
     cx="14884.816"
     cy="4142.3828"
     rx="6.9369998"
     ry="11.561"
     id="ellipse1126"
     style="stroke-width:9.99766;stroke-dasharray:none" /><path
     d="m 14844.098,4086.541 c -2.6,61.85 20.6,182.1 81.8,184.84 57.5,2.57 78.1,-116.91 73.6,-184.72 -36,17.16 -132.2,11.47 -155.4,-0.12 z"
     style="fill:none;stroke:#000000;stroke-width:9.99766;stroke-dasharray:none"
     id="path1126" /><path
     d="m 14999.398,4127.411 c 13.1,-10.02 29.4,-1.96 25.4,18.74 -4.8,25.24 -26.6,39.87 -34.2,42.2"
     style="fill:none;stroke:#000000;stroke-width:9.99766;stroke-dasharray:none"
     id="path1127" /><path
     d="m 14845.898,4130.821 c -12.1,-6.41 -31.2,-6.77 -31.1,11.56 0.2,25.86 27.5,42.61 41.5,43.35"
     style="fill:none;stroke:#000000;stroke-width:9.99766;stroke-dasharray:none"
     id="path1128" /><path
     d="m 14825.498,4127.381 c -31.7,-67.62 -4.4,-122.2 38.2,-102.79 5.2,-42.03 46.4,-37.36 54.2,-26.47 29,-34.81 83.4,-19.36 77.2,25.94 31.3,10.83 49.6,33.92 21.9,55.45 5.2,15.78 2.6,36.63 -0.2,44.82"
     style="fill:none;stroke:#000000;stroke-width:9.99766;stroke-dasharray:none"
     id="path1129" /><path
     d="m 14828.398,4413.591 c 9.3,-16.94 56.2,-116.41 62.6,-121.22 6.4,-4.81 -2,67.23 4.4,64.52 6.4,-2.71 26.1,-60.52 36.4,-62.18 10.2,-1.65 38.4,56.27 44,54.35 5.5,-1.92 -4.5,-61.21 4.5,-64.86 9,-3.65 191,341.62 219.7,505.94 9.8,56.28 -20.2,84.45 -89.4,9.75"
     style="fill:none;stroke:#000000;stroke-width:9.99766;stroke-dasharray:none"
     id="path1130" /><ellipse
     cx="14939.698"
     cy="4352.7012"
     rx="7.71"
     ry="9.7410002"
     id="ellipse1130"
     style="stroke-width:9.99766;stroke-dasharray:none" /><ellipse
     cx="14941.182"
     cy="4414.8667"
     rx="7.71"
     ry="9.7410002"
     id="ellipse1131"
     style="stroke-width:9.99766;stroke-dasharray:none" /><path
     d="m 14767.898,4424.611 c -11.6,-33.15 -97.9,-243.23 -103.6,-253.18 -5.8,-9.95 13.7,-14.4 46.5,-30.38 19.9,-9.69 52.1,-27.37 49.3,-39.13 -2.6,-11.24 -48.2,-19.12 -94.6,0.93 -35.3,15.26 -71.5,43.85 -66.5,55.8 5,11.95 63.2,-15.63 77.4,-24.29 14.2,-8.66 41.6,-22.77 38.7,-28.88 -2.9,-6.11 -50.2,13.24 -57.4,17.99"
     style="fill:none;stroke:#000000;stroke-width:9.99766;stroke-dasharray:none"
     id="path1131" /><path
     d="m 14600.198,4160.191 c 14.3,21.55 123.4,235.3 138.1,284.87"
     style="fill:none;stroke:#000000;stroke-width:9.99766;stroke-dasharray:none"
     id="path1132" /><path
     d="m 14805.798,4397.471 c -6.9,-44.91 -46.5,-273.91 -45.6,-292.82"
     style="fill:none;stroke:#000000;stroke-width:9.99766;stroke-dasharray:none"
     id="path1133" /><path
     d="m 14616.098,4219.031 c -23.2,12.82 -83.8,64.03 -75.9,75.4 7.9,11.37 74.2,-44.61 71.9,-50.38 -2.3,-5.77 -30,7.74 -35.5,13.51"
     style="fill:none;stroke:#000000;stroke-width:9.99766;stroke-dasharray:none"
     id="path1134" /><path
     d="m 14540.598,4294.891 c 13.5,18.87 147.4,190.45 159.8,207.87"
     style="fill:none;stroke:#000000;stroke-width:9.99766;stroke-dasharray:none"
     id="path1135" /><path
     d="m 14757.698,4467.651 c 10.7,-11.33 48.5,-56.66 56.8,-52.08 8.2,4.59 -38.2,64.81 -43.5,72.99"
     style="fill:none;stroke:#000000;stroke-width:9.99766;stroke-dasharray:none"
     id="path1136" /><path
     d="m 14790.498,4506.351 c 9.9,-15.2 36.7,-58.55 36.2,-66.68 -0.5,-8.13 -5.6,-7.02 -5.6,-7.02"
     style="fill:none;stroke:#000000;stroke-width:9.99766;stroke-dasharray:none"
     id="path1137" /><path
     d="m 14799.698,4516.521 c 11.2,-15.15 33.4,-45.71 34.4,-52.3 0.9,-6.6 -1.7,-7.54 -1.7,-7.54"
     style="fill:none;stroke:#000000;stroke-width:9.99766;stroke-dasharray:none"
     id="path1138" /><path
     d="m 14741.998,4607.641 c 18.8,-19.09 87.3,-96.46 96.6,-124.08 2.6,-7.78 -1.8,-8.65 -1.8,-8.65"
     style="fill:none;stroke:#000000;stroke-width:9.99766;stroke-dasharray:none"
     id="path1139" /><path
     d="m 14797.098,4577.331 c 7.7,29.35 54,207.56 55.9,219.63 1.9,12.07 30.4,25.17 63.6,17.47 39.1,-9.07 48.7,-27.62 40.5,-32.84 -12.7,-8.21 -75,-9.14 -81.6,7.73 -2.6,6.63 15.2,19.77 42.5,3.35"
     style="fill:none;stroke:#000000;stroke-width:9.99766;stroke-dasharray:none"
     id="path1140" /><path
     d="m 14958.698,4782.971 c -17,-29.62 -87,-156.76 -122.9,-269.31"
     style="fill:none;stroke:#000000;stroke-width:9.99766;stroke-dasharray:none"
     id="path1141" /><path
     d="m 14857.598,4574.331 c 18.1,29.59 66.4,107.61 108,161.84 6.5,8.59 -9.8,26.6 -16.2,30.24"
     style="fill:none;stroke:#000000;stroke-width:9.99766;stroke-dasharray:none"
     id="path1142" /><path
     d="m 14767.098,4604.511 c 11.4,16 56,84.21 64.1,104.72"
     style="fill:none;stroke:#000000;stroke-width:9.99766;stroke-dasharray:none"
     id="path1143" /><path
     d="m 14767.098,4440.171 c -3.5,-3.94 -9,-3.03 -15,5.71 -6,8.74 -42.6,75.98 -48.6,87.55 -6,11.58 -125.9,193.98 -90.4,232.98 26.2,28.73 124,-45.77 133.3,-49.69 10.7,-4.47 42.3,-8.81 82.8,-12.18 m 109.1,-5.86 c 46.4,-1.26 91.7,-0.91 123.9,1.87"
     style="fill:none;stroke:#000000;stroke-width:9.99766;stroke-dasharray:none"
     id="path1144" /><path
     d="m 15071.398,4682.651 c -19.8,-2.15 -62.5,-2.03 -63.5,3.89 -0.9,5.92 54.3,14.01 54.3,14.01 0,0 -78.1,35.73 -73.6,48.14 2.3,6.01 81.2,-23.49 81.2,-23.49"
     style="fill:none;stroke:#000000;stroke-width:9.99766;stroke-dasharray:none"
     id="path1145" /><path
     d="m 15067.398,4749.501 c -14.9,5.03 -58.8,16.83 -64.1,16.91 -12.1,0.19 -1.1,-15.26 13.5,-22.98"
     style="fill:none;stroke:#000000;stroke-width:9.99766;stroke-dasharray:none"
     id="path1146" /><path
     d="m 15011.398,4764.921 c -7.3,3.77 -15.7,17.88 -7.6,15.35 8.1,-2.54 63.6,-17.42 63.6,-17.42 0,0 -57.8,28.26 -56.3,37.06 1.5,8.8 56.5,-14.42 63.5,-17.34 7,-2.92 36.3,-24.89 34,-94.48"
     style="fill:none;stroke:#000000;stroke-width:9.99766;stroke-dasharray:none"
     id="path1147" /><path
     d="m 14753.298,4595.661 c 8.4,28.18 31.1,99.94 13.8,102.58 -16.5,2.54 -54.3,-113.12 -58.3,-174.82"
     style="fill:none;stroke:#000000;stroke-width:9.99766;stroke-dasharray:none"
     id="path1148" /><path
     d="m 14736.298,4722.961 c -8.5,38.57 -110.1,670.52 -106.9,854.61 0.4,25.58 199.5,55.45 201.8,29.06 2.4,-26.4 45.1,-420.97 48.5,-438.88 8,75.33 -2.6,402.85 -1.5,425.57 1.1,22.72 202.7,21.71 203.2,-0.25 5,-198.99 -18.7,-765.56 -21.5,-804.52"
     style="fill:none;stroke:#000000;stroke-width:9.99766;stroke-dasharray:none"
     id="path1149" /><path
     d="m 14785.498,5636.301 c -1.6,11.97 -7.6,30.58 -15.2,35.64 -7.6,5.07 -128.2,58.96 -143.3,55.08 -15.1,-3.88 -9.8,-16.57 2.3,-25.82 19.6,-15.05 74.4,-41.84 90.8,-77.21"
     style="fill:none;stroke:#000000;stroke-width:9.99766;stroke-dasharray:none"
     id="path1150" /><path
     d="m 14892.798,5623.991 c -3.4,13.67 -4.6,29.08 2.2,37.11 6.8,8.03 93.2,85.49 135,72.44 30.1,-9.44 -60.3,-73.29 -64.6,-86.12 -4.3,-12.83 -1.3,-26.63 0.6,-37.57"
     style="fill:none;stroke:#000000;stroke-width:9.99766;stroke-dasharray:none"
     id="path1151" /></g>
</svg>
