<?xml version="1.0" encoding="UTF-8" standalone="no"?>
<!-- Created with Inkscape (http://www.inkscape.org/) -->

<svg
   width="871.3869mm"
   height="573.70099mm"
   viewBox="0 0 871.38694 573.701"
   version="1.1"
   id="svg1"
   xml:space="preserve"
   xmlns="http://www.w3.org/2000/svg"
   xmlns:svg="http://www.w3.org/2000/svg"><defs
     id="defs1" /><g
     id="layer1"
     transform="translate(-4849.2081,-10786.973)"><path
       style="fill:#000000;stroke-width:1"
       d="m 4875.0286,11360.392 c -0.8175,-0.243 -3.1743,-1.373 -5.2388,-2.513 -2.0644,-1.14 -4.5378,-2.441 -5.4963,-2.893 -2.1852,-1.032 -3.1263,-2.069 -4.9248,-5.428 -1.0785,-2.013 -2.1297,-3.14 -4.2862,-4.594 -2.1873,-1.474 -3.1734,-2.54 -4.2044,-4.545 -1.197,-2.329 -1.314,-2.948 -1.059,-5.591 0.159,-1.642 0.03,-4.351 -0.2805,-6.057 -0.4485,-2.434 -0.4425,-3.508 0.03,-5.08 0.828,-2.763 5.5058,-9.288 7.6998,-10.74 0.999,-0.662 2.1537,-1.717 2.5659,-2.346 0.4125,-0.628 1.6551,-1.726 2.762,-2.437 1.107,-0.711 2.6277,-1.79 3.3796,-2.398 0.7515,-0.607 2.0805,-1.402 2.9523,-1.767 1.1925,-0.498 1.9434,-1.372 3.0294,-3.523 0.798,-1.581 2.1956,-3.434 3.1236,-4.142 0.924,-0.705 2.3642,-2.566 3.2012,-4.136 1.2375,-2.323 2.1925,-3.328 5.116,-5.386 4.0941,-2.881 7.9239,-7.024 9.6837,-10.475 0.7695,-1.508 2.1123,-3.046 3.7241,-4.264 1.386,-1.047 3.2817,-2.664 4.2117,-3.592 0.93,-0.928 2.1337,-2 2.6751,-2.381 0.5415,-0.381 1.497,-1.615 2.125,-2.742 0.627,-1.126 1.899,-2.506 2.8257,-3.068 0.927,-0.561 2.9957,-2.318 4.5974,-3.905 2.6977,-2.673 8.817,-8.054 9.9693,-8.768 0.2745,-0.169 1.005,-1.059 1.6225,-1.975 0.618,-0.917 1.8653,-2.452 2.772,-3.412 1.709,-1.809 2.4276,-4.085 2.4675,-7.816 0.015,-1.504 -0.2625,-2.202 -1.2345,-3.096 -2.2989,-2.114 -3.0694,-4.65 -2.9874,-9.83 0.045,-2.563 0.015,-6.374 -0.045,-8.47 -0.183,-6.03 -0.1935,-11.723 -0.03,-14.049 0.09,-1.179 -0.01,-3.43 -0.204,-5.002 -0.2835,-2.275 -0.183,-3.248 0.4905,-4.763 0.4665,-1.047 0.8865,-3.189 0.9345,-4.761 0.06,-1.971 0.4575,-3.595 1.2855,-5.238 0.66,-1.31 1.3485,-3.549 1.5318,-4.975 0.201,-1.568 0.9765,-3.744 1.9598,-5.502 1.083,-1.936 1.7788,-3.983 2.0809,-6.116 0.249,-1.764 0.894,-3.896 1.4295,-4.737 1.02,-1.599 1.1325,-1.826 3.6174,-7.276 1.7358,-3.808 6.6297,-9.808 8.9485,-10.973 0.84,-0.421 2.5982,-1.785 3.908,-3.03 2.1967,-2.089 4.6767,-3.652 10.2393,-6.456 1.179,-0.594 2.6397,-1.656 3.2466,-2.361 0.6075,-0.705 2.2143,-1.774 3.5718,-2.377 3.4824,-1.547 7.3419,-4.231 9.8743,-6.867 1.5363,-1.6 2.8227,-2.44 4.4198,-2.887 1.5148,-0.425 2.5821,-1.094 3.2581,-2.043 0.5535,-0.777 2.1,-2.121 3.4382,-2.987 1.338,-0.867 4.0039,-3.11 5.9238,-4.985 1.9198,-1.875 4.3845,-3.801 5.4768,-4.279 1.092,-0.479 3.165,-2.089 4.6056,-3.578 1.44,-1.489 3.6474,-3.234 4.9039,-3.878 1.257,-0.645 2.4101,-1.498 2.5634,-1.898 0.153,-0.399 1.3755,-1.348 2.716,-2.11 1.341,-0.76 2.8659,-2.048 3.3899,-2.859 1.233,-1.91 4.1323,-3.614 7.308,-4.296 2.2249,-0.477 2.7216,-0.816 4.1928,-2.864 2.1022,-2.926 5.9109,-5.983 8.3725,-6.721 1.107,-0.331 2.2034,-1.072 2.6439,-1.787 1.7814,-2.888 3.6678,-4.33 7.6145,-5.82 2.5465,-0.961 4.2801,-1.923 4.7892,-2.659 2.1715,-3.139 3.585,-4.388 5.8015,-5.124 1.7019,-0.566 2.6118,-1.217 3.3375,-2.391 0.549,-0.888 1.5479,-2.015 2.2203,-2.505 0.915,-0.666 1.323,-1.528 1.6229,-3.422 0.351,-2.222 0.249,-2.85 -0.8295,-5.13 -1.0275,-2.173 -1.1715,-2.962 -0.879,-4.814 0.1935,-1.218 0.3975,-3.823 0.456,-5.788 0.075,-2.717 0.39,-4.141 1.3005,-5.953 2.2638,-4.509 3.729,-11.154 3.7276,-16.907 -9e-4,-3.724 0.8475,-5.772 3.3837,-8.174 1.632,-1.545 2.5485,-2.893 3.0107,-4.428 0.927,-3.079 1.8891,-4.379 4.0653,-5.489 2.248,-1.148 4.4038,-1.215 7.2013,-0.228 3.9507,1.393 5.5685,3.832 7.0976,10.697 1.0785,4.843 0.8505,6.889 -1.0335,9.285 -0.567,0.722 -1.191,2.32 -1.386,3.552 -0.195,1.233 -1.0245,3.296 -1.8441,4.585 -1.0185,1.603 -1.404,2.692 -1.2165,3.443 0.15,0.604 -0.075,2.464 -0.489,4.134 -0.5925,2.36 -0.6495,3.442 -0.2565,4.855 0.636,2.29 0.6585,7.502 0.045,9.654 -0.3225,1.127 -0.3015,2.24 0.075,3.569 0.297,1.062 0.5175,3.829 0.492,6.149 -0.045,3.843 0.105,4.606 1.7409,8.573 0.984,2.395 2.6757,5.747 3.76,7.45 3.311,5.199 2.9301,4.891 5.3613,4.329 4.6578,-1.077 9.3425,-0.207 14.1972,2.638 1.9779,1.159 2.369,1.221 5.5149,0.874 7.0233,-0.774 10.2863,-0.568 13.436,0.846 2.8474,1.278 2.9509,1.289 5.1271,0.548 1.455,-0.495 2.9999,-0.662 4.4759,-0.482 1.2405,0.152 3.9691,0.468 6.0646,0.704 2.0955,0.235 4.656,0.796 5.6901,1.246 1.254,0.546 2.4758,0.723 3.6696,0.533 1.2585,-0.201 2.8902,0.07 5.5016,0.933 3.2626,1.071 4.1865,1.18 7.6249,0.9 3.6585,-0.299 4.0505,-0.239 6.038,0.927 2.44,1.429 3.8562,1.529 7.1946,0.504 2.8791,-0.885 4.4524,-0.647 9.525,1.437 l 3.81,1.565 7.858,-0.09 c 8.4249,-0.105 14.4881,0.784 18.1976,2.657 2.1543,1.088 3.8895,1.127 6.6267,0.15 2.4868,-0.891 5.1522,-0.595 7.4512,0.827 1.467,0.907 1.8276,0.942 4.3083,0.415 2.327,-0.493 3.0077,-0.46 4.85,0.23 6.8365,2.563 6.8016,2.556 15.2725,2.814 6.4481,0.197 9.1526,0.485 12.1119,1.29 3.9165,1.065 4.3223,1.094 8.8502,0.614 2.2227,-0.236 3.1605,-0.07 5.715,1.006 2.974,1.254 3.2412,1.283 9.9616,1.032 7.5953,-0.283 15.466,0.533 19.887,2.062 1.771,0.612 3.2508,0.789 5.0557,0.603 3.3186,-0.342 8.49,0.568 11.4905,2.024 1.8531,0.899 3.9126,1.307 9.2868,1.835 3.7981,0.373 6.9805,0.604 7.0722,0.513 0.4515,-0.45 -1.236,-4.128 -3.1083,-6.775 -3.1154,-4.406 -3.9413,-6.53 -3.9534,-10.167 -0.01,-1.726 -0.333,-4.191 -0.7275,-5.477 -0.3945,-1.285 -0.822,-4.052 -0.9495,-6.148 -0.135,-2.095 -0.3525,-5.78 -0.501,-8.187 -0.2835,-4.615 -3e-4,-5.687 2.328,-8.836 0.903,-1.221 0.9255,-1.51 0.357,-4.374 -0.582,-2.926 -0.5415,-3.316 0.861,-8.456 0.8085,-2.964 1.6956,-6.303 1.9704,-7.419 0.279,-1.136 1.41,-3.147 2.5635,-4.564 2.6655,-3.273 3.2749,-4.452 2.9563,-5.722 -0.3645,-1.453 -2.6245,-2.168 -5.9104,-1.87 -2.8548,0.26 -2.6823,0.315 -8.012,-2.623 -0.8955,-0.493 -1.6683,-0.502 -3.8799,-0.05 -2.3097,0.477 -3.1504,0.45 -5.1304,-0.163 -2.4651,-0.765 -11.3793,-0.836 -16.8936,-0.135 -2.3551,0.3 -2.9005,0.184 -5.4061,-1.14 -2.4068,-1.272 -3.2798,-1.473 -6.4008,-1.473 -1.9877,0 -4.8357,0.252 -6.329,0.561 -2.319,0.478 -3.0204,0.444 -4.807,-0.239 -1.1505,-0.439 -2.835,-0.801 -3.743,-0.804 -0.9075,0 -2.7225,-0.283 -4.0321,-0.624 -1.5894,-0.412 -3.0941,-0.487 -4.5245,-0.223 -3.4042,0.627 -7.4808,-0.354 -10.5559,-2.539 -1.808,-1.284 -4.9271,-1.569 -8.0666,-0.738 -2.3035,0.611 -3.0846,0.618 -5.715,0.06 -1.6758,-0.36 -4.5471,-0.67 -6.3805,-0.691 -1.8336,-0.02 -4.191,-0.374 -5.2388,-0.783 -1.8921,-0.74 -7.9995,-1.687 -11.1919,-1.735 -0.9165,-0.01 -3.3089,0.263 -5.3157,0.614 -3.2748,0.573 -3.9825,0.55 -6.9056,-0.215 -1.7913,-0.468 -4.3284,-1.062 -5.638,-1.317 -1.3095,-0.255 -3.6899,-0.861 -5.289,-1.344 -2.6273,-0.795 -3.1257,-0.813 -5.1677,-0.199 -2.6803,0.807 -5.1433,0.4 -7.425,-1.224 -1.395,-0.993 -1.7142,-1.04 -3.7282,-0.537 -3.066,0.765 -14.5631,-0.02 -18.3951,-1.253 -2.0742,-0.669 -3.6792,-0.858 -5.8547,-0.69 -2.1183,0.164 -3.7941,-0.01 -5.715,-0.633 -1.9489,-0.619 -3.9981,-0.84 -7.2423,-0.781 -3.3007,0.06 -5.2327,-0.153 -7.1437,-0.791 -7.028,-2.345 -7.5443,-2.444 -12.7461,-2.444 -4.6347,0 -5.5485,-0.15 -7.9545,-1.245 -2.5371,-1.161 -2.9019,-1.209 -5.4738,-0.702 -3.2165,0.633 -9.8435,0.05 -12.6183,-1.109 -0.9585,-0.4 -2.8146,-0.87 -4.1232,-1.044 -3.0822,-0.409 -5.0922,-1.807 -6.4269,-4.472 -1.0245,-2.047 -1.188,-2.158 -3.6069,-2.459 -5.5371,-0.69 -8.9231,-1.979 -10.095,-3.843 -0.9735,-1.548 0.5595,-2.302 5.2251,-2.569 2.3328,-0.135 4.6165,-0.234 5.0749,-0.222 0.459,0.01 2.0726,0.06 3.587,0.105 2.4645,0.07 3.0193,-0.09 5.2842,-1.65 2.5233,-1.736 3.0391,-1.927 9.3454,-3.45 5.207,-1.259 6.2775,-1.319 8.7872,-0.498 1.422,0.465 3.9645,0.766 6.454,0.766 3.1631,0 4.6625,0.239 6.5165,1.037 2.1282,0.915 2.6511,0.97 4.5004,0.477 2.8236,-0.755 5.0324,-0.704 7.2095,0.166 1.8124,0.726 8.0526,1.251 13.9267,1.172 2.6007,-0.03 3.5483,0.196 5.8521,1.425 3.2021,1.708 5.771,1.938 11.4534,1.023 2.057,-0.332 4.0929,-0.462 4.5245,-0.293 0.432,0.171 2.6061,0.489 4.8325,0.708 2.511,0.248 4.9523,0.819 6.4295,1.505 2.0347,0.947 3.0345,1.092 6.8719,1.002 2.9081,-0.08 5.3712,0.152 6.9888,0.621 1.5972,0.464 4.0994,0.692 6.9392,0.63 5.0463,-0.105 15.3121,1.136 19.9194,2.413 2.4178,0.671 4.347,0.821 8.8107,0.681 7.3495,-0.228 8.4727,-0.01 10.7599,2.053 l 1.8924,1.709 2.4914,-1.26 c 1.3695,-0.693 2.9167,-1.258 3.4368,-1.257 0.5205,0 3.2751,0.654 6.1221,1.449 2.8471,0.795 7.2405,1.749 9.7632,2.121 2.5227,0.372 5.0662,0.816 5.6524,0.987 0.5985,0.175 1.9065,-0.03 2.9862,-0.456 2.7197,-1.088 4.1514,-0.969 8.5514,0.711 2.7576,1.053 4.3132,1.396 5.3985,1.192 4.5684,-0.859 5.0706,-0.853 8.0217,0.105 3.3078,1.073 11.6284,1.502 15.7432,0.812 1.972,-0.332 2.6131,-0.195 5.3946,1.146 3.0832,1.486 3.2047,1.506 5.2284,0.816 1.722,-0.587 3.264,-0.629 9.1311,-0.249 6.154,0.399 7.3644,0.616 9.4404,1.696 1.9893,1.035 3.165,1.271 7.1437,1.424 10.6643,0.414 9.7769,0.501 12.6206,-1.245 1.44,-0.885 3.5838,-2.5 4.7625,-3.589 1.179,-1.089 2.8932,-2.527 3.81,-3.195 0.9165,-0.668 3.4885,-2.968 5.715,-5.111 2.2264,-2.144 4.9432,-4.555 6.0372,-5.36 1.0935,-0.804 2.6437,-2.277 3.4441,-3.273 0.8175,-1.017 2.5961,-2.351 4.0572,-3.042 1.586,-0.75 2.9316,-1.788 3.4458,-2.659 0.4635,-0.786 1.9311,-2.15 3.2603,-3.033 3.0397,-2.018 11.598,-10.421 13.0468,-12.811 1.9655,-3.24 7.752,-7.337 12.5645,-8.896 1.0005,-0.324 2.1591,-1.147 2.6034,-1.851 1.401,-2.217 7.2999,-8.371 9.0619,-9.454 0.9345,-0.575 2.487,-1.178 3.4509,-1.34 1.392,-0.235 2.3316,-0.949 4.5723,-3.48 1.551,-1.752 3.2045,-3.789 3.6744,-4.527 0.4695,-0.738 1.7757,-1.992 2.9016,-2.785 1.3575,-0.957 2.403,-2.231 3.1038,-3.782 1.377,-3.048 3.2882,-4.91 6.0911,-5.935 2.5467,-0.932 8.2363,-6.119 10.7535,-9.804 1.9515,-2.857 7.6117,-8.072 10.1815,-9.38 1.9203,-0.978 3.4215,-2.258 9.7391,-8.307 1.5847,-1.517 3.4081,-3.103 4.0521,-3.525 0.6435,-0.422 1.6122,-1.645 2.1514,-2.719 1.254,-2.494 7.659,-8.749 11.2212,-10.958 2.7821,-1.725 8.1087,-6.762 14.1753,-13.405 2.4188,-2.649 4.0526,-3.974 5.9531,-4.829 3.462,-1.558 4.1037,-2.192 5.9718,-5.898 1.7407,-3.454 3.192,-4.859 8.3197,-8.057 1.8902,-1.179 4.0986,-3 4.9076,-4.048 0.8085,-1.048 2.1702,-2.701 3.0253,-3.674 0.855,-0.973 2.1138,-2.872 2.7974,-4.221 0.684,-1.348 2.191,-3.66 3.3501,-5.136 2.5884,-3.298 2.7208,-4.149 0.561,-3.604 -3.3387,0.841 -13.3496,-0.08 -18.366,-1.672 -1.8191,-0.58 -3.5219,-0.786 -5.1873,-0.625 -1.5864,0.153 -3.6063,-0.06 -5.6084,-0.609 -2.7624,-0.747 -3.5083,-0.776 -6.3661,-0.236 -2.6895,0.507 -3.6342,0.5 -5.5836,-0.05 -1.8287,-0.511 -4.6584,-0.591 -12.8238,-0.363 -9.1028,0.254 -10.79,0.188 -12.8588,-0.513 -1.798,-0.609 -3.4546,-0.753 -6.7629,-0.592 -2.9766,0.15 -5.4199,-0.03 -7.62,-0.533 -5.8374,-1.344 -9.7089,-1.351 -20.164,-0.03 -1.1985,0.15 -3.7443,-0.05 -5.715,-0.442 -1.9827,-0.399 -4.6317,-0.603 -5.9934,-0.462 -1.5305,0.159 -3.651,-0.05 -5.6885,-0.561 -2.7778,-0.696 -3.6465,-0.731 -5.9986,-0.231 -1.5981,0.339 -3.804,0.451 -5.2653,0.268 -1.383,-0.174 -4.2293,-0.384 -6.3248,-0.468 -2.0955,-0.09 -5.5245,-0.421 -7.62,-0.75 -2.0955,-0.328 -4.5601,-0.58 -5.4769,-0.561 -0.9165,0.01 -4.557,0.135 -8.0894,0.246 -4.0408,0.135 -6.7741,0.01 -7.371,-0.298 -0.906,-0.485 -2.8894,-0.606 -16.4484,-1.013 -4.0233,-0.12 -6.7173,-0.445 -8.3103,-1.003 -2.0694,-0.725 -2.773,-0.755 -5.7649,-0.243 -3.8627,0.66 -8.6892,0.439 -14.2616,-0.653 -4.7676,-0.934 -11.6472,-1.002 -13.7076,-0.135 -0.843,0.356 -2.4969,1.46 -3.6756,2.454 -1.179,0.994 -3.1075,2.234 -4.2862,2.756 -1.179,0.522 -2.8347,1.749 -3.6801,2.729 -0.846,0.979 -2.3814,2.119 -3.4137,2.532 -1.032,0.413 -2.4651,1.523 -3.1844,2.466 -1.5631,2.049 -3.1915,2.956 -6.3982,3.564 -2.0417,0.387 -3.0791,1.059 -7.1479,4.628 -2.618,2.296 -4.8737,4.533 -5.013,4.972 -0.7305,2.3 -4.5609,5.163 -6.909,5.163 -0.597,0 -1.9352,0.958 -3.2337,2.316 -1.218,1.273 -3.1971,2.869 -4.3967,3.544 -1.2,0.675 -2.472,1.579 -2.8276,2.007 -0.3555,0.429 -1.7315,1.328 -3.0576,1.998 -1.326,0.671 -3.5537,2.261 -4.9499,3.535 -1.3965,1.273 -2.7442,2.316 -2.9955,2.316 -0.2505,0 -1.9368,1.339 -3.7459,2.976 -8.097,7.327 -8.8718,7.898 -13.5986,10.012 -4.1493,1.855 -4.8793,2.362 -5.8255,4.045 -1.6616,2.956 -4.4532,5.203 -7.5902,6.11 -1.5169,0.44 -3.6153,1.394 -4.663,2.121 -2.1617,1.5 -5.7632,5.171 -7.3487,7.489 -1.1535,1.686 -3.4279,3.037 -6.5119,3.867 -1.4625,0.395 -2.5661,1.235 -4.4213,3.368 -1.7104,1.966 -3.5007,3.382 -5.8089,4.595 -2.332,1.226 -4.1218,2.648 -5.9452,4.725 -1.8404,2.096 -3.3419,3.285 -5.0982,4.036 -1.3695,0.587 -3.407,1.907 -4.5281,2.935 -1.122,1.029 -2.9955,2.28 -4.1652,2.781 -1.17,0.501 -3.9051,2.083 -6.0789,3.515 -2.1738,1.431 -4.5858,2.876 -5.3599,3.211 -0.774,0.334 -2.397,1.51 -3.6065,2.613 -1.209,1.103 -3.2722,2.55 -4.584,3.214 -1.311,0.665 -2.5089,1.532 -2.6604,1.926 -0.5025,1.311 -4.1671,3.561 -6.3292,3.885 -1.167,0.175 -2.8691,0.826 -3.7838,1.446 -0.915,0.621 -2.3536,1.48 -3.1977,1.91 -0.8445,0.429 -2.6449,1.772 -4.002,2.982 -4.5313,4.041 -6.7773,5.687 -8.1804,5.995 -0.765,0.168 -2.0631,1.044 -2.884,1.946 -0.8205,0.902 -2.9718,2.385 -4.7798,3.296 -1.8078,0.91 -3.4185,1.868 -3.5791,2.128 -0.1605,0.259 -1.6232,1.113 -3.2501,1.897 -1.6269,0.783 -4.0752,2.344 -5.4405,3.468 -1.365,1.125 -3.5085,2.461 -4.7625,2.972 -2.9296,1.191 -7.4158,3.859 -8.4943,5.051 -0.462,0.51 -1.0425,0.927 -1.2915,0.927 -0.249,0 -1.089,0.535 -1.8678,1.191 -0.7785,0.655 -1.6938,1.191 -2.0345,1.191 -0.3405,0 -0.9015,0.339 -1.245,0.753 -0.3435,0.414 -1.8166,1.396 -3.273,2.182 -4.9791,2.688 -7.1239,3.971 -10.0198,5.994 -1.5936,1.113 -3.293,2.024 -3.7766,2.024 -1.2345,0 -2.1048,-1.218 -1.7821,-2.494 0.2805,-1.107 7.2576,-7.704 10.1136,-9.562 0.8805,-0.573 1.8429,-1.621 2.139,-2.33 0.3615,-0.865 1.224,-1.55 2.626,-2.086 1.2645,-0.483 2.7227,-1.573 3.6999,-2.765 0.8865,-1.082 3.0572,-3.144 4.823,-4.581 1.7659,-1.437 4.6387,-4.007 6.3843,-5.709 4.7242,-4.609 13.5768,-12.21 15.1912,-13.045 0.7785,-0.402 1.8543,-1.478 2.3916,-2.388 0.537,-0.91 1.9025,-2.25 3.0339,-2.976 1.131,-0.726 3.7715,-2.833 5.867,-4.682 2.0955,-1.85 4.56,-3.926 5.4768,-4.615 0.9165,-0.688 2.8818,-2.439 4.3668,-3.89 1.485,-1.452 3.8422,-3.211 5.2387,-3.91 1.3965,-0.699 3.6104,-2.304 4.9202,-3.568 1.3095,-1.263 4.1421,-4.018 6.2943,-6.122 2.1522,-2.104 4.9435,-4.348 6.2029,-4.986 1.26,-0.638 3.785,-2.695 5.612,-4.571 1.8271,-1.875 4.1793,-4.016 5.227,-4.758 1.0485,-0.741 2.7797,-2.175 3.8489,-3.185 1.0695,-1.009 4.047,-3.122 6.6172,-4.694 2.5704,-1.571 5.1246,-3.47 5.6762,-4.219 1.3995,-1.902 5.8158,-4.98 7.9789,-5.563 1.341,-0.361 2.1945,-1.047 3.2987,-2.652 1.635,-2.376 4.4797,-4.376 10.1796,-7.157 3.1219,-1.523 3.9955,-2.218 5.3464,-4.253 0.888,-1.338 2.1971,-2.858 2.9088,-3.38 2.4807,-1.817 7.6242,-4.468 10.0898,-5.2 2.184,-0.648 3.2461,-1.505 8.812,-7.1 5.2289,-5.256 6.6905,-6.461 8.4099,-6.935 1.317,-0.363 2.6936,-1.232 3.7479,-2.364 0.9165,-0.986 2.3816,-2.151 3.2552,-2.592 0.873,-0.441 3.1965,-2.292 5.1622,-4.114 2.6264,-2.435 4.1487,-3.468 5.7419,-3.894 1.6323,-0.436 2.5408,-1.068 3.6769,-2.556 1.4145,-1.852 7.3322,-7.003 10.1793,-8.86 0.7005,-0.458 1.659,-0.833 2.1299,-0.834 0.471,0 1.8342,-0.968 3.0297,-2.146 1.1955,-1.179 2.3467,-2.143 2.5581,-2.143 0.2115,0 1.5243,-0.974 2.9179,-2.163 1.5984,-1.365 3.4637,-2.433 5.0522,-2.895 2.1373,-0.621 2.8022,-1.116 4.3946,-3.272 1.3605,-1.841 2.9442,-3.174 5.7558,-4.844 2.4828,-1.475 4.7409,-3.298 6.2733,-5.065 3.9539,-4.559 3.4961,-4.46 18.3458,-3.963 7.6729,0.256 9.0247,0.424 11.43,1.42 1.9084,0.791 4.1352,1.224 7.4137,1.443 4.3442,0.291 4.8131,0.234 6.4293,-0.771 2.6171,-1.627 7.1444,-1.527 10.257,0.227 2.7878,1.571 3.503,1.608 5.9906,0.312 1.473,-0.768 2.4886,-0.945 4.42,-0.773 4.0865,0.366 8.9718,1.307 12.1662,2.343 2.5395,0.824 3.6549,0.921 7.3818,0.639 2.4147,-0.183 5.2478,-0.343 6.2955,-0.355 2.9006,-0.03 10.2044,0.858 12.6975,1.556 1.9248,0.538 2.7167,0.507 5.9532,-0.231 3.0515,-0.696 4.0988,-0.755 5.7369,-0.312 1.1025,0.297 2.1311,0.745 2.2863,0.996 0.174,0.282 4.0514,0.352 10.1405,0.184 8.2783,-0.229 10.1905,-0.153 11.9328,0.48 1.1415,0.414 2.3047,0.611 2.5858,0.437 0.2805,-0.174 5.3483,-0.399 11.2602,-0.5 5.9121,-0.105 11.6106,-0.201 12.6633,-0.223 1.1175,-0.03 2.7929,0.409 4.0259,1.038 1.9555,0.997 2.4652,1.05 6.8965,0.709 7.4972,-0.576 11.3351,-0.435 13.1027,0.479 1.278,0.661 1.9185,0.717 3.5431,0.307 2.3639,-0.595 11.2182,0.01 13.3803,0.921 0.786,0.33 3.7862,0.776 6.6675,0.99 2.8812,0.215 7.9176,0.615 11.1918,0.888 7.0157,0.587 6.5753,0.578 10.3785,0.188 2.7731,-0.285 3.1686,-0.201 5.2986,1.123 2.4261,1.509 4.3391,2.219 7.3304,2.722 1.089,0.183 2.5347,0.955 3.6175,1.934 l 1.803,1.629 1.5728,-1.404 c 2.1501,-1.92 3.8961,-2.402 9.1234,-2.521 4.3134,-0.105 4.6086,-0.03 8.1483,1.707 3.0476,1.501 3.8864,2.174 4.9286,3.952 1.7061,2.911 1.455,6.073 -0.696,8.75 -0.9,1.12 -1.7093,2.868 -2.0315,4.391 -1.0215,4.826 -2.9461,7.115 -6.9753,8.296 -1.9393,0.568 -2.7757,1.129 -3.691,2.477 -0.651,0.958 -1.1835,2.294 -1.1835,2.97 0,0.734 -0.555,1.761 -1.3755,2.548 -3.576,3.426 -5.9178,12.842 -5.2833,21.243 0.075,0.917 -0.045,2.812 -0.2505,4.211 l -0.3765,2.543 2.5717,-0.321 c 2.0292,-0.253 3.1026,-0.105 5.0873,0.671 2.083,0.82 2.8606,0.91 4.5243,0.522 1.9878,-0.464 4.8883,-0.219 12.2484,1.035 3.3213,0.565 5.3853,0.594 9.5311,0.135 2.0369,-0.228 3.1827,-0.07 5.1095,0.685 1.3665,0.539 2.7886,0.863 3.1614,0.719 0.372,-0.15 1.8438,-0.05 3.2692,0.219 2.0414,0.378 3.0345,0.327 4.6757,-0.239 2.3529,-0.81 4.1034,-0.61 7.3974,0.848 1.9605,0.867 2.5509,0.925 4.902,0.48 1.47,-0.279 5.2843,-0.612 8.4759,-0.741 5.04,-0.203 6.1668,-0.105 8.5725,0.753 2.6637,0.948 3.5308,1.008 10.6278,0.732 1.9995,-0.07 3.3244,0.214 5.5987,1.236 l 2.9793,1.338 3.1211,-1.055 c 2.8116,-0.949 3.3424,-0.994 5.3549,-0.444 1.2285,0.335 3.9486,0.644 6.0441,0.686 4.2098,0.09 6.2952,0.793 8.8452,3.009 2.2242,1.933 3.4331,2.509 5.2919,2.521 3.6745,0.03 7.8846,3.353 9.0156,7.128 0.435,1.453 0.4545,3.732 0.075,9.448 -0.5325,8.144 -0.942,9.553 -4.0533,13.958 -0.858,1.215 -2.2025,3.331 -2.9882,4.703 -0.786,1.373 -2.2377,3.915 -3.2265,5.651 -0.9885,1.735 -2.4325,3.69 -3.2086,4.345 -0.879,0.741 -1.7789,2.27 -2.3847,4.048 -0.5355,1.571 -1.5195,3.682 -2.1866,4.69 -0.6675,1.008 -1.5238,2.714 -1.9036,3.79 -0.3795,1.077 -1.3275,2.95 -2.1056,4.162 -0.876,1.365 -1.4145,2.837 -1.4145,3.863 0,0.912 -0.3495,2.822 -0.7755,4.245 -0.621,2.072 -0.729,3.961 -0.5355,9.492 0.135,3.798 0.09,7.442 -0.09,8.096 -0.1965,0.711 0.01,2.247 0.51,3.81 1.314,4.1 2.2409,8.93 2.5475,13.278 0.3015,4.278 0.8085,5.772 1.956,5.772 1.9254,0 7.2994,3.891 8.821,6.386 1.0155,1.666 1.2105,5.465 0.363,7.1 -0.297,0.571 -1.248,1.918 -2.1154,2.992 -0.867,1.074 -2.3567,3.282 -3.3102,4.909 -0.954,1.628 -2.3294,3.643 -3.0572,4.478 -0.7275,0.836 -1.6812,2.219 -2.1186,3.073 -1.332,2.6 -6.2461,7.96 -8.8027,9.601 -1.3275,0.852 -2.8947,2.334 -3.4831,3.293 -0.588,0.96 -1.9484,2.71 -3.0221,3.888 -1.092,1.199 -2.2165,3.062 -2.5525,4.228 -0.351,1.219 -1.449,2.997 -2.6475,4.286 -1.125,1.212 -3.3672,4.186 -4.9809,6.611 -1.6139,2.425 -3.5396,5.103 -4.2794,5.953 -0.7395,0.849 -1.7281,2.295 -2.1963,3.211 -0.468,0.917 -1.3305,2.31 -1.9165,3.096 -0.5865,0.786 -1.5254,2.344 -2.0871,3.462 -0.579,1.152 -3.689,4.661 -7.1771,8.096 -3.4845,3.432 -6.6417,6.993 -7.2753,8.206 -0.8445,1.617 -2.0926,2.811 -5.0814,4.859 -2.1792,1.494 -4.5043,3.53 -5.1672,4.525 -0.663,0.994 -2.1895,2.906 -3.393,4.248 -1.203,1.343 -2.8308,3.35 -3.6165,4.462 -3.3243,4.704 -4.4715,6.045 -6.5244,7.624 -2.4837,1.91 -6.0963,5.964 -6.0963,6.841 0,0.326 -0.627,1.581 -1.3935,2.79 -1.1415,1.801 -2.0346,2.503 -4.9387,3.881 -3.7211,1.766 -3.8327,1.885 -11.4336,12.283 -0.735,1.005 -1.5317,1.827 -1.7712,1.827 -0.24,0 -1.215,1.233 -2.1671,2.739 -2.0622,3.261 -4.1512,5.539 -6.3039,6.874 -0.867,0.539 -2.046,1.668 -2.6194,2.511 -0.573,0.843 -2.0307,3.014 -3.2385,4.824 -1.2075,1.811 -2.8398,3.76 -3.6267,4.331 -0.7875,0.572 -2.0775,2.184 -2.868,3.585 -1.095,1.941 -2.0186,2.863 -3.8819,3.877 -1.6519,0.899 -2.7354,1.901 -3.3415,3.089 -1.0515,2.061 -3.0722,4.185 -4.8632,5.111 -0.699,0.361 -1.9369,1.74 -2.7511,3.063 -0.8145,1.323 -2.4654,3.097 -3.6692,3.942 -1.3545,0.95 -2.6238,2.392 -3.3294,3.78 -0.798,1.57 -1.9629,2.805 -3.8806,4.117 -4.4525,3.045 -6.9183,5.738 -7.9179,8.646 -0.6315,1.839 -1.6989,3.428 -3.6677,5.462 -1.5267,1.577 -3.483,3.927 -4.347,5.222 -0.864,1.295 -2.7912,3.331 -4.2823,4.525 -1.491,1.194 -5.1345,4.279 -8.0963,6.859 -4.9278,4.291 -5.466,4.925 -6.3375,7.464 -1.0545,3.071 -2.2485,4.675 -4.4496,5.975 -0.8055,0.476 -1.7005,1.437 -1.9908,2.138 -0.2895,0.701 -4.2807,4.892 -8.8681,9.315 -4.5873,4.423 -8.859,8.917 -9.4926,9.986 -0.633,1.07 -2.6751,3.32 -4.5368,5.001 -1.9069,1.722 -3.8712,4.014 -4.4989,5.25 -1.2105,2.382 -7.9362,8.743 -12.3308,11.661 -2.1454,1.425 -2.748,2.154 -3.6366,4.404 -1.5432,3.907 -2.8983,5.491 -5.9229,6.923 -2.4868,1.178 -2.7877,1.502 -4.1253,4.452 -1.6426,3.623 -7.0339,9.935 -9.7098,11.368 -2.0346,1.089 -4.8294,4.678 -6.4992,8.345 -0.678,1.488 -1.8151,3.072 -2.5641,3.572 -0.741,0.493 -2.3194,1.878 -3.5086,3.077 -3.833,3.864 -4.1325,3.972 -12.1409,4.353 -3.9414,0.187 -8.1391,0.474 -9.3282,0.636 -2.887,0.393 -9.1759,-0.936 -11.8597,-2.506 -2.0822,-1.218 -2.1812,-1.229 -6.2897,-0.681 -3.8239,0.508 -4.3858,0.475 -6.6952,-0.402 -2.9871,-1.136 -5.3865,-1.202 -8.9504,-0.245 -3.5628,0.957 -4.572,0.903 -9.3867,-0.492 -2.2894,-0.663 -6.4182,-1.413 -9.175,-1.667 -17.1576,-1.577 -20.1344,-1.958 -22.6509,-2.894 -1.8909,-0.703 -2.7465,-0.792 -4.0449,-0.42 -2.939,0.843 -6.3827,0.533 -11.016,-0.991 -3.9069,-1.286 -4.8251,-1.422 -7.544,-1.122 -5.6753,0.625 -11.2741,0.297 -13.8539,-0.813 -2.0855,-0.897 -2.871,-0.974 -6.9957,-0.681 -3.0812,0.219 -5.124,0.15 -6.0645,-0.21 -3.0998,-1.179 -7.7442,-1.76 -10.14,-1.269 -1.9101,0.391 -2.7572,0.322 -4.6664,-0.377 -1.2825,-0.469 -4.1542,-1.026 -6.3807,-1.234 -10.0773,-0.944 -13.7218,-1.37 -15.7162,-1.834 -1.179,-0.275 -3.303,-0.506 -4.7207,-0.512 -1.9144,0 -3.1317,-0.336 -4.7313,-1.273 -2.1226,-1.244 -2.2068,-1.254 -5.8347,-0.665 -4.1698,0.677 -8.8474,0.135 -13.005,-1.488 -2.1663,-0.849 -2.4699,-0.862 -4.1769,-0.18 -2.9554,1.182 -5.7486,0.944 -9.0487,-0.774 -2.8016,-1.458 -2.9784,-1.488 -5.1003,-0.877 -3.7902,1.092 -5.5196,1.114 -7.8086,0.105 -1.6818,-0.744 -3.2187,-0.953 -7.1542,-0.968 -5.0237,-0.01 -7.9889,-0.535 -10.4724,-1.819 -0.9975,-0.516 -3.3563,-0.694 -9.4319,-0.718 l -8.1022,-0.03 -2.2953,-1.579 -2.2955,-1.579 -3.7509,0.966 c -4.5373,1.168 -6.8329,0.978 -11.3185,-0.939 l -3.2816,-1.403 -2.5407,0.893 c -3.2191,1.131 -3.3727,1.126 -6.9603,-0.263 -3.7383,-1.446 -9.2509,-2.408 -11.3728,-1.984 -4.9365,0.986 -7.5467,0.897 -10.3247,-0.348 -2.899,-1.299 -5.7385,-1.563 -10.8238,-1.002 -2.2035,0.243 -3.6959,0.09 -6.4598,-0.693 -1.977,-0.555 -4.6824,-1.008 -6.0123,-1.008 -1.392,0 -3.2989,-0.4 -4.494,-0.942 -1.1415,-0.517 -2.8866,-0.946 -3.8773,-0.952 -0.99,0 -2.5608,-0.327 -3.489,-0.716 -1.245,-0.52 -2.6175,-0.627 -5.2281,-0.406 -2.8509,0.241 -3.911,0.135 -5.4447,-0.56 -1.5537,-0.7 -2.2326,-0.766 -3.6863,-0.358 -1.1685,0.327 -5.3916,0.387 -12.2593,0.171 -10.358,-0.326 -10.5075,-0.345 -13.097,-1.713 -2.866,-1.515 -4.8645,-1.705 -17.0038,-1.619 -5.3145,0.05 -6.0356,-0.06 -8.424,-1.194 -2.15,-1.017 -3.3122,-1.237 -6.5705,-1.246 -2.8765,0 -4.5123,-0.261 -5.9841,-0.93 -1.536,-0.698 -2.6098,-0.851 -4.4433,-0.633 -2.6605,0.315 -9.4294,-0.522 -12.8845,-1.593 -1.77,-0.549 -2.6402,-0.576 -4.3836,-0.135 -1.5138,0.381 -2.9837,0.408 -4.8336,0.09 -1.4625,-0.252 -3.1841,-0.357 -3.8265,-0.234 -2.0288,0.387 -5.4591,3.87 -7.0088,7.114 -1.0545,2.206 -2.2257,3.689 -4.3543,5.51 -1.6017,1.371 -3.2289,2.919 -3.6159,3.441 -1.6494,2.227 -6.9467,7.71 -8.4188,8.714 -0.879,0.6 -2.7745,2.769 -4.2122,4.821 -3.1445,4.488 -3.2369,4.569 -6.7335,5.923 -2.3595,0.914 -2.837,1.307 -3.2204,2.643 -0.252,0.879 -2.271,3.598 -4.5861,6.178 -2.2747,2.534 -4.4964,5.246 -4.9371,6.026 -2.1898,3.875 -5.0661,7.175 -7.2667,8.337 -1.9797,1.046 -2.5313,1.68 -3.8789,4.462 -0.9225,1.903 -2.5188,4.156 -3.8664,5.455 -1.263,1.218 -2.7313,3.071 -3.2641,4.118 -1.1685,2.299 -2.5496,3.612 -5.1887,4.937 -1.0905,0.547 -2.4795,1.696 -3.0852,2.554 -1.6024,2.268 -2.7576,3.129 -5.2051,3.882 -1.1985,0.369 -3.2339,1.203 -4.5243,1.854 -2.7921,1.409 -5.6012,1.875 -7.6415,1.269 z m 5.5282,-26.632 c 0.837,-1.305 2.5835,-3.152 3.8796,-4.104 1.4265,-1.047 2.8047,-2.601 3.4911,-3.937 0.624,-1.213 2.9402,-4.042 5.1471,-6.285 3.8162,-3.878 6.3804,-7.242 8.8322,-11.586 1.446,-2.563 4.7901,-5.97 8.7595,-8.926 1.8998,-1.415 3.6384,-3.181 4.2863,-4.354 1.0125,-1.832 5.0721,-5.304 9.0445,-7.735 0.864,-0.528 2.1179,-1.973 2.7872,-3.209 0.669,-1.236 2.3838,-3.405 3.81,-4.818 1.4265,-1.413 3.3285,-3.467 4.2271,-4.564 0.8985,-1.098 2.4339,-2.403 3.4115,-2.902 1.185,-0.604 2.3387,-1.831 3.4625,-3.681 0.927,-1.526 2.1347,-3.181 2.6838,-3.678 0.549,-0.496 1.7441,-2.131 2.6555,-3.631 0.9615,-1.584 2.6817,-3.491 4.1011,-4.549 1.344,-1.002 3.1715,-2.359 4.0602,-3.017 0.8895,-0.657 2.0009,-2.054 2.471,-3.104 0.8235,-1.84 4.8811,-5.755 7.9054,-7.628 0.786,-0.486 2.3348,-1.699 3.4421,-2.694 1.107,-0.995 2.4565,-1.809 2.998,-1.809 0.612,0 2.3609,-1.45 4.6265,-3.837 2.0029,-2.11 4.8865,-4.605 6.4078,-5.544 1.5215,-0.939 2.7662,-1.873 2.7662,-2.076 0,-0.547 -4.2675,-2.83 -5.2892,-2.83 -1.6665,0 -4.567,1.474 -5.5708,2.832 -0.552,0.747 -2.7594,2.596 -4.9043,4.107 -2.1447,1.512 -4.2436,3.403 -4.6642,4.203 -0.42,0.799 -2.0781,2.853 -3.6834,4.562 -1.6053,1.709 -3.8828,4.623 -5.0612,6.474 -1.179,1.852 -3.0352,4.074 -4.1265,4.938 -1.0905,0.864 -2.5125,2.614 -3.1584,3.889 -0.882,1.742 -1.7743,2.661 -3.5872,3.696 -1.3275,0.757 -2.9205,2.125 -3.5414,3.039 -0.621,0.914 -2.2667,2.417 -3.6577,3.34 -1.3905,0.922 -3.6862,3.009 -5.101,4.636 -1.4145,1.626 -4.4754,4.458 -6.8016,6.293 -3.1059,2.45 -4.5396,3.949 -5.3972,5.641 -0.642,1.268 -1.7232,2.692 -2.4019,3.165 -0.6795,0.472 -2.5161,1.972 -4.083,3.332 -1.5671,1.361 -3.5558,2.707 -4.4195,2.992 -1.2735,0.42 -2.055,1.335 -4.1376,4.843 -1.8742,3.158 -3.2739,4.876 -5.1864,6.368 -1.44,1.124 -3.4765,2.941 -4.5243,4.037 -1.0485,1.096 -3.0838,2.593 -4.5244,3.328 -3.1914,1.626 -4.0163,2.51 -4.7931,5.137 -0.687,2.324 -5.9738,8.793 -8.0727,9.878 -1.353,0.701 -4.1583,3.851 -5.1776,5.816 -0.48,0.926 -0.2955,1.383 1.485,3.689 1.1175,1.448 2.3856,2.633 2.8167,2.634 0.4305,0 1.4685,-1.066 2.3069,-2.371 z m 533.566,-34.745 c 1.1445,-0.266 2.9844,-0.233 4.9213,0.09 l 3.0933,0.513 1.146,-1.386 c 1.7334,-2.097 1.362,-3.548 -1.2255,-4.783 -1.179,-0.562 -2.6626,-1.582 -3.2977,-2.266 -0.6345,-0.684 -1.3845,-1.243 -1.6668,-1.245 -0.9255,0 -6.7407,-4.08 -8.4065,-5.895 -0.897,-0.978 -2.6928,-2.355 -3.9907,-3.06 -3.1953,-1.737 -4.1174,-3.486 -4.6011,-8.728 -0.4035,-4.38 -0.9645,-5.96 -3.9119,-11.02 -2.265,-3.889 -2.6674,-6.31 -3.1338,-18.858 -0.4155,-11.181 0,-17.696 1.3425,-21.168 0.285,-0.738 0.519,-1.963 0.519,-2.724 0,-0.76 0.5355,-3.024 1.191,-5.03 0.6555,-2.006 1.191,-4.255 1.191,-4.997 0,-1.214 -0.2475,-1.424 -2.4676,-2.082 -3.0978,-0.92 -6.9018,-0.924 -10.7736,-0.01 -3.8018,0.897 -8.4338,0.282 -13.0542,-1.73 -3.4134,-1.487 -5.2377,-1.706 -9.4611,-1.139 -2.2062,0.297 -3.053,0.183 -4.9892,-0.673 -1.8753,-0.83 -2.8273,-0.971 -4.861,-0.716 -1.6104,0.201 -5.4204,-0.06 -10.4889,-0.706 -23.5058,-3.022 -28.6413,-3.537 -31.4424,-3.152 -1.7425,0.24 -2.9148,0.08 -4.8834,-0.669 -1.425,-0.541 -3.2901,-0.984 -4.1454,-0.985 -0.855,0 -2.8261,-0.354 -4.3795,-0.786 -2.319,-0.645 -3.2916,-0.692 -5.4342,-0.261 -1.724,0.346 -3.1461,0.37 -4.1898,0.07 -0.8685,-0.249 -3.1904,-0.453 -5.1584,-0.453 -1.968,0 -4.3269,-0.243 -5.2419,-0.542 -0.915,-0.298 -3.3781,-0.684 -5.4736,-0.858 -2.7426,-0.228 -4.6107,-0.702 -6.6675,-1.689 -2.5371,-1.218 -3.4184,-1.381 -7.8582,-1.452 -3.5375,-0.06 -5.6277,-0.33 -7.1438,-0.933 -1.179,-0.469 -4.1791,-1.03 -6.6675,-1.245 -11.3122,-0.979 -18.5851,-1.452 -21.532,-1.396 -2.1425,0.05 -4.7333,-0.359 -7.8581,-1.212 -3.3351,-0.909 -5.6526,-1.248 -8.143,-1.193 -3.0852,0.08 -3.7691,-0.09 -6.0111,-1.368 -2.8043,-1.604 -4.5662,-1.778 -8.9213,-0.879 -2.5068,0.518 -2.9818,0.476 -5.2767,-0.477 -2.9877,-1.239 -3.5188,-1.269 -5.7637,-0.331 -2.5224,1.054 -4.8774,0.88 -7.5101,-0.552 -2.2242,-1.211 -2.4442,-1.241 -4.9918,-0.671 -3.1194,0.698 -5.5466,0.353 -7.55,-1.074 -1.242,-0.883 -2.1166,-1.027 -6.4455,-1.056 -2.7672,-0.01 -5.899,-0.316 -6.9984,-0.667 -1.5682,-0.501 -2.4522,-0.519 -4.1716,-0.09 -2.3616,0.595 -3.8657,0.384 -6.4592,-0.908 -1.1745,-0.585 -2.3712,-0.763 -4.048,-0.606 -1.3095,0.12 -4.9442,-0.12 -8.0766,-0.531 -3.1323,-0.415 -6.6684,-0.757 -7.8581,-0.76 -1.3095,0 -3.1903,-0.483 -4.7646,-1.215 -2.4157,-1.125 -2.9433,-1.191 -7.3819,-0.93 -4.4163,0.259 -5.1789,0.165 -10.0188,-1.238 -3.3351,-0.966 -6.1907,-1.498 -7.8582,-1.467 -1.44,0.03 -3.6536,-0.283 -4.9176,-0.693 -1.7201,-0.556 -3.2177,-0.664 -5.9531,-0.423 -6.9688,0.614 -8.2644,0.509 -13.5639,-1.096 -4.7986,-1.454 -5.4445,-1.538 -9.5607,-1.235 -3.8772,0.285 -4.6878,0.203 -6.6612,-0.67 -1.236,-0.546 -3.0414,-1.139 -4.0123,-1.314 -0.9705,-0.176 -2.5692,-0.636 -3.5516,-1.022 -1.5942,-0.627 -1.9914,-0.619 -3.7005,0.06 -2.938,1.176 -6.4777,0.993 -9.2386,-0.477 -2.0723,-1.102 -2.5337,-1.183 -4.0997,-0.714 -2.6386,0.791 -5.7472,0.644 -7.3764,-0.351 -1.2045,-0.735 -2.8462,-0.919 -10.1757,-1.146 -8.6182,-0.265 -8.7808,-0.291 -11.695,-1.77 -2.7846,-1.413 -3.083,-1.468 -5.165,-0.943 -1.9155,0.483 -2.65,0.423 -5.5165,-0.449 -1.8189,-0.552 -4.4999,-1.005 -5.9579,-1.005 -1.458,0 -4.2991,-0.361 -6.3136,-0.804 l -3.6627,-0.804 -0.756,1.056 c -0.4155,0.581 -1.758,2.343 -2.9823,3.916 -1.5,1.927 -2.3927,3.637 -2.7368,5.241 -0.2805,1.31 -0.9795,3.286 -1.5511,4.39 -0.5715,1.104 -1.404,3.616 -1.85,5.58 -1.5018,6.627 -2.7984,11.174 -4.2726,14.984 -1.2855,3.323 -1.428,4.152 -1.155,6.709 0.177,1.655 0.06,4.466 -0.2655,6.497 -0.495,3.069 -0.468,3.957 0.1905,6.223 0.423,1.454 0.768,3.95 0.768,5.547 0,1.597 0.204,2.903 0.453,2.903 1.1505,0 6.7632,-4.49 7.3496,-5.88 0.612,-1.45 6.2038,-6.794 8.1514,-7.79 0.5235,-0.267 1.8942,-0.632 3.0455,-0.807 1.1505,-0.176 2.7322,-0.776 3.5136,-1.332 1.8747,-1.335 5.3422,-1.65 7.632,-0.693 1.389,0.58 2.8032,0.682 6.4158,0.466 3.6112,-0.217 5.0242,-0.12 6.4008,0.465 1.2195,0.513 2.5623,0.66 4.3368,0.477 1.47,-0.151 3.3064,-0.01 4.2901,0.303 1.8797,0.621 5.5581,4.382 6.9899,7.147 0.4815,0.93 2.1604,2.813 3.7303,4.184 5.1725,4.516 7.0595,10.392 4.8789,15.194 -1.7475,3.849 -6.3922,7.855 -10.693,9.224 -1.221,0.389 -3.074,1.82 -5.4768,4.229 -1.9973,2.003 -5.3018,5.015 -7.3431,6.692 -3.1611,2.598 -3.614,3.149 -3.0527,3.71 0.5355,0.535 1.0665,0.556 2.8413,0.105 3.5502,-0.894 17.5691,0.217 20.211,1.603 0.8565,0.449 2.6298,0.804 4.0481,0.81 1.3875,0 3.3813,0.236 4.429,0.51 2.1513,0.563 6.7095,1.16 14.0493,1.839 2.7504,0.255 6.0722,0.694 7.382,0.978 3.6264,0.784 8.3709,1.357 15.7162,1.896 3.6671,0.268 7.673,0.72 8.9019,1.002 1.275,0.292 3.5244,0.375 5.2388,0.192 1.7887,-0.192 4.2567,-0.09 6.0999,0.258 1.7026,0.318 5.9889,0.667 9.525,0.775 3.5361,0.105 7.5009,0.287 8.8107,0.398 1.3095,0.105 4.4172,0.298 6.9055,0.418 4.6518,0.225 6.7631,0.756 8.2091,2.065 0.6885,0.624 1.4145,0.682 4.2871,0.348 5.3258,-0.62 7.5395,-0.464 9.8,0.693 1.7736,0.907 2.5006,1.008 5.3001,0.732 2.7186,-0.269 3.6975,-0.15 6.0406,0.745 2.069,0.788 4.3446,1.151 8.7494,1.392 4.2009,0.231 6.409,0.569 7.5022,1.148 1.428,0.756 1.7477,0.762 4.0718,0.09 2.6077,-0.758 4.027,-0.624 12.2385,1.155 1.179,0.255 3.4297,0.474 5.0022,0.484 1.5724,0.01 4.3584,0.467 6.1912,1.011 2.3235,0.69 4.9179,1.023 8.571,1.1 2.8812,0.06 6.5054,0.358 8.0535,0.664 1.6428,0.324 4.2789,0.432 6.3312,0.258 3.065,-0.259 3.8204,-0.154 5.8857,0.813 2.2244,1.043 2.5523,1.074 5.3612,0.515 3.2976,-0.656 4.9893,-0.419 7.4091,1.036 1.4175,0.852 2.3793,0.963 8.0962,0.93 6.0762,-0.03 6.6452,0.05 8.964,1.202 l 2.4759,1.239 4.7126,-0.825 c 4.3708,-0.765 4.8646,-0.768 6.8109,-0.06 5.5048,2.025 6.3745,2.197 9.6121,1.896 2.3442,-0.218 3.971,-0.09 5.945,0.489 2.0214,0.588 3.5871,0.708 6.1116,0.472 2.5798,-0.241 3.8238,-0.135 5.1859,0.431 0.9855,0.412 2.9177,0.748 4.2933,0.748 1.3755,0 3.4391,0.333 4.5854,0.741 1.9071,0.678 6.3736,1.04 17.3239,1.404 9.0553,0.302 12.997,1.17 16.504,3.634 1.592,1.119 2.187,1.112 4.7561,-0.06 2.8215,-1.279 5.3457,-1.182 8.7436,0.339 2.6781,1.2 3.306,1.281 10.0013,1.307 4.7247,0.01 7.7722,0.246 8.9997,0.673 1.47,0.512 2.362,0.534 4.2862,0.105 1.7999,-0.4 2.8626,-0.402 4.0971,0 0.9165,0.294 4.4636,0.672 7.8819,0.84 6.438,0.316 6.5294,0.345 9.8189,2.982 1.221,0.978 1.4055,0.993 4.7625,0.372 5.6629,-1.049 13.6843,-0.759 18.4942,0.666 4.4577,1.321 6.0044,1.468 8.7336,0.835 z m 17.2384,-10.738 c 1.4415,-1.174 3.2439,-2.457 4.0038,-2.85 1.8786,-0.972 3.1149,-2.864 3.8184,-5.846 0.501,-2.124 1.2405,-3.215 4.9479,-7.299 2.7404,-3.019 6.0381,-6.003 8.8829,-8.038 3.1416,-2.246 5.0793,-4.042 6.34,-5.875 0.999,-1.452 2.5512,-3.141 3.4503,-3.753 1.1145,-0.759 1.8665,-1.807 2.364,-3.297 0.8385,-2.512 2.8299,-4.728 5.825,-6.483 1.329,-0.78 2.8162,-2.307 4.0852,-4.199 1.098,-1.636 3.0647,-3.838 4.3719,-4.894 1.3065,-1.056 3.7697,-3.344 5.4723,-5.085 1.7027,-1.741 4.1882,-4.278 5.5236,-5.638 1.335,-1.361 2.9135,-3.287 3.5067,-4.283 0.594,-0.996 1.5803,-2.139 2.1935,-2.54 0.687,-0.45 1.3905,-1.678 1.8318,-3.198 0.762,-2.619 2.6977,-4.861 5.3532,-6.198 0.8265,-0.415 1.9374,-1.461 2.4699,-2.322 0.5325,-0.861 1.6782,-2.086 2.5462,-2.721 3.5468,-2.594 6.6758,-5.58 7.7424,-7.39 0.6225,-1.056 2.756,-3.496 4.7417,-5.423 2.6842,-2.605 3.7438,-3.999 4.1302,-5.434 0.771,-2.864 1.6776,-3.973 4.7933,-5.865 2.0203,-1.227 3.0978,-2.271 3.8154,-3.693 1.4985,-2.971 4.677,-6.706 6.9315,-8.146 1.101,-0.703 2.1244,-1.665 2.2747,-2.139 0.4275,-1.347 9.8291,-10.236 11.5886,-10.957 1.2315,-0.504 1.9407,-1.368 3.2397,-3.947 0.915,-1.816 2.4808,-4.195 3.4809,-5.288 1.0005,-1.092 2.2537,-2.843 2.7861,-3.891 1.1625,-2.288 2.6787,-3.773 4.7326,-4.637 2.3261,-0.978 6.174,-4.872 6.8264,-6.909 0.8865,-2.765 2.5762,-4.68 6.4216,-7.275 1.9418,-1.311 3.7845,-2.856 4.0947,-3.436 0.3105,-0.579 1.5699,-2.131 2.7993,-3.448 1.23,-1.317 3.0422,-3.786 4.0284,-5.488 0.9855,-1.702 2.3583,-3.775 3.0489,-4.608 0.69,-0.832 1.8542,-2.402 2.5859,-3.489 0.9225,-1.371 2.0904,-2.317 3.81,-3.087 3.2847,-1.472 6.2214,-4.587 7.4547,-7.908 1.053,-2.835 2.028,-3.938 4.9557,-5.607 3.2631,-1.859 6.4369,-4.863 7.0266,-6.649 0.6585,-1.995 4.1194,-5.848 6.5664,-7.31 2.4366,-1.455 3.8607,-2.821 3.8607,-3.701 0,-0.417 0.375,-1.436 0.834,-2.264 1.2375,-2.237 8.1456,-9.969 10.1436,-11.354 1.0695,-0.741 2.4358,-2.478 3.5548,-4.519 0.999,-1.824 2.3079,-3.638 2.9075,-4.03 0.6705,-0.44 1.2105,-1.404 1.404,-2.504 0.6765,-3.857 4.3075,-8.108 8.3608,-9.786 1.5534,-0.644 1.7586,-0.944 2.0694,-3.026 0.57,-3.821 1.5323,-5.433 5.9262,-9.926 2.3087,-2.361 4.5431,-4.968 4.9653,-5.793 0.423,-0.825 1.5989,-2.218 2.6145,-3.095 1.0155,-0.878 2.1219,-2.132 2.4584,-2.787 0.336,-0.654 1.7614,-2.407 3.1665,-3.893 1.4055,-1.487 2.5548,-3.111 2.5548,-3.608 0,-0.498 -0.5565,-1.425 -1.236,-2.06 -1.8171,-1.697 -2.5742,-3.448 -2.5742,-5.953 0,-1.707 -0.447,-3.036 -1.9111,-5.69 -1.209,-2.19 -2.1621,-4.749 -2.5938,-6.964 -0.375,-1.926 -0.9495,-4.62 -1.275,-5.987 -0.5055,-2.117 -0.4725,-2.997 0.219,-5.953 0.447,-1.908 0.8085,-4.386 0.8055,-5.508 0,-1.122 0.318,-2.814 0.714,-3.761 0.5415,-1.296 0.6435,-2.635 0.4125,-5.411 -0.1875,-2.254 -0.105,-4.267 0.21,-5.174 0.4035,-1.155 0.357,-1.931 -0.21,-3.503 -0.5235,-1.452 -0.648,-2.956 -0.4455,-5.353 l 0.282,-3.333 -0.984,1.191 c -0.5415,0.655 -1.6704,2.249 -2.5086,3.543 -0.9075,1.401 -2.655,3.119 -4.3212,4.249 -1.7195,1.166 -3.3932,2.828 -4.3451,4.315 -0.852,1.331 -3.2362,4.055 -5.2993,6.055 -2.0631,2.001 -4.5197,4.465 -5.4588,5.477 -0.939,1.013 -2.9306,2.684 -4.4252,3.716 -2.028,1.399 -3.0954,2.584 -4.2072,4.67 -0.9195,1.724 -2.203,3.287 -3.351,4.078 -4.5001,3.101 -7.489,5.945 -8.9284,8.495 -0.831,1.471 -2.7516,3.913 -4.2687,5.426 -1.5171,1.512 -3.9629,4.579 -5.4351,6.814 -1.4865,2.258 -3.7811,4.977 -5.1609,6.117 -2.4227,2.002 -4.5873,4.132 -8.9502,8.806 -1.179,1.263 -2.7861,2.671 -3.5718,3.129 -3.5993,2.101 -4.7673,3.294 -5.5374,5.654 -0.9675,2.964 -2.0163,4.085 -6.9815,7.458 -3.0223,2.053 -4.1628,3.141 -4.8294,4.61 -1.0995,2.421 -5.7235,8.194 -7.4953,9.357 -1.8416,1.207 -10.3113,10.024 -11.5397,12.012 -0.5505,0.891 -1.8547,2.185 -2.8975,2.875 -1.0425,0.69 -2.312,2.058 -2.8202,3.04 -0.5085,0.982 -2.1384,2.964 -3.6225,4.405 -1.4835,1.44 -3.3429,3.544 -4.1308,4.675 -0.7875,1.131 -2.4839,2.703 -3.7688,3.494 -1.2855,0.79 -2.3364,1.609 -2.3364,1.82 0,0.21 -1.6609,2.115 -3.6909,4.233 -2.0301,2.118 -4.1952,4.507 -4.8114,5.307 -0.6165,0.801 -1.9405,1.875 -2.943,2.386 -1.002,0.512 -2.7987,2.198 -3.9916,3.749 -1.1925,1.55 -3.0471,3.514 -4.1204,4.364 -1.0725,0.851 -2.5009,2.425 -3.1731,3.499 -1.9521,3.12 -5.8453,7.407 -7.5273,8.287 -0.852,0.445 -4.0083,3.168 -7.0149,6.049 -4.1955,4.021 -5.5501,5.622 -5.8267,6.889 -0.2475,1.137 -1.356,2.64 -3.5627,4.834 -1.7613,1.751 -4.0198,4.181 -5.0188,5.4 -0.999,1.22 -2.7948,2.79 -3.9903,3.491 -3.2153,1.884 -5.4893,4.389 -7.1574,7.884 -1.296,2.716 -1.8986,3.387 -4.7232,5.265 -1.781,1.184 -3.4811,2.686 -3.7782,3.338 -0.8745,1.92 -4.0304,5.14 -5.7375,5.855 -0.87,0.364 -1.9415,1.323 -2.3813,2.13 -1.326,2.434 -2.9356,4.161 -5.0167,5.382 -1.5575,0.913 -2.1507,1.655 -2.8116,3.519 -0.534,1.506 -1.449,2.853 -2.5221,3.715 -4.2879,3.444 -6.4001,5.617 -7.2816,7.493 -0.9195,1.956 -3.8963,5.052 -4.8578,5.052 -0.255,0 -1.122,1.068 -1.9251,2.374 -1.1895,1.934 -2.0241,2.643 -4.497,3.824 -3.2445,1.548 -4.4937,2.908 -5.4616,5.946 -0.657,2.064 -1.809,3.344 -12.248,13.62 -1.104,1.086 -2.319,2.86 -2.7001,3.941 -2.6277,7.451 -3.0471,9.788 -3.5571,19.825 -0.2565,5.055 -0.582,7.411 -1.212,8.793 -0.618,1.355 -0.7725,2.431 -0.5475,3.81 0.1725,1.058 0.5025,3.53 0.732,5.494 0.7665,6.538 2.9605,13.707 5.0214,16.409 0.6315,0.828 1.4985,2.885 1.9285,4.573 0.4305,1.688 0.978,3.443 1.2195,3.901 0.2415,0.457 0.666,2.064 0.9435,3.572 0.2775,1.507 0.705,2.983 0.951,3.281 0.2445,0.297 0.7365,1.905 1.0905,3.572 0.6195,2.913 2.0805,7.078 2.4819,7.078 0.105,0 1.3725,-0.961 2.8155,-2.135 z m -20.1288,-101.864 c 0.6705,-0.623 1.6634,-2 2.2055,-3.063 1.6879,-3.309 5.2734,-8.117 6.8623,-9.203 2.36,-1.614 5.4866,-4.697 7.5191,-7.414 1.0185,-1.361 2.8707,-3.16 4.117,-3.998 3.5637,-2.394 5.81,-4.751 7.0901,-7.441 1.2495,-2.626 4.4821,-5.826 7.3827,-7.309 1.3815,-0.707 1.7967,-1.247 2.0643,-2.69 0.429,-2.316 2.2174,-4.66 4.4493,-5.834 2.1025,-1.106 6.43,-5.483 8.4217,-8.518 1.3635,-2.078 2.6376,-3.146 5.8484,-4.901 1.023,-0.559 1.6473,-1.449 2.2135,-3.153 0.438,-1.318 1.452,-2.984 2.2799,-3.745 0.8205,-0.755 2.427,-2.294 3.5704,-3.421 1.143,-1.128 2.8754,-2.574 3.8487,-3.214 0.9735,-0.641 2.748,-2.505 3.944,-4.142 1.1955,-1.637 3.3954,-3.834 4.8874,-4.882 1.4925,-1.047 3.3191,-2.822 4.0602,-3.942 0.741,-1.12 2.0781,-2.575 2.9709,-3.233 0.8925,-0.659 2.0858,-2.1 2.651,-3.202 1.4055,-2.744 3.4579,-4.575 5.9383,-5.299 1.8489,-0.54 2.2698,-0.947 3.7496,-3.615 1.11,-2.001 3.5907,-4.932 7.4187,-8.765 3.702,-3.706 6.1378,-6.568 6.8347,-8.032 1.248,-2.62 15.8579,-17.369 19.782,-19.971 1.8288,-1.212 2.5373,-2.053 3.1256,-3.71 1.1985,-3.378 2.2719,-4.648 5.0271,-5.952 1.755,-0.831 2.8156,-1.699 3.3558,-2.751 0.435,-0.846 1.7766,-2.804 2.9832,-4.352 1.7193,-2.207 2.8354,-3.108 5.1628,-4.169 2.5362,-1.156 3.1392,-1.683 4.1352,-3.614 0.642,-1.243 2.627,-3.739 4.4127,-5.545 1.7856,-1.806 3.8295,-4.158 4.542,-5.225 0.726,-1.086 2.4015,-2.589 3.81,-3.416 1.383,-0.811 3.2144,-2.425 4.0695,-3.586 0.855,-1.161 2.7842,-3.605 4.2863,-5.433 1.5022,-1.827 3.4948,-4.399 4.4281,-5.715 2.9798,-4.2 9.0801,-10.091 10.8488,-10.475 1.0875,-0.237 1.8814,-0.837 2.5065,-1.896 0.5025,-0.852 1.9789,-2.448 3.2799,-3.545 1.3005,-1.096 3.3729,-3.432 4.6039,-5.189 5.4743,-7.813 7.0247,-9.682 9.1997,-11.091 1.4955,-0.969 2.7295,-2.288 3.5466,-3.789 0.717,-1.317 1.9969,-2.762 2.9898,-3.375 2.1889,-1.353 13.7151,-12.901 15.6114,-15.642 0.7815,-1.128 2.9452,-3.422 4.8097,-5.097 1.8645,-1.675 4.215,-4.185 5.2235,-5.576 1.008,-1.392 2.5279,-2.985 3.3769,-3.542 0.8565,-0.561 1.9478,-1.925 2.4522,-3.066 1.0635,-2.403 3.2834,-4.428 5.3535,-4.883 1.137,-0.249 2.1273,-1.236 4.4168,-4.393 1.6233,-2.24 3.4872,-4.523 4.1421,-5.073 0.6555,-0.551 2.6908,-2.53 4.5244,-4.398 1.8335,-1.868 4.0335,-3.869 4.8887,-4.446 1.6944,-1.143 3.2889,-3.728 2.6527,-4.299 -0.7185,-0.645 -4.8183,-1.438 -7.3951,-1.432 -1.3905,0 -3.7064,0.322 -5.147,0.709 -3.6763,0.987 -5.5725,0.882 -8.47,-0.466 -3.5072,-1.633 -6.3938,-1.926 -9.9344,-1.007 -3.7278,0.968 -6.7668,0.962 -10.2591,-0.01 -2.1052,-0.591 -3.3135,-0.672 -5.0319,-0.339 -2.5176,0.489 -8.8456,0.105 -13.2151,-0.816 -3.2,-0.669 -5.1684,-0.718 -8.3838,-0.211 -1.5225,0.24 -3.0123,0.105 -4.8761,-0.434 -1.476,-0.429 -4.0257,-0.757 -5.6658,-0.73 -10.8112,0.178 -16.1701,0.08 -18.4446,-0.368 -3.1794,-0.612 -3.8254,-0.402 -3.8254,1.244 0,0.702 -0.4515,2.126 -1.002,3.163 -1.5236,2.87 -1.6872,11.469 -0.3165,16.651 0.882,3.335 1.32,4.138 3.5158,6.442 1.38,1.448 2.7354,3.23 3.0129,3.96 0.7905,2.077 0.5955,5.064 -0.4725,7.27 -1.068,2.206 -5.0071,5.841 -7.7436,7.146 -1.7118,0.816 -5.2554,4.9 -6.7362,7.764 -0.948,1.834 -5.1423,5.186 -9.546,7.63 -1.8336,1.019 -4.0729,2.62 -4.9762,3.561 -0.924,0.963 -2.7819,2.137 -4.2485,2.686 -3.4861,1.305 -6.9735,4.307 -8.4823,7.303 -0.6735,1.34 -2.0025,3.312 -2.9514,4.384 -0.9495,1.071 -2.3259,2.735 -3.0599,3.696 -0.7515,0.986 -2.5569,2.366 -4.1329,3.161 -1.539,0.777 -3.1166,1.867 -3.5058,2.423 -0.3885,0.555 -1.479,1.534 -2.4216,2.175 -0.942,0.64 -2.5769,2.53 -3.6311,4.199 -2.2612,3.581 -5.0002,6.184 -7.7533,7.369 -2.423,1.043 -6.0132,4.797 -7.6193,7.967 -1.7281,3.41 -5.3974,7.274 -8.0953,8.523 -1.6608,0.77 -2.7725,1.749 -3.921,3.455 -1.6256,2.414 -3.4491,3.999 -5.5052,4.785 -2.8381,1.084 -13.8651,11.557 -15.9928,15.188 -0.6615,1.128 -2.1282,2.688 -3.2601,3.467 -1.1325,0.779 -2.5205,2.065 -3.0854,2.859 -0.5655,0.793 -2.2401,2.059 -3.7225,2.814 -2.1446,1.092 -2.9315,1.825 -3.8502,3.589 -1.179,2.264 -8.4482,9.525 -12.3165,12.303 -1.2855,0.924 -3.1035,3.065 -4.7177,5.559 -2.9805,4.604 -8.488,10.131 -11.3811,11.421 -1.071,0.479 -2.7858,1.895 -3.81,3.147 -1.0245,1.253 -3.1848,3.579 -4.801,5.17 -1.6164,1.59 -3.3794,3.784 -3.9179,4.874 -0.5385,1.091 -1.8949,2.734 -3.0144,3.652 -1.119,0.918 -3.3192,3.415 -4.888,5.549 -1.6343,2.222 -3.7703,4.484 -5.0007,5.294 -1.182,0.779 -2.6925,2.209 -3.3581,3.179 -0.666,0.971 -2.115,2.372 -3.2209,3.115 -1.1055,0.742 -2.3597,2.031 -2.7863,2.862 -1.074,2.095 -6.7441,7.613 -8.6008,8.371 -0.936,0.382 -2.1104,1.528 -3.0224,2.949 -0.8205,1.278 -2.5212,3.187 -3.7795,4.24 -2.1039,1.762 -2.6651,1.973 -6.9789,2.623 -6.3552,0.958 -9.4871,0.892 -12.0059,-0.251 -1.6564,-0.751 -3.1122,-0.942 -7.203,-0.942 -3.2146,0 -5.8426,-0.252 -7.0462,-0.676 -1.2105,-0.428 -3.5637,-0.651 -6.3701,-0.606 -2.9389,0.04 -4.8346,-0.15 -5.5804,-0.561 -2.435,-1.364 -9.1068,-2.85 -11.6382,-2.592 -1.6419,0.168 -3.4319,-0.03 -5.3297,-0.594 -2.1817,-0.645 -4.4125,-0.834 -9.4319,-0.797 -4.4556,0.03 -7.2951,-0.169 -8.8106,-0.63 -1.23,-0.373 -3.798,-0.681 -5.7067,-0.684 -2.6421,0 -4.5377,-0.367 -7.9406,-1.525 -4.4412,-1.511 -4.4947,-1.517 -8.2939,-0.9 -2.8226,0.459 -4.422,0.49 -6.1088,0.12 -1.257,-0.275 -4.1067,-0.629 -6.3331,-0.788 -2.2265,-0.159 -5.3246,-0.618 -6.8847,-1.021 -1.9508,-0.504 -3.81,-0.639 -5.9532,-0.432 -2.5178,0.243 -3.9857,0.06 -7.6409,-0.921 -2.4883,-0.672 -6.2388,-1.548 -8.3343,-1.945 -2.0955,-0.397 -5.1346,-1.05 -6.7537,-1.452 -2.2694,-0.564 -3.3602,-0.615 -4.7625,-0.226 -3.0552,0.849 -6.3398,0.591 -9.4388,-0.738 -2.1322,-0.915 -3.885,-1.269 -6.9057,-1.394 -10.9279,-0.45 -16.6558,-1.05 -17.9178,-1.877 -1.023,-0.67 -1.7569,-0.763 -3.7041,-0.471 -3.7171,0.557 -5.5557,0.368 -9.199,-0.946 -1.8404,-0.665 -4.2846,-1.211 -5.4317,-1.215 -1.1475,0 -2.9949,-0.279 -4.1065,-0.612 -1.4715,-0.44 -3.2841,-0.497 -6.6675,-0.21 -5.8625,0.498 -7.2665,0.28 -10.1636,-1.579 -2.302,-1.477 -2.3871,-1.492 -5.3557,-0.976 -4.2021,0.732 -7.0341,0.655 -9.1905,-0.246 -1.3455,-0.563 -2.642,-0.698 -4.7952,-0.497 -1.947,0.182 -3.8105,0.03 -5.477,-0.435 -1.389,-0.39 -4.026,-0.913 -5.8594,-1.164 -1.8336,-0.25 -4.6197,-0.672 -6.1913,-0.936 -1.5717,-0.264 -5.2431,-0.697 -8.1588,-0.964 l -5.3013,-0.485 -2.4856,1.673 c -1.9199,1.292 -2.9697,1.673 -4.6122,1.673 -2.5472,0 -3.5994,-0.492 -6.1121,-2.857 -1.3005,-1.224 -2.9623,-2.13 -5.2387,-2.856 -2.9192,-0.932 -3.7086,-1.457 -6.3464,-4.224 -1.6567,-1.738 -3.5749,-4.124 -4.2624,-5.303 -0.687,-1.179 -2.1715,-3.288 -3.2979,-4.687 -1.1265,-1.4 -2.0478,-2.739 -2.0478,-2.977 0,-1.407 -4.0914,0.231 -5.7079,2.286 -1.3485,1.714 -3.1556,2.89 -5.3822,3.5 -1.335,0.366 -2.238,1.1 -3.4746,2.821 -1.107,1.542 -2.4271,2.682 -3.9117,3.38 -1.233,0.579 -2.9905,1.762 -3.9073,2.628 -0.9165,0.866 -2.5241,1.927 -3.5718,2.357 -1.0485,0.43 -2.5052,1.351 -3.2387,2.047 -0.7335,0.696 -2.448,1.801 -3.81,2.456 -1.992,0.959 -2.9191,1.843 -4.7398,4.524 -2.9489,4.344 -5.3156,6.541 -8.2304,7.642 -1.3005,0.49 -3.6508,1.892 -5.2224,3.113 -1.5717,1.221 -3.7801,2.686 -4.9075,3.256 -1.248,0.632 -2.6451,1.91 -3.572,3.27 -2.307,3.384 -3.9366,4.738 -6.6621,5.533 -1.9372,0.565 -3.1048,1.36 -5.3371,3.637 -1.5717,1.603 -3.8355,3.417 -5.0306,4.03 -2.0259,1.04 -3.682,2.458 -3.2527,2.784 0.105,0.08 1.2105,0.522 2.4622,0.985 1.9392,0.719 2.6178,0.761 4.5948,0.287 1.6878,-0.405 2.819,-0.417 4.1541,-0.05 1.0095,0.28 3.2331,0.51 4.9424,0.511 2.4858,0 3.6771,0.285 5.953,1.416 1.565,0.777 3.3345,1.421 3.9323,1.428 0.5985,0 1.8411,0.33 2.763,0.716 1.35,0.564 2.1214,0.597 3.9642,0.172 1.9072,-0.441 2.7388,-0.387 4.9974,0.324 2.2824,0.719 3.7758,0.81 9.4746,0.581 5.2603,-0.212 7.1217,-0.12 8.3677,0.405 0.882,0.372 2.5347,0.676 3.6743,0.676 1.14,0 3.0151,0.321 4.168,0.711 1.1535,0.392 4.041,0.914 6.4179,1.16 2.3769,0.246 4.8005,0.703 5.3856,1.017 1.077,0.576 8.6597,1 16.2269,0.909 2.4742,-0.03 4.5804,0.186 5.2387,0.538 0.606,0.324 2.5193,0.626 4.2525,0.669 2.3625,0.06 3.5966,0.354 4.9305,1.179 1.7357,1.073 1.8789,1.085 5.8532,0.467 3.7011,-0.576 4.2742,-0.557 6.2613,0.213 3.6807,1.426 5.8282,2.059 10.0455,2.963 4.2388,0.909 6.2568,0.99 10.2873,0.416 1.9591,-0.279 2.8693,-0.152 4.704,0.66 2.5819,1.141 3.7212,1.225 6.6634,0.484 1.6889,-0.426 2.5901,-0.37 4.8543,0.297 5.621,1.657 8.3966,2.144 10.5794,1.859 1.4985,-0.197 3.376,0.02 5.8746,0.678 3.1228,0.822 4.5618,0.924 9.6147,0.685 4.6047,-0.217 6.5653,-0.12 8.7102,0.467 1.5222,0.411 4.9108,0.889 7.5303,1.062 2.6193,0.172 5.6808,0.618 6.8031,0.99 1.122,0.372 3.4332,0.676 5.1349,0.676 1.7978,0 3.8363,0.323 4.865,0.768 3.1408,1.364 8.142,2.031 10.9213,1.458 2.2244,-0.457 2.7705,-0.391 5.2388,0.639 1.9971,0.834 4.1976,1.256 7.9944,1.533 2.8812,0.21 7.7032,0.564 10.7155,0.783 3.0123,0.221 7.1721,0.86 9.2441,1.419 2.5798,0.698 5.1636,1.019 8.1985,1.019 2.9256,0 5.2061,0.271 6.7104,0.799 2.4614,0.863 3.0752,0.918 12.042,1.074 4.7352,0.07 6.6353,0.329 9.287,1.202 1.8334,0.604 5.2099,1.473 7.5033,1.931 3.5365,0.706 4.4946,0.742 6.3103,0.234 3.1379,-0.879 5.9121,-0.402 8.6271,1.483 2.2631,1.571 2.4308,1.609 6.3723,1.452 7.5387,-0.301 14.7373,-0.09 25.4794,0.75 5.6576,0.443 7.9292,1.109 9.2657,2.72 0.513,0.618 1.272,0.697 4.2591,0.448 3.1989,-0.267 4.2804,-0.12 9.0096,1.22 2.9559,0.837 6.0601,1.471 6.8982,1.41 0.8385,-0.06 3.0409,0.05 4.8954,0.244 2.2063,0.234 4.0975,0.162 5.472,-0.208 1.7104,-0.461 3.1176,-0.417 7.582,0.235 6.1139,0.894 10.8923,1.905 13.6482,2.887 1.0095,0.36 3.143,0.663 4.7418,0.675 2.4167,0.02 3.1127,-0.169 4.1268,-1.11 z m -29.5372,-88.167 c 1.458,-2.378 2.7549,-3.811 4.5283,-5.001 1.3665,-0.916 3.0033,-2.428 3.636,-3.359 0.633,-0.932 1.8717,-2.188 2.7536,-2.792 0.882,-0.604 2.1714,-1.889 2.8657,-2.855 0.6945,-0.966 2.0834,-2.174 3.0863,-2.685 3.4951,-1.78 5.9773,-3.794 6.8967,-5.596 0.5085,-0.997 1.6119,-2.737 2.4505,-3.866 0.8385,-1.128 1.8813,-2.709 2.3169,-3.512 0.435,-0.803 1.5072,-1.824 2.3813,-2.267 2.9514,-1.499 6.157,-4.246 7.6284,-6.539 0.8055,-1.254 2.8057,-3.505 4.4466,-5.002 1.6408,-1.497 3.42,-3.594 3.9534,-4.66 1.1295,-2.254 4.0084,-4.996 6.679,-6.358 1.0305,-0.525 2.6571,-2.024 3.6155,-3.329 0.9585,-1.305 2.4892,-2.835 3.402,-3.4 0.9135,-0.564 2.1097,-1.915 2.6599,-3.001 1.3065,-2.581 13.4637,-14.419 15.5099,-15.103 1.185,-0.396 1.8924,-1.179 3.0819,-3.411 1.158,-2.173 2.1433,-3.283 3.9391,-4.438 1.317,-0.848 2.927,-2.114 3.5774,-2.814 0.651,-0.701 1.9362,-1.728 2.8575,-2.284 0.921,-0.557 3.2823,-2.431 5.2468,-4.167 1.9646,-1.735 4.322,-3.662 5.2388,-4.28 2.3808,-1.606 3.6637,-3.253 4.5405,-5.828 1.119,-3.284 4.606,-6.926 8.1897,-8.551 2.3662,-1.073 3.1576,-1.719 3.9078,-3.19 0.9165,-1.795 6.8233,-7.318 8.8048,-8.231 0.5445,-0.251 1.5912,-1.299 2.3271,-2.33 0.7365,-1.031 2.3433,-2.457 3.572,-3.17 1.2285,-0.712 2.3067,-1.468 2.3959,-1.681 0.09,-0.211 0.9735,-1.612 1.9635,-3.113 0.99,-1.5 2.0483,-3.498 2.3501,-4.438 0.336,-1.049 1.7415,-2.851 3.6324,-4.659 1.696,-1.622 3.0837,-3.19 3.0837,-3.484 0,-0.294 0.5475,-1.254 1.218,-2.132 1.2945,-1.696 3.9855,-3.289 7.1163,-4.211 1.516,-0.447 2.2693,-1.107 3.6906,-3.235 1.9273,-2.886 4.1878,-4.457 8.3401,-5.797 2.9255,-0.943 7.0355,-4.453 8.8599,-7.566 0.783,-1.337 1.955,-2.449 3.371,-3.201 1.194,-0.633 2.1663,-1.473 2.1615,-1.866 -0.012,-0.957 -1.359,-8.562 -1.73,-9.764 -0.162,-0.523 -0.936,-2.319 -1.722,-3.99 -1.2705,-2.703 -1.3965,-3.368 -1.1475,-6.047 0.1995,-2.127 0.06,-3.656 -0.471,-5.215 -0.4725,-1.386 -0.6495,-2.945 -0.4755,-4.193 0.1515,-1.092 0.03,-5.136 -0.255,-8.985 -0.471,-6.202 -0.441,-7.234 0.258,-9.065 0.4335,-1.137 0.789,-2.901 0.789,-3.921 v -1.856 l -1.6681,1.949 c -0.918,1.072 -2.6856,2.433 -3.9291,3.024 -3.5777,1.703 -6.138,3.62 -7.2615,5.438 -0.5715,0.924 -1.9674,2.319 -3.1029,3.1 -1.4445,0.993 -2.4156,2.188 -3.2333,3.974 -1.209,2.639 -3.2815,4.572 -5.8081,5.415 -0.786,0.263 -3.4121,2.446 -5.8361,4.853 -2.4241,2.406 -5.2156,4.74 -6.2035,5.185 -1.7219,0.775 -14.9069,13.952 -17.8254,17.814 -0.7095,0.939 -2.5844,2.552 -4.1666,3.586 -1.9852,1.298 -3.5938,2.899 -5.1912,5.17 -1.4385,2.045 -3.3471,4.011 -5.0424,5.195 -1.5003,1.047 -3.6201,2.681 -4.7107,3.629 -1.0905,0.948 -2.8499,2.163 -3.9093,2.699 -2.1614,1.093 -5.9318,4.934 -5.9318,6.043 0,0.397 -0.777,1.583 -1.7257,2.634 -1.248,1.381 -2.4365,2.116 -4.2951,2.657 -2.1444,0.624 -2.7213,1.036 -3.4877,2.496 -0.5055,0.962 -2.2789,3.154 -3.9421,4.87 -2.2526,2.324 -3.6786,3.357 -5.5902,4.048 -2.2347,0.808 -2.8389,1.327 -4.6788,4.019 -2.1528,3.15 -2.8352,3.798 -5.7684,5.484 -0.9135,0.525 -2.3939,1.919 -3.2882,3.096 -0.894,1.177 -2.9083,3.026 -4.4754,4.108 -3.6255,2.504 -9.2682,7.937 -11.7922,11.354 -1.7694,2.395 -2.5391,2.939 -8.1252,5.738 -6.5789,3.296 -6.5525,3.272 -10.5647,9.658 -2.502,3.981 -5.6482,7.337 -8.8297,9.418 -1.5027,0.982 -3.6278,2.704 -4.7225,3.825 -1.095,1.121 -2.9163,2.503 -4.048,3.071 -1.1325,0.567 -2.5557,1.651 -3.1643,2.408 -0.609,0.758 -2.1085,1.948 -3.3337,2.646 -1.2255,0.699 -2.7314,1.716 -3.3473,2.262 -1.38,1.222 -4.1109,6.546 -5.2708,10.273 -0.4755,1.527 -1.293,3.385 -1.8162,4.13 -0.5235,0.744 -1.0995,2.357 -1.278,3.585 -0.18,1.228 -0.852,3.005 -1.4925,3.95 -0.864,1.272 -1.1685,2.362 -1.1745,4.198 -0.01,1.885 -0.3465,3.049 -1.4205,4.86 -1.6229,2.736 -1.7333,3.937 -0.6525,7.107 0.5955,1.747 0.6915,3.015 0.4125,5.443 -0.492,4.284 -0.4125,7.422 0.2145,8.596 0.2865,0.535 0.7245,2.048 0.975,3.362 0.297,1.563 1.4025,3.87 3.2047,6.682 1.5137,2.362 3.6866,5.804 4.829,7.648 1.143,1.845 2.2632,3.291 2.4907,3.213 0.228,-0.07 1.3335,-1.641 2.4564,-3.475 z"
       id="vctrly-chalky-icon-book" /></g></svg>
