<?xml version="1.0" encoding="UTF-8" standalone="no"?>
<svg
   width="2897.0046"
   height="2963.0305"
   viewBox="0 0 2897.0047 2963.0305"
   version="1.1"
   xml:space="preserve"
   style="clip-rule:evenodd;fill-rule:evenodd;stroke-linejoin:round;stroke-miterlimit:2"
   id="svg5353"
   xmlns="http://www.w3.org/2000/svg"
   xmlns:svg="http://www.w3.org/2000/svg"><defs
   id="defs5353" />&#10;    <g
   id="vectorly-UNI-todo-list-checklist"
   transform="matrix(4.9999999,0,0,4.9999999,-16108.808,-84704.841)"
   style="stroke-width:0.2"><path
     d="m 3466.8126,17083.709 c 21.6299,-1.5 52.1198,-1.8 83.3398,-1.2 63.4398,1.2 129.7796,5.7 129.7796,5.7 1.93,0 3.44,1.7 3.36,3.6 -0.07,1.9 -1.71,3.4 -3.64,3.4 0,0 -66.2598,-0.9 -129.5096,0.2 -32.55,0.6 -64.2899,1.6 -85.6398,4 -5.54,0.6 -9.39,-1.9 -11.7,-6.9 -2.07,-4.5 -2.04,-13.6 0.6,-24.3 3.11,-12.7 9.28,-28 15.99,-39 4.52,-7.4 9.4899,-13 13.8399,-15.5 2.29,-1.3 7.03,-2.8 13.77,-4 10.87,-1.9 27.8199,-3.6 47.1699,-4.9 55.9598,-3.8 131.9697,-4.8 137.2696,-3.9 6.58,1.2 11.71,4.5 15.6,8.7 8.6,9.2 11.03,22.5 11.03,22.5 0.38,1.9 -0.85,3.8 -2.75,4.1 -1.89,0.4 -3.74,-0.8 -4.12,-2.7 0,0 -2,-8.6 -7.69,-15.7 -3.13,-3.9 -7.49,-7.3 -13.46,-8.1 -4.6499,-0.7 -63.8198,2.8 -115.3997,7.4 -24.2399,2.2 -46.7899,4.5 -61.1798,7.1 -6.07,1 -10.44,1.9 -12.26,3 -1.86,1.1 -3.67,3.4 -5.62,6.2 -2.72,3.9 -5.39,8.8 -7.87,14.1 -5.9899,12.8 -10.9599,27.7 -10.9099,36.2 z m -3.75,0.3 c -0.01,0 -0.03,0 -0.04,0 0.01,0 0.03,0 0.04,0 z"
     id="path4930"
     style="stroke:none;stroke-width:0.2" /><path
     d="m 3717.9119,17074.409 c -1.9299,0.1 -3.5799,-1.4 -3.6699,-3.3 -0.1,-1.9 1.39,-3.6 3.3299,-3.7 9.3,-0.8 15.37,1 19.08,5.4 3.15,3.7 4.66,9.8 4.33,19.2 -0.09,2.3 -0.21,22 -0.64,50.9 -0.22,14.9 -0.5,32.3 -0.96,51 -0.31,13 -0.7,26.8 -1.22,40.7 -0.34,9 -0.74,18.1 -1.22,27.2 -1.22,23.2 -2.68,46.4 -4.1,67.8 -3.77,57.1 -7.29,101.8 -7.29,101.8 -0.08,1.9 -1.71,3.4 -3.64,3.4 -1.94,-0.1 -3.44,-1.8 -3.36,-3.7 0,0 0.16,-44.8 1.11,-102 0.36,-21.5 0.81,-44.7 1.52,-68 0.27,-9.1 0.63,-18.2 1.04,-27.1 0.64,-14 1.4,-27.7 2.18,-40.8 1.11,-18.6 2.29,-36 3.33,-50.9 2.03,-29 3.63,-48.7 3.86,-51 0.68,-6.4 0.59,-10.7 -1.39,-13.4 -2.18,-3 -6.28,-3.6 -12.29,-3.5 z"
     id="path4932"
     style="stroke:none;stroke-width:0.2" /><path
     d="m 3402.0827,17094.509 c -0.13,0.5 -1.26,4.8 -1.94,8.9 -2.96,18.1 -6.5099,56.3 -10.0899,101.6 -4.2,53.1 -8.23,115.7 -10.98,166.8 -1.55,28.7 -2.75,53.8 -3.11,71.3 -0.18,8.9 -0.2,15.7 0.08,19.9 3.28,0.6 8.15,0.9 14.31,1.2 19.1299,0.8 49.0498,0.2 83.1898,-1 97.0397,-3.4 227.9794,-12.3 243.6694,-14.5 1.9099,-0.3 3.6999,1 3.9899,3 0.3,1.9 -1.02,3.7 -2.93,3.9 -15.6699,2.7 -146.7596,16.1 -244.0693,21.7 -34.63,2.1 -64.9999,3 -84.4398,2.4 -11.97,-0.4 -20.25,-1.7 -23.72,-3.2 -1.42,-0.7 -3.72,-2.2 -4.83,-5.9 -0.57,-2 -1.08,-6.2 -1.21,-12.3 -0.4,-18.3 1.36,-57.2 4.57,-103 2.64,-37.5 6.28,-79.8 10.11,-119.3 4.68,-48.2 9.75,-92.4 13.77,-119 1.78,-11.8 3.39,-20.2 4.69,-24.2 0.73,-2.3 1.59,-3.6 2.2099,-4.3 3.68,-3.6 10.95,-6 19.76,-7.2 14.97,-2.1 34.4999,-1.1 43.8999,-1 1.93,0 3.5,1.6 3.5,3.5 0.01,2 -1.56,3.6 -3.5,3.6 -7.94,0.1 -23.31,-0.1 -36.7299,1.4 -8.7,0.9 -16.59,2.3 -20.2,5.7 z m -29.4399,367.6 z"
     id="path4934"
     style="stroke:none;stroke-width:0.2" /><path
     d="m 3790.4918,17050.709 c -0.46,-0.2 -0.96,-0.3 -1.42,-0.4 -14.22,-3.2 -51.3999,-2.8 -60.4599,1.3 -1.75,0.8 -3.84,0.1 -4.68,-1.7 -0.83,-1.7 -0.1,-3.8 1.65,-4.6 8.31,-4.3 39.6599,-7 57.9299,-5.9 7.62,0.5 13.2,2.2 15.2199,3.9 1.95,1.6 2.52,3.6 2.42,5.5 -0.1,1.9 -0.99,38.7 -2.85,90.5 -0.9799,27 -2.1599,58.1 -3.7099,90.5 -0.69,14.3 -1.52,28.9 -2.39,43.4 -1.31,22 -2.75,44 -4.2,65.1 -6.03,88.4 -11.7,162.7 -11.7,162.7 -0.1,2 -1.75,3.5 -3.68,3.4 -1.93,-0.1 -3.42,-1.8 -3.32,-3.7 0,0 1.88,-74.5 4.86,-163.1 0.71,-21.2 1.5,-43.2 2.43,-65.2 0.62,-14.5 1.28,-29.1 2.05,-43.4 1.76,-32.4 3.75,-63.5 5.54,-90.5 2.98,-44.8 5.55,-78.3 6.31,-87.8 z m 0.22,-2.7 z"
     id="path4936"
     style="stroke:none;stroke-width:0.2" /><path
     d="m 3364.8528,17072.509 c -1.59,10.5 -6.54,130.4 -10.5299,244.2 -1.2,34.3 -2.34,68.1 -3.26,98.2 -0.77,25 -1.42,47.4 -1.74,65.4 -0.31,17.3 -0.37,30.5 0.02,37.8 7.7299,0.1 21.8999,-0.1 40.3999,-0.5 46.8498,-1 121.1497,-3.3 189.0195,-5.6 79.4898,-2.6 150.1096,-5.2 157.1296,-6.2 1.91,-0.3 3.71,1 4.02,2.9 0.3,1.9 -1,3.7 -2.91,4 -9.32,1.6 -130.7597,9.3 -236.4794,14.8 -60.4899,3.1 -115.8197,5.5 -141.9797,6 -7.2299,0.1 -12.3199,0.1 -14.8199,-0.1 -2.11,-0.1 -3.43,-0.5 -3.99,-0.7 -1.34,-0.6 -3.78,-2 -4.92,-5.8 -0.46,-1.6 -0.92,-5 -1.16,-10 -0.66,-14.2 -0.37,-44.3 0.84,-82.5 1.34,-42.2 3.74,-94.2 6.47,-145.7 5.72,-107.9 13.02,-213.1 14.5199,-219 0.53,-2.1 2.09,-4.3 5.18,-6.1 3.63,-2 10.02,-3.9 18.01,-5.3 29.5499,-5.2 82.2998,-6 87.0698,-5.4 1.92,0.1 3.33,1.9 3.13,3.8 -0.2,1.9 -1.92,3.3 -3.84,3.1 -3.66,-0.3 -36.0499,1 -63.6999,4.3 -13.3299,1.6 -25.5299,3.7 -32.6799,6.4 -1.51,0.6 -3.21,1.6 -3.8,2 z"
     id="path4938"
     style="stroke:none;stroke-width:0.2" /><path
     d="m 3278.563,16947.209 c -1.52,-1.2 -1.78,-3.4 -0.59,-4.9 1.2,-1.5 3.41,-1.8 4.93,-0.6 0,0 14.34,8.8 32.2499,21 4.08,2.7 8.28,5.7 12.53,8.8 2.72,2 5.48,4 8.14,6.2 6.8,5.5 13.32,11.3 19.3299,16.7 16.06,14.5 28.03,26.3 28.03,26.3 1.52,1.2 1.78,3.4 0.58,4.9 -1.19,1.6 -3.4,1.8 -4.92,0.6 0,0 -14.31,-8.8 -32.1399,-21.1 -6.67,-4.5 -13.83,-9.5 -20.78,-14.9 -2.71,-2 -5.32,-4.2 -7.9,-6.4 -4.0199,-3.4 -7.8999,-6.8 -11.5399,-10.1 -15.99,-14.6 -27.92,-26.5 -27.92,-26.5 z"
     id="path4940"
     style="stroke:none;stroke-width:0.2" /><path
     d="m 3224.2432,17074.209 c -1.85,-0.6 -2.89,-2.5 -2.33,-4.4 0.56,-1.8 2.53,-2.9 4.38,-2.3 0,0 14.3699,2.3 32.6999,6.3 4.17,0.9 8.5,2 12.91,3.1 2.8199,0.8 5.6899,1.5 8.4999,2.4 7.21,2.3 14.26,5 20.78,7.6 17.4599,6.8 30.7099,12.8 30.7099,12.8 1.85,0.6 2.9,2.6 2.33,4.4 -0.56,1.9 -2.52,2.9 -4.37,2.4 0,0 -14.37,-2.5 -32.6599,-6.5 -6.83,-1.6 -14.18,-3.3 -21.46,-5.4 -2.8399,-0.8 -5.6299,-1.8 -8.3899,-2.7 -4.3,-1.6 -8.48,-3.1 -12.44,-4.7 -17.43,-6.9 -30.6599,-13 -30.6599,-13 z"
     id="path4942"
     style="stroke:none;stroke-width:0.2" /><path
     d="m 3248.3231,17200.709 c -1.76,0.8 -3.85,0.1 -4.67,-1.7 -0.82,-1.7 -0.06,-3.8 1.69,-4.7 0,0 8.23,-6 19.52,-13 2.54,-1.6 5.24,-3.1 8.06,-4.6 1.7999,-1 3.6299,-2 5.5199,-2.8 4.86,-2.2 9.84,-4 14.5,-5.5 12.54,-4.3 22.4099,-6.9 22.4099,-6.9 1.75,-0.8 3.84,0 4.66,1.7 0.83,1.8 0.07,3.8 -1.68,4.7 0,0 -8.2699,5.9 -19.5899,12.8 -4.21,2.6 -8.75,5.3 -13.51,7.6 -1.86,1 -3.78,1.7 -5.68,2.5 -2.98,1.2 -5.8999,2.3 -8.7499,3.2 -12.61,4.2 -22.48,6.7 -22.48,6.7 z"
     id="path4944"
     style="stroke:none;stroke-width:0.2" /><path
     d="m 3438.5926,17148.309 c -0.89,-1.7 -0.24,-3.9 1.48,-4.8 1.71,-0.9 3.83,-0.2 4.73,1.5 1.09,1.5 2.72,4 5.07,5.3 0.52,0.3 1.1,0 1.8,-0.2 1.32,-0.4 2.51,-1.6 4.24,-3.3 1.65,-1.6 4.58,-4.2 8.47,-7.3 2.55,-2 5.46,-4.3 8.72,-6.5 3.8299,-2.6 8.0899,-5.1 12.4199,-7.5 5.56,-3.1 11.21,-5.8 16.35,-8.1 8.14,-3.7 14.8399,-6.1 18.0699,-6.5 1.88,-0.5 3.78,0.7 4.23,2.6 0.46,1.8 -0.69,3.7 -2.57,4.2 -3.08,1.2 -9.1699,6 -16.7299,11.7 -5.4,4 -11.21,8.7 -17.04,12.8 -3.22,2.3 -6.46,4.4 -9.48,6.3 -6.4699,4 -11.9599,6.9 -14.4799,8.5 -7.49,4.5 -12.59,4.9 -16.29,3.1 -2.29,-1 -4.26,-2.5 -5.61,-4.5 -1.65,-2.5 -2.67,-5.4 -3.38,-7.3 z"
     id="path4946"
     style="stroke:none;stroke-width:0.2" /><path
     d="m 3438.5926,17240.287 c -0.89,-1.7 -0.24,-3.9 1.48,-4.8 1.71,-0.9 3.83,-0.2 4.73,1.5 1.09,1.5 2.72,4 5.07,5.3 0.52,0.3 1.1,0 1.8,-0.2 1.32,-0.4 2.51,-1.6 4.24,-3.3 1.65,-1.6 4.58,-4.2 8.47,-7.3 2.55,-2 5.46,-4.3 8.72,-6.5 3.8299,-2.6 8.0899,-5.1 12.4199,-7.5 5.56,-3.1 11.21,-5.8 16.35,-8.1 8.14,-3.7 14.8399,-6.1 18.0699,-6.5 1.88,-0.5 3.78,0.7 4.23,2.6 0.46,1.8 -0.69,3.7 -2.57,4.2 -3.08,1.2 -9.1699,6 -16.7299,11.7 -5.4,4 -11.21,8.7 -17.04,12.8 -3.22,2.3 -6.46,4.4 -9.48,6.3 -6.4699,4 -11.9599,6.9 -14.4799,8.5 -7.49,4.5 -12.59,4.9 -16.29,3.1 -2.29,-1 -4.26,-2.5 -5.61,-4.5 -1.65,-2.5 -2.67,-5.4 -3.38,-7.3 z"
     id="path4948"
     style="stroke:none;stroke-width:0.2" /><path
     d="m 3438.5926,17332.265 c -0.89,-1.7 -0.24,-3.9 1.48,-4.8 1.71,-0.9 3.83,-0.2 4.73,1.5 1.09,1.5 2.72,4 5.07,5.3 0.52,0.3 1.1,0 1.8,-0.2 1.32,-0.4 2.51,-1.6 4.24,-3.3 1.65,-1.6 4.58,-4.2 8.47,-7.3 2.55,-2 5.46,-4.3 8.72,-6.5 3.8299,-2.6 8.0899,-5.1 12.4199,-7.5 5.56,-3.1 11.21,-5.8 16.35,-8.1 8.14,-3.7 14.8399,-6.1 18.0699,-6.5 1.88,-0.5 3.78,0.7 4.23,2.6 0.46,1.8 -0.69,3.7 -2.57,4.2 -3.08,1.2 -9.1699,6 -16.7299,11.7 -5.4,4 -11.21,8.7 -17.04,12.8 -3.22,2.3 -6.46,4.4 -9.48,6.3 -6.4699,4 -11.9599,6.9 -14.4799,8.5 -7.49,4.5 -12.59,4.9 -16.29,3.1 -2.29,-1 -4.26,-2.5 -5.61,-4.5 -1.65,-2.5 -2.67,-5.4 -3.38,-7.3 z"
     id="path4950"
     style="stroke:none;stroke-width:0.2" /><path
     d="m 3428.9527,17164.909 c 0,0 0,0 0.01,0 0.17,0.2 0.85,0.5 0.55,0.7 -0.38,0.1 -0.53,-0.2 -0.56,-0.7 z m 3.83,-28.2 c -1.11,2 -1.83,6.9 -2.6,12.1 -0.63,4.2 -1.04,8.6 -1.01,12.4 0.01,1.1 -0.29,2.8 -0.22,3.7 -0.12,-0.1 -0.37,-0.5 -0.48,-0.3 -1.79,3.2 9.9499,2.9 16.7399,3.7 5.36,0.6 10.71,1 14.78,0.8 1.53,-0.1 2.84,-0.1 3.85,-0.3 0.21,-0.1 0.4,0.1 0.51,0 1.19,-0.7 1.99,-1.9 2.47,-3.2 1.1,-2.8 1.36,-5.7 1.36,-5.7 -0.09,-2 1.41,-3.6 3.34,-3.7 1.94,-0.1 3.57,1.4 3.66,3.4 0,0 0.5699,5.2 -0.81,10.1 -0.78,2.7 -2.37,5.1 -4.53,6.9 -1.49,1.2 -5.14,2.5 -10.04,3.3 -5.57,1 -12.98,1.5 -19.89,1.4 -6.4299,-0.1 -12.3699,-1 -16.2299,-2.2 -2.83,-0.9 -4.8,-2.4 -6.1,-3.7 -1.69,-1.7 -3.1,-4.5 -3.81,-8.1 -0.67,-3.5 -0.76,-8.1 -0.21,-13 1.21,-10.5 5.17,-22.1 7.83,-25.6 0.82,-1.1 1.88,-2.3 3.55,-3.1 1.93,-0.9 4.87,-1.9 8.54,-2.3 12.4099,-1.3 34.0099,1.1 34.0099,1.1 1.93,0 3.47,1.6 3.43,3.6 -0.04,1.9 -1.64,3.4 -3.57,3.4 0,0 -10.1,0.8 -20.14,2.3 -6.34,0.9 -17.0699,0.9 -15.3799,3.7 0.25,0.5 0.7,-0.3 0.95,-0.7 z m 0,0 c 0.03,0 0.07,-0.1 0.1,-0.2 -0.03,0.1 -0.06,0.2 -0.1,0.2 z"
     id="path4952"
     style="stroke:none;stroke-width:0.2" /><path
     d="m 3428.9527,17256.887 c 0,0 0,0 0.01,0 0.17,0.2 0.85,0.5 0.55,0.7 -0.38,0.1 -0.53,-0.2 -0.56,-0.7 z m 3.83,-28.2 c -1.11,2 -1.83,6.9 -2.6,12.1 -0.63,4.2 -1.04,8.6 -1.01,12.4 0.01,1.1 -0.29,2.8 -0.22,3.7 -0.12,-0.1 -0.37,-0.5 -0.48,-0.3 -1.79,3.2 9.9499,2.9 16.7399,3.7 5.36,0.6 10.71,1 14.78,0.8 1.53,-0.1 2.84,-0.1 3.85,-0.3 0.21,-0.1 0.4,0.1 0.51,0 1.19,-0.7 1.99,-1.9 2.47,-3.2 1.1,-2.8 1.36,-5.7 1.36,-5.7 -0.09,-2 1.41,-3.6 3.34,-3.7 1.94,-0.1 3.57,1.4 3.66,3.4 0,0 0.5699,5.2 -0.81,10.1 -0.78,2.7 -2.37,5.1 -4.53,6.9 -1.49,1.2 -5.14,2.5 -10.04,3.3 -5.57,1 -12.98,1.5 -19.89,1.4 -6.4299,-0.1 -12.3699,-1 -16.2299,-2.2 -2.83,-0.9 -4.8,-2.4 -6.1,-3.7 -1.69,-1.7 -3.1,-4.5 -3.81,-8.1 -0.67,-3.5 -0.76,-8.1 -0.21,-13 1.21,-10.5 5.17,-22.1 7.83,-25.6 0.82,-1.1 1.88,-2.3 3.55,-3.1 1.93,-0.9 4.87,-1.9 8.54,-2.3 12.4099,-1.3 34.0099,1.1 34.0099,1.1 1.93,0 3.47,1.6 3.43,3.6 -0.04,1.9 -1.64,3.4 -3.57,3.4 0,0 -10.1,0.8 -20.14,2.3 -6.34,0.9 -17.0699,0.9 -15.3799,3.7 0.25,0.5 0.7,-0.3 0.95,-0.7 z m 0,0 c 0.03,0 0.07,-0.1 0.1,-0.2 -0.03,0.1 -0.06,0.2 -0.1,0.2 z"
     id="path4954"
     style="stroke:none;stroke-width:0.2" /><path
     d="m 3432.7827,17320.665 c -1.11,2 -1.83,6.9 -2.6,12.1 -0.63,4.2 -1.04,8.6 -1.01,12.4 0.01,1.1 -0.29,2.8 -0.22,3.7 -0.12,-0.1 -0.37,-0.5 -0.48,-0.3 -1.79,3.2 9.9499,2.9 16.7399,3.7 5.36,0.6 10.71,1 14.78,0.8 1.53,-0.1 2.84,-0.1 3.85,-0.3 0.21,-0.1 0.4,0.1 0.51,0 1.19,-0.7 1.99,-1.9 2.47,-3.2 1.1,-2.8 1.36,-5.7 1.36,-5.7 -0.09,-2 1.41,-3.6 3.34,-3.7 1.94,-0.1 3.57,1.4 3.66,3.4 0,0 0.5699,5.2 -0.81,10.1 -0.78,2.7 -2.37,5.1 -4.53,6.9 -1.49,1.2 -5.14,2.5 -10.04,3.3 -5.57,1 -12.98,1.5 -19.89,1.4 -6.4299,-0.1 -12.3699,-1 -16.2299,-2.2 -2.83,-0.9 -4.8,-2.4 -6.1,-3.7 -1.69,-1.7 -3.1,-4.5 -3.81,-8.1 -0.67,-3.5 -0.76,-8.1 -0.21,-13 1.21,-10.5 5.17,-22.1 7.83,-25.6 0.82,-1.1 1.88,-2.3 3.55,-3.1 1.93,-0.9 4.87,-1.9 8.54,-2.3 12.4099,-1.3 34.0099,1.1 34.0099,1.1 1.93,0 3.47,1.6 3.43,3.6 -0.04,1.9 -1.64,3.4 -3.57,3.4 0,0 -10.1,0.8 -20.14,2.3 -6.34,0.9 -17.0699,0.9 -15.3799,3.7 0.25,0.5 0.7,-0.3 0.95,-0.7 z m 0,0 c 0.03,0 0.07,-0.1 0.1,-0.2 -0.03,0.1 -0.06,0.2 -0.1,0.2 z m -3.83,28.2 c 0,0 0,0 0.01,0 0.17,0.2 0.85,0.5 0.55,0.7 -0.38,0.1 -0.53,-0.2 -0.56,-0.7 z"
     id="path4956"
     style="stroke:none;stroke-width:0.2" /><path
     d="m 3520.9424,17154.909 c -1.93,0.1 -3.58,-1.4 -3.67,-3.3 -0.1,-2 1.39,-3.6 3.32,-3.7 0,0 17.09,-2.8 39.5999,-5.3 5.07,-0.6 10.4,-1 15.88,-1.4 3.5,-0.3 7.04,-0.5 10.61,-0.6 8.99,-0.2 18.0399,0 26.5999,0.4 16.81,0.6 31.5199,2.1 40.0899,3.3 1.93,0.1 3.42,1.7 3.31,3.7 -0.1,1.9 -1.75,3.4 -3.69,3.3 -8.5,0.2 -22.9199,1.9 -39.3899,3.3 -8.48,0.8 -17.4499,1.5 -26.3699,2 -3.55,0.1 -7.09,0.1 -10.58,0.2 -5.47,0 -10.8,-0.1 -15.89,-0.2 -22.5799,-0.6 -39.8199,-1.7 -39.8199,-1.7 z"
     id="path4958"
     style="stroke:none;stroke-width:0.2" /><path
     d="m 3520.9424,17246.887 c -1.93,0.1 -3.58,-1.4 -3.67,-3.3 -0.1,-2 1.39,-3.6 3.32,-3.7 0,0 17.09,-2.8 39.5999,-5.3 5.07,-0.6 10.4,-1 15.88,-1.4 3.5,-0.3 7.04,-0.5 10.61,-0.6 8.99,-0.2 18.0399,0 26.5999,0.4 16.81,0.6 31.5199,2.1 40.0899,3.3 1.93,0.1 3.42,1.7 3.31,3.7 -0.1,1.9 -1.75,3.4 -3.69,3.3 -8.5,0.2 -22.9199,1.9 -39.3899,3.3 -8.48,0.8 -17.4499,1.5 -26.3699,2 -3.55,0.1 -7.09,0.1 -10.58,0.2 -5.47,0 -10.8,-0.1 -15.89,-0.2 -22.5799,-0.6 -39.8199,-1.7 -39.8199,-1.7 z"
     id="path4960"
     style="stroke:none;stroke-width:0.2" /><path
     d="m 3520.9424,17338.865 c -1.93,0.1 -3.58,-1.4 -3.67,-3.3 -0.1,-2 1.39,-3.6 3.32,-3.7 0,0 17.09,-2.8 39.5999,-5.3 5.07,-0.6 10.4,-1 15.88,-1.4 3.5,-0.3 7.04,-0.5 10.61,-0.6 8.99,-0.2 18.0399,0 26.5999,0.4 16.81,0.6 31.5199,2.1 40.0899,3.3 1.93,0.1 3.42,1.7 3.31,3.7 -0.1,1.9 -1.75,3.4 -3.69,3.3 -8.5,0.2 -22.9199,1.9 -39.3899,3.3 -8.48,0.8 -17.4499,1.5 -26.3699,2 -3.55,0.1 -7.09,0.1 -10.58,0.2 -5.47,0 -10.8,-0.1 -15.89,-0.2 -22.5799,-0.6 -39.8199,-1.7 -39.8199,-1.7 z"
     id="path4962"
     style="stroke:none;stroke-width:0.2" /></g>&#10;</svg>
