<svg width="24" height="24" viewBox="0 0 24 24" fill="none" xmlns="http://www.w3.org/2000/svg">
<path d="M20.1213 20.1213C20.6642 19.5784 21 18.8284 21 18C21 16.3431 19.6569 15 18 15C16.3431 15 15 16.3431 15 18C15 19.6569 16.3431 21 18 21C18.8284 21 19.5784 20.6642 20.1213 20.1213ZM20.1213 20.1213L22 22" stroke="#ABB5C5" stroke-width="2" stroke-linecap="round" stroke-linejoin="round"/>
<path d="M22 12.2406V3.29144C22 2.54278 21.2076 2.05961 20.542 2.40248L15.5 5L9.84411 2.2942C8.99738 1.88913 8.00986 1.9037 7.17545 2.33359L3.08401 4.44151C2.41833 4.78447 2 5.47058 2 6.21942V20.7096C2 21.4583 2.7926 21.9415 3.45814 21.5985L8.5 18.9998L11.4263 20.4003M8.5 2.00095V18.9999M15.5 5.00008V11.4661" stroke="#33425B" stroke-width="2" stroke-linecap="round" stroke-linejoin="round"/>
</svg>
