<?xml version="1.0" encoding="UTF-8" standalone="no"?>
<!-- Created with Inkscape (http://www.inkscape.org/) -->

<svg
   width="771.72803mm"
   height="680.96899mm"
   viewBox="0 0 771.72806 680.96901"
   version="1.1"
   id="svg1"
   xml:space="preserve"
   xmlns="http://www.w3.org/2000/svg"
   xmlns:svg="http://www.w3.org/2000/svg"><defs
     id="defs1" /><g
     id="layer1"
     transform="translate(-4925.0434,-3999.4009)"><path
       style="fill:#000000;stroke-width:1"
       d="m 5266.5624,4679.6925 c -2.3254,-0.612 -6.7815,-0.9315 -19.7025,-1.416 -5.6715,-0.213 -6.5674,-0.135 -8.1963,0.6945 -2.1633,1.104 -3.9169,1.176 -6.4935,0.267 -1.305,-0.4605 -3.1276,-0.5925 -5.8939,-0.426 -2.5401,0.153 -5.3466,-0.015 -7.6728,-0.462 -2.0172,-0.387 -4.2141,-0.5985 -4.8819,-0.471 -0.6675,0.135 -2.7678,-0.135 -4.6667,-0.5775 l -3.4524,-0.81 -4.5244,1.5085 c -5.1597,1.7205 -7.1849,1.6688 -10.1102,-0.258 -2.1724,-1.431 -2.461,-1.44 -4.3108,-0.12 -2.1858,1.5564 -6.0777,1.7051 -9.3915,0.3585 -2.3141,-0.9405 -3.563,-1.0755 -10.7156,-1.155 -4.8147,-0.06 -8.8008,-0.3255 -9.8344,-0.669 -1.502,-0.4995 -2.1491,-0.438 -4.7625,0.447 -2.367,0.801 -3.5937,0.954 -5.6438,0.7005 -1.44,-0.177 -7.2271,-0.39 -12.8587,-0.4725 -6.1586,-0.09 -11.1572,-0.387 -12.5421,-0.7455 -1.8114,-0.4695 -2.846,-0.4755 -4.8495,-0.03 -1.9566,0.438 -3.0234,0.441 -4.6029,0.012 -1.131,-0.306 -4.6278,-0.5445 -7.7711,-0.5295 -5.6089,0.03 -5.7799,0 -9.2062,-1.6723 l -3.4913,-1.7004 -3.2773,1.32 c -2.8287,1.1385 -3.6548,1.2735 -6.0338,0.9825 -1.516,-0.1845 -5.0067,-0.5055 -7.7571,-0.714 -2.7504,-0.207 -5.604,-0.6225 -6.3412,-0.9225 -1.7993,-0.732 -3.6939,-0.687 -7.8929,0.189 -3.6946,0.771 -6.1371,0.597 -13.9446,-0.996 -2.253,-0.459 -3.6366,-0.5115 -4.7625,-0.1785 -0.8745,0.258 -3.4032,0.3375 -5.635,0.177 -3.1364,-0.2265 -4.4469,-0.12 -5.8188,0.462 -2.5055,1.0665 -4.7474,0.939 -8.2734,-0.471 -4.5029,-1.8015 -5.693,-2.0895 -10.6019,-2.5659 -3.4776,-0.3375 -4.8343,-0.69 -6.1912,-1.6074 -0.9555,-0.6465 -2.9364,-1.5138 -4.4012,-1.9278 -1.4655,-0.414 -3.1794,-1.158 -3.81,-1.6518 -0.6315,-0.495 -1.8967,-1.0605 -2.8135,-1.257 -0.9165,-0.1965 -2.2163,-0.6375 -2.8877,-0.981 -0.672,-0.3435 -2.8146,-0.996 -4.7625,-1.452 -4.0933,-0.9585 -4.7323,-1.338 -4.7323,-2.8099 0,-1.41 0.9945,-2.1815 3.4615,-2.6879 1.1085,-0.228 2.9798,-0.609 4.1585,-0.8475 1.179,-0.2385 3.0993,-0.7875 4.2679,-1.2195 1.6172,-0.5985 2.5479,-0.6795 3.8961,-0.3375 2.0147,0.5115 6.1817,-0.045 8.0285,-1.0665 0.6555,-0.363 2.0479,-0.804 3.0957,-0.9795 1.047,-0.1755 3.8337,-0.7185 6.1912,-1.206 3.9069,-0.8085 4.6728,-0.8295 8.655,-0.231 2.4029,0.3615 5.2428,0.918 6.3111,1.239 1.4895,0.447 2.5245,0.4545 4.4418,0.045 3.4331,-0.747 11.0624,-0.4095 13.4534,0.597 1.6401,0.69 2.302,0.723 4.7625,0.2385 2.1541,-0.4245 3.7003,-0.4305 6.2824,-0.03 4.4555,0.6975 8.6432,0.6795 11.3576,-0.045 1.932,-0.516 2.5057,-0.465 5.1264,0.4605 2.7417,0.9675 3.2212,1.0005 6.7611,0.4635 5.7157,-0.867 10.0971,-0.69 12.4176,0.501 2.7943,1.434 6.957,1.7783 10.4233,0.861 3.7122,-0.9825 7.5258,-0.9615 9.4485,0.045 1.2855,0.678 2.8631,0.7905 10.0968,0.72 4.8246,-0.045 11.4875,0.2205 15.24,0.6135 11.5503,1.2075 19.6146,1.4145 22.7492,0.582 2.3949,-0.6345 3.5541,-0.6495 9.0487,-0.105 3.4662,0.342 6.9551,0.864 7.7534,1.161 1.1355,0.4215 1.8742,0.39 3.4,-0.15 3.4535,-1.218 22.5303,-0.4515 30.2591,1.218 1.8349,0.396 2.6503,0.3315 4.428,-0.3465 1.8712,-0.714 3.1675,-0.789 9.1809,-0.525 3.8511,0.168 8.7165,0.5205 10.812,0.783 2.6661,0.333 4.9537,0.3165 7.62,-0.06 3.393,-0.4755 6.7932,-0.657 16.0567,-0.8625 1.9373,-0.045 3.3006,0.2355 4.7297,0.9645 1.9203,0.9795 2.2377,1.0005 7.2793,0.465 2.8995,-0.3075 6.5907,-0.7425 8.2029,-0.9675 1.7687,-0.246 4.8857,-0.213 7.8582,0.09 2.7098,0.2715 5.3555,0.4665 5.8794,0.4335 9.4946,-0.5865 14.1972,-0.558 16.2878,0.105 1.5286,0.48 4.1824,0.711 8.0104,0.6975 3.1486,-0.011 7.26,0.2535 9.1366,0.5895 2.6945,0.4815 3.7059,0.4875 4.8095,0.03 1.9285,-0.798 17.46,0.312 24.6207,1.7621 1.047,0.2115 2.8614,0.213 4.0305,0 1.5054,-0.2715 2.7559,-0.1755 4.2862,0.33 1.3305,0.4395 4.7241,0.792 8.8283,0.9195 3.667,0.12 7.7389,0.3225 9.0487,0.465 1.3095,0.15 5.3816,0.501 9.0488,0.798 3.667,0.2955 7.5657,0.7305 8.6635,0.9645 2.9634,0.633 3.4808,0.2625 3.4808,-2.4971 0,-1.2945 0.315,-2.9637 0.7005,-3.709 0.3855,-0.7455 0.9015,-2.1813 1.149,-3.191 0.543,-2.2251 1.359,-4.6029 2.3451,-6.8367 1.485,-3.3612 1.9054,-8.6539 1.3065,-16.4305 l -0.3675,-4.7625 1.413,-1.9247 c 1.176,-1.6032 1.455,-2.518 1.6647,-5.4769 0.15,-2.0717 0.66,-4.4462 1.23,-5.697 0.537,-1.179 1.3425,-4.0728 1.7875,-6.4293 0.471,-2.4909 1.329,-5.1819 2.0505,-6.4278 1.5815,-2.7321 2.4206,-5.442 2.4332,-7.8581 0.01,-1.047 0.225,-2.6808 0.489,-3.6289 0.264,-0.948 0.672,-3.2628 0.909,-5.1435 0.339,-2.7009 0.7815,-3.9401 2.1075,-5.8961 1.257,-1.855 1.7601,-3.1936 2.0046,-5.334 0.18,-1.5717 0.8355,-4.0833 1.4595,-5.5816 0.6225,-1.4985 1.1325,-3.5612 1.1325,-4.5842 0,-1.023 0.5385,-3.0774 1.1955,-4.5651 0.6585,-1.488 1.389,-4.0608 1.623,-5.7178 0.2685,-1.8974 1.0605,-4.2066 2.1375,-6.2367 1.6467,-3.1031 1.7107,-3.4091 1.7107,-8.1684 0,-4.3304 0.15,-5.2367 1.191,-7.2944 0.654,-1.293 1.191,-2.946 1.1925,-3.675 0,-0.729 0.873,-3.04 1.9377,-5.1355 1.5437,-3.0386 1.8966,-4.1958 1.7433,-5.715 -0.228,-2.2548 1.1415,-9.4856 2.1735,-11.4816 1.1595,-2.2428 3.3495,-13.4322 3.3917,-17.3316 0.03,-3.2351 0.2145,-3.8862 1.9065,-6.9056 1.0275,-1.8336 2.2683,-3.9148 2.7577,-4.6251 0.657,-0.954 0.864,-2.0112 0.789,-4.0482 -0.177,-4.8505 0.759,-10.6534 2.1348,-13.2391 0.927,-1.7423 1.2615,-3.0674 1.2615,-5.01 0,-1.9007 0.3255,-3.2373 1.161,-4.7664 3.2798,-6.0041 3.3216,-6.1506 2.7345,-9.5789 -0.6,-3.5071 -0.537,-3.8404 2.9873,-15.7755 1.6254,-5.5044 1.7463,-6.2851 1.2675,-8.1882 -0.7605,-3.0193 -0.66,-4.56 0.4365,-6.7008 1.287,-2.5114 2.3673,-6.7765 2.3673,-9.3421 0,-1.149 0.744,-4.2081 1.6621,-6.8369 0.927,-2.6536 1.6668,-5.7054 1.673,-6.9007 0.01,-1.179 0.4545,-3.5361 0.996,-5.2388 0.5415,-1.7025 1.158,-5.1315 1.368,-7.62 0.21,-2.4883 0.822,-6.4531 1.359,-8.8105 0.537,-2.3574 1.221,-5.5722 1.5187,-7.1438 0.2985,-1.5717 0.873,-3.9513 1.275,-5.2881 0.474,-1.5721 0.618,-3.1114 0.4065,-4.3585 -0.201,-1.188 -0.045,-3.0893 0.39,-4.9514 1.8153,-7.6741 1.8483,-7.9435 1.2705,-10.3534 -0.483,-2.0114 -0.4305,-2.7443 0.3795,-5.3658 0.516,-1.67 1.086,-4.5329 1.2675,-6.362 l 0.33,-3.3258 -1.8277,2.0526 c -1.005,1.1295 -2.8643,2.6538 -4.131,3.3884 -1.2675,0.735 -2.8742,2.1769 -3.572,3.2053 -3.1062,4.5782 -8.3872,10.6025 -10.0095,11.4183 -4.719,2.3732 -7.2417,4.1724 -7.5277,5.3691 -0.831,3.4763 -4.7232,7.9796 -9.5076,11.0012 -1.6566,1.0455 -3.339,2.5347 -3.7388,3.3076 -0.4005,0.7725 -1.7124,2.22 -2.9169,3.2153 -1.2045,0.996 -2.9056,2.9179 -3.78,4.2723 -1.6188,2.5072 -4.1151,4.3129 -7.3984,5.3514 -1.7511,0.5535 -2.3601,1.2465 -7.5876,8.625 -3.3935,4.7899 -8.547,9.8536 -11.874,11.6667 -2.2152,1.2075 -2.8364,1.8565 -3.902,4.0795 -1.4145,2.949 -2.6467,3.9566 -5.8188,4.7553 -2.5005,0.63 -3.3501,1.449 -5.3122,5.1264 -1.7507,3.2804 -6.0036,6.8448 -9.8327,8.241 -2.4501,0.894 -2.7685,1.1775 -3.5131,3.1265 -0.579,1.5147 -2.4308,3.8031 -6.3108,7.7971 -4.4307,4.5608 -5.9213,5.796 -7.7129,6.3911 -2.6655,0.885 -5.256,3.4455 -6.5788,6.5016 -0.654,1.512 -1.7627,2.8315 -3.5069,4.1757 -6.0964,4.6984 -7.6497,6.1075 -8.7196,7.9113 -0.6645,1.1205 -1.9922,2.3887 -3.1982,3.0559 -1.134,0.627 -2.7625,1.7451 -3.6186,2.4836 -0.8565,0.738 -2.142,1.4775 -2.8575,1.6426 -0.7155,0.165 -2.3725,0.7995 -3.6822,1.41 -1.3095,0.6105 -3.5601,1.6602 -5.0007,2.3337 -4.6615,2.1795 -6.3345,3.4328 -7.2888,5.4605 -1.5967,3.3927 -5.7452,5.7726 -15.4678,8.8735 -1.9324,0.6165 -3.888,2.1932 -12.7104,10.2491 -2.0209,1.8453 -3.5586,2.8201 -5.0349,3.1918 -1.1685,0.294 -3.8197,1.7147 -5.8908,3.1562 -2.071,1.4415 -4.3599,2.7516 -5.0862,2.911 -0.726,0.159 -2.2641,1.1205 -3.4171,2.1356 -1.1535,1.0155 -3.2832,2.3701 -4.7336,3.0115 -1.4505,0.642 -2.794,1.4205 -2.9857,1.7303 -0.372,0.6015 -6.0824,3.322 -8.9846,4.2799 -1.5279,0.504 -1.8169,0.852 -2.2971,2.7578 -1.134,4.5031 -5.5654,7.1703 -10.8874,6.5527 -2.0442,-0.237 -3.1001,-0.135 -4.1742,0.426 -0.7905,0.4095 -3.3335,1.0515 -5.6505,1.428 -2.3169,0.3765 -5.0699,0.906 -6.1176,1.176 -4.9971,1.2885 -10.4994,1.9346 -12.3825,1.455 -3.1208,-0.7935 -17.2797,-2.0017 -22.1261,-1.8871 -3.6507,0.09 -4.9257,0.3195 -6.7243,1.2315 -2.1224,1.0755 -2.5812,1.1175 -10.497,0.969 -5.0604,-0.09 -8.892,-0.3855 -9.8585,-0.7485 -1.2645,-0.4755 -2.149,-0.4725 -4.4253,0.01 -2.5128,0.534 -3.1827,0.501 -5.7417,-0.273 -2.878,-0.8715 -2.916,-0.87 -5.814,0.1695 -3.556,1.275 -8.6698,1.3845 -13.7205,0.2925 -2.3373,-0.5055 -5.6784,-0.7365 -10.1514,-0.7005 -5.3035,0.045 -7.447,-0.15 -10.4775,-0.927 -3.1365,-0.807 -5.6623,-1.011 -14.2875,-1.152 -9.2556,-0.153 -10.7079,-0.075 -12.4519,0.6795 -3.182,1.3725 -4.5317,1.5038 -7.077,0.6855 -3.7767,-1.2135 -10.2569,-2.1283 -12.9185,-1.8249 -2.1136,0.2415 -7.7007,-0.21 -12.9256,-1.044 -2.163,-0.345 -4.7523,-2.7535 -5.3511,-4.9768 -0.399,-1.482 -0.318,-2.3577 0.426,-4.5999 0.5055,-1.5231 1.0605,-3.3992 1.233,-4.1691 0.4815,-2.1489 1.861,-3.7658 4.3825,-5.1363 2.1165,-1.1505 2.9183,-1.275 10.1943,-1.5884 6.8691,-0.2955 8.226,-0.231 10.4222,0.4995 4.1235,1.3695 7.9861,1.6779 10.8769,0.8685 1.9064,-0.534 3.0747,-0.594 4.7625,-0.246 2.4027,0.4965 10.248,0.42 14.1543,-0.135 1.7417,-0.249 3.1032,-0.12 5.0007,0.489 1.7337,0.552 5.3208,0.966 10.7039,1.2345 4.4529,0.222 9.1177,0.5355 10.3662,0.6975 1.5642,0.201 2.8629,0.06 4.1767,-0.4695 2.4143,-0.966 4.6878,-0.969 7.0872,-0.01 1.5434,0.618 2.3438,0.6615 4.415,0.2415 3.1095,-0.63 5.3452,-0.6675 16.7233,-0.285 5.6801,0.1905 9.6401,0.543 10.8282,0.9615 1.6884,0.5955 2.1446,0.5655 4.6184,-0.3 4.0764,-1.4265 10.3159,-1.6681 17.3187,-0.672 6.3409,0.9015 9.4803,0.7665 11.9515,-0.513 1.2645,-0.6555 3.1661,-0.8445 9.6698,-0.9615 4.738,-0.09 9.3309,0.075 11.0731,0.4005 2.7428,0.504 3.1218,0.4665 4.818,-0.4875 1.0125,-0.5685 2.9949,-1.2 4.4049,-1.4025 l 2.564,-0.3675 0.2835,-4.5195 c 0.249,-3.9775 0.492,-4.9194 2.0226,-7.8532 1.1625,-2.2278 1.74,-3.9719 1.7409,-5.2572 9e-4,-1.0575 0.4575,-2.7723 1.0155,-3.81 0.558,-1.038 2.2791,-4.4334 3.8256,-7.5464 1.5466,-3.1128 3.2095,-6.165 3.6952,-6.7824 0.486,-0.618 1.029,-1.9282 1.206,-2.9127 0.534,-2.962 2.0826,-7.8322 3.2939,-10.3626 0.627,-1.3095 1.5067,-3.4528 1.9552,-4.7625 3.0245,-8.8332 3.5345,-9.7077 6.5607,-11.2522 0.9825,-0.501 1.7859,-1.08 1.7859,-1.287 0,-0.9255 3.0923,-3.4154 4.5911,-3.6965 2.3964,-0.45 3.0285,-1.317 3.0316,-4.1572 0.01,-5.7438 1.9824,-8.5352 7.2905,-10.2975 3.4216,-1.1355 4.1347,-1.9461 4.1386,-4.7015 0,-1.7188 1.3695,-3.8527 4.5206,-7.0542 1.4415,-1.4655 2.6214,-3.0756 2.6214,-3.579 0,-1.7316 1.425,-4.3183 3.823,-6.9429 1.3215,-1.446 2.7435,-3.3001 3.1595,-4.1197 1.1895,-2.3447 3.918,-5.4897 5.9008,-6.8018 0.9975,-0.66 2.5032,-2.3374 3.3452,-3.7266 0.9375,-1.5471 2.2744,-2.9613 3.4498,-3.6495 2.7646,-1.6189 4.3513,-3.3817 5.0038,-5.5597 0.4215,-1.407 1.4505,-2.6855 3.9269,-4.881 1.8456,-1.6364 3.7522,-3.7455 4.237,-4.6872 1.8339,-3.5625 6.1296,-8.4537 22.8173,-25.9799 4.8747,-5.1196 9.2157,-10.1149 9.7974,-11.2743 0.594,-1.182 1.9212,-2.6986 3.0742,-3.5103 3.225,-2.2704 7.1171,-5.9602 8.2452,-7.8169 1.155,-1.9001 10.5468,-11.4367 13.3815,-13.5871 0.999,-0.7575 2.2094,-2.1471 2.6885,-3.0863 0.4785,-0.939 2.0506,-2.788 3.4921,-4.1083 1.8485,-1.6931 2.8011,-3.0017 3.2321,-4.4399 0.36,-1.2045 1.6458,-3.1992 3.1369,-4.8703 1.389,-1.557 2.8316,-3.4157 3.2049,-4.1304 0.9705,-1.8584 3.0944,-3.7476 5.2019,-4.628 1.263,-0.528 2.0239,-1.251 2.4906,-2.3683 0.9135,-2.1858 6.0289,-8.0361 8.4469,-9.66 1.9646,-1.32 2.4867,-1.9589 7.1013,-8.6939 2.3321,-3.4035 6.8889,-8.3689 15.4736,-16.8604 2.1442,-2.121 4.5492,-5.042 5.3445,-6.4908 1.7185,-3.1308 2.6079,-4.1355 5.4975,-6.2106 1.1955,-0.8595 2.8509,-2.616 3.6778,-3.9047 0.8265,-1.2885 2.3574,-2.908 3.4011,-3.5986 1.1415,-0.756 2.9594,-2.8542 4.5647,-5.2707 2.1678,-3.2633 3.1999,-4.3356 5.5137,-5.7287 2.752,-1.6569 2.8731,-1.8145 3.6375,-4.7382 0.9855,-3.7692 1.6915,-4.72 6.5877,-8.8716 2.1624,-1.8336 4.3239,-4.0839 4.8034,-5.0007 0.48,-0.9165 2.0636,-3.1497 3.5201,-4.9621 1.4565,-1.8125 3.0978,-4.2237 3.6469,-5.3582 0.555,-1.1475 2.4998,-3.4329 4.3832,-5.1519 l 3.3844,-3.0889 0.3045,-5.1636 c 0.168,-2.8401 0.4905,-5.4659 0.72,-5.8353 0.4005,-0.6465 0.669,-5.6033 0.6825,-12.588 0,-1.8336 0.408,-5.1288 0.8985,-7.3227 0.5865,-2.6237 0.768,-4.539 0.5295,-5.5959 -0.1995,-0.8835 -0.201,-2.3238 0,-3.1998 0.198,-0.876 0.2295,-5.7518 0.075,-10.8348 -0.2565,-8.1833 -0.2805,-13.7621 -0.09,-20.91 0.03,-1.179 -0.03,-5.1435 -0.12,-8.8106 -0.2565,-9.6528 0.3675,-20.5636 1.3005,-22.7257 0.42,-0.9735 0.7635,-2.4809 0.7635,-3.3489 0,-0.8685 0.3405,-2.7503 0.7545,-4.1826 0.4155,-1.4325 0.8085,-3.6197 0.8745,-4.8611 0.135,-2.571 0.813,-3.5007 4.0773,-5.5956 2.0478,-1.314 2.5828,-1.434 6.3841,-1.434 5.7728,0 7.5477,1.089 8.5389,5.2388 0.282,1.1775 0.342,1.191 5.681,1.26 4.6696,0.06 5.9955,0.27 9.8455,1.5595 2.447,0.819 5.0433,1.9137 5.7696,2.4309 0.726,0.5175 2.0583,2.3871 2.9601,4.1555 0.9015,1.7683 2.2055,4.0443 2.8971,5.0575 0.6915,1.014 1.473,2.6207 1.7378,3.572 0.72,2.5905 0.5835,8.239 -0.255,10.5993 -0.8655,2.4349 -0.6405,4.1644 0.9945,7.6786 1.281,2.7533 1.597,7.7325 0.6855,10.839 -0.597,2.0355 -0.15,5.2064 0.798,5.5673 1.014,0.3885 2.9625,-1.6691 3.5121,-3.71 0.5775,-2.1421 3.0925,-4.4784 5.5546,-5.1582 2.2581,-0.624 7.5446,-6.1153 9.6015,-9.9745 0.7995,-1.5 2.6963,-3.9185 4.2153,-5.3753 1.5192,-1.4565 3.2795,-3.3447 3.9117,-4.1953 0.6315,-0.8505 2.0252,-1.923 3.0956,-2.3831 1.0875,-0.468 3.6748,-2.5674 5.8659,-4.7605 3.6586,-3.6627 4.2436,-4.0511 8.7864,-5.8344 2.6767,-1.0515 5.6278,-2.5184 6.5578,-3.2615 2.3808,-1.9018 4.8882,-2.3623 8.2739,-1.5192 2.4432,0.6075 2.9538,0.6 4.6393,-0.075 2.6295,-1.053 3.5828,-0.963 7.0035,0.6555 3.7959,1.7957 6.1014,2.4104 10.049,2.679 2.4384,0.1665 4.0341,0.6465 7.0041,2.1095 2.3971,1.1805 4.5145,1.8945 5.6196,1.8945 2.4042,0 4.1724,1.005 6.2677,3.5619 1.2135,1.4805 2.3711,2.331 3.7256,2.7369 1.2525,0.375 2.7516,1.413 4.1316,2.86 1.191,1.2495 2.4582,2.2712 2.8149,2.2712 0.639,0 4.4287,1.6062 7.602,3.222 2.9161,1.485 3.9465,4.9813 2.826,9.5905 -0.09,0.375 0.984,1.482 2.457,2.5265 1.44,1.0215 2.9016,2.3967 3.2467,3.0547 0.345,0.6585 0.711,3.0575 0.8145,5.3318 0.177,3.9307 0.105,4.3012 -1.4565,7.4965 -1.6222,3.3174 -1.6387,3.4142 -1.2555,7.3818 0.2145,2.2112 0.2115,4.9659 0,6.1218 -0.8445,4.5191 -3.9718,7.9221 -8.3292,9.0626 -1.8268,0.4785 -2.0092,0.672 -2.3104,2.4553 -0.426,2.5247 -2.4767,4.8125 -5.4641,6.0977 -1.9794,0.852 -2.5855,1.425 -3.5791,3.3856 -0.6585,1.2975 -2.4977,3.5964 -4.0884,5.1072 -1.5906,1.5107 -4.0908,4.4612 -5.5557,6.5567 -1.4655,2.0955 -4.6616,5.7954 -7.1036,8.2219 -2.4418,2.4266 -4.9683,5.2493 -5.6142,6.2724 -0.6465,1.023 -1.9861,2.4575 -2.9782,3.1872 -0.9915,0.7305 -3.1224,2.5151 -4.7337,3.9671 -1.6113,1.452 -3.8616,3.285 -5.0006,4.0732 -1.206,0.8355 -2.4685,2.256 -3.0234,3.405 -0.5235,1.0845 -2.9886,3.9759 -5.4769,6.4251 -2.4884,2.4492 -4.887,5.1452 -5.3301,5.9912 -0.4425,0.846 -1.8207,2.2389 -3.0614,3.0955 -4.038,2.7885 -10.2301,8.4276 -11.7715,10.7204 -1.0485,1.5594 -2.5928,2.9022 -5.0783,4.4152 -3.4369,2.0924 -3.6124,2.2881 -4.6473,5.1839 -1.44,4.0312 -2.4064,5.2767 -6.2719,8.0883 -1.8027,1.311 -3.8592,3.1464 -4.5701,4.0783 -0.711,0.9315 -2.3809,2.2841 -3.7113,3.0044 -1.7904,0.969 -2.7964,1.9549 -3.8725,3.7932 -0.7995,1.3665 -2.1687,3.0097 -3.0426,3.6529 -0.8745,0.6435 -2.2319,2.0438 -3.0179,3.1124 -0.786,1.068 -1.6509,1.9429 -1.9222,1.9429 -0.2715,0 -1.821,1.3395 -3.4436,2.9766 -1.6225,1.6371 -3.838,3.5579 -4.9233,4.2683 -1.086,0.711 -2.4016,2.1312 -2.925,3.1572 -1.2735,2.4975 -2.0115,7.2265 -1.4385,9.225 0.6555,2.2842 0.549,4.3882 -0.3315,6.5908 -0.729,1.8221 -0.7245,2.1311 0.075,4.7684 1.1955,3.9475 0.7515,14.7142 -0.771,18.6924 -0.888,2.3208 -0.954,2.9613 -0.492,4.7935 0.3615,1.437 0.387,2.8776 0.075,4.4955 -0.2895,1.5265 -0.2835,2.9518 0.015,3.9724 1.9296,6.5849 2.2439,12.5112 0.849,16.0037 -0.2865,0.717 -0.687,2.6974 -0.891,4.3999 -0.2025,1.7027 -0.6285,5.2101 -0.9435,7.7943 -0.6405,5.2416 -0.135,10.6001 1.2615,13.2948 1.0575,2.045 0.9285,6.528 -0.2895,10.0608 -1.248,3.6204 -1.2255,4.1907 0.2985,7.3056 1.2225,2.4986 1.2465,2.7044 0.669,5.6156 -0.471,2.3664 -0.477,3.3961 -0.03,4.7475 0.3135,0.951 0.4425,2.6206 0.285,3.7188 -0.156,1.0965 -0.4755,3.8149 -0.711,6.0414 -0.2355,2.2264 -0.705,4.7295 -1.0455,5.5624 -0.684,1.673 -0.3915,2.6087 1.5822,5.0684 0.891,1.11 1.062,1.8559 0.984,4.2862 -0.045,1.6184 -0.12,4.6569 -0.135,6.7524 -0.03,2.0955 -0.39,4.913 -0.8115,6.261 -0.702,2.2491 -0.702,2.6082 0,4.3584 0.42,1.0485 0.891,3.0536 1.047,4.4546 0.156,1.401 0.498,4.2618 0.7605,6.3573 0.417,3.3222 0.3615,4.1457 -0.4335,6.4323 -0.684,1.9675 -0.7935,2.9188 -0.441,3.81 0.258,0.6525 0.6465,2.9022 0.861,4.9977 0.2145,2.0955 0.7215,4.9743 1.1265,6.3973 1.152,4.0526 1.4385,8.3346 0.747,11.2148 -0.5235,2.1804 -0.4965,3.1603 0.186,6.7566 0.438,2.3134 0.78,5.0635 0.7575,6.1113 -0.03,1.0485 -0.03,4.2045 -0.012,7.0149 0.015,2.8104 -0.1815,6.0252 -0.441,7.1437 -0.258,1.119 -0.474,4.0284 -0.48,6.4664 -0.01,2.4379 -0.255,5.3968 -0.5505,6.5755 -0.4455,1.7703 -0.3945,2.6811 0.2985,5.2374 0.9435,3.4875 0.999,6.1434 0.21,10.1532 -0.516,2.6247 -0.4725,2.9054 0.9585,6.1652 l 1.4985,3.4153 -0.312,15.6647 c -0.2655,13.3147 -0.2025,16.0101 0.4125,17.9673 0.9285,2.9496 1.401,14.3445 0.717,17.307 -0.432,1.8696 -0.375,2.4345 0.3855,3.8335 0.6915,1.272 0.903,2.7098 0.936,6.4034 0.03,2.6193 0.213,6.3723 0.4185,8.3397 0.357,3.4107 0.2835,3.8508 -1.5876,9.4471 -2.8618,8.5598 -3.103,8.8737 -7.9207,10.3074 -3.2556,0.969 -5.8961,0.8955 -7.716,-0.2145 -2.3033,-1.404 -3.1482,-3.463 -3.233,-7.8774 -0.075,-3.9651 -1.2885,-13.026 -2.1414,-16.0099 -0.453,-1.5837 -0.615,-6.3461 -0.5385,-15.7553 0.015,-2.1394 -0.2715,-4.5196 -0.693,-5.715 -0.6285,-1.7787 -0.648,-3.1468 -0.1545,-10.383 l 0.5685,-8.3343 -1.323,-2.6047 c -1.221,-2.4038 -1.302,-2.8995 -1.0455,-6.4293 0.1575,-2.1708 0.045,-4.9874 -0.2625,-6.5133 -0.471,-2.348 -0.4185,-3.042 0.4125,-5.478 0.933,-2.7314 0.9345,-2.8289 0.075,-4.6932 -0.696,-1.5045 -0.816,-2.5037 -0.567,-4.7615 0.4245,-3.8719 0.24,-12.1159 -0.495,-22.1164 -0.5055,-6.8784 -0.498,-9.9465 0.045,-17.8595 0.939,-13.7545 0.429,-25.9128 -1.2795,-30.5091 -0.5385,-1.449 -1.035,-4.5757 -1.266,-7.9887 -0.2145,-3.1569 -0.5895,-5.6106 -0.858,-5.6148 -0.732,-0.011 -0.858,1.8692 -0.2265,3.3936 0.438,1.059 0.4365,1.9071 -0.01,3.7578 -0.4545,1.8948 -0.447,2.8835 0.03,4.7729 0.537,2.0967 0.504,2.7124 -0.273,5.1267 -0.7125,2.2116 -0.912,4.5912 -1.0305,12.2688 -0.075,5.2387 -0.1695,10.1679 -0.198,10.9537 -0.03,0.786 0.01,2.5212 0.075,3.8565 0.09,1.8102 -0.135,2.8772 -0.9135,4.1943 -1.413,2.3948 -1.4385,7.34 -0.06,10.8476 0.8475,2.1492 0.9405,3.0772 0.6585,6.5659 -0.1815,2.2347 -0.627,4.9538 -0.99,6.0423 -0.798,2.3859 -0.9195,8.0666 -0.2445,11.4029 0.378,1.8675 0.321,3.3519 -0.2475,6.4293 -0.4695,2.5473 -0.7935,7.6353 -0.888,14.0025 -0.12,7.7347 -0.324,10.4862 -0.9225,12.1411 -0.528,1.4625 -0.6825,2.8958 -0.489,4.5245 0.462,3.8905 -0.8625,9.855 -3.2751,14.7507 -2.0104,4.0797 -2.1333,4.5658 -2.3734,9.3907 -0.1695,3.4017 -0.5175,5.5995 -1.0515,6.6311 -0.438,0.849 -0.981,3.0018 -1.2045,4.7851 -0.2235,1.7832 -0.8415,4.095 -1.374,5.1371 -0.531,1.0425 -0.966,2.5359 -0.966,3.3193 0,1.9497 -1.1385,6.1605 -2.5565,9.4515 -0.648,1.5044 -1.2975,3.2897 -1.443,3.9674 -0.408,1.8963 -2.1489,3.8427 -3.2857,3.6751 -1.5252,-0.225 -1.82,-2.1355 -1.9692,-12.7656 -0.105,-7.9066 -0.291,-10.1253 -0.948,-11.668 -0.609,-1.4325 -0.7335,-2.5791 -0.498,-4.6224 0.2355,-2.0547 0.09,-3.3905 -0.6015,-5.477 -0.7905,-2.3856 -0.909,-4.114 -0.8775,-12.7606 0.03,-9.494 0.09,-10.1057 1.134,-12.0578 0.9645,-1.8061 1.0305,-2.2612 0.543,-3.7375 -0.3675,-1.113 -0.4545,-3.3945 -0.2565,-6.7541 0.165,-2.7903 0.3195,-5.5018 0.3465,-6.0256 0.03,-0.5235 -0.12,-2.0762 -0.312,-3.4496 -0.276,-1.9107 -0.162,-3.0151 0.483,-4.7035 0.717,-1.8785 0.762,-2.5692 0.2985,-4.6467 -0.429,-1.9218 -0.408,-2.9655 0.105,-4.9131 0.477,-1.8315 0.5205,-3.071 0.171,-4.779 -0.3735,-1.8255 -0.297,-2.9976 0.372,-5.6235 0.9735,-3.8273 1.0275,-5.2275 0.399,-10.4609 -0.2535,-2.1132 -0.282,-4.5525 -0.06,-5.4769 0.216,-0.9165 0.5085,-6.2745 0.6495,-11.9063 0.225,-8.9694 0.3825,-10.545 1.266,-12.7038 0.981,-2.3985 0.987,-2.5416 0.2025,-5.3364 -0.7395,-2.6368 -0.7455,-3.1057 -0.06,-5.7321 0.615,-2.3724 0.687,-4.6306 0.4215,-13.2375 -0.501,-16.2721 -0.36,-18.7627 1.5162,-26.7573 0.648,-2.761 0.7275,-4.0689 0.3675,-6.0562 -0.291,-1.6035 -0.3,-5.9061 -0.03,-11.7095 0.387,-8.166 0.3435,-9.4762 -0.3975,-11.9214 -0.7965,-2.6313 -0.795,-2.9128 0.045,-6.6768 0.5595,-2.4984 0.9255,-6.2712 1.0035,-10.359 0.075,-3.5361 0.2595,-8.3581 0.4245,-10.7155 0.3495,-4.9664 0.4755,-11.9921 0.294,-16.4307 -0.3645,-8.9342 -0.09,-14.2961 0.8325,-16.0979 0.666,-1.3065 1.005,-3.3285 1.251,-7.4907 0.417,-7.0348 0.417,-6.9199 -0.015,-10.7218 -0.3855,-3.386 0.2775,-8.757 1.5285,-12.4026 0.5445,-1.5855 0.6255,-2.5558 0.297,-3.5421 -0.6405,-1.9194 -1.44,-1.9779 -1.8257,-0.135 -0.18,0.8655 -0.843,2.5109 -1.4715,3.657 -1.3365,2.4354 -1.3935,3.1558 -0.429,5.4625 1.032,2.472 0.897,3.6461 -0.786,6.7931 -2.2585,4.2229 -2.895,7.053 -2.2479,9.9963 0.471,2.1406 0.387,3.0004 -0.7095,7.2573 -0.741,2.8738 -1.215,5.9397 -1.1715,7.5729 0.045,1.5091 -0.1695,3.8155 -0.465,5.1252 -1.806,8.0008 -2.1129,9.7108 -2.0757,11.5639 0.075,3.3572 -0.7425,6.5385 -2.3163,9.096 -1.464,2.3804 -1.476,2.4456 -1.1475,6.9161 0.3045,4.1517 0.243,4.6774 -0.765,6.5661 -0.7545,1.41 -1.284,3.642 -1.6977,7.1337 -0.438,3.7032 -0.9315,5.7036 -1.8237,7.378 -0.672,1.263 -1.2225,2.9876 -1.2225,3.8313 0,0.843 -0.429,2.6214 -0.9525,3.9504 -0.648,1.6439 -0.9525,3.5396 -0.9525,5.9289 0,1.9319 -0.351,5.1921 -0.7815,7.2452 -0.429,2.053 -0.7395,5.0236 -0.69,6.6013 0.06,2.0222 -0.1935,3.4974 -0.876,5.0006 -0.5325,1.173 -0.9765,3.0966 -0.9885,4.2753 -0.012,1.179 -0.42,3.0229 -0.909,4.0981 -1.068,2.3508 -1.7067,6.272 -1.5223,9.3404 0.09,1.434 -0.162,2.8119 -0.6855,3.81 -0.48,0.9135 -0.8655,2.8494 -0.9285,4.659 -0.075,2.1609 -0.5475,4.1742 -1.5629,6.6675 -0.7995,1.9645 -1.5939,4.5981 -1.7649,5.8522 -0.171,1.254 -0.618,3.0155 -0.993,3.9138 -0.375,0.8985 -0.6855,3.0869 -0.69,4.8635 -0.01,2.5707 -0.2445,3.6187 -1.1655,5.1349 -0.636,1.047 -1.543,2.5479 -2.0149,3.3338 -0.6645,1.107 -0.8595,2.4487 -0.864,5.953 -0.01,4.163 -0.135,4.7634 -1.5492,7.5152 -1.068,2.0692 -1.5432,3.6505 -1.5432,5.1316 0,1.1775 -0.453,3.3678 -1.0065,4.8674 -0.5535,1.5 -1.059,4.1242 -1.122,5.8327 -0.075,1.8504 -0.4635,3.7758 -0.9735,4.7625 -1.251,2.4173 -2.6135,8.2892 -2.6135,11.2605 0,2.7813 -1.08,5.4573 -2.8467,7.0553 -0.96,0.8685 -1.017,1.23 -0.726,4.5244 0.246,2.7767 0.135,4.0625 -0.4785,5.7242 -0.438,1.179 -1.005,3.0004 -1.2585,4.0482 -0.9435,3.8836 -2.4444,8.1511 -4.0126,11.4108 -1.248,2.5935 -1.7163,4.3494 -2.0681,7.7494 -0.4005,3.8768 -0.711,4.8675 -2.6299,8.3865 -1.7849,3.2744 -2.2686,4.7075 -2.6958,7.9862 -0.2865,2.1976 -0.8205,4.8037 -1.188,5.7913 -0.3675,0.987 -0.672,2.8092 -0.6765,4.0482 -0.011,3.0194 -1.44,8.277 -3.201,11.7776 -0.9195,1.8264 -1.542,3.9336 -1.727,5.8399 -0.159,1.6403 -0.7125,3.8117 -1.23,4.8252 -0.5175,1.014 -1.086,3.3149 -1.263,5.1138 -0.195,1.9752 -0.7695,4.1186 -1.4475,5.4104 -0.675,1.2825 -1.125,2.9569 -1.125,4.1824 0,1.1235 -0.321,2.8125 -0.714,3.7529 -1.161,2.7798 -0.9705,3.2688 1.5477,3.9513 3.6245,0.9825 13.6406,1.2945 23.2173,0.723 5.4827,-0.327 5.835,-0.2895 8.6703,0.906 3.9218,1.6537 7.365,1.7469 12.5228,0.339 2.7525,-0.7515 5.4892,-1.125 8.5507,-1.167 l 4.5026,-0.06 0.612,-2.1432 c 0.885,-3.0983 1.5661,-4.2032 3.2274,-5.2298 2.8509,-1.762 10.2024,-2.787 13.6042,-1.8967 0.9255,0.243 2.4263,1.206 3.3338,2.1432 1.6242,1.6758 1.6513,1.7718 1.7247,6.0814 0.045,2.4083 0.306,5.1171 0.5895,6.0194 1.182,3.7732 -1.0605,7.2162 -6.3614,9.7659 -1.9287,0.927 -4.6503,2.6698 -6.048,3.8715 -1.398,1.2015 -3.3964,2.626 -4.4416,3.1654 -2.3184,1.197 -5.9394,1.278 -8.5163,0.1935 -2.2894,-0.9645 -3.8901,-0.9795 -6.4903,-0.06 -2.2818,0.8055 -7.184,0.9 -12.1443,0.237 -2.1462,-0.2865 -6.0039,-0.2685 -10.8291,0.06 -5.4038,0.3615 -7.9382,0.354 -9.0828,-0.03 -1.2465,-0.411 -2.0279,-0.369 -3.6374,0.1995 -2.6149,0.9225 -6.949,0.927 -9.5502,0.01 -1.113,-0.393 -2.6652,-0.714 -3.448,-0.714 -1.6223,0 -9.9773,-2.4576 -13.2908,-3.9096 -1.2165,-0.534 -2.4205,-0.8415 -2.674,-0.6855 -0.2535,0.1575 -0.579,1.1625 -0.723,2.2356 -0.15,1.0725 -0.789,2.7481 -1.434,3.723 -0.645,0.975 -1.3305,2.7274 -1.5237,3.8949 -0.1935,1.167 -0.8385,2.9493 -1.4355,3.9595 -1.0155,1.719 -1.038,1.9199 -0.3405,3.1344 0.9465,1.6491 0.5535,2.6747 -1.164,3.0348 -1.7343,0.3645 -3.7346,2.3746 -5.0642,5.0908 -1.7434,3.5618 -4.086,2.9981 -4.3827,-1.0545 -0.075,-1.122 -0.1695,-2.2017 -0.1935,-2.398 -0.075,-0.6045 -3.0256,-0.384 -5.2546,0.393 -1.1625,0.405 -2.6024,0.6135 -3.1982,0.465 -1.4775,-0.3705 -12.0228,0.576 -16.1184,1.4475 -4.6083,0.981 -16.4515,2.0185 -25.9557,2.2744 -2.7504,0.075 -6.3936,0.489 -8.0962,0.921 -6.728,1.7085 -9.2603,2.0855 -11.1593,1.6611 -1.1415,-0.255 -2.722,-0.2325 -4.0482,0.06 -1.197,0.261 -4.2117,0.7125 -6.7,1.0035 -3.8087,0.444 -4.9011,0.411 -6.9056,-0.21 -3.1223,-0.9675 -3.9208,-0.9405 -7.5914,0.2655 -2.9909,0.9825 -3.1644,0.9885 -5.5728,0.201 -2.0862,-0.6825 -2.8118,-0.7215 -4.5114,-0.246 -1.1145,0.312 -2.9505,0.435 -4.0812,0.2745 -5.5715,-0.792 -7.4774,-0.822 -10.6598,-0.1605 -2.2399,0.465 -4.1511,0.576 -5.715,0.3315 -1.5787,-0.246 -3.2029,-0.15 -4.95,0.3 -1.4295,0.3675 -2.716,0.6525 -2.8575,0.636 -0.135,-0.015 -1.329,-0.3135 -2.6383,-0.657 z m 31.0848,-227.2053 c 2.2868,-1.1835 4.9956,-2.6151 6.0197,-3.1818 2.2491,-1.245 6.214,-1.6506 8.5599,-0.876 1.026,0.339 2.412,1.4145 3.4405,2.6691 1.7211,2.1005 2.5681,2.3384 2.5681,0.7215 0,-0.4725 0.51,-1.6087 1.1325,-2.5264 0.6225,-0.918 1.3815,-2.4219 1.6848,-3.3426 0.3045,-0.921 0.99,-2.0708 1.5264,-2.5556 0.5355,-0.4845 1.266,-1.5799 1.6226,-2.4339 0.357,-0.8535 1.2825,-2.3586 2.0556,-3.3435 0.774,-0.9855 1.5661,-2.3236 1.761,-2.9751 0.642,-2.1444 2.5674,-4.5582 4.5832,-5.7445 1.0905,-0.642 2.5377,-1.7976 3.2148,-2.5679 4.046,-4.6026 6.6801,-7.1416 8.2308,-7.9335 0.969,-0.495 2.4564,-1.9186 3.3065,-3.1645 2.1448,-3.1437 6.9318,-8.1113 9.2548,-9.6041 1.0665,-0.6855 2.654,-2.0599 3.5268,-3.0541 0.873,-0.9945 2.4081,-2.2263 3.4116,-2.7384 1.14,-0.582 2.1759,-1.6191 2.7599,-2.7639 1.041,-2.0421 4.7236,-5.5473 8.4009,-7.998 1.3305,-0.8865 3.3976,-2.9457 4.5952,-4.5767 2.6292,-3.5809 3.3815,-4.2868 6.0996,-5.7243 1.5204,-0.804 2.5329,-1.8486 3.6578,-3.7735 1.488,-2.5455 2.9637,-3.65 6.4462,-4.8221 0.4575,-0.1545 1.3365,-1.4205 1.9529,-2.8132 0.8805,-1.9901 1.9503,-3.2198 4.9924,-5.7366 2.1297,-1.7619 4.1945,-3.8268 4.5884,-4.5884 0.3945,-0.762 1.416,-1.8745 2.2711,-2.4727 0.855,-0.5985 2.4054,-2.0408 3.4449,-3.2054 1.107,-1.2405 2.9436,-2.5836 4.4321,-3.2418 2.0418,-0.903 2.6865,-1.4745 3.2754,-2.9044 0.933,-2.2655 2.329,-3.782 4.5109,-4.9011 1.164,-0.597 1.9613,-1.473 2.4494,-2.6921 0.9,-2.2465 2.1172,-3.3798 5.2677,-4.9026 2.0497,-0.99 2.7033,-1.642 3.8922,-3.8794 1.9275,-3.6279 2.6508,-4.3455 6.8592,-6.8066 5.3097,-3.105 5.6365,-3.3966 6.9705,-6.2163 1.4325,-3.0286 5.0716,-6.5019 7.9729,-7.6098 1.5758,-0.6015 2.4113,-1.386 3.8576,-3.6195 1.0155,-1.5682 3.2292,-4.0654 4.9194,-5.5494 1.7043,-1.497 3.5653,-3.6647 4.1781,-4.8682 1.2675,-2.4912 2.5168,-3.7225 5.3469,-5.2732 1.4985,-0.8205 2.2978,-1.7177 3.1641,-3.5475 0.6375,-1.347 1.986,-3.1128 2.9959,-3.9243 5.7948,-4.6556 17.5293,-16.541 20.1903,-20.45 0.93,-1.365 2.1743,-2.3665 4.0382,-3.2482 2.2275,-1.0545 2.85,-1.6262 3.5914,-3.3023 1.179,-2.6658 2.6025,-4.4307 4.2677,-5.2918 2.854,-1.476 7.6494,-6.1917 8.9568,-8.8083 1.0545,-2.1098 1.7388,-2.822 3.666,-3.8141 2.6371,-1.3575 8.2585,-6.6642 10.6581,-10.0611 0.8805,-1.2465 3.2542,-3.4077 5.4469,-4.9588 2.1374,-1.5122 5.4039,-4.1612 7.2588,-5.8868 1.8551,-1.7256 4.266,-3.846 5.3579,-4.7121 1.092,-0.8655 1.9863,-1.8306 1.9878,-2.1432 0.01,-1.4805 1.1055,-4.2525 2.2032,-5.5567 1.278,-1.5197 8.1604,-6.8484 10.5442,-8.1648 0.768,-0.4245 2.0571,-1.9239 2.8658,-3.3338 1.368,-2.3839 10.731,-11.9169 15.8494,-16.1362 1.1115,-0.9165 2.6267,-2.6474 3.3654,-3.8457 0.7395,-1.1985 2.4402,-3.1037 3.7806,-4.2339 1.5278,-1.2885 2.7867,-2.8745 3.3737,-4.2506 1.1325,-2.6535 2.7501,-4.393 7.8742,-8.4645 2.1456,-1.7047 4.2411,-3.6184 4.6566,-4.2526 0.4155,-0.6345 1.914,-1.8069 3.3299,-2.6061 1.9563,-1.104 2.6488,-1.7918 2.8845,-2.8641 0.279,-1.2735 -0.045,-1.7927 -3.3675,-5.3204 -2.0225,-2.1499 -4.2122,-4.7173 -4.866,-5.7054 -0.654,-0.9885 -1.9149,-2.245 -2.8023,-2.7936 -0.888,-0.549 -2.1798,-1.7395 -2.8719,-2.6469 -0.6915,-0.9075 -1.9155,-1.9896 -2.7186,-2.4049 -0.8025,-0.4155 -2.4518,-1.7838 -3.6636,-3.0413 -1.212,-1.257 -2.8238,-2.4319 -3.5817,-2.6101 -1.458,-0.342 -7.3929,-3.4254 -10.1801,-5.288 -0.912,-0.609 -1.9837,-1.1085 -2.3812,-1.11 -0.3975,-7e-4 -2.2109,-0.7515 -4.0293,-1.6668 -1.8186,-0.9165 -3.5915,-1.6654 -3.9398,-1.6654 -0.348,0 -1.6002,-0.891 -2.7819,-1.9805 l -2.1486,-1.9804 -1.5552,1.6233 c -0.855,0.8925 -2.3073,2.1891 -3.2266,2.8806 -1.095,0.8235 -1.8777,1.9464 -2.2701,3.256 -0.546,1.823 -2.97,5.7426 -6.0405,9.7683 -0.6585,0.8625 -2.016,2.1107 -3.018,2.7738 -1.0275,0.6795 -2.4491,2.3126 -3.2598,3.7433 -0.7905,1.395 -2.5889,3.6549 -3.9956,5.0205 -1.407,1.365 -3.7363,3.6276 -5.1769,5.0268 -3.656,3.5503 -6.8375,7.4059 -8.0138,9.7116 -0.5985,1.1745 -1.8261,2.4798 -3.0721,3.268 -1.1415,0.7215 -2.4888,2.0783 -2.9952,3.0141 -0.507,0.936 -2.1707,2.6492 -3.6983,3.8072 -1.5277,1.158 -2.9958,2.6662 -3.2625,3.3517 -1.5559,3.9986 -2.4127,5.3598 -4.0663,6.4599 -2.5245,1.6797 -6.6182,6.4496 -9.6269,11.217 -3.0771,4.8761 -6.4426,8.9526 -7.9633,9.6455 -0.6135,0.279 -1.6632,1.443 -2.333,2.5857 -0.669,1.143 -2.0605,2.6098 -3.0909,3.2602 -1.149,0.7245 -2.1612,1.8726 -2.6172,2.966 -0.4095,0.981 -1.353,2.4262 -2.0971,3.2121 -0.744,0.786 -1.8015,2.3244 -2.3496,3.4191 -0.6015,1.203 -2.511,3.2757 -4.8243,5.2387 -2.1846,1.8539 -4.4762,4.3154 -5.3378,5.7338 -0.831,1.3665 -2.4369,3.151 -3.57,3.9646 -1.1355,0.816 -2.371,2.2238 -2.7534,3.1391 -0.381,0.9135 -2.0781,2.9494 -3.7705,4.5259 -1.6923,1.5765 -4.4561,4.9392 -6.1416,7.4726 -3.461,5.202 -4.1583,5.9308 -6.683,6.9856 -1.3995,0.585 -2.0032,1.2405 -2.755,2.9948 -1.1595,2.706 -1.8401,3.504 -4.9655,5.8251 -1.6684,1.239 -2.895,2.7064 -4.0086,4.7961 -1.9815,3.7173 -4.6417,6.6505 -8.2618,9.1089 -1.7009,1.155 -3.3809,2.8306 -4.3536,4.3426 -0.8715,1.3545 -2.1618,2.9976 -2.8679,3.6524 -0.7065,0.6555 -1.7974,2.2749 -2.4252,3.6 -1.482,3.127 -2.932,4.4424 -6.0234,5.4604 -2.2675,0.747 -2.6344,1.068 -3.7072,3.252 -0.6555,1.332 -2.5232,3.8343 -4.1517,5.559 -1.6286,1.7249 -3.5219,4.1661 -4.2071,5.4252 -0.8205,1.5087 -2.4442,3.2278 -4.7604,5.0419 -4.075,3.1919 -7.0309,6.5336 -8.6458,9.7745 -0.627,1.2585 -1.7144,2.6644 -2.4156,3.124 -3.7715,2.4711 -8.4948,7.95 -10.5447,12.2315 -0.7035,1.467 -1.8264,2.7801 -3.1748,3.7078 -1.1475,0.7905 -4.135,3.8394 -6.6379,6.777 -2.5029,2.9376 -5.3715,6.1983 -6.3749,7.2461 -1.0035,1.0485 -2.1522,2.5486 -2.5533,3.3354 -0.402,0.786 -1.6621,2.3149 -2.802,3.3958 -1.14,1.0815 -2.6643,2.8545 -3.3874,3.9413 -0.723,1.0875 -2.3307,2.6037 -3.572,3.3709 -1.2405,0.768 -2.4018,1.5647 -2.5789,1.772 -0.177,0.207 -1.8167,1.9434 -3.6434,3.8578 -2.4547,2.5727 -3.597,4.2183 -4.3786,6.3084 -1.1955,3.1968 -3.8529,6.4832 -6.3143,7.8087 -0.912,0.4905 -2.0427,1.5432 -2.512,2.3378 -0.4695,0.795 -1.9803,2.6703 -3.3576,4.1686 -1.377,1.4985 -2.8439,3.3807 -3.2589,4.1831 -0.7605,1.47 -4.481,4.5828 -7.9305,6.6351 -1.0245,0.6105 -2.4847,2.0116 -3.244,3.1152 -0.759,1.104 -2.1371,2.4138 -3.0618,2.9119 -1.026,0.552 -1.9955,1.6016 -2.4875,2.6928 -1.1175,2.4788 -2.5914,3.7244 -5.5404,4.6827 -3.2677,1.062 -3.4255,1.9868 -0.84,4.9238 1.7453,1.9828 2.1899,2.2354 3.9503,2.2447 1.0905,0.01 2.8408,0.4035 3.8886,0.8835 2.473,1.134 9.5657,8.5208 9.9386,10.3514 0.1545,0.756 0.225,3.6636 0.1575,6.4605 -0.135,5.842 -0.5235,6.5889 -3.8575,7.5222 -1.461,0.4095 -2.5489,0.435 -3.7966,0.09 -0.9615,-0.2655 -2.9039,-0.363 -4.3161,-0.2175 -3.246,0.3345 -6.2814,-1.008 -8.0591,-3.5675 -1.4595,-2.1012 -2.3524,-2.7046 -5.0913,-3.4422 -1.365,-0.3675 -2.8548,-1.338 -4.4433,-2.8927 -1.4445,-1.4145 -2.8174,-2.3399 -3.4711,-2.3399 -1.056,0 -1.0755,0.09 -0.7965,3.7064 0.3165,4.105 -0.2115,5.6812 -3.1257,9.337 -0.8115,1.0185 -1.476,2.1465 -1.476,2.5073 0,0.843 2.5557,2.4129 5.0007,3.0726 2.7523,0.7425 4.7847,2.1255 5.899,4.014 0.5355,0.909 1.2,1.6515 1.476,1.6515 0.276,0 2.3729,-0.9675 4.6596,-2.1513 z m 229.7997,-31.8291 c -0.1515,-1.8729 -0.474,-3.9409 -0.7185,-4.5958 -0.4305,-1.1565 -0.462,-1.164 -1.122,-0.2655 -0.8565,1.167 -0.8445,1.8925 0.075,4.5288 0.4065,1.1655 0.6315,2.526 0.501,3.0225 -0.135,0.4965 -0.105,1.2345 0.045,1.6381 0.246,0.6435 0.3585,0.6315 0.888,-0.09 0.4245,-0.5805 0.5235,-1.8471 0.3315,-4.2339 z m 108.8413,-294.751 c 2.6135,-2.1004 2.7564,-2.6653 1.095,-4.3269 -1.3935,-1.3935 -2.3932,-1.6975 -8.2756,-2.5158 -3.0147,-0.42 -3.033,0.5505 -0.06,2.9904 1.2135,0.9945 2.716,2.6159 3.3397,3.6038 0.624,0.9885 1.323,1.7962 1.5528,1.7962 0.231,0 1.2855,-0.696 2.3445,-1.5477 z m -23.0463,-21.4609 c 0.594,-1.6794 0.255,-1.904 -2.1517,-1.428 -2.5538,0.5055 -2.8175,1.224 -0.8115,2.2116 1.9263,0.9495 2.3947,0.825 2.9632,-0.783 z m 30.2177,-4.0938 c 0.768,-0.486 0.468,-2.1821 -0.639,-3.6156 -0.7305,-0.9465 -0.7425,-0.945 -1.6875,0.171 -0.9345,1.104 -1.2615,2.9326 -0.6345,3.5589 0.4485,0.4485 2.1781,0.381 2.9616,-0.12 z m -13.0422,-26.9519 c 0,-0.6255 -0.3675,-1.005 -1.071,-1.104 -0.879,-0.12 -1.071,0.075 -1.071,1.104 0,1.0305 0.192,1.23 1.071,1.104 0.7035,-0.105 1.071,-0.48 1.071,-1.104 z M 4970.624,4662.107 c -0.4545,-0.5475 -0.4635,-2.1932 -0.045,-7.5251 0.2985,-3.7531 0.525,-7.8718 0.5025,-9.1525 -0.015,-1.281 0.1875,-3.1724 0.465,-4.2036 0.852,-3.161 1.7427,-12.3477 1.5063,-15.5226 -0.1905,-2.5497 -0.3405,-2.9538 -0.9975,-2.6687 -2.5173,1.0935 -6.2378,1.4595 -10.5374,1.0365 -2.4883,-0.2445 -6.0246,-0.51 -7.858,-0.591 -1.8336,-0.075 -3.9372,-0.384 -4.6745,-0.6735 -0.738,-0.291 -2.0817,-0.528 -2.9872,-0.528 -1.2585,0 -2.1329,-0.4485 -3.7115,-1.9033 -1.17,-1.0785 -2.7652,-2.0369 -3.6802,-2.2112 -2.0916,-0.399 -4.2348,-1.4835 -4.2348,-2.1436 0,-0.285 -1.6074,-2.1704 -3.5718,-4.1892 -3.6105,-3.71 -4.2352,-5.078 -2.8461,-6.231 0.576,-0.4785 1.4235,-0.4875 4.1057,-0.045 1.8588,0.3075 3.8361,0.8085 4.3938,1.116 2.1759,1.197 6.0679,1.2915 9.7706,0.2385 3.3437,-0.951 3.6266,-0.963 5.715,-0.225 1.209,0.426 3.3759,0.9 4.8165,1.053 3.456,0.3675 8.8167,1.1775 11.192,1.6918 1.0485,0.2265 2.788,0.5295 3.8676,0.6735 l 1.9626,0.261 0.363,-2.2579 c 0.1995,-1.242 0.4065,-4.4012 0.459,-7.0205 0.06,-2.6194 0.3405,-5.727 0.639,-6.9057 0.2985,-1.179 0.5475,-3.0765 0.555,-4.2174 0.01,-1.1415 0.3105,-3.2841 0.675,-4.7625 0.3645,-1.479 0.633,-4.5409 0.5955,-6.8053 -0.075,-4.7337 -0.5055,-5.4812 -4.2114,-7.3605 -1.2315,-0.624 -2.8388,-1.9029 -3.572,-2.8412 -0.7335,-0.939 -2.2974,-2.2036 -3.4761,-2.8122 -3.7206,-1.921 -7.0656,-4.9957 -8.3205,-7.6482 -1.3305,-2.8134 -1.7581,-3.2286 -4.0963,-3.9808 -2.1818,-0.702 -4.4135,-3.0257 -5.6184,-5.8505 -0.774,-1.8145 -1.3395,-2.3979 -3.0615,-3.1596 -1.161,-0.5145 -2.4701,-1.4415 -2.9076,-2.0608 -0.438,-0.6195 -1.317,-1.8767 -1.953,-2.7935 -0.636,-0.9165 -1.5076,-2.1447 -1.9359,-2.7288 -0.4275,-0.5835 -0.9825,-1.977 -1.233,-3.0955 -0.327,-1.464 -1.035,-2.568 -2.5276,-3.9423 -1.5542,-1.431 -2.1492,-2.3849 -2.376,-3.81 -0.309,-1.9409 -1.38,-6.0027 -2.261,-8.5689 -2.2087,-6.44 -3.2517,-10.8348 -4.0066,-16.8834 -0.663,-5.3114 -0.6555,-5.4786 0.285,-6.419 0.9045,-0.9045 1.047,-0.918 2.2725,-0.21 0.747,0.432 1.9194,1.9752 2.7357,3.6008 0.786,1.5649 2.2323,3.6031 3.2146,4.5292 0.9825,0.9255 1.7859,2.1161 1.7859,2.6444 0,0.528 0.516,1.299 1.1475,1.7128 0.6315,0.414 1.386,1.473 1.6767,2.3537 0.291,0.8805 1.1895,2.0899 1.9966,2.6869 0.807,0.597 1.8825,2.0222 2.3889,3.167 1.014,2.2936 2.8496,3.8782 6.1515,5.3122 1.194,0.519 2.6937,1.6271 3.3338,2.4639 0.6405,0.837 1.8334,2.3138 2.6518,3.2822 0.819,0.969 1.89,2.4205 2.3813,3.2268 1.7407,2.857 4.7509,5.8119 8.1817,8.0313 2.8571,1.8483 3.6906,2.6862 4.6854,4.7098 0.8505,1.7292 1.9145,2.9459 3.5772,4.0889 1.302,0.8955 3.2064,2.5807 4.2321,3.7459 2.0673,2.3486 3.3149,2.4366 3.3149,0.234 0,-0.7305 0.507,-2.2911 1.125,-3.4677 1.7553,-3.3366 2.3605,-6.8283 2.4345,-14.0455 0.06,-6.074 0.615,-10.4802 2.167,-17.271 0.255,-1.1175 0.4635,-3.6972 0.4635,-5.7339 0,-2.0367 0.345,-4.9805 0.7665,-6.5417 0.5295,-1.9563 0.7965,-5.2066 0.861,-10.4584 0.105,-8.462 0.8175,-13.9914 2.198,-17.0327 0.651,-1.4325 0.9225,-3.1212 0.9375,-5.8273 0.015,-2.7434 0.285,-4.3913 0.963,-5.8862 0.5175,-1.1415 0.9465,-2.8563 0.9525,-3.81 0.01,-0.954 0.4605,-2.6983 1.0095,-3.877 0.8685,-1.863 1.014,-3.1701 1.1145,-10.0013 0.12,-8.5548 0.771,-15.6618 1.6149,-17.7712 0.2955,-0.738 0.5355,-2.8469 0.5355,-4.6877 0,-4.239 1.6263,-12.3043 2.998,-14.8686 0.9225,-1.7235 1.05,-2.6896 1.05,-7.9162 0,-5.085 0.135,-6.15 0.915,-7.3032 0.735,-1.086 0.9315,-2.2976 0.999,-6.1913 0.075,-4.4163 0.4545,-6.6628 2.3571,-13.9794 0.4695,-1.8049 0.516,-3.0243 0.174,-4.5244 -0.51,-2.24 -0.273,-4.6844 0.7785,-8.0067 1.488,-4.7025 2.3202,-9.0461 2.6456,-13.8113 0.2475,-3.613 0.6375,-5.6481 1.41,-7.3342 0.84,-1.8342 1.002,-2.8025 0.7575,-4.5243 -0.888,-6.2697 -0.882,-6.5193 0.21,-8.9063 0.8055,-1.7598 1.0485,-3.1083 0.9885,-5.4871 -0.06,-2.2017 0.2145,-3.8966 0.891,-5.6136 0.5325,-1.353 0.969,-3.1677 0.969,-4.0332 0,-0.8655 0.3195,-2.6256 0.7095,-3.9114 0.39,-1.2855 0.711,-3.7325 0.714,-5.4368 0,-1.7043 0.2295,-3.8473 0.504,-4.7625 0.2745,-0.915 0.696,-2.8082 0.9345,-4.2073 0.24,-1.3995 1.086,-4.2316 1.8819,-6.2949 0.795,-2.0632 1.446,-4.1191 1.446,-4.5688 0,-0.45 0.4545,-1.7562 1.0095,-2.9036 0.783,-1.6182 0.9255,-2.4796 0.6375,-3.8413 -0.2055,-0.9645 -0.3135,-5.1842 -0.243,-9.3752 0.105,-6.3555 0.3195,-8.2732 1.2675,-11.5563 0.639,-2.2101 1.137,-5.1966 1.137,-6.8101 0,-1.5807 0.2925,-3.4527 0.6495,-4.1601 0.357,-0.7065 0.9015,-3.4292 1.2105,-6.0485 0.3075,-2.6194 0.78,-5.727 1.0485,-6.9057 0.2685,-1.179 0.594,-3.9648 0.7245,-6.1912 0.135,-2.2265 0.5265,-5.4411 0.8805,-7.1438 0.354,-1.7025 1.008,-4.9173 1.4535,-7.1437 0.4455,-2.2265 1.0185,-4.7486 1.272,-5.6046 0.2535,-0.858 0.3165,-3.1023 0.135,-5.0007 -0.2655,-2.8541 -0.15,-3.9482 0.699,-6.3863 0.7875,-2.269 1.056,-4.339 1.176,-9.0487 0.09,-3.3587 0.396,-6.7098 0.69,-7.4472 0.294,-0.738 0.534,-2.2983 0.534,-3.4686 0,-1.347 0.4545,-3.0237 1.236,-4.5677 1.0485,-2.0685 1.1895,-2.817 0.9255,-4.9216 -0.231,-1.8444 -0.075,-3.141 0.591,-5.0474 0.7755,-2.2077 0.8175,-2.7976 0.3015,-4.2304 -0.987,-2.7362 -0.762,-4.977 0.9705,-9.6309 1.5601,-4.1915 1.6407,-4.7076 1.5801,-10.1315 -0.045,-4.4931 0.12,-6.199 0.8025,-7.9789 0.6375,-1.664 0.789,-2.9267 0.573,-4.7646 -0.333,-2.8382 1.083,-10.8453 2.352,-13.3004 0.5265,-1.017 0.6975,-2.1882 0.5325,-3.6495 -0.135,-1.1835 0.06,-3.3012 0.423,-4.7068 0.366,-1.4055 0.666,-3.6275 0.666,-4.9373 0,-2.6797 0.7575,-4.452 2.574,-6.0222 0.9495,-0.822 1.236,-1.5133 1.236,-2.9919 0,-1.0575 0.3585,-2.7202 0.7965,-3.694 0.447,-0.993 0.843,-3.2339 0.9015,-5.1044 0.06,-1.8336 0.225,-3.8695 0.3735,-4.5244 0.15,-0.6555 0.39,-1.9718 0.54,-2.9264 0.15,-0.954 0.909,-2.5378 1.6882,-3.5182 1.1835,-1.4895 1.419,-2.2221 1.434,-4.4556 0.01,-1.47 0.3225,-3.2087 0.6975,-3.8636 0.3735,-0.654 0.6885,-1.8732 0.6975,-2.7073 0.01,-0.834 0.219,-2.0501 0.4665,-2.7017 0.624,-1.6411 -0.2205,-2.2156 -3.9336,-2.6761 -4.0327,-0.501 -5.188,-1.143 -4.9989,-2.7816 0.135,-1.155 0.513,-1.386 3.9578,-2.4002 2.0955,-0.618 4.3456,-1.239 5.0005,-1.38 1.383,-0.3 1.8876,-0.912 1.8977,-2.3044 0.01,-1.3995 1.6105,-2.7341 2.8183,-2.3508 0.5355,0.1695 1.3695,0.813 1.8543,1.428 0.8025,1.02 1.1925,1.107 4.4177,0.9885 1.9458,-0.075 4.141,-0.3735 4.8783,-0.6705 0.738,-0.297 2.0277,-0.5415 2.8671,-0.5415 0.84,0 3.0732,-0.429 4.9636,-0.9525 1.8905,-0.5235 4.1364,-0.9495 4.9911,-0.9465 1.5084,0.01 4.1259,-0.483 12.0314,-2.2436 4.0192,-0.8955 8.4252,-1.05 12.3825,-0.435 3.4797,0.5415 4.2844,-0.201 4.1464,-3.8254 -0.09,-2.2464 0.168,-3.3674 1.3035,-5.7609 0.7755,-1.6346 1.5488,-3.7104 1.7181,-4.613 0.1695,-0.903 1.0065,-2.4586 1.8594,-3.4576 0.8535,-0.999 2.0091,-2.7155 2.5685,-3.8144 1.4055,-2.7598 7.1011,-7.4802 9.9762,-8.2665 1.2315,-0.3375 3.3288,-1.2195 4.6596,-1.9606 2.9187,-1.626 5.4054,-1.7366 8.5674,-0.381 1.2405,0.5325 3.2407,1.1835 4.4448,1.4475 1.2045,0.264 3.3681,1.2015 4.8087,2.0811 1.44,0.8805 3.4767,1.834 4.5244,2.1198 2.2326,0.609 3.3984,1.3605 7.0713,4.5577 3.3827,2.945 4.028,3.9254 4.6124,7.0068 0.306,1.6148 1.095,3.2901 2.2983,4.8845 1.008,1.335 2.9613,4.7271 4.3414,7.5387 l 2.5094,5.1121 3.9282,-0.045 c 2.7322,-0.03 4.3749,0.189 5.3953,0.717 1.9088,0.987 2.3736,0.9615 5.1447,-0.2895 1.8158,-0.819 3.5691,-1.1055 8.0331,-1.3095 l 5.7104,-0.261 0.672,-1.4055 c 0.3735,-0.7815 0.711,-3.1056 0.759,-5.2387 0.06,-2.6856 0.3825,-4.4961 1.0695,-6.0461 0.54,-1.2165 1.1355,-2.9314 1.3215,-3.81 0.3585,-1.69 2.9974,-6.4107 4.8309,-8.6437 0.6015,-0.732 1.3485,-2.1842 1.6608,-3.2268 1.077,-3.5933 7.14,-7.5864 11.5197,-7.5864 0.852,0 2.7831,-0.321 4.2915,-0.714 4.0156,-1.0455 5.9886,-0.891 10.4049,0.8175 3.5565,1.3755 4.3527,1.9327 7.8234,5.4768 2.1252,2.1702 4.0954,3.9456 4.3782,3.9456 1.1565,0 6.441,5.5461 7.6957,8.0764 0.72,1.452 2.5175,4.6287 3.9948,7.0605 3.3626,5.5346 4.392,7.5627 4.8009,9.4581 l 0.3225,1.497 9.1412,-0.204 c 6.4762,-0.15 9.6645,-0.4065 10.9366,-0.9015 0.987,-0.384 2.6444,-0.6975 3.6819,-0.6975 2.0513,0 2.0934,-0.06 2.531,-4.048 0.12,-1.0485 0.891,-2.9981 1.7232,-4.3341 0.8325,-1.3365 1.8052,-3.8207 2.161,-5.5215 1.0815,-5.1717 5.8727,-12.2613 9.6912,-14.3421 1.2255,-0.6675 2.8656,-1.8804 3.6441,-2.6943 2.0536,-2.147 5.5759,-3.0357 11.6628,-2.9432 5.449,0.09 4.6233,-0.243 10.863,4.2842 3.147,2.2831 3.7345,3.0519 4.6447,6.0771 0.402,1.338 1.5761,3.5646 2.6075,4.947 2.7774,3.7227 3.0603,4.9578 2.3808,10.3962 -0.3165,2.5338 -0.4995,5.3497 -0.4065,6.2575 l 0.1695,1.6508 4.9272,1.1745 c 4.2895,1.023 5.1994,1.101 7.0315,0.612 2.8836,-0.771 4.7889,-0.7095 7.4379,0.24 2.1147,0.7575 2.4069,0.7575 4.8044,0 2.8719,-0.906 6.426,-1.038 8.8905,-0.33 1.401,0.402 1.7959,0.3315 2.5953,-0.468 0.774,-0.7725 0.9225,-1.4925 0.8295,-3.9992 -0.12,-3.1785 0.834,-7.3164 2.803,-12.1987 3.3491,-8.3021 4.0173,-9.6339 5.4782,-10.9164 1.638,-1.4385 6.1732,-3.3638 7.9647,-3.3815 0.579,-0.01 1.9674,-0.426 3.0843,-0.933 6.3355,-2.8756 10.7995,-1.032 20.3907,8.4227 3.8707,3.8157 4.3684,4.5186 5.595,7.9042 0.741,2.0439 1.9431,4.4013 2.6724,5.2388 2.2627,2.5981 2.9068,4.3258 2.7721,7.4362 -0.075,1.589 0.105,3.078 0.3945,3.3672 0.285,0.285 2.5353,0.5805 5.0007,0.6585 2.4653,0.075 4.9274,0.378 5.4711,0.669 0.711,0.381 1.9809,0.3915 4.5245,0.03 1.9446,-0.2715 4.3929,-0.339 5.4406,-0.153 1.8291,0.3255 14.6496,0.675 24.8937,0.6765 5.5938,0 6.9041,0.45 6.6864,2.2869 -0.1785,1.5087 -1.7071,2.0904 -5.8626,2.2311 -3.8413,0.135 -12.2998,1.1265 -15.24,1.7951 -1.3095,0.2985 -3.6672,0.57 -5.2387,0.6045 -1.5717,0.03 -3.3503,0.333 -3.9525,0.6615 -0.8475,0.4635 -1.47,0.4755 -2.7501,0.06 -1.299,-0.429 -2.4453,-0.3945 -5.3345,0.1635 -2.0236,0.39 -4.0008,0.732 -4.3936,0.759 -5.9747,0.4095 -10.5141,0.966 -11.6481,1.4265 -0.81,0.3285 -4.9616,0.6765 -9.7631,0.819 -4.5949,0.135 -9.8547,0.297 -11.6881,0.3585 -3.083,0.105 -5.4584,0.804 -5.4902,1.6212 -0.384,9.8827 -0.33,10.7715 0.7905,13.1775 0.7275,1.563 1.1205,3.2853 1.1235,4.9269 0,1.389 0.297,3.1027 0.6555,3.81 0.3585,0.708 0.795,2.0866 0.972,3.0651 0.186,1.029 0.765,2.0878 1.374,2.5117 5.4426,3.7934 6.1596,4.1474 7.325,3.6165 1.6534,-0.753 4.7293,-0.648 6.4081,0.2205 0.8445,0.4365 1.7465,1.473 2.1752,2.5002 0.4035,0.9645 1.3815,2.4936 2.1744,3.3971 0.7935,0.903 1.8667,2.6035 2.3862,3.7779 0.8595,1.9446 0.8925,2.4264 0.3615,5.3983 -0.321,1.7946 -1.1955,4.488 -1.9427,5.9852 -0.747,1.497 -1.7746,4.0573 -2.2821,5.6893 -1.0365,3.3306 -6.3445,12.524 -9.2043,15.9396 -1.119,1.3365 -2.9269,2.7552 -4.4779,3.5141 -3.2757,1.6026 -4.854,1.4025 -10.1654,-1.293 -4.347,-2.2056 -5.7702,-4.0445 -5.7396,-7.4165 0.015,-2.3223 2.5004,-9.4771 3.7421,-10.7988 1.134,-1.206 3.3853,-6.1324 3.3853,-7.4053 0,-0.5505 -1.2375,-1.8135 -3.2146,-3.2841 -4.2633,-3.17 -6.0587,-5.0987 -7.2435,-7.7811 -0.54,-1.2225 -1.7231,-3.1103 -2.6289,-4.1945 -1.3845,-1.6578 -2.616,-4.4028 -2.6265,-5.8567 0,-0.2025 -0.9495,-2.0243 -2.1078,-4.0482 -1.158,-2.024 -2.2457,-4.4301 -2.4176,-5.3469 -0.1725,-0.9165 -0.645,-2.5752 -1.053,-3.6854 -0.5235,-1.428 -0.6405,-2.6815 -0.396,-4.2862 0.534,-3.5132 0.462,-4.47 -0.5265,-7.0166 -0.816,-2.103 -1.1265,-2.4165 -2.7684,-2.8048 -1.2435,-0.294 -2.3407,-0.2595 -3.3498,0.105 -1.851,0.669 -4.2184,0.69 -6.4998,0.06 -1.299,-0.36 -2.422,-0.3015 -4.4808,0.234 -1.548,0.4035 -3.5188,0.5925 -4.5138,0.4335 -0.996,-0.159 -2.2155,-0.045 -2.796,0.2685 -1.266,0.6765 -10.9107,1.9797 -15.7659,2.1291 -1.9645,0.06 -4.7506,0.369 -6.1912,0.6855 -1.7817,0.3915 -4.6187,0.474 -8.8715,0.2565 -8.8692,-0.453 -8.5629,-0.6015 -8.976,4.3572 -0.1875,2.2431 -0.7485,5.2404 -1.248,6.6607 -1.1715,3.3344 -1.1445,4.0746 0.2475,6.8234 0.636,1.254 1.5101,3.6486 1.9434,5.3208 1.52,5.8657 2.9565,7.2511 4.9965,4.8183 0.6555,-0.7815 1.985,-2.3738 2.9549,-3.5382 1.9579,-2.351 3.7477,-2.9922 6.0813,-2.1788 1.5072,0.525 2.3946,1.6554 2.3946,3.0491 0,0.438 1.044,2.3593 2.3217,4.2685 2.4642,3.6843 3.1542,6.0753 3.7101,12.8564 0.195,2.3724 0.045,4.0795 -0.498,5.9205 -0.4245,1.4235 -0.771,3.4156 -0.771,4.4289 0,1.014 -0.363,2.5281 -0.807,3.3664 -0.444,0.8385 -0.9495,2.8421 -1.125,4.4529 -0.393,3.6204 -1.6049,5.4318 -4.899,7.3211 -3.2948,1.8897 -6.018,1.912 -8.9124,0.075 -2.6705,-1.6967 -4.8641,-4.1892 -6.4619,-7.3422 -1.077,-2.1263 -1.2135,-2.8761 -1.002,-5.5101 0.297,-3.7097 -0.291,-4.5017 -3.9264,-5.2814 -1.3574,-0.291 -2.9338,-0.768 -3.503,-1.0575 -1.9148,-0.9795 -5.066,-4.3999 -5.6252,-6.1068 -0.3045,-0.9315 -1.2495,-2.5501 -2.1,-3.5979 -1.86,-2.2927 -2.5726,-4.6518 -2.2554,-7.4661 0.2385,-2.1117 -0.06,-2.935 -3.1434,-8.7081 -1.152,-2.1556 -1.23,-3.4651 -0.459,-7.6522 0.396,-2.1503 0.4095,-3.6875 0.045,-5.516 -0.3525,-1.7817 -0.351,-3.3456 0.01,-5.2636 0.777,-4.1754 1.047,-4.0731 -10.2381,-3.8741 -5.3095,0.09 -10.2751,0.378 -11.0346,0.633 -2.1982,0.735 -4.7538,0.543 -7.6912,-0.582 l -2.7275,-1.044 -2.9109,1.044 c -3.4959,1.254 -5.3022,1.2975 -10.0998,0.243 -3.2304,-0.7095 -4.0566,-0.7275 -7.2763,-0.1515 -1.9977,0.357 -5.8923,0.6645 -8.6547,0.6825 -3.9543,0.03 -5.2947,0.21 -6.3027,0.8715 -1.6974,1.113 -2.1006,2.8883 -1.122,4.9415 0.4935,1.0335 0.7785,2.8663 0.7785,4.9959 0,2.5776 0.2175,3.6694 0.9345,4.6747 0.513,0.7215 1.131,2.1891 1.3725,3.2613 0.243,1.08 1.26,2.9361 2.2806,4.1609 6.0672,7.281 6.1149,7.2972 8.3175,2.823 1.9633,-3.9879 4.5922,-6.7295 6.8611,-7.1552 0.9465,-0.177 3.4263,-0.105 5.5112,0.162 4.4643,0.57 6.6991,1.9638 8.1024,5.0538 1.1595,2.5539 1.137,4.4171 -0.09,7.7099 -0.8955,2.394 -0.9705,3.273 -0.681,7.995 l 0.3255,5.3055 -1.5486,2.3248 c -1.3995,2.1021 -1.5567,2.6954 -1.634,6.1913 -0.09,4.0492 -1.5772,10.4488 -2.8983,12.4648 -1.065,1.625 -3.2847,2.8701 -6.6754,3.7442 -3.9936,1.029 -5.5361,0.951 -8.1624,-0.4125 -5.312,-2.7582 -6.7626,-4.4739 -6.7676,-8.004 0,-1.7322 0.4575,-3.1439 1.9553,-6.0053 2.4391,-4.6593 2.296,-5.5345 -0.975,-5.9686 -2.6471,-0.351 -7.3335,-1.8747 -8.877,-2.886 -2.7024,-1.7708 -14.7399,-17.7125 -15.6755,-20.7596 -0.1965,-0.642 -1.062,-2.4543 -1.9203,-4.0258 -2.3376,-4.2776 -3.2032,-10.1388 -2.1804,-14.7638 0.3225,-1.458 -0.045,-5.2557 -0.564,-5.7708 -0.156,-0.156 -1.3665,-0.01 -2.6889,0.3315 -2.0991,0.5385 -2.7394,0.51 -5.0482,-0.2175 -1.9866,-0.627 -3.0243,-0.72 -4.1726,-0.3765 -0.84,0.252 -4.2141,0.4665 -7.4967,0.4785 -3.2826,0.012 -6.5647,0.249 -7.2937,0.5265 -2.0877,0.7935 -4.9379,0.5925 -7.0791,-0.4995 -2.0285,-1.035 -2.2862,-1.038 -9.5402,-0.135 -1.245,0.1545 -2.95,0.045 -3.7989,-0.255 -0.8475,-0.2955 -3.391,-0.669 -5.6533,-0.8295 -3.6582,-0.2595 -4.5165,-0.153 -7.7544,0.966 -4.2948,1.4835 -4.4672,1.4925 -7.7522,0.4575 -1.395,-0.4395 -2.6842,-0.651 -2.865,-0.471 -0.18,0.18 0.156,1.1895 0.747,2.2418 0.591,1.053 1.254,3.1725 1.4715,4.7116 0.3255,2.3027 0.7755,3.2643 2.5383,5.4291 1.179,1.4475 2.2793,3.0605 2.4459,3.5858 0.1665,0.525 1.9541,2.0163 3.972,3.3133 2.018,1.2975 4.3707,3.1332 5.2283,4.0799 1.4235,1.5714 1.7827,1.7214 4.123,1.7214 h 2.5637 l 2.6983,-4.0136 c 1.9445,-2.8926 3.1074,-4.1563 4.1633,-4.5244 2.0098,-0.7005 3.0033,-0.6405 3.7209,0.2235 0.3345,0.4035 2.2366,1.884 4.2255,3.2892 4.9159,3.4732 5.4499,4.5009 5.5804,10.7389 0.12,6.0158 -0.651,10.2083 -3.237,17.4596 -2.4534,6.8806 -3.8346,8.5138 -9.6357,11.3937 -4.2942,2.1318 -4.465,2.1739 -6.4239,1.587 -3.8086,-1.1415 -5.0347,-3.6689 -5.5822,-11.508 l -0.324,-4.6436 h -3.1931 c -2.8953,0 -3.6769,-0.237 -8.383,-2.548 -5.8434,-2.8689 -9.9296,-5.3789 -11.4666,-7.0437 -0.57,-0.618 -1.299,-2.1666 -1.6182,-3.4412 -0.498,-1.9902 -0.8895,-2.5063 -2.7725,-3.6564 -4.932,-3.013 -5.6142,-3.9025 -6.9187,-9.0204 -0.4335,-1.6999 -1.5303,-4.1668 -2.4407,-5.4885 -1.3215,-1.918 -1.8463,-3.4036 -2.6136,-7.3897 -0.528,-2.7438 -1.0695,-5.3415 -1.2015,-5.7723 -0.276,-0.894 -2.3446,-1.38 -6.8959,-1.6221 -2.0538,-0.105 -4.0008,-0.5775 -5.715,-1.3755 -1.9482,-0.9075 -3.3843,-1.212 -5.7297,-1.215 -1.7214,0 -4.0788,-0.3105 -5.2388,-0.6855 -1.7974,-0.5805 -11.164,-2.4146 -20.9829,-4.109 -3.7614,-0.6495 -4.2132,-0.375 -4.252,2.5778 -0.09,7.1457 0.12,12.2236 0.582,14.3022 0.2955,1.3125 0.402,3.9087 0.2445,5.9532 -0.1545,1.9944 -0.045,5.2333 0.2355,7.1979 0.78,5.3926 0.789,13.1365 0.015,16.9069 -0.9495,4.6548 -1.632,12.0959 -1.5621,17.0232 0.03,2.2904 -0.249,5.3979 -0.6255,6.9056 -1.311,5.2527 -1.838,9.4389 -1.7585,13.96 0.045,2.5032 -0.1575,5.1756 -0.447,5.9388 -0.774,2.0373 -1.8981,7.9796 -2.3839,12.608 -0.87,8.2879 -1.4175,11.265 -2.5833,14.0494 -1.3905,3.3219 -1.485,4.9103 -0.4665,7.8386 0.621,1.783 0.6495,2.6227 0.1815,5.2387 -0.696,3.8873 -1.1775,6.1425 -2.0933,9.7827 -0.8595,3.4155 -1.7983,13.7729 -1.8793,20.7168 -0.06,4.5503 -0.18,5.2152 -1.404,7.382 -1.0185,1.8037 -1.4565,3.4206 -1.8048,6.6675 -0.252,2.3574 -0.7725,5.2351 -1.155,6.3951 -0.3825,1.1595 -0.696,3.6849 -0.696,5.6112 0,1.9681 -0.3,4.2201 -0.684,5.1408 -0.3825,0.915 -0.657,2.9589 -0.621,4.6281 0.045,2.4466 -0.186,3.4656 -1.308,5.6091 -1.35,2.5794 -1.3695,2.7355 -1.3335,10.2343 0.03,7.2663 -0.015,7.7241 -1.1805,10.0013 -0.942,1.8448 -1.3065,3.4987 -1.608,7.2894 -0.2145,2.6968 -0.6975,6.0835 -1.0755,7.5262 -0.45,1.7222 -0.5955,3.8082 -0.4245,6.0743 0.195,2.582 0.045,4.1648 -0.609,6.2851 -0.4785,1.5585 -1.011,4.5483 -1.1835,6.6438 -0.3525,4.2768 -1.095,8.1555 -2.3712,12.3825 -0.474,1.5715 -1.0125,3.8218 -1.1955,5.0005 -0.183,1.179 -0.6525,2.7704 -1.0455,3.5369 -0.5115,1.0005 -0.6285,2.1201 -0.411,3.9652 0.3675,3.1256 -0.4635,9.968 -1.6034,13.2149 -0.5745,1.6371 -0.765,3.223 -0.609,5.0751 0.1845,2.194 0,3.1866 -0.9885,5.3482 -0.9525,2.0798 -1.275,3.7131 -1.4895,7.5455 -0.15,2.6901 -0.5055,6.6057 -0.7905,8.7012 -0.2835,2.0955 -0.657,6.2745 -0.828,9.2868 -0.1725,3.0123 -0.5055,5.7777 -0.7425,6.1453 -0.237,0.3675 -0.5925,2.4519 -0.792,4.6316 -0.2895,3.1761 -0.6645,4.4928 -1.887,6.6298 -1.2735,2.225 -1.476,2.9783 -1.2255,4.5486 0.1875,1.176 -3e-4,3.0128 -0.501,4.8933 -0.75,2.8151 -0.75,3.141 -0.01,4.998 1.1145,2.7839 0.9945,4.8663 -0.4785,8.2919 -1.1115,2.5857 -1.278,3.628 -1.3095,8.2009 -0.03,4.9383 -0.159,5.5854 -2.1665,11.2859 -2.0289,5.7612 -2.1021,6.15 -1.5478,8.2221 0.84,3.1392 0.7275,4.315 -0.837,8.7493 -1.218,3.4547 -1.3425,4.2674 -0.9615,6.2756 0.45,2.3761 0.324,3.0207 -3.3005,16.8592 -0.543,2.072 -0.9885,4.3223 -0.9915,5.0006 0,0.678 -0.339,2.3052 -0.7455,3.6148 -0.612,1.968 -0.684,3.8786 -0.4155,11.0097 0.33,8.781 0.15,10.6616 -1.8162,18.2796 -0.5505,2.1392 -0.6105,3.8925 -0.3195,9.287 0.1575,2.9179 -0.2805,4.1832 -2.3901,6.9055 -0.888,1.146 -0.8925,1.302 -0.135,4.1292 0.741,2.7681 0.7365,3.0954 -0.06,5.6409 -0.6075,1.9253 -0.7605,3.3704 -0.5325,5.025 0.219,1.5906 0.09,3.0399 -0.4275,4.5984 -0.93,2.8364 -1.7209,10.5798 -1.188,11.6289 0.6555,1.29 5.0973,4.2201 6.3978,4.2201 1.614,0 3.8103,1.173 6.3176,3.3729 1.131,0.993 2.7136,1.9487 3.5172,2.1252 1.8492,0.4065 7.7451,3.3845 8.4996,4.2935 0.3135,0.3765 1.347,0.6855 2.2969,0.687 0.951,1e-4 3.0135,0.603 4.5852,1.3395 1.5716,0.7365 4.4648,1.6147 6.4293,1.9509 1.9646,0.336 4.8239,1.2285 6.3542,1.9816 2.4163,1.191 3.1377,1.3335 5.4841,1.089 1.7888,-0.1875 3.7185,-0.015 5.7096,0.4875 1.6544,0.4245 3.9072,0.771 5.0066,0.771 2.3119,0 4.1155,1.0665 4.1155,2.4326 0,1.197 -2.5525,2.3299 -5.2471,2.3299 -1.0695,0 -2.5869,0.333 -3.3728,0.7395 -0.786,0.4065 -1.8571,0.603 -2.3805,0.4365 -0.5235,-0.1665 -1.278,-0.03 -1.6761,0.2985 -0.4065,0.3375 -2.3307,0.66 -4.3824,0.735 -2.0119,0.075 -5.1897,0.348 -7.0618,0.609 -2.3238,0.3255 -3.9105,0.3195 -5.0006,-0.015 -0.8775,-0.273 -5.4544,-0.483 -10.1692,-0.465 l -8.5725,0.03 -3.81,-1.7038 c -2.0955,-0.9375 -5.2031,-2.0108 -6.9057,-2.3855 -1.73,-0.381 -3.936,-1.278 -5.0006,-2.0323 -2.1282,-1.5089 -4.7248,-2.9108 -5.3917,-2.9108 -0.2415,0 -0.582,1.2645 -0.756,2.8116 -0.2325,2.0553 -0.7155,3.3596 -1.7945,4.8495 -1.7736,2.4483 -2.7898,5.6997 -3.1903,10.2071 -0.2355,2.6578 -0.6075,3.8116 -1.8152,5.6326 -1.332,2.0105 -2.4502,4.9665 -1.98,5.2368 0.09,0.045 1.128,0.5715 2.3075,1.1535 1.179,0.5835 2.4646,1.263 2.8575,1.5101 0.393,0.2475 1.29,0.57 1.9923,0.7185 0.747,0.156 1.4145,0.696 1.6062,1.302 0.561,1.7665 -0.906,2.3514 -5.7416,2.2905 -2.3575,-0.03 -4.5322,-0.045 -4.8327,-0.03 -0.3,0.015 -0.795,1.455 -1.098,3.1963 -0.303,1.7414 -0.957,3.9606 -1.452,4.9319 -0.495,0.972 -1.2435,3.1363 -1.6614,4.8112 -0.4185,1.6751 -0.963,3.8322 -1.2105,4.794 -0.2475,0.9615 -0.8565,2.4618 -1.356,3.3338 -0.498,0.8715 -1.0425,2.3673 -1.209,3.3232 -0.1665,0.9555 -0.5925,1.9779 -0.9465,2.2712 -0.354,0.2925 -0.78,1.3965 -0.9495,2.4499 -0.168,1.0545 -0.5265,2.2826 -0.795,2.7294 -0.2685,0.447 -1.0875,2.3129 -1.8202,4.1465 -1.1025,2.7615 -1.5354,3.3583 -2.5196,3.4768 -0.654,0.075 -1.4505,-0.1725 -1.77,-0.558 z m 176.9604,-623.337 c 2.6754,-0.96 3.1959,-1.002 5.7436,-0.477 4.0763,0.8415 5.3637,0.765 5.3637,-0.3195 0,-0.4935 -0.5895,-1.2795 -1.3095,-1.7448 -0.72,-0.4665 -3.8562,-3.394 -6.9687,-6.5068 -3.3706,-3.3711 -5.9667,-5.6006 -6.42,-5.5133 -0.717,0.135 -3.8968,4.2527 -5.5533,7.1867 -0.939,1.6636 -0.78,5.551 0.249,6.0759 0.99,0.504 5.4237,2.3181 5.715,2.3371 0.135,0.01 1.5621,-0.459 3.1802,-1.0395 z m 100.0174,-0.63 c 4.767,-1.0755 4.5762,-0.9495 3.7778,-2.4744 -0.3795,-0.7245 -1.4865,-2.0683 -2.4597,-2.9851 -0.9735,-0.9165 -2.3451,-2.5574 -3.0486,-3.6458 -1.362,-2.1078 -5.7231,-6.3003 -7.5639,-7.2721 -1.8441,-0.9735 -2.298,-0.384 -2.6003,3.3744 -0.1695,2.1063 -0.861,5.0623 -1.7389,7.4382 -0.801,2.1685 -1.458,4.2259 -1.458,4.5718 0,0.48 0.816,0.585 3.4528,0.444 2.7633,-0.15 6.5879,0.4215 8.3048,1.239 0.045,0.03 1.5495,-0.2865 3.3337,-0.6885 z m 167.4345,-4.1746 c -0.12,-2.3334 -2.0844,-6.0474 -3.198,-6.0474 -1.092,0 -2.7194,2.3035 -2.9751,4.2106 -0.54,4.0296 0.474,4.9832 4.6222,4.3427 1.6542,-0.255 1.6661,-0.2745 1.5509,-2.5059 z m -83.1987,0.954 c 0.3315,-0.864 -3.5111,-8.9067 -4.2552,-8.9067 -1.02,0 -2.7317,2.1831 -3.2319,4.1212 -0.888,3.4376 -0.8175,3.6621 1.2675,4.0355 1.0485,0.1875 2.4406,0.558 3.0955,0.825 1.6703,0.678 2.8466,0.6495 3.1247,-0.075 z m 205.545,603.0848 c -4.6706,-0.993 -5.5685,-1.7206 -6.5165,-5.2828 -1.281,-4.8105 -0.66,-8.0388 2.1324,-11.0889 0.9945,-1.086 2.2542,-2.8581 2.8005,-3.9384 1.2375,-2.4458 3.3596,-4.2672 5.838,-5.0097 1.5857,-0.4755 2.3241,-0.4365 4.4358,0.228 3.1232,0.984 6.1977,3.1558 7.1925,5.0794 0.8805,1.7039 1.0335,4.9203 0.339,7.1948 -0.27,0.888 -0.6165,2.9596 -0.768,4.6033 -0.417,4.529 -2.0056,6.9018 -5.6362,8.4188 -2.2124,0.924 -4.7559,0.8715 -9.8189,-0.2055 z m -344.4718,-181.9498 c -3.0513,-0.2205 -6.4413,-0.642 -7.5333,-0.936 -1.5071,-0.4065 -2.6373,-0.3915 -4.6916,0.06 -1.5864,0.348 -5.9046,0.582 -10.4359,0.5655 -6.8453,-0.03 -8.0636,-0.1545 -10.6457,-1.1205 -2.8065,-1.05 -2.9986,-1.062 -5.1289,-0.318 -1.3965,0.4875 -3.881,0.786 -6.7374,0.8085 -2.4884,0.015 -5.8103,0.06 -7.3818,0.075 -1.5717,0.015 -4.0871,-0.321 -5.5898,-0.7635 -1.5027,-0.4425 -2.9472,-0.6705 -3.2101,-0.5085 -0.2625,0.162 -2.1875,0.03 -4.277,-0.2865 -3.1387,-0.48 -4.1536,-0.4665 -5.8386,0.075 -2.3971,0.78 -20.142,1.293 -30.1383,0.873 -1.8336,-0.075 -4.77,0.045 -6.5254,0.261 -2.6963,0.339 -3.6201,0.249 -5.9531,-0.582 -1.5189,-0.5415 -3.3343,-1.107 -4.0345,-1.257 -2.8836,-0.6195 -5.4488,-4.0301 -5.6412,-7.5 -0.2235,-4.0158 -0.03,-4.6853 2.0661,-6.9627 1.131,-1.233 2.5204,-2.912 3.0862,-3.731 2.0234,-2.9289 6.5744,-3.8529 11.2052,-2.2749 1.7314,0.5895 3.2707,0.6945 6.8715,0.468 4.6251,-0.2925 16.5723,-0.789 21.547,-0.8955 4.4912,-0.09 11.5895,0.6555 13.4081,1.4205 1.101,0.4635 2.5012,0.642 3.81,0.486 5.7799,-0.6885 12.6552,-1.3845 13.5001,-1.365 0.5235,0.012 4.1672,0.156 8.0963,0.321 3.9289,0.165 9.4165,0.2745 12.1944,0.2415 3.0393,-0.03 6.2907,0.228 8.1645,0.663 2.2435,0.5205 3.5595,0.594 4.7092,0.264 2.1216,-0.609 7.1595,-0.5835 8.8337,0.045 0.7365,0.276 2.0907,1.014 3.0075,1.6391 1.6204,1.104 1.7464,1.1175 4.5244,0.4575 4.5276,-1.0755 8.9018,-0.906 11.5649,0.45 2.7571,1.404 4.0396,2.7397 5.3019,5.524 1.098,2.4231 1.203,3.7482 0.495,6.2955 -0.696,2.5058 -2.3454,4.2639 -5.6564,6.0285 -3.385,1.8042 -5.343,2.027 -12.9673,1.476 z m -105.8946,-54.8786 c -0.786,-0.2505 -3.0519,-0.486 -5.0355,-0.5235 -3.1503,-0.06 -3.8735,-0.249 -5.715,-1.488 -1.1595,-0.78 -2.8953,-1.7806 -3.8571,-2.2222 -2.0217,-0.9285 -2.8911,-2.1528 -3.7067,-5.2202 -0.5265,-1.9785 -0.48,-2.4234 0.4725,-4.5244 1.67,-3.6869 2.6777,-4.8033 5.5707,-6.1719 2.5211,-1.1925 2.9931,-1.2585 6.8811,-0.966 3.5592,0.2685 4.4396,0.1815 5.9732,-0.5865 1.6128,-0.8085 2.7826,-0.8895 11.3236,-0.7845 5.2388,0.06 10.0607,0.321 10.7156,0.57 0.7515,0.285 3.3849,0.285 7.1437,1e-4 3.2742,-0.249 9.8108,-0.498 14.5257,-0.5535 4.7148,-0.06 10.6085,-0.2595 13.0968,-0.453 4.2732,-0.3315 4.6493,-0.285 6.7725,0.849 2.2271,1.1895 2.3021,1.1955 7.9826,0.69 4.1742,-0.372 6.3087,-0.366 7.845,0.015 1.161,0.2925 4.5337,0.5355 7.4955,0.5385 2.9617,0 6.6072,0.2955 8.101,0.6465 1.494,0.351 3.7674,0.5385 5.0526,0.414 1.6205,-0.156 2.8707,0.03 4.0785,0.6015 1.095,0.519 2.2694,0.7215 3.1616,0.543 0.7815,-0.156 2.5455,-0.075 3.9213,0.192 1.773,0.3375 3.13,0.315 4.6606,-0.075 1.7717,-0.453 2.6291,-0.4155 4.7747,0.2085 1.4385,0.4185 5.0743,0.8775 8.0799,1.0215 7.2393,0.3465 12.4536,0.9585 13.6551,1.6016 1.1655,0.624 1.6942,2.2492 0.9285,2.8561 -0.3,0.2385 -2.1536,0.5805 -4.1181,0.7605 -1.9646,0.18 -4.5618,0.6165 -5.7717,0.969 -1.2105,0.3525 -4.6389,0.7875 -7.62,0.966 -2.9811,0.1785 -7.2419,0.7335 -9.4683,1.233 -2.2265,0.4995 -5.0126,0.882 -6.1913,0.8475 -3.6036,-0.105 -7.8961,0.399 -9.0984,1.062 -0.7215,0.399 -3.1162,0.663 -6.5233,0.72 -2.9685,0.045 -6.0197,0.3555 -6.8037,0.6795 -0.8835,0.366 -2.4329,0.4845 -4.0931,0.3135 -2.2681,-0.234 -3.0391,-0.09 -5.1027,0.96 -3.7314,1.8983 -5.377,2.1453 -8.2948,1.245 -2.3475,-0.7245 -2.7956,-0.723 -6.2021,0.01 -2.0194,0.4335 -4.2616,0.789 -4.9825,0.789 -0.72,0 -2.5302,0.429 -4.0206,0.9525 -3.0015,1.0545 -5.2095,1.188 -7.7937,0.471 -1.3005,-0.3615 -2.2094,-0.303 -3.7508,0.24 -2.3856,0.8415 -5.1186,0.9 -8.1055,0.1725 -2.7726,-0.675 -14.6411,-0.6135 -16.4598,0.09 -1.7669,0.6795 -17.5641,0.9525 -19.497,0.3375 z m 185.5155,-6.3813 c -2.4795,-0.3825 -4.7834,-0.9225 -5.1197,-1.203 -0.336,-0.279 -0.612,-1.221 -0.612,-2.0931 0,-1.3395 0.327,-1.8109 2.1099,-3.0373 1.815,-1.2495 2.5379,-1.452 5.1723,-1.452 6.7722,0 9.3866,1.041 9.3866,3.7395 0,1.9534 -3.4278,4.9018 -5.5646,4.7863 -0.4755,-0.03 -2.8935,-0.36 -5.373,-0.741 z m 383.6371,-57.1102 c -0.411,-0.411 -0.7485,-0.975 -0.7485,-1.254 0,-0.7725 1.8943,-3.7437 3.6582,-5.7386 0.87,-0.9825 1.5805,-2.2555 1.5805,-2.8278 0,-1.011 3.0438,-5.3536 5.7788,-8.2435 0.744,-0.786 1.9098,-2.1254 2.5915,-2.9766 0.681,-0.852 1.5392,-1.5479 1.9055,-1.5479 0.366,0 1.191,-0.831 1.8328,-1.8481 0.642,-1.017 2.1243,-2.4632 3.2949,-3.2147 1.17,-0.7515 2.4825,-1.957 2.9157,-2.6787 0.4335,-0.7215 1.365,-1.6105 2.07,-1.9752 0.705,-0.3645 1.6902,-1.1145 2.1885,-1.6645 0.498,-0.5505 1.089,-1.002 1.314,-1.002 0.2235,0 1.3695,-0.4515 2.5437,-1.0035 3.5637,-1.6751 4.2862,-0.6555 2.7858,3.9325 -0.5205,1.5918 -1.158,2.5643 -1.905,2.9045 -0.6945,0.3165 -1.122,0.9195 -1.122,1.5826 0,1.0905 -2.6301,4.718 -4.9833,6.872 -0.7155,0.6555 -1.717,2.0028 -2.226,2.9953 -0.5085,0.993 -1.6053,2.2181 -2.4364,2.7236 -0.831,0.5055 -2.2866,2.0506 -3.2345,3.4341 -0.948,1.383 -2.3779,2.8366 -3.1779,3.2295 -0.7995,0.393 -2.0899,1.3575 -2.8665,2.1432 -1.6957,1.716 -5.5143,4.5243 -6.1516,4.5243 -0.2505,0 -1.182,0.5355 -2.07,1.191 -1.8803,1.3875 -2.5137,1.4655 -3.5379,0.4425 z m -522.0039,-6.3573 c -1.8336,-0.1845 -3.8425,-0.612 -4.4644,-0.9495 -0.942,-0.5115 -1.788,-0.477 -5.0808,0.2145 -3.2271,0.6765 -4.3449,0.729 -6.105,0.2865 -1.185,-0.2985 -3.4259,-0.543 -4.9796,-0.543 -1.5537,0 -3.7626,-0.339 -4.9089,-0.7545 -1.821,-0.66 -2.7798,-0.6825 -7.5996,-0.1755 l -5.5158,0.579 -2.8906,-1.2975 c -3.335,-1.497 -4.9877,-3.0467 -6.1137,-5.7338 -1.0575,-2.5243 -1.0785,-7.1721 -0.045,-9.1603 1.0215,-1.9565 3.6861,-4.631 5.6767,-5.6981 2.111,-1.1325 7.0494,-1.101 10.0217,0.06 1.9621,0.768 2.6232,0.819 4.6164,0.36 1.8618,-0.429 2.7832,-0.399 4.6155,0.156 2.0443,0.6195 2.5402,0.6105 4.6366,-0.075 1.9724,-0.651 2.8185,-0.6885 5.2937,-0.2325 1.6204,0.2985 3.699,0.543 4.6191,0.543 0.9195,0 2.4358,0.3195 3.3684,0.708 1.434,0.5985 2.4658,0.624 6.6844,0.1635 4.331,-0.4725 5.4291,-0.438 8.3259,0.2655 3.0393,0.7395 3.4943,0.7455 5.1,0.075 0.9855,-0.411 3.1551,-0.738 4.9196,-0.7395 1.7361,0 4.4424,-0.219 6.0141,-0.4845 1.5715,-0.2655 7.3579,-0.579 12.8587,-0.699 8.328,-0.18 10.3331,-0.09 11.9849,0.534 1.8711,0.708 2.1358,0.6945 4.6614,-0.2505 3.0816,-1.1535 4.7677,-1.2285 9.9274,-0.4425 3.2591,0.4965 3.9953,0.4635 6.0137,-0.261 2.6859,-0.966 6.1485,-1.0875 9.0097,-0.318 1.7381,0.468 2.6193,0.39 6.1709,-0.5475 2.8099,-0.7425 5.6758,-1.119 8.9058,-1.1715 2.6193,-0.045 9.7809,-0.189 15.9145,-0.324 9.2978,-0.2055 11.454,-0.12 12.9674,0.48 1.7022,0.681 1.9468,0.663 3.9258,-0.2955 2.0796,-1.0065 5.0589,-1.2375 21.0268,-1.6266 1.0575,-0.03 2.8526,0.2595 3.9881,0.6345 1.9552,0.645 2.1688,0.621 4.0297,-0.456 1.461,-0.846 2.759,-1.155 5.0607,-1.209 1.7027,-0.045 3.8924,-0.429 4.8663,-0.864 2.1975,-0.981 4.4996,-1.008 6.7284,-0.075 0.9405,0.393 2.4398,0.714 3.332,0.714 0.8925,0 2.5335,-0.321 3.647,-0.714 2.79,-0.984 3.7964,-0.9075 7.3725,0.561 l 3.105,1.275 3.2147,-1.3275 c 4.6083,-1.9041 9.4621,-2.1433 15.5142,-0.765 6.4386,1.467 8.8936,3.7058 8.8936,8.1105 0,2.6202 -1.2315,4.829 -4.9441,8.871 -3.9066,4.2527 -5.6814,5.1594 -9.29,4.7454 -4.8123,-0.552 -13.4658,-0.258 -15.9267,0.54 -1.9401,0.63 -2.7081,0.6555 -4.9042,0.1635 -2.0507,-0.459 -3.2945,-0.459 -5.8543,0 -2.7534,0.492 -3.5784,0.4695 -5.3942,-0.15 -2.0032,-0.6825 -2.2801,-0.669 -4.2279,0.2055 -1.8403,0.8265 -3.1708,0.9375 -11.371,0.9435 -5.1078,0 -9.8226,-0.03 -10.4775,-0.06 -0.6555,-0.045 -3.2267,0.4755 -5.715,1.143 -5.4882,1.473 -6.8723,1.5087 -10.0385,0.261 -1.35,-0.5325 -2.8041,-0.858 -3.2323,-0.726 -0.9855,0.306 -13.5788,2.0226 -17.6855,2.4119 -2.4501,0.2325 -3.6822,0.09 -5.9086,-0.6885 -3.5213,-1.23 -4.8644,-1.233 -6.9576,-0.015 -4.3199,2.5026 -3.8427,2.4528 -16.1507,1.6891 -7.6026,-0.471 -11.8998,-0.5535 -12.9631,-0.249 -0.8745,0.2505 -3.1994,0.459 -5.1656,0.462 -2.205,0 -4.7167,0.3645 -6.5541,0.9405 -3.1449,0.9855 -4.5981,0.9225 -8.1256,-0.3555 -1.9076,-0.6915 -2.2517,-0.681 -4.7625,0.15 -3.7916,1.2435 -9.81,1.131 -13.8984,-0.258 -3.8645,-1.3125 -5.7755,-1.302 -9.0711,0.06 -1.931,0.795 -3.7574,1.104 -7.1214,1.2045 -2.4884,0.075 -5.8103,0.228 -7.3818,0.339 -1.5717,0.105 -4.3578,0.06 -6.1913,-0.135 z m 433.9827,-4.3608 c -1.6491,-0.9645 -1.017,-2.7165 1.5478,-4.295 1.3095,-0.8055 2.3813,-1.6654 2.3813,-1.9102 0,-0.2445 1.5537,-1.4415 3.4528,-2.6609 4.1582,-2.6685 7.7756,-5.4889 12.5567,-9.7902 1.9653,-1.7682 3.7374,-3.2148 3.9381,-3.2148 0.201,0 1.6344,-0.96 3.1863,-2.1346 1.5519,-1.1745 4.042,-3.0494 5.5333,-4.1672 1.491,-1.1175 2.841,-2.3938 2.999,-2.8354 0.1575,-0.441 1.188,-1.7677 2.289,-2.9469 1.101,-1.179 3.1804,-3.559 4.621,-5.2885 1.44,-1.7294 4.0388,-4.3164 5.7734,-5.7489 2.6253,-2.168 3.2598,-2.9832 3.7843,-4.8624 0.534,-1.9152 1.4175,-3.0168 5.8163,-7.2585 2.8524,-2.7503 5.6739,-5.2598 6.2703,-5.5767 1.131,-0.6015 1.8849,-2.1069 2.4319,-4.8612 0.1875,-0.942 1.1775,-2.5475 2.3483,-3.81 1.1145,-1.2 2.3568,-2.8335 2.7621,-3.6291 0.405,-0.795 2.1118,-2.9387 3.7926,-4.7625 1.6806,-1.8239 3.5967,-4.4948 4.2577,-5.9355 0.6615,-1.44 2.4101,-3.9053 3.8865,-5.4768 1.476,-1.5717 2.691,-3.179 2.6987,-3.572 0.03,-1.3395 1.911,-4.8994 3.561,-6.726 0.906,-1.002 1.7845,-2.4172 1.9533,-3.1441 0.5535,-2.3837 3.6154,-7.475 5.6646,-9.4179 1.7232,-1.6338 2.0497,-2.2599 2.2939,-4.398 0.21,-1.8425 0.912,-3.5204 2.6882,-6.4295 2.7543,-4.5111 4.2573,-9.0223 4.7458,-14.2434 0.348,-3.7143 0.66,-4.4296 3.6275,-8.3179 0.8895,-1.1655 1.788,-3.0924 2.083,-4.4676 0.285,-1.3305 0.951,-3.2669 1.4805,-4.304 0.5295,-1.038 1.0455,-3.0813 1.146,-4.5423 0.105,-1.461 0.303,-2.7744 0.447,-2.9182 0.15,-0.15 1.0185,-0.12 1.9445,0.06 1.2525,0.2355 2.1109,0.876 3.3559,2.5068 0.9195,1.2045 1.6731,2.6784 1.6731,3.2739 0,1.347 1.5349,4.9858 2.8572,6.7743 0.573,0.774 1.05,2.2405 1.1265,3.4614 0.075,1.1655 0.516,2.8498 0.9855,3.7444 1.149,2.1941 0.8145,5.1023 -1.083,9.407 -1.104,2.5062 -1.5047,4.1242 -1.5047,6.0874 0,2.9364 -0.15,3.3093 -4.2869,11.1336 -1.5713,2.967 -2.8614,5.8602 -2.8673,6.4293 -0.015,1.6923 -1.7239,4.9493 -3.0487,5.8173 -0.846,0.555 -1.3275,1.395 -1.533,2.6786 -0.1845,1.149 -1.1685,3.048 -2.5557,4.927 -3.7127,5.0297 -5.1384,7.49 -5.7438,9.9122 -0.3435,1.374 -1.1985,2.959 -2.1272,3.9444 -0.855,0.906 -2.1136,2.7924 -2.7988,4.1929 -0.6855,1.401 -2.3006,3.6177 -3.5897,4.9275 -1.29,1.3095 -2.6565,3.129 -3.0384,4.0431 -0.3825,0.9135 -1.479,2.2601 -2.437,2.9912 -0.9585,0.7305 -2.043,2.0479 -2.4101,2.9263 -0.8205,1.964 -3.0117,4.7762 -6.3067,8.0945 -1.3755,1.3845 -2.5011,2.8978 -2.5022,3.3621 0,1.404 -1.7539,3.8256 -3.8814,5.3667 -1.1055,0.801 -4.5472,4.1826 -7.6486,7.5153 -3.8846,4.1742 -6.5612,6.6042 -8.6027,7.8102 -1.63,0.9629 -5.283,3.8024 -8.1177,6.3103 -2.8347,2.5077 -5.4805,4.5595 -5.8795,4.5595 -0.399,0 -1.2945,0.396 -1.9898,0.8805 -1.467,1.0215 -6.9576,3.6731 -8.5321,4.1202 -0.5925,0.168 -1.3995,0.93 -1.794,1.6928 -0.852,1.6491 -2.5802,2.6059 -5.3403,2.9583 -1.185,0.1515 -2.6276,0.7695 -3.4893,1.494 -0.8085,0.6795 -1.7457,1.236 -2.0832,1.236 -0.3375,0 -1.173,0.4395 -1.8567,0.978 -0.684,0.5385 -3.2609,1.6896 -5.727,2.5596 -2.4662,0.87 -5.3112,2.0311 -6.3221,2.5806 -1.011,0.549 -2.9097,1.4055 -4.2193,1.9038 -1.3095,0.498 -2.7029,1.0335 -3.0957,1.191 -0.393,0.1575 -1.089,0.06 -1.5479,-0.201 z m -430.8778,-60.0141 c -2.045,-0.726 -2.913,-0.8205 -4.0088,-0.438 -0.87,0.303 -3.9315,0.372 -8.1055,0.18 -6.0011,-0.2745 -7.2081,-0.483 -11.4693,-1.9771 -2.6195,-0.918 -5.1854,-1.9601 -5.702,-2.315 -0.516,-0.3555 -1.9098,-0.645 -3.0957,-0.645 -1.4925,2e-4 -3.0906,-0.4755 -5.1927,-1.5477 -4.4617,-2.2746 -5.1469,-4.6095 -1.6314,-5.559 0.996,-0.2685 2.9892,-1.2555 4.4298,-2.193 2.1471,-1.3965 2.877,-1.6416 4.0482,-1.3575 3.5306,0.855 8.2184,-0.3405 11.214,-2.8611 1.6797,-1.413 7.4556,-3.2683 10.2173,-3.2814 3.1461,-0.015 9.4129,0.657 11.1822,1.1985 2.3701,0.726 4.0381,0.561 8.2491,-0.813 3.9136,-1.278 4.4068,-1.2645 8.9268,0.231 2.5119,0.831 2.8656,0.8355 7.2477,0.09 4.4044,-0.7485 4.7224,-0.744 7.24,0.105 2.3367,0.795 3.0759,0.834 6.5637,0.36 8.4599,-1.1535 12.7205,-1.1895 16.7127,-0.15 4.5392,1.1895 7.1264,0.945 10.7921,-1.02 2.4118,-1.2915 2.9068,-1.3845 6.2494,-1.1685 2.2457,0.15 4.5161,0.6285 5.9532,1.269 1.278,0.5685 3.716,1.149 5.4186,1.29 2.8284,0.2325 3.3423,0.12 5.9532,-1.2765 l 2.8575,-1.531 7.097,0.318 c 4.4448,0.1995 7.8264,0.5895 9.0487,1.044 3.2261,1.2 3.9486,1.257 6.0908,0.48 5.1325,-1.862 12.067,-2.3321 18.721,-1.269 2.0955,0.3345 5.846,0.639 8.3343,0.6765 2.4884,0.03 4.7958,0.2385 5.1276,0.447 0.3315,0.2085 4.0493,0.585 8.2613,0.8355 5.4553,0.3255 8.9803,0.8025 12.2554,1.66 3.7773,0.9885 5.3198,1.161 8.6457,0.966 2.8926,-0.1695 5.3397,0.015 8.5725,0.6675 2.4883,0.498 5.1457,0.9675 5.905,1.0455 1.7178,0.1725 2.6432,1.4535 1.9067,2.6394 -0.7815,1.2585 -2.9157,2.1293 -6.1203,2.4992 -1.5851,0.183 -3.4854,0.579 -4.2227,0.8805 -0.738,0.3015 -2.3259,0.549 -3.5301,0.549 -1.5019,0 -2.8568,0.3915 -4.3151,1.2465 -1.7058,0.999 -2.543,1.1985 -4.2378,1.008 -1.161,-0.135 -3.0974,0.06 -4.302,0.4215 -1.2045,0.363 -3.0668,0.66 -4.1384,0.6615 -1.071,9e-4 -3.6628,0.669 -5.7583,1.485 -4.7754,1.8589 -6.4169,2.1076 -9.0485,1.371 -1.9525,-0.546 -2.3332,-0.486 -5.6572,0.897 -2.0816,0.867 -4.4031,1.4835 -5.582,1.4835 -1.11,0 -3.3999,0.24 -5.0887,0.534 -2.2974,0.4005 -4.526,0.393 -8.8497,-0.03 -5.1437,-0.501 -6.0146,-0.474 -7.9221,0.2415 -3.1121,1.167 -12.4976,1.497 -15.5417,0.5475 -3.5326,-1.1025 -26.268,-0.81 -28.9876,0.372 -1.7531,0.762 -2.4908,0.7785 -9.2462,0.2055 -5.827,-0.4935 -9.1669,-0.5085 -16.1925,-0.075 -5.8749,0.3675 -9.8925,0.4005 -11.947,0.105 -10.2657,-1.4985 -17.829,-1.491 -24.6528,0.03 -3.0035,0.6675 -5.7444,0.495 -8.6754,-0.5445 z m 234.3056,-12.2803 c -1.44,-0.4635 -3.048,-1.0725 -3.5718,-1.353 -0.5235,-0.2805 -1.542,-0.741 -2.2623,-1.026 -1.6467,-0.651 -1.7227,-2.1641 -0.2205,-4.3964 0.894,-1.329 1.4685,-1.6647 3.2147,-1.8781 1.1685,-0.15 2.5645,-0.5025 3.1006,-0.798 1.5428,-0.852 13.6787,-0.9465 17.5806,-0.135 3.225,0.669 7.9331,2.6044 8.4098,3.4563 0.531,0.948 -0.579,2.3637 -3.2261,4.1172 -2.1879,1.449 -2.3491,1.479 -7.9854,1.482 -5.1874,0 -9.7636,0.4425 -11.7055,1.125 -0.393,0.135 -1.8932,-0.135 -3.3338,-0.5925 z m -259.0799,-57.818 c -1.8605,-0.93 -2.9133,-3.4866 -2.5544,-6.2026 l 0.303,-2.2872 -3.5938,-3.4343 c -2.7719,-2.6488 -3.6686,-3.8328 -3.9207,-5.1765 -0.699,-3.7294 0.777,-6.3489 4.6938,-8.3248 1.35,-0.681 3.147,-1.8434 3.9949,-2.5835 2.0195,-1.7631 3.9492,-2.1858 10.841,-2.3746 8.9391,-0.2445 9.8572,-0.1725 11.953,0.933 1.7708,0.9345 2.1906,0.978 4.5243,0.477 4.8863,-1.0485 14.8871,-0.546 21.4044,1.0755 1.7478,0.435 2.7533,0.3915 5.2388,-0.2235 4.3545,-1.077 18.136,-0.843 21.9129,0.372 2.6262,0.8445 2.6598,0.843 4.7577,-0.2265 1.9348,-0.987 2.8353,-1.086 10.6902,-1.182 4.7175,-0.06 9.0649,0.075 9.6609,0.2985 1.281,0.4755 6.0312,1.2645 11.1735,1.8553 2.952,0.339 4.0308,0.279 5.4267,-0.3045 1.158,-0.483 2.4781,-0.6345 3.9355,-0.45 1.206,0.153 5.1431,0.378 8.7483,0.498 3.6054,0.12 6.9977,0.456 7.5386,0.7455 0.54,0.2895 3.0559,0.516 5.5891,0.504 7.5158,-0.03 13.883,0.246 17.9738,0.798 2.4429,0.33 4.5247,0.36 5.715,0.09 2.6527,-0.615 7.935,-0.5145 12.1003,0.2295 2.3147,0.414 3.9615,0.4845 4.7064,0.201 0.63,-0.24 1.5996,-0.285 2.1543,-0.105 0.555,0.1845 2.841,0.351 5.0807,0.3705 3.0457,0.03 4.3959,0.249 5.3577,0.879 2.19,1.4355 1.359,3.2018 -1.5059,3.2018 -0.9075,0 -2.7393,0.3045 -4.0719,0.678 -3.8893,1.0875 -8.6952,1.797 -14.5675,2.1495 -3.4139,0.2055 -6.015,0.606 -6.9056,1.065 -1.401,0.723 -4.7944,1.3545 -8.5725,1.5976 -1.047,0.06 -3.4728,0.4665 -5.389,0.888 -1.9161,0.4215 -4.8095,0.765 -6.4295,0.765 -1.6201,0 -4.4458,0.336 -6.2793,0.7455 -1.8334,0.4095 -6.7624,0.9255 -10.9534,1.146 -6.4427,0.339 -8.1185,0.591 -10.8456,1.6358 -1.7741,0.6795 -3.8102,1.236 -4.5246,1.236 -0.714,0 -2.7992,0.318 -4.6326,0.7065 -1.9251,0.408 -5.8859,0.7095 -9.3747,0.714 -3.3227,0 -6.6446,0.243 -7.382,0.531 -0.99,0.387 -2.3614,0.3675 -5.2498,-0.075 -3.6594,-0.558 -4.0808,-0.531 -6.5909,0.429 -3.547,1.3575 -8.7651,1.3935 -12.2118,0.09 -1.6611,-0.6315 -3.0588,-0.8505 -4.2273,-0.6645 -1.227,0.1965 -2.4205,-0.015 -4.0135,-0.7245 -2.9573,-1.308 -3.9374,-1.266 -6.7181,0.288 -2.6748,1.4955 -4.2376,1.575 -14.7166,0.7545 -4.8678,-0.381 -7.2138,-0.3795 -8.6909,0.01 -1.5709,0.4095 -2.476,0.384 -4.0482,-0.12 -1.257,-0.4005 -3.7702,-0.6045 -6.6309,-0.5355 -3.7921,0.09 -5.002,-0.06 -6.847,-0.882 -1.233,-0.546 -2.682,-0.9915 -3.2208,-0.9915 -1.7109,0 -6.5975,1.555 -6.8355,2.1751 -0.12,0.3285 0.105,1.245 0.516,2.0381 0.8235,1.5916 0.6195,2.6289 -0.831,4.2403 -1.092,1.212 -1.9398,1.32 -3.656,0.462 z m 277.5422,-13.4727 c -0.15,-0.15 -4.2028,-0.3255 -9.0091,-0.3915 -8.2533,-0.12 -8.871,-0.1875 -11.12,-1.3155 -1.6783,-0.8415 -2.8999,-1.134 -4.138,-0.9885 -1.029,0.12 -3.1638,-0.2295 -5.1501,-0.8445 -2.7567,-0.8535 -3.4841,-1.287 -3.8763,-2.3109 -0.5745,-1.501 0,-2.6892 1.3125,-2.6899 0.4935,-3e-4 2.3317,-0.69 4.0843,-1.5339 2.8524,-1.3725 4.0265,-1.6155 11.1918,-2.3148 4.403,-0.4305 9.2912,-0.762 10.8629,-0.7395 1.5715,0.03 6.6223,0.03 11.2237,0.015 6.2831,-0.015 8.8329,0.156 10.2395,0.6885 1.0305,0.3885 4.0158,0.849 6.6348,1.0215 2.6806,0.177 5.8996,0.714 7.3653,1.2285 1.4325,0.5025 2.9707,0.915 3.4195,0.915 0.807,0 2.3196,1.194 2.3054,1.8199 -0.045,1.8339 -7.9991,3.7404 -22.1382,5.3039 -5.8055,0.642 -8.9426,1.2135 -10.089,1.8358 -1.101,0.5985 -2.6679,0.747 -3.1194,0.2955 z"
       id="vctrly-chalky-icon-note" /></g></svg>
