<?xml version="1.0" encoding="UTF-8" standalone="no"?>
<svg
   width="1778.4274"
   height="3523.978"
   viewBox="0 0 1778.4274 3523.978"
   version="1.1"
   xml:space="preserve"
   style="clip-rule:evenodd;fill-rule:evenodd;stroke-linecap:round;stroke-linejoin:round;stroke-miterlimit:1.5"
   id="svg1780"
   xmlns="http://www.w3.org/2000/svg"
   xmlns:svg="http://www.w3.org/2000/svg"><defs
   id="defs1780" />
    <g
   id="vctrly-notion-calm-chill-sit-chair"
   transform="matrix(2.0003049,0,0,2.0006295,-16822.582,-8007.8696)"
   style="stroke-width:9.99766;stroke-dasharray:none"><path
     d="m 8874.248,5460.331 c -25.2,32.62 -60.52,101.69 -63.26,115.3 -2.74,13.61 -50.38,169.03 8.76,183.18 29.74,7.12 54.54,-105.6 80.48,-155.17 26.86,-51.33 79.91,-120.95 79.91,-120.95"
     style="fill:none;stroke:#000000;stroke-width:9.99766;stroke-dasharray:none"
     id="path1047" /><path
     d="m 8929.508,4502.621 c 8.01,-55.62 36.65,-209.08 44.8,-226.74 47.62,53.23 212.85,237.36 253.67,286.35 -18.25,1.4 -37.74,6.1 -55.27,16.21 -4.68,2.7 -11.44,-10.06 -11.44,-10.06 0.14,-2.13 -0.76,-4.82 -2.69,-7.71 -5.01,-7.47 -17.09,-15.23 -32,-22.22 26.11,3.06 32.27,-10.63 15.53,-19.84 -37.74,-20.76 -99.25,-36.22 -158.59,-26.78 -17.08,2.72 -35.36,6.43 -54.01,10.79 z"
     id="path55"
     style="stroke-width:9.99766;stroke-dasharray:none" /><path
     d="m 8659.908,4499.781 c 27.84,-25.56 190.27,-150.35 199.9,-156.86 9.31,-6.3 5.4,117.75 12.67,174.56 -61.83,17.62 -118.68,38.4 -140.49,49.33 -18.73,-36.06 -45.88,-55.99 -72.08,-67.03 z"
     id="path56"
     style="stroke-width:9.99766;stroke-dasharray:none" /><path
     d="m 8682.548,4741.861 c 12.95,-33.6 31.84,-60.79 61.88,-58.37 30.05,2.42 42.18,16.74 89.27,-9.5 43.78,-24.4 85.59,-43.31 132.4,-8.28 53.87,40.31 83.26,37.1 92.6,60.96 15.78,40.34 -1.7,72.92 -29.89,111.31 -27.38,13.78 -49.85,16.46 -49.5,20.22 0.81,8.54 26.45,126.24 21.52,146.32 -0.5,2.06 -1.17,4.46 -1.98,7.17 -43.87,0.25 -189.34,2.79 -185.84,3.05 4.04,0.31 162.68,5.4 166.41,8.03 3.74,2.64 1.49,19.08 -4.52,18.88 -6.01,-0.2 -136.98,2.04 -136.98,2.04 0,0 -95.74,477.23 -98.76,474.25 -3.03,-2.97 -11.04,-13.77 -9.97,-24.59 1.06,-10.83 75.79,-449.64 74.04,-450.78 -1.74,-1.15 -70.67,-0.8 -63.76,-5.05 6.91,-4.26 55.98,-19.79 54.83,-27.97 -1.15,-8.18 -19.13,-152.19 -13.25,-215.99 1.27,-13.88 -4.69,-31.07 -8.24,-14.03 -3.77,18.07 -4.35,43.04 -3.36,69.91 -63.57,-30.31 -83.94,-73.36 -86.9,-107.58 z m 257.69,128.05 c -21.6,4.67 -92.21,6.65 -129.25,-6.67 4.28,20.87 19.25,98.35 22.6,135.39 0.68,7.51 67.54,-15.02 126.88,2.79 3.02,2.26 15,3.8 13.53,-2.01 -18.49,-73.24 -36.93,-233.5 -37.51,-228 -2.47,23.75 -0.21,60.91 3.75,98.5 z"
     id="path57"
     style="stroke-width:9.99766;stroke-dasharray:none" /><path
     d="m 9022.388,5496.271 c 7.37,-0.74 20.32,1.21 23.28,11.41 2.96,10.2 9.47,78.14 9.03,85.24 -0.45,7.1 -13.78,10.41 -18.08,-1.16 -4.31,-11.58 -21.61,-94.74 -14.23,-95.49 z"
     id="path58"
     style="stroke-width:9.99766;stroke-dasharray:none" /><path
     d="m 9190.698,5171.931 c 0.84,-14.49 21.26,-58.47 24.41,-44.25 3.14,14.23 16.1,378.92 15.74,387.67 -0.36,8.75 -9.92,13.93 -13.19,-1.16 -3.26,-15.08 -27.8,-327.77 -26.96,-342.26 z"
     id="path59"
     style="stroke-width:9.99766;stroke-dasharray:none" /><path
     d="m 8770.418,4217.801 c -18.43,8.12 -64.21,8.17 -62.43,-37.23 1.08,-27.7 30.62,-45.85 31.3,-64.98 0.68,-19.13 -11.03,-37.01 5.42,-50.87 22.44,-18.9 29.64,-7.99 42.9,-18.47 13.26,-10.49 21.32,-36.57 47.51,-38.4 29.75,-2.09 35.05,13.94 55.15,17.04 20.09,3.1 53.7,-19.96 76.1,-0.97 19.22,16.29 9.2,40.85 14.94,49.43 5.73,8.58 31.14,11.67 35.36,23.32 9.01,24.85 -8.23,39.37 -9.22,50.31 -0.98,10.95 12.65,25.93 9.03,39.1 -2.69,9.75 -15.8,21.44 -27.29,14.89 2,-10.69 -0.21,-22.03 -9.3,-25.38 -17.01,-6.26 -22.14,10.73 -32.68,11.62 -15.03,1.27 -26.81,-9.89 -29.09,-16.6 -8.11,-23.84 -11.7,-33.83 -27.27,-36.72 -7.89,-1.46 -16.3,-8.68 -22.39,-22.03 -5.39,8.39 -16.15,21.36 -33.34,23.04 -25.67,2.51 -38.19,7.22 -45.35,16.95 -12.92,17.55 -25.48,13.3 -24.34,28.72 0.99,13.28 2.69,25.7 4.99,37.23 z"
     id="path60"
     style="stroke-width:9.99766;stroke-dasharray:none" /><path
     d="m 8831.538,4178.061 c 13.96,4.79 29.3,2.95 36.92,-7.45"
     style="fill:none;stroke:#000000;stroke-width:9.99766;stroke-dasharray:none"
     id="path1014" /><path
     d="m 8835.118,4146.981 c 4.04,-5.53 13.17,-8.99 22.64,-6.3"
     style="fill:none;stroke:#000000;stroke-width:9.99766;stroke-dasharray:none"
     id="path1015" /><path
     d="m 8797.648,4156.101 c 9.63,9.04 14.09,38.54 11.9,89.74"
     style="fill:none;stroke:#000000;stroke-width:9.99766;stroke-dasharray:none"
     id="path1016" /><path
     d="m 8815.148,4268.871 c 3.13,3.58 14.43,5.11 19.97,-1.3"
     style="fill:none;stroke:#000000;stroke-width:9.99766;stroke-dasharray:none"
     id="path1017" /><path
     d="m 8765.428,4180.571 c -1.14,-15.42 11.42,-11.17 24.34,-28.72 7.16,-9.73 19.68,-14.44 45.35,-16.95 17.19,-1.68 27.95,-14.65 33.34,-23.04 6.09,13.35 14.5,20.57 22.39,22.03 15.57,2.89 19.16,12.88 27.27,36.72 2.28,6.71 14.06,17.87 29.09,16.6 10.54,-0.89 15.67,-17.88 32.68,-11.62 13.44,4.95 11.84,27.37 3.82,39.32 -12.54,18.73 -23.5,18.8 -26.86,27.35 -3.37,8.54 -48.31,80.45 -99.09,81.47 -43.54,0.87 -85.4,-49.98 -92.33,-143.16 z"
     style="fill:none;stroke:#000000;stroke-width:9.99766;stroke-dasharray:none"
     id="path1018" /><path
     d="m 8770.418,4217.801 c -18.43,8.12 -64.21,8.17 -62.43,-37.23 1.08,-27.7 30.62,-45.85 31.3,-64.98 0.68,-19.13 -11.03,-37.01 5.42,-50.87 22.44,-18.9 29.64,-7.99 42.9,-18.47 13.26,-10.49 21.32,-36.57 47.51,-38.4 29.75,-2.09 35.05,13.94 55.15,17.04 20.09,3.1 53.7,-19.96 76.1,-0.97 19.22,16.29 9.2,40.85 14.94,49.43 5.73,8.58 31.14,11.67 35.36,23.32 9.01,24.85 -8.23,39.37 -9.22,50.31 -0.98,10.95 12.65,25.93 9.03,39.1 -2.69,9.75 -15.8,21.44 -27.29,14.89"
     style="fill:none;stroke:#000000;stroke-width:9.99766;stroke-dasharray:none"
     id="path1019" /><path
     d="m 8521.398,4679.681 c 21.47,-44.98 92.01,-126.6 186.54,-113.25"
     style="fill:none;stroke:#000000;stroke-width:9.99766;stroke-dasharray:none"
     id="path1020" /><path
     d="m 8695.668,4549.001 c -41.18,-13.24 -118.43,-5.57 -153.8,29.44"
     style="fill:none;stroke:#000000;stroke-width:9.99766;stroke-dasharray:none"
     id="path1021" /><path
     d="m 8728.978,4568.381 c 30.14,-16.4 160.44,-61.58 254.54,-76.55 59.34,-9.44 120.85,6.02 158.59,26.78 16.74,9.21 10.58,22.9 -15.53,19.84"
     style="fill:none;stroke:#000000;stroke-width:9.99766;stroke-dasharray:none"
     id="path1022" /><path
     d="m 9046.578,4514.601 c 32.79,3.42 98.43,25.82 112,46.07 4.86,7.26 3.17,13.27 -5.1,12.26"
     style="fill:none;stroke:#000000;stroke-width:9.99766;stroke-dasharray:none"
     id="path1023" /><path
     d="m 9064.398,4540.451 c 20.32,4.7 67.91,21.23 80.91,35.73 3.05,3.41 3.94,9.36 -5.93,8.69"
     style="fill:none;stroke:#000000;stroke-width:9.99766;stroke-dasharray:none"
     id="path1024" /><path
     d="m 9075.418,4568.381 c 17.19,3.28 50.25,11.29 46.38,23.65 -2.01,6.4 -41.06,-1.05 -64.13,-1.51 -23.08,-0.45 -92.2,-3.37 -231.6,39.51 -84.11,25.88 -249.85,121.58 -261.27,24.23"
     style="fill:none;stroke:#000000;stroke-width:9.99766;stroke-dasharray:none"
     id="path1025" /><path
     d="m 9294.088,4573.051 c -13.57,-9.97 -74.49,-21.66 -121.38,5.39 -4.68,2.7 -11.44,-10.06 -11.44,-10.06"
     style="fill:none;stroke:#000000;stroke-width:9.99766;stroke-dasharray:none"
     id="path1026" /><path
     d="m 9177.838,4584.921 c 37.73,12.75 95.11,56.69 116.25,130.03"
     style="fill:none;stroke:#000000;stroke-width:9.99766;stroke-dasharray:none"
     id="path1027" /><path
     d="m 9156.618,4597.001 c 30.94,13.74 109.16,84.24 111.89,199.82"
     style="fill:none;stroke:#000000;stroke-width:9.99766;stroke-dasharray:none"
     id="path1028" /><path
     d="m 8893.498,4625.151 c 32.52,11.33 305.74,101.18 319.07,103.23 25.44,3.9 28.48,-7.33 28.48,-7.33"
     style="fill:none;stroke:#000000;stroke-width:9.99766;stroke-dasharray:none"
     id="path1029" /><path
     d="m 8587.828,4485.981 c 25.29,0.35 104.04,3.59 144.16,80.83"
     style="fill:none;stroke:#000000;stroke-width:9.99766;stroke-dasharray:none"
     id="path1030" /><path
     d="m 8659.908,4499.781 c 27.84,-25.56 190.27,-150.35 199.9,-156.86 9.31,-6.3 5.4,117.75 12.67,174.56"
     style="fill:none;stroke:#000000;stroke-width:9.99766;stroke-dasharray:none"
     id="path1031" /><path
     d="m 8963.298,4263.531 c 21.43,24.17 219.45,244.41 264.68,298.7"
     style="fill:none;stroke:#000000;stroke-width:9.99766;stroke-dasharray:none"
     id="path1032" /><path
     d="m 8929.508,4502.621 c 8.01,-55.62 36.65,-209.08 44.8,-226.74"
     style="fill:none;stroke:#000000;stroke-width:9.99766;stroke-dasharray:none"
     id="path1033" /><path
     d="m 8872.478,4350.051 c 11.35,22.75 51.25,44.51 89.75,-26.42"
     style="fill:none;stroke:#000000;stroke-width:9.99766;stroke-dasharray:none"
     id="path1034" /><path
     d="m 8868.128,4448.371 c 0,0 38.88,-38 44.16,-45.1 12.11,25.25 18.91,44.56 24.15,56.25"
     style="fill:none;stroke:#000000;stroke-width:9.99766;stroke-dasharray:none"
     id="path1035" /><path
     d="m 8912.288,4403.271 c -3.84,15 -11.35,80.64 -10.01,96.64"
     style="fill:none;stroke:#000000;stroke-width:9.99766;stroke-dasharray:none"
     id="path1036" /><path
     d="m 8690.218,4793.361 c -47.87,23.62 -260.83,141.89 -270.84,164.67 -25.67,58.41 69.77,487.14 79.81,513.35 5.2,13.57 50.09,-1.55 102.52,-14.77 77.85,-19.61 101.8,-35.65 100.77,-42.82 -2.11,-14.86 -48.02,-300.99 -29.78,-346.58 6.56,-16.39 99.24,-52.94 107.37,-57.17 8.13,-4.24 -21.12,-164.03 -7.26,-230.51 3.55,-17.04 9.51,0.15 8.24,14.03 -5.88,63.8 12.1,207.81 13.25,215.99 1.15,8.18 -47.92,23.71 -54.83,27.97 -6.91,4.25 62.02,3.9 63.76,5.05 1.75,1.14 -72.98,439.95 -74.04,450.78 -1.07,10.82 6.94,21.62 9.97,24.59 3.02,2.98 98.76,-474.25 98.76,-474.25 0,0 130.97,-2.24 136.98,-2.04 6.01,0.2 8.26,-16.24 4.52,-18.88 -3.73,-2.63 -162.37,-7.72 -166.41,-8.03 -3.5,-0.26 141.97,-2.8 185.84,-3.05"
     style="fill:none;stroke:#000000;stroke-width:9.99766;stroke-dasharray:none"
     id="path1037" /><path
     d="m 9138.438,4772.421 c 18.66,25.9 99.94,180.07 91.39,221.7 -8.55,41.62 -93.09,340.04 -173.13,490.06 -8.82,16.54 -239.13,-24.61 -229.24,-49.89 9.89,-25.27 158.7,-369.95 173.37,-429.77 4.93,-20.08 -20.71,-137.78 -21.52,-146.32 -0.8,-8.54 116.19,-11.53 140.97,-151.69"
     style="fill:none;stroke:#000000;stroke-width:9.99766;stroke-dasharray:none"
     id="path1038" /><path
     d="m 8691.038,4693.391 c -14.12,24 -24.82,106.84 78.41,156.05"
     style="fill:none;stroke:#000000;stroke-width:9.99766;stroke-dasharray:none"
     id="path1039" /><path
     d="m 8682.548,4741.861 c 12.95,-33.6 31.84,-60.79 61.88,-58.37 30.05,2.42 42.18,16.74 89.27,-9.5 43.78,-24.4 85.59,-43.31 132.4,-8.28 53.87,40.31 83.26,37.1 92.6,60.96 15.78,40.34 -1.7,72.92 -29.89,111.31"
     style="fill:none;stroke:#000000;stroke-width:9.99766;stroke-dasharray:none"
     id="path1040" /><path
     d="m 9097.178,4706.511 c 4.28,30.06 -18.4,91.99 -58.59,117.67"
     style="fill:none;stroke:#000000;stroke-width:9.99766;stroke-dasharray:none"
     id="path1041" /><path
     d="m 8959.808,5000.621 c -3.95,-13.72 -29.77,-167.19 -23.32,-229.21 0.58,-5.5 19.02,154.76 37.51,228 1.64,6.48 -13.43,3.82 -14.19,1.21 z"
     style="fill:none;stroke:#000000;stroke-width:9.99766;stroke-dasharray:none"
     id="path1042" /><path
     d="m 8940.238,4869.911 c -21.6,4.67 -92.21,6.65 -129.25,-6.67 4.28,20.87 19.25,98.35 22.6,135.39 0.68,7.51 67.54,-15.02 126.88,2.79"
     style="fill:none;stroke:#000000;stroke-width:9.99766;stroke-dasharray:none"
     id="path1043" /><path
     d="m 8914.488,4981.091 c -21.64,-1.24 -71.48,14.6 -80.48,18.32"
     style="fill:none;stroke:#000000;stroke-width:9.99766;stroke-dasharray:none"
     id="path1044" /><path
     d="m 8788.288,5041.801 -65.57,439.91"
     style="fill:none;stroke:#000000;stroke-width:9.99766;stroke-dasharray:none"
     id="path1045" /><path
     d="m 8690.518,5425.941 c 6.12,21.51 43.89,137.71 36.73,151.19 -7.16,13.48 -168.37,79.69 -191.86,79.04 -23.5,-0.65 -27.05,-14.75 -11.61,-29.39 15.43,-14.64 108.14,-77.09 110.97,-98.63 2.83,-21.53 -18.58,-75.3 -18.58,-75.3"
     style="fill:none;stroke:#000000;stroke-width:9.99766;stroke-dasharray:none"
     id="path1046" /><path
     d="m 9022.388,5496.271 c 7.37,-0.74 20.32,1.21 23.28,11.41 2.96,10.2 9.47,78.14 9.03,85.24 -0.45,7.1 -13.78,10.41 -18.08,-1.16 -4.31,-11.58 -21.61,-94.74 -14.23,-95.49 z"
     style="fill:none;stroke:#000000;stroke-width:9.99766;stroke-dasharray:none"
     id="path1048" /><path
     d="m 9010.348,5498.021 14.4,101.35"
     style="fill:none;stroke:#000000;stroke-width:9.99766;stroke-dasharray:none"
     id="path1049" /><path
     d="m 9190.698,5171.931 c 0.84,-14.49 21.26,-58.47 24.41,-44.25 3.14,14.23 16.1,378.92 15.74,387.67 -0.36,8.75 -9.92,13.93 -13.19,-1.16 -3.26,-15.08 -27.8,-327.77 -26.96,-342.26 z"
     style="fill:none;stroke:#000000;stroke-width:9.99766;stroke-dasharray:none"
     id="path1050" /><path
     d="m 9181.868,5201.451 24.23,322.32"
     style="fill:none;stroke:#000000;stroke-width:9.99766;stroke-dasharray:none"
     id="path1051" /></g>
</svg>
