<?xml version="1.0" encoding="UTF-8" standalone="no"?>
<svg
   width="3589.6182"
   height="1917.3815"
   viewBox="0 0 3589.6181 1917.3815"
   version="1.1"
   xml:space="preserve"
   style="clip-rule:evenodd;fill-rule:evenodd;stroke-linecap:round;stroke-linejoin:round;stroke-miterlimit:1.5"
   id="svg1780"
   xmlns="http://www.w3.org/2000/svg"
   xmlns:svg="http://www.w3.org/2000/svg"><defs
   id="defs1780" />
    <g
   id="vctrly-notion-discuss-learn-study-child-man-dad"
   transform="matrix(2.0003049,0,0,2.0006295,-35825.14,-12881.535)"
   style="stroke-width:9.99766;stroke-dasharray:none"><path
     d="m 19129.498,7320.211 c 0,0 71.1,-292.58 73.2,-302.91 2.1,-10.32 11.1,-15.19 25.1,-14.97 15.9,0.25 437.4,-5.76 451.9,-4.49 14.5,1.26 20.8,0.5 19.5,12.86 -1.2,12.36 -70,300.38 -70,300.38 z"
     id="path7"
     style="stroke-width:9.99766;stroke-dasharray:none" /><path
     d="m 19284.798,6701.201 c 17,-9 16,7 10,13 -5.1,5.1 -16.7,8.55 -25,3 -6,-4 -5.7,-11.44 -1,-12 4.7,-0.56 8.5,-0.02 16,-4 z"
     id="path8"
     style="stroke-width:9.99766;stroke-dasharray:none" /><path
     d="m 19207.898,6598.321 c -12.1,2.84 -25.2,4.32 -39.1,3.88 -64,-2 -62.9,-116.09 26,-119 0,-34 72,-57 131,-22 33.2,-22.46 106,-27.3 120,37 10,46 -15.3,103.16 -21.3,113.9 -3.1,-8.47 -10.5,-12.93 -18.7,-7.9 -8.2,5.02 -16.3,21.35 -26,20 -9.7,-1.35 -37,-27 -58,-104 -11.8,12.03 -50.9,63.39 -113.9,78.12 z"
     id="path9"
     style="stroke-width:9.99766;stroke-dasharray:none" /><path
     d="m 18339.698,7392.131 c 0,0 -307.8,-66.4 -313.9,-68.93 -6.1,-2.53 -107,-304.05 -111,-314 -4,-9.95 296.4,26.66 300,32 3.6,5.34 124.9,350.93 124.9,350.93 z"
     id="path10"
     style="stroke-width:9.99766;stroke-dasharray:none" /><path
     d="m 18611.298,6651.381 c -1.1,-12.1 -2.7,-20.97 -3.5,-24.18 -67,51 -132.5,29.23 -147,22 -1.7,6.02 -9.5,30.37 -22,31 -12.5,0.63 -11,-31.54 -20,-38 -11.4,-8.12 -20.1,-5.4 -23.5,2.46 -14,-7.8 -47.5,-58.46 -36.5,-99.46 8.2,-30.69 46.6,-28.49 64,-24 29,-41 92,-57 153.6,-36 64.7,22.06 73.4,121 34.9,166.18 z"
     id="path11"
     style="stroke-width:9.99766;stroke-dasharray:none" /><path
     d="m 18581.798,6656.201 c -18.9,11.91 -33,53 -31,90"
     style="fill:none;stroke:#000000;stroke-width:9.99766;stroke-dasharray:none"
     id="path1662" /><path
     d="m 18535.798,6764.201 c 2.6,2.54 13.5,3.17 17,-2"
     style="fill:none;stroke:#000000;stroke-width:9.99766;stroke-dasharray:none"
     id="path1663" /><path
     d="m 18498.798,6676.201 c 7,0 13,-1 17,-8"
     style="fill:none;stroke:#000000;stroke-width:9.99766;stroke-dasharray:none"
     id="path1664" /><ellipse
     cx="18570.021"
     cy="6539.4507"
     rx="4"
     ry="6.5"
     id="ellipse1664"
     transform="rotate(0.49518362)"
     style="stroke-width:9.99766;stroke-dasharray:none" /><ellipse
     cx="18637.568"
     cy="6531.1094"
     rx="4"
     ry="6.5"
     id="ellipse1665"
     transform="rotate(0.49518362)"
     style="stroke-width:9.99766;stroke-dasharray:none" /><path
     d="m 18438.798,6704.201 c -1.2,-2.92 -20.1,-0.94 -39,-32 -14,-23 -2,-45 19,-30 9,6.46 7.5,38.63 20,38 12.5,-0.63 20.3,-24.98 22,-31 14.5,7.23 80,29 147,-22 3.6,14.69 24,147.69 -55,167 -45,11 -95,-44 -114,-90 z"
     style="fill:none;stroke:#000000;stroke-width:9.99766;stroke-dasharray:none"
     id="path1665" /><path
     d="m 18611.298,6651.381 c 38.5,-45.18 29.8,-144.12 -34.9,-166.18 -61.6,-21 -124.6,-5 -153.6,36 -17.4,-4.49 -55.8,-6.69 -64,24 -11,41 22.5,91.66 36.5,99.46"
     style="fill:none;stroke:#000000;stroke-width:9.99766;stroke-dasharray:none"
     id="path1666" /><path
     d="m 18586.798,6801.201 c -0.8,20.76 -3.8,66.61 -7,70 -3.2,3.39 -34.2,-63.64 -43,-61 -8.8,2.64 -40.6,80.65 -49,67 -8.4,-13.65 -48.3,-154.77 -60,-145 -11.7,9.77 -221,295 -221,295"
     style="fill:none;stroke:#000000;stroke-width:9.99766;stroke-dasharray:none"
     id="path1667" /><path
     d="m 18605.798,6822.201 84,302"
     style="fill:none;stroke:#000000;stroke-width:9.99766;stroke-dasharray:none"
     id="path1668" /><path
     d="m 18634.298,7146.201 c 0,0 -12.2,-51.38 -13.5,-56 -1.3,-4.62 14.5,-12.27 16,-6 1.5,6.27 11,55 11,55"
     style="fill:none;stroke:#000000;stroke-width:9.99766;stroke-dasharray:none"
     id="path1669" /><path
     d="m 18655.798,7154.201 c -26,1 -39,15.96 -46,16 -5.8,0.03 -105.4,-14.71 -147.2,-21.16"
     style="fill:none;stroke:#000000;stroke-width:9.99766;stroke-dasharray:none"
     id="path1670" /><path
     d="m 18475.798,7124.201 c -7.7,12.27 -35,61 -41,128 -0.7,7.8 -120,-14 -120,-14"
     style="fill:none;stroke:#000000;stroke-width:9.99766;stroke-dasharray:none"
     id="path1671" /><path
     d="m 18414.798,7133.201 c 0,0 -49.3,59.31 -63,101"
     style="fill:none;stroke:#000000;stroke-width:9.99766;stroke-dasharray:none"
     id="path1672" /><path
     d="m 18435.098,7248.641 c 0,0 170.5,11.83 180.7,12.56"
     style="fill:none;stroke:#000000;stroke-width:9.99766;stroke-dasharray:none"
     id="path1673" /><path
     d="m 18593.798,7273.201 70,115 130,-26"
     style="fill:none;stroke:#000000;stroke-width:9.99766;stroke-dasharray:none"
     id="path1674" /><path
     d="m 18231.798,7041.201 120,321 192,-67 -232.1,-40.28"
     style="fill:none;stroke:#000000;stroke-width:9.99766;stroke-dasharray:none"
     id="path1675" /><path
     d="m 18552.798,7312.201 -213.1,79.93 c 0,0 -307.8,-66.4 -313.9,-68.93 -6.1,-2.53 -107,-304.05 -111,-314 -4,-9.95 296.4,26.66 300,32 3.6,5.34 124.9,350.93 124.9,350.93"
     style="fill:none;stroke:#000000;stroke-width:9.99766;stroke-dasharray:none"
     id="path1676" /><path
     d="m 18699.798,7294.201 -15,52 212,5 12,-108"
     style="fill:none;stroke:#000000;stroke-width:9.99766;stroke-dasharray:none"
     id="path1677" /><path
     d="m 18713.798,7297.201 158,3"
     style="fill:none;stroke:#000000;stroke-width:9.99766;stroke-dasharray:none"
     id="path1678" /><path
     d="m 18847.798,7322.331 29,0.87 m -166,-5 117,3.53"
     style="fill:none;stroke:#000000;stroke-width:9.99766;stroke-dasharray:none"
     id="path1679" /><path
     d="m 19273.798,6781.201 c 1,11 14.9,8.5 11,14 -3.9,5.5 -202,204 -402,310 -3,1.61 47.3,53.59 66.1,91.75 5.7,11.65 8.5,22 5.9,29.25 -1.6,4.57 -33.8,-2.01 -59.1,-14.5"
     style="fill:none;stroke:#000000;stroke-width:9.99766;stroke-dasharray:none"
     id="path1680" /><path
     d="m 18815.798,7231.201 c 0,0 113,-26.65 133.1,-34.25"
     style="fill:none;stroke:#000000;stroke-width:9.99766;stroke-dasharray:none"
     id="path1681" /><path
     d="m 18887.298,7112.481 c -63.5,27.72 -181.7,46.87 -186.5,55.72 -4.8,8.85 15,16 31,15 11.9,-0.74 22,3 37.5,-1"
     style="fill:none;stroke:#000000;stroke-width:9.99766;stroke-dasharray:none"
     id="path1682" /><path
     d="m 18725.298,7183.181 21.5,84.02 14,23 v -25 l -11,-68.25"
     style="fill:none;stroke:#000000;stroke-width:9.99766;stroke-dasharray:none"
     id="path1683" /><path
     d="m 18735.798,7148.281 c 0,0 -13.4,-47.84 -16,-55.08 -2.6,-7.24 -17.9,-4.48 -16,7 1.9,11.49 15,54 15,54"
     style="fill:none;stroke:#000000;stroke-width:9.99766;stroke-dasharray:none"
     id="path1684" /><path
     d="m 18707.798,7154.201 c -8,-1.68 -29.6,-0.68 -22,22 9,27 26,40 33.9,42 7.9,1.98 12.1,-6 11.8,-10.84"
     style="fill:none;stroke:#000000;stroke-width:9.99766;stroke-dasharray:none"
     id="path1685" /><path
     d="m 18676.798,7184.081 c 0.4,15.5 21.5,59.32 33,58.12 11.5,-1.2 9.9,-13 9.9,-13"
     style="fill:none;stroke:#000000;stroke-width:9.99766;stroke-dasharray:none"
     id="path1686" /><path
     d="m 18673.798,7216.201 c 2,22 22.5,46.67 34,46 11.6,-0.67 11,-11 11,-11"
     style="fill:none;stroke:#000000;stroke-width:9.99766;stroke-dasharray:none"
     id="path1687" /><path
     d="m 18680.198,7236.691 c 4.2,12.63 22,37.85 32.6,39.51"
     style="fill:none;stroke:#000000;stroke-width:9.99766;stroke-dasharray:none"
     id="path1688" /><path
     d="m 18942.798,7117.201 v 16"
     style="fill:none;stroke:#000000;stroke-width:9.99766;stroke-dasharray:none"
     id="path1689" /><path
     d="m 18961.798,7089.201 9,70"
     style="fill:none;stroke:#000000;stroke-width:9.99766;stroke-dasharray:none"
     id="path1690" /><path
     d="m 18996.798,7070.201 11,123"
     style="fill:none;stroke:#000000;stroke-width:9.99766;stroke-dasharray:none"
     id="path1691" /><path
     d="m 18953.698,7227.131 c 33.8,-9.81 184.3,-48.37 202.1,-57.93"
     style="fill:none;stroke:#000000;stroke-width:9.99766;stroke-dasharray:none"
     id="path1692" /><path
     d="m 19034.798,7061.201 11,108"
     style="fill:none;stroke:#000000;stroke-width:9.99766;stroke-dasharray:none"
     id="path1693" /><path
     d="m 19069.798,7027.201 3,142"
     style="fill:none;stroke:#000000;stroke-width:9.99766;stroke-dasharray:none"
     id="path1694" /><path
     d="m 19113.798,6988.201 7,157"
     style="fill:none;stroke:#000000;stroke-width:9.99766;stroke-dasharray:none"
     id="path1695" /><path
     d="m 19155.798,6944.201 v 168"
     style="fill:none;stroke:#000000;stroke-width:9.99766;stroke-dasharray:none"
     id="path1696" /><path
     d="m 19190.798,6926.201 3,55"
     style="fill:none;stroke:#000000;stroke-width:9.99766;stroke-dasharray:none"
     id="path1697" /><path
     d="m 19232.798,6899.201 5,82"
     style="fill:none;stroke:#000000;stroke-width:9.99766;stroke-dasharray:none"
     id="path1698" /><path
     d="m 19266.798,6852.201 v 129"
     style="fill:none;stroke:#000000;stroke-width:9.99766;stroke-dasharray:none"
     id="path1699" /><path
     d="m 19309.798,6814.201 5,167"
     style="fill:none;stroke:#000000;stroke-width:9.99766;stroke-dasharray:none"
     id="path1700" /><path
     d="m 19361.798,6796.201 2,192"
     style="fill:none;stroke:#000000;stroke-width:9.99766;stroke-dasharray:none"
     id="path1701" /><path
     d="m 19414.798,6828.201 3,134"
     style="fill:none;stroke:#000000;stroke-width:9.99766;stroke-dasharray:none"
     id="path1702" /><path
     d="m 19444.798,6862.201 3,119"
     style="fill:none;stroke:#000000;stroke-width:9.99766;stroke-dasharray:none"
     id="path1703" /><path
     d="m 19476.798,6899.201 v 74"
     style="fill:none;stroke:#000000;stroke-width:9.99766;stroke-dasharray:none"
     id="path1704" /><path
     d="m 19512.798,6954.201 v 19"
     style="fill:none;stroke:#000000;stroke-width:9.99766;stroke-dasharray:none"
     id="path1705" /><path
     d="m 19400.798,6693.201 c 25,-11 31.8,20.35 25,35 -13,28 -28.5,27.78 -24,34 4.5,6.23 144.1,206.27 150,219"
     style="fill:none;stroke:#000000;stroke-width:9.99766;stroke-dasharray:none"
     id="path1706" /><path
     d="m 19256.798,6602.201 c -0.4,10.48 1.1,73.86 2,78 0.9,4.14 7,5 7,5"
     style="fill:none;stroke:#000000;stroke-width:9.99766;stroke-dasharray:none"
     id="path1707" /><path
     d="m 19299.798,6589.201 c 4.3,-5.25 14.5,-6.1 19,-5"
     style="fill:none;stroke:#000000;stroke-width:9.99766;stroke-dasharray:none"
     id="path1708" /><path
     d="m 19207.898,6598.321 c -6.1,87.88 33.9,166.88 85.9,166.88 60,0 92.8,-87.72 98,-96 5.2,-8.28 25.5,-12.12 33,-39 5,-18 -6,-34 -19,-26 -8.2,5.02 -16.3,21.35 -26,20 -9.7,-1.35 -37,-27 -58,-104 -14,14.35 -67,84.69 -153,82 -64,-2 -62.9,-116.09 26,-119 0,-34 72,-57 131,-22 33.2,-22.46 106,-27.3 120,37 10,46 -15.3,103.16 -21.3,113.9"
     style="fill:none;stroke:#000000;stroke-width:9.99766;stroke-dasharray:none"
     id="path1709" /><path
     d="m 19233.398,6590.001 c 0,0 6.2,0.26 11.4,3.2"
     style="fill:none;stroke:#000000;stroke-width:9.99766;stroke-dasharray:none"
     id="path1710" /><ellipse
     cx="18495.521"
     cy="8471.8213"
     rx="5.1539998"
     ry="7.961"
     id="ellipse1710"
     transform="rotate(-5.5830356)"
     style="stroke-width:9.99766;stroke-dasharray:none" /><ellipse
     cx="18574.732"
     cy="8475.7061"
     rx="5.1539998"
     ry="7.961"
     id="ellipse1711"
     transform="rotate(-5.5830356)"
     style="stroke-width:9.99766;stroke-dasharray:none" /><path
     d="m 19284.798,6701.201 c 17,-9 16,7 10,13 -5.1,5.1 -16.7,8.55 -25,3 -6,-4 -5.7,-11.44 -1,-12 4.7,-0.56 8.5,-0.02 16,-4 z"
     style="fill:none;stroke:#000000;stroke-width:9.99766;stroke-dasharray:none"
     id="path1711" /><path
     d="m 19052.898,7235.881 68.4,93.94"
     style="fill:none;stroke:#000000;stroke-width:9.99766;stroke-dasharray:none"
     id="path1712" /><path
     d="m 19145.498,7214.061 -86.2,4.62 70.2,101.53 499.7,-9.13 c 0,0 68.8,-288.02 70,-300.38 1.3,-12.36 -5,-11.6 -19.5,-12.86 -14.5,-1.27 -436,4.74 -451.9,4.49 -14,-0.22 -23,4.65 -25.1,14.97 -2.1,10.33 -73.2,302.91 -73.2,302.91"
     style="fill:none;stroke:#000000;stroke-width:9.99766;stroke-dasharray:none"
     id="path1713" /><path
     d="m 19136.298,7334.651 484.7,-10.71"
     style="fill:none;stroke:#000000;stroke-width:9.99766;stroke-dasharray:none"
     id="path1714" /></g>
</svg>
