<?xml version="1.0" encoding="UTF-8" standalone="no"?>
<!-- Created with Inkscape (http://www.inkscape.org/) -->

<svg
   width="794.41235mm"
   height="561.96283mm"
   viewBox="0 0 794.41238 561.96284"
   version="1.1"
   id="svg1"
   xml:space="preserve"
   xmlns="http://www.w3.org/2000/svg"
   xmlns:svg="http://www.w3.org/2000/svg"><defs
     id="defs1" /><g
     id="layer1"
     transform="translate(-10626.882,-2142.7109)"><path
       style="fill:#000000;stroke-width:1"
       d="m 11063.715,2704.0182 c -3.081,-0.7755 -3.92,-0.8205 -6.106,-0.324 -2.145,0.4875 -3.174,0.4455 -6.713,-0.273 -3.957,-0.8025 -4.264,-0.8055 -5.76,-0.03 -1.216,0.6285 -2.192,0.744 -4.24,0.5025 -3.753,-0.444 -9.37,-0.783 -12.271,-0.7395 -1.358,0.015 -3.227,-0.2805 -4.154,-0.6675 -1.513,-0.6315 -1.848,-0.624 -3.248,0.075 -0.858,0.4305 -2.311,0.7695 -3.228,0.753 -6.2,-0.105 -12.497,-0.6765 -14.526,-1.314 -1.309,-0.411 -3.667,-0.7545 -5.238,-0.7635 -1.572,-0.01 -3.677,-0.207 -4.679,-0.4395 -1.446,-0.336 -2.268,-0.225 -3.995,0.54 -1.196,0.5295 -2.948,0.9525 -3.894,0.942 -4.375,-0.045 -9.112,-0.4905 -10.631,-0.9915 -1.09,-0.36 -2.068,-0.3975 -2.827,-0.105 -1.65,0.627 -11.46,0.2625 -15.408,-0.5745 -4.734,-1.002 -6.803,-1.0875 -9.559,-0.393 -2.054,0.5175 -2.73,0.4995 -4.524,-0.12 -1.16,-0.4035 -2.734,-0.738 -3.496,-0.741 -1.577,-0.01 -5.683,-1.1265 -8.853,-2.4111 -1.179,-0.4785 -3.256,-0.996 -4.616,-1.1505 -1.36,-0.1545 -3.181,-0.5775 -4.048,-0.939 -0.933,-0.3885 -2.45,-0.5625 -3.718,-0.426 -1.81,0.1965 -2.65,-0.045 -5.396,-1.5071 -3.223,-1.7233 -3.305,-1.7392 -9.049,-1.7574 -3.714,-0.012 -6.224,-0.2355 -6.987,-0.624 -0.655,-0.333 -2.078,-0.753 -3.163,-0.933 -2.555,-0.4245 -7.136,-3.2985 -8.039,-5.043 -1.213,-2.3473 -0.912,-4.95 0.801,-6.9006 0.828,-0.9435 1.852,-2.3604 2.276,-3.15 0.757,-1.413 1.968,-2.3275 4.315,-3.2599 0.656,-0.2595 1.73,-0.9075 2.388,-1.4385 1.353,-1.092 5.241,-1.707 7.778,-1.2315 0.924,0.174 2.76,1.059 4.08,1.9662 1.805,1.242 2.897,1.651 4.402,1.651 1.826,0 4.519,0.687 10.404,2.6547 8.743,2.9234 14.909,4.0997 25.717,4.9062 2.489,0.186 5.038,0.621 5.665,0.966 0.845,0.4665 3.376,0.606 9.764,0.5415 10.486,-0.105 16.797,0.156 18.385,0.762 0.655,0.2505 5.048,0.399 9.763,0.33 7.642,-0.105 8.915,-0.015 11.732,0.8865 3.101,0.993 3.237,0.996 7.268,0.195 2.259,-0.4485 4.35,-0.666 4.646,-0.483 0.833,0.5145 14.448,0.678 18.915,0.2265 2.848,-0.288 4.838,-0.2235 6.974,0.2235 1.644,0.3435 4.78,0.651 6.969,0.6825 6.488,0.09 17.334,0.105 21.839,0.015 8.437,-0.1575 19.218,0.2865 21.668,0.8925 1.876,0.4635 2.995,0.465 5.289,0.01 2.266,-0.45 3.411,-0.4515 5.171,-0.01 1.893,0.477 2.699,0.441 4.95,-0.216 1.798,-0.525 3.557,-0.696 5.308,-0.5145 1.44,0.15 3.405,0.03 4.366,-0.2505 1.957,-0.5835 8.358,0.4485 10.883,1.7542 1.822,0.942 2.169,0.9075 5.23,-0.525 2.23,-1.0425 3.47,-1.257 8.335,-1.4415 7.22,-0.273 7.088,-0.273 16.192,0.03 9.182,0.3105 8.028,0.303 16.193,0.105 3.667,-0.09 7.67,-0.33 8.895,-0.528 1.226,-0.198 3.584,-0.4215 5.239,-0.4965 1.656,-0.075 4.189,-0.288 5.63,-0.4755 2.04,-0.264 3.213,-0.135 5.305,0.6075 2.31,0.813 3.242,0.8895 6.658,0.5445 2.185,-0.2205 5.007,-0.6495 6.271,-0.9525 1.265,-0.303 2.934,-0.4245 3.709,-0.27 0.897,0.18 2.315,-0.075 3.902,-0.711 2.211,-0.8805 2.817,-0.9345 5.373,-0.4725 1.949,0.3525 3.411,0.369 4.521,0.045 0.903,-0.2595 2.606,-0.474 3.787,-0.477 1.18,0 3.003,-0.3165 4.051,-0.693 1.048,-0.378 3.512,-0.7005 5.477,-0.717 2.524,-0.015 4.2,-0.3165 5.714,-1.0035 1.933,-0.8775 2.704,-0.9405 7.886,-0.645 4.811,0.2745 5.986,0.2025 7.236,-0.444 0.82,-0.4245 3.029,-0.99 4.909,-1.2555 1.879,-0.267 3.576,-0.5835 3.772,-0.7035 0.195,-0.12 2.152,-0.4245 4.35,-0.6735 2.472,-0.282 4.993,-0.9195 6.614,-1.6749 1.464,-0.6825 3.484,-1.2225 4.579,-1.224 1.184,0 2.41,-0.357 3.096,-0.894 0.625,-0.489 2.449,-1.5502 4.054,-2.3586 l 2.918,-1.47 1.062,-3.9387 c 0.939,-3.4825 0.998,-4.2321 0.497,-6.4723 -0.516,-2.303 -0.492,-3.525 0.207,-10.8272 0.07,-0.786 0.288,-2.6074 0.471,-4.048 0.241,-1.8948 0.12,-3.1959 -0.417,-4.7034 -1.053,-2.9183 -0.941,-4.7127 0.459,-7.3401 0.666,-1.2495 1.065,-2.5079 0.886,-2.7951 -0.397,-0.6435 -1.317,-14.6517 -1.261,-19.2134 0.06,-5.3022 0.913,-17.5464 1.273,-18.3961 0.18,-0.426 -0.22,-2.6672 -0.891,-4.98 -1.464,-5.0513 -1.502,-6.6392 -0.25,-10.6325 0.915,-2.9185 0.921,-3.1449 0.153,-5.1588 -0.707,-1.8516 -0.731,-2.4772 -0.195,-5.1744 0.571,-2.8729 0.525,-3.4212 -0.722,-8.6175 l -1.332,-5.5492 1.094,-4.1888 1.093,-4.1887 -1.3,-3.5672 c -1.385,-3.7957 -1.404,-5.1318 -0.171,-11.938 0.802,-4.4303 -0.477,-22.2254 -1.934,-26.9081 -0.394,-1.269 -0.336,-3.0903 0.246,-7.62 1.025,-7.9731 0.996,-8.4592 -0.709,-11.655 -1.645,-3.0829 -1.817,-4.707 -0.762,-7.2303 1.158,-2.7714 0.928,-7.6768 -0.504,-10.8078 -1.175,-2.5656 -1.2,-2.8218 -0.723,-7.0822 0.418,-3.7353 0.378,-4.7291 -0.263,-6.4131 -0.589,-1.5467 -0.663,-2.5593 -0.333,-4.5243 0.234,-1.392 0.284,-3.1746 0.105,-3.9605 -0.174,-0.786 -0.342,-2.3502 -0.372,-3.4764 -0.03,-1.1265 -0.346,-2.6265 -0.7,-3.3337 -0.413,-0.8235 -0.848,-4.8855 -1.208,-11.2874 -0.759,-13.4672 -0.876,-14.5781 -1.771,-16.7191 -0.552,-1.3215 -0.7,-2.6611 -0.517,-4.6827 0.202,-2.2384 0.06,-3.217 -0.683,-4.6732 -0.516,-1.0125 -1.135,-3.5591 -1.375,-5.6579 -0.24,-2.0986 -0.995,-5.4366 -1.679,-7.4176 -0.685,-1.9851 -1.123,-4.0806 -0.975,-4.6688 0.791,-3.1521 -1.623,-12.61 -4.619,-18.0931 -0.843,-1.5432 -1.03,-2.6285 -0.987,-5.715 0.03,-2.0955 0.135,-4.4264 0.231,-5.1795 0.162,-1.245 0,-1.4235 -1.789,-1.9571 -1.081,-0.3225 -3.206,-1.4745 -4.721,-2.5594 -1.514,-1.0845 -3.003,-1.9721 -3.308,-1.9721 -0.539,0 -8.877,-3.5361 -12.054,-5.1115 -0.864,-0.429 -2.318,-1.7957 -3.23,-3.038 -1.142,-1.5543 -2.238,-2.4552 -3.516,-2.8887 -1.156,-0.393 -3.351,-2.0668 -5.817,-4.44 -2.177,-2.0955 -4.863,-4.3902 -5.969,-5.0992 -1.554,-0.996 -2.439,-2.1329 -3.893,-5.0007 -1.299,-2.5634 -2.851,-4.6644 -5.016,-6.7931 -1.724,-1.6951 -3.134,-3.3516 -3.134,-3.6813 0,-0.33 -0.804,-1.011 -1.786,-1.5139 -1.89,-0.9675 -3.52,-2.8599 -5.171,-6.0044 -0.552,-1.0515 -1.463,-2.7601 -2.025,-3.7977 -0.561,-1.038 -1.02,-2.7055 -1.02,-3.7063 0,-1.0005 -0.321,-2.5889 -0.714,-3.5292 -0.904,-2.1635 -0.904,-3.8798 0,-6.0396 0.606,-1.4505 0.624,-2.2589 0.12,-5.4161 -0.879,-5.5546 -0.581,-10.3579 0.825,-13.2294 0.639,-1.3065 1.008,-2.5225 0.822,-2.7036 -0.723,-0.699 -9.215,-2.7804 -11.388,-2.7903 -1.258,-0.01 -3.147,-0.4005 -4.197,-0.8775 -1.05,-0.477 -3.408,-1.1325 -5.239,-1.4565 -1.831,-0.324 -4.401,-1.029 -5.71,-1.5676 -1.31,-0.5385 -4.739,-1.6193 -7.62,-2.402 -4.849,-1.317 -7.018,-1.612 -14.05,-1.9089 l -2.619,-0.105 0.12,1.667 c 0.06,0.9165 0.222,4.7743 0.348,8.5725 0.12,3.798 0.393,9.4906 0.594,12.6502 0.339,5.3054 0.466,5.8637 1.677,7.2996 0.72,0.855 1.446,2.1276 1.611,2.8278 0.166,0.7005 1.222,2.7732 2.348,4.6067 1.125,1.8336 2.501,4.4964 3.058,5.9172 0.556,1.4205 1.642,3.3805 2.414,4.3548 1.741,2.1975 1.877,4.4112 0.332,5.3791 -1.209,0.7575 -2.828,0.9525 -7.978,0.966 -3.668,0.01 -6.596,-0.9975 -8.072,-2.7763 -0.345,-0.4155 -1.964,-1.3935 -3.599,-2.1738 -3.446,-1.6448 -4.575,-2.9733 -7.282,-8.5709 -1.534,-3.1735 -2.071,-4.9743 -2.485,-8.3344 -0.291,-2.3574 -0.86,-5.7074 -1.263,-7.4444 -0.545,-2.3392 -0.618,-3.7057 -0.285,-5.2707 0.279,-1.3065 0.282,-2.5543 0,-3.2712 -0.243,-0.6375 -0.308,-2.707 -0.15,-4.5996 0.24,-2.7624 0.15,-3.678 -0.489,-4.6434 -0.813,-1.2405 -2.041,-1.555 -2.862,-0.7335 -0.258,0.258 -1.747,0.675 -3.31,0.9285 -1.563,0.252 -5.306,1.128 -8.318,1.9473 -6.825,1.8546 -9.912,2.4434 -13.639,2.6013 -1.608,0.075 -3.138,0.2565 -3.4,0.4185 -1.405,0.8685 -13.324,2.7767 -18.203,2.9135 -1.735,0.045 -4.08,0.483 -5.334,0.9885 -2.167,0.873 -2.32,0.8745 -4.763,0.045 l -2.524,-0.852 -3.334,1.269 c -2.859,1.0875 -3.77,1.224 -6.396,0.96 -1.915,-0.192 -3.937,-0.09 -5.397,0.291 -1.998,0.5115 -2.784,0.4815 -5.438,-0.2145 -1.707,-0.447 -3.292,-0.6975 -3.523,-0.555 -0.622,0.384 -7.529,1.29 -9.726,1.2765 -1.047,-0.01 -3.565,-0.1695 -5.594,-0.3615 l -3.689,-0.348 -0.79,1.8484 c -0.434,1.017 -0.768,2.4915 -0.741,3.2772 0.453,13.1835 0.414,13.7823 -1.037,15.6839 -0.754,0.99 -2.362,2.4375 -3.572,3.2173 -1.998,1.2885 -2.477,1.3965 -5.234,1.191 l -3.035,-0.2265 1.226,1.2255 1.225,1.2255 2.609,-0.8865 c 2.474,-0.8415 2.757,-0.846 5.44,-0.105 2.706,0.753 2.948,0.7455 5.498,-0.1515 3.237,-1.137 4.478,-1.1685 6.968,-0.1725 1.075,0.4305 2.279,0.6135 2.748,0.4185 1.275,-0.5295 8.158,-1.3005 10.835,-1.212 1.31,0.045 6.668,0.045 11.906,0.011 11.669,-0.09 9.939,-0.12 19.05,0.387 4.191,0.2325 8.224,0.6735 8.962,0.9795 0.815,0.3375 2.338,0.438 3.88,0.2565 1.867,-0.219 2.946,-0.09 4.089,0.4755 0.853,0.426 2.628,0.774 3.945,0.774 1.317,0 3.051,0.198 3.856,0.4395 1.725,0.519 15.035,2.4618 18.94,2.7654 4.002,0.3105 4.924,2.0904 1.895,3.6569 -1.893,0.9795 -7.879,2.1861 -10.845,2.1865 -1.333,3e-4 -3.691,0.4365 -5.239,0.969 -1.547,0.5325 -3.777,0.9345 -4.956,0.8925 -1.245,-0.045 -2.741,0.2565 -3.572,0.7185 -1.107,0.615 -2.448,0.768 -5.953,0.6735 -3.177,-0.09 -5.162,0.105 -6.667,0.6345 -7.647,2.6936 -9.424,2.9969 -13.182,2.2499 -2.799,-0.5565 -3.262,-0.534 -4.563,0.2115 -2.155,1.236 -5.02,1.473 -7.488,0.6165 -2.043,-0.7095 -2.273,-0.69 -5.386,0.432 -3.994,1.4415 -5.437,1.464 -8.521,0.135 -2.145,-0.9225 -2.623,-0.972 -4.375,-0.4455 -2.432,0.7305 -10.138,1.5874 -15.54,1.7293 -2.227,0.06 -5.12,0.2565 -6.43,0.438 -1.923,0.2685 -2.743,0.15 -4.267,-0.654 -2.045,-1.068 -3.204,-1.2165 -4.455,-0.573 -0.441,0.228 -3.171,0.558 -6.065,0.7335 -5.099,0.3105 -5.318,0.2835 -7.036,-0.882 -1.624,-1.1025 -2.062,-1.179 -5.221,-0.912 -2.983,0.252 -3.864,0.135 -6.537,-0.9135 -1.699,-0.663 -3.868,-1.4475 -4.818,-1.7451 -1.943,-0.6075 -2.581,-1.2435 -4.334,-4.3146 -0.672,-1.179 -1.888,-2.7342 -2.7,-3.4564 -0.813,-0.723 -1.478,-1.7118 -1.478,-2.1986 0,-1.1085 4.083,-4.3462 5.481,-4.3462 0.572,0 1.446,-0.45 1.945,-1.002 1.629,-1.8003 3.487,-2.4684 5.869,-2.111 1.2,0.18 3.002,0.4425 4.002,0.582 1.202,0.168 2.873,-0.105 4.928,-0.795 2.562,-0.8655 3.875,-1.0155 7.468,-0.8535 2.397,0.105 4.72,0.36 5.161,0.5595 0.713,0.3225 0.699,0.1605 -0.12,-1.443 -0.507,-0.993 -0.921,-2.053 -0.921,-2.3545 0,-0.3015 -0.643,-1.3575 -1.429,-2.3471 -2.192,-2.7582 -2.734,-5.0989 -1.803,-7.7937 1.448,-4.1875 1.454,-4.9249 0.08,-7.4638 -0.996,-1.832 -1.297,-3.0698 -1.344,-5.5094 -0.06,-2.9754 -0.168,-3.2688 -2.034,-5.3899 -1.086,-1.233 -2.108,-2.8496 -2.271,-3.5906 -0.163,-0.741 -0.739,-1.7445 -1.282,-2.23 -0.543,-0.486 -1.499,-1.6866 -2.122,-2.6688 -1.383,-2.1761 -2.683,-2.3075 -5.647,-0.57 -1.593,0.933 -2.661,1.1985 -4.609,1.143 -1.395,-0.045 -4.143,0.1545 -6.107,0.4305 -1.965,0.2775 -4.576,0.513 -5.803,0.525 -1.659,0.015 -2.861,0.4125 -4.696,1.5541 -2.257,1.4025 -2.867,1.5492 -7.176,1.7222 -2.59,0.105 -4.709,0.3285 -4.709,0.4995 0,0.171 1.375,1.7125 3.056,3.4269 3.821,3.8961 4.656,6.2965 4.487,12.8977 -0.06,2.4573 0.06,4.7379 0.257,5.0681 0.204,0.33 0.562,2.6284 0.798,5.1075 0.424,4.4815 0.415,4.5414 -1.499,10.4872 -1.125,3.4976 -2.095,7.6382 -2.336,9.9744 -0.227,2.1969 -0.677,4.4897 -0.999,5.0949 -1.87,3.5075 -5.945,9.0519 -7.248,9.8613 -0.834,0.519 -2.337,1.7852 -3.339,2.8152 -1.304,1.3395 -2.774,2.1956 -5.167,3.0066 -2.514,0.852 -3.509,1.449 -4.003,2.4014 -0.949,1.8303 -2.925,3.2242 -5.052,3.5643 -1.353,0.216 -2.271,0.7875 -3.418,2.1274 -1.718,2.0075 -4.233,3.2801 -6.483,3.2801 -0.853,0 -2.258,0.5865 -3.42,1.4295 -1.085,0.786 -2.254,1.428 -2.599,1.428 -0.345,0 -1.356,0.6405 -2.248,1.4235 -1.485,1.3035 -4.537,2.7556 -11.128,5.2938 -3.231,1.2435 -4.428,3.0862 -4.428,6.8124 0,2.1015 -0.333,3.3405 -1.496,5.5764 -1.456,2.7982 -1.48,2.9419 -0.885,5.4196 0.347,1.4475 0.465,3.2295 0.273,4.1307 -0.63,2.9537 -1.285,7.2857 -1.656,10.9301 -0.255,2.509 -0.687,4.0758 -1.398,5.0742 -1.173,1.6477 -1.299,3.7392 -0.468,7.7652 0.49,2.3769 0.45,3.0034 -0.33,5.0293 -0.696,1.8092 -0.905,3.7169 -0.953,8.7435 -0.06,6.531 -0.744,10.1462 -3.055,16.2186 -0.723,1.9 -0.745,2.3991 -0.184,4.0204 0.49,1.416 0.544,3.0027 0.231,6.7491 -0.345,4.1255 -0.609,5.1845 -1.67,6.7146 -1.206,1.7409 -1.236,1.9287 -0.696,4.4981 0.546,2.6056 0.518,2.7687 -1.014,5.7858 -1.402,2.7624 -1.517,3.273 -1.042,4.6332 0.738,2.1169 0.654,3.9366 -0.363,7.8157 -0.587,2.2401 -0.8,4.2998 -0.648,6.2784 0.135,1.8215 -0.08,4.3089 -0.57,6.5219 -0.468,2.1054 -0.668,4.2616 -0.483,5.2408 0.213,1.1385 0,2.5746 -0.689,4.5528 -1.137,3.2843 -1.243,5.2958 -0.439,8.2986 0.493,1.8422 0.427,2.4836 -0.542,5.3543 -0.973,2.8812 -1.069,3.8397 -0.82,8.223 0.208,3.6679 0.105,5.3703 -0.374,6.5287 -0.36,0.8625 -0.634,3.0263 -0.607,4.8117 0.05,2.6109 -0.203,3.7566 -1.229,5.8643 -1.086,2.2314 -1.233,3.0094 -0.987,5.2539 0.207,1.8873 0.07,3.1536 -0.475,4.4635 -0.951,2.2742 -0.962,3.5064 -0.05,5.6873 0.934,2.2351 0.91,5.6959 -0.06,7.5571 -0.66,1.275 -0.69,1.9601 -0.219,4.8795 0.396,2.4567 0.412,4.8215 0.06,8.5488 -0.351,3.7103 -0.339,5.7471 0.05,7.2755 0.4,1.593 0.394,2.5894 -0.03,3.9927 -0.435,1.4505 -0.428,2.5138 0.03,4.7356 0.48,2.3207 0.472,3.2946 -0.03,5.1206 -0.36,1.2975 -0.597,4.3786 -0.56,7.2555 0.105,7.9411 0.105,8.7018 0,10.7155 -0.06,1.047 0.258,2.8427 0.702,3.9887 0.584,1.5024 0.888,4.2259 1.091,9.7632 0.448,12.2548 0.628,16.4631 0.888,20.7279 0.168,2.7712 0.02,4.887 -0.498,6.889 -0.507,1.9794 -0.752,5.2757 -0.776,10.4654 l -0.03,7.5759 -1.614,3.0439 c -0.888,1.6743 -1.615,3.5768 -1.615,4.2279 0,1.485 -1.559,3.0888 -3.002,3.0888 -2.141,0 -4.99,-4.2165 -7.886,-11.6682 -0.509,-1.3095 -1.712,-4.3099 -2.674,-6.6675 -1.477,-3.6222 -1.706,-4.6551 -1.482,-6.6675 0.18,-1.6207 0.01,-3.0366 -0.517,-4.4331 -0.632,-1.656 -0.687,-2.4832 -0.29,-4.2862 0.272,-1.2285 0.384,-3.6123 0.251,-5.2965 -0.135,-1.6842 0.03,-4.8 0.358,-6.924 0.578,-3.7167 0.56,-3.9416 -0.508,-5.9865 -0.962,-1.842 -1.088,-2.6637 -0.944,-6.173 0.09,-2.2264 0.152,-4.584 0.135,-5.2387 -0.08,-2.7719 -0.45,-10.1774 -0.795,-15.7163 -0.291,-4.6674 -0.205,-6.8788 0.395,-10.2394 0.868,-4.8612 0.936,-5.9531 0.372,-5.9531 -0.569,0 -3.414,4.5129 -3.414,5.4147 0,0.417 -0.305,1.5653 -0.678,2.5529 -0.374,0.987 -0.818,2.8302 -0.987,4.0948 -0.222,1.6514 -0.75,2.7921 -1.874,4.0481 -2.31,2.5816 -4.555,7.1514 -4.556,9.2722 0,1.9932 -2.864,7.76 -5.486,11.0504 -0.836,1.0485 -1.902,2.6551 -2.37,3.5719 -0.468,0.9165 -1.518,2.6313 -2.332,3.81 -0.814,1.179 -2.23,3.6356 -3.148,5.4597 -1.309,2.6042 -2.191,3.6783 -4.104,5.0006 -5.029,3.4753 -5.463,3.9388 -5.982,6.3837 -0.375,1.7631 -0.95,2.7325 -2.402,4.048 -2.743,2.4849 -4.157,3.9407 -6.388,6.575 -1.083,1.2795 -3.119,2.9403 -4.524,3.6922 -1.406,0.7515 -4.056,2.8029 -5.89,4.5576 -2.035,1.9479 -4.071,3.4325 -5.227,3.812 -1.041,0.342 -3.507,1.8477 -5.477,3.3465 -4.375,3.3271 -9.275,6.5136 -10.655,6.9283 -0.564,0.1695 -1.7,0.948 -2.525,1.7321 -1.376,1.305 -4.525,2.4871 -9.453,3.5488 -0.786,0.1695 -2.044,0.819 -2.796,1.4415 -1.877,1.5579 -3.531,2.3412 -5.777,2.736 -1.047,0.1845 -2.689,0.8715 -3.648,1.5278 -1.026,0.702 -2.834,1.341 -4.395,1.5525 -1.991,0.27 -2.95,0.6825 -3.852,1.6557 -1.336,1.4415 -3.923,2.6764 -5.608,2.6764 -0.608,0 -2.704,0.5535 -4.659,1.2285 -6.646,2.2977 -10.691,3.4364 -16.89,4.7549 -2.096,0.4455 -4.667,1.128 -5.715,1.5145 -1.437,0.531 -4.827,0.747 -13.811,0.876 -6.549,0.09 -12.648,0.303 -13.555,0.4635 -1.992,0.3525 -8.492,-0.5055 -11.449,-1.5121 -1.179,-0.402 -3.107,-0.93 -4.286,-1.1745 -4.228,-0.8775 -9.442,-2.8842 -12.905,-4.9677 -1.939,-1.1655 -4.276,-2.2596 -5.192,-2.4299 -2.218,-0.4125 -3.798,-1.2525 -5.226,-2.781 -0.648,-0.693 -2.116,-1.6753 -3.261,-2.1822 -2.786,-1.2315 -4.518,-2.6559 -10.249,-8.4238 -8.292,-8.3468 -8.755,-8.9627 -10.124,-13.4651 -0.677,-2.2264 -1.908,-5.2269 -2.735,-6.6675 -1.274,-2.2168 -1.521,-3.1684 -1.614,-6.1912 -0.06,-1.9646 -0.241,-5.5352 -0.403,-7.9347 -0.267,-3.9717 -0.186,-4.6121 0.903,-7.1438 0.868,-2.0167 1.344,-4.3443 1.731,-8.47 l 0.534,-5.6892 -2.568,-2.4071 c -1.413,-1.3245 -3.081,-3.4621 -3.71,-4.7515 -0.628,-1.29 -1.963,-3.2183 -2.966,-4.2863 -1.004,-1.068 -2.339,-2.9433 -2.966,-4.1671 -0.627,-1.224 -1.676,-3.0137 -2.33,-3.9771 -1.568,-2.3111 -1.918,-4.4361 -1.213,-7.3745 0.526,-2.1933 0.481,-2.6347 -0.504,-4.8945 -1.443,-3.3094 -1.379,-6.0621 0.234,-9.8359 1.084,-2.5397 1.258,-3.4799 1.009,-5.4768 -0.252,-2.0279 -0.03,-3.1298 1.355,-6.9353 0.91,-2.4885 1.903,-5.4801 2.206,-6.6481 0.305,-1.1685 1.389,-3.2927 2.413,-4.7211 1.254,-1.7514 1.859,-3.1046 1.859,-4.1555 0,-2.134 0.761,-3.9723 2.347,-5.6685 0.735,-0.786 1.567,-2.1226 1.849,-2.9707 0.73,-2.196 4.589,-8.0858 6.921,-10.5662 4.088,-4.3492 6.611,-6.6834 8.552,-7.914 1.101,-0.6975 2.845,-2.5153 3.877,-4.0392 1.032,-1.5238 2.899,-3.5806 4.149,-4.5706 1.249,-0.99 2.521,-2.4012 2.826,-3.1359 0.634,-1.5315 3.475,-4.1889 4.477,-4.1889 0.371,0 1.325,-0.9435 2.117,-2.0961 0.908,-1.32 2.254,-2.489 3.634,-3.1566 1.204,-0.5835 2.287,-1.311 2.404,-1.6161 0.12,-0.306 -0.12,-1.4835 -0.515,-2.6183 -1.023,-2.8974 -1.003,-14.7982 0.03,-19.3261 1.46,-6.3908 2.953,-9.8432 5.621,-12.9951 1.389,-1.641 2.77,-3.7983 3.068,-4.794 0.883,-2.9504 4.048,-7.4439 5.732,-8.1417 0.939,-0.3885 2.41,-1.8875 3.938,-4.0139 1.341,-1.866 2.966,-3.9621 3.613,-4.6578 1.353,-1.458 1.185,-2.76 -0.608,-4.6881 -1.766,-1.8996 -3.801,-7.0603 -4.424,-11.2217 -0.613,-4.0994 -0.15,-9.7709 0.98,-11.7956 0.315,-0.5685 0.705,-2.5548 0.865,-4.4142 0.204,-2.3643 0.605,-3.8206 1.334,-4.843 0.573,-0.804 1.257,-2.6006 1.52,-3.9917 0.281,-1.482 1.029,-3.2241 1.807,-4.2057 2.404,-3.036 2.705,-4.3821 1.622,-7.2573 -0.521,-1.383 -1.211,-3.2652 -1.533,-4.182 -0.323,-0.9165 -0.936,-2.5777 -1.362,-3.6909 -0.729,-1.9018 -0.723,-2.1607 0.105,-4.2862 0.484,-1.245 0.915,-3.5481 0.957,-5.1198 0.09,-3.4248 0.15,-3.5319 4.231,-7.8137 3.45,-3.6199 4.625,-4.0747 6.533,-2.5294 0.594,0.4815 1.336,1.9606 1.715,3.4192 0.502,1.9353 1.095,2.9232 2.398,3.9972 0.952,0.7845 2.035,2.157 2.408,3.0497 l 0.678,1.623 2.002,-1.8365 c 3.983,-3.6558 5.447,-4.521 8.304,-4.9071 5.117,-0.6915 8.452,-1.5168 11.008,-2.7238 2.374,-1.1205 2.929,-1.1895 8.126,-1.005 4.725,0.168 5.828,0.36 7.215,1.248 0.9,0.5775 2.943,1.6788 4.539,2.4481 3.457,1.6667 5.677,4.0316 6.392,6.8093 0.288,1.116 0.749,2.7469 1.025,3.6229 0.532,1.6923 0.198,7.5537 -0.608,10.677 -0.609,2.3564 -3.027,5.0552 -5.518,6.1571 -1.1,0.486 -2.457,1.5255 -3.014,2.3089 -1.121,1.5741 -3.224,2.8388 -4.72,2.8388 -0.534,0 -2.978,0.6435 -5.431,1.4295 -2.453,0.786 -5.245,1.428 -6.204,1.428 -1.058,0 -2.74,0.5625 -4.275,1.4295 -2.888,1.6293 -5.802,1.8721 -8.573,0.714 -1.113,-0.465 -3.29,-0.714 -6.24,-0.714 -4.449,0 -4.535,0.015 -4.778,1.191 -0.135,0.6555 -0.371,1.78 -0.522,2.5003 -0.152,0.72 -0.821,2.0268 -1.488,2.9034 -1.113,1.464 -1.229,2.0678 -1.403,7.3818 -0.226,6.9197 0.383,9.9619 2.268,11.3038 0.707,0.5025 1.528,0.9135 1.827,0.9135 0.299,0 2.195,-0.7755 4.213,-1.7241 5.373,-2.5247 6.852,-2.9689 10.937,-3.2828 2.027,-0.156 4.543,-0.4935 5.591,-0.75 2.168,-0.531 4.455,0.045 14.918,3.7109 2.627,0.9225 4.462,3.3977 5.58,7.5287 1.339,4.9464 0.921,5.7433 -6.449,12.3045 -4.903,4.3654 -6.553,5.5633 -7.973,5.7898 -0.984,0.1575 -2.647,0.462 -3.695,0.6765 -2.808,0.5745 -16.213,0.297 -19.576,-0.405 -2.531,-0.5295 -3.097,-0.5085 -4.381,0.1545 -0.812,0.42 -1.694,0.762 -1.961,0.762 -0.267,0 -1.898,1.392 -3.624,3.0926 -1.727,1.7008 -4.069,3.7323 -5.205,4.5142 -2.281,1.5695 -5.778,5.9472 -7.359,9.2127 -0.561,1.1595 -1.342,3.6533 -1.736,5.5419 -0.395,1.8885 -1.061,3.9608 -1.484,4.6049 -1.614,2.4639 -1.627,6.8485 -0.01,5.6568 3.107,-2.2989 5.618,-3.6062 8.33,-4.3376 1.759,-0.474 3.924,-1.353 4.812,-1.9533 1.223,-0.8265 2.285,-1.0905 4.374,-1.0905 1.518,0 3.364,-0.2295 4.101,-0.51 2.365,-0.9 11.871,-1.455 14.328,-0.837 3.237,0.8145 5.765,3.5573 7.387,8.0144 0.715,1.9645 1.299,4.1941 1.297,4.9548 0,0.7605 -0.771,2.7576 -1.71,4.4377 -1.293,2.313 -2.434,3.5768 -4.697,5.2046 -1.644,1.182 -3.447,2.9647 -4.006,3.9606 -1.338,2.3817 -2.3,2.9484 -7.686,4.5324 -5.033,1.4805 -7.791,1.9602 -15.479,2.6955 -8.748,0.837 -9.798,0.7905 -11.615,-0.5055 l -1.615,-1.152 -0.937,1.287 c -0.516,0.708 -1.826,1.7367 -2.91,2.286 -1.085,0.549 -2.768,1.7128 -3.741,2.5858 -0.974,0.873 -2.795,2.1137 -4.048,2.757 -1.254,0.6435 -3.835,2.6868 -5.736,4.541 -1.901,1.8543 -3.649,3.3714 -3.884,3.3714 -0.235,0 -0.981,0.945 -1.659,2.1016 -0.678,1.1565 -2.008,2.5817 -2.957,3.1683 -0.998,0.6165 -2.028,1.7898 -2.441,2.7798 -0.883,2.1179 -2.804,4.6605 -6.327,8.3808 -3.204,3.3819 -4.259,5.0735 -5.912,9.4755 -0.678,1.8063 -1.852,4.3781 -2.607,5.715 -0.756,1.3365 -1.521,3.1809 -1.701,4.0977 -0.18,0.9165 -1.061,2.8779 -1.956,4.358 -1.371,2.2666 -1.628,3.1401 -1.628,5.536 0,1.5648 -0.291,3.6756 -0.645,4.6908 -0.468,1.338 -0.567,3.225 -0.357,6.867 0.27,4.6952 0.384,5.1434 1.775,6.9056 0.817,1.0365 2.156,3.2158 2.974,4.843 0.819,1.6274 1.906,3.1824 2.417,3.4557 0.795,0.4245 1.191,0.174 2.74,-1.7329 3.744,-4.6076 5.529,-6.3389 7.132,-6.9185 1.031,-0.3735 2.252,-1.4325 3.25,-2.8233 0.881,-1.224 2.25,-2.61 3.043,-3.079 0.794,-0.4695 1.695,-1.4595 2.002,-2.2004 0.777,-1.8766 2.992,-3.6123 5.092,-3.9913 2.171,-0.3915 3.091,-0.852 5.753,-2.8766 1.936,-1.4715 5.079,-2.6386 12.688,-4.71 2.404,-0.654 3.765,-0.7065 8.579,-0.324 8.072,0.639 10.797,1.5854 13.981,4.8536 3.662,3.7585 4.564,5.9554 4.526,11.0209 -0.01,2.2604 -0.382,5.5821 -0.81,7.3818 -0.429,1.7997 -0.901,4.0805 -1.05,5.0682 -0.15,0.9885 -0.873,2.4881 -1.609,3.3338 -0.736,0.846 -1.721,2.2878 -2.187,3.2046 -1.382,2.7141 -7.139,8.0416 -10.111,9.3564 -1.455,0.6435 -3.538,1.7838 -4.629,2.5344 -1.091,0.75 -3.229,1.7268 -4.752,2.1694 -1.522,0.4425 -3.705,1.4655 -4.851,2.2727 -1.63,1.149 -2.648,1.491 -4.69,1.5715 -1.434,0.06 -3.525,0.4305 -4.646,0.8295 -1.121,0.399 -3.904,0.849 -6.185,0.999 -3.461,0.228 -4.546,0.12 -6.566,-0.681 -1.33,-0.525 -3.372,-0.954 -4.536,-0.954 -1.915,0 -2.146,0.12 -2.431,1.3095 -0.465,1.9347 -1.849,4.5222 -2.953,5.5206 -0.86,0.7785 -0.953,1.344 -0.815,5.0006 0.215,5.6863 1.377,11.106 2.846,13.2678 0.668,0.9825 1.349,2.8008 1.513,4.041 0.266,2.0025 0.635,2.5636 3.29,5.0122 5.954,5.4885 6.926,6.261 8.239,6.5495 0.735,0.162 2.38,1.1565 3.656,2.2108 3.057,2.5263 3.603,2.7893 6.876,3.3165 1.528,0.246 3.927,0.9615 5.332,1.5903 4.553,2.0376 4.685,2.0361 4.385,-0.045 -0.372,-2.5897 -1.955,-7.6453 -3.171,-10.125 -1.314,-2.6808 -1.293,-5.6125 0.06,-7.5034 0.554,-0.777 1.442,-2.5715 1.974,-3.9885 0.532,-1.4175 1.678,-3.5724 2.547,-4.7898 1.854,-2.5994 3.022,-5.2044 3.413,-7.6136 0.155,-0.951 0.866,-2.4888 1.58,-3.4155 3.712,-4.8165 4.77,-6.0072 6.265,-7.05 0.899,-0.627 2.827,-2.3539 4.286,-3.8388 1.46,-1.485 3.342,-3.0402 4.184,-3.456 1.164,-0.5745 1.659,-1.2405 2.068,-2.7769 0.707,-2.6559 2.456,-4.9058 4.707,-6.0543 1.139,-0.5805 1.934,-1.3785 2.123,-2.13 0.478,-1.9088 3.003,-4.419 5.34,-5.3117 1.516,-0.579 2.566,-1.4265 3.562,-2.8741 1.698,-2.4668 3.652,-4.0176 7.126,-5.6532 1.427,-0.672 4.146,-2.3748 6.042,-3.7841 1.896,-1.41 3.692,-2.6439 3.992,-2.7438 0.816,-0.2715 -0.669,-2.8639 -2.54,-4.4367 -2.625,-2.2057 -2.972,-3.0247 -3.283,-7.7637 -0.233,-3.5416 -0.498,-4.6986 -1.314,-5.715 -2.336,-2.9137 -2.57,-3.4602 -2.54,-5.9296 0.01,-1.368 0.471,-3.8816 1.009,-5.5841 0.539,-1.7026 0.981,-4.1205 0.986,-5.3731 0,-2.7449 0.919,-5.0981 2.453,-6.3341 1.893,-1.5247 4.532,-5.6049 4.903,-7.5781 0.247,-1.3215 0.925,-2.3871 2.333,-3.6747 1.092,-0.9975 2.681,-2.5007 3.532,-3.3399 1.856,-1.8311 3.354,-2.7117 4.653,-2.7345 0.528,-0.01 1.707,-0.5205 2.619,-1.137 0.912,-0.6165 2.462,-1.383 3.445,-1.704 0.982,-0.321 2.835,-1.305 4.117,-2.1875 1.282,-0.882 3.049,-1.794 3.928,-2.0272 1.551,-0.411 1.594,-0.489 1.458,-2.6163 -0.174,-2.7315 1.041,-7.5411 2.561,-10.1337 0.634,-1.0815 1.15,-2.7263 1.15,-3.6605 0,-0.948 0.606,-2.8467 1.373,-4.3047 0.754,-1.4355 1.618,-3.3544 1.919,-4.2654 0.919,-2.7871 3.617,-5.4343 7.704,-7.5604 2.086,-1.086 4.231,-2.5311 4.768,-3.2132 0.537,-0.6825 2.085,-2.0296 3.44,-2.9946 2.713,-1.9303 10.623,-6.6003 11.181,-6.6003 0.193,0 1.366,-0.8385 2.606,-1.8634 1.465,-1.2105 2.963,-1.9814 4.277,-2.2002 1.113,-0.1845 2.818,-0.7395 3.79,-1.2315 1.03,-0.522 2.762,-0.8955 4.154,-0.8955 2.08,0 3.962,-0.5835 7.652,-2.3748 0.393,-0.1905 0.777,-0.753 0.852,-1.248 0.363,-2.3751 0.691,-3.1422 1.975,-4.6037 0.762,-0.867 1.959,-3.0126 2.661,-4.7677 0.702,-1.755 1.899,-3.9723 2.658,-4.9271 0.759,-0.954 1.38,-2.0931 1.38,-2.5296 0,-0.4365 0.643,-1.8087 1.431,-3.049 0.786,-1.2405 1.733,-2.9802 2.103,-3.8661 0.409,-0.9795 1.407,-2.0334 2.546,-2.6892 1.13,-0.651 2.299,-1.8791 2.945,-3.0965 0.699,-1.317 2.005,-2.6358 3.762,-3.7974 1.48,-0.978 4.441,-3.141 6.578,-4.8054 4.795,-3.7331 6.443,-4.4416 10.327,-4.4416 1.734,0 3.849,-0.333 4.895,-0.7695 1.414,-0.591 2.641,-0.6975 5.292,-0.4575 4.789,0.4335 5.16,0.1575 5.507,-4.1106 0.156,-1.9105 0.66,-4.7595 1.12,-6.3312 0.527,-1.7949 0.858,-4.6284 0.893,-7.62 0.05,-3.9055 0.243,-5.1265 1.102,-6.7857 0.635,-1.2255 0.941,-2.4532 0.774,-3.1143 -0.15,-0.6 -0.03,-1.7254 0.273,-2.5011 0.708,-1.8255 1.868,-9.3516 1.879,-12.1849 0,-1.212 0.326,-3.102 0.714,-4.2015 0.495,-1.4025 0.626,-3.0192 0.44,-5.4177 -0.194,-2.487 0,-4.6965 0.723,-8.1092 0.543,-2.5798 0.87,-4.8837 0.723,-5.1196 -0.474,-0.7665 -6.3,-0.4605 -9.137,0.48 -3.745,1.242 -11.522,2.0655 -17.98,1.9041 -2.734,-0.075 -3.966,-0.01 -6.788,0.3195 -2,0.234 -2.822,0.105 -4.096,-0.6465 -1.317,-0.777 -2.176,-0.8985 -4.952,-0.7005 -1.848,0.135 -4.576,0.09 -6.063,-0.09 -2.342,-0.2925 -3.043,-0.645 -5.239,-2.6331 -1.393,-1.263 -2.93,-2.4057 -3.414,-2.5404 -0.485,-0.135 -2.595,-0.714 -4.691,-1.287 -11.148,-3.0504 -11.638,-3.2541 -13.217,-5.4933 -0.958,-1.3605 -2.812,-2.9123 -5.319,-4.454 -4.81,-2.9577 -6.826,-5.0551 -11.486,-11.9502 -3.784,-5.5989 -4.982,-8.3437 -4.982,-11.4124 0,-1.092 -0.506,-2.5332 -1.364,-3.8855 -1.791,-2.8251 -2.421,-4.8373 -2.918,-9.3277 -0.226,-2.0412 -0.654,-5.5329 -0.952,-7.7594 -0.42,-3.1443 -0.393,-6.4408 0.12,-14.7637 0.388,-6.2724 0.501,-11.4503 0.268,-12.4874 -0.433,-1.9434 0.257,-4.5709 2.261,-8.6071 0.966,-1.946 1.089,-2.7086 0.831,-5.1725 l -0.302,-2.89 -1.712,0.2805 c -0.942,0.1545 -2.677,0.4905 -3.856,0.747 -1.179,0.2565 -3.798,0.4755 -5.821,0.486 -3.779,0.015 -4.244,0.1635 -11.086,3.3927 -1.572,0.741 -3.5,1.497 -4.286,1.6773 -0.786,0.1815 -2.304,1.1265 -3.374,2.101 -1.069,0.975 -2.677,2.0141 -3.572,2.3094 -1.188,0.3915 -1.931,1.11 -2.754,2.663 -0.62,1.1685 -2.12,3.0775 -3.334,4.2409 -1.213,1.164 -3.063,3.3321 -4.111,4.8195 -1.047,1.488 -2.709,3.6647 -3.691,4.8389 -0.983,1.1745 -1.786,2.3905 -1.786,2.7033 0,0.312 -1.172,2.1267 -2.605,4.0308 -4.18,5.5567 -5.326,7.3896 -5.642,9.0237 -0.372,1.9194 -2.428,5.0769 -3.962,6.0819 -0.638,0.4185 -1.615,1.6963 -2.171,2.8408 l -1.011,2.081 1.53,2.3835 c 1.263,1.9675 1.603,3.1024 1.954,6.5022 0.386,3.7375 0.576,4.2855 2.056,5.9235 0.897,0.993 1.725,2.0887 1.841,2.4357 0.168,0.504 0.637,0.525 2.324,0.105 6.15,-1.5152 8.367,-1.6746 11.965,-0.861 4.402,0.996 5.046,1.431 7.551,5.1001 4.648,6.8105 4.295,12.5024 -0.966,15.5375 -1.182,0.681 -3.22,1.9716 -4.53,2.8665 -2.358,1.6114 -2.42,1.6245 -6.462,1.3695 -3.67,-0.231 -5.64,-0.5085 -12.16,-1.7106 -1.074,-0.198 -2.366,-0.207 -2.871,-0.015 -0.504,0.1875 -2.852,0.672 -5.218,1.0785 -2.504,0.4305 -5.937,1.458 -8.22,2.4621 -2.404,1.0575 -4.28,1.6089 -4.853,1.4265 -1.438,-0.456 -1.67,-2.3465 -0.508,-4.1525 0.55,-0.8565 1.377,-2.1774 1.835,-2.9353 0.459,-0.7575 1.959,-2.6604 3.334,-4.2273 1.376,-1.5669 2.5,-2.9946 2.5,-3.1727 0,-0.1785 -0.54,-1.056 -1.201,-1.9515 -0.66,-0.8955 -1.427,-2.4658 -1.703,-3.4902 -0.276,-1.0245 -1.048,-2.6887 -1.716,-3.6987 -1.001,-1.5126 -1.245,-2.5284 -1.388,-5.761 -0.09,-2.1587 -0.63,-5.4674 -1.189,-7.3529 -1.242,-4.1821 -0.99,-5.9928 1.182,-8.5378 0.876,-1.0245 2.29,-3.1029 3.143,-4.6178 1.488,-2.641 1.538,-2.8987 1.222,-6.2601 -0.307,-3.2745 -0.199,-3.8959 1.623,-9.4258 1.563,-4.7421 2.279,-6.2375 3.597,-7.5146 1.083,-1.05 2,-2.6623 2.686,-4.723 1.111,-3.3422 0.529,-2.6367 13.709,-16.5929 3.054,-3.2338 6.188,-6.0988 7.144,-6.531 0.937,-0.423 2.174,-1.491 2.75,-2.373 0.756,-1.1565 1.817,-1.891 3.809,-2.6362 1.913,-0.7155 3.654,-1.8911 5.67,-3.8268 1.6,-1.5368 3.53,-2.9366 4.288,-3.1107 0.757,-0.174 2.664,-0.921 4.236,-1.6614 1.571,-0.7395 4.25,-1.5909 5.953,-1.892 1.703,-0.3015 4.917,-0.9525 7.144,-1.4475 3.1,-0.69 4.55,-0.7965 6.191,-0.4575 1.179,0.243 3.254,0.4515 4.612,0.4635 2.848,0.03 4.717,0.63 6.187,2.0073 1.278,1.1985 2.06,0.789 2.06,-1.077 0,-2.0322 1.23,-4.6984 3.055,-6.624 0.87,-0.9165 1.81,-2.3562 2.09,-3.1987 0.687,-2.0685 4.136,-7.9178 5.778,-9.801 0.732,-0.8385 1.496,-2.0618 1.696,-2.7165 0.201,-0.6555 1.168,-2.798 2.149,-4.7625 0.981,-1.9646 1.942,-4.5363 2.137,-5.715 0.441,-2.6723 1.665,-5.118 3.336,-6.6675 0.707,-0.6555 1.793,-2.1899 2.415,-3.411 1.036,-2.0364 3.29,-4.209 4.365,-4.209 0.243,0 1.343,-0.831 2.443,-1.8465 1.099,-1.0155 3.654,-2.8221 5.675,-4.0148 4.155,-2.4519 8.393,-3.4581 12.882,-3.0591 2.286,0.2025 3.21,0.015 6.033,-1.2165 2.584,-1.128 4.244,-1.5063 7.381,-1.6788 3.356,-0.1845 4.309,-0.423 5.58,-1.392 1.024,-0.7815 2.525,-1.2975 4.525,-1.5564 1.646,-0.213 3.79,-0.729 4.763,-1.146 0.974,-0.417 2.612,-0.759 3.639,-0.759 1.028,0 2.803,-0.4245 3.945,-0.942 1.141,-0.519 2.943,-0.9465 4.004,-0.9525 1.06,-0.01 4.457,-0.546 7.55,-1.2015 3.092,-0.6555 6.086,-1.191 6.652,-1.191 0.565,0 1.862,-0.447 2.88,-0.9915 1.205,-0.645 2.575,-0.957 3.922,-0.8925 4.407,0.2115 6.235,0.15 9.453,-0.345 4.903,-0.7455 9.669,-2.0182 12.489,-3.3351 2.464,-1.1505 5.263,-1.5028 7.161,-0.9 0.544,0.1725 3.183,-0.261 5.906,-0.972 2.79,-0.7275 6.472,-1.3275 8.496,-1.3845 1.964,-0.06 4.429,-0.4275 5.477,-0.828 1.221,-0.465 6.097,-1.0185 13.573,-1.5405 9.27,-0.6465 12.155,-1.0125 14.04,-1.7779 2.031,-0.825 2.887,-0.9105 5.953,-0.585 6.784,0.7185 11.055,0.6285 13.106,-0.2775 3.389,-1.4955 5.886,-1.9304 10.368,-1.8083 3.433,0.09 4.865,-0.075 6.539,-0.7785 1.853,-0.777 3.24,-0.885 10.239,-0.8025 4.453,0.045 9.704,-0.159 11.668,-0.4695 4.238,-0.669 8.116,-0.864 20.241,-1.0155 6.475,-0.075 9.367,-0.294 10.166,-0.747 0.768,-0.435 1.959,-0.5415 3.81,-0.336 3.625,0.4005 5.952,0.4035 9.376,0.013 2.153,-0.246 3.331,-0.135 4.701,0.4365 2.309,0.9645 3.873,0.9615 7.378,-0.013 2.619,-0.7275 2.961,-0.723 5.486,0.075 2.144,0.675 3.054,0.7455 4.462,0.348 2.277,-0.642 22.842,-0.441 26.075,0.255 1.319,0.2835 4.212,0.516 6.429,0.5145 2.218,0 5.177,0.309 6.577,0.687 2.048,0.555 3.72,0.603 8.572,0.243 5.554,-0.4125 6.317,-0.366 9.704,0.597 2.748,0.78 4.312,0.966 6.192,0.7365 7.787,-0.951 8.664,-0.933 10.875,0.2235 1.594,0.834 2.731,1.0725 4.599,0.9675 1.365,-0.075 3.195,0.09 4.064,0.3825 0.87,0.2865 3.611,0.6195 6.09,0.738 2.48,0.12 7.081,0.3405 10.224,0.492 4.274,0.2055 6.203,0.5115 7.651,1.2105 1.065,0.5145 2.673,0.9405 3.572,0.9495 0.9,0.01 2.814,0.4425 4.255,0.963 2.127,0.7695 4.111,0.9765 10.556,1.1055 7.003,0.135 8.167,0.279 9.897,1.1805 1.392,0.726 2.82,1.0215 4.929,1.0215 2.076,0 3.513,0.291 4.777,0.969 1.302,0.6975 2.26,0.8835 3.428,0.6645 0.963,-0.18 2.643,0 4.139,0.435 1.384,0.4065 3.639,0.8265 5.009,0.9315 1.716,0.135 3.078,0.5985 4.377,1.4985 1.037,0.7185 2.125,1.1595 2.418,0.978 0.292,-0.18 2.369,-0.075 4.614,0.2505 4.042,0.573 9.464,2.5959 11.27,4.2033 0.664,0.591 2.19,0.8445 6.191,1.026 5.191,0.237 5.408,0.2925 9.731,2.5002 3.069,1.5676 4.998,2.2584 6.305,2.2584 1.037,0 3.011,0.429 4.389,0.9525 1.379,0.5235 3.532,0.9525 4.787,0.9525 1.384,10e-5 3.06,0.3975 4.263,1.011 1.091,0.5565 3.151,1.413 4.579,1.9047 1.428,0.492 3.261,1.398 4.071,2.0139 0.81,0.6165 2.201,1.494 3.09,1.9524 0.888,0.4575 2.281,1.516 3.095,2.352 1.007,1.0335 2.549,1.8445 4.814,2.5329 5.192,1.5772 7.148,2.0442 8.563,2.0442 3.198,0 8.543,5.0581 9.583,9.0694 0.357,1.374 1.326,3.2177 2.273,4.3247 1.008,1.1775 1.88,2.8809 2.237,4.3678 0.44,1.8338 1.052,2.8562 2.467,4.1252 1.035,0.9285 2.204,2.3302 2.599,3.1159 0.394,0.786 1.447,2.5068 2.34,3.8244 0.893,1.317 2.065,3.9561 2.605,5.8632 0.54,1.9071 1.715,5.2881 2.612,7.5132 0.897,2.2253 1.631,4.3638 1.631,4.7525 0,0.3885 0.417,1.5243 0.927,2.5236 0.51,0.999 1.08,2.9731 1.266,4.3863 0.196,1.494 0.855,3.3519 1.573,4.4392 1.118,1.6932 1.241,2.345 1.302,6.9056 0.06,4.6539 0.18,5.2471 1.548,7.8226 0.814,1.5327 1.48,3.1703 1.48,3.6389 0,0.468 0.425,1.7865 0.942,2.9283 0.774,1.7056 0.945,3.1381 0.957,8.0292 0.01,3.9411 0.261,6.7579 0.743,8.3343 0.447,1.464 0.697,3.9411 0.651,6.4294 -0.05,2.2265 0.16,5.1816 0.448,6.5672 0.434,2.0728 0.393,2.8741 -0.228,4.5243 -0.415,1.1025 -0.922,3.2913 -1.126,4.8628 -0.204,1.5717 -0.582,3.3933 -0.839,4.0482 -0.256,0.654 -0.297,1.6193 -0.09,2.1431 1.328,3.3384 -1.083,10.4938 -5.202,15.4437 -1.346,1.6177 -2.448,3.1575 -2.448,3.4215 0,0.264 -1.044,1.5922 -2.32,2.9518 -1.276,1.359 -2.675,3.1692 -3.109,4.0217 -0.835,1.6407 -3.538,3.6753 -5.525,4.1587 -0.656,0.159 -1.686,1.047 -2.291,1.9712 -1.375,2.1024 -6.466,4.5906 -11.444,5.5942 -1.922,0.387 -3.913,1.083 -4.425,1.5459 -0.907,0.822 -0.882,0.855 1.115,1.4145 1.123,0.315 4.508,1.455 7.52,2.5331 3.013,1.077 6.629,2.2827 8.036,2.6778 2.719,0.7635 4.345,1.7439 6.216,3.7491 0.691,0.741 1.67,1.2375 2.44,1.2375 3.022,0 5.367,1.3995 9.488,5.661 2.324,2.4028 5.123,4.7673 6.542,5.5252 1.404,0.75 2.974,2.0718 3.619,3.0467 1.386,2.0929 8.119,9.025 10.094,10.392 0.786,0.543 2.5,2.5572 3.81,4.4745 2.144,3.1389 2.391,3.7719 2.484,6.3622 0.06,1.5821 0.237,4.1624 0.399,5.7339 0.26,2.5053 0.156,3.063 -0.835,4.5245 -0.623,0.9165 -1.809,2.0955 -2.637,2.6193 -1.867,1.1805 -1.896,1.2555 -2.975,7.4505 -0.708,4.0703 -1.171,5.4688 -2.35,7.0961 -0.836,1.1535 -1.469,2.6213 -1.469,3.4061 0,0.759 -0.535,2.3854 -1.191,3.6156 -0.655,1.23 -1.191,2.667 -1.192,3.1929 0,1.0665 -1.484,3.7249 -2.985,5.3575 -0.599,0.6495 -1.122,2.1035 -1.341,3.7173 -0.464,3.4163 -1.424,4.8234 -4.06,5.9535 -1.516,0.6495 -2.273,1.314 -2.614,2.2925 -0.264,0.7575 -1.293,2.0305 -2.287,2.8287 -1.399,1.1235 -1.982,2.077 -2.59,4.2259 -0.432,1.5261 -1.215,3.4763 -1.739,4.334 -0.674,1.0995 -0.956,2.3919 -0.956,4.3836 0,3.2112 -1.713,8.5245 -3.29,10.2027 -0.733,0.78 -0.996,1.6815 -0.996,3.4113 0,1.6506 -0.567,3.7339 -1.905,6.9961 -1.047,2.555 -1.905,4.9445 -1.905,5.3099 0,0.366 -0.765,1.8015 -1.7,3.1911 -1.284,1.9071 -1.882,3.5056 -2.441,6.5188 -0.589,3.1782 -1.084,4.4432 -2.429,6.204 -1.413,1.8516 -1.784,2.8598 -2.276,6.1907 -0.439,2.9733 -0.973,4.5996 -2.114,6.4348 -1.02,1.6404 -1.668,3.4512 -1.951,5.4521 -0.497,3.511 -1.488,6.0865 -2.934,7.6257 -0.761,0.8085 -1.056,1.7637 -1.113,3.58 -0.09,3.0947 -1.139,5.6396 -3.285,8.0159 -0.915,1.014 -1.665,2.2906 -1.665,2.8386 0,0.5475 -0.406,2.4225 -0.901,4.1658 -0.497,1.7433 -1.139,4.0504 -1.428,5.1271 -0.29,1.077 -1.143,2.7338 -1.897,3.6827 -0.754,0.9495 -1.624,2.7294 -1.933,3.957 -0.309,1.227 -1.074,3.1066 -1.701,4.1755 -0.627,1.0695 -1.282,2.9079 -1.458,4.0866 -0.175,1.179 -0.835,3.0506 -1.468,4.1597 -1.251,2.1927 -3.234,7.9041 -3.705,10.6683 -0.162,0.9525 -0.928,2.6665 -1.703,3.81 -0.776,1.143 -1.413,2.4607 -1.418,2.9277 -0.02,1.4505 -1.245,3.846 -2.802,5.4571 -0.821,0.849 -1.493,1.9236 -1.493,2.3883 0,0.465 -0.409,1.6095 -0.91,2.544 -0.54,1.0065 -0.897,2.5854 -0.878,3.8751 0.01,1.458 -0.325,2.7812 -1.053,4.0088 -0.597,1.008 -1.38,2.8204 -1.74,4.0276 -0.36,1.2075 -1.299,3.0045 -2.085,3.9945 -1.116,1.404 -1.431,2.2758 -1.431,3.9653 0,1.191 -0.405,3.0367 -0.9,4.1017 -3.436,7.3934 -4.815,10.7369 -4.815,11.6711 0,1.7281 -1.389,4.1712 -3.124,5.4943 -1.044,0.7965 -1.757,1.85 -2.032,3.0003 -0.232,0.975 -0.799,3.3219 -1.261,5.2151 -0.549,2.2513 -0.731,4.165 -0.525,5.5321 0.207,1.386 0.08,2.7942 -0.414,4.1781 -0.401,1.1475 -0.734,3.1593 -0.743,4.469 -0.01,1.6746 -0.361,2.9467 -1.183,4.2862 -0.644,1.0485 -1.58,2.7623 -2.081,3.81 -0.501,1.047 -1.593,2.5481 -2.425,3.3338 -1.364,1.287 -1.839,1.434 -4.781,1.4775 -3.256,0.045 -3.272,0.06 -5.565,2.3812 -3.411,3.4601 -7.057,4.7387 -13.037,4.5722 -4.053,-0.12 -4.877,0.011 -7.16,1.074 -1.419,0.66 -3.175,1.203 -3.9,1.206 -0.726,0 -2.17,0.567 -3.209,1.254 -2.162,1.431 -7.01,2.2186 -14.045,2.2828 -3.141,0.03 -4.698,0.264 -5.825,0.8805 -1.323,0.723 -2.529,0.816 -8.573,0.6645 -5.737,-0.15 -7.78,0 -11.082,0.7545 -2.539,0.5835 -4.81,0.8265 -6.092,0.651 -2.075,-0.2835 -10.458,0.309 -16.53,1.167 -3.682,0.5205 -9.833,1.1145 -18.659,1.8026 -3.191,0.249 -6.011,0.5805 -6.266,0.7395 -0.255,0.1575 -5.385,0.045 -11.4,-0.2565 -9.682,-0.48 -11.19,-0.456 -13.156,0.2145 -2.717,0.9255 -8.949,0.6405 -13.647,-0.624 -2.552,-0.687 -3.594,-0.75 -5.715,-0.3435 -4.525,0.867 -14.302,1.365 -26.407,1.344 -4.715,-0.01 -11.68,0.015 -15.478,0.06 -10.453,0.12 -10.481,0.12 -14.026,-0.519 -2.569,-0.462 -3.832,-0.4695 -5.637,-0.03 -1.379,0.33 -3.621,0.4365 -5.5,0.2595 -2.119,-0.1995 -3.886,-0.09 -5.317,0.3495 -1.902,0.576 -2.545,0.5475 -5.715,-0.2505 z m -332.661,-36.5882 c 4.749,-0.4275 9.107,-1.3095 10.802,-2.1864 0.712,-0.369 1.916,-0.6705 2.674,-0.6705 1.412,0 6.158,-2.7786 9.019,-5.2788 0.848,-0.741 2.455,-1.6177 3.572,-1.9503 1.424,-0.423 3.059,-1.6056 5.463,-3.9504 1.888,-1.8403 3.889,-3.7747 4.448,-4.2987 0.559,-0.5235 1.485,-1.7025 2.059,-2.6193 0.623,-0.9945 2.094,-2.2287 3.649,-3.0598 1.434,-0.7665 2.678,-1.5735 2.767,-1.7942 0.09,-0.2205 0.855,-1.416 1.701,-2.6551 0.848,-1.2405 2.144,-3.3729 2.884,-4.7406 0.792,-1.464 2.473,-3.4221 4.092,-4.7625 1.881,-1.5572 3.008,-2.9361 3.569,-4.3665 0.451,-1.1505 1.862,-3.2417 3.136,-4.6485 1.273,-1.407 2.316,-2.8472 2.316,-3.2007 0,-0.354 0.563,-1.4715 1.25,-2.4852 0.687,-1.0125 1.548,-2.6879 1.913,-3.7215 0.364,-1.0335 1.311,-2.7527 2.103,-3.8201 3.14,-4.23 4.223,-6.3556 4.905,-9.6256 0.388,-1.8624 1.339,-4.5384 2.115,-5.9469 0.776,-1.4085 1.656,-3.5912 1.957,-4.8506 0.301,-1.26 0.97,-3.0777 1.486,-4.041 0.516,-0.963 0.939,-2.3526 0.939,-3.0871 0,-0.735 0.398,-2.1309 0.885,-3.1028 0.581,-1.1595 0.809,-2.3832 0.662,-3.5592 -0.159,-1.2765 0.12,-2.5089 0.966,-4.2862 1.512,-3.1715 1.858,-4.6173 2.024,-8.4483 0.09,-2.1183 0.542,-3.9993 1.422,-5.9531 0.81,-1.7946 1.268,-3.6037 1.233,-4.8666 -0.03,-1.1055 0.405,-3.1416 0.968,-4.5244 0.691,-1.7025 1.141,-4.2053 1.392,-7.7529 0.67,-9.513 1.278,-13.818 2.283,-16.2105 0.749,-1.7792 0.902,-2.7752 0.618,-4.0301 -0.441,-1.9605 0.15,-4.524 1.412,-6.129 0.565,-0.7185 0.9,-1.9047 0.9,-3.1911 0,-1.1265 0.243,-2.6512 0.54,-3.3886 0.297,-0.738 0.501,-2.891 0.456,-4.7858 -0.05,-1.8948 0.135,-3.8542 0.402,-4.3543 0.688,-1.287 2.782,-9.5318 2.493,-9.8204 -0.62,-0.621 -2.166,-0.09 -4.126,1.3995 -1.182,0.9015 -3.701,2.1224 -5.6,2.7123 -1.898,0.5895 -3.987,1.5431 -4.642,2.118 -0.656,0.5745 -2.102,1.5018 -3.215,2.0598 -1.113,0.558 -2.024,1.2315 -2.024,1.497 0,0.2655 -1.413,1.815 -3.14,3.4431 -3.475,3.2759 -5.079,6.0653 -6.881,11.9723 -0.978,3.2046 -1.046,3.8061 -0.447,3.9901 0.387,0.12 1.669,1.224 2.848,2.4545 1.179,1.23 2.722,2.614 3.429,3.0741 0.708,0.4605 1.749,1.7923 2.315,2.9608 0.91,1.8794 0.964,2.3558 0.468,4.1277 -0.309,1.101 -0.788,2.9676 -1.065,4.1463 -0.578,2.4558 -1.891,4.5144 -3.395,5.3214 -1.469,0.7875 -9.099,1.3455 -11.048,0.807 -0.891,-0.246 -2.271,-1.0995 -3.068,-1.8961 -1.445,-1.4445 -1.457,-1.4475 -4.574,-0.963 -2.39,0.372 -3.338,0.7575 -4.034,1.6437 -1.232,1.5658 -3.78,2.7067 -6.045,2.7067 -2.057,0 -2.97,0.753 -4.905,4.0481 -0.615,1.0485 -2.258,3.1495 -3.649,4.6707 -2.284,2.497 -2.53,2.977 -2.53,4.9453 0,1.1985 -0.249,3.0101 -0.552,4.0248 -0.525,1.751 -0.465,1.9722 1.165,4.3415 0.945,1.3725 1.998,3.1554 2.339,3.9606 0.342,0.8055 1.506,2.4661 2.586,3.6909 1.667,1.8889 2.23,2.2269 3.71,2.2269 2.721,0 5.288,1.5777 6.78,4.1664 0.717,1.245 1.775,2.9059 2.35,3.6916 2.254,3.0797 1.839,5.9324 -1.445,9.9399 -1.598,1.9503 -4.848,4.0706 -7.407,4.8326 -0.654,0.195 -1.786,0.774 -2.513,1.287 -0.728,0.513 -2.086,1.143 -3.017,1.3995 -0.96,0.2655 -2.553,1.3635 -3.677,2.5348 -1.425,1.4835 -2.522,2.1651 -3.889,2.4138 -1.224,0.222 -2.625,1.0035 -3.919,2.1854 -1.107,1.011 -2.231,1.8391 -2.498,1.8391 -0.267,0 -1.968,1.3605 -3.78,3.0243 -1.813,1.6632 -4.261,3.4779 -5.441,4.0323 -1.665,0.783 -2.446,1.5656 -3.493,3.5009 -0.924,1.7085 -1.994,2.8747 -3.402,3.7066 -1.202,0.711 -2.489,2.0045 -3.103,3.119 -0.675,1.2255 -2.183,2.67 -4.226,4.0482 -3.145,2.1207 -5.575,4.6935 -7.143,7.5624 -0.446,0.8145 -1.79,2.0718 -2.989,2.7934 -1.735,1.0455 -2.281,1.6997 -2.682,3.2172 -0.277,1.047 -1.021,2.8005 -1.655,3.8949 -0.633,1.095 -1.152,2.6876 -1.152,3.5405 0,0.8535 -0.468,2.5191 -1.041,3.7026 l -1.041,2.1517 1.661,3.1184 c 1.642,3.0834 4.671,5.863 8.963,8.2239 0.819,0.45 1.858,1.4685 2.309,2.2629 0.55,0.969 1.053,1.3425 1.533,1.137 0.393,-0.168 2.429,-0.4605 4.525,-0.6495 z m 73.836,-28.6182 c 1.319,-0.468 3.875,-1.7131 5.678,-2.7672 2.79,-1.63 3.463,-2.2915 4.508,-4.425 0.921,-1.8816 1.763,-2.815 3.37,-3.7359 1.179,-0.675 2.44,-1.8579 2.802,-2.6284 0.961,-2.0453 2.001,-3.1157 3.742,-3.8525 1.025,-0.4335 1.788,-1.239 2.271,-2.3944 0.401,-0.9585 1.668,-2.747 2.818,-3.9761 1.149,-1.2285 2.564,-3.1758 3.142,-4.3263 0.579,-1.1505 1.759,-2.8417 2.623,-3.7585 0.864,-0.9165 2.369,-2.5206 3.343,-3.564 0.973,-1.044 1.993,-2.5436 2.265,-3.3338 0.271,-0.7905 1.189,-2.452 2.039,-3.693 0.849,-1.2405 2.015,-3.7056 2.591,-5.4769 0.576,-1.7712 1.55,-4.1006 2.164,-5.1761 0.614,-1.0755 1.557,-3.0741 2.096,-4.4412 0.539,-1.3665 1.512,-3.2692 2.163,-4.2271 0.651,-0.9585 1.184,-2.1048 1.184,-2.549 0,-0.444 0.718,-2.1865 1.598,-3.8722 0.879,-1.6857 1.709,-4.0574 1.846,-5.2704 0.162,-1.443 0.721,-2.7984 1.617,-3.9225 2.557,-3.2091 3.03,-4.2092 3.033,-6.4139 0,-3.534 2.021,-7.9389 4.894,-10.6869 1.37,-1.3095 3.404,-3.6831 4.522,-5.2743 1.177,-1.6768 2.829,-3.3415 3.929,-3.9595 2.1,-1.1805 2.193,-1.5683 1.944,-8.1492 -0.105,-2.6102 0.09,-3.4691 1.188,-5.477 1.408,-2.5719 1.405,-2.5302 1.012,-13.573 -0.15,-4.2111 -0.03,-5.8622 0.534,-7.1438 0.503,-1.1475 0.749,-3.3949 0.791,-7.2214 0.06,-5.0321 0.181,-5.7864 1.341,-8.0201 1.192,-2.2992 1.258,-2.7372 0.97,-6.4869 -0.169,-2.2117 -0.495,-4.1362 -0.723,-4.2766 -0.228,-0.135 -1.213,0.3735 -2.19,1.1415 -0.978,0.768 -2.468,1.7497 -3.312,2.1813 -1.724,0.882 -2.291,1.7551 -3.261,5.0203 -0.763,2.5713 -1.607,3.4898 -4.201,4.5738 -2.296,0.9585 -4.249,0.5835 -6.6,-1.266 -2.504,-1.9714 -6.484,-3.7329 -8.455,-3.7419 -0.916,0 -2.28,-0.327 -3.031,-0.7185 -0.75,-0.3915 -1.452,-0.711 -1.559,-0.711 -0.512,0 -1.292,2.9688 -1.625,6.1913 -0.81,7.8136 -1.41,11.1225 -2.289,12.6114 -1.491,2.5278 -2.477,6.5778 -2.163,8.8864 0.163,1.2 -0.05,3.6269 -0.479,5.7474 -0.418,2.019 -0.76,4.8345 -0.76,6.2568 0,1.9137 -0.396,3.4334 -1.525,5.8458 -1.41,3.0117 -1.53,3.6591 -1.582,8.507 -0.08,6.3918 -0.816,10.6719 -2.412,13.7982 -1.435,2.812 -2.704,9.5358 -2.289,12.1305 0.204,1.2765 -0.01,2.7886 -0.708,4.872 -0.552,1.6617 -1.771,6.1288 -2.709,9.927 -1.041,4.2156 -2.247,7.8558 -3.098,9.3448 -0.766,1.341 -1.393,3.0164 -1.393,3.7217 0,0.705 -0.419,2.2866 -0.93,3.5139 -0.512,1.227 -1.176,3.1924 -1.478,4.3672 -0.301,1.1745 -1.192,2.9507 -1.982,3.9467 -1.042,1.317 -1.525,2.5533 -1.767,4.5318 -0.183,1.497 -0.714,3.4447 -1.181,4.3296 -0.466,0.885 -1.143,2.5993 -1.506,3.81 -0.456,1.5225 -1.609,3.2289 -3.742,5.5348 -2.549,2.756 -3.137,3.7053 -3.397,5.477 -0.401,2.7291 -0.953,3.5775 -5.051,7.7628 -3.205,3.2713 -4.685,5.5695 -4.685,7.2747 0,0.564 0.231,0.6795 0.834,0.4185 0.459,-0.1995 1.913,-0.7455 3.232,-1.2135 z m 514.707,-36.105 c 0.45,-0.7605 0.817,-1.7788 0.816,-2.2623 0,-0.483 0.957,-2.9149 2.128,-5.4033 1.17,-2.4885 2.363,-5.4546 2.65,-6.5916 0.312,-1.2345 1.267,-2.8771 2.374,-4.077 1.018,-1.1055 2.048,-2.5324 2.287,-3.1714 0.487,-1.3005 0.169,-6.6387 -0.395,-6.6387 -0.609,0 -4.273,6.2103 -4.279,7.2535 0,0.639 -3.315,5.5358 -4.172,6.1701 -1.475,1.0905 -2.007,3.0176 -1.716,6.2076 0.183,2.0156 0.03,3.9446 -0.493,5.9169 -0.422,1.6094 -0.765,3.1632 -0.765,3.4527 0,0.9525 0.733,0.5505 1.564,-0.8565 z m -637.358,-4.8081 c 1.329,-0.5235 3.166,-0.9525 4.081,-0.9525 2.167,0 5.993,-1.9593 7.946,-4.0696 0.867,-0.936 2.571,-2.0334 3.878,-2.4966 2.107,-0.7455 2.489,-1.1205 3.948,-3.8736 0.912,-1.719 1.436,-3.2276 1.203,-3.4604 -0.232,-0.2325 -2.521,0.423 -5.25,1.505 -2.661,1.0545 -5.177,1.9177 -5.591,1.9177 -1.14,0 -2.109,0.639 -4.97,3.2771 -1.437,1.3245 -3.366,2.7886 -4.286,3.2526 -2.252,1.1355 -5.609,3.7992 -6.215,4.9326 -0.443,0.828 -0.326,0.921 1.173,0.921 0.916,0 2.753,-0.429 4.082,-0.9525 z m 637.356,-31.597 c 0.477,-1.4295 0.08,-3.1178 -0.568,-2.4155 -0.222,0.24 -0.551,1.263 -0.729,2.2728 -0.386,2.168 0.586,2.2749 1.297,0.15 z m -1.634,-25.9101 c 0.6,-1.1415 2.453,-8.0205 2.453,-9.1068 0,-0.4845 0.546,-1.6854 1.213,-2.6688 0.668,-0.984 1.329,-2.4602 1.469,-3.2813 0.493,-2.8843 1.285,-4.1773 4.094,-6.6789 3.008,-2.6794 3.035,-2.7439 4.389,-10.4458 0.225,-1.284 1.085,-2.6522 2.912,-4.6394 2.264,-2.4631 2.591,-3.0667 2.591,-4.786 0,-1.7426 -0.09,-1.8959 -0.756,-1.341 -0.416,0.345 -1.59,2.2861 -2.609,4.314 -1.199,2.3832 -2.518,4.2207 -3.732,5.1961 -1.033,0.8295 -2.129,2.1147 -2.435,2.8548 -0.791,1.9085 -6.259,7.0157 -7.902,7.3806 -0.757,0.168 -1.568,0.351 -1.799,0.405 -0.41,0.09 -0.521,2.0426 -0.938,16.6059 -0.19,6.6599 0.05,8.0903 1.05,6.1913 z m 37.52,-30.9327 c -0.675,-0.6765 -1.369,0.7605 -1.006,2.0847 l 0.367,1.344 0.479,-1.556 c 0.262,-0.8565 0.334,-1.6987 0.16,-1.8732 z m 2.887,-10.4921 c -0.12,-0.4635 -0.228,-0.1995 -0.237,0.5865 -0.01,0.786 0.09,1.1655 0.219,0.843 0.135,-0.3225 0.135,-0.966 0.01,-1.428 z m -39.182,-19.6543 c 1.437,0 1.864,-0.27 2.827,-1.7859 0.624,-0.9825 1.591,-2.1942 2.149,-2.6933 1.472,-1.3155 1.26,-1.7121 -0.915,-1.7121 -2.571,0 -4.205,-0.918 -6.396,-3.5911 -2.081,-2.54 -2.341,-2.3774 -2.802,1.7566 -0.237,2.1227 -0.105,3.1269 0.64,4.7625 0.518,1.14 0.945,2.5623 0.951,3.161 0,0.927 0.15,1.0155 0.932,0.5955 0.507,-0.2715 1.683,-0.4935 2.613,-0.4935 z m -458.38,-15.7163 c 0.764,0 1.945,-0.5955 2.917,-1.47 2.01,-1.8081 3.717,-2.7225 7.111,-3.8082 1.44,-0.4605 4.012,-1.4205 5.713,-2.1324 1.702,-0.7125 4.15,-1.425 5.442,-1.5853 l 2.347,-0.291 0.54,-2.3982 c 0.297,-1.3185 0.741,-2.7122 0.987,-3.0957 1.028,-1.5981 1.555,-6.8222 0.999,-9.8987 -0.519,-2.8791 -0.595,-2.9974 -1.737,-2.7186 -0.657,0.1605 -2.803,0.471 -4.767,0.69 -4.446,0.4965 -4.741,0.624 -6.133,2.6631 -0.622,0.912 -1.851,2.1023 -2.729,2.6454 -0.879,0.543 -2.068,1.6691 -2.641,2.5019 -0.573,0.8325 -2.561,3.0397 -4.417,4.9041 -2.616,2.6271 -3.508,3.8851 -3.964,5.5911 -0.33,1.2315 -1.324,3.0159 -2.259,4.0498 -1.188,1.3155 -1.67,2.2955 -1.67,3.3981 0,1.482 0.06,1.5365 1.488,1.2525 0.819,-0.1635 2.066,-0.297 2.772,-0.297 z m 454.444,-11.3275 c 0.744,-0.861 1.356,-2.0391 1.358,-2.6193 0,-1.5543 2.063,-5.6444 3.504,-6.9722 0.69,-0.6345 1.254,-1.639 1.254,-2.2311 0,-0.5925 0.215,-1.6408 0.477,-2.3305 0.443,-1.1625 0.399,-1.23 -0.595,-0.9195 -0.59,0.1845 -2.094,0.8655 -3.342,1.5151 -2.157,1.122 -3.255,1.1985 -5.231,0.369 -0.686,-0.288 -0.834,-0.105 -0.834,1.0695 0,0.7815 0.325,2.3441 0.724,3.4737 0.87,2.4653 1.043,5.4017 0.546,9.2577 -0.3,2.331 -0.262,2.682 0.209,1.905 0.316,-0.5235 1.185,-1.6564 1.929,-2.5168 z m -4.361,-30.0255 c 0,-0.741 0.507,-2.3488 1.126,-3.5719 1.4,-2.7642 0.864,-2.8752 -1.084,-0.225 -1.467,1.9939 -1.728,2.9663 -1.181,4.3916 0.467,1.2165 1.14,0.8655 1.14,-0.594 z m 87.583,-13.4868 c 1.358,-3.8938 0.359,-6.2308 -3.241,-7.5859 -2.744,-1.032 -5.761,-1.701 -5.761,-1.2765 0,0.684 2.535,4.6467 2.972,4.6467 1.086,0 3.663,2.4631 4.237,4.0491 0.744,2.0566 1.122,2.0917 1.793,0.1665 z m -66.845,-16.5976 c 0.61,-1.179 2.63,-3.6857 4.49,-5.571 l 3.382,-3.428 -1.637,-0.3075 c -0.9,-0.1695 -2.011,-0.234 -2.467,-0.15 -1.406,0.276 -2.737,2.562 -2.813,4.8294 -0.06,1.668 -0.426,2.5175 -1.783,4.1033 -0.942,1.0995 -1.814,2.5311 -1.938,3.1806 -0.219,1.1475 -0.199,1.1565 0.716,0.33 0.517,-0.468 1.44,-1.8149 2.05,-2.9936 z m -6.563,-7.9763 c 1.881,-0.408 1.672,-1.0725 -0.336,-1.0725 -1.063,0 -1.933,0.09 -1.933,0.1995 0,0.105 -0.15,0.5745 -0.321,1.035 -0.261,0.681 -0.151,0.765 0.596,0.4545 0.504,-0.21 1.401,-0.4875 1.994,-0.6165 z m 46.199,0.267 c -0.294,-0.8835 -1.32,-1.029 -1.32,-0.189 0,0.414 0.339,0.7545 0.755,0.7545 0.414,0 0.669,-0.255 0.565,-0.5655 z m -67.127,-22.485 c 1.869,-0.471 2.031,-0.627 1.77,-1.7113 -0.157,-0.657 -0.412,-2.0855 -0.567,-3.1755 -0.256,-1.8179 -0.42,-2.0079 -1.968,-2.2983 -0.928,-0.174 -2.733,-0.8625 -4.01,-1.5311 -2.644,-1.383 -3.189,-1.2405 -2.029,0.531 0.527,0.804 1.244,1.2345 2.062,1.239 1.536,0.01 2.132,0.3825 2.882,1.8066 0.722,1.368 0.282,3.5339 -0.94,4.64 -1.154,1.044 -1.209,1.8681 -0.09,1.3815 0.459,-0.1995 1.759,-0.597 2.891,-0.882 z m 31.041,-24.645 c 1.337,-0.6255 4.653,-1.335 8.811,-1.887 5.788,-0.768 7.17,-1.1295 10.478,-2.7436 2.095,-1.023 4.459,-1.9755 5.253,-2.118 0.932,-0.1665 2.649,-1.4265 4.84,-3.5492 1.868,-1.8094 4.64,-3.9138 6.161,-4.6761 2.569,-1.287 2.834,-1.5784 3.733,-4.0935 0.532,-1.4895 1.128,-2.8644 1.324,-3.0559 0.197,-0.192 0.357,-1.6979 0.357,-3.3471 0,-1.8756 0.357,-3.9036 0.953,-5.4152 0.523,-1.329 0.952,-2.8458 0.952,-3.3703 0,-0.525 0.435,-1.8075 0.968,-2.8508 0.916,-1.7967 0.928,-2.0131 0.219,-4.1011 -0.614,-1.8092 -0.653,-2.6628 -0.218,-4.7613 0.587,-2.8233 0.321,-4.7373 -1.027,-7.4003 -0.519,-1.0245 -0.894,-2.7631 -0.894,-4.1362 0,-1.3035 -0.219,-2.9456 -0.488,-3.65 -0.268,-0.705 -0.564,-3.9867 -0.657,-7.2939 -0.169,-6.0093 -0.508,-7.5558 -2.858,-13.0224 -0.453,-1.056 -0.76,-3.1041 -0.76,-5.0718 0,-2.9596 -0.167,-3.5481 -1.606,-5.6875 -0.884,-1.3125 -1.757,-3.1899 -1.941,-4.1721 -0.184,-0.9825 -0.961,-2.9606 -1.728,-4.3962 -0.766,-1.4355 -1.393,-3.209 -1.393,-3.9408 0,-2.0022 -0.78,-3.6549 -1.89,-4.0073 -0.546,-0.1725 -1.708,-1.053 -2.584,-1.9546 l -1.593,-1.64 -0.316,1.9773 c -0.368,2.2973 -2.699,4.9352 -4.835,5.4714 -0.753,0.189 -2.552,0.075 -4.005,-0.261 -1.45,-0.3315 -4.03,-0.7935 -5.733,-1.0245 -1.702,-0.231 -3.717,-0.6375 -4.476,-0.9015 -0.759,-0.264 -2.434,-0.48 -3.722,-0.48 -2.528,0 -3.754,-0.468 -5.613,-2.1403 -0.921,-0.8295 -1.998,-1.1385 -4.762,-1.365 -5.001,-0.411 -6.819,-1.026 -9.251,-3.1311 -2.069,-1.7909 -2.183,-1.8264 -5.124,-1.5983 -2.691,0.2085 -3.303,0.075 -5.795,-1.2435 -2.052,-1.0875 -3.434,-1.4805 -5.239,-1.491 -1.617,-0.01 -3.263,-0.414 -4.833,-1.1865 -1.31,-0.645 -3.024,-1.182 -3.81,-1.197 -0.786,-0.014 -2.286,-0.357 -3.334,-0.762 -1.047,-0.405 -3.669,-1.1355 -5.824,-1.6239 -2.156,-0.4875 -4.3,-1.0905 -4.765,-1.3395 -0.465,-0.249 -2.291,-0.336 -4.057,-0.195 -2.311,0.186 -3.779,0.045 -5.236,-0.504 -1.217,-0.4575 -3.262,-0.732 -5.121,-0.6855 -2.37,0.06 -3.566,-0.168 -5.101,-0.969 -1.456,-0.7605 -2.839,-1.047 -5.053,-1.047 -2.558,0 -3.346,-0.21 -4.901,-1.3095 -1.543,-1.0905 -2.368,-1.314 -4.948,-1.3425 -4.054,-0.045 -11.497,-1.014 -13.189,-1.7203 -0.735,-0.3075 -3.801,-0.723 -6.813,-0.9255 -13.606,-0.912 -25.388,-2.0625 -26.186,-2.5557 -0.276,-0.171 -2.695,-0.393 -5.375,-0.492 -2.68,-0.105 -7.98,-0.42 -11.778,-0.711 -3.798,-0.291 -9.049,-0.681 -11.668,-0.8655 -2.619,-0.1845 -5.061,-0.5235 -5.425,-0.7545 -0.365,-0.2295 -5.401,-0.4155 -11.192,-0.411 -9.162,0.01 -10.825,-0.105 -12.809,-0.8835 -2.92,-1.14 -3.816,-1.119 -6.894,0.156 -2.359,0.978 -2.736,1.0065 -5.724,0.4335 -1.76,-0.3375 -5.986,-0.669 -9.391,-0.738 -3.405,-0.075 -8.12,-0.3285 -10.477,-0.576 -3.238,-0.3405 -4.801,-0.2985 -6.391,0.1695 -2.783,0.819 -5.033,0.8565 -10.73,0.177 -3.959,-0.4725 -5.289,-0.4485 -8.096,0.15 -5.02,1.059 -11.44,0.939 -13.971,-0.2625 -2.256,-1.071 -3.86,-0.9615 -7.345,0.5025 -1.647,0.6915 -3.147,0.837 -7.709,0.75 -4.03,-0.075 -6.132,0.09 -7.283,0.567 -1.625,0.678 -3.4,0.7545 -15.937,0.675 -3.576,-0.03 -7.072,0.1755 -7.77,0.441 -0.698,0.2655 -2.105,0.483 -3.126,0.483 -1.022,0 -2.923,0.42 -4.225,0.9345 -1.729,0.681 -3.955,0.9945 -8.233,1.1595 -3.226,0.12 -7.15,0.3675 -8.722,0.54 -1.572,0.1725 -5.144,0.2745 -7.938,0.2265 -4.654,-0.075 -5.207,0.01 -6.588,1.0275 -1.379,1.0185 -2.06,1.1265 -7.958,1.2525 -4.294,0.09 -7.007,0.3705 -8.115,0.834 -0.915,0.3825 -2.336,0.696 -3.157,0.696 -0.82,0 -2.241,0.237 -3.156,0.5265 -2.306,0.7305 -10.513,1.491 -17.619,1.635 -5.245,0.105 -6.459,0.2955 -10.209,1.5985 -2.341,0.813 -4.956,1.479 -5.811,1.479 -2.429,0 -6.786,1.2765 -10.148,2.9742 -2.885,1.4565 -3.391,1.5533 -8.335,1.6008 -5.521,0.06 -9.141,0.7815 -12.561,2.5256 -1.074,0.5475 -2.524,0.996 -3.224,0.996 -0.699,0 -2.021,0.462 -2.935,1.0275 -1.235,0.7635 -2.886,1.131 -6.409,1.4295 -4.231,0.3585 -4.971,0.564 -6.833,1.9009 -1.706,1.2255 -2.593,1.5153 -4.84,1.5848 -1.606,0.045 -3.643,0.495 -4.895,1.0695 -2.176,1.0005 -5.74,1.8492 -10.483,2.4988 -1.445,0.198 -3.722,0.915 -5.062,1.5941 -1.339,0.6795 -3.48,1.491 -4.756,1.8058 -1.276,0.315 -3.136,1.209 -4.134,1.9881 -1.923,1.5027 -4.945,2.1489 -7.292,1.5597 -1.256,-0.315 -6.062,-4.8366 -7.127,-6.7053 -0.494,-0.8655 -0.573,-0.849 -1.786,0.363 -0.849,0.849 -1.275,1.7894 -1.287,2.8389 -0.03,2.8218 -1.249,6.8057 -3.493,11.4192 -1.691,3.4748 -2.205,5.0679 -2.205,6.8279 0,1.6731 -0.39,2.9854 -1.437,4.8403 -0.947,1.6761 -1.343,2.9163 -1.163,3.6324 0.15,0.5985 -0.07,2.0939 -0.486,3.3239 -0.463,1.3635 -0.817,4.3276 -0.91,7.5979 -0.105,3.9753 -0.374,5.8193 -1.016,7.131 -0.736,1.5062 -0.781,2.046 -0.307,3.6272 0.669,2.2315 0.73,7.8157 0.105,9.9777 -0.513,1.7902 0.687,5.955 2.313,8.0218 1.175,1.4925 3.656,7.8413 4.072,10.4177 0.572,3.5416 0.717,3.8077 2.835,5.2194 1.162,0.7755 2.612,2.2459 3.219,3.2686 1.869,3.1469 3.392,4.6313 6.112,5.9558 1.6,0.7785 2.981,1.869 3.565,2.8113 0.651,1.053 1.55,1.7068 2.844,2.0707 1.039,0.2925 2.32,0.8325 2.844,1.2 0.525,0.3675 1.976,0.6675 3.226,0.6675 2.411,0 7.281,1.452 9.66,2.8803 1.743,1.047 6.108,1.2975 13.159,0.7575 4.213,-0.3225 5.496,-0.252 7.636,0.423 2.383,0.7515 2.736,0.7545 4.835,0.045 1.245,-0.423 3.026,-0.768 3.958,-0.768 0.966,0 2.208,-0.4035 2.889,-0.9405 0.657,-0.5175 1.977,-1.056 2.932,-1.2 2.784,-0.4155 6.272,-1.218 9.527,-2.1931 1.665,-0.498 3.652,-0.906 4.415,-0.906 0.764,0 3.152,-0.831 5.308,-1.8468 2.155,-1.0155 4.625,-2.0795 5.488,-2.3639 0.863,-0.285 2.23,-0.987 3.038,-1.5627 0.876,-0.624 2.453,-1.134 3.908,-1.2645 1.345,-0.12 2.866,-0.5895 3.392,-1.044 2.149,-1.8598 5.479,-3.8227 7.208,-4.2487 2.733,-0.6735 7.896,-2.8934 8.984,-3.8625 0.524,-0.4665 2.988,-2.148 5.477,-3.7365 5.407,-3.4523 10.118,-7.31 11.719,-9.5979 0.642,-0.9165 1.665,-2.3481 2.274,-3.1808 0.843,-1.1535 1.189,-2.4555 1.456,-5.4768 0.462,-5.2327 0.462,-4.8865 0.01,-12.4864 l -0.382,-6.6183 -1.803,-1.6284 c -0.991,-0.8955 -2.043,-2.418 -2.337,-3.383 -0.992,-3.253 -3.018,-6.9802 -4.965,-9.1363 -1.065,-1.179 -2.442,-2.8932 -3.062,-3.81 -0.619,-0.9165 -1.963,-2.2569 -2.985,-2.9781 -1.03,-0.7275 -2.194,-2.1062 -2.613,-3.0956 -0.415,-0.981 -1.047,-2.3203 -1.405,-2.9751 -0.359,-0.6555 -1.025,-1.9407 -1.481,-2.8575 -0.456,-0.9165 -1.503,-2.5242 -2.326,-3.5719 -0.822,-1.047 -1.879,-2.655 -2.348,-3.5718 -0.468,-0.9165 -1.251,-2.178 -1.737,-2.8028 -1.355,-1.7388 -1.169,-3.7807 0.4,-4.3774 1.425,-0.5415 5.336,0.15 7.099,1.2465 0.991,0.6195 8.636,2.6001 10.036,2.6001 1.536,0 4.1,1.6566 5.248,3.3915 0.66,0.9975 1.954,2.3884 2.875,3.0906 l 1.674,1.2765 2.441,-1.0725 c 1.342,-0.5895 3.469,-1.275 4.726,-1.524 1.257,-0.249 3.272,-0.975 4.476,-1.6164 1.205,-0.6405 2.788,-1.1655 3.518,-1.1655 0.73,0 1.93,-0.24 2.667,-0.5325 2.527,-1.0035 4.438,-1.272 6.209,-0.873 1.449,0.327 2.079,0.21 3.453,-0.645 1.297,-0.807 2.548,-1.074 5.49,-1.1715 15.343,-0.51 22.313,-1.329 24.25,-2.8535 2.425,-1.9071 4.351,-2.2357 7.507,-1.281 2.792,0.846 2.843,0.843 4.952,-0.1815 1.391,-0.675 3.078,-1.0455 4.857,-1.0635 1.498,-0.015 3.69,-0.1845 4.869,-0.3735 1.179,-0.1905 3,-0.195 4.048,-0.01 1.146,0.201 2.854,0.09 4.286,-0.288 1.511,-0.3945 4.645,-0.582 8.573,-0.51 3.405,0.06 6.855,-0.105 7.666,-0.36 0.986,-0.3165 3.424,-0.3075 7.348,0.03 4.076,0.348 6.248,0.3495 7.098,0.01 0.745,-0.303 5.039,-0.45 10.987,-0.3795 5.37,0.06 11.779,0.09 14.243,0.045 2.464,-0.03 5.209,0.177 6.1,0.4695 1.218,0.402 2.352,0.39 4.569,-0.045 2.525,-0.4995 3.207,-0.474 4.747,0.1725 1.314,0.552 2.611,0.6795 4.82,0.4725 2.613,-0.2445 3.392,-0.105 5.76,0.972 3.167,1.449 4.508,1.5318 8.428,0.516 2.562,-0.663 3.213,-0.6645 6.498,-0.01 2.009,0.4005 4.723,0.7035 6.033,0.675 3.463,-0.075 11.199,0.8085 12.858,1.473 0.786,0.315 1.792,0.9015 2.236,1.3035 0.699,0.633 1.133,0.6495 3.213,0.12 2.192,-0.5625 2.622,-0.5265 4.907,0.4125 1.966,0.807 3.069,0.9675 5.137,0.747 2.258,-0.24 3.131,-0.075 6.125,1.206 2.84,1.209 4.358,1.5324 8.141,1.7361 3.43,0.1845 5.758,0.6285 8.877,1.6897 6.101,2.0772 10.147,3.3089 12.324,3.7517 3.052,0.621 9.148,2.2606 9.722,2.6149 1.065,0.6585 2.471,-0.342 3.592,-2.553 1.638,-3.2331 3.989,-5.1459 6.787,-5.5225 1.256,-0.1695 3.675,-0.858 5.378,-1.5308 2.526,-0.999 3.929,-1.2285 7.62,-1.254 5.313,-0.03 6.975,0.3165 7.368,1.5545 0.327,1.0305 -1.977,4.9906 -3.543,6.0873 -0.54,0.378 -1.401,1.5103 -1.914,2.517 -0.513,1.0065 -1.796,2.8272 -2.851,4.0456 -1.055,1.218 -1.918,2.492 -1.918,2.8302 0,0.3375 -0.943,2.0502 -2.095,3.8048 -1.152,1.7544 -2.343,3.8757 -2.646,4.714 -0.303,0.8385 -1.053,2.5956 -1.668,3.9053 -0.613,1.3095 -1.489,4.4172 -1.946,6.9057 -0.456,2.4883 -1.2,5.2744 -1.651,6.1912 -0.695,1.407 -0.755,2.2227 -0.39,5.2388 0.616,5.094 1.219,7.1101 2.803,9.3571 0.765,1.086 1.619,3.0365 1.897,4.3335 0.353,1.6469 0.894,2.6454 1.791,3.3099 0.707,0.5235 2.081,2.5409 3.053,4.4834 1.915,3.8265 4.399,6.6454 7.507,8.5198 4.241,2.5578 4.961,3.1544 5.822,4.8233 0.746,1.4445 1.217,1.7796 2.873,2.0446 1.479,0.237 2.462,0.822 3.872,2.3042 1.727,1.8153 3.762,3.0522 10.544,6.4089 1.31,0.648 2.917,1.6668 3.572,2.2635 0.843,0.768 2.007,1.164 3.98,1.3545 1.978,0.1905 3.352,0.6585 4.718,1.6081 2.777,1.928 7.205,3.5102 11.208,4.0044 1.912,0.2355 4.162,0.7845 5.001,1.2195 1.782,0.924 7.263,2.0454 10.335,2.1144 1.179,0.03 2.679,0.201 3.334,0.387 0.656,0.186 2.07,0.1545 3.145,-0.075 1.328,-0.279 3.084,-0.1875 5.477,0.2835 4.788,0.942 5.571,0.918 8.047,-0.24 z m -189.547,-87.3841 c 0,-0.4275 0.43,-1.473 0.957,-2.3247 l 0.957,-1.5474 -1.076,-0.288 c -0.591,-0.159 -2.636,-0.291 -4.543,-0.294 -2.022,0 -4.196,-0.3105 -5.213,-0.735 -1.566,-0.654 -1.93,-0.654 -3.566,0 -2.458,0.984 -3.569,0.924 -7.37,-0.4005 -2.874,-1.0005 -4.144,-1.1355 -11.167,-1.182 -4.637,-0.03 -8.49,-0.276 -9.287,-0.591 -1.674,-0.6615 -10.143,-0.69 -12.929,-0.045 -1.497,0.3465 -2.766,0.3 -4.762,-0.177 -3.638,-0.87 -6.271,-0.8445 -8.485,0.075 -1.389,0.5805 -2.606,0.69 -5.035,0.45 -2.552,-0.252 -3.858,-0.12 -6.424,0.6795 -3.472,1.0725 -4.914,0.978 -7.859,-0.513 -1.563,-0.7905 -2.311,-0.8385 -7.144,-0.459 -3.233,0.255 -6.527,0.8235 -8.211,1.4175 -1.972,0.696 -3.978,0.993 -6.708,0.993 -2.142,0 -4.029,0.135 -4.195,0.3015 -0.165,0.165 0.266,1.29 0.959,2.5003 0.693,1.209 1.284,2.2457 1.315,2.3019 0.03,0.06 1.44,-0.4575 3.13,-1.1415 3.388,-1.3725 8.978,-1.938 22.837,-2.3124 4.06,-0.105 9.096,-0.3165 11.192,-0.459 3.804,-0.2595 6.304,-0.312 12.144,-0.255 2.871,0.03 4.359,-0.1515 12.164,-1.4655 2.299,-0.387 3.3,-0.339 4.979,0.24 1.243,0.4275 2.888,0.621 4.028,0.471 1.061,-0.135 3.213,-0.01 4.785,0.2865 1.572,0.2955 4.182,0.5145 5.801,0.483 1.877,-0.03 3.483,0.2235 4.434,0.7155 0.821,0.4245 3.844,1.08 6.72,1.458 2.877,0.378 6.775,0.9975 8.663,1.377 6.849,1.377 8.91,1.4775 8.91,0.438 z m -305.991,-35.1465 c 1.047,-0.609 2.625,-1.263 3.504,-1.4535 0.879,-0.189 2.65,-0.891 3.936,-1.5578 1.605,-0.8325 3.492,-1.314 6.021,-1.537 2.027,-0.1785 4.153,-0.5745 4.725,-0.882 0.571,-0.306 1.431,-0.5565 1.908,-0.5565 0.477,0 1.875,-0.5355 3.106,-1.191 1.681,-0.8955 2.957,-1.191 5.14,-1.191 2.435,0 3.522,-0.309 6.722,-1.905 2.397,-1.1955 4.477,-1.905 5.588,-1.905 0.973,0 3.048,-0.459 4.611,-1.0185 1.925,-0.69 4.076,-1.035 6.672,-1.071 2.983,-0.045 4.143,-0.264 5.239,-1.0065 1.048,-0.7095 2.319,-0.9795 4.979,-1.056 5.207,-0.1515 8.367,-0.861 10.689,-2.399 1.638,-1.0845 3.005,-1.4805 6.755,-1.9582 2.586,-0.33 5.666,-0.786 6.845,-1.014 1.179,-0.228 3.41,-0.543 4.959,-0.6975 1.549,-0.156 4.335,-0.7965 6.191,-1.4235 2.316,-0.783 4.945,-1.2255 8.376,-1.4085 6.947,-0.372 10.881,-0.945 13.012,-1.8941 3.299,-1.4685 6.003,-1.7478 8.988,-0.927 2.6,0.714 2.798,0.7035 4.794,-0.2625 1.428,-0.6915 3.002,-1.008 5.012,-1.008 1.846,0 4.299,-0.447 6.627,-1.206 3.213,-1.0485 3.996,-1.143 5.991,-0.714 3.479,0.7455 5.893,0.5955 8.041,-0.4995 1.244,-0.6345 2.697,-0.9585 4.029,-0.897 4.398,0.201 5.732,0.12 8.038,-0.4515 3.945,-0.99 5.884,-1.1235 8.119,-0.561 1.861,0.468 2.367,0.414 4.041,-0.441 2.1,-1.071 9.481,-1.7367 16.415,-1.4805 4.47,0.165 16.253,-0.441 17.672,-0.909 1.877,-0.6195 16.878,-1.1625 24.476,-0.8865 8.947,0.3255 23.19,-0.06 27.916,-0.753 1.157,-0.1695 3.404,0.03 5.477,0.498 7.714,1.7223 10.128,1.7483 22.328,0.24 1.703,-0.21 4.275,-0.1965 5.715,0.03 1.44,0.2265 4.013,0.6135 5.715,0.861 1.703,0.246 3.551,0.5865 4.106,0.7545 0.557,0.168 2.013,-0.03 3.237,-0.45 1.848,-0.627 2.972,-0.6765 6.61,-0.2895 2.41,0.2565 5.24,0.5535 6.288,0.6615 4.963,0.5055 13.358,1.7736 14.995,2.264 1.36,0.408 2.215,0.4095 3.367,0.01 2.273,-0.792 4.39,-0.66 7.203,0.4485 2.069,0.816 3.454,0.975 7.995,0.918 11.038,-0.135 15.784,0.231 18.064,1.3995 1.781,0.912 2.99,1.095 8.096,1.221 3.301,0.075 7.288,0.3675 8.86,0.6345 1.571,0.267 4.272,0.6915 6.001,0.942 1.728,0.2505 3.595,0.699 4.147,0.9945 0.608,0.3255 2.002,0.4245 3.525,0.2505 2.132,-0.243 3.105,-0.06 6.329,1.2345 2.096,0.837 4.453,1.9019 5.239,2.3658 1.001,0.591 2.857,0.9195 6.191,1.0965 2.62,0.135 5.406,0.5145 6.192,0.8355 0.786,0.3195 2.506,0.63 3.823,0.69 1.317,0.06 3.095,0.471 3.951,0.9135 1.071,0.5535 2.479,0.7695 4.511,0.69 4.574,-0.1785 11.123,0.9135 14.839,2.4758 1.836,0.771 4.161,1.4025 5.168,1.4025 1.01,0 4.036,0.8625 6.743,1.9203 2.701,1.056 6.489,2.2143 8.417,2.5735 1.929,0.36 5.114,1.3455 7.078,2.1923 1.965,0.846 4.691,1.7049 6.057,1.9077 1.367,0.2025 3.103,0.8085 3.858,1.3455 0.755,0.537 2.255,1.176 3.334,1.4175 1.078,0.243 2.957,1.0545 4.175,1.8043 3.787,2.3339 4.216,2.5401 5.295,2.5473 0.577,0 1.596,0.2565 2.264,0.561 1.593,0.726 1.758,0.477 1.173,-1.771 -1.113,-4.2803 -2.446,-6.7923 -4.799,-9.0473 -2.624,-2.5149 -2.968,-3.162 -3.461,-6.522 -0.441,-3.0078 -1.368,-3.5005 -4.597,-2.4445 -2.373,0.777 -2.498,0.7695 -5.073,-0.2985 -2.251,-0.933 -2.863,-1.014 -4.157,-0.546 -1.991,0.72 -2.921,0.6945 -5.497,-0.15 -1.179,-0.3855 -2.936,-0.8235 -3.904,-0.972 -1.016,-0.156 -2.598,-0.969 -3.737,-1.9199 -1.329,-1.11 -2.466,-1.6518 -3.477,-1.6555 -0.827,0 -2.681,-0.33 -4.122,-0.7245 -1.44,-0.396 -4.32,-1.0515 -6.398,-1.458 -3.668,-0.717 -7.039,-2.0582 -7.647,-3.0431 -0.164,-0.2655 -1.626,-0.4905 -3.247,-0.4995 -1.653,-0.01 -3.472,-0.3165 -4.139,-0.6975 -0.656,-0.375 -2.325,-0.6885 -3.71,-0.6975 -1.618,-0.011 -3.237,-0.3855 -4.525,-1.0455 -1.309,-0.672 -2.996,-1.056 -4.862,-1.1055 -2.815,-0.075 -4.647,-0.7275 -9.049,-3.2169 -1.637,-0.9255 -2.496,-1.062 -6.111,-0.966 -3.163,0.09 -4.902,-0.12 -7.01,-0.834 -1.707,-0.5745 -4.067,-0.9435 -6.033,-0.942 -2.192,0 -4.301,-0.369 -6.564,-1.155 -4.773,-1.6564 -12.712,-3.2107 -17.145,-3.3567 -2.362,-0.075 -4.714,-0.477 -6.191,-1.05 -1.951,-0.7575 -3.404,-0.906 -8.043,-0.8235 -3.883,0.075 -6.259,-0.105 -7.561,-0.5685 -1.107,-0.39 -3.735,-0.6705 -6.303,-0.6705 -2.852,0 -5.14,-0.2685 -6.489,-0.762 -1.45,-0.5295 -3.743,-0.765 -7.541,-0.771 -3.528,-0.01 -6.138,-0.252 -7.382,-0.696 -1.368,-0.489 -2.85,-0.597 -5.129,-0.372 -2.738,0.2685 -3.521,0.162 -5.377,-0.7365 -1.503,-0.7275 -2.57,-0.951 -3.463,-0.723 -5.358,1.365 -7.363,1.368 -12.244,0.013 -5.612,-1.5582 -13.236,-2.1066 -17.14,-1.233 -1.968,0.441 -3.64,0.429 -7.689,-0.06 -7.729,-0.921 -31.227,-0.546 -35.896,0.5745 -1.728,0.414 -2.997,0.435 -4.641,0.075 -4.643,-1.0155 -5.662,-1.0515 -7.543,-0.2655 -2.263,0.945 -6.869,0.7035 -9.16,-0.4815 -1.237,-0.6405 -1.886,-0.699 -3.312,-0.303 -0.975,0.2715 -3.552,0.4935 -5.726,0.495 -2.709,0 -4.422,0.246 -5.446,0.7755 -1.103,0.57 -2.282,0.7095 -4.506,0.531 -1.657,-0.135 -3.127,-0.06 -3.266,0.1665 -0.135,0.225 -1.105,0.639 -2.148,0.9195 -1.522,0.4095 -2.405,0.3495 -4.49,-0.3075 -2.09,-0.6585 -2.834,-0.7095 -3.822,-0.2595 -0.675,0.3075 -3.227,0.5595 -5.671,0.5595 -2.947,0 -5.042,0.2505 -6.221,0.7425 -1.06,0.4425 -2.956,0.711 -4.701,0.663 -3.277,-0.09 -8.921,0.654 -11.01,1.4475 -0.837,0.318 -4.556,0.492 -9.504,0.444 -8.192,-0.075 -11.562,0.3105 -14.889,1.726 -1.405,0.5985 -2.633,0.702 -5.469,0.4635 -2.946,-0.2475 -3.962,-0.15 -5.225,0.504 -0.862,0.4455 -2.967,0.981 -4.677,1.1895 -1.71,0.2085 -4.503,0.6525 -6.205,0.9885 -1.703,0.336 -4.334,0.5625 -5.848,0.504 -1.92,-0.075 -3.289,0.1665 -4.525,0.7905 -1.231,0.6225 -3.368,0.999 -7.01,1.2315 -2.882,0.1845 -6.311,0.6375 -7.62,1.0065 -1.31,0.369 -5.21,0.984 -8.667,1.365 -3.457,0.3825 -6.886,0.9975 -7.62,1.3665 -2.097,1.0575 -3.568,1.272 -5.583,0.816 -1.524,-0.345 -2.225,-0.237 -3.81,0.5805 -1.312,0.678 -2.946,1.029 -5.038,1.0815 -2.089,0.06 -3.858,0.432 -5.439,1.1655 -1.973,0.9165 -2.876,1.05 -5.715,0.8445 -3.006,-0.2175 -3.599,-0.105 -5.461,0.978 -1.676,0.9795 -2.651,1.206 -4.925,1.143 -2.244,-0.06 -3.251,0.165 -4.828,1.089 -1.097,0.642 -3.38,1.5203 -5.077,1.9511 -1.696,0.4305 -4.363,1.3185 -5.926,1.9725 -2.383,0.9975 -3.286,1.1385 -5.591,0.8775 -2.435,-0.276 -2.996,-0.1665 -4.924,0.9645 -1.892,1.1085 -2.666,1.269 -5.948,1.2255 l -3.773,-0.045 -2.748,2.3064 c -4.503,3.7783 -4.916,4.3989 -6.28,9.4345 -0.298,1.101 -1.044,2.6016 -1.657,3.3338 -0.613,0.732 -1.804,2.7009 -2.647,4.375 l -1.533,3.0441 2.065,-0.33 c 1.135,-0.1815 2.922,-0.8295 3.97,-1.4385 z m 418.974,379.7744 c -0.855,-0.1965 -2.419,-0.93 -3.477,-1.6293 -1.239,-0.819 -3.31,-1.525 -5.827,-1.9836 -7.89,-1.437 -13.013,-2.6404 -15.41,-3.6183 -2.345,-0.957 -2.544,-0.9675 -4.415,-0.219 -2.514,1.0065 -5.389,0.999 -7.32,-0.015 -0.987,-0.5205 -2.866,-0.8415 -5.335,-0.9135 -2.095,-0.06 -4.131,-0.135 -4.524,-0.1725 -0.393,-0.03 -2.034,0.09 -3.646,0.261 -1.897,0.2085 -3.495,0.12 -4.525,-0.255 -1.87,-0.6795 -6.13,-1.185 -8.498,-1.008 -5.705,0.426 -18.076,-0.15 -19.487,-0.8985 -0.894,-0.4785 -1.677,-0.495 -3.568,-0.075 -1.334,0.2925 -3.71,0.495 -5.282,0.4485 -1.571,-0.045 -5.1,0.189 -7.841,0.522 -3.778,0.459 -5.419,0.4755 -6.785,0.06 -1.027,-0.3075 -4.429,-0.498 -7.912,-0.4425 -3.36,0.06 -6.326,-0.03 -6.591,-0.1995 -0.264,-0.1635 -3.231,-0.075 -6.593,0.213 -5.806,0.4845 -6.235,0.459 -8.59,-0.5175 l -2.479,-1.0275 -6.057,1.0095 c -5.07,0.846 -6.43,0.921 -8.344,0.462 -2.029,-0.4875 -2.504,-0.438 -4.223,0.4395 -2.283,1.1655 -3.994,1.2405 -6.672,0.2955 -1.715,-0.6045 -2.169,-0.6045 -3.617,0 -2.211,0.924 -3.229,0.8745 -5.933,-0.2895 -2.203,-0.948 -2.422,-0.9555 -6.518,-0.24 -4.455,0.78 -12.62,0.9465 -14.238,0.2925 -0.582,-0.2355 -1.577,-0.135 -2.559,0.2715 -2.314,0.9465 -5.128,0.81 -7.479,-0.3645 l -2.046,-1.0215 -2.893,1.0815 c -2.346,0.8775 -3.365,1.0155 -5.388,0.7305 -3.963,-0.5595 -6.43,-0.516 -11.864,0.204 -4.151,0.5505 -5.546,0.5655 -7.62,0.075 -3.336,-0.7815 -14.908,-0.06 -18.016,1.125 -1.537,0.585 -2.816,0.7305 -4.524,0.513 -1.31,-0.1665 -6.945,-0.402 -12.522,-0.522 -8.403,-0.1815 -10.378,-0.09 -11.525,0.498 -0.762,0.3945 -2.12,0.7155 -3.018,0.7155 -0.897,0 -2.355,0.297 -3.238,0.66 -1.173,0.4815 -3.224,0.6105 -7.614,0.4755 -5.572,-0.171 -6.263,-0.09 -9.525,1.089 -2.678,0.9705 -4.596,1.3095 -8.041,1.419 -2.489,0.075 -6.668,0.276 -9.287,0.435 -9.794,0.594 -12.021,0.4125 -15.31,-1.257 -1.668,-0.8475 -3.318,-1.383 -3.747,-1.218 -1.124,0.432 -3.565,-0.9855 -3.565,-2.0698 0,-1.4055 1.004,-3.2961 1.901,-3.5808 0.443,-0.135 1.103,-0.8145 1.469,-1.497 0.366,-0.6825 1.808,-1.8878 3.207,-2.6769 1.513,-0.8535 3.01,-2.1756 3.697,-3.2648 1.648,-2.6097 4.163,-3.7543 8.25,-3.7543 1.827,0 4.878,-0.327 6.781,-0.7275 1.904,-0.4005 5.186,-0.7365 7.294,-0.747 2.643,-0.014 4.746,-0.336 6.769,-1.0395 2.879,-0.999 2.987,-1.0035 5.619,-0.174 2.611,0.8235 2.761,0.8205 5.637,-0.12 2.582,-0.84 4.063,-0.948 11.765,-0.867 8.644,0.09 8.846,0.075 10.715,-1.095 1.799,-1.122 2.303,-1.191 9.049,-1.2375 3.929,-0.03 8.644,-0.2775 10.478,-0.558 4.737,-0.723 12.328,-0.672 15.954,0.105 2.735,0.588 3.384,0.5775 5.576,-0.09 2.129,-0.6525 2.844,-0.6735 5.036,-0.15 2.265,0.543 2.737,0.519 4.169,-0.222 1.984,-1.026 4.579,-1.0725 6.406,-0.12 1.224,0.642 1.604,0.642 3.476,0 1.486,-0.507 2.819,-0.6135 4.554,-0.3645 7.228,1.035 8.125,1.05 10.074,0.1725 2.366,-1.0665 3.964,-1.095 6.409,-0.12 1.804,0.7215 2.011,0.7095 3.939,-0.2205 1.765,-0.8535 2.601,-0.945 6.32,-0.7005 4.975,0.327 5.684,0.3195 9.541,-0.105 2.48,-0.2715 3.291,-0.135 5.939,0.9765 2.589,1.0905 3.44,1.236 5.462,0.9435 1.317,-0.192 3.788,-0.4035 5.49,-0.471 1.703,-0.075 4.81,-0.4155 6.906,-0.774 5.721,-0.978 19.587,-0.7905 22.821,0.309 2.348,0.798 2.64,0.8025 4.807,0.06 1.512,-0.516 3.878,-0.786 6.869,-0.786 2.509,0 5.288,-0.2085 6.176,-0.4635 1.074,-0.3075 2.268,-0.2955 3.569,0.045 1.075,0.276 4.333,0.468 7.241,0.4275 4.762,-0.06 5.59,0.045 8.327,1.2045 2.986,1.257 3.114,1.269 7.191,0.684 2.283,-0.327 5.608,-0.4935 7.389,-0.369 2.073,0.15 3.753,0 4.667,-0.3885 1.962,-0.8445 6.359,-0.8085 8.858,0.075 1.709,0.603 2.456,0.633 4.266,0.168 1.858,-0.4755 2.608,-0.432 4.888,0.285 1.869,0.588 3.316,0.747 4.724,0.519 5.859,-0.9465 6.439,-0.9195 9.194,0.429 2.536,1.2405 3.013,1.3035 10.421,1.3785 7.528,0.075 7.821,0.12 9.615,1.3275 2.713,1.8312 4.497,2.2501 11.431,2.6839 5.961,0.3735 6.33,0.4575 8.096,1.8393 1.017,0.7965 2.694,1.5807 3.725,1.7423 2.578,0.4035 6.945,3.2133 8.014,5.1561 0.697,1.2675 0.849,2.4046 0.733,5.4924 -0.172,4.6234 -1.066,6.2049 -4.115,7.2819 -1.754,0.6195 -2.209,0.615 -4.005,-0.03 -1.447,-0.525 -2.57,-0.6225 -3.931,-0.3435 -1.047,0.2145 -2.334,0.4725 -2.858,0.57 -0.523,0.105 -1.652,0.015 -2.507,-0.177 z m -227.283,-43.7338 c -1.765,-0.72 -3.236,-0.852 -8.334,-0.756 -3.405,0.06 -7.747,0.2685 -9.647,0.4515 -2.616,0.252 -4.027,0.15 -5.805,-0.435 -2.861,-0.936 -5.491,-0.978 -7.944,-0.135 -2.164,0.75 -17.404,0.621 -19.469,-0.1635 -0.687,-0.261 -2.536,-0.4755 -4.108,-0.4755 -3.108,0 -3.781,-0.2565 -6.885,-2.6262 -1.135,-0.867 -2.77,-1.7285 -3.631,-1.9145 -5.121,-1.1055 -9.45,-5.8738 -12.218,-13.4577 -1.927,-5.2812 -2.172,-7.1202 -1.288,-9.6571 0.519,-1.488 0.649,-2.9736 0.442,-5.0354 -0.211,-2.1192 -0.105,-3.3153 0.414,-4.3407 0.909,-1.8211 1.086,-13.0081 0.306,-19.2514 -0.657,-5.259 -0.616,-7.2425 0.179,-8.6421 0.345,-0.6075 0.603,-2.9088 0.622,-5.5599 0.03,-3.2726 0.281,-5.1174 0.924,-6.6675 0.635,-1.529 0.867,-3.1668 0.813,-5.715 -0.267,-12.3585 0.05,-18.6744 1.007,-20.0855 0.787,-1.161 0.804,-1.4565 0.183,-3.3337 -0.839,-2.5391 -0.363,-10.9571 0.799,-14.1257 0.599,-1.6302 0.656,-2.5161 0.276,-4.2139 -0.336,-1.497 -0.319,-3.0396 0.05,-5.0794 0.293,-1.6115 0.639,-5.2874 0.77,-8.1687 0.495,-10.9739 0.958,-15.0116 2.046,-17.8593 0.627,-1.6421 0.713,-2.5329 0.366,-3.81 -0.301,-1.1085 -0.277,-2.4362 0.08,-3.9654 0.29,-1.2645 0.525,-4.5986 0.525,-7.4099 0,-4.5238 0.17,-5.5732 1.469,-9.1314 1.102,-3.0184 1.396,-4.4721 1.18,-5.8335 -0.51,-3.2116 0.579,-9.8818 1.922,-11.7598 0.655,-0.9165 1.944,-2.7384 2.864,-4.0482 2.123,-3.0218 4.04,-4.1283 6.477,-3.7385 1.694,0.2715 1.994,0.12 4.367,-2.119 2.925,-2.7669 4.588,-3.2666 9.037,-2.7162 1.609,0.1995 3.461,0.3075 4.116,0.24 0.656,-0.06 2.262,-0.105 3.572,-0.075 1.309,0.03 6.775,0.045 12.144,0.045 12.231,-0.01 11.395,-0.015 21.908,0.3585 13.248,0.477 20.225,0.312 22.793,-0.537 1.216,-0.402 3.71,-0.729 5.544,-0.7275 5.517,0.01 22.746,-0.3855 32.385,-0.738 11.761,-0.429 12.776,-0.4215 19.423,0.12 5.211,0.4305 5.751,0.3945 7.565,-0.504 1.764,-0.873 2.222,-0.912 4.695,-0.4005 1.877,0.387 3.132,0.417 3.981,0.09 3.088,-1.1745 16.622,-1.607 28.629,-0.9165 0.524,0.03 1.832,-0.279 2.906,-0.6885 1.683,-0.6405 2.309,-0.657 4.525,-0.12 3.095,0.7485 10.061,1.7056 12.419,1.7056 0.938,0 2.477,-0.3225 3.422,-0.7185 3.353,-1.401 6.28,-1.7751 9.18,-1.173 2.346,0.4875 3.053,0.447 5.24,-0.2955 2.255,-0.7665 2.93,-0.795 6.231,-0.27 2.304,0.3675 4.961,1.2135 7.036,2.2401 1.834,0.9075 3.73,1.6491 4.214,1.6479 3.489,-0.01 7.43,4.7067 8.697,10.403 0.532,2.3955 1.266,4.2154 2.141,5.3112 1.566,1.9611 2.364,5.116 2.259,8.928 -0.05,1.507 0.159,4.7581 0.445,7.2246 0.42,3.6213 0.395,4.852 -0.135,6.3927 -0.496,1.443 -0.528,2.1496 -0.12,2.8974 0.797,1.485 1.373,8.5146 1.506,18.3723 0.105,7.5969 0.243,9.0402 1.022,10.4775 0.69,1.275 0.931,2.8414 1.029,6.6675 0.292,11.5504 0.525,15.0787 1.084,16.4305 0.326,0.786 0.782,2.7147 1.016,4.2862 0.234,1.5717 0.555,3.7212 0.714,4.7769 0.19,1.269 0.03,2.5391 -0.476,3.7491 -1.047,2.507 -0.976,3.2256 0.633,6.4136 1.271,2.5174 1.428,3.3678 1.731,9.3924 0.336,6.6702 0.351,7.8441 0.15,11.9821 -0.06,1.305 0.344,3.7584 0.966,5.8011 0.594,1.9464 1.092,4.3038 1.109,5.2388 0.01,0.9345 0.249,4.5259 0.519,7.98 0.372,4.7617 0.349,6.9135 -0.09,8.8992 -0.495,2.2141 -0.459,3.3411 0.24,7.2928 1.098,6.2154 1.117,16.3397 0.03,18.8618 -0.426,0.993 -2.208,3.4003 -3.959,5.3499 -4.309,4.7952 -6.173,5.1618 -10.769,2.1177 -4.013,-2.6582 -4.172,-3.191 -4.489,-15.0726 -0.153,-5.7159 -0.329,-12 -0.392,-13.9646 -0.06,-1.9645 -0.462,-4.4743 -0.886,-5.5773 -0.873,-2.2657 -0.579,-4.7481 1.065,-8.9889 l 0.939,-2.4217 -1.401,-2.1026 c -1.985,-2.9793 -2.295,-4.5151 -1.833,-9.0703 0.254,-2.4891 0.227,-4.653 -0.07,-5.7621 -0.328,-1.227 -0.304,-2.7519 0.07,-4.9371 0.468,-2.6856 0.429,-3.6006 -0.256,-6.0822 -0.444,-1.6065 -1.145,-3.5639 -1.557,-4.3497 -0.861,-1.6418 -1.726,-8.2955 -1.579,-12.1443 0.24,-6.3108 -0.393,-13.977 -1.352,-16.3551 -0.375,-0.9315 -0.447,-3.4097 -0.231,-7.9464 0.291,-6.0892 0.237,-6.7753 -0.709,-8.9745 -0.564,-1.3095 -1.025,-2.9581 -1.025,-3.6633 0,-1.2705 -0.01,-1.2795 -2.5,-0.954 -1.376,0.18 -4.965,0.48 -7.977,0.6645 -3.013,0.1845 -5.75,0.5085 -6.083,0.7185 -0.333,0.21 -2.047,0.4785 -3.81,0.597 -1.762,0.12 -5.776,0.4365 -8.919,0.7095 -3.143,0.273 -8.18,0.5805 -11.192,0.681 -6.876,0.231 -10.716,0.6045 -12.893,1.251 -0.936,0.279 -3.828,0.753 -6.429,1.053 l -4.729,0.5475 0.171,1.428 c 0.09,0.786 0.23,4.4325 0.3,8.1045 0.07,3.672 0.384,7.9032 0.696,9.4027 0.312,1.5 0.45,3.1029 0.308,3.5631 -0.711,2.3009 -1.014,14.3474 -0.582,23.1843 l 0.135,2.8215 19.725,-0.03 c 11.099,-0.015 20.091,0.165 20.559,0.4095 1.14,0.597 1.049,2.1594 -0.163,2.8085 -1.218,0.6525 -9.102,1.7899 -14.903,2.151 -2.352,0.15 -4.697,0.4905 -5.21,0.765 -0.513,0.2745 -2.242,0.579 -3.842,0.6765 -5.124,0.3135 -15.738,1.5121 -16.652,1.8814 -0.741,0.3 -0.823,0.636 -0.507,2.0729 0.209,0.9435 0.422,4.0729 0.474,6.9541 0.06,2.8814 0.2,7.8105 0.327,10.9538 0.12,3.1432 0.105,8.9071 -0.06,12.8086 -0.256,6.1448 -0.412,7.164 -1.159,7.62 -1.238,0.7545 -2.38,-0.813 -3.133,-4.2966 -0.333,-1.5384 -0.909,-3.9898 -1.281,-5.4477 -0.372,-1.458 -0.677,-3.6685 -0.677,-4.9128 0,-1.245 -0.235,-2.7019 -0.523,-3.2392 -0.288,-0.537 -0.807,-2.7201 -1.154,-4.8504 -0.346,-2.1302 -0.868,-4.8048 -1.156,-5.9438 -0.29,-1.1385 -0.392,-2.787 -0.227,-3.6625 0.338,-1.7984 -0.864,-5.9948 -1.982,-6.9227 -0.561,-0.465 -1.503,-0.4155 -4.617,0.243 -6.428,1.359 -9.024,1.745 -11.533,1.716 -1.31,-0.015 -3.051,0.1665 -3.87,0.4035 -0.952,0.276 -2.191,0.243 -3.44,-0.09 -1.725,-0.4605 -2.179,-0.393 -3.918,0.585 -1.575,0.885 -2.391,1.047 -4.094,0.8145 -1.447,-0.198 -2.563,-0.06 -3.493,0.4155 -1.047,0.5415 -2.345,0.6405 -5.563,0.4215 -3.51,-0.2385 -4.782,-0.105 -7.769,0.774 -1.964,0.582 -5.286,1.2405 -7.382,1.464 -2.095,0.2235 -4.736,0.633 -5.867,0.912 -1.131,0.2775 -2.759,0.3735 -3.616,0.213 -0.856,-0.1605 -2.395,-0.075 -3.419,0.1965 -2.918,0.765 -11.103,1.6553 -14.16,1.5401 -3.73,-0.135 -4.132,0.279 -4.132,4.3143 0,1.8099 -0.3,4.0081 -0.666,4.8849 -0.366,0.8775 -0.912,3.8841 -1.214,6.6826 -0.301,2.7987 -0.72,5.5569 -0.93,6.1296 -0.21,0.573 -0.408,1.8696 -0.441,2.8823 -0.09,3.0381 -1.8,4.1806 -3.115,2.0878 -0.45,-0.717 -0.769,-3.2427 -0.963,-7.62 -0.985,-22.2535 -0.465,-20.1781 -4.62,-18.3903 -1.947,0.837 -2.895,0.963 -5.371,0.7095 -2.259,-0.231 -3.529,-0.105 -5.106,0.492 -4.11,1.5677 -35.944,0.7305 -38.773,-1.02 -0.525,-0.3255 -2.347,-0.7365 -4.048,-0.915 -6.294,-0.66 -5.703,-0.8625 -6.686,2.2946 -0.78,2.5035 -0.801,2.9628 -0.191,4.1434 1.085,2.0972 0.879,5.6337 -0.439,7.5752 -0.62,0.912 -1.353,2.7181 -1.629,4.0137 -0.432,2.0254 -0.374,2.6073 0.415,4.1538 0.809,1.5861 0.884,2.4609 0.635,7.4077 -0.156,3.0851 -0.596,6.605 -0.977,7.8219 -0.64,2.0412 -0.618,2.4365 0.281,5.1047 0.535,1.5906 0.973,3.2943 0.973,3.7858 0,1.9859 4.233,3.8988 8.628,3.8988 1.592,0 4.014,0.3255 5.383,0.723 1.368,0.3975 3.973,0.723 5.788,0.7215 1.815,0 5.228,0 7.586,0 2.357,1e-4 5.266,-0.2295 6.463,-0.51 1.72,-0.4035 2.607,-0.363 4.228,0.1965 1.426,0.492 2.405,0.5715 3.217,0.264 1.483,-0.564 11.368,-0.198 13.171,0.4875 1.065,0.405 1.921,0.342 3.929,-0.291 2.41,-0.759 2.724,-0.7605 5.111,-0.01 1.916,0.6045 3.419,0.7275 6.095,0.501 2.864,-0.2415 3.862,-0.135 5.154,0.528 1.522,0.7875 1.738,0.7875 4.349,0 2.59,-0.7845 2.889,-0.786 5.203,-0.03 1.857,0.6075 2.823,0.6885 3.962,0.333 2.511,-0.783 14.623,-1.5294 16.728,-1.0305 1.038,0.246 3.182,0.339 4.763,0.207 1.582,-0.135 5.662,-0.045 9.067,0.18 4.781,0.324 6.611,0.2775 8.037,-0.2085 2.465,-0.8385 4.233,-0.792 6.992,0.1875 2.007,0.7125 2.724,0.7425 5.668,0.2385 4.208,-0.7215 6.777,-0.732 9.098,-0.03 1.505,0.4515 2.153,0.4005 3.866,-0.3045 1.473,-0.6045 3.683,-0.8895 7.772,-1.002 5.549,-0.1515 10.376,-0.72 14.291,-1.683 1.869,-0.4605 5.622,-0.135 12.141,1.038 1.44,0.261 5.28,0.4875 8.533,0.5055 3.252,0.015 6.413,0.2235 7.025,0.456 0.612,0.2325 3.417,0.45 6.232,0.4815 2.834,0.03 6.266,0.372 7.689,0.759 1.415,0.3855 3.034,0.585 3.599,0.444 1.467,-0.3675 6.011,0.4305 6.445,1.1325 0.565,0.915 0.03,2.2245 -1.106,2.7343 -2.405,1.0755 -6.334,2.1378 -8.829,2.3888 -1.474,0.15 -3.426,0.666 -4.339,1.1505 -0.914,0.4845 -2.153,0.8805 -2.755,0.8805 -0.603,0 -1.571,0.297 -2.151,0.66 -0.58,0.363 -3.605,1.125 -6.723,1.6942 -3.118,0.5685 -6.547,1.5015 -7.62,2.0726 -1.609,0.8565 -2.656,1.0245 -5.963,0.96 -3.641,-0.075 -4.278,0.06 -6.905,1.4115 -2.894,1.4895 -4.925,1.8939 -12.756,2.5431 -2.683,0.222 -4.157,0.12 -5.477,-0.3885 -1.44,-0.552 -2.678,-0.603 -6.093,-0.255 -8.127,0.828 -13.763,1.005 -26.194,0.828 -5.948,-0.09 -9.192,0.06 -10.598,0.4905 -1.665,0.504 -2.499,0.4995 -4.692,-0.03 -1.974,-0.474 -3.306,-0.5175 -5.119,-0.168 -1.348,0.2595 -7.058,0.3975 -12.69,0.306 -5.632,-0.09 -10.99,-0.12 -11.906,-0.06 -1.966,0.135 -13.112,0.075 -16.193,-0.075 -1.179,-0.06 -3.215,0.03 -4.524,0.186 -1.75,0.2145 -2.95,0.06 -4.525,-0.5805 z m -49.768,-83.5914 c 1.047,-0.408 2.441,-0.7545 3.095,-0.768 1.472,-0.03 5.392,-1.1925 7.62,-2.2556 2.767,-1.32 20.265,-2.3892 24.702,-1.5099 2.374,0.471 2.723,0.4155 4.903,-0.771 2.57,-1.398 4.571,-1.452 10.837,-0.288 4.468,0.831 4.478,0.8115 3.888,-7.5001 -0.323,-4.5318 -0.323,-7.6088 0,-9.3474 0.417,-2.2562 0.354,-2.8371 -0.488,-4.4852 -0.771,-1.5123 -0.955,-2.7385 -0.912,-6.093 0.03,-2.3098 0.347,-5.164 0.702,-6.3427 0.357,-1.179 0.65,-3.7079 0.653,-5.6202 v -3.4771 l -1.703,-0.711 c -1.549,-0.648 -2.124,-0.624 -6.386,0.2595 -2.576,0.534 -5.327,0.8415 -6.112,0.6855 -0.786,-0.1575 -3.68,-0.03 -6.43,0.282 -4.622,0.525 -5.158,0.4995 -7.072,-0.348 -1.798,-0.795 -2.289,-0.837 -3.733,-0.315 -3.744,1.3515 -14.398,0.4395 -17.333,-1.4835 -0.781,-0.513 -1.685,-0.642 -3.01,-0.429 -1.329,0.213 -2.353,0.06 -3.437,-0.495 -1.63,-0.843 -2.887,-0.6975 -2.887,0.3345 0,0.339 -0.444,1.4475 -0.988,2.4606 -0.638,1.188 -0.882,2.2628 -0.692,3.0244 0.318,1.2645 0.308,5.631 -0.03,11.7868 -0.12,2.0955 -0.205,4.8509 -0.204,6.1229 0,4.1253 -0.882,10.2403 -1.658,11.424 -0.64,0.978 -0.721,2.3868 -0.529,9.187 0.12,4.4178 0.24,8.0438 0.256,8.0576 0.26,0.216 5.524,-0.834 6.936,-1.3845 z m 80.429,-6.7916 c 1.862,-0.6345 2.604,-0.672 4.252,-0.2115 1.991,0.555 14.863,0.3825 18.204,-0.2445 0.882,-0.165 2.76,0.06 4.43,0.5265 2.475,0.6945 3.337,0.732 5.895,0.2505 1.647,-0.309 3.959,-0.5445 5.138,-0.5205 1.179,0.03 4.286,-0.105 6.906,-0.273 2.619,-0.174 6.584,-0.297 8.81,-0.273 2.227,0.03 4.906,0.045 5.953,0.045 1.049,0 3.355,0.03 5.127,0.045 3.847,0.045 4.132,-0.327 3.091,-3.9877 -0.493,-1.7328 -0.601,-3.2301 -0.352,-4.8585 0.279,-1.8266 0.174,-2.7269 -0.473,-4.0205 -1.623,-3.25 -2.382,-6.4282 -2.331,-9.7632 0.03,-2.4303 -0.236,-4.0434 -1.005,-5.953 -0.86,-2.129 -1.013,-3.2436 -0.824,-5.9532 0.186,-2.6547 0.05,-3.6936 -0.666,-5.1006 -0.495,-0.972 -0.898,-2.3917 -0.898,-3.1552 0,-0.7635 -0.135,-2.0579 -0.297,-2.8764 -0.278,-1.3875 -0.435,-1.488 -2.323,-1.488 -1.115,0 -2.748,0.3 -3.632,0.666 -1.234,0.5115 -2.761,0.5835 -6.601,0.3135 -4.14,-0.291 -5.405,-0.21 -7.382,0.4695 -1.801,0.6195 -4.839,0.9015 -12.388,1.149 -14.753,0.483 -17.917,0.696 -19.63,1.314 -1.239,0.4485 -2.16,0.414 -4.612,-0.174 -2.838,-0.6795 -3.315,-0.669 -6.48,0.135 -1.879,0.477 -3.986,0.945 -4.683,1.038 -1.227,0.1665 -1.267,0.2715 -1.306,3.4633 -0.06,4.9839 -0.938,9.6747 -2.1,11.2479 -1.412,1.9092 -1.703,4.1872 -0.768,5.9962 0.988,1.91 0.948,3.3945 -0.2,7.4792 -1.518,5.4016 -1.803,6.9495 -1.971,10.7157 l -0.16,3.5718 2.756,0.2955 c 1.517,0.1635 2.892,0.4305 3.056,0.5955 0.582,0.582 5.24,0.288 7.465,-0.4695 z m -75.19,-58.0937 c 1.309,-0.3615 2.986,-0.66 3.725,-0.663 0.739,0 2.239,-0.5295 3.334,-1.1715 2.687,-1.575 5.318,-1.9277 7.785,-1.044 1.74,0.624 2.266,0.627 4.263,0.03 3.062,-0.921 9.875,-0.9285 12.438,-0.012 1.929,0.69 2.132,0.669 4.634,-0.477 2.727,-1.248 4.904,-1.275 8.715,-0.105 1.255,0.3855 1.847,0.306 3.066,-0.405 1.305,-0.762 1.525,-1.173 1.616,-3.016 0.559,-11.3448 1.564,-16.44 3.819,-19.3887 1.001,-1.308 1.391,-2.3765 1.44,-3.9381 0.15,-4.8717 0.788,-7.8942 2.136,-10.1276 0.753,-1.248 1.37,-2.5086 1.37,-2.8009 0,-0.5265 -1.984,-0.4575 -10.032,0.3495 -2.419,0.243 -3.464,0.135 -4.62,-0.459 -1.695,-0.876 -5.175,-0.9975 -8.542,-0.297 -1.257,0.261 -6.357,0.5535 -11.334,0.648 -7.271,0.135 -9.657,0.015 -12.145,-0.6135 -2.359,-0.5985 -3.713,-0.684 -5.691,-0.3585 -1.98,0.3255 -3.25,0.246 -5.351,-0.339 -4.212,-1.1715 -3.978,-1.4475 -3.906,4.5919 0.05,3.4214 -0.171,6.0462 -0.584,7.2627 -0.355,1.047 -0.649,2.9091 -0.654,4.1363 0,1.227 -0.253,2.8344 -0.555,3.5718 -0.331,0.81 -0.582,4.7346 -0.631,9.9132 -0.07,7.1608 -0.222,8.8377 -0.924,10.1826 -0.737,1.4085 -0.767,1.8861 -0.248,3.81 0.821,3.0375 0.767,2.9955 2.735,2.1445 0.969,-0.4185 2.832,-1.0575 4.142,-1.419 z m 221.207,-2.7798 c 0,-0.5415 -0.46,-1.9491 -1.009,-3.1278 -1.176,-2.5212 -1.275,-4.7766 -0.404,-9.1485 0.614,-3.0791 0.593,-3.3129 -0.609,-6.4293 -1.135,-2.9454 -1.234,-3.7445 -1.113,-8.9492 0.08,-3.1432 0.194,-5.9292 0.267,-6.1912 0.08,-0.2625 0.105,-1.932 0.08,-3.7113 -0.06,-3.1577 -0.105,-3.2912 -2.246,-5.576 -3.848,-4.1145 -7.403,-5.0872 -13.05,-3.5715 -1.44,0.387 -3.248,0.705 -4.017,0.7095 -0.768,0 -2.269,0.426 -3.333,0.9405 -1.578,0.762 -3.039,0.9465 -7.89,0.9975 -3.274,0.03 -7.275,-0.2115 -8.89,-0.546 -2.297,-0.4755 -3.348,-0.486 -4.818,-0.045 -1.034,0.3105 -3.085,0.564 -4.557,0.564 -1.471,0 -3.635,0.2565 -4.806,0.57 -1.791,0.4785 -2.537,0.441 -4.692,-0.2385 -3.164,-0.9975 -5.882,-1.029 -8.12,-0.09 -0.941,0.393 -2.789,0.714 -4.107,0.714 -1.769,0 -2.396,0.18 -2.396,0.6855 0,0.378 0.214,0.819 0.475,0.981 0.263,0.162 0.476,1.122 0.476,2.1348 0,1.2585 0.369,2.2791 1.168,3.2294 1.778,2.1123 3.253,6.4654 2.908,8.5803 -0.195,1.1955 0.105,3.1648 0.907,6.058 0.659,2.3576 1.199,4.9152 1.203,5.6838 0,0.768 0.471,2.3592 1.041,3.5349 0.969,2.003 1.004,2.4243 0.533,6.6987 -0.276,2.5088 -0.402,4.6686 -0.279,4.7996 0.3,0.3195 11.067,0.714 13.475,0.495 0.656,-0.06 3.548,0.15 6.43,0.453 4.372,0.468 7.6,0.4605 14.049,-0.03 1.507,-0.12 9.489,0.3225 9.702,0.534 0.12,0.12 5.492,0.237 11.93,0.2535 11.53,0.03 11.705,0.015 11.695,-0.9525 z m -94.363,-1.062 c 2.709,-0.12 5.528,-0.013 6.266,0.243 1.263,0.441 1.354,0.381 1.591,-1.0395 0.135,-0.8295 0.188,-4.4004 0.105,-7.9365 -0.105,-5.1275 0.03,-6.9951 0.714,-9.2231 0.624,-2.0395 0.731,-3.1194 0.396,-4.0008 -0.579,-1.5235 -0.06,-6.676 0.816,-8.0716 0.363,-0.5805 0.662,-1.9731 0.663,-3.0956 0,-1.1565 0.39,-2.6772 0.897,-3.5092 0.492,-0.807 1.038,-2.1189 1.214,-2.9139 0.306,-1.3935 0.232,-1.473 -2.059,-2.2226 -3.211,-1.05 -5.198,-0.984 -13.023,0.4335 -5.842,1.059 -6.999,1.14 -9.199,0.648 -1.92,-0.4305 -3.036,-0.432 -4.716,-0.01 -1.791,0.4515 -2.908,0.411 -6.008,-0.2175 -3.491,-0.708 -3.965,-0.708 -5.708,-0.011 -1.045,0.4185 -2.914,0.7725 -4.152,0.789 -1.239,0.015 -3.29,0.198 -4.557,0.4065 -1.267,0.2085 -3.303,0.186 -4.524,-0.045 -1.221,-0.2355 -5.891,-0.474 -10.376,-0.5295 l -8.154,-0.105 -0.324,5.1091 c -0.306,4.8377 -0.266,5.1873 0.765,6.5808 0.964,1.305 1.08,1.9686 1.012,5.8482 -0.05,2.4071 -0.225,5.9535 -0.405,7.881 -0.25,2.6655 -0.135,4.239 0.501,6.5721 0.494,1.8258 0.734,3.9218 0.593,5.178 -0.323,2.8571 0.408,3.45 2.981,2.4204 2.169,-0.8685 8.715,-1.0515 10.693,-0.2985 0.813,0.309 3.693,0.3045 8.438,-0.014 6.158,-0.414 7.528,-0.375 9.441,0.2595 1.656,0.5505 2.568,0.618 3.501,0.264 2.124,-0.807 9.778,-0.486 12.214,0.513 1.401,0.5745 2.72,0.7815 3.81,0.6 0.916,-0.153 3.883,-0.3795 6.591,-0.5025 z m 70.2,-93.0039 c -4.174,-2.6063 -4.574,-7.5542 -0.92,-11.3769 2.549,-2.6663 3.474,-2.9418 8.951,-2.6657 5.396,0.2715 6.532,0.7245 9.475,3.7769 l 1.667,1.7289 -1.912,3.6376 c -2.501,4.7592 -3.257,5.1702 -10.233,5.5613 -4.99,0.2805 -5.615,0.2205 -7.029,-0.6615 z"
       id="vctrly-chalky-icon-telephone-2" /></g></svg>
