<?xml version="1.0" encoding="UTF-8" standalone="no"?>
<!-- Created with Inkscape (http://www.inkscape.org/) -->

<svg
   width="514.79761mm"
   height="752.70905mm"
   viewBox="0 0 514.79763 752.70906"
   version="1.1"
   id="svg1"
   xml:space="preserve"
   xmlns="http://www.w3.org/2000/svg"
   xmlns:svg="http://www.w3.org/2000/svg"><defs
     id="defs1" /><g
     id="layer1"
     transform="translate(-11724.602,-171.69513)"><path
       style="fill:#000000;stroke-width:1"
       d="m 11987.322,924.0722 c -5.468,-1.1325 -7.675,-1.332 -9.564,-0.8655 -1.069,0.264 -2.517,0.366 -3.215,0.225 -0.699,-0.135 -6.024,-0.336 -11.835,-0.435 -9.845,-0.1665 -10.761,-0.252 -13.438,-1.2435 -2.471,-0.915 -3.136,-1.0005 -4.758,-0.603 -1.467,0.3585 -2.713,0.3 -5.612,-0.2685 -2.447,-0.4785 -5.935,-0.7275 -10.156,-0.7245 -9.121,0.007 -13.608,-0.528 -17.726,-2.115 -1.907,-0.735 -4.432,-1.62345 -5.611,-1.97505 -7.924,-2.3643 -8.365,-2.60115 -12.737,-6.8454 -2.293,-2.22555 -4.43,-4.4625 -4.748,-4.97085 -0.82,-1.3095 -0.745,-4.0281 0.159,-5.7741 2.09,-4.03875 14.799,-10.65225 20.47,-10.65225 1.227,0 2.727,-0.372 3.759,-0.93 1.466,-0.7935 2.243,-0.8985 5.297,-0.7185 3.429,0.2025 6.847,-0.27 9.868,-1.3635 0.742,-0.2685 3.635,-0.5715 6.429,-0.6765 2.794,-0.105 5.764,-0.321 6.6,-0.483 0.836,-0.162 2.604,-0.06 3.928,0.234 1.863,0.4095 3.698,0.4155 8.102,0.03 4.382,-0.3885 6.132,-0.384 7.596,0.0136 1.454,0.399 2.218,0.4035 3.241,0.0138 0.737,-0.279 1.98,-0.513 2.763,-0.519 0.783,-0.005 3.889,-0.03 6.902,-0.06 8.748,-0.075 9.89,-0.03 16.668,0.5355 8.242,0.6885 7.707,0.696 12.065,-0.171 3.168,-0.63 4.354,-0.66899 7.859,-0.252 2.27,0.27 4.967,0.777 5.993,1.1295 1.527,0.522 2.291,0.546 4.201,0.12 2.906,-0.639 5.33,-0.3015 8.694,1.212 2.332,1.0485 2.785,1.1175 4.2,0.6495 2.14,-0.7095 4.618,-0.6615 6.683,0.12 1.074,0.411 3.265,0.657 5.892,0.66 4.083,0.005 8.18,0.8325 11.441,2.30925 1.167,0.528 3.66,1.0635 11.719,2.514 2.556,0.459 8.354,4.07745 9.246,5.76915 3.865,7.3269 3.869,8.7378 0.03,13.29315 -2.451,2.9133 -7.236,5.35455 -12.544,6.4002 -2.095,0.4125 -5.358,1.134 -7.251,1.605 -1.894,0.471 -4.291,0.8535 -5.327,0.8535 -1.037,0 -2.466,0.2025 -3.178,0.4515 -1.296,0.453 -11.391,1.275 -18.533,1.51215 -5.518,0.183 -15.734,1.0305 -19.05,1.5804 -5.176,0.858 -11.064,0.9045 -13.822,0.105 -2.334,-0.6735 -2.647,-0.675 -4.474,-0.005 -2.097,0.7695 -3.566,0.837 -6.231,0.285 z m -2.239,-79.93529 c -2.667,-0.483 -3.824,-1.0935 -6.099,-3.2175 -1.05,-0.981 -2.443,-2.0106 -3.096,-2.28915 -0.652,-0.279 -2.184,-0.9255 -3.404,-1.4385 -1.653,-0.6945 -2.417,-1.3455 -2.999,-2.55015 -0.431,-0.8895 -0.945,-1.9131 -1.145,-2.27325 -0.199,-0.36 -2.065,-1.68255 -4.144,-2.9382 -2.08,-1.2555 -4.853,-3.04695 -6.163,-3.9804 -1.309,-0.9345 -3.291,-2.21745 -4.404,-2.853 -1.113,-0.636 -2.503,-1.82685 -3.09,-2.6475 -0.587,-0.8205 -1.75,-1.79085 -2.585,-2.15595 -3.031,-1.326 -6.334,-3.8619 -7.722,-5.92995 -1.068,-1.59075 -1.869,-2.24865 -3.239,-2.658 -1.832,-0.5475 -4.195,-1.89989 -8.367,-4.78889 -1.243,-0.861 -3.317,-3.0171 -4.607,-4.7916 -1.292,-1.7745 -2.968,-3.5337 -3.726,-3.90945 -3.018,-1.4955 -5.807,-3.7065 -7.248,-5.74545 -0.834,-1.1805 -2.464,-2.74305 -3.623,-3.4743 -1.16,-0.732 -2.425,-1.8912 -2.812,-2.57715 -0.387,-0.6855 -1.482,-1.68825 -2.432,-2.2272 -0.951,-0.5385 -2.448,-2.0097 -3.326,-3.26835 -1.038,-1.4865 -2.104,-2.4504 -3.044,-2.75115 -2.057,-0.657 -3.795,-2.5536 -4.137,-4.5126 -0.24,-1.3755 -0.63,-1.85415 -2.156,-2.64045 -1.08,-0.5565 -2.453,-1.8381 -3.265,-3.0492 -0.771,-1.149 -2.488,-2.80425 -3.816,-3.67905 -1.328,-0.8745 -2.891,-2.23395 -3.474,-3.02085 -0.584,-0.786 -3.37,-3.6495 -6.193,-6.36135 -4.171,-4.00635 -5.239,-5.3031 -5.699,-6.91755 -0.411,-1.4415 -1.238,-2.5851 -3.014,-4.17 -1.345,-1.2 -2.891,-2.99535 -3.435,-3.98745 -0.613,-1.119 -1.417,-1.9032 -2.12,-2.0649 -1.748,-0.402 -3.597,-1.93155 -4.672,-3.86384 -0.537,-0.966 -2.222,-3.192 -3.744,-4.9482 -1.522,-1.7562 -3.122,-4.0461 -3.557,-5.08875 -0.57,-1.368 -1.278,-2.13675 -2.545,-2.76165 -0.966,-0.4755 -2.188,-1.51725 -2.716,-2.3136 -0.528,-0.7965 -1.736,-2.3013 -2.684,-3.3447 -0.948,-1.044 -1.867,-2.42145 -2.042,-3.06255 -0.176,-0.6405 -1.364,-2.39895 -2.639,-3.90645 -1.277,-1.5072 -2.858,-3.71475 -3.517,-4.9056 -0.658,-1.191 -1.562,-2.4438 -2.01,-2.78445 -1.277,-0.972 -4.797,-6.13635 -5.443,-7.986 -0.897,-2.5665 -2.444,-4.79565 -4.442,-6.39675 -0.998,-0.801 -2.252,-2.2587 -2.788,-3.2421 -0.535,-0.984 -1.89,-2.6724 -3.011,-3.75315 -1.771,-1.7073 -2.227,-2.58015 -3.478,-6.65415 -1.293,-4.2138 -1.699,-4.9662 -4.007,-7.4235 -1.413,-1.50405 -2.88,-3.14775 -3.26,-3.65295 -0.381,-0.504 -1.382,-1.75484 -2.226,-2.77754 -0.998,-1.209 -1.731,-2.77605 -2.097,-4.48095 -0.438,-2.04195 -0.907,-2.9103 -2.125,-3.92565 -1.781,-1.4865 -3.633,-5.37345 -4.512,-9.46905 -0.502,-2.3397 -0.997,-3.20925 -3.171,-5.5572 -1.416,-1.53105 -2.73,-2.7837 -2.919,-2.7837 -0.607,0 -1.839,-2.3517 -2.124,-4.0569 -0.189,-1.128 -0.964,-2.35725 -2.435,-3.8568 -1.744,-1.779 -2.219,-2.6211 -2.475,-4.3887 -0.183,-1.2645 -0.761,-2.6772 -1.37,-3.34845 -1.642,-1.8111 -2.146,-2.93115 -2.146,-4.76265 0,-1.2825 -0.323,-1.9764 -1.328,-2.8593 -0.729,-0.6405 -2.039,-2.49555 -2.91,-4.1211 -0.87,-1.6254 -2.021,-3.72435 -2.557,-4.66425 -0.605,-1.0605 -0.957,-2.4684 -0.927,-3.71175 0.03,-1.51725 -0.27,-2.4264 -1.262,-3.74955 -1.237,-1.6509 -3.806,-6.3045 -5.491,-9.94649 -0.42,-0.9075 -1.104,-3.1632 -1.521,-5.013 -0.604,-2.6856 -1.173,-3.8691 -2.815,-5.87295 -1.314,-1.6032 -2.178,-3.1839 -2.391,-4.3758 -0.183,-1.026 -1.077,-3.294 -1.986,-5.0397 -0.909,-1.74555 -1.833,-4.34835 -2.055,-5.7837 -0.222,-1.4415 -0.82,-3.0981 -1.338,-3.70005 -0.514,-0.6 -1.084,-1.82205 -1.267,-2.7165 -0.183,-0.894 -0.66,-2.2059 -1.059,-2.9145 -0.495,-0.879 -0.65,-1.99485 -0.485,-3.5085 0.185,-1.69335 0.03,-2.5413 -0.655,-3.5733 -0.494,-0.744 -1.209,-2.8428 -1.589,-4.66365 -0.38,-1.821 -1.241,-4.25655 -1.911,-5.4123 -0.671,-1.155 -1.221,-2.6922 -1.223,-3.4146 0,-0.7215 -0.345,-1.90305 -0.762,-2.62365 -0.417,-0.72 -0.951,-2.68545 -1.186,-4.3668 -0.242,-1.73115 -0.948,-3.9822 -1.631,-5.19105 -0.661,-1.1745 -1.39,-3.33555 -1.618,-4.80344 -0.228,-1.4685 -0.993,-3.8481 -1.699,-5.28915 -1.151,-2.3481 -1.247,-2.9148 -0.927,-5.4585 0.577,-4.58505 0.448,-5.7396 -0.974,-8.7336 -0.807,-1.6977 -1.428,-3.89145 -1.547,-5.4585 -0.105,-1.4415 -0.612,-3.4191 -1.117,-4.39545 -1.059,-2.0448 -1.131,-2.99475 -0.381,-4.96935 0.466,-1.2285 0.39,-1.65825 -0.579,-3.23115 -1.035,-1.6809 -1.109,-2.22195 -0.981,-7.35165 0.105,-4.1922 -0.06,-6.18075 -0.674,-8.18595 -0.507,-1.65915 -0.715,-3.42 -0.556,-4.7139 0.202,-1.64325 0.01,-2.50275 -0.929,-4.2045 -0.649,-1.176 -1.162,-2.7534 -1.138,-3.50415 0.292,-9.30794 0.484,-12.75224 0.853,-15.30764 0.24,-1.6641 0.275,-3.8256 0.08,-4.80345 -1.677,-8.25555 -1.657,-8.86665 0.392,-12.48945 1.032,-1.82295 1.12,-2.29875 0.666,-3.56025 -0.318,-0.885 -0.434,-3.3411 -0.293,-6.2559 0.449,-9.3009 0.551,-9.90555 2.19,-13.08 1.166,-2.2569 1.643,-3.88785 1.852,-6.3318 0.155,-1.8105 0.542,-3.7209 0.861,-4.2456 0.318,-0.5235 0.579,-1.983 0.579,-3.24105 0,-2.6229 1.184,-8.814 2.181,-11.40465 0.372,-0.9675 0.677,-2.48055 0.677,-3.3621 0,-0.88199 0.856,-3.94274 1.905,-6.80234 1.047,-2.8596 1.905,-5.99985 1.905,-6.97845 0,-0.978 0.328,-2.2089 0.729,-2.7342 0.4,-0.525 1.036,-1.7511 1.41,-2.72415 0.375,-0.9735 1.224,-2.42325 1.889,-3.2226 0.665,-0.7995 1.209,-1.8141 1.209,-2.25495 0,-0.4395 0.416,-1.9941 0.923,-3.45225 0.507,-1.458 1.047,-3.18765 1.197,-3.8436 0.151,-0.6555 0.883,-1.8351 1.629,-2.6202 0.94,-0.9915 1.431,-2.06805 1.605,-3.5295 0.175,-1.4685 0.699,-2.61255 1.735,-3.79545 0.951,-1.083 1.483,-2.18325 1.483,-3.0573 0,-1.476 0.594,-2.7708 1.903,-4.14525 0.458,-0.48 0.945,-1.7052 1.085,-2.72205 0.157,-1.1505 0.879,-2.6355 1.909,-3.93015 0.91,-1.1445 1.807,-2.72325 1.991,-3.5079 0.185,-0.786 1.014,-2.45835 1.843,-3.71925 2.253,-3.42525 9.313,-12.94049 11.119,-14.98649 0.87,-0.9855 1.581,-1.94565 1.581,-2.13405 0,-1.134 4.096,-7.81365 5.286,-8.6208 0.77,-0.522 2.031,-1.9755 2.804,-3.2313 1.935,-3.14385 3.916,-5.11005 6.055,-6.0111 1.82,-0.768 4.429,-3.63435 4.429,-4.86825 0,-1.7016 1.717,-4.00875 5.254,-7.05975 2.12,-1.82865 4.272,-4.0749 4.782,-4.9917 0.513,-0.921 2.242,-2.5995 3.865,-3.7497 1.615,-1.146 4.239,-3.17865 5.829,-4.51785 1.59,-1.3395 3.548,-2.8497 4.351,-3.35625 0.803,-0.507 2.078,-1.8183 2.834,-2.9145 0.756,-1.0965 1.515,-1.9929 1.688,-1.9929 0.172,0 1.255,-0.759 2.405,-1.6863 1.151,-0.927 3.38,-2.28255 4.956,-3.01125 1.925,-0.8895 3.252,-1.87305 4.048,-2.99685 0.651,-0.9195 2.311,-2.3646 3.69,-3.21135 1.378,-0.8475 3.16,-2.27475 3.96,-3.17325 1.05,-1.1805 2.139,-1.81845 3.923,-2.29965 1.358,-0.366 3.248,-1.104 4.2,-1.64145 3.75,-2.11394 5.952,-3.53489 7.336,-4.73519 0.797,-0.69 2.819,-1.74735 4.495,-2.3496 2.024,-0.7275 3.512,-1.6125 4.433,-2.6364 0.762,-0.849 2.22,-1.93215 3.241,-2.40945 1.987,-0.93 9.241,-3.21135 11.668,-3.67065 0.81,-0.153 2.3,-1.056 3.312,-2.00565 1.012,-0.951 2.028,-1.72725 2.258,-1.72725 0.231,0 1.884,-0.5895 3.674,-1.311 1.791,-0.72 4.077,-1.314 5.081,-1.317 1.095,-0.004 2.587,-0.438 3.73,-1.083 3.157,-1.78275 5.653,-2.8203 6.808,-2.83035 0.602,-0.005 2.1,-0.501 3.33,-1.101 1.451,-0.708 3.005,-1.092 4.423,-1.092 3.574,0 7.704,-0.9375 9.451,-2.148 1.718,-1.188 5.45,-1.71945 13.952,-1.98405 2.578,-0.09 4.067,-0.351 4.99,-0.9045 0.785,-0.4695 2.379,-0.8325 3.946,-0.894 1.446,-0.06 3.472,-0.4335 4.502,-0.837 1.146,-0.4485 2.427,-0.6315 3.303,-0.4725 0.853,0.1575 2.27,-0.03 3.511,-0.4665 2.173,-0.7605 4.032,-0.579 7.545,0.7395 1.312,0.492 1.622,0.4455 2.938,-0.447 1.224,-0.8295 2.217,-1.026 5.914,-1.17 6.525,-0.255 14.337,-0.105 15.158,0.27 0.395,0.186 2.859,0.5685 5.479,0.852 2.619,0.2835 6.263,0.804 8.096,1.155 1.834,0.3525 4.834,0.6465 6.668,0.654 1.833,0.008 3.976,0.2685 4.762,0.579 0.902,0.3555 2.586,0.489 4.56,0.363 2.193,-0.135 3.977,0.045 5.953,0.588 1.552,0.4335 4.215,0.93 5.918,1.1025 5.887,0.5985 9.561,1.194 10.156,1.6461 1.122,0.8535 8.48,3.12015 10.132,3.12015 0.908,0 2.447,0.3135 3.42,0.6975 0.974,0.384 3.057,1.086 4.629,1.56195 1.571,0.4755 3.607,1.4085 4.524,2.0727 0.916,0.6645 2.775,1.4505 4.128,1.74825 1.355,0.297 2.854,0.813 3.334,1.1475 0.48,0.333 1.448,0.612 2.151,0.6195 1.971,0.03 3.464,0.6855 6.285,2.79165 1.784,1.3335 3.237,2.0316 4.658,2.2425 1.136,0.168 3.03,0.843 4.209,1.4985 2.188,1.2165 6.822,3.48105 10.239,5.0013 1.049,0.4665 2.403,1.257 3.011,1.7562 1.055,0.867 2.681,1.72455 7.054,3.7233 2.771,1.26599 7.49,4.52249 9.477,6.53834 0.924,0.9375 2.688,2.1396 3.922,2.6712 1.233,0.5325 3.382,1.9221 4.776,3.09015 1.394,1.167 3.486,2.7504 4.65,3.51645 1.164,0.7665 2.115,1.563 2.115,1.7709 0,0.207 1.018,0.777 2.262,1.266 2.671,1.0485 4.122,2.20305 4.884,3.89085 0.324,0.717 1.183,1.4565 2.062,1.7733 2.015,0.7275 4.016,2.45235 5.115,4.41195 0.495,0.8835 1.294,1.72035 1.776,1.8603 1.162,0.339 13.41,11.80575 15.08,14.1195 0.721,1.0005 2.026,2.2041 2.9,2.67675 0.873,0.474 2.025,1.64505 2.56,2.6052 0.534,0.96 1.18,1.8642 1.437,2.0091 0.255,0.15 1.347,1.485 2.426,2.97705 1.079,1.4925 2.89,3.3453 4.023,4.1169 2.168,1.476 4.447,4.11135 5.773,6.6756 0.435,0.84 1.404,2.68575 2.155,4.10055 0.75,1.4145 1.363,2.8026 1.363,3.08415 0,0.282 0.653,1.086 1.449,1.78485 0.797,0.7005 2.847,3.14399 4.556,5.43104 1.709,2.2869 4.187,5.3373 5.508,6.7782 2.583,2.8188 3.727,4.80915 3.727,6.48285 0,0.579 0.338,1.3095 0.75,1.6233 0.863,0.6555 5.917,9.99795 5.917,10.93455 0,0.3405 0.77,1.6695 1.71,2.95005 2.28,3.10335 3.053,4.90275 3.053,7.10535 0,1.93665 0.999,3.8211 4.417,8.3358 1.115,1.4715 2.064,3.34395 2.312,4.55955 0.231,1.134 0.834,2.4666 1.338,2.961 1.32,1.293 1.934,3.0453 1.934,5.52075 0,1.5537 0.391,2.83635 1.39,4.55205 0.929,1.5969 1.501,3.3678 1.725,5.3412 0.184,1.6236 0.52,3.16665 0.748,3.429 0.228,0.26249 1.056,1.63784 1.842,3.05669 1.11,2.00625 1.428,3.1623 1.432,5.1999 0,2.6037 1.038,5.87415 2.825,8.952 1.369,2.358 1.561,3.942 0.769,6.3342 -1.018,3.0813 -0.93,3.7269 0.816,5.90325 1.487,1.85295 1.552,2.1054 1.641,6.38475 0.07,3.86745 0.261,4.7601 1.37,6.76515 1.23,2.22435 1.269,2.51385 1.059,7.82385 -0.12,3.03285 -0.02,5.98755 0.217,6.56625 1.187,2.8695 1.838,19.81514 1.206,31.40114 -0.285,5.2119 -0.706,7.24305 -1.9,9.15735 -1.813,2.904 -2.714,6.44385 -2.436,9.56235 0.204,2.289 0.05,3.49095 -0.794,5.73435 -0.705,1.90335 -0.969,3.41385 -0.801,4.58505 0.15,1.032 -0.05,2.4624 -0.456,3.4935 -0.388,0.9615 -1.116,3.41715 -1.618,5.4585 -0.501,2.0415 -1.267,4.7925 -1.701,6.11355 -0.433,1.32 -0.922,3.7773 -1.086,5.4585 -0.189,1.9473 -0.664,3.6114 -1.308,4.5852 -0.556,0.84 -1.129,2.39355 -1.273,3.4512 -0.15,1.0575 -0.707,2.4744 -1.251,3.14835 -0.567,0.7035 -0.989,1.89134 -0.989,2.78864 0,0.8595 -0.429,2.33385 -0.952,3.2754 -0.524,0.942 -0.953,2.4582 -0.953,3.37035 0,0.912 -0.51,2.54115 -1.132,3.61995 -1.214,2.1012 -4.582,11.38965 -4.582,12.63405 0,0.4125 -0.621,1.61865 -1.38,2.6805 -0.861,1.2045 -1.671,3.2376 -2.153,5.40555 -0.425,1.911 -1.097,3.92655 -1.491,4.47855 -0.395,0.552 -0.929,2.0265 -1.188,3.2763 -0.287,1.3845 -0.933,2.7153 -1.654,3.4056 -0.933,0.8925 -1.185,1.59075 -1.19,3.2925 0,2.4306 -1.608,6.0105 -3.313,7.39965 -0.59,0.48 -1.853,1.9494 -2.806,3.2646 -1.6,2.20605 -1.754,2.70225 -1.987,6.41145 -0.23,3.63135 -0.399,4.20675 -1.765,5.94975 -0.831,1.062 -1.943,3.3567 -2.47,5.10104 -0.526,1.74405 -1.467,3.7875 -2.09,4.5408 -0.622,0.7545 -1.281,2.2386 -1.462,3.30045 -0.183,1.062 -0.966,2.7216 -1.742,3.6885 -0.775,0.9675 -1.41,1.9956 -1.41,2.2857 0,0.291 -0.711,1.308 -1.579,2.2611 -0.868,0.954 -1.956,2.69145 -2.417,3.8622 -0.461,1.17 -1.464,3.42195 -2.231,5.0022 -0.766,1.5804 -1.392,3.41865 -1.392,4.0851 0,1.77195 -1.99,5.1168 -5.168,8.68485 -1.535,1.72365 -2.953,3.62535 -3.151,4.2258 -0.198,0.6015 -0.96,2.0742 -1.695,3.27495 -0.735,1.2 -1.666,3.354 -2.07,4.7847 -0.404,1.431 -1.179,3.10095 -1.723,3.71175 -0.543,0.6105 -1.44,1.99485 -1.992,3.07575 -0.552,1.0815 -1.611,2.77785 -2.352,3.7713 -0.741,0.993 -1.488,2.6163 -1.66,3.606 -0.173,0.99 -0.93,2.69025 -1.683,3.77865 -0.753,1.0875 -1.682,2.66625 -2.065,3.50625 -0.382,0.84 -1.845,2.64975 -3.249,4.02179 -2.189,2.1384 -7.482,9.49275 -7.482,10.39515 0,0.165 -0.405,1.1085 -0.901,2.0955 -0.495,0.987 -1.464,3.1701 -2.151,4.8513 -0.765,1.8711 -2.221,4.1577 -3.755,5.89515 -1.377,1.56105 -3.142,3.79335 -3.921,4.96035 -1.64,2.45685 -2.991,4.3413 -5.845,8.15235 -2.586,3.45255 -3.343,4.8003 -4.224,7.52115 -0.438,1.353 -1.474,2.9478 -2.73,4.20165 -1.113,1.1115 -2.305,2.6667 -2.649,3.45705 -0.343,0.789 -1.422,2.06745 -2.397,2.8383 -1.035,0.819 -2.839,3.2166 -4.339,5.7666 -1.413,2.4006 -3.533,5.24985 -4.712,6.3318 -1.179,1.083 -2.566,2.7282 -3.083,3.65865 -0.518,0.93 -1.403,1.96905 -1.967,2.3082 -0.564,0.3405 -1.494,1.79384 -2.066,3.23264 -0.765,1.92255 -1.789,3.31065 -3.862,5.235 -1.551,1.44 -3.154,3.21045 -3.562,3.9333 -1.342,2.3814 -5.674,8.0379 -6.784,8.86005 -0.599,0.444 -1.833,1.87125 -2.74,3.17235 -1.028,1.473 -2.28,2.64075 -3.318,3.09495 -1.304,0.57 -1.863,1.2135 -2.559,2.94105 -0.669,1.66125 -1.528,2.6865 -3.453,4.11825 -1.446,1.0755 -2.879,2.59815 -3.288,3.49335 -2.152,4.7136 -5.866,8.6649 -9.985,10.6224 -1.275,0.606 -2.195,1.3665 -2.28,1.8855 -0.393,2.38365 -0.837,3.0699 -3.749,5.7918 -1.728,1.61595 -3.766,3.71385 -4.529,4.66185 -0.762,0.948 -2.163,2.12715 -3.112,2.62005 -1.069,0.555 -2.377,1.88805 -3.44,3.50445 -1.149,1.74855 -2.342,2.92695 -3.616,3.5751 -1.098,0.558 -2.417,1.7625 -3.122,2.8503 -0.672,1.0365 -1.958,2.30415 -2.858,2.8185 -2.258,1.28999 -4.051,2.99654 -6.22,5.91884 -1.485,2.00025 -2.493,2.79915 -5.153,4.08075 -3.132,1.50915 -5.394,3.42555 -9.293,7.87275 -0.774,0.8835 -2.275,1.97595 -3.334,2.4273 -4.051,1.72695 -8.036,5.02725 -10.739,8.89605 -2.95,4.22145 -3.758,4.98675 -6.703,6.34995 -2.893,1.3395 -4.643,1.51275 -8.392,0.834 z m -32.523,-46.92749 c 0.569,-0.8445 1.98,-2.13075 3.135,-2.85945 1.155,-0.729 2.1,-1.51185 2.1,-1.7406 0,-0.5325 -0.812,-0.54 -1.169,-0.0123 -0.15,0.222 -1.395,0.744 -2.766,1.1625 -2.566,0.78 -5.59,2.6637 -5.59,3.4815 0,0.3885 1.831,1.296 2.937,1.4565 0.176,0.03 0.783,-0.6435 1.353,-1.488 z m 9.262,-8.5884 c 1.182,-0.765 2.086,-1.4475 2.008,-1.51965 -0.08,-0.075 -1.092,0.0136 -2.255,0.198 -1.84,0.2865 -2.133,0.483 -2.264,1.5195 -0.09,0.654 -0.03,1.191 0.105,1.191 0.135,0 1.223,-0.6255 2.406,-1.389 z m -36.388,-24.0372 c 1.193,-1.146 2.524,-2.08425 2.96,-2.08425 0.746,0 2.084,-1.6122 1.661,-1.99995 -0.105,-0.09 -1.287,0.5565 -2.62,1.4565 -1.335,0.9 -3.033,1.9833 -3.774,2.40915 -0.741,0.4245 -2.504,1.4505 -3.918,2.27805 -1.415,0.8265 -2.783,1.5681 -3.04,1.64685 -0.267,0.075 -0.12,0.759 0.342,1.57815 l 0.81,1.4355 2.706,-2.31795 c 1.488,-1.275 3.682,-3.2559 4.874,-4.4022 z m 138.787,-12.65805 0.905,-1.404 -1.627,0.945 c -1.896,1.101 -2.334,1.8627 -1.071,1.8627 0.497,0 1.289,-0.621 1.794,-1.404 z m 2.159,-2.745 c 0.342,-0.378 0.388,-0.654 0.105,-0.654 -0.266,0 -0.608,0.294 -0.758,0.654 -0.15,0.36 -0.199,0.6555 -0.105,0.6555 0.09,0 0.432,-0.294 0.758,-0.6555 z m -151.278,-2.853 c 2.456,-1.443 4.474,-2.2902 5.873,-2.46615 1.41,-0.177 2.755,-0.7455 3.974,-1.67925 1.014,-0.7755 2.597,-1.54125 3.519,-1.6998 1.413,-0.243 1.825,-0.5955 2.62,-2.24445 0.608,-1.2585 1.493,-2.2257 2.482,-2.71185 0.846,-0.4155 1.985,-1.1775 2.531,-1.69245 0.546,-0.516 2.295,-1.63604 3.885,-2.49074 1.591,-0.8535 3.167,-1.85775 3.503,-2.22915 0.521,-0.576 0.452,-0.675 -0.468,-0.675 -1.497,0 -4.966,2.0964 -5.921,3.5784 -0.906,1.40699 -3.005,2.53514 -4.716,2.53514 -1.281,0 -5.846,3.1731 -7.111,4.9422 -0.91,1.275 -6.148,3.79125 -7.89,3.79125 -1.845,0 -7.212,3.46905 -7.212,4.66125 0,1.0005 1.075,0.6465 4.932,-1.6191 z m -8.074,-24.62984 c 1.54,-0.705 3.283,-1.7256 3.874,-2.26725 0.591,-0.5415 2.278,-1.305 3.749,-1.69785 2.704,-0.72 5.141,-2.23845 6.024,-3.7518 0.838,-1.4355 -1.55,-1.0065 -3.89,0.6975 -1.15,0.837 -2.351,1.52595 -2.669,1.5282 -0.318,0.002 -1.371,0.642 -2.339,1.4235 -0.967,0.78 -3.156,2.11395 -4.864,2.9631 -1.707,0.849 -3.2,1.8072 -3.317,2.1288 -0.243,0.669 -0.304,0.687 3.432,-1.0245 z m -33.964,0.363 c 0.35,-0.3855 1.862,-1.4655 3.363,-2.3997 3.441,-2.14245 3.927,-2.7792 1.793,-2.3496 -0.874,0.1755 -3.309,0.5445 -5.412,0.819 -4.389,0.573 -4.85,1.098 -2.861,3.2637 1.405,1.5318 2.184,1.69845 3.117,0.6675 z m 221.917,-6.8781 c 3.391,-3.02865 5.213,-5.41155 5.213,-6.81795 0,-0.753 0.337,-1.96485 0.75,-2.6958 0.412,-0.7305 0.643,-1.425 0.514,-1.5441 -0.135,-0.12 -0.463,0.1785 -0.745,0.6585 -0.899,1.5387 -8.634,7.4358 -10.442,7.96065 -2.65,0.7695 -3.933,2.57055 -1.865,2.6181 0.59,0.0137 1.822,0.285 2.738,0.603 0.917,0.318 1.786,0.603 1.932,0.63 0.15,0.03 1.002,-0.6075 1.905,-1.413 z m -231.296,-3.15525 c 0.453,-1.083 0.345,-1.4925 -0.398,-1.4925 -0.882,0 -1.377,0.738 -1.038,1.5492 0.35,0.8355 1.074,0.807 1.436,-0.06 z m 65.63,-2.5941 c 2.979,-1.4505 5.763,-4.15035 4.645,-4.5045 -0.717,-0.2265 -4.239,1.8339 -6.883,4.0275 -2.893,2.40075 -2.073,2.5755 2.238,0.477 z m 11.097,-7.1955 c 1.099,-1.1145 0.363,-1.1145 -1.191,0 -0.867,0.621 -0.984,0.8565 -0.431,0.864 0.419,0.005 1.148,-0.384 1.622,-0.864 z m -90.986,-6.0807 c 0.321,-0.4755 -0.678,-2.6529 -1.216,-2.6529 -0.788,0 -0.99,1.002 -0.404,2.0067 0.647,1.107 1.169,1.3155 1.621,0.6465 z m 37.884,-14.8863 c 0.655,-0.4065 2.54,-1.1505 4.19,-1.65405 3.1,-0.948 4.83,-2.13915 11.852,-8.16495 3.121,-2.67795 4.073,-3.219 7.681,-4.3668 3.725,-1.185 4.221,-1.476 5.192,-3.0567 1.477,-2.40375 1.39,-2.8383 -0.566,-2.8383 -1.323,0 -1.791,0.24 -2.336,1.2 -0.985,1.73625 -2.67,3.0471 -4.833,3.75915 -2.348,0.7725 -6.724,3.1347 -10.391,5.60775 -1.531,1.0335 -3.546,2.3886 -4.477,3.01305 -0.93,0.624 -2.258,1.899 -2.949,2.8323 -0.816,1.1025 -1.935,1.9284 -3.194,2.358 -2.245,0.7665 -3.599,1.69305 -3.244,2.22 0.297,0.4395 1.446,0.09 3.075,-0.9105 z m 233.095,-3.48705 c 0.671,-0.84 1.594,-2.0958 2.053,-2.7891 0.459,-0.693 1.522,-2.11035 2.364,-3.1485 0.842,-1.038 2.078,-2.87805 2.746,-4.08855 1.665,-3.0123 0.632,-2.89185 -2.659,0.309 -1.419,1.3815 -3.73,3.297 -5.135,4.2576 -1.406,0.9615 -3.188,2.2194 -3.962,2.7969 l -1.405,1.0515 2.061,1.65915 c 1.134,0.912 2.21,1.61895 2.39,1.5699 0.182,-0.06 0.878,-0.777 1.548,-1.61775 z m -291.267,-15.2559 c -0.12,-0.348 -0.447,-0.315 -1.08,0.105 -0.543,0.3645 -0.754,0.8205 -0.534,1.149 0.285,0.423 0.527,0.4005 1.08,-0.105 0.393,-0.36 0.633,-0.876 0.534,-1.149 z m 108.708,-11.47349 c 0.275,-0.471 0.395,-0.9525 0.264,-1.071 -0.384,-0.3525 -2.699,1.2165 -2.699,1.82835 0,0.8355 1.84,0.264 2.435,-0.756 z m 205.099,-7.97025 c 1.189,-1.4325 2.319,-3.2007 2.511,-3.93015 0.192,-0.729 0.502,-1.67025 0.693,-2.09055 0.504,-1.119 -0.809,-0.9765 -2.001,0.219 -0.538,0.54 -1.309,1.5822 -1.713,2.3151 -0.404,0.7335 -1.714,2.1618 -2.913,3.1749 -1.199,1.014 -2.18,1.9434 -2.18,2.067 0,0.12 0.351,0.7155 0.778,1.314 0.753,1.053 0.812,1.0635 1.721,0.312 0.518,-0.4275 1.915,-1.94985 3.104,-3.3819 z m -331.401,-12.54795 c 1.333,-1.248 2.423,-2.41365 2.423,-2.58975 0,-0.1755 1.627,-1.5537 3.614,-3.0612 2.403,-1.8222 3.999,-3.4377 4.763,-4.8192 0.631,-1.143 1.149,-2.1621 1.149,-2.2647 0,-0.09 -0.887,0.0137 -1.97,0.2715 -1.366,0.318 -2.205,0.837 -2.738,1.69875 -0.423,0.6825 -1.519,1.54035 -2.436,1.9077 -3.084,1.2345 -5.464,2.5293 -7.546,4.1031 -2.048,1.5495 -2.066,1.5864 -1.821,3.8457 0.43,3.9768 1.135,4.11675 4.562,0.9075 z m 98.91,-0.57 c 1.231,-0.6015 2.724,-1.092 3.316,-1.092 0.592,0 2.194,-0.8355 3.56,-1.85595 2.976,-2.2242 4.248,-2.9325 5.283,-2.94105 0.426,-0.004 1.04,-0.2985 1.364,-0.6555 1.087,-1.2015 -0.768,-1.266 -2.473,-0.09 -0.864,0.5985 -2.703,1.3935 -4.087,1.7661 -2.628,0.708 -4.219,1.5873 -6.671,3.68775 -0.804,0.687 -2.173,1.4595 -3.042,1.71525 -1.206,0.354 -1.334,0.474 -0.536,0.5085 0.576,0.03 2.054,-0.447 3.286,-1.047 z m -106.83,-11.91015 c 2.34,-4.38195 2.326,-4.91565 -0.12,-4.8276 -1.041,0.045 -2.758,-0.291 -3.815,-0.726 -1.057,-0.438 -2.038,-0.6885 -2.181,-0.555 -0.15,0.135 0.4,1.098 1.207,2.1474 0.807,1.05 1.583,2.6925 1.725,3.6507 0.415,2.80755 0.667,3.70755 1.038,3.6963 0.192,-0.006 1.158,-1.52895 2.149,-3.38445 z m 22.533,-2.3454 c 0.903,-0.933 0.902,-0.9345 -0.163,-0.4215 -0.59,0.2835 -1.071,0.705 -1.071,0.936 0,0.6195 0.228,0.525 1.236,-0.516 z m 74.488,0.282 c 0,-0.36 -0.188,-0.654 -0.419,-0.654 -0.229,0 -0.685,0.294 -1.011,0.654 -0.495,0.5475 -0.426,0.654 0.419,0.654 0.58,0 1.011,-0.279 1.011,-0.654 z m 13.353,-8.97195 c 1.507,-1.2165 1.546,-1.305 0.459,-1.0395 -1.293,0.315 -2.858,1.41 -2.858,2.00115 0,0.6765 0.735,0.3825 2.4,-0.9615 z m 78.682,-3.8232 c 1.798,-1.54215 1.686,-2.27025 -0.349,-2.27025 -1.511,0 -1.766,0.1935 -2.858,2.16885 -0.658,1.1925 -1.198,2.2788 -1.198,2.4129 0,0.444 3.072,-1.167 4.405,-2.3115 z m -81.841,-15.6981 c 0.194,-0.18 1.335,-0.621 2.537,-0.9825 2.665,-0.7995 4.416,-2.6571 3.48,-3.69164 -0.903,-0.999 -1.573,-0.804 -2.646,0.76049 -0.528,0.771 -1.758,1.7955 -2.733,2.2758 -1.829,0.9 -2.7,1.965 -1.61,1.965 0.341,0 0.779,-0.15 0.972,-0.327 z m 89.193,-2.71695 c 2.406,-0.1995 4.596,-0.489 4.867,-0.642 0.271,-0.1545 2.205,-0.4575 4.298,-0.6765 2.094,-0.219 4.297,-0.67949 4.896,-1.02299 0.6,-0.3435 2.882,-0.753 5.072,-0.909 2.189,-0.156 4.734,-0.5715 5.654,-0.924 0.919,-0.3525 2.153,-0.6405 2.739,-0.6405 0.587,0 1.876,-0.5895 2.864,-1.3095 0.988,-0.7215 3.214,-1.71285 4.947,-2.20635 1.733,-0.4935 4.758,-1.76475 6.722,-2.8251 4.685,-2.52885 10.356,-5.0103 12.145,-5.3142 0.912,-0.156 2.72,-1.386 5,-3.40395 1.965,-1.7388 4.592,-3.6 5.839,-4.1361 1.5,-0.645 3.491,-2.20695 5.882,-4.6155 2.337,-2.3541 4.274,-3.88275 5.483,-4.32615 2.28,-0.8355 7.039,-5.1027 8.098,-7.2603 0.426,-0.8685 1.984,-2.5356 3.461,-3.70455 1.99,-1.5753 2.818,-2.5833 3.196,-3.89205 0.608,-2.1015 1.999,-3.5886 4.117,-4.40235 0.852,-0.327 1.548,-0.861 1.548,-1.185 0,-1.1655 3.897,-7.9509 5.504,-9.5817 0.964,-0.9795 1.64,-2.12235 1.64,-2.7765 0,-1.73235 1.188,-3.42675 3.302,-4.7097 1.896,-1.152 1.936,-1.2285 1.936,-3.7194 0,-3.08924 0.95,-6.15119 2.576,-8.30219 1.766,-2.33715 3.661,-6.8748 4.126,-9.8832 0.223,-1.4415 0.957,-4.0938 1.63,-5.89515 2.033,-5.4312 3.098,-9.58665 3.098,-12.078 0,-2.484 0.8,-4.737 2.306,-6.49155 0.847,-0.987 0.862,-1.275 0.255,-4.75815 -0.437,-2.5014 -0.5,-4.0647 -0.192,-4.8066 0.25,-0.6045 0.327,-2.3592 0.171,-3.8988 -0.206,-2.0205 -0.07,-3.3819 0.493,-4.89315 0.918,-2.4687 0.986,-4.47945 0.228,-6.7965 -0.42,-1.284 -0.414,-2.7219 0.03,-6.0333 0.503,-3.79964 0.48,-4.51739 -0.177,-5.68244 -0.868,-1.53945 -1.634,-5.9607 -2.007,-11.59185 -0.15,-2.1615 -0.493,-4.323 -0.778,-4.80345 -0.285,-0.48 -0.663,-1.95405 -0.842,-3.27495 -0.177,-1.32 -0.753,-3.48255 -1.278,-4.80345 -2.151,-5.41005 -2.967,-8.51415 -2.667,-10.14135 0.196,-1.0665 0.05,-2.1183 -0.432,-3.0567 -0.402,-0.7875 -1.217,-2.80635 -1.811,-4.48755 -0.594,-1.6812 -2.756,-6.20085 -4.806,-10.0437 -2.322,-4.35315 -3.726,-7.5213 -3.726,-8.40465 0,-0.9855 -0.482,-1.91685 -1.583,-3.05685 -1.616,-1.67355 -3.248,-4.1352 -5.573,-8.40735 -0.718,-1.31999 -2.159,-3.28589 -3.2,-4.36664 -1.041,-1.0815 -2.463,-2.99685 -3.159,-4.2576 -0.696,-1.2615 -1.468,-2.2926 -1.717,-2.2926 -1.141,0 -3.837,-2.81265 -4.329,-4.5159 -0.288,-0.999 -1.001,-2.3073 -1.582,-2.90775 -0.582,-0.6015 -1.626,-1.91085 -2.321,-2.91225 -0.694,-1.0005 -1.989,-2.328 -2.876,-2.9481 -0.886,-0.621 -2.628,-2.39685 -3.871,-3.9483 -1.242,-1.5513 -2.711,-2.9523 -3.264,-3.1134 -0.554,-0.1605 -2.642,-1.72155 -4.641,-3.46755 -2,-1.74615 -4.903,-3.7659 -6.453,-4.48845 -1.55,-0.7215 -3.568,-2.0409 -4.485,-2.9298 -0.916,-0.888 -2.569,-1.9773 -3.673,-2.41875 -1.102,-0.441 -3.356,-1.76355 -5.008,-2.9385 -1.874,-1.3335 -4.224,-2.50935 -6.254,-3.1287 -1.788,-0.546 -3.928,-1.52295 -4.755,-2.1717 -0.826,-0.6495 -2.515,-1.5252 -3.752,-1.94745 -1.237,-0.423 -3.276,-1.6146 -4.532,-2.6499 -2.24,-1.84665 -2.375,-1.89135 -7.138,-2.36655 -2.671,-0.267 -5.775,-0.7995 -6.898,-1.1835 -5.762,-1.97325 -7.616,-2.4687 -11.362,-3.03525 -2.244,-0.339 -4.923,-0.9405 -5.953,-1.3365 -1.504,-0.5775 -2.764,-0.6645 -6.397,-0.4395 -2.562,0.1575 -5.223,0.09 -6.134,-0.1515 -1.03,-0.2745 -3.685,-0.2865 -7.382,-0.03 -3.175,0.219 -6.523,0.246 -7.439,0.06 -1.022,-0.2055 -2.312,-0.135 -3.334,0.186 -0.917,0.288 -4.989,0.7605 -9.049,1.0515 -6.836,0.4905 -7.543,0.624 -9.567,1.80495 -1.284,0.75 -2.854,1.281 -3.81,1.29 -0.894,0.008 -2.16,0.2955 -2.815,0.639 -0.656,0.3435 -2.294,0.6315 -3.643,0.639 -1.78,0.0113 -3.196,0.3735 -5.168,1.326 -1.566,0.7545 -3.451,1.3125 -4.454,1.314 -2.048,0.005 -5.972,1.9374 -7.98,3.93 -0.757,0.753 -2.391,1.8465 -3.631,2.4318 -1.239,0.5865 -2.602,1.5522 -3.028,2.14815 -0.822,1.1505 -7.165,4.5864 -8.466,4.5864 -1.773,0 -17.885,14.19165 -19.881,17.51235 -0.635,1.056 -1.977,2.4081 -2.982,3.00495 -1.197,0.711 -2.294,1.93395 -3.182,3.5463 -0.925,1.68045 -2.306,3.19005 -4.355,4.75905 -1.834,1.404 -3.4,3.05565 -4.028,4.24695 -0.564,1.0725 -1.566,2.47065 -2.225,3.10785 -0.66,0.6375 -1.619,2.1789 -2.132,3.426 -0.513,1.248 -1.386,2.7963 -1.942,3.4431 -0.555,0.64649 -1.008,1.64684 -1.008,2.22254 0,1.70025 -1.18,3.7584 -3.031,5.28705 -1.474,1.218 -1.731,1.7052 -1.731,3.2829 0,1.2165 -0.383,2.3757 -1.112,3.37365 -0.612,0.837 -1.36,2.6802 -1.665,4.0977 -0.305,1.4175 -1.059,3.18585 -1.676,3.93015 -0.655,0.789 -1.342,2.502 -1.651,4.11345 -0.291,1.5183 -0.939,3.38505 -1.44,4.14855 -0.502,0.7635 -1.062,2.1738 -1.245,3.13455 -0.183,0.9615 -0.823,2.55975 -1.423,3.5535 -0.987,1.63365 -1.091,2.373 -1.091,7.7217 0,5.82135 -0.03,5.9535 -1.492,8.3394 -1.594,2.58885 -2.019,5.9604 -0.977,7.74585 0.815,1.3965 0.603,4.4709 -0.438,6.3408 -0.864,1.5537 -0.909,2.05695 -0.471,5.4033 0.266,2.0295 0.536,5.26199 0.602,7.18334 0.06,1.9215 0.283,3.96525 0.486,4.54185 0.202,0.576 0.468,2.7381 0.592,4.80345 0.45,7.5336 0.555,9.0864 0.951,14.0172 0.251,3.11025 0.693,5.52045 1.164,6.3318 0.419,0.72 0.917,2.28795 1.106,3.48315 0.19,1.1955 0.729,2.86545 1.198,3.71175 0.47,0.846 1.098,2.98275 1.395,4.7478 0.338,1.9983 1.151,4.30485 2.158,6.1134 0.89,1.5975 2.087,4.4694 2.661,6.3822 0.575,1.91265 1.543,4.07565 2.151,4.8066 1.474,1.7721 3.539,5.8923 3.545,7.0725 0,1.5267 1.819,4.96949 3.528,6.70349 0.901,0.915 1.729,2.3256 1.925,3.279 0.487,2.382 4.665,9.5418 6.872,11.7783 0.237,0.2415 1.197,0.981 2.135,1.6443 1.169,0.828 1.872,1.78785 2.238,3.0567 0.294,1.017 1.028,2.34045 1.631,2.94105 0.603,0.6 1.532,1.87755 2.063,2.8383 1.134,2.05185 8.508,8.4711 12.387,10.7844 4.264,2.54325 5.689,3.7599 7.349,6.2763 1.269,1.9227 1.85,2.4009 3.215,2.6439 1.163,0.207 2.676,1.1835 5.001,3.23115 1.953,1.7193 4.067,3.15075 5.105,3.45675 1.059,0.312 2.36,1.203 3.236,2.2182 1.642,1.9005 9.697,6.0198 14.029,7.17465 1.74,0.4635 2.99,1.152 3.997,2.20455 0.805,0.8415 1.775,1.52955 2.155,1.52955 1.428,0 6.775,1.428 8.149,2.1759 0.786,0.4275 2.501,0.9135 3.81,1.08 1.31,0.165 3.463,0.75 4.785,1.2975 4.293,1.77795 7.077,2.1846 10.789,1.57635 4.227,-0.693 6.019,-0.36 7.959,1.4745 l 1.564,1.48049 7.41,0.3195 c 4.075,0.1755 7.966,0.48 8.645,0.6765 0.679,0.198 1.877,0.2565 2.663,0.135 0.786,-0.12 3.398,-0.39 5.804,-0.5895 z m 177.222,-6.26894 c 0.749,-1.4085 0.338,-2.33355 -0.69,-1.5516 -1.015,0.7725 -1.689,2.08035 -1.339,2.6001 0.468,0.6945 1.342,0.243 2.029,-1.0485 z m -284.11,-7.7109 c 2.387,-0.588 2.69,-1.053 1.582,-2.43375 -0.674,-0.8385 -0.699,-0.8385 -2.415,0.002 -1.566,0.768 -4.525,3.63105 -4.525,4.3797 0,0.165 0.696,-0.09 1.548,-0.546 0.851,-0.465 2.566,-1.0965 3.81,-1.4025 z m -116.842,-5.8551 c 0.303,-0.3345 1.182,-1.7595 1.954,-3.1659 0.771,-1.407 1.97,-3.19575 2.664,-3.97635 l 1.261,-1.419 -3.513,-7.5e-4 c -4.173,-9e-4 -6.309,-0.8205 -7.954,-3.0561 -0.958,-1.302 -1.083,-1.8696 -0.837,-3.8394 0.281,-2.25195 0.263,-2.2986 -0.721,-1.8156 -0.809,0.3975 -0.953,0.759 -0.722,1.81965 0.159,0.729 0.29,1.9758 0.29,2.7717 0,1.053 0.502,1.9794 1.844,3.4011 1.132,1.2 1.965,2.59995 2.158,3.6291 0.173,0.921 0.611,2.3631 0.972,3.2037 0.363,0.84 0.779,1.8723 0.923,2.2926 0.318,0.921 0.936,0.978 1.68,0.156 z m 90.529,-22.9719 c 0,-0.24 -0.214,-0.438 -0.477,-0.438 -0.262,0 -0.475,0.1965 -0.475,0.438 0,0.2415 0.214,0.4365 0.475,0.4365 0.263,0 0.477,-0.1965 0.477,-0.4365 z m -100.057,-5.508 c 1.87,-3.66315 1.901,-4.53615 0.164,-4.5339 -1.631,0.002 -4.554,1.58595 -4.251,2.304 0.12,0.2925 0.621,1.6437 1.107,3.0015 0.484,1.3575 1.023,2.38935 1.194,2.29215 0.172,-0.09 0.975,-1.476 1.786,-3.06375 z m 72.866,0.5025 c 1.203,-1.071 3.045,-2.71485 4.093,-3.651 1.047,-0.936 2.977,-2.77155 4.286,-4.0785 1.472,-1.4685 3.005,-2.53695 4.011,-2.7966 2.096,-0.54 2.305,-1.206 0.809,-2.57775 -1.587,-1.455 -2.055,-1.395 -2.858,0.366 -0.369,0.8085 -1.528,2.10255 -2.576,2.87505 -1.159,0.855 -2.221,2.15985 -2.71,3.33375 -0.442,1.0605 -1.209,2.18985 -1.705,2.50845 -2.209,1.419 -6.163,4.8831 -6.163,5.40015 0,0.924 0.503,0.678 2.813,-1.38 z m 361.042,-13.98975 c 0,-1.281 -0.457,-1.3485 -2.52,-0.3705 -1.391,0.66 -1.44,0.7515 -0.572,1.0605 0.522,0.1875 1.431,0.354 2.021,0.3705 0.834,0.03 1.071,-0.21 1.071,-1.0605 z m -442.332,-4.9125 c 0.401,-0.4215 0.834,-1.68855 0.965,-2.8182 0.151,-1.3065 0.664,-2.5194 1.413,-3.33405 0.646,-0.7035 1.78,-2.6289 2.52,-4.27784 0.739,-1.6488 1.923,-3.68955 2.63,-4.5351 0.707,-0.846 1.747,-2.3655 2.31,-3.37785 0.564,-1.0125 1.611,-2.1738 2.328,-2.58075 1.705,-0.9675 2.494,-1.87305 2.494,-2.86095 0,-0.735 -0.105,-0.75 -1.31,-0.1755 -0.72,0.3435 -1.845,1.1535 -2.5,1.80045 -0.654,0.6465 -1.981,1.5471 -2.946,2.00115 -0.966,0.4545 -2.129,1.4055 -2.586,2.11455 -1.592,2.47065 -4.658,3.1791 -8.636,1.9953 -1.019,-0.303 -1.071,-0.207 -1.071,1.93725 0,1.2405 0.334,2.85 0.744,3.576 0.42,0.74549 0.916,3.28679 1.138,5.83844 0.491,5.6235 0.899,6.387 2.507,4.69785 z m 38.472,-8.8428 c 0.56,-0.72 1.43,-1.30949 1.933,-1.30949 0.911,0 4.675,-4.56795 4.156,-5.04315 -0.35,-0.321 -9.355,6.93809 -9.1,7.33574 0.483,0.753 2.064,0.237 3.011,-0.9825 z m 382.85,-8.73359 c 1.763,-0.9615 3.4,-1.74675 3.637,-1.74675 0.237,0 1.318,-0.7995 2.404,-1.77585 1.646,-1.482 2.409,-1.83 4.602,-2.103 2.824,-0.3525 6.798,-2.36295 7.895,-3.9975 0.344,-0.51 1.843,-1.419 3.334,-2.01855 1.491,-0.6 4.907,-2.07015 7.592,-3.2676 l 4.881,-2.1771 v -2.59215 c 0,-1.425 -0.208,-2.59215 -0.462,-2.59215 -1.53,0 -6.287,2.5635 -9.218,4.9671 -2.272,1.8639 -4.087,2.9676 -5.42,3.29625 -1.102,0.2715 -2.137,0.69 -2.299,0.9315 -0.162,0.2415 -1.812,1.3545 -3.667,2.4747 -1.868,1.1295 -4.016,2.8752 -4.817,3.91695 -0.795,1.035 -1.588,1.8804 -1.763,1.8804 -0.176,0 -1.259,0.684 -2.409,1.5174 -1.15,0.8355 -2.725,1.6455 -3.501,1.8018 -1.972,0.3975 -5.716,3.231 -4.269,3.231 0.15,0 1.717,-0.7875 3.481,-1.74675 z m -429.532,-14.1648 c 0.297,-0.825 0.948,-1.97715 1.448,-2.559 l 0.907,-1.0575 -2.117,-2.0262 c -1.164,-1.1145 -2.256,-2.02605 -2.426,-2.02605 -0.17,0 -0.135,0.8355 0.06,1.85595 0.205,1.02 0.42,2.8383 0.478,4.0392 0.15,3.1302 0.18,3.2751 0.666,3.2751 0.242,0 0.683,-0.675 0.98,-1.50105 z m 390.246,-9.99405 c 0.864,-1.0605 0.886,-1.245 0.226,-1.85025 -0.624,-0.573 -0.814,-0.582 -1.284,-0.075 -0.303,0.336 -0.693,1.2555 -0.864,2.0454 -0.379,1.7367 0.447,1.68 1.924,-0.135 z m -323.978,-7.3839 c 0.713,-1.221 -0.454,-0.834 -1.393,0.462 -0.633,0.8745 -0.624,0.9405 0.09,0.6885 0.435,-0.153 1.021,-0.6705 1.302,-1.1505 z m 326.37,-3.5373 c 0.354,-1.62375 -0.349,-2.439 -1.521,-1.76445 -0.598,0.3435 -0.852,1.167 -0.939,3.0471 l -0.12,2.57475 1.145,-1.266 c 0.63,-0.696 1.275,-1.8624 1.434,-2.59275 z m -320.465,-3.2376 c 0.36,-0.78 1.187,-1.6407 1.837,-1.9125 0.651,-0.273 1.435,-1.0515 1.743,-1.73325 0.307,-0.681 0.858,-1.4655 1.222,-1.7436 0.84,-0.639 0.867,-2.14425 0.05,-2.14425 -0.826,0 -2.735,1.9971 -3.858,4.03545 -0.495,0.8985 -1.606,2.0151 -2.467,2.4813 -1.182,0.639 -1.647,1.2555 -1.895,2.5146 -0.18,0.9165 -0.542,2.06025 -0.801,2.54055 -0.26,0.48 0.427,0.075 1.527,-0.873 1.1,-0.9615 2.293,-2.38485 2.653,-3.16485 z m -75.267,-20.00775 c 0.713,-0.8565 1.178,-1.66485 1.034,-1.7964 -0.518,-0.474 -3.645,1.68315 -3.645,2.5158 0,1.314 1.192,0.9855 2.611,-0.72 z m 395.803,-0.09 c 0.279,-0.1755 1.202,-1.2555 2.05,-2.39775 0.885,-1.1925 2.341,-2.4513 3.421,-2.9565 1.033,-0.4845 1.88,-0.9915 1.88,-1.128 0,-0.444 -3.997,0.3405 -6.046,1.1865 -1.1,0.4545 -2.224,0.825 -2.5,0.825 -0.291,0 -0.503,1.008 -0.503,2.40165 0,2.36475 0.42,2.87565 1.698,2.0676 z m -316.975,-10.33859 c 0,-2.02725 -0.173,-3.7839 -0.384,-3.90375 -0.717,-0.4065 -6.719,6.05024 -6.751,7.26224 0,0.18 1.598,0.327 3.563,0.327 h 3.572 z m 392.793,0.192 c 0.455,-0.24 1.44,-0.6375 2.19,-0.882 1.101,-0.3585 1.308,-0.6315 1.079,-1.419 -0.156,-0.537 -0.288,-1.4415 -0.291,-2.01075 0,-0.9165 -0.105,-0.9675 -0.803,-0.4365 -0.438,0.33 -1.402,1.473 -2.143,2.5407 -1.781,2.5668 -1.789,3.1353 -0.03,2.20725 z m -440.929,-13.76025 c 1.684,-1.0785 3.291,-1.96635 3.572,-1.9734 0.967,-0.03 4.432,-3.26595 5.705,-5.3364 0.701,-1.14 1.148,-2.0742 0.993,-2.0742 -1.092,0 -3.249,1.61895 -4.257,3.19485 -1.723,2.69655 -3.156,3.76845 -5.535,4.14075 -1.638,0.258 -2.321,0.645 -3.171,1.80045 -2.074,2.82165 -1.42,2.8818 2.693,0.2475 z m -30.556,-0.3045 c 4,-4.0809 6.664,-7.5834 6.136,-8.06745 -0.303,-0.2775 -4.629,2.09685 -6.502,3.5694 -0.654,0.5145 -1.774,1.2675 -2.488,1.67295 -1.113,0.633 -1.255,0.9375 -1.005,2.1537 0.567,2.7444 1.643,2.9316 3.858,0.6705 z m 395.11,0.135 c 1.509,-1.4445 1.198,-1.83375 -1.022,-1.2825 -1.215,0.303 -1.548,0.6165 -1.548,1.464 0,1.434 0.951,1.3665 2.57,-0.183 z m -348.446,-11.83335 c 0.909,-0.507 1.548,-1.2225 1.548,-1.73145 0,-1.086 -1.119,-0.792 -2.977,0.7815 -2.247,1.90305 -1.347,2.50215 1.428,0.951 z m 32.954,-4.7844 c 3.017,-0.954 3.364,-1.5201 3.312,-5.3964 -0.01,-1.488 0.202,-3.27375 0.495,-3.9675 0.292,-0.6945 0.454,-1.332 0.36,-1.419 -0.201,-0.1845 -2.712,3.34365 -3.885,5.4594 -0.447,0.8085 -1.671,2.3223 -2.72,3.36495 -1.779,1.7697 -2.053,2.8269 -0.723,2.7936 0.312,-0.008 1.735,-0.384 3.161,-0.8355 z m 306.767,-16.7406 c 0.936,-0.534 2.373,-1.6719 3.192,-2.53095 0.873,-0.9165 2.285,-1.78095 3.414,-2.091 1.352,-0.372 2.15,-0.927 2.677,-1.8627 0.414,-0.7335 0.651,-1.4265 0.527,-1.54095 -0.12,-0.105 -1.311,0.297 -2.639,0.915 -1.327,0.6165 -3.016,1.1205 -3.753,1.1205 -1.263,0 -6.791,2.7843 -6.785,3.4179 0,0.81 1.038,3.56715 1.329,3.55545 0.185,-0.008 1.101,-0.45 2.038,-0.9825 z m -382.73,-9.4353 c 0.358,-0.636 1.898,-2.33115 3.422,-3.768 4.09,-3.85785 6.845,-6.8574 6.845,-7.45395 0,-0.327 -1.551,-0.738 -4.088,-1.083 -4.563,-0.6225 -4.921,-0.4785 -4.975,1.99545 -0.01,0.72 -0.337,2.0961 -0.714,3.0567 -0.378,0.9615 -0.699,2.238 -0.714,2.8386 -0.01,0.6 -0.354,1.87755 -0.753,2.8383 -1.299,3.1317 -1.327,3.31425 -0.463,3.01035 0.435,-0.153 1.083,-0.798 1.441,-1.434 z m 45.996,-3.55935 c 0.669,-1.146 0.574,-2.1663 -0.198,-2.1663 -0.845,0 -3.73,2.9796 -3.384,3.4935 0.389,0.576 3.046,-0.408 3.582,-1.3275 z m 406.945,-0.6495 c 1.047,-0.591 2.507,-1.077 3.242,-1.0785 2.179,-0.003 5.569,-0.936 5.569,-1.5321 0,-0.3045 -0.554,-0.8865 -1.229,-1.2915 -1.129,-0.678 -1.357,-0.6825 -2.81,-0.06 -0.87,0.378 -1.788,0.6885 -2.041,0.6885 -0.612,0 -5.35,3.54885 -5.35,4.00725 0,0.5715 0.582,0.4065 2.62,-0.744 z m -80.658,-7.2006 1.125,-0.8805 -1.428,0.285 c -1.766,0.3525 -2.143,0.54 -2.143,1.0635 0,0.6975 1.267,0.4545 2.447,-0.4695 z m -273.631,-14.84039 c 0.9,0 1.214,-0.342 1.639,-1.79085 0.29,-0.9855 0.407,-1.9002 0.261,-2.03385 -0.351,-0.3225 -5.652,3.11625 -5.913,3.8349 -0.15,0.414 0.2,0.486 1.349,0.2745 0.853,-0.156 2.052,-0.285 2.664,-0.285 z m 341.192,-8.2968 c 1.557,-0.72 3.555,-1.3095 4.44,-1.3095 1.323,0 4.409,-0.687 4.994,-1.11 0.429,-0.3105 -1.515,-5.01525 -2.362,-5.71425 -0.979,-0.8085 -1.012,-0.7965 -2.96,1.206 -1.083,1.1145 -3.33,3.4224 -4.994,5.1309 -1.664,1.70865 -2.783,3.1065 -2.487,3.1065 0.297,0 1.812,-0.5895 3.369,-1.3095 z m -387.721,-5.205 c 1.47,-1.422 3.366,-2.89875 4.213,-3.28245 1.281,-0.5805 2.984,-2.5782 2.984,-3.49965 0,-0.744 -1.353,0.075 -4.234,2.5536 -1.784,1.53645 -3.895,3.10245 -4.692,3.48015 -0.819,0.3885 -1.666,1.2615 -1.951,2.00985 -0.826,2.172 0.656,1.6644 3.68,-1.2615 z m -35.814,-6.41925 c 1.279,-2.4774 3.377,-4.2609 6.725,-5.71785 1.644,-0.7155 2.11,-1.2015 4.35,-4.5396 0.742,-1.107 2.263,-2.58075 3.379,-3.2751 2.421,-1.50645 3.863,-3.2274 2.705,-3.2274 -0.401,0 -1.617,0.6825 -2.705,1.5147 -2.583,1.9788 -4.723,2.511 -7.723,1.92105 -3.071,-0.603 -4.677,0.2265 -4.677,2.4204 0,0.942 -0.564,2.2314 -1.571,3.59265 -1.071,1.4475 -1.767,3.096 -2.185,5.17995 -0.337,1.6812 -0.717,3.40065 -0.843,3.82095 -0.15,0.4935 0.03,0.765 0.524,0.765 0.447,0 1.267,-0.999 2.02,-2.45385 z m 51.364,-4.8102 c 1.32,-1.2885 2.664,-2.34285 2.986,-2.34285 0.692,0 7.263,-6.1302 8.794,-8.2047 0.591,-0.801 2.062,-1.86255 3.323,-2.39925 1.243,-0.5295 2.262,-1.1355 2.262,-1.3485 0,-0.726 -3.096,0.162 -4.048,1.1625 -0.524,0.5505 -1.81,1.5063 -2.858,2.1255 -1.047,0.6195 -2.576,1.78995 -3.398,2.6019 -3.786,3.74295 -6.964,6.43695 -9.729,8.24475 -3.701,2.4201 -4.158,3.2391 -1.567,2.80785 1.38,-0.2295 2.431,-0.8865 4.235,-2.6484 z m 274.319,-2.45205 c 0.98,-1.9284 1.507,-3.83895 1.055,-3.81435 -0.06,0.003 -1.406,0.381 -2.977,0.8385 -1.741,0.507 -2.799,1.0485 -2.709,1.383 0.165,0.612 2.901,3.8838 3.247,3.8838 0.12,0 0.744,-1.032 1.385,-2.2926 z m 96.9,-4.91265 c 0,-0.36 -0.201,-0.654 -0.449,-0.654 -0.6,0 -1.03,0.6825 -0.651,1.0305 0.537,0.492 1.098,0.3 1.098,-0.375 z m -113.132,-8.4018 c 0.177,-0.663 0.951,-1.9305 1.719,-2.817 2.37,-2.73105 1.543,-2.9241 -1.655,-0.387 -1.188,0.942 -2.594,1.84005 -3.124,1.9944 -1.449,0.423 -1.163,1.4985 0.577,2.1693 1.832,0.7065 2.062,0.618 2.482,-0.96 z m -233.565,-4.0662 c 0.781,-1.3395 0.519,-1.488 -0.728,-0.414 -0.655,0.564 -1.191,1.182 -1.191,1.3725 0,0.5925 1.431,-0.12 1.919,-0.9585 z m 332.042,-2.508 c 2.482,-0.216 3.947,-0.5655 4.5,-1.071 0.776,-0.711 0.755,-0.8175 -0.414,-1.95885 -0.678,-0.6645 -1.697,-1.99305 -2.263,-2.9538 -1.858,-3.15105 -3.184,-5.0223 -4.418,-6.2322 -0.669,-0.654 -1.584,-1.8597 -2.034,-2.6766 l -0.819,-1.485 -1.392,2.66055 c -1.251,2.38905 -1.666,2.77905 -4.073,3.8232 l -2.681,1.1625 2.558,0.9375 c 3.606,1.3215 4.926,3.168 4.53,6.33765 l -0.292,2.3436 1.558,-0.2835 c 0.857,-0.156 3.215,-0.426 5.239,-0.603 z m -325.152,-2.70645 c 0.573,-0.8505 -0.673,-0.4275 -1.995,0.675 l -1.337,1.116 1.518,-0.675 c 0.834,-0.372 1.651,-0.873 1.814,-1.116 z m 206.933,-2.1864 c 0,-0.24 -0.335,-0.4365 -0.743,-0.4365 -0.408,0 -0.61,0.1965 -0.448,0.4365 0.162,0.2415 0.496,0.438 0.742,0.438 0.246,0 0.449,-0.1965 0.449,-0.438 z m -200.327,-2.21505 c 1.255,-0.906 1.694,-2.15175 0.757,-2.15175 -0.646,0 -2.836,2.0076 -2.836,2.60025 0,0.699 0.696,0.549 2.079,-0.4485 z m 9.417,-6.94065 c 1.463,-1.119 0.537,-1.131 -1.018,-0.0138 -0.654,0.471 -0.947,0.858 -0.648,0.864 0.298,0.005 1.048,-0.3765 1.666,-0.849 z m 73.276,-7.00139 c 0,-0.24 -0.214,-0.438 -0.475,-0.438 -0.263,0 -0.476,0.1965 -0.476,0.438 0,0.2415 0.215,0.4365 0.476,0.4365 0.262,0 0.475,-0.1965 0.475,-0.4365 z m 72.021,-1.63755 c 0.729,-0.762 2.274,-3.3438 2.274,-3.7992 0,-0.5025 -1.33,-0.1965 -4.527,1.0395 -1.82,0.705 -3.378,1.47 -3.463,1.70325 -0.135,0.3795 3.161,1.69965 4.464,1.78575 0.286,0.0136 0.85,-0.309 1.252,-0.7305 z m -198.274,-2.92515 c 1.434,-0.681 4.54,-3.68985 4.164,-4.03485 -0.375,-0.3435 -4.42,1.452 -5.498,2.44005 -1.057,0.969 -1.341,2.22735 -0.501,2.22735 0.275,0 1.101,-0.285 1.835,-0.633 z m 163.632,-0.24 c 1.835,0 6.43,-4.7565 6.434,-6.6594 0,-1.071 -0.711,-0.9555 -3.008,0.486 -1.095,0.687 -2.524,1.404 -3.177,1.5912 -0.998,0.2865 -5.719,4.37535 -5.719,4.9524 0,0.09 0.994,0.06 2.21,-0.09 1.215,-0.153 2.682,-0.2775 3.26,-0.2775 z m 183.831,-1.281 c -0.495,-1.81155 -2.799,-5.87745 -3.427,-6.04815 -0.318,-0.09 -0.705,0.396 -0.861,1.074 -0.156,0.678 -0.658,2.3511 -1.117,3.71895 l -0.834,2.487 3.272,-0.06 c 3.266,-0.06 3.273,-0.06 2.967,-1.1775 z m -273.807,-3.72765 c 0.508,-0.3525 0.673,-0.648 0.367,-0.654 -0.904,-0.03 -2.063,0.4875 -2.063,0.906 0,0.573 0.645,0.4755 1.695,-0.252 z m -63.353,-3.1023 c 1.23,-0.2115 2.918,-1.1625 5.189,-2.9247 1.852,-1.437 4.117,-2.8998 5.034,-3.25245 0.916,-0.3525 2.202,-1.101 2.857,-1.66545 0.656,-0.564 2.691,-1.9068 4.525,-2.9847 4.182,-2.4588 8.559,-5.7993 9.33,-7.1196 0.324,-0.5535 1.572,-1.437 2.773,-1.96005 1.201,-0.522 2.988,-1.6062 3.971,-2.40615 0.983,-0.801 2.108,-1.4535 2.499,-1.4535 0.392,0 1.516,-0.6525 2.499,-1.4475 0.983,-0.7965 2.798,-1.97895 4.032,-2.62875 1.234,-0.651 3.23,-1.9635 4.434,-2.91945 1.205,-0.9555 2.391,-1.7379 2.637,-1.7379 0.246,0 0.447,-0.5985 0.447,-1.329 0,-0.972 0.575,-1.8921 2.144,-3.4296 1.179,-1.155 2.143,-2.34735 2.143,-2.6487 0,-0.873 -2.357,-0.12 -4.148,1.314 -0.868,0.7005 -2.221,1.5762 -3.005,1.94775 -0.783,0.3705 -1.974,1.473 -2.644,2.4468 -0.671,0.9735 -1.875,2.09835 -2.677,2.49825 -0.801,0.4005 -2.046,1.167 -2.765,1.70145 -0.718,0.5355 -2.245,1.3755 -3.393,1.86705 -3.127,1.3395 -5.089,2.6151 -7.515,4.88535 -1.205,1.128 -2.877,2.3064 -3.717,2.62005 -0.84,0.3135 -2.023,1.2585 -2.63,2.09895 -0.651,0.9 -2.249,2.08815 -3.889,2.89005 -1.532,0.75 -3.51,2.0865 -4.395,2.9724 -0.885,0.885 -2.548,1.9914 -3.696,2.45685 -1.42,0.576 -2.942,1.8054 -4.767,3.85035 -1.474,1.65225 -3.482,3.5139 -4.461,4.137 -2.372,1.5084 -5.593,4.19325 -3.875,3.2298 0.682,-0.3825 2.06,-0.837 3.063,-1.0095 z m 273.157,-5.0121 c 1.416,-0.6945 0.629,-1.305 -1.008,-0.783 -0.78,0.249 -1.538,0.6315 -1.684,0.8475 -0.366,0.5415 1.55,0.4965 2.693,-0.075 z m 54.058,-1.79595 c 0.327,-0.486 -0.05,-0.8325 -4.327,-4.01115 l -1.674,-1.2435 v 1.3665 c 0,0.753 -0.311,2.04855 -0.69,2.88135 l -0.69,1.5144 h 3.519 c 2.161,0 3.652,-0.1965 3.862,-0.507 z m -43.362,-2.4465 c 0.276,-0.1755 1.005,-1.08 1.621,-2.00835 1.296,-1.9548 3.368,-2.89755 6.369,-2.89755 2.145,0 4.396,-1.0665 7.023,-3.3282 1.388,-1.1955 3.692,-1.9113 6.152,-1.91355 0.918,-0.001 2.419,-0.42 3.334,-0.9315 l 1.663,-0.93 -1.156,-0.705 c -0.636,-0.387 -2.16,-1.63845 -3.386,-2.78025 -2.385,-2.2215 -4,-2.64615 -4.505,-1.185 -0.416,1.2 -3.698,4.04865 -6.9,5.9868 -1.44,0.8715 -3.452,2.44335 -4.469,3.49215 -1.188,1.224 -3.234,2.5407 -5.715,3.67695 -4.189,1.9185 -5.653,2.8878 -5.255,3.47895 0.309,0.4575 4.522,0.4935 5.225,0.045 z m -41.079,-28.2039 c 1.851,-1.7994 2.91,-2.2347 6.526,-2.6805 2.243,-0.276 2.966,-0.621 5.028,-2.4015 3.077,-2.65455 4.913,-3.50985 8.202,-3.8211 2.403,-0.2265 5.75,-1.6092 5.8,-2.39445 0.01,-0.1725 -0.606,-0.6135 -1.372,-0.9765 -0.765,-0.363 -2.412,-1.4685 -3.658,-2.45775 l -2.265,-1.7979 -3.129,2.9472 c -1.722,1.62105 -3.836,3.21945 -4.698,3.55215 -0.863,0.333 -1.688,0.8895 -1.833,1.236 -0.545,1.302 -6.924,5.8068 -8.902,6.28635 -1.488,0.36 -2.316,0.924 -3.31,2.25315 -1.209,1.6152 -5.182,3.88365 -6.824,3.89685 -0.717,0.006 -3.042,2.1747 -3.042,2.83755 0,0.8775 11.69,-4.7445 13.476,-6.48075 z m -188.498,4.0842 c 0.162,-0.24 -0.05,-0.4365 -0.449,-0.4365 -0.408,0 -0.742,0.1965 -0.742,0.4365 0,0.24 0.201,0.438 0.448,0.438 0.246,0 0.581,-0.1965 0.743,-0.438 z m 228.872,-1.494 c 1.16,-0.3405 2.905,-0.7425 3.878,-0.8895 2.36,-0.3585 2.602,-0.891 0.998,-2.1882 -2.398,-1.93875 -2.922,-1.87125 -5.436,0.702 -3.157,3.22995 -3.103,3.45585 0.561,2.37675 z m -262.21,-1.99905 c 0.162,-0.24 0.07,-0.438 -0.181,-0.438 -0.263,0 -0.609,0.1965 -0.771,0.438 -0.162,0.2415 -0.07,0.438 0.181,0.438 0.263,0 0.609,-0.1965 0.771,-0.438 z m 96.927,-14.2026 c 0.981,-1.0845 0.06,-1.335 -1.082,-0.2925 -0.84,0.7695 -0.895,0.9585 -0.283,0.9585 0.418,0 1.033,-0.3 1.365,-0.666 z m 110.834,-5.034 c 5.437,-2.4141 10.582,-4.70474 11.433,-5.09039 1.892,-0.8565 1.995,-1.77045 0.239,-2.1108 -0.72,-0.135 -2.488,-0.726 -3.929,-1.305 -1.44,-0.5775 -3.584,-1.1055 -4.763,-1.173 -2.026,-0.105 -2.188,-0.045 -2.967,1.4055 -0.453,0.84 -1.41,1.9623 -2.126,2.493 -0.787,0.5835 -1.498,1.70055 -1.796,2.82359 -0.399,1.50495 -1.033,2.25795 -3.335,3.9543 -2.884,2.12625 -4.056,3.39285 -3.138,3.39285 0.273,0 4.945,-1.97535 10.382,-4.3896 z m -93.886,-4.23479 c 0.786,-0.7215 0.788,-0.7725 0.01,-0.909 -0.862,-0.153 -2.205,0.6345 -2.205,1.29 0,0.65249 1.317,0.42149 2.194,-0.381 z m 6.378,-4.509 c 0,-0.207 -0.321,-0.2625 -0.714,-0.12 -0.393,0.135 -0.714,0.4215 -0.714,0.627 0,0.207 0.321,0.2625 0.714,0.12 0.393,-0.135 0.714,-0.4215 0.714,-0.627 z m 80.631,-4.10955 c 0.05,-0.237 -0.28,-0.4965 -0.739,-0.5775 -0.522,-0.09 -0.834,0.12 -0.834,0.573 0,0.759 1.407,0.765 1.573,0.006 z m -103.243,-3.47175 c 2.575,-1.54605 4.881,-3.1371 5.124,-3.5355 0.628,-1.029 -0.2,-1.6173 -2.361,-1.67985 -1.716,-0.06 -1.88,0.075 -2.883,1.98615 -0.585,1.1205 -1.763,2.47815 -2.619,3.01545 -2.268,1.4235 -3.51,3.0246 -2.345,3.0246 0.22,0 2.508,-1.266 5.084,-2.81085 z m 37.852,-0.792 c 6.229,-2.7735 9.593,-5.56695 6.704,-5.56695 -0.472,0 -1.405,-0.393 -2.071,-0.873 -2.503,-1.8054 -4.352,-0.8535 -5.287,2.72115 -0.412,1.57815 -2.795,4.02285 -4.582,4.7016 -0.788,0.2985 -1.431,0.7365 -1.431,0.9735 0,0.6735 2.232,0.0138 6.667,-1.95675 z m 34.767,-3.38355 c 0.897,-0.6435 0.997,-0.8565 0.409,-0.864 -0.429,-0.005 -1.287,0.3765 -1.905,0.849 -1.52,1.161 -0.12,1.1745 1.496,0.0138 z m -14.863,-1.368 c 0.201,-0.9705 -2.137,-1.70145 -3.713,-1.1595 l -1.188,0.408 1.153,0.864 c 1.341,1.0035 3.531,0.9375 3.748,-0.105 z"
       id="vctrly-chalky-icon-pin-location" /></g></svg>
