<?xml version="1.0" encoding="UTF-8" standalone="no"?>
<!-- Created with Inkscape (http://www.inkscape.org/) -->

<svg
   width="776.08618mm"
   height="773.23175mm"
   viewBox="0 0 776.08621 773.23177"
   version="1.1"
   id="svg1"
   xml:space="preserve"
   xmlns="http://www.w3.org/2000/svg"
   xmlns:svg="http://www.w3.org/2000/svg"><defs
     id="defs1" /><g
     id="layer1"
     transform="translate(-1064.7408,-3030.2005)"><path
       style="fill:#000000;stroke-width:1"
       d="m 1072.3014,3802.5588 c -3.1983,-1.7102 -4.0337,-4.9509 -3.8219,-14.8289 0.045,-2.1363 -0.573,-5.6224 -1.4775,-8.3344 -2.3637,-7.0809 -2.8342,-10.9359 -1.5988,-13.0968 0.483,-0.846 0.6855,-2.8571 0.6975,-6.9531 0.015,-5.5961 0.06,-5.8229 1.437,-7.8581 0.8295,-1.224 1.4235,-2.7268 1.4295,-3.6126 0,-0.834 0.24,-2.1201 0.522,-2.8575 0.282,-0.738 0.9375,-3.3766 1.458,-5.865 0.519,-2.4885 1.359,-5.2332 1.8678,-6.0994 0.5085,-0.8655 0.924,-2.2199 0.924,-3.008 0,-1.7821 0.6345,-3.0447 2.5999,-5.1801 1.9883,-2.1594 3.5913,-6.0492 3.5913,-8.7142 0,-1.5573 0.7515,-3.7742 2.8778,-8.4842 1.5826,-3.5068 3.3054,-7.1262 3.8283,-8.0428 0.5235,-0.9165 1.467,-2.7714 2.0967,-4.1214 1.4985,-3.2106 5.0632,-8.7219 6.4207,-9.9281 0.5895,-0.5235 1.6104,-2.0142 2.2685,-3.3118 0.6585,-1.2975 2.2957,-3.9963 3.6394,-5.9969 1.344,-2.0007 2.8041,-4.3075 3.2456,-5.1265 0.441,-0.819 2.2948,-2.5776 4.1185,-3.9083 2.7146,-1.9806 3.3725,-2.7207 3.6276,-4.0809 0.204,-1.0845 0.978,-2.275 2.2346,-3.4299 1.0575,-0.972 2.3019,-2.6254 2.7651,-3.6732 0.7755,-1.7535 4.0762,-5.4768 4.8555,-5.4768 0.183,0 0.591,-0.804 0.9045,-1.786 0.7935,-2.4848 2.5968,-4.2489 5.239,-5.1266 2.5728,-0.855 3.1313,-1.4025 5.0067,-4.9125 1.6386,-3.0666 6.0605,-7.2739 9.4199,-8.9632 2.0761,-1.044 6.7965,-5.3354 9.9082,-9.0078 1.9874,-2.3454 6.327,-5.5692 8.3849,-6.2288 4.267,-1.368 4.8165,-1.6893 6.0373,-3.5341 1.2615,-1.9064 2.588,-2.7926 5.8742,-3.9248 1.849,-0.6375 3.858,-2.0658 7.9143,-5.6284 2.1514,-1.8899 6.4407,-4.2237 7.7826,-4.2348 1.0965,-0.01 2.2583,-0.6975 5.6095,-3.3267 6.6076,-5.1839 8.3308,-6.1913 10.5892,-6.1913 1.6985,0 2.4806,-0.294 3.7505,-1.4085 0.882,-0.7755 2.518,-1.6393 3.6346,-1.9212 2.1912,-0.5535 2.4896,-0.687 6.7929,-3.0484 1.5716,-0.8625 3.5004,-1.9017 4.2863,-2.3097 0.786,-0.408 3.252,-0.885 5.4805,-1.0605 3.8189,-0.3 4.1543,-0.249 5.8304,0.888 1.062,0.72 2.7879,1.326 4.2825,1.5036 3.1486,0.3735 6.5026,2.0274 6.8461,3.3768 0.4035,1.5846 -0.9105,3.5749 -3.8955,5.8998 -1.503,1.17 -3.6114,2.9512 -4.6852,3.9565 -3.12,2.9208 -5.0823,3.996 -7.8342,4.293 -2.096,0.2265 -2.9021,0.6015 -4.5444,2.1152 -1.248,1.1505 -2.8272,2.0496 -4.2105,2.3979 -1.218,0.306 -2.3489,0.7755 -2.514,1.0425 -0.537,0.87 -4.9659,2.8678 -7.3652,3.3228 -1.3275,0.252 -3.3345,1.1445 -4.6299,2.0602 -1.257,0.8895 -2.9532,1.8392 -3.7674,2.1119 -0.8145,0.273 -2.4646,1.2465 -3.6673,2.1654 -1.203,0.918 -3.0246,1.8108 -4.0485,1.9837 -1.305,0.2205 -2.1813,0.747 -2.9318,1.7619 -0.588,0.7965 -1.9639,1.8428 -3.0563,2.3261 -1.092,0.483 -2.5163,1.4445 -3.164,2.1355 -0.648,0.6915 -2.2845,1.7997 -3.6369,2.463 -1.353,0.663 -3.4218,1.9841 -4.5984,2.9349 -1.1775,0.951 -3.2392,2.3226 -4.5832,3.0483 -1.6734,0.903 -2.8509,1.9934 -3.7352,3.4572 -1.0905,1.8065 -1.9762,2.4849 -5.7069,4.374 -4.0087,2.03 -4.5454,2.4662 -5.8258,4.7349 -1.068,1.8918 -2.7954,3.608 -7.1103,7.0626 -3.8466,3.0797 -6.3657,5.5157 -7.748,7.4925 -1.4745,2.1081 -2.6838,3.2454 -4.3158,4.0572 -1.2465,0.621 -2.6256,1.706 -3.0633,2.4126 -0.438,0.7065 -1.281,1.8204 -1.8736,2.4753 -0.5925,0.6555 -1.6395,2.4606 -2.3256,4.013 -0.9495,2.1475 -2.4072,3.9817 -6.0981,7.6726 -4.1922,4.1921 -5.1719,5.4894 -7.2188,9.5601 -1.548,3.0785 -3.1518,5.4782 -4.63,6.9281 -1.2435,1.2195 -2.7768,3.3831 -3.4065,4.8069 -0.63,1.4235 -1.9217,3.718 -2.871,5.0982 -1.158,1.6842 -1.7261,3.0448 -1.7261,4.1385 0,1.6344 -1.032,3.8635 -4.0462,8.7414 -2.8487,4.6095 -3.1251,5.2134 -3.6254,7.9189 -0.27,1.461 -0.882,3.4382 -1.359,4.3935 -0.477,0.9555 -1.014,2.3798 -1.1925,3.1656 l -0.324,1.4295 1.7433,-1.6668 c 0.9585,-0.9165 2.1546,-2.4646 2.6571,-3.4396 1.398,-2.7135 3.6935,-5.0843 6.4004,-6.6119 1.35,-0.762 2.6824,-1.8868 2.962,-2.5005 0.279,-0.6135 1.1805,-1.6303 2.0009,-2.2591 0.8205,-0.6285 2.9298,-2.408 4.6863,-3.9537 1.7566,-1.5458 4.1583,-3.2613 5.337,-3.8123 1.179,-0.5505 2.9167,-1.482 3.8623,-2.0688 0.945,-0.5865 2.6099,-1.3815 3.6984,-1.7652 1.089,-0.384 2.6726,-1.218 3.5196,-1.8529 2.4897,-1.8665 5.5841,-3.2469 8.1726,-3.6461 5.4411,-0.8385 10.6014,-2.2996 12.3651,-3.5002 1.488,-1.0125 2.4068,-1.2615 4.6671,-1.2615 1.5503,0 3.4254,-0.3165 4.1742,-0.7035 0.7485,-0.387 2.2464,-0.8145 3.3302,-0.951 1.0845,-0.135 2.551,-0.54 3.2602,-0.897 2.223,-1.119 3.8715,-1.308 6.7962,-0.7785 2.5392,0.4605 3.0659,0.4065 5.0922,-0.516 1.6332,-0.744 2.9864,-0.9915 4.8794,-0.8955 5.3754,0.2775 7.4849,0.075 11.4299,-1.0575 3.1233,-0.9015 4.4834,-1.08 5.9532,-0.7785 5.0703,1.038 5.1747,1.0305 7.6179,-0.519 2.4852,-1.5761 4.2368,-1.8173 6.7077,-0.924 1.3215,0.4785 2.082,0.3735 5.4867,-0.7515 2.1735,-0.7185 4.5894,-1.6358 5.3684,-2.0385 0.861,-0.4455 2.3653,-0.684 3.8341,-0.6105 6.7913,0.3435 7.739,0.225 9.8406,-1.2315 1.6199,-1.122 2.5481,-1.407 4.6808,-1.4355 1.6596,-0.015 3.2869,-0.378 4.3269,-0.945 1.3365,-0.729 2.4967,-0.8895 5.8542,-0.807 l 4.1872,0.105 2.051,-1.8905 c 2.5563,-2.3563 5.1504,-3.4896 7.0384,-3.075 1.9883,0.4365 3.7647,-0.4455 5.8022,-2.8836 1.1745,-1.404 2.3974,-2.2944 3.6847,-2.68 1.0605,-0.318 2.2895,-1.0215 2.7324,-1.5638 1.1325,-1.3875 5.6711,-5.1345 7.9526,-6.5661 1.6798,-1.0545 2.0556,-1.6374 3.0382,-4.7173 0.6165,-1.9329 1.7489,-4.3209 2.5158,-5.3066 0.969,-1.245 1.5389,-2.6994 1.8669,-4.7625 0.294,-1.8501 0.957,-3.6702 1.7585,-4.8262 0.708,-1.0215 1.7146,-2.4695 2.2386,-3.219 0.5235,-0.75 1.4205,-1.6844 1.9914,-2.0772 0.5715,-0.393 1.7124,-1.8912 2.5353,-3.3296 1.275,-2.2288 1.7013,-2.6151 2.884,-2.6151 1.113,0 1.6445,0.402 2.6808,2.024 2.792,4.3705 4.5228,8.4355 4.7637,11.188 0.294,3.3629 -0.981,12.2133 -1.9798,13.7375 -0.402,0.6135 -0.732,1.6054 -0.7335,2.2041 -0.01,2.3008 -1.08,4.7746 -3.0236,6.9633 -1.1115,1.2525 -2.4811,3.0139 -3.0427,3.9156 -0.561,0.9015 -2.1584,2.4966 -3.5483,3.5443 -1.3905,1.0485 -4.2415,3.6491 -6.337,5.7807 -2.5508,2.5947 -4.5971,4.2159 -6.1913,4.905 -1.3095,0.5655 -3.1314,1.7556 -4.0482,2.643 -2.1105,2.043 -6.7732,4.8542 -8.736,5.267 -0.8265,0.174 -2.7289,0.723 -4.2267,1.2195 -1.4985,0.4965 -3.2803,0.903 -3.9609,0.903 -0.681,0 -1.9197,0.4995 -2.7534,1.1115 -2.0545,1.5058 -6.2896,3.1663 -8.898,3.4887 -1.179,0.15 -3.3219,0.6525 -4.7625,1.125 -1.44,0.4725 -4.2267,1.128 -6.1912,1.455 -1.9646,0.327 -4.367,0.99 -5.3388,1.4715 -2.0321,1.0065 -3.5823,1.095 -6.0836,0.345 -1.6123,-0.483 -1.9533,-0.4095 -3.8304,0.834 -1.6765,1.11 -2.6437,1.3815 -5.191,1.4625 -5.7134,0.18 -8.3262,0.4905 -12.8937,1.5295 -2.4884,0.5655 -5.4557,1.239 -6.594,1.497 -1.1385,0.2565 -3.0671,0.336 -4.2863,0.174 -1.4235,-0.1875 -4.2618,0.075 -7.9315,0.7515 -3.3272,0.6075 -6.6105,0.9405 -7.8582,0.7965 -1.368,-0.159 -2.574,-0.01 -3.3337,0.411 -0.684,0.3795 -2.6076,0.6675 -4.5243,0.678 -2.4909,0.014 -3.7359,0.264 -4.9238,0.9885 -1.806,1.101 -7.5316,1.962 -11.7979,1.7741 -2.3955,-0.105 -3.0477,0.06 -4.4715,1.125 -1.8995,1.4235 -3.9512,2.1594 -7.7277,2.7741 -1.4475,0.2355 -4.8552,1.4865 -7.5725,2.7801 -2.7172,1.293 -5.7976,2.6193 -6.8454,2.9464 -2.9115,0.909 -6.2512,3.1595 -10.8327,7.2992 -2.8587,2.5831 -4.8006,3.9481 -6.1912,4.3521 -1.6503,0.48 -2.2469,0.9855 -3.2168,2.7309 -0.6555,1.179 -2.4765,3.6481 -4.048,5.4885 -1.5717,1.8403 -3.2145,4.0041 -3.6509,4.8081 -0.4365,0.804 -1.6161,1.9815 -2.6215,2.6161 -1.3995,0.8835 -1.9631,1.6443 -2.4039,3.246 -0.3165,1.1505 -1.428,3.1635 -2.4716,4.4732 -4.0629,5.103 -5.6926,7.8637 -6.259,10.602 -0.7065,3.4204 -1.9946,6.7269 -3.5202,9.0426 -0.927,1.407 -1.176,2.3941 -1.1685,4.6441 0.01,1.5717 -0.345,3.8219 -0.7755,5.0007 -0.432,1.179 -0.981,3.6432 -1.2195,5.4768 -0.5625,4.3217 -2.1314,6.6719 -5.6447,8.4534 -3.0861,1.565 -6.1891,1.7172 -8.6106,0.423 z m 20.4861,-66.2639 c 0.2805,-0.5235 0.402,-0.9525 0.2715,-0.9525 -0.135,0 -0.468,0.429 -0.7485,0.9525 -0.2805,0.5235 -0.402,0.9525 -0.2715,0.9525 0.135,0 0.468,-0.429 0.7485,-0.9525 z m 207.1687,66.506 c -3.2706,-1.185 -5.7591,-3.1434 -6.7031,-5.2775 -0.7785,-1.7595 -0.846,-2.5318 -0.477,-5.4645 0.4725,-3.7597 0.345,-3.5353 4.8987,-8.6679 1.7685,-1.9933 3.4877,-4.4482 3.8204,-5.455 0.399,-1.209 1.329,-2.3822 2.7391,-3.4562 2.837,-2.1606 5.9262,-7.7011 5.5583,-9.9685 -0.135,-0.861 0.06,-2.7498 0.432,-4.1982 0.3765,-1.449 0.6855,-3.2783 0.6855,-4.0662 0,-0.7875 0.24,-2.3861 0.534,-3.5511 0.4635,-1.8407 0.396,-2.486 -0.516,-4.9242 -1.5119,-4.0425 -1.365,-6.3353 0.7155,-11.1237 2.2006,-5.0667 2.7609,-5.3916 7.0429,-4.0847 2.6684,0.8145 3.4431,1.32 5.2284,3.4155 1.152,1.353 2.4438,3.1022 2.8691,3.888 0.426,0.786 1.3035,2.0181 1.9522,2.7384 2.0049,2.2272 3.2547,1.5944 3.8385,-1.9435 0.243,-1.4745 0.939,-2.7359 2.4351,-4.4213 1.287,-1.449 2.0948,-2.8171 2.0948,-3.5485 0,-1.9415 1.2045,-4.2489 2.919,-5.5905 1.5928,-1.2465 1.6056,-1.2885 1.6381,-5.3105 0.03,-3.771 0.135,-4.2013 1.5477,-6.1638 1.173,-1.6339 1.5152,-2.6002 1.5152,-4.2844 0,-1.4265 0.645,-3.7742 1.8769,-6.8277 1.299,-3.219 1.8806,-5.3871 1.8887,-7.0344 0.011,-2.1929 0.612,-4.9619 1.8597,-8.5725 1.7938,-5.1885 2.3371,-12.8903 1.203,-17.0549 -0.6045,-2.2227 -0.777,-4.5882 -0.7005,-9.6186 0.075,-5.0691 -0.075,-7.1827 -0.6495,-8.8015 -0.414,-1.1715 -0.7785,-3.6348 -0.8115,-5.4734 -0.045,-2.8966 0.15,-3.7561 1.5,-6.4384 0.858,-1.7027 1.9107,-3.4935 2.3397,-3.9798 1.134,-1.2855 4.1005,-2.6877 5.6877,-2.6877 1.6536,0 6.4843,3.0166 8.3154,5.1927 1.5313,1.8198 1.657,2.3217 1.9315,7.7089 0.12,2.2502 0.4785,4.5962 0.8085,5.2133 0.4305,0.8055 0.654,5.1133 0.7905,15.2563 0.1665,12.3869 0.09,14.3921 -0.609,16.2182 -0.5535,1.443 -0.819,3.6928 -0.861,7.3224 -0.03,3.1459 -0.2955,5.6542 -0.648,6.279 -0.3225,0.5715 -0.5865,1.9651 -0.5895,3.0957 0,1.131 -0.429,3.4483 -0.9495,5.151 -0.5205,1.7025 -0.9465,3.7467 -0.9495,4.5424 0,0.7965 -0.522,2.4032 -1.1535,3.572 -2.5654,4.7395 -3.613,7.3303 -3.6271,8.9707 -0.01,0.9495 -0.5415,2.7983 -1.1865,4.1079 -0.6435,1.3095 -1.173,2.8302 -1.176,3.3791 0,0.549 -0.837,2.287 -1.8563,3.8629 -1.0185,1.5761 -2.0112,3.3773 -2.2056,4.0029 -0.195,0.6255 -0.762,1.7175 -1.2615,2.4263 -0.4995,0.7095 -1.146,1.9945 -1.4385,2.8575 -0.2925,0.8625 -0.8925,2.1046 -1.335,2.7595 -0.441,0.654 -1.641,2.9051 -2.6656,5.0006 -1.131,2.3119 -2.7264,4.6527 -4.0593,5.9532 -1.2075,1.179 -2.6259,3.1074 -3.1508,4.2862 -0.525,1.179 -1.6266,2.9766 -2.448,3.9956 -0.822,1.0185 -1.7449,2.6923 -2.0526,3.7191 -0.639,2.1303 -3.51,5.5911 -6.3301,7.6288 -1.392,1.0065 -2.1158,1.9944 -2.634,3.5994 -0.525,1.6236 -1.2735,2.6378 -2.8182,3.8117 -1.1565,0.8805 -2.6855,2.5164 -3.3963,3.6372 -0.711,1.1205 -2.0142,2.5377 -2.8967,3.1488 -0.882,0.6105 -2.6917,2.1976 -4.0206,3.5256 -5.2731,5.2695 -9.7086,8.3928 -11.853,8.3466 -0.534,-0.011 -1.7209,-0.2925 -2.6377,-0.624 z m 173.2759,-25.8225 c -4.1383,-1.2735 -5.9256,-4.8846 -4.4953,-9.0822 0.42,-1.2345 0.765,-3.2453 0.765,-4.4696 0,-2.9097 1.422,-5.0107 4.6333,-6.8433 1.8128,-1.035 2.5521,-1.7727 2.7701,-2.7651 0.1635,-0.744 0.774,-1.9378 1.356,-2.652 0.582,-0.714 1.5496,-2.1493 2.1489,-3.1896 0.6,-1.0395 2.4649,-3.1513 4.1457,-4.6915 1.6809,-1.5402 3.8241,-3.9573 4.7628,-5.3715 0.939,-1.4145 1.9027,-2.5712 2.1426,-2.5712 0.24,0 0.939,-1.1355 1.5522,-2.5242 1.1445,-2.587 7.1142,-11.9794 7.9381,-12.4887 0.252,-0.156 0.459,-0.657 0.459,-1.1145 0,-0.4575 0.696,-1.8708 1.5479,-3.1413 4.1445,-6.1857 5.8977,-9.6855 6.5347,-13.044 0.249,-1.314 0.8895,-3.2031 1.4235,-4.1995 0.534,-0.996 0.9705,-2.1426 0.9705,-2.5467 0,-0.4035 0.7695,-2.3361 1.7099,-4.2933 1.3365,-2.7801 1.6578,-3.9528 1.4715,-5.3613 -0.3435,-2.6045 0.444,-4.8962 2.446,-7.1123 l 1.7543,-1.9422 v -8.6622 -8.6623 l 1.5477,-2.4905 c 1.8229,-2.9329 1.8568,-3.288 0.558,-5.8347 -0.5445,-1.068 -0.99,-2.6127 -0.99,-3.4338 4e-4,-3.5302 0.9555,-12.102 1.5127,-13.5853 0.519,-1.3815 0.4845,-1.955 -0.24,-3.9722 -0.6135,-1.7053 -0.7725,-3.1027 -0.5745,-5.0526 0.1905,-1.8733 0.075,-3.0585 -0.396,-3.8859 -0.9135,-1.6255 -0.87,-5.3574 0.09,-8.077 0.783,-2.2031 0.777,-2.2841 -0.261,-3.7413 -0.5835,-0.819 -1.254,-2.6208 -1.491,-4.0035 -0.237,-1.383 -0.618,-3.1568 -0.8475,-3.9426 -0.2295,-0.786 -0.33,-2.2862 -0.222,-3.3342 0.12,-1.1295 -0.327,-3.9273 -1.0875,-6.8706 l -1.2825,-4.965 1.0725,-2.5881 1.0725,-2.588 -1.08,-3.444 c -0.594,-1.8942 -1.437,-3.9166 -1.8721,-4.4941 l -0.792,-1.05 -2.3624,1.32 c -1.299,0.726 -3.1327,2.1288 -4.0744,3.118 -0.942,0.99 -2.0538,1.7987 -2.4714,1.7987 -0.417,0 -1.7417,0.8505 -2.9424,1.8895 -1.2015,1.0395 -2.982,2.1066 -3.9581,2.3717 -1.1025,0.3 -2.2848,1.125 -3.1216,2.1796 -0.9075,1.143 -2.6327,2.2917 -5.2841,3.5168 -2.7415,1.266 -4.335,2.3403 -5.2467,3.5356 -1.4835,1.9442 -5.2443,4.6043 -6.5106,4.6043 -0.4635,0 -1.8301,0.855 -3.0381,1.9008 -2.5729,2.2267 -8.4718,5.8099 -15.453,9.3867 -2.7339,1.401 -5.6997,3.1026 -6.5907,3.7822 -1.9116,1.458 -6.727,3.0189 -9.3294,3.024 -1.4745,0 -2.1384,0.3225 -3.3337,1.6062 -1.7286,1.8555 -3.1493,2.6838 -4.6029,2.6838 -0.5655,0 -1.5983,0.3135 -2.2935,0.696 -1.5849,0.8715 -6.9966,2.9103 -8.8499,3.3332 -0.7665,0.1755 -2.7403,0.948 -4.3854,1.7166 -1.645,0.7695 -3.3478,1.398 -3.7839,1.398 -0.4365,0 -1.9987,0.624 -3.4726,1.386 -1.4745,0.7635 -3.6443,1.6446 -4.823,1.9596 -1.179,0.315 -3.3895,1.0845 -4.9129,1.7088 -3.5369,1.4505 -4.4958,1.4355 -5.1858,-0.075 -0.501,-1.0995 -0.39,-1.3785 1.1685,-2.9357 l 1.7212,-1.7212 -2.4673,-1.47 c -2.0945,-1.248 -2.7374,-2.0015 -4.2534,-4.9875 -1.1175,-2.2023 -1.7859,-4.1838 -1.7859,-5.2985 0,-1.7314 -2.1834,-7.4946 -2.6591,-7.0189 -1.047,1.047 -4.0084,5.4198 -4.0084,5.9187 0,0.345 -0.7785,1.4895 -1.7315,2.5435 -1.6795,1.8591 -1.7059,1.9449 -0.879,2.8589 0.4695,0.519 1.104,0.942 1.41,0.942 0.3075,0 1.0605,0.5355 1.6761,1.191 0.615,0.6555 1.476,1.191 1.9115,1.191 0.4365,0 1.4625,0.696 2.2816,1.5477 0.819,0.852 2.1509,2.056 2.9601,2.6772 1.098,0.843 1.434,1.4475 1.326,2.3812 l -0.15,1.2525 -4.0161,-0.135 c -2.2089,-0.075 -4.2571,-0.333 -4.5517,-0.5775 -0.8775,-0.729 -5.9973,-1.9083 -8.3201,-1.9171 -1.1895,0 -3.7695,-0.444 -5.734,-0.978 -1.9646,-0.534 -5.2863,-1.236 -7.3818,-1.5629 -3.7734,-0.588 -5.4281,-1.1955 -7.0076,-2.5714 -0.4485,-0.3915 -1.8273,-0.9 -3.0628,-1.131 -2.892,-0.54 -4.1163,-1.371 -6.1091,-4.1447 -1.4295,-1.9897 -2.0214,-2.3853 -5.0104,-3.348 -2.3351,-0.7515 -4.1591,-1.7496 -5.8635,-3.2068 -1.3605,-1.164 -3.5861,-2.639 -4.9451,-3.2789 -1.5673,-0.738 -3.0417,-1.9207 -4.032,-3.2344 -0.858,-1.1385 -3.0469,-3.2372 -4.8628,-4.6625 -1.8159,-1.425 -4.3878,-3.8226 -5.7155,-5.3272 -1.3275,-1.5045 -3.0772,-2.9546 -3.8878,-3.2222 -0.81,-0.267 -2.3079,-1.341 -3.327,-2.3839 -1.0185,-1.044 -2.1401,-1.8975 -2.4911,-1.8975 -0.351,0 -1.6468,-0.927 -2.8798,-2.0589 -1.233,-1.1325 -3.0188,-2.5263 -3.9683,-3.0977 -0.9495,-0.5715 -3.7162,-3.5224 -6.1483,-6.5578 -2.432,-3.0354 -4.7148,-5.6315 -5.0727,-5.7687 -0.3585,-0.135 -1.215,-1.2435 -1.9038,-2.4563 -1.452,-2.5566 -4.9748,-6.3804 -7.0943,-7.6999 -0.807,-0.5025 -1.8783,-1.722 -2.3812,-2.7105 -0.828,-1.6262 -2.0996,-3.2505 -5.883,-7.5122 -0.6975,-0.786 -1.9011,-2.2824 -2.6744,-3.3259 -0.7725,-1.044 -2.7732,-3.6151 -4.4445,-5.715 -1.6711,-2.0997 -3.2692,-4.3536 -3.5512,-5.0083 -0.282,-0.6555 -1.296,-2.0654 -2.255,-3.1344 -0.9585,-1.0695 -2.208,-3.1886 -2.7772,-4.7102 -0.57,-1.5216 -1.8704,-3.7153 -2.8911,-4.875 -1.02,-1.1595 -1.9847,-2.695 -2.1422,-3.412 -0.1575,-0.717 -1.029,-2.3477 -1.9357,-3.6236 -0.9075,-1.2765 -1.6496,-2.6574 -1.6497,-3.0697 0,-0.4125 -0.6345,-1.9283 -1.41,-3.3689 -0.7755,-1.44 -1.425,-3.1552 -1.443,-3.81 -0.015,-0.6555 -0.5625,-2.0479 -1.2075,-3.0957 -0.645,-1.0485 -1.1715,-2.4408 -1.1685,-3.0955 0,-0.6555 -1.1145,-3.3857 -2.4824,-6.0684 -2.3436,-4.5951 -2.4912,-5.0961 -2.5479,-8.6478 -0.06,-3.3795 -0.1965,-3.9327 -1.38,-5.339 -1.173,-1.395 -1.299,-1.866 -1.1265,-4.2477 0.12,-1.7158 0.7305,-3.7786 1.6847,-5.7378 0.8205,-1.6822 1.7386,-4.0231 2.0415,-5.2018 0.303,-1.179 1.1745,-3.3491 1.9375,-4.823 0.762,-1.4745 1.386,-3.0366 1.386,-3.4726 0,-0.4365 0.63,-2.1389 1.398,-3.7839 0.7695,-1.6451 1.5416,-3.6186 1.7166,-4.3856 0.33,-1.446 2.1833,-6.5229 3.291,-9.0144 1.185,-2.667 1.9203,-6.1809 1.9913,-9.525 0.045,-1.8336 0.09,-3.9066 0.12,-4.6069 0.075,-1.7499 2.1144,-4.0304 4.741,-5.2926 2.0087,-0.966 2.3958,-1.455 4.5945,-5.8167 3.4281,-6.7997 7.5438,-13.6242 9.7622,-16.1873 1.05,-1.2135 1.9095,-2.5851 1.9095,-3.0481 0,-1.266 2.6599,-5.0279 4.6042,-6.5108 1.1955,-0.912 2.2691,-2.505 3.5357,-5.2465 1.2255,-2.6514 2.3734,-4.3772 3.5167,-5.2842 1.0545,-0.837 1.8803,-2.019 2.1797,-3.1215 0.2655,-0.9765 1.332,-2.7572 2.3715,-3.9581 1.0395,-1.2015 1.8897,-2.5153 1.8897,-2.9212 0,-0.4065 0.9645,-1.6887 2.1432,-2.8508 2.8798,-2.839 2.8386,-3.7854 -0.177,-4.0752 -1.2765,-0.12 -2.9372,-0.6585 -3.6909,-1.191 -0.7545,-0.5325 -2.8949,-1.4565 -4.758,-2.0533 l -3.3873,-1.086 -2.6009,1.0785 -2.6008,1.0785 -4.9652,-1.2825 c -2.9433,-0.7605 -5.7409,-1.203 -6.8704,-1.0875 -1.0485,0.105 -2.5485,0.01 -3.3342,-0.222 -0.786,-0.2295 -2.5601,-0.612 -3.9428,-0.8475 -1.383,-0.237 -3.1842,-0.9075 -4.0033,-1.491 -1.4565,-1.038 -1.5383,-1.0425 -3.7413,-0.261 -2.7197,0.966 -6.4515,1.011 -8.0771,0.09 -0.828,-0.465 -2.0125,-0.5865 -3.8859,-0.396 -1.95,0.198 -3.3472,0.045 -5.0526,-0.5745 -2.0173,-0.726 -2.5903,-0.7605 -3.9723,-0.24 -1.4835,0.558 -10.0549,1.5124 -13.5852,1.5129 -0.8205,0 -2.3664,-0.4455 -3.4338,-0.99 -2.5467,-1.299 -2.9017,-1.266 -5.8348,0.558 l -2.4903,1.5478 h -8.6624 -8.6623 l -1.942,1.7543 c -2.2161,2.0017 -4.5078,2.7898 -7.1124,2.4459 -1.4085,-0.186 -2.5812,0.135 -5.3612,1.4715 -1.9572,0.9405 -3.8892,1.71 -4.2933,1.71 -0.4035,0 -1.5502,0.4365 -2.5467,0.9705 -0.996,0.534 -2.8863,1.1745 -4.1995,1.4235 -3.3585,0.6375 -6.8585,2.3902 -13.044,6.5347 -1.2705,0.8505 -2.6843,1.5479 -3.1413,1.5479 -0.4575,0 -0.9585,0.207 -1.1145,0.459 -0.5085,0.8235 -9.9015,6.7939 -12.4887,7.9381 -1.389,0.6135 -2.5241,1.3125 -2.5241,1.5522 0,0.24 -1.1565,1.2045 -2.5711,2.1426 -1.4145,0.939 -3.8315,3.0819 -5.3717,4.7627 -1.54,1.6809 -3.6513,3.5464 -4.6915,4.1457 -1.041,0.6 -2.4755,1.5663 -3.1896,2.1489 -0.714,0.582 -1.9074,1.1925 -2.652,1.356 -0.993,0.2175 -1.7304,0.957 -2.765,2.77 -1.8325,3.2108 -3.9337,4.6334 -6.8434,4.6334 -1.224,0 -3.2355,0.3435 -4.4696,0.765 -4.2997,1.4655 -7.819,-0.3495 -9.1101,-4.6967 -0.8145,-2.7448 -0.9705,-10.1166 -0.2535,-12.0039 0.258,-0.6795 1.3305,-2.0322 2.3814,-3.0075 1.3785,-1.2795 2.0831,-2.437 2.5257,-4.1547 0.723,-2.8066 3.2508,-6.406 7.3254,-10.4316 1.6163,-1.5967 3.3783,-3.7938 3.9158,-4.8823 0.9825,-1.9908 2.7406,-3.7053 4.3092,-4.2032 0.465,-0.15 1.236,-1.1325 1.7113,-2.1883 0.4755,-1.056 2.0888,-2.9793 3.5835,-4.2741 1.8438,-1.5974 3.1965,-3.3174 4.2071,-5.3496 1.5753,-3.1677 4.8426,-6.4098 9.3382,-9.2657 1.3095,-0.8325 3.56,-2.7652 5.0006,-4.296 7.3869,-7.8492 9.525,-10.2256 9.525,-10.587 0,-0.2175 1.0185,-0.876 2.2621,-1.4625 1.245,-0.5865 2.798,-1.5477 3.4529,-2.1367 0.6555,-0.5895 2.007,-1.5017 3.0049,-2.0276 0.9975,-0.5265 3.3389,-2.6376 5.2022,-4.6923 3.4443,-3.7977 5.3523,-5.3938 6.4552,-5.3995 1.2045,-0.01 6.9605,-3.6101 8.8715,-5.5542 1.9936,-2.0282 4.4085,-3.4976 5.7478,-3.4976 0.414,0 1.5002,-0.747 2.4125,-1.6585 0.912,-0.912 2.3517,-2.013 3.1987,-2.4462 0.8475,-0.4335 2.3676,-1.5294 3.3789,-2.4359 2.2784,-2.0427 4.4663,-2.9844 6.933,-2.9844 1.6635,0 2.1156,-0.2625 3.6792,-2.1325 2.0931,-2.5041 4.1158,-3.5825 6.7195,-3.5825 1.422,0 2.6594,-0.5115 5.0702,-2.0944 1.7538,-1.152 3.9817,-2.2431 4.951,-2.4249 0.969,-0.1815 3.9393,-1.4715 6.5999,-2.8677 2.6605,-1.395 6.0901,-2.9034 7.6212,-3.351 1.531,-0.4485 3.748,-1.1925 4.9267,-1.6547 1.179,-0.462 3.1076,-0.993 4.2863,-1.1805 1.179,-0.186 3.0907,-0.96 4.2489,-1.7176 1.158,-0.7575 2.5512,-1.3785 3.0955,-1.3785 0.5445,1e-4 2.2758,-0.417 3.8475,-0.9255 3.7013,-1.1985 9.3918,-2.1369 12.2873,-2.0252 1.4715,0.06 2.9307,-0.2415 4.095,-0.8355 2.5693,-1.311 7.6876,-2.4058 11.2446,-2.4058 2.3589,0 3.5536,-0.276 5.3281,-1.227 2.0796,-1.116 2.612,-1.2 5.8593,-0.9255 7.1631,0.6075 14.4324,0.1785 16.9488,-1.0005 1.7094,-0.801 2.9157,-0.8985 9.8919,-0.8025 5.7647,0.075 8.3673,0.3015 9.4832,0.807 0.846,0.384 3.0382,0.816 4.8718,0.96 1.8335,0.15 4.6196,0.465 6.1913,0.7125 1.5715,0.2475 5.4025,0.78 8.5131,1.1835 3.6846,0.4785 6.3402,1.092 7.62,1.7617 1.08,0.5655 3.0358,1.341 4.3456,1.7226 1.3095,0.3825 3.1592,1.3095 4.1102,2.0618 0.951,0.7515 2.3439,1.5096 3.0955,1.6845 2.7059,0.6285 5.3613,2.5624 6.6776,4.8612 0.708,1.2375 1.3605,2.3421 1.449,2.4552 0.09,0.12 0.858,-0.471 1.7103,-1.296 0.852,-0.8265 2.3676,-1.7853 3.3669,-2.1312 1.9152,-0.663 4.5351,-3.6924 9.2148,-10.6548 1.257,-1.8698 2.9806,-3.8792 3.8311,-4.4657 0.8505,-0.5865 1.988,-1.7809 2.5278,-2.6544 0.54,-0.873 2.4159,-2.5479 4.1688,-3.7207 2.0204,-1.3515 3.678,-2.9202 4.5281,-4.2846 0.975,-1.5639 2.0158,-2.4741 3.81,-3.3294 1.3575,-0.648 2.7357,-1.6157 3.0615,-2.1518 0.3255,-0.5355 1.4325,-1.4025 2.4588,-1.9269 1.266,-0.6465 2.4106,-1.8363 3.5592,-3.7021 0.9315,-1.5125 2.3254,-3.1841 3.0987,-3.7145 1.7653,-1.2105 5.9407,-5.2203 12.6747,-12.1704 3.2595,-3.3643 6.1383,-5.8761 7.62,-6.6487 1.8091,-0.9435 2.6746,-1.7936 3.6028,-3.539 0.672,-1.263 1.9844,-2.8549 2.9168,-3.5367 0.933,-0.6825 2.455,-2.0967 3.384,-3.1444 0.9285,-1.047 2.724,-2.4321 3.9889,-3.0764 1.2645,-0.645 3.4787,-2.3941 4.9193,-3.8886 1.7667,-1.8327 3.2157,-2.877 4.4511,-3.2082 1.7862,-0.4785 4.2732,-2.4712 9.8364,-7.8804 1.44,-1.401 3.3327,-2.9481 4.2043,-3.4386 0.8715,-0.4905 2.3178,-1.9093 3.2136,-3.1533 0.987,-1.371 2.5793,-2.778 4.0412,-3.5718 1.3275,-0.72 3.6991,-2.3283 5.2714,-3.5724 1.5723,-1.2434 3.0644,-2.2621 3.3155,-2.2621 0.252,0 1.8496,-1.296 3.5518,-2.8794 1.7024,-1.5837 4.0239,-3.2775 5.1593,-3.7641 1.1355,-0.486 3.1392,-1.8163 4.453,-2.9547 1.314,-1.1385 3.5004,-3.0343 4.8588,-4.213 1.359,-1.179 3.3057,-2.4647 4.3278,-2.8575 1.119,-0.4305 2.294,-1.3785 2.9529,-2.3813 0.6375,-0.972 2.2139,-2.2632 3.7766,-3.0957 1.4745,-0.786 3.8304,-2.1232 5.2339,-2.9721 1.404,-0.849 3.158,-1.5453 3.8988,-1.5478 0.93,0 1.9161,-0.579 3.1877,-1.8636 1.0125,-1.023 2.6565,-2.1227 3.6537,-2.4446 0.9975,-0.3225 2.9916,-1.6921 4.4322,-3.0447 1.44,-1.353 3.2623,-2.7229 4.0482,-3.0453 0.786,-0.3225 1.9176,-1.338 2.5152,-2.2558 1.428,-2.1956 3.7104,-3.539 6.0156,-3.5412 1.9249,0 6.2622,-2.3073 7.1403,-3.7955 1.191,-2.0175 4.1437,-4.2196 6.3778,-4.7556 1.5152,-0.363 2.8556,-1.0845 3.731,-2.0076 1.3904,-1.4655 6.1796,-4.1052 9.2587,-5.1025 0.936,-0.303 2.4204,-1.293 3.2994,-2.1999 0.879,-0.9075 2.3637,-1.8836 3.2994,-2.1705 5.4226,-1.6623 9.0883,-3.4614 10.3062,-5.0582 1.6792,-2.2015 3.8673,-3.483 5.9506,-3.4852 1.281,0 2.0396,-0.3645 3.0956,-1.485 0.7695,-0.816 2.3421,-1.8938 3.495,-2.3952 1.1535,-0.501 2.749,-1.5501 3.5469,-2.3303 1.4925,-1.4595 3.8325,-2.3563 6.1581,-2.361 0.8145,0 2.2195,-0.711 3.6532,-1.8441 3.3017,-2.6097 9.8363,-6.0361 12.6656,-6.6414 1.3215,-0.282 3.6471,-1.1685 5.1681,-1.9686 1.521,-0.7995 3.1602,-1.455 3.6424,-1.455 1.008,0 3.8612,-1.5621 5.9052,-3.2335 1.8585,-1.5198 3.162,-1.9766 7.0269,-2.4618 2.3505,-0.2955 3.6182,-0.7305 4.6445,-1.5938 1.3245,-1.1145 5.0437,-2.5491 9.3411,-3.604 3.5865,-0.8805 7.4404,-2.7927 8.3149,-4.1261 1.2705,-1.9356 3.4422,-3.1182 7.0328,-3.8284 7.6183,-1.5068 9.492,-2.0457 11.2423,-3.2337 1.02,-0.693 2.9361,-1.5804 4.2566,-1.9725 1.32,-0.3915 2.8875,-1.17 3.4825,-1.7292 1.3095,-1.23 4.9601,-2.2554 9.4553,-2.6543 1.8711,-0.1665 4.4524,-0.7905 5.8836,-1.4235 1.4025,-0.6195 3.5455,-1.254 4.7625,-1.41 1.2165,-0.1545 3.6717,-0.9105 5.4549,-1.6803 1.7833,-0.7695 4.7836,-1.6692 6.6675,-2.0004 2.2387,-0.393 4.7812,-1.3125 7.3399,-2.6532 3.3389,-1.7493 4.1882,-2.0073 5.7728,-1.7539 1.2885,0.2055 2.7168,0 4.6578,-0.681 5.4297,-1.8957 11.0763,-3.0303 13.1475,-2.6418 1.0605,0.1995 2.2845,0.045 3.4437,-0.4425 2.3185,-0.969 11.5641,-1.7279 14.4588,-1.1865 1.8612,0.348 2.644,0.2325 4.9155,-0.723 4.0153,-1.6901 6.2074,-1.9089 9.4092,-0.939 2.6668,0.807 2.7984,0.804 4.6119,-0.12 2.8969,-1.467 4.6449,-1.6772 7.4376,-0.8955 1.389,0.3885 3.8113,0.939 5.383,1.2225 1.5716,0.2835 3.3932,0.906 4.0481,1.3845 0.6555,0.4785 2.4883,1.5579 4.0746,2.3989 1.8013,0.9555 3.2164,2.1036 3.7699,3.0599 0.4875,0.8415 1.6542,2.2999 2.5929,3.24 4.311,4.3164 10.6053,12.6406 11.6717,15.4359 0.813,2.13 1.7034,6.0957 1.7034,7.5834 0,0.8715 -0.3255,2.5072 -0.7245,3.636 -0.6765,1.9185 -0.657,2.2522 0.2955,5.1157 1.1955,3.5919 1.0365,5.8247 -0.711,9.9749 -0.9795,2.3268 -1.0965,3.1027 -0.747,4.971 0.5415,2.8947 -0.2175,12.1402 -1.1865,14.4588 -0.4845,1.1595 -0.642,2.3835 -0.4425,3.4437 0.3885,2.071 -0.7455,7.7178 -2.6418,13.1475 -0.678,1.941 -0.8865,3.3696 -0.681,4.6576 0.2535,1.5848 0,2.4341 -1.7538,5.7729 -1.341,2.5586 -2.2596,5.1012 -2.6532,7.3398 -0.3315,1.8839 -1.2315,4.8843 -2.0004,6.6675 -0.7695,1.7834 -1.5252,4.2381 -1.6803,5.4551 -0.1545,1.2165 -0.789,3.3601 -1.41,4.7625 -0.633,1.431 -1.257,4.0125 -1.4235,5.8836 -0.399,4.4952 -1.4235,8.1451 -2.6541,9.4552 -0.5595,0.5955 -1.3365,2.1621 -1.7294,3.4825 -0.3915,1.32 -1.2795,3.2358 -1.9723,4.2564 -1.188,1.7505 -1.727,3.6242 -3.2339,11.2424 -0.7095,3.5905 -1.8927,5.763 -3.8284,7.0327 -1.3335,0.8745 -3.2456,4.7286 -4.1259,8.315 -1.0545,4.2975 -2.4902,8.0172 -3.6041,9.3411 -0.864,1.026 -1.299,2.2939 -1.5937,4.6446 -0.4845,3.8647 -0.942,5.1684 -2.4618,7.0269 -1.6715,2.044 -3.2336,4.8966 -3.2336,5.9052 0,0.483 -0.654,2.1213 -1.455,3.6424 -0.7995,1.521 -1.686,3.8466 -1.9686,5.168 -0.606,2.8294 -4.0318,9.364 -6.6415,12.6655 -1.1325,1.434 -1.8425,2.8386 -1.8441,3.6533 0,2.3256 -0.9015,4.6657 -2.361,6.1582 -0.78,0.798 -1.8287,2.394 -2.3301,3.5469 -0.501,1.1535 -1.5794,2.7255 -2.3952,3.4949 -1.1205,1.056 -1.4835,1.8147 -1.485,3.0957 0,2.0833 -1.284,4.2714 -3.4851,5.9505 -1.5968,1.218 -3.3959,4.8837 -5.0583,10.3062 -0.2865,0.936 -1.263,2.4204 -2.1704,3.2995 -0.9075,0.879 -1.8969,2.3637 -2.2,3.2994 -0.9975,3.0791 -3.6365,7.868 -5.1026,9.2588 -0.9225,0.876 -1.644,2.2156 -2.0074,3.7308 -0.5355,2.2341 -2.7381,5.1876 -4.7556,6.378 -1.488,0.8775 -3.7937,5.2153 -3.7956,7.1403 0,2.3052 -1.3455,4.5871 -3.5411,6.0156 -0.918,0.597 -1.9338,1.7293 -2.256,2.5152 -0.3225,0.786 -1.6926,2.6074 -3.0451,4.0482 -1.353,1.44 -2.7228,3.4351 -3.0447,4.4322 -0.3225,0.9975 -1.422,2.6412 -2.4446,3.6535 -1.284,1.272 -1.8606,2.2572 -1.8637,3.1878 0,0.741 -0.699,2.4953 -1.5477,3.8988 -0.849,1.404 -2.1864,3.7587 -2.9721,5.2338 -0.8325,1.5629 -2.1245,3.1389 -3.0957,3.7767 -1.0035,0.6585 -1.9512,1.8344 -2.3813,2.9529 -0.393,1.0215 -1.6788,2.9696 -2.8575,4.3278 -1.179,1.359 -3.0745,3.5447 -4.213,4.8587 -1.1385,1.314 -2.4681,3.318 -2.9547,4.4532 -0.486,1.1355 -2.1806,3.4569 -3.7641,5.1592 -1.5837,1.7022 -2.8794,3.3006 -2.8794,3.5517 0,0.252 -1.0185,1.7432 -2.2622,3.3155 -1.245,1.5724 -2.8518,3.9445 -3.5724,5.2714 -0.7935,1.4625 -2.2014,3.0545 -3.5719,4.0413 -1.2435,0.8955 -2.6628,2.3418 -3.1533,3.2136 -0.4905,0.8715 -2.0378,2.7636 -3.4385,4.2044 -5.4093,5.5632 -7.4016,8.05 -7.8804,9.8362 -0.3315,1.236 -1.3755,2.6844 -3.2082,4.4513 -1.494,1.44 -3.2443,3.6543 -3.8886,4.9192 -0.645,1.2645 -2.0286,3.0599 -3.0763,3.9888 -1.0485,0.9285 -2.4629,2.4519 -3.1446,3.3842 -0.681,0.933 -2.2733,2.2449 -3.5367,2.9167 -1.7454,0.9285 -2.5955,1.7937 -3.539,3.6029 -0.7725,1.482 -3.2844,4.3603 -6.6486,7.62 -6.9502,6.7339 -10.9594,10.9093 -12.1704,12.6745 -0.531,0.774 -2.202,2.1678 -3.7144,3.0989 -1.8659,1.149 -3.056,2.2926 -3.7022,3.559 -0.5235,1.026 -1.3905,2.1332 -1.9269,2.459 -0.5355,0.3255 -1.5043,1.7034 -2.1517,3.0615 -0.855,1.7941 -1.7655,2.8357 -3.3294,3.81 -1.365,0.8505 -2.933,2.5075 -4.2848,4.528 -1.173,1.7529 -2.847,3.6288 -3.7206,4.1687 -0.873,0.54 -2.068,1.6774 -2.6545,2.5279 -0.5865,0.8505 -2.5959,2.5745 -4.4655,3.8312 -4.4739,3.007 -9.4971,6.9067 -9.9608,7.7326 -0.2475,0.4395 0.03,0.9255 0.8535,1.461 1.3635,0.894 3.2843,3.9909 3.7704,6.081 0.174,0.7515 0.933,2.1449 1.6845,3.0957 0.7515,0.951 1.6794,2.8005 2.0618,4.1102 0.3825,1.3095 1.158,3.2652 1.7226,4.3456 0.669,1.2795 1.2825,3.9354 1.7616,7.62 0.4035,3.1106 0.936,6.9416 1.1835,8.5131 0.2475,1.5717 0.567,4.3577 0.7125,6.1913 0.15,1.8336 0.576,4.0258 0.96,4.8717 0.5055,1.116 0.7275,3.7186 0.807,9.4831 0.09,6.9762 0,8.1826 -0.8025,9.892 -1.179,2.5163 -1.6074,9.7856 -1.0005,16.9488 0.276,3.2474 0.192,3.7796 -0.924,5.8592 -0.9525,1.7745 -1.2285,2.9692 -1.2285,5.3283 0,3.5568 -1.095,8.6752 -2.4059,11.2446 -0.594,1.164 -0.891,2.6238 -0.8355,4.095 0.105,2.8954 -0.8265,8.5858 -2.0251,12.2872 -0.5085,1.5717 -0.9255,3.303 -0.9255,3.8474 10e-5,0.5445 -0.6195,1.9375 -1.3785,3.0957 -0.7575,1.158 -1.5312,3.07 -1.7178,4.2489 -0.186,1.179 -0.717,3.1074 -1.1805,4.2862 -0.462,1.179 -1.2075,3.3957 -1.6547,4.9268 -0.4485,1.531 -1.9557,4.9605 -3.351,7.6212 -1.395,2.6605 -2.6859,5.6305 -2.8677,6.5997 -0.1815,0.969 -1.2735,3.1972 -2.425,4.951 -1.5834,2.4108 -2.0943,3.6477 -2.0943,5.0702 0,2.6038 -1.0785,4.6264 -3.5825,6.7197 -1.8705,1.5634 -2.1325,2.0155 -2.1325,3.6792 0,2.4667 -0.942,4.6545 -2.9844,6.933 -0.906,1.011 -2.0027,2.5317 -2.4359,3.3787 -0.4335,0.8475 -1.534,2.2868 -2.4462,3.1989 -0.912,0.912 -1.6585,1.9979 -1.6585,2.4125 0,1.3395 -1.47,3.754 -3.4977,5.7477 -1.944,1.911 -5.548,7.6674 -5.5542,8.8714 -0.01,1.1025 -1.6017,3.0111 -5.3995,6.4553 -2.0546,1.8634 -4.1661,4.2045 -4.6922,5.2023 -0.5265,0.9975 -1.4385,2.35 -2.0275,3.0049 -0.5895,0.6555 -1.5507,2.2086 -2.1369,3.4527 -0.5865,1.2435 -1.2435,2.2623 -1.4625,2.2623 -0.3615,0 -2.7378,2.138 -10.587,9.525 -1.5308,1.44 -3.464,3.6909 -4.296,5.0006 -2.856,4.4956 -6.098,7.7629 -9.2658,9.3382 -2.0321,1.011 -3.7521,2.3633 -5.3495,4.2071 -1.2945,1.494 -3.2182,3.1072 -4.2742,3.5833 -1.056,0.4755 -2.0406,1.2465 -2.1882,1.7115 -0.498,1.5684 -2.2124,3.3263 -4.2033,4.3092 -1.089,0.537 -3.2855,2.2995 -4.8824,3.9158 -4.0254,4.0744 -7.6249,6.6022 -10.4314,7.3254 -1.7177,0.4425 -2.8757,1.146 -4.1547,2.5257 -0.975,1.0515 -2.3288,2.1232 -3.0077,2.3814 -1.8141,0.69 -9.6361,0.51 -12.205,-0.2805 z m 54.1806,-59.828 c 2.06,-1.8987 3.5247,-4.0267 3.5247,-5.1207 0,-0.8625 -3.5911,-0.579 -4.4323,0.351 -1.7021,1.8807 -2.9645,6.7692 -1.7483,6.7692 0.2685,0 1.4625,-0.9 2.6559,-1.9995 z m 54.0072,-87.2974 c 0,-1.44 -0.12,-2.6193 -0.27,-2.6193 -1.9181,0 -3.3239,3.5229 -1.839,4.6086 1.6569,1.212 2.1084,0.786 2.1084,-1.9893 z m -39.6157,-4.6434 c 0.501,-1.113 1.4775,-2.546 2.1708,-3.1838 0.693,-0.6375 1.4955,-2.0295 1.7812,-3.0928 0.2865,-1.0635 1.26,-2.7518 2.1638,-3.752 1.398,-1.5478 1.6215,-2.1091 1.4985,-3.7683 l -0.15,-1.9495 -3.1241,-0.045 c -2.7183,-0.045 -3.3366,-0.2235 -4.7625,-1.4265 l -1.6384,-1.3815 -0.3465,5.1912 c -0.2025,3.0256 -0.153,6.1449 0.12,7.477 0.2565,1.257 0.4665,3.2219 0.4665,4.3664 0,1.9183 0.345,3.5874 0.7425,3.5874 0.09,0 0.5745,-0.9105 1.0755,-2.0241 z m -124.4576,-9.5814 c 0.8625,-0.6315 0.8595,-0.669 -0.12,-1.191 -1.4085,-0.753 -1.5459,-0.696 -1.5459,0.6525 0,1.3515 0.3825,1.4745 1.6617,0.5385 z m -7.5607,-13.7726 c -0.654,-1.365 -1.7372,-3.1255 -2.4057,-3.9114 -1.11,-1.305 -1.2165,-1.341 -1.218,-0.4155 0,0.5565 0.333,1.2915 0.744,1.6322 1.188,0.9855 1.9566,2.8701 2.3157,5.677 0.183,1.434 0.588,2.9162 0.8985,3.2934 0.456,0.5535 0.5925,0.252 0.711,-1.5537 0.105,-1.6315 -0.177,-2.9131 -1.044,-4.722 z m 25.9921,0.792 c 1.9511,-1.7247 3.7701,-2.7433 5.7435,-3.2166 1.8824,-0.4515 1.7076,-1.7227 -0.2385,-1.732 -0.8505,0 -2.7801,-0.297 -4.2862,-0.6525 l -2.7384,-0.645 v 1.332 c 0,1.491 -1.8936,3.3058 -3.449,3.3058 -0.66,0 -0.8535,0.2235 -0.6495,0.753 0.159,0.414 0.2895,1.6106 0.2895,2.6582 v 1.9048 l 1.7859,-1.077 c 0.9825,-0.5925 2.5769,-1.7769 3.5435,-2.6313 z m -69.1786,0.297 c 0.03,-1.5717 0.09,-3.1254 0.12,-3.4528 0.03,-0.327 -0.7095,-1.7133 -1.64,-3.0798 -1.6468,-2.4203 -2.6913,-5.7626 -2.7654,-8.8499 -0.015,-0.8385 -0.3195,-2.3817 -0.6645,-3.4294 l -0.6285,-1.905 -0.045,1.7011 c -0.03,0.936 -0.3555,2.6501 -0.7275,3.81 -0.372,1.1595 -0.807,2.8908 -0.9645,3.8465 -0.3885,2.3479 -1.8922,4.1313 -4.383,5.199 -1.1385,0.4875 -2.0709,1.0095 -2.0709,1.1595 0,0.15 0.9585,0.6825 2.1287,1.185 1.1715,0.5025 3.0874,1.7962 4.2594,2.8764 1.7358,1.6 5.5881,3.6721 7.0183,3.775 0.1695,0.012 0.3375,-1.263 0.3735,-2.8351 z m 41.0383,-14.896 1.4985,-1.8639 -2.7826,-2.8119 c -1.5305,-1.5467 -2.9406,-2.8119 -3.1335,-2.8119 -0.1935,0 -0.03,0.903 0.357,2.0062 0.39,1.104 0.822,3.6218 0.9615,5.5961 0.135,1.9741 0.381,4.1253 0.534,4.7802 0.24,1.0185 0.3375,0.8865 0.6735,-0.921 0.2235,-1.1955 1.0425,-2.9187 1.891,-3.9746 z m 129.8843,4.6171 c 0.4995,-2.9353 1.242,-4.585 2.9244,-6.4968 2.4777,-2.8147 3.9178,-8.4154 1.6881,-6.5649 -0.402,0.3345 -1.9617,0.7395 -3.4643,0.9015 l -2.7321,0.294 0.06,1.905 c 0.03,1.047 0.315,2.9001 0.6225,4.1162 0.462,1.8252 0.4335,2.5132 -0.1635,3.9408 -0.75,1.7944 -0.564,3.3069 0.369,2.9965 0.2955,-0.105 0.606,-0.5895 0.6915,-1.092 z m -83.4989,-1.5804 c 0.786,-0.4965 3.036,-2.4495 5.0006,-4.341 1.9645,-1.8916 4.5363,-3.8569 5.715,-4.3672 1.179,-0.51 2.5717,-1.3245 3.0957,-1.8102 0.5235,-0.486 2.667,-1.8029 4.7625,-2.928 4.7247,-2.537 9.6196,-5.9216 10.2397,-7.0802 0.2565,-0.48 1.7433,-1.5106 3.3027,-2.2899 4.3004,-2.1489 7.053,-4.2016 12.7343,-9.4965 1.476,-1.3755 2.8531,-2.5002 3.0612,-2.5002 0.2085,0 1.6216,-1.0335 3.1414,-2.2956 1.5197,-1.263 3.4061,-2.6952 4.1919,-3.1836 5.5461,-3.4467 7.9454,-5.3099 10.2278,-7.943 1.434,-1.6547 3.0417,-3.3171 3.5718,-3.6945 0.5295,-0.378 2.2618,-1.9848 3.8478,-3.572 3.2971,-3.2994 6.0073,-5.5066 8.0712,-6.5734 0.786,-0.4065 1.858,-1.2135 2.3812,-1.7919 0.5235,-0.579 1.9536,-1.5609 3.1784,-2.1821 1.2255,-0.621 2.3493,-1.5148 2.4988,-1.986 0.3405,-1.074 6.7794,-6.7828 7.6499,-6.7828 0.354,0 2.4889,-1.8753 4.7449,-4.1673 2.2559,-2.2919 5.7561,-5.8458 7.7781,-7.8974 2.022,-2.0515 4.5336,-4.2831 5.5813,-4.959 3.1818,-2.0523 9.6876,-8.2434 10.9802,-10.449 0.8355,-1.4265 2.032,-2.5365 3.8197,-3.5455 1.7462,-0.9855 2.9862,-2.1231 3.7677,-3.4568 1.4655,-2.5002 3.167,-4.1137 6.1974,-5.8759 1.4475,-0.8415 2.777,-2.0882 3.3896,-3.1776 0.555,-0.9855 2.805,-3.3738 5.0007,-5.3061 5.4633,-4.8077 5.5864,-4.9308 8.2497,-8.2466 1.4385,-1.7905 3.1461,-3.313 4.3944,-3.9174 1.182,-0.5715 2.8548,-2.0263 3.9709,-3.4515 1.0605,-1.3545 2.8278,-3.6075 3.9263,-5.0062 1.098,-1.3995 4.2537,-4.5974 7.0116,-7.1081 2.7579,-2.5107 5.5791,-5.4382 6.2695,-6.5056 0.69,-1.068 2.0487,-2.6909 3.0183,-3.6075 0.969,-0.9165 2.1521,-2.4171 2.6274,-3.3338 1.161,-2.2392 2.7624,-3.6604 4.9938,-4.4329 1.5239,-0.528 1.941,-0.957 2.3601,-2.4266 0.5355,-1.8772 5.2907,-7.8165 7.5477,-9.4263 0.729,-0.519 2.4291,-2.5861 3.7799,-4.5927 1.35,-2.0067 4.7529,-5.9334 7.5604,-8.7262 2.8074,-2.7927 5.2526,-5.5442 5.4335,-6.1145 0.714,-2.2485 3.8551,-6.8721 5.152,-7.5828 2.8043,-1.5364 3.7835,-2.6394 5.3022,-5.9722 1.1445,-2.5104 2.1524,-3.9047 3.8006,-5.2553 1.5535,-1.2735 2.6523,-2.7397 3.5725,-4.7695 1.2165,-2.6831 3.3987,-4.9947 4.715,-4.9947 1.0125,0 1.9845,-1.5584 1.9845,-3.1839 0,-2.2662 1.666,-5.0936 3.9231,-6.6578 1.017,-0.705 2.1507,-2.0013 2.5179,-2.8803 0.6105,-1.461 1.5949,-2.6251 7.0686,-8.3566 1.0125,-1.0605 2.6721,-3.7346 3.6871,-5.9421 1.0155,-2.2076 2.2839,-4.571 2.8197,-5.2521 0.5355,-0.681 1.7855,-2.9675 2.7771,-5.0807 1.197,-2.5504 2.552,-4.5546 4.0304,-5.9608 1.2255,-1.1655 2.2273,-2.4413 2.2273,-2.8356 0,-1.5474 4.2983,-9.4964 5.8172,-10.7582 5.1664,-4.2916 5.6128,-4.8945 5.6128,-7.5796 0,-1.9292 0.2775,-2.9036 1.1775,-4.1411 0.648,-0.8895 1.7639,-2.4754 2.4809,-3.5232 0.717,-1.0485 2.3205,-3.0067 3.5634,-4.3534 2.2177,-2.4032 2.4294,-2.8595 3.0157,-6.5003 0.2085,-1.2945 0.927,-2.4451 2.5412,-4.0672 2.2647,-2.2766 2.4375,-2.6721 4.3462,-9.9506 0.3765,-1.4385 1.032,-2.3811 2.2982,-3.3075 0.9735,-0.7125 1.932,-1.4265 2.1294,-1.5858 0.198,-0.159 0.687,-1.5483 1.0875,-3.0862 0.4005,-1.5381 1.23,-3.7769 1.8432,-4.9752 0.6135,-1.1985 1.5142,-3.1302 2.0023,-4.293 0.4875,-1.1625 2.01,-3.2102 3.3819,-4.5495 2.6663,-2.6033 3.5958,-4.5789 4.1469,-8.8136 0.462,-3.5551 2.7287,-8.1511 4.7967,-9.7285 1.221,-0.9315 1.671,-1.6397 1.671,-2.6312 0,-0.765 0.7395,-2.4552 1.6974,-3.879 0.933,-1.3875 1.8143,-3.106 1.9569,-3.8196 0.255,-1.278 0.228,-1.2945 -1.8165,-1.074 -4.1223,0.444 -8.301,1.218 -9.9748,1.8459 -0.939,0.3525 -3.0824,0.6375 -4.7625,0.6345 -1.6802,0 -4.0193,0.222 -5.198,0.4995 -6.2844,1.4835 -18.5721,-0.411 -25.6755,-3.9577 -1.2015,-0.6 -2.992,-1.2165 -3.9784,-1.3695 -0.987,-0.153 -2.3547,-0.72 -3.0408,-1.2585 -0.876,-0.69 -1.9457,-0.981 -3.5958,-0.981 -2.9048,0 -3.9006,-0.489 -6.4013,-3.1445 -1.1385,-1.209 -2.4036,-2.0943 -2.9919,-2.0943 -2.0028,0 -4.3156,-1.3905 -5.7897,-3.4825 -1.065,-1.5114 -2.0154,-2.2691 -3.3447,-2.6673 -1.7239,-0.516 -8.2338,-6.0281 -10.5817,-8.9592 -0.477,-0.5955 -1.227,-1.0875 -1.667,-1.0935 -2.0091,-0.03 -4.8727,-1.9023 -6.2722,-4.1091 -0.7965,-1.2555 -2.3841,-2.8557 -3.5603,-3.5877 -1.167,-0.7275 -2.5035,-1.9154 -2.9685,-2.6412 -0.465,-0.726 -2.2465,-2.7128 -3.9586,-4.4153 -2.3019,-2.2888 -3.3417,-3.7528 -3.9902,-5.6173 -0.483,-1.3875 -1.6041,-3.3922 -2.493,-4.456 -0.8895,-1.0635 -1.7746,-2.1912 -1.9684,-2.505 -0.1935,-0.3135 -1.134,-1.0455 -2.0892,-1.6247 -2.5074,-1.5214 -3.3347,-3.0948 -3.7779,-7.1857 -0.384,-3.5435 -0.438,-3.6564 -2.7383,-5.7575 -2.5866,-2.3623 -4.8472,-6.3987 -5.9509,-10.6249 -0.513,-1.9643 -1.3065,-3.3729 -2.8901,-5.1351 -1.29,-1.434 -2.3986,-3.2384 -2.7094,-4.407 -0.2895,-1.0875 -1.029,-3.1574 -1.6433,-4.598 -0.615,-1.44 -1.2555,-3.5838 -1.4235,-4.7625 -0.168,-1.179 -0.4635,-3.2148 -0.6555,-4.5244 -0.192,-1.3095 -1.2465,-4.1445 -2.3422,-6.2997 -1.0965,-2.1552 -1.9934,-4.352 -1.9934,-4.8816 0,-1.137 0.273,-1.1205 -4.5343,-0.27 -5.3117,0.9405 -6.3063,1.404 -9.0609,4.225 -1.329,1.362 -3.3684,2.8749 -4.5312,3.363 -1.1625,0.4875 -3.0947,1.389 -4.293,2.0022 -1.1985,0.6135 -3.4371,1.443 -4.9751,1.8432 -1.5379,0.4005 -2.9268,0.8895 -3.0862,1.0875 -0.159,0.198 -0.873,1.155 -1.5858,2.1296 -0.927,1.266 -1.8695,1.9209 -3.3075,2.2981 -7.2785,1.9088 -7.674,2.0816 -9.9506,4.3461 -1.6221,1.6136 -2.7732,2.3328 -4.0674,2.5412 -3.6408,0.5865 -4.0971,0.798 -6.5001,3.0159 -1.347,1.2435 -3.3057,2.8462 -4.3534,3.5634 -1.0485,0.717 -2.6333,1.8333 -3.5234,2.4807 -1.2375,0.9 -2.2117,1.1775 -4.1409,1.1775 -2.6851,0 -3.288,0.447 -7.5797,5.6127 -1.2615,1.519 -9.2108,5.8173 -10.758,5.8173 -0.3945,0 -1.6704,1.002 -2.8356,2.2272 -1.407,1.479 -3.4106,2.8335 -5.9609,4.0303 -2.1132,0.9915 -4.3995,2.2415 -5.0806,2.7773 -0.681,0.5355 -3.0446,1.8046 -5.2523,2.8197 -2.2075,1.0155 -4.8814,2.6742 -5.9419,3.687 -5.7317,5.4738 -6.8952,6.4581 -8.3567,7.0687 -0.879,0.3675 -2.1753,1.5003 -2.8804,2.5178 -1.5642,2.2571 -4.3914,3.9232 -6.6576,3.9232 -1.6256,0 -3.1839,0.972 -3.1839,1.9845 0,1.3155 -2.3117,3.4983 -4.9949,4.7149 -2.0296,0.921 -3.4965,2.019 -4.7694,3.5724 -1.35,1.6484 -2.7448,2.6565 -5.2552,3.8006 -3.3329,1.5189 -4.4358,2.4981 -5.9724,5.3022 -0.711,1.2975 -5.3342,4.4385 -7.5828,5.152 -0.57,0.1815 -3.3216,2.6261 -6.1145,5.4336 -2.7927,2.8074 -6.7195,6.2096 -8.7261,7.5603 -2.0067,1.3515 -4.0734,3.0518 -4.5927,3.7799 -1.6099,2.2572 -7.549,7.0128 -9.4264,7.5478 -1.47,0.4185 -1.8989,0.8355 -2.4264,2.3601 -0.7725,2.2314 -2.1939,3.8325 -4.433,4.9937 -0.9165,0.4755 -2.4169,1.6578 -3.3337,2.6275 -0.9165,0.969 -2.5401,2.3279 -3.6075,3.0183 -1.068,0.69 -3.995,3.5117 -6.5057,6.2696 -2.5107,2.7579 -5.7093,5.913 -7.108,7.0114 -1.3995,1.098 -3.6516,2.8653 -5.0063,3.9263 -1.425,1.116 -2.8795,2.7895 -3.4516,3.9709 -0.6045,1.248 -2.1267,2.9564 -3.9174,4.3946 -3.3158,2.6631 -3.4388,2.7862 -8.2466,8.2497 -1.9321,2.1957 -4.3198,4.446 -5.3059,5.0005 -1.089,0.612 -2.3364,1.9428 -3.1778,3.3897 -1.7622,3.0303 -3.3756,4.7321 -5.8759,6.1973 -1.3335,0.7815 -2.4713,2.0215 -3.4568,3.7677 -1.0095,1.7878 -2.119,2.9839 -3.5455,3.8197 -2.2056,1.293 -8.3967,7.7985 -10.449,10.9803 -0.6765,1.047 -2.9073,3.5594 -4.9589,5.5814 -2.0517,2.022 -5.6055,5.5221 -7.8975,7.7781 -2.2918,2.256 -4.1671,4.3911 -4.1671,4.7449 0,0.87 -5.7089,7.3089 -6.783,7.6497 -0.471,0.15 -1.365,1.2735 -1.986,2.499 -0.621,1.2255 -1.6031,2.655 -2.1821,3.1784 -0.579,0.5235 -1.386,1.5948 -1.7917,2.3812 -1.0665,2.0639 -3.2742,4.7741 -6.5736,8.0711 -1.5872,1.5861 -3.1944,3.3175 -3.5718,3.8478 -0.378,0.5295 -2.04,2.1376 -3.6947,3.5719 -2.6329,2.2824 -4.4962,4.6815 -7.9431,10.2278 -0.4875,0.786 -1.9209,2.6722 -3.1834,4.1919 -1.263,1.5198 -2.2956,2.9334 -2.2956,3.1414 0,0.2085 -1.125,1.5855 -2.5004,3.0611 -5.2947,5.6814 -7.3474,8.434 -9.4963,12.7342 -0.78,1.5596 -1.8098,3.0458 -2.2901,3.3029 -1.158,0.6195 -4.543,5.515 -7.08,10.2397 -1.125,2.0955 -2.4571,4.2525 -2.9601,4.7933 -1.1475,1.233 -1.143,1.6896 0.045,3.8929 0.5235,0.978 0.9525,2.5148 0.9525,3.4163 0,1.101 0.558,2.4493 1.6986,4.1053 1.1655,1.6925 1.8111,3.2726 2.0571,5.0355 0.1965,1.413 0.7185,3.2552 1.1595,4.0934 0.4395,0.8385 0.801,2.017 0.8025,2.6194 0,0.6015 0.426,1.7919 0.9465,2.6433 0.519,0.852 1.1925,2.5661 1.4985,3.81 0.834,3.4074 2.6333,6.6717 5.1615,9.3663 2.4918,2.6558 3.8232,4.9152 3.8232,6.4884 0,0.561 0.747,1.8921 1.6599,2.9586 0.9135,1.0665 1.7963,2.708 1.9631,3.6476 0.1665,0.9405 0.891,2.6131 1.6107,3.7188 0.7185,1.1055 1.4445,3.0439 1.6122,4.3074 0.2625,1.9831 0.6045,2.5471 2.497,4.1295 1.206,1.008 2.5136,2.6056 2.9064,3.5508 0.393,0.945 1.6247,2.6946 2.7375,3.8878 1.113,1.194 2.2719,2.9229 2.5757,3.8436 0.3555,1.077 1.284,2.189 2.6016,3.1182 1.329,0.936 2.4321,2.2644 3.1386,3.7764 0.5985,1.2825 2.2168,3.5192 3.5949,4.97 1.7257,1.8169 2.8353,3.5425 3.5655,5.545 0.906,2.4854 1.3995,3.1271 3.396,4.421 1.284,0.8325 2.3359,1.6951 2.3359,1.9171 0,0.222 0.804,0.8835 1.7859,1.47 2.5905,1.5479 4.367,3.2906 5.3984,5.2959 0.498,0.969 1.8838,2.4338 3.0792,3.2562 1.1955,0.822 2.8056,2.3682 3.5785,3.4352 0.7725,1.0665 2.2346,2.6499 3.2481,3.5173 1.014,0.867 2.2818,2.5115 2.8185,3.6531 1.179,2.5089 3.7526,4.859 6.7074,6.1256 1.203,0.516 3.6042,2.2624 5.3364,3.882 1.7321,1.6195 4.0013,3.5056 5.0427,4.1914 1.176,0.774 2.2757,2.0601 2.9019,3.3923 0.708,1.5045 1.6331,2.5116 3.099,3.3706 1.149,0.6735 2.858,2.1619 3.7964,3.307 1.203,1.4685 2.314,2.2602 3.7696,2.687 1.197,0.351 2.8992,1.4145 4.0539,2.5344 1.095,1.0605 2.7342,2.3818 3.6437,2.935 0.909,0.5535 2.907,1.8776 4.4392,2.9433 1.5321,1.065 4.4526,3.0755 6.4899,4.4663 3.7476,2.5581 4.6887,3.5013 6.1557,6.1698 0.606,1.104 1.1475,1.476 2.1432,1.479 2.2475,0 4.7037,0.8955 6.5789,2.3851 0.984,0.7815 2.014,1.422 2.2884,1.422 1.2525,0 7.5055,3.7254 10.0858,6.009 4.5521,4.0289 12.3603,10.6071 12.6206,10.6328 0.135,0.013 0.8805,-0.3825 1.6669,-0.879 z m 129.9586,-253.9085 c -5.7934,-0.39 -6.7074,-0.7035 -9.3208,-3.2013 -1.6514,-1.578 -1.985,-1.6919 -5.477,-1.8693 -5.6893,-0.2895 -6.6116,-0.531 -8.7013,-2.2761 -1.065,-0.8895 -3.144,-1.9692 -4.6195,-2.3982 -1.5851,-0.4605 -3.261,-1.3575 -4.0961,-2.1932 -0.777,-0.777 -2.2198,-1.8247 -3.2053,-2.3275 -1.9055,-0.972 -5.718,-4.9628 -5.718,-5.9852 0,-1.02 -2.3919,-3.5275 -4.2863,-4.4938 -2.0514,-1.047 -4.2862,-3.5003 -4.2862,-4.7058 0,-0.453 -0.6,-1.7756 -1.332,-2.9402 -2.5031,-3.9778 -6.2877,-11.4261 -6.2877,-12.3741 0,-0.5205 -0.6435,-3.4059 -1.428,-6.4119 -0.786,-3.006 -1.4295,-5.9098 -1.4295,-6.4531 0,-0.543 -0.537,-2.1218 -1.1925,-3.5079 -0.8745,-1.8479 -1.197,-3.3326 -1.2105,-5.5664 -0.01,-1.6755 -0.045,-4.3321 -0.09,-5.9038 -0.045,-1.5716 0.2085,-4.4649 0.5475,-6.4293 0.339,-1.9646 0.756,-5.1794 0.927,-7.1438 0.225,-2.5848 0.6555,-4.1643 1.5576,-5.715 0.6855,-1.179 1.3845,-2.8855 1.5511,-3.7929 0.168,-0.9075 0.8385,-2.2066 1.491,-2.8875 1.269,-1.3245 2.3337,-4.5681 3.0932,-9.4204 0.258,-1.6523 0.813,-3.6882 1.233,-4.5245 0.42,-0.837 3.3654,-4.1238 6.5464,-7.3057 3.1811,-3.182 6.3561,-6.7181 7.0557,-7.8581 1.703,-2.775 6.3857,-7.8979 7.9665,-8.7153 0.699,-0.3615 2.0768,-0.8085 3.0606,-0.993 1.4235,-0.267 1.9689,-0.6885 2.6712,-2.0649 0.486,-0.951 1.281,-2.0652 1.7669,-2.4757 1.7887,-1.5102 6.9874,-4.2833 8.7884,-4.6878 1.02,-0.2295 2.5998,-1.071 3.5106,-1.8707 1.8215,-1.5991 4.622,-2.5752 6.2309,-2.1714 0.57,0.15 2.8327,-0.2835 5.0296,-0.948 7.0878,-2.1427 7.9257,-2.2332 14.0609,-1.5175 5.4738,0.639 5.7238,0.627 8.0272,-0.357 3.0387,-1.2975 5.1057,-1.2825 8.2286,0.06 1.9779,0.8505 2.9889,1.0125 4.825,0.768 3.1359,-0.4155 5.3993,0.4155 7.358,2.704 1.5925,1.8608 1.6404,1.8789 4.1748,1.5851 2.334,-0.27 2.8624,-0.135 5.8975,1.4745 3.6309,1.9303 4.5803,2.5774 11.3208,7.7167 3.9333,2.9988 4.6461,3.7679 5.5455,5.9841 0.672,1.655 1.9629,3.4467 3.6978,5.1314 1.4655,1.4235 3.252,3.1714 3.9686,3.8842 0.717,0.7125 1.5495,2.2751 1.8508,3.4719 0.3855,1.5305 1.1655,2.7714 2.6297,4.1811 1.9428,1.8711 3.1236,4.3725 3.1309,6.632 0,0.45 0.777,2.2266 1.7246,3.9495 1.3425,2.4436 1.7218,3.6661 1.7218,5.5591 0,1.476 0.3375,3.0071 0.861,3.9087 1.38,2.3759 1.6358,5.5724 0.687,8.5893 -0.684,2.1729 -0.7335,2.9922 -0.2895,4.7564 1.035,4.1109 0.384,8.083 -1.7049,10.3905 -0.669,0.7395 -0.699,1.191 -0.2205,3.2685 0.8025,3.474 0.6885,5.6772 -0.396,7.701 -0.5235,0.978 -0.9525,2.3205 -0.9525,2.9847 0,1.3695 -1.149,4.35 -2.0997,5.4459 -0.3495,0.402 -1.1205,2.2156 -1.7149,4.0291 -0.732,2.2334 -1.6929,3.9618 -2.9789,5.3568 -2.3332,2.5313 -3.4765,4.5084 -6.4306,11.1206 -1.134,2.5389 -1.9712,3.5791 -4.5845,5.6994 -1.7581,1.4265 -3.6249,3.2863 -4.1481,4.1331 -1.0065,1.629 -3.2115,3.2128 -5.1895,3.7281 -0.6555,0.171 -1.7651,1.134 -2.4671,2.14 -1.3395,1.9203 -5.6848,5.1339 -8.5743,6.3411 -0.936,0.3915 -1.8438,0.942 -2.0181,1.224 -0.768,1.242 -7.7772,4.2396 -10.7115,4.5801 -2.1604,0.2505 -3.5848,0.741 -4.9858,1.715 -1.8594,1.293 -2.246,1.368 -7.4382,1.4415 -3.0123,0.045 -6.4413,0.3525 -7.62,0.687 -2.9357,0.8355 -7.6701,1.6521 -9.0774,1.5673 -0.639,-0.045 -3.5453,-0.231 -6.4583,-0.426 z m 12.6782,-18.5091 c 3.9277,-0.246 4.7442,-0.45 6.1912,-1.5551 0.9165,-0.7005 2.238,-1.4145 2.936,-1.5892 0.774,-0.1935 1.4535,-0.8115 1.7409,-1.5849 1.179,-3.1676 2.0917,-6.1905 2.4213,-8.0136 0.1965,-1.0905 0.6855,-2.4837 1.086,-3.0957 0.4005,-0.612 0.858,-2.2914 1.017,-3.732 0.159,-1.44 0.513,-3.6911 0.7845,-5.0007 0.273,-1.3095 0.6885,-3.7284 0.9255,-5.375 0.237,-1.6467 0.666,-3.2773 0.9525,-3.6238 0.927,-1.116 2.2984,-5.7323 2.6412,-8.8871 0.4665,-4.2894 1.047,-6.3043 2.2612,-7.8484 0.6465,-0.822 1.1685,-2.3544 1.362,-4.0035 0.1725,-1.47 0.8685,-3.8448 1.544,-5.2788 0.7335,-1.5555 1.4265,-4.1954 1.7191,-6.5445 0.5385,-4.322 0.894,-5.2163 3.1107,-7.8221 0.822,-0.9675 1.7775,-2.8569 2.1218,-4.1998 0.429,-1.6734 1.1835,-2.9934 2.398,-4.1949 0.975,-0.9645 2.3736,-2.9321 3.1083,-4.3727 1.4805,-2.9046 2.7231,-4.6818 4.6031,-6.5872 0.69,-0.699 1.5916,-1.9397 2.0043,-2.7569 0.726,-1.4385 0.696,-1.5943 -0.933,-4.861 -1.5359,-3.0789 -1.9496,-3.5238 -4.7165,-5.0711 -1.668,-0.933 -3.634,-2.1954 -4.3687,-2.8057 -0.7905,-0.6555 -2.2938,-1.2375 -3.6788,-1.422 -1.2885,-0.1725 -3.2877,-0.8655 -4.4427,-1.5432 -1.155,-0.6765 -2.244,-1.086 -2.4198,-0.9105 -0.1755,0.1755 -0.324,2.07 -0.33,4.2091 -0.01,2.4803 -0.2565,4.3208 -0.69,5.0801 -0.3735,0.6555 -0.825,2.2621 -1.0005,3.5718 -0.1755,1.3095 -1.1145,4.2028 -2.0871,6.4294 -0.972,2.2265 -2.0749,4.9121 -2.4514,5.9679 -0.3765,1.056 -1.215,2.4923 -1.8639,3.192 -1.233,1.329 -2.7983,5.1366 -3.2832,7.9851 -0.3,1.7595 -2.8757,8.396 -3.596,9.2639 -0.2325,0.2805 -0.876,1.7209 -1.4295,3.2001 -0.5535,1.479 -1.335,2.9623 -1.7373,3.2961 -1.032,0.8565 -2.3796,3.6835 -2.7627,5.7939 -0.2145,1.1775 -0.9495,2.3991 -2.152,3.5719 -1.005,0.9795 -1.9902,2.318 -2.1894,2.9729 -0.1995,0.654 -0.867,1.8537 -1.4835,2.6643 -0.6165,0.81 -1.122,1.9114 -1.122,2.4465 0,0.5355 -0.7395,2.0149 -1.6418,3.2887 -0.903,1.2735 -2.8306,4.7138 -4.2837,7.6442 -1.4535,2.9305 -2.8341,5.4469 -3.0688,5.592 -0.462,0.285 -4.0416,7.4931 -4.5351,9.1315 -0.1665,0.5505 -0.9405,1.5705 -1.7205,2.2659 -0.78,0.696 -1.419,1.5518 -1.419,1.9034 0,0.351 -0.693,1.5822 -1.5405,2.7348 -0.8475,1.152 -1.8972,2.874 -2.333,3.8254 l -0.792,1.7298 2.7939,0.3165 c 2.0462,0.231 3.4403,0.7515 5.2097,1.9418 3.1785,2.139 9.7306,3.8881 11.9022,3.1773 0.393,-0.135 2.7504,-0.3615 5.2387,-0.516 z m 22.2069,-6.2147 c 1.2,-0.015 1.6062,-0.3015 2.0854,-1.458 0.72,-1.7398 2.9666,-3.5746 7.2695,-5.9385 2.0854,-1.146 4.0912,-2.7678 5.6773,-4.5912 1.3485,-1.5508 3.1124,-3.2329 3.9188,-3.738 0.864,-0.5415 2.2488,-2.3322 3.3715,-4.3615 1.79,-3.2355 3.4929,-5.3346 5.7929,-7.1403 0.606,-0.477 1.1115,-1.6019 1.3095,-2.9199 0.177,-1.1805 1.0905,-3.4028 2.0295,-4.9401 0.939,-1.5374 2.106,-3.4509 2.5924,-4.2525 0.864,-1.4235 0.9675,-2.9795 0.8325,-12.5919 -0.013,-0.9165 0.014,-4.3458 0.06,-7.62 0.1605,-11.6541 0.06,-13.3161 -0.945,-15.5873 -0.525,-1.185 -0.954,-2.4162 -0.954,-2.7351 0,-0.3195 -0.3945,-0.9375 -0.876,-1.3725 -0.837,-0.7575 -0.9135,-0.6585 -1.711,2.1884 -0.459,1.6395 -1.1565,3.7275 -1.5509,4.6398 -0.393,0.912 -0.984,4.2348 -1.311,7.3831 -0.3675,3.5288 -0.9075,6.2718 -1.407,7.1517 -0.4455,0.7845 -1.5619,2.7033 -2.4801,4.2626 -0.918,1.5592 -1.8954,3.9166 -2.1717,5.2387 -0.3465,1.6613 -1.615,4.0901 -4.1041,7.8626 -1.9809,3.0022 -3.8984,6.4702 -4.2608,7.7065 -0.363,1.236 -1.302,3.1733 -2.0869,4.3043 -0.786,1.131 -1.9854,2.8674 -2.6667,3.8581 -0.681,0.9915 -1.413,2.9088 -1.6275,4.2623 -0.2415,1.5279 -1.005,3.3727 -2.0154,4.866 -0.894,1.323 -1.8918,2.941 -2.216,3.5959 -0.324,0.654 -1.6945,2.9051 -3.045,5.0006 -1.35,2.0955 -2.913,4.7965 -3.4725,6.0022 l -1.017,2.1923 1.7457,-0.624 c 0.96,-0.3435 2.4164,-0.633 3.2358,-0.645 z m -52.7717,-3.6043 c 0.09,-1.014 0.567,-2.4231 1.071,-3.1323 0.5055,-0.7095 0.918,-1.9403 0.918,-2.7356 0,-0.795 0.1785,-1.5561 0.3945,-1.6903 0.2175,-0.135 0.6645,-1.4865 0.9945,-3.0047 0.33,-1.5183 0.8355,-3.1891 1.1235,-3.7131 1.9943,-3.6231 2.9007,-6.1618 3.2756,-9.1738 0.507,-4.0746 0.9435,-5.3526 2.5461,-7.4534 0.681,-0.8925 1.1895,-2.1952 1.1895,-3.0445 0,-2.1957 1.7695,-9.3902 2.8123,-11.4342 0.4995,-0.978 1.0575,-2.8442 1.242,-4.1477 0.1845,-1.3035 0.774,-3.1203 1.3125,-4.0369 3.189,-5.4354 4.1589,-7.7592 4.1589,-9.9642 0,-1.7387 0.3345,-2.7692 1.4205,-4.3707 0.7815,-1.152 1.4235,-2.3139 1.428,-2.5806 0,-0.267 0.5115,-1.2315 1.128,-2.1431 0.6345,-0.9405 1.2645,-2.7921 1.4535,-4.2777 0.3225,-2.518 2.1731,-6.1912 3.1199,-6.1912 0.243,0 0.9945,-1.8753 1.6726,-4.1673 0.678,-2.2919 1.568,-4.9173 1.9788,-5.834 1.5713,-3.5068 4.9833,-8.4078 7.0625,-10.144 1.1925,-0.996 2.1669,-2.0133 2.1669,-2.2622 0,-0.249 -1.3395,-0.465 -2.9766,-0.4815 -1.6371,-0.015 -4.0481,-0.234 -5.3577,-0.4845 -6.285,-1.2015 -6.155,-1.2165 -7.014,0.819 -0.426,1.011 -0.8835,3.0789 -1.0155,4.5968 -0.135,1.5177 -0.6615,3.6609 -1.1775,4.7625 -0.5145,1.101 -1.3095,3.1815 -1.7654,4.6222 -0.456,1.44 -1.203,3.4766 -1.6605,4.5243 -0.4575,1.0485 -1.089,3.5124 -1.4025,5.477 -0.402,2.52 -1.05,4.3642 -2.1976,6.2629 -0.8955,1.4805 -1.6275,3.1458 -1.6275,3.7016 0,0.5565 -0.8205,1.9165 -1.8249,3.0238 -1.0035,1.107 -2.4926,3.4601 -3.3087,5.2281 -0.816,1.7681 -1.6809,3.2148 -1.9218,3.2148 -0.7695,0 -2.7804,3.5087 -3.0788,5.3724 -0.1845,1.149 -0.981,2.5886 -2.2042,3.9774 -1.053,1.197 -2.8991,4.1373 -4.1006,6.5337 -2.7592,5.5034 -3.0065,5.9231 -4.8172,8.1791 -1.386,1.7269 -1.5802,1.8184 -2.7384,1.2915 -1.311,-0.597 -1.5559,-1.6538 -0.8205,-3.5426 0.441,-1.134 1.5288,-4.8855 2.4044,-8.2929 0.2775,-1.0785 0.504,-2.4283 0.504,-3.0003 0,-0.5715 0.357,-1.7257 0.795,-2.5641 0.4365,-0.8385 0.951,-2.2743 1.1415,-3.1909 0.1905,-0.9165 0.822,-3.3815 1.401,-5.477 0.5805,-2.0955 1.209,-4.6672 1.3964,-5.715 0.1875,-1.047 0.8055,-2.6551 1.374,-3.5718 0.7005,-1.131 1.032,-2.4378 1.0335,-4.0642 0,-1.9277 0.3285,-2.9042 1.6688,-4.9845 1.2285,-1.9061 1.6668,-3.1127 1.6668,-4.5824 0,-1.5826 0.345,-2.4076 1.6669,-3.9901 0.9165,-1.098 1.6683,-2.3499 1.67,-2.7836 0,-0.4335 0.4365,-1.431 0.9675,-2.2171 0.531,-0.786 1.2795,-2.0717 1.6648,-2.8575 0.3855,-0.786 1.5573,-2.5583 2.6045,-3.9387 2.1211,-2.7962 2.1915,-2.9669 1.224,-2.9669 -0.3735,0 -1.2855,0.735 -2.0256,1.6328 -1.482,1.7986 -6.0639,4.2841 -8.8653,4.8097 -1.338,0.2505 -2.2466,0.885 -3.5658,2.4896 -2.8854,3.5082 -4.5604,5.0173 -7.6263,6.8706 -2.4619,1.488 -2.9784,2.0422 -3.4149,3.6631 -0.336,1.2495 -1.1655,2.4672 -2.3983,3.5226 -2.0225,1.7312 -3.0302,3.6807 -3.5571,6.8822 -0.1815,1.1055 -0.7545,2.5492 -1.2735,3.208 -0.831,1.0575 -3.6698,7.421 -5.4258,12.1652 -0.339,0.9165 -0.501,2.2551 -0.36,2.9742 0.135,0.7185 -0.12,2.7859 -0.5955,4.5931 -0.711,2.7437 -0.768,3.7884 -0.3465,6.3333 0.321,1.9413 0.357,4.5096 0.105,7.0742 -0.297,2.9515 -0.252,4.2349 0.1695,4.8072 0.3165,0.429 1.209,1.5808 1.9846,2.5584 1.1685,1.473 1.443,2.3182 1.6007,4.9351 0.105,1.7366 0.4665,3.479 0.8055,3.872 0.3375,0.393 1.2705,2.1103 2.0718,3.8164 1.5118,3.219 3.5281,5.8715 8.9952,11.8335 3.1465,3.4314 7.507,6.8111 8.4535,6.5523 0.2625,-0.075 0.5445,-0.96 0.63,-1.9732 z m -231.1756,273.0245 c -0.402,-1.14 -0.663,-3.3304 -0.609,-5.1072 0.075,-2.4163 -0.135,-3.5346 -0.9375,-5.0088 -0.621,-1.14 -1.035,-2.7559 -1.0395,-4.048 -0.01,-2.1453 -0.624,-3.8213 -1.1955,-3.2498 -0.1665,0.1665 -0.624,1.716 -1.0185,3.4446 -0.498,2.1845 -1.2855,3.9 -2.5818,5.6249 -1.026,1.365 -1.8625,2.7019 -1.8597,2.971 0.01,0.9075 4.1703,5.0135 5.081,5.0135 0.4965,0 1.645,0.621 2.5519,1.38 0.9075,0.759 1.7982,1.29 1.9806,1.179 0.183,-0.105 0.015,-1.101 -0.372,-2.1986 z m 258.6264,-8.5426 c 0.7095,-2.3901 1.026,-9.4634 0.4485,-10.0407 -0.156,-0.156 -0.585,-0.1695 -0.9525,-0.03 -0.4695,0.18 -0.6675,1.098 -0.6675,3.0865 0,3.3191 -0.816,5.1476 -2.9694,6.6515 -2.4243,1.6933 -2.4596,2.0538 -0.2325,2.3701 3.7372,0.531 3.5905,0.5985 4.374,-2.0389 z m -215.6413,-9.7064 c 0.075,-0.246 -0.06,-0.7665 -0.3075,-1.1565 -0.6015,-0.951 -1.589,0.01 -1.1595,1.1265 0.3165,0.8265 1.209,0.8445 1.467,0.03 z m -75.9884,-12.6376 c -0.2925,-0.8385 -0.531,-2.2392 -0.531,-3.1131 0,-0.8745 -0.2535,-2.5378 -0.564,-3.6976 -0.432,-1.6155 -0.4335,-2.5442 -0.01,-3.9701 0.5205,-1.7376 0.4485,-2.0644 -1.092,-4.9227 -1.17,-2.1715 -1.6536,-3.6846 -1.663,-5.2047 -0.015,-2.4736 -0.8175,-5.715 -1.413,-5.715 -0.573,0 -1.4535,2.7137 -1.4535,4.4801 0,0.8145 -0.5205,2.4585 -1.1565,3.6537 -0.636,1.1955 -1.6098,3.5178 -2.1636,5.1613 l -1.0065,2.9885 1.1655,1.08 c 0.6405,0.594 1.5049,1.7371 1.9204,2.5407 0.4155,0.804 1.5969,1.9336 2.6252,2.5115 1.2,0.675 2.3139,1.8668 3.1105,3.3308 1.7094,3.1405 3.2256,3.7372 2.2286,0.8775 z m 47.4962,-13.2814 c 0.387,-1.1085 0.3435,-1.5737 -0.1935,-2.1119 -0.84,-0.84 -2.5505,-1.4265 -2.9621,-1.0155 -0.3345,0.3345 1.8335,4.5488 2.3402,4.5488 0.177,0 0.543,-0.6405 0.816,-1.422 z m 241.5827,-10.2621 c 0.747,-0.237 0.915,-0.5655 0.6825,-1.3395 -0.168,-0.564 -0.42,-1.883 -0.5595,-2.9307 -0.3885,-2.9262 -0.675,-3.5231 -1.1445,-2.3813 -0.216,0.5235 -0.4065,1.5206 -0.4245,2.2149 -0.015,0.6945 -0.567,2.4089 -1.2195,3.81 -1.5766,3.3869 -1.5027,4.1189 0.24,2.3762 0.789,-0.789 1.8807,-1.5768 2.4249,-1.7495 z m -273.4249,0.6105 c 0,-0.327 -0.2145,-0.9165 -0.4695,-1.3095 -0.36,-0.5565 -0.4635,-0.426 -0.4695,0.5955 0,0.72 0.207,1.3095 0.4695,1.3095 0.2625,0 0.4725,-0.2685 0.4695,-0.5955 z m 0.648,-8.5725 c 0.6615,-2.1611 1.299,-5.2305 1.419,-6.8211 0.12,-1.5906 0.6645,-3.7689 1.2105,-4.8407 l 0.9945,-1.9486 -1.7748,-0.915 c -0.9765,-0.504 -2.218,-1.5678 -2.76,-2.3646 -1.9006,-2.7948 -4.9257,-6.051 -5.2864,-5.6904 -0.201,0.201 0,1.401 0.453,2.6664 0.45,1.266 0.8175,2.8696 0.8175,3.5632 0,0.693 0.354,2.0579 0.786,3.0318 0.54,1.218 0.8055,3.2561 0.8475,6.5331 0.075,5.2754 1.0455,10.7157 1.9246,10.7157 0.09,0 0.708,-1.7682 1.3695,-3.9291 z m -48.3922,-19.2426 c -0.1605,-8.5164 -0.06,-11.7791 0.4215,-13.3709 0.348,-1.158 0.621,-3.7503 0.6075,-5.7606 -0.075,-10.362 0.01,-11.9613 0.7185,-14.3628 0.4185,-1.4085 0.7605,-3.9943 0.7605,-5.7451 0,-2.4536 0.216,-3.4584 0.945,-4.3845 0.6765,-0.861 0.93,-1.8695 0.8925,-3.5547 -0.03,-1.2945 0.204,-2.8326 0.5175,-3.4187 0.603,-1.1265 1.287,-4.2846 1.8681,-8.6223 0.1935,-1.44 0.651,-3.4233 1.017,-4.4056 0.6015,-1.6118 0.5625,-2.1924 -0.3975,-5.9447 -0.585,-2.2872 -1.269,-4.3645 -1.5215,-4.6162 -0.8325,-0.8325 -3.1212,1.9491 -3.712,4.5088 -0.3015,1.305 -0.9255,2.9508 -1.389,3.6563 -0.921,1.407 -1.2495,6.2776 -1.101,16.3918 0.045,3.5502 -0.1665,6.4892 -0.6075,8.1768 -0.5295,2.0277 -0.591,3.5948 -0.2655,6.8055 0.4635,4.5791 -0.177,8.9988 -1.9632,13.5299 -0.5235,1.3275 -0.951,3.2097 -0.951,4.1821 0,1.5464 -0.5235,3.5279 -2.4819,9.3884 -0.669,2.0013 -0.5715,2.9058 0.546,5.0476 0.5355,1.0275 1.104,2.7774 1.2615,3.8876 0.3015,2.1175 3.9493,9.8767 4.6435,9.8767 0.222,0 0.3075,-5.0694 0.1905,-11.2654 z m -21.7571,-32.7878 c 0.267,-4.6543 -0.045,-4.8478 -2.3467,-1.4415 l -1.422,2.106 1.515,0.912 c 1.8237,1.098 2.1108,0.897 2.2531,-1.5774 z m 43.2137,-3.3397 c 0.075,-0.522 -0.5595,-1.8947 -1.4085,-3.0507 l -1.5458,-2.1017 -0.3975,1.5363 c -0.315,1.215 -0.183,1.8842 0.63,3.1991 1.113,1.8015 2.4932,2.0127 2.7231,0.417 z m 16.6909,-118.7453 c 1.092,-1.008 1.9842,-2.2105 1.9842,-2.6734 0,-0.7305 -0.3,-0.801 -2.2621,-0.531 -3.9207,0.537 -4.8816,0.81 -4.8798,1.383 0,0.9705 1.8621,3.6531 2.5314,3.6531 0.3525,0 1.5349,-0.825 2.6263,-1.832 z m -11.691,-6.748 c -0.345,-1.3215 -0.7065,-1.4505 -1.8058,-0.6465 -0.81,0.5925 -0.843,0.7545 -0.2325,1.1415 1.2795,0.81 2.314,0.558 2.0386,-0.495 z m -25.8535,-3.0882 c 0,-2.4678 -0.4665,-2.6739 -1.9061,-0.843 l -1.023,1.3005 1.041,0.843 c 1.5668,1.269 1.8879,1.047 1.8879,-1.3005 z m -23.1909,-1.4595 c 0.5715,-0.219 0.606,-0.5745 0.1875,-1.9379 -0.378,-1.2315 -0.36,-2.2402 0.075,-3.8437 0.3195,-1.1955 0.486,-2.2701 0.369,-2.3871 -0.237,-0.237 -7.0671,4.2487 -8.7476,5.7444 -1.5009,1.3365 -1.344,1.7316 0.714,1.7965 0.9825,0.03 2.429,0.2205 3.2148,0.42 1.8497,0.471 3.3188,0.543 4.1934,0.207 z m -30.4655,-0.4815 c 0.6255,-0.24 0.63,-0.474 0.045,-1.8897 -0.372,-0.888 -0.675,-2.8884 -0.675,-4.4439 0,-2.6174 -0.075,-2.8092 -0.9765,-2.5728 -0.537,0.135 -1.341,0.7815 -1.7859,1.4235 -0.4455,0.642 -1.7247,2.2345 -2.8438,3.538 -1.119,1.3035 -1.9103,2.5715 -1.7579,2.8179 0.153,0.246 1.068,0.4695 2.0349,0.4965 0.966,0.03 2.2935,0.219 2.9484,0.429 1.5482,0.4965 2.1477,0.5355 3.0174,0.2025 z m 53.4717,-49.0299 c 1.4805,-0.891 3.0918,-1.9832 3.5811,-2.426 2.0904,-1.8918 0.195,-2.1795 -2.682,-0.4065 -1.0485,0.645 -2.2833,1.1745 -2.7454,1.176 -0.756,0 -2.7252,2.5179 -2.7297,3.4874 0,0.6 1.6179,-0.045 4.576,-1.83 z m 36.483,-4.2291 c 1.11,-1.3905 1.1955,-1.7036 0.6015,-2.1963 -0.945,-0.7845 -2.0518,-0.2685 -2.6169,1.218 -1.125,2.9599 -9e-4,3.5061 2.0156,0.9795 z m 478.7238,-76.0491 c 0.762,-1.5878 1.5547,-3.9522 1.7605,-5.2541 0.228,-1.44 0.945,-3.1422 1.8284,-4.3443 1.095,-1.488 1.4535,-2.4886 1.4535,-4.0455 0,-1.9671 1.353,-5.4432 2.362,-6.0666 0.2595,-0.1605 0.789,-1.3605 1.176,-2.6679 0.3885,-1.308 1.1745,-3.0348 1.7466,-3.8386 0.573,-0.804 1.4265,-2.9295 1.8972,-4.724 0.471,-1.7944 1.1115,-3.7391 1.4235,-4.3216 0.312,-0.582 0.852,-2.2809 1.2,-3.7741 0.6705,-2.8758 3.2498,-7.7148 4.9143,-9.2211 0.8475,-0.7665 0.996,-1.452 0.996,-4.5906 0,-2.9661 0.372,-4.8807 1.8968,-9.7689 1.128,-3.6164 2.3343,-6.545 2.9766,-7.2279 0.9225,-0.981 1.116,-1.8186 1.3245,-5.7545 0.201,-3.7977 0.4725,-5.0437 1.5477,-7.0978 0.99,-1.8924 1.3035,-3.1649 1.3035,-5.2914 0,-2.2622 0.246,-3.1556 1.281,-4.6523 1.062,-1.537 1.2615,-2.2983 1.1715,-4.4716 -0.075,-1.7184 0.243,-3.6024 0.915,-5.477 0.8385,-2.3406 1.05,-4.1496 1.17,-10.0012 0.075,-3.9291 0.387,-7.8939 0.681,-8.8106 1.2675,-3.9504 1.479,-6.325 0.783,-8.7876 -0.3735,-1.323 -0.8265,-3.7491 -1.0065,-5.3928 -0.2265,-2.0697 -0.8805,-4.0464 -2.1234,-6.4294 -0.987,-1.8924 -2.0541,-4.2446 -2.3702,-5.2268 -0.3165,-0.9825 -0.855,-1.7859 -1.197,-1.7859 -0.3435,0 -1.8798,-0.8385 -3.4158,-1.8631 -2.1318,-1.422 -3.1075,-1.8026 -4.1229,-1.6074 -0.732,0.135 -2.7675,-0.09 -4.5243,-0.519 -4.5852,-1.11 -11.5476,-1.137 -15.1005,-0.06 -2.1003,0.639 -4.6875,0.897 -9.7632,0.9735 -5.6871,0.09 -7.4098,0.2865 -9.763,1.1325 -1.8777,0.675 -3.7559,0.9885 -5.477,0.9165 -2.1735,-0.09 -2.9347,0.105 -4.4718,1.1715 -1.497,1.035 -2.3899,1.281 -4.6521,1.281 -2.1265,0 -3.399,0.3135 -5.2914,1.3035 -2.0542,1.074 -3.3001,1.3455 -7.0978,1.5478 -3.9359,0.2085 -4.7735,0.402 -5.7545,1.3245 -0.6825,0.642 -3.6115,1.8483 -7.2279,2.9765 -4.8883,1.525 -6.8028,1.8969 -9.769,1.8969 -3.138,0 -3.8237,0.15 -4.5905,0.996 -1.5064,1.6645 -6.3453,4.2433 -9.2211,4.9141 -1.4925,0.348 -3.1917,0.888 -3.7741,1.2 -0.582,0.312 -2.5272,0.9525 -4.3217,1.4235 -1.7944,0.471 -3.9202,1.3245 -4.7241,1.8972 -0.804,0.573 -2.5311,1.359 -3.8385,1.7465 -1.308,0.3885 -2.508,0.918 -2.6679,1.176 -0.624,1.008 -4.0996,2.3622 -6.0666,2.3622 -1.5553,0 -2.557,0.36 -4.0387,1.449 -1.2375,0.9105 -2.9171,1.6032 -4.5143,1.8631 -1.3995,0.228 -3.5868,0.969 -4.8618,1.6466 -1.275,0.678 -3.0361,1.233 -3.9139,1.233 h -1.596 l -0.105,4.1671 c -0.15,6.2693 -0.12,6.8297 0.564,9.4059 1.4925,5.6486 4.0789,13.4586 4.9465,14.9385 0.5175,0.882 1.1085,2.6738 1.3155,3.9816 0.387,2.4485 0.564,2.7683 3.7487,6.7871 1.0335,1.3035 2.0016,2.9295 2.1514,3.612 0.15,0.6825 1.1265,2.3775 2.1704,3.7666 1.065,1.4175 2.2576,3.7736 2.7178,5.3696 0.6825,2.3658 1.1445,3.0678 2.7449,4.1752 1.059,0.732 2.3443,2.1555 2.8575,3.1629 0.513,1.008 1.683,2.7252 2.5998,3.8177 2.6052,3.1039 5.3937,6.8011 7.497,9.9393 1.0605,1.5822 2.286,3.1738 2.7237,3.5371 0.438,0.363 1.0815,1.212 1.4295,1.886 0.348,0.6735 1.8658,2.0826 3.3718,3.1302 1.506,1.0485 5.2049,4.3103 8.2196,7.2502 3.5883,3.499 6.0727,5.536 7.1934,5.8975 0.942,0.303 3.1048,1.2615 4.8075,2.1272 1.7026,0.8655 3.7302,1.7295 4.5058,1.9185 0.7755,0.189 2.3831,1.3485 3.572,2.5777 1.6947,1.7519 2.6071,2.3036 4.225,2.5545 1.1355,0.1755 3.1101,0.8505 4.3895,1.4985 1.2795,0.648 2.8956,1.179 3.5916,1.179 0.696,0 2.9269,0.75 4.9573,1.6668 2.5914,1.17 4.3838,1.6674 6.0131,1.6686 1.464,0 2.8863,0.3465 3.8518,0.9345 0.8415,0.513 2.8778,1.2675 4.5245,1.6764 1.6465,0.4095 3.9582,1.143 5.1369,1.6317 1.179,0.489 4.6077,1.6859 7.62,2.6606 3.0123,0.975 5.7984,1.9561 6.1912,2.1813 0.393,0.225 1.5717,0.4125 2.6195,0.417 1.8627,0.01 1.9356,-0.06 3.2914,-2.8788 z m -706.6265,387.701 c -2.2713,-0.6825 -6.4413,-4.1701 -7.5258,-6.2959 -1.284,-2.5178 -1.4115,-7.0677 -0.2595,-9.2748 0.4395,-0.8415 1.5282,-2.1117 2.4193,-2.8229 0.891,-0.711 2.4437,-2.4871 3.4499,-3.9469 2.4166,-3.506 8.3994,-9.2637 10.7067,-10.3041 1.011,-0.456 1.8384,-1.011 1.8384,-1.2315 0,-0.222 1.0185,-0.906 2.2621,-1.5212 2.0159,-0.996 4.3074,-2.3956 9.6755,-5.9068 0.9,-0.588 2.0031,-1.071 2.4522,-1.071 0.45,-9e-4 1.0455,-0.4305 1.326,-0.954 0.5805,-1.086 2.9205,-1.3095 3.7128,-0.3555 0.273,0.3285 0.567,1.278 0.654,2.1099 l 0.1575,1.5126 2.6488,-1.6491 c 1.4565,-0.9075 3.4929,-1.7673 4.5245,-1.9119 1.032,-0.15 2.8954,-0.681 4.1422,-1.191 3.1416,-1.2855 6.294,-1.8054 8.2581,-1.362 1.4385,0.324 1.9886,0.1515 4.1397,-1.299 2.3138,-1.5612 2.6687,-1.6566 5.2854,-1.422 1.5428,0.135 3.9266,0.015 5.2971,-0.2715 2.3034,-0.483 2.6895,-0.426 5.1006,0.753 1.8794,0.9195 3.3504,1.2765 5.2629,1.2765 2.2932,0 2.9477,0.2235 4.8083,1.644 1.185,0.9045 3.0763,2.1087 4.2037,2.6767 2.5016,1.26 5.9198,3.9812 6.6012,5.2545 0.87,1.6268 0.105,2.6325 -2.8276,3.7008 -1.5258,0.5565 -3.1734,1.011 -3.6617,1.011 -0.489,0 -1.7521,0.297 -2.8086,0.6615 -1.056,0.3645 -3.3139,0.8985 -5.0166,1.1895 -6.9423,1.182 -8.9191,1.5696 -11.1918,2.1962 -1.38,0.3795 -3.3249,0.543 -4.6236,0.3885 -1.5106,-0.18 -2.8734,-0.015 -4.1767,0.5055 -1.0635,0.426 -3.0144,0.774 -4.3341,0.774 -1.9638,0 -2.7288,0.264 -4.212,1.4565 -1.392,1.119 -2.4614,1.5219 -4.6155,1.7386 -2.2953,0.231 -3.3317,0.657 -5.7206,2.3531 -3.282,2.3299 -5.7873,3.5007 -7.4913,3.5007 -0.6345,0 -2.5476,0.6525 -4.2529,1.4505 -2.3235,1.0875 -3.2489,1.8093 -3.6929,2.8809 -0.3255,0.786 -1.5799,2.2231 -2.787,3.1926 -1.2075,0.969 -2.4645,2.1229 -2.7943,2.5635 -0.33,0.441 -1.9892,1.458 -3.6875,2.2599 -1.6983,0.8025 -3.8931,2.2338 -4.8772,3.1809 -2.885,2.7762 -5.2455,3.4981 -8.3708,2.5603 z m 126.8344,-56.1616 c -1.44,-0.1695 -4.0529,-0.8055 -5.8049,-1.413 -3.0273,-1.05 -3.3934,-1.074 -7.3818,-0.5055 -2.308,0.3285 -8.9113,0.6795 -14.6738,0.7785 -5.7627,0.105 -11.3348,0.201 -12.3825,0.2265 -1.0485,0.03 -3.9411,-0.09 -6.4295,-0.258 -2.4883,-0.168 -9.1321,-0.33 -14.7637,-0.36 -5.889,-0.03 -10.4924,-0.255 -10.8347,-0.5235 -1.8522,-1.455 0.7965,-4.1127 5.2505,-5.2683 1.5124,-0.393 3.7627,-1.35 5.0005,-2.1283 1.3815,-0.8685 3.2282,-1.5363 4.7798,-1.7292 1.3905,-0.1725 3.427,-0.729 4.5244,-1.2375 1.0965,-0.507 2.8962,-1.1475 3.9975,-1.4205 1.101,-0.2745 2.6015,-0.9975 3.3338,-1.6059 2.0224,-1.6821 3.2415,-2.2013 5.1691,-2.2013 0.9825,0 3.3614,-0.7245 5.3973,-1.6435 4.794,-2.1645 7.0979,-2.5151 9.7851,-1.488 1.9173,0.732 2.423,0.741 5.8319,0.09 2.0529,-0.39 4.3336,-0.936 5.0684,-1.2165 2.0651,-0.786 3.1704,-0.624 6.4928,0.948 1.7581,0.8325 3.4983,1.3485 4.0621,1.2075 0.543,-0.135 3.123,0.2655 5.7348,0.894 4.6541,1.119 4.7993,1.1955 7.2978,3.8676 4.2087,4.5007 5.4948,9.097 3.3192,11.8627 -0.57,0.7245 -2.1838,1.8257 -3.5854,2.4455 -2.5974,1.149 -4.1963,1.2675 -9.1887,0.678 z"
       id="vctrly-chalky-icon-rocket" /></g></svg>
