<?xml version="1.0" encoding="UTF-8" standalone="no"?>
<!-- Created with Inkscape (http://www.inkscape.org/) -->

<svg
   width="593.8988mm"
   height="769.80548mm"
   viewBox="0 0 593.89883 769.8055"
   version="1.1"
   id="svg1"
   xml:space="preserve"
   xmlns="http://www.w3.org/2000/svg"
   xmlns:svg="http://www.w3.org/2000/svg"><defs
     id="defs1" /><g
     id="layer1"
     transform="translate(-15479.97,-6837.8456)"><path
       style="fill:#000000;stroke-width:1"
       d="m 15920.116,7607.1419 c -1.556,-0.558 -2.889,-0.594 -7.275,-0.198 -5.027,0.4545 -5.523,0.42 -7.731,-0.5295 -2.178,-0.9375 -2.499,-0.9615 -4.155,-0.321 -2.4,0.927 -29.186,0.861 -31.137,-0.075 -1.05,-0.501 -1.5,-0.4695 -2.792,0.2025 -0.915,0.4725 -2.403,0.7545 -3.637,0.687 -2.573,-0.135 -8.852,-0.12 -12.21,0.03 -1.616,0.075 -3.344,-0.2205 -4.883,-0.831 -2.056,-0.8175 -2.898,-0.891 -6.19,-0.546 -14.21,1.494 -16.01,1.5599 -18.608,0.6765 -1.747,-0.594 -2.965,-0.7335 -4.086,-0.4695 -0.87,0.207 -4.275,0.435 -7.548,0.507 -3.274,0.075 -6.867,0.279 -7.981,0.462 -1.38,0.225 -2.679,0.09 -4.049,-0.4005 -1.11,-0.402 -3.081,-0.861 -4.378,-1.02 -1.29,-0.159 -3.038,-0.5325 -3.866,-0.8325 -1.365,-0.492 -1.681,-0.411 -3.318,0.837 -1.669,1.275 -2.179,1.395 -6.55,1.5479 -3.738,0.135 -5.126,-0.01 -6.57,-0.66 -1.365,-0.6165 -2.289,-0.7275 -3.635,-0.4365 -2.401,0.519 -6.498,0.7275 -18.471,0.9405 l -10,0.1785 -2.858,-1.407 -2.857,-1.407 -5.409,1.3695 c -4.461,1.1295 -5.754,1.29 -7.382,0.912 -1.08,-0.252 -3.423,-0.33 -5.194,-0.1725 -2.367,0.21 -3.69,0.09 -4.994,-0.456 -1.245,-0.522 -2.338,-0.6345 -3.685,-0.3825 -1.05,0.198 -2.694,0.2985 -3.651,0.225 -0.96,-0.075 -2.393,0.204 -3.191,0.6165 -1.887,0.9765 -7.308,0.954 -9.834,-0.045 -3.138,-1.236 -22.816,-1.529 -25.051,-0.3735 -2.295,1.1865 -4.929,1.3365 -7.778,0.4395 -2.707,-0.852 -3.214,-0.84 -10.383,0.237 -2.61,0.393 -3.618,0.342 -5.421,-0.27 -1.774,-0.603 -2.622,-0.6495 -4.266,-0.2355 -2.94,0.741 -4.785,0.636 -8.298,-0.468 -5.073,-1.5941 -8.193,-1.6677 -12.859,-0.3045 -4.02,1.176 -4.157,1.182 -20.069,1.0065 -8.811,-0.09 -16.554,-0.3795 -17.206,-0.6285 -1.275,-0.4875 -10.434,0.045 -15.332,0.882 -1.929,0.3315 -3.415,0.333 -4.638,0 -0.99,-0.267 -2.895,-0.339 -4.233,-0.162 -1.38,0.1845 -3.795,0.075 -5.601,-0.2595 -2.59,-0.4755 -3.69,-0.462 -6.025,0.075 -2.256,0.522 -4.211,0.5655 -9.287,0.2085 -4.66,-0.3285 -7.368,-0.297 -9.835,0.12 -3.234,0.5385 -3.555,0.507 -6.393,-0.6465 -3.636,-1.4775 -3.936,-1.485 -6.08,-0.1605 -1.305,0.8025 -2.386,1.041 -4.581,1.005 -1.582,-0.03 -4.806,-0.075 -7.164,-0.12 -2.356,-0.045 -5.116,-0.2955 -6.132,-0.564 -1.02,-0.2685 -3.628,-0.5265 -5.803,-0.573 -3.641,-0.075 -4.07,-0.192 -5.366,-1.434 -0.78,-0.7425 -1.641,-2.2429 -1.923,-3.3337 -0.885,-3.4341 -0.885,-25.5429 0,-29.0496 0.375,-1.4925 0.27,-2.3667 -0.6,-4.7975 l -1.065,-2.9724 0.885,-4.0132 c 1.035,-4.6854 1.005,-10.41 -0.15,-14.1675 -0.66,-2.2977 -0.66,-2.7548 0,-4.896 0.585,-1.773 0.66,-2.8035 0.33,-4.1333 -1.005,-3.9459 -1.095,-8.0503 -0.27,-11.0136 0.54,-1.9195 0.72,-3.7989 0.555,-5.6301 -0.15,-1.5118 0,-3.675 0.24,-4.807 0.405,-1.6569 0.33,-2.6061 -0.36,-4.8701 -0.75,-2.4877 -0.795,-3.4566 -0.345,-8.401 0.42,-4.6262 0.39,-5.8137 -0.165,-6.8934 -0.93,-1.8071 -0.84,-3.744 0.315,-6.6767 0.78,-1.9915 0.93,-3.1869 0.75,-5.8518 -0.15,-1.8418 -0.465,-6.4215 -0.735,-10.177 -0.435,-5.967 -0.405,-7.0128 0.255,-8.2932 0.78,-1.5179 0.78,-1.9587 -0.255,-10.1199 -0.27,-2.0955 -0.585,-9.4346 -0.72,-16.3089 -0.195,-10.0535 -0.15,-12.9419 0.45,-14.7638 0.72,-2.397 0.885,-9.9763 0.285,-14.1711 -0.18,-1.3095 -0.21,-3.1851 0,-4.1676 0.165,-0.9825 0,-3.7686 -0.315,-6.1912 -0.345,-2.4227 -0.51,-4.8516 -0.375,-5.3976 0.27,-1.1265 0.75,-34.0208 0.585,-40.203 -0.15,-5.3391 -0.15,-6.555 0.42,-11.9063 0.405,-4.1491 0.36,-4.6822 -0.54,-6.4293 -0.84,-1.6183 -0.96,-2.5498 -0.795,-6.1912 0.15,-2.3574 0.165,-5.2506 0.15,-6.4295 -0.255,-14.8243 -0.45,-20.3574 -0.75,-20.8402 -0.195,-0.318 0,-1.9199 0.375,-3.5607 0.405,-1.6409 0.735,-4.5907 0.75,-6.5553 0,-5.3961 -0.36,-14.6446 -0.735,-17.8608 -0.255,-2.1675 -0.15,-3.3114 0.45,-4.7292 0.675,-1.6213 0.705,-2.3589 0.21,-5.5473 -0.42,-2.7402 -0.42,-4.3477 0,-6.3082 0.345,-1.7417 0.375,-3.165 0,-4.2111 -0.675,-2.3651 -0.54,-9.131 0.225,-11.4519 0.6,-1.7961 0.75,-3.809 0.765,-9.7799 0,-0.8505 0,-3.2623 0,-5.3578 0,-2.0955 0.01,-4.5065 0,-5.3577 0,-0.852 -0.15,-4.0001 -0.21,-6.9974 -0.18,-4.2268 0,-6.1965 0.615,-8.7786 0.81,-3.2119 0.81,-3.3973 0,-5.2662 -1.41,-3.0963 -1.08,-6.1665 1.35,-12.7837 1.17,-3.17 1.17,-3.2624 0.36,-5.2388 -0.615,-1.4865 -0.87,-3.7524 -1.005,-8.6794 -0.15,-3.6672 -0.21,-7.4177 -0.255,-8.3345 -0.21,-4.177 0.69,-16.1974 1.395,-18.7318 0.66,-2.3379 0.69,-3.209 0.21,-5.5055 -0.78,-3.7468 -0.705,-5.1868 0.405,-7.6147 1.05,-2.3012 1.35,-7.991 0.705,-13.1963 -0.285,-2.3577 -0.195,-3.204 0.51,-4.5243 0.975,-1.8528 1.35,-4.0668 2.333,-13.7686 0.72,-7.1075 1.47,-11.0747 2.812,-14.7045 0.525,-1.4205 0.765,-3.6602 0.765,-7.04 0,-5.262 0.6,-7.5475 2.486,-9.5608 0.81,-0.8595 0.99,-1.5915 0.915,-3.6239 -0.15,-2.2201 0.195,-3.1291 2.226,-7.0804 1.972,-3.8408 2.37,-5.0709 2.601,-8.051 0.45,-5.8189 5.064,-17.0211 8.175,-19.8525 1.365,-1.245 1.701,-1.8949 1.702,-3.3219 0,-1.9719 1.35,-4.5412 2.79,-5.3109 0.615,-0.3255 1.125,-1.38 1.47,-3.0069 0.315,-1.464 1.14,-3.2599 1.992,-4.3215 0.795,-0.999 1.662,-2.5585 1.913,-3.4657 0.255,-0.9075 1.05,-2.3403 1.791,-3.1845 0.735,-0.8445 1.77,-2.5238 2.301,-3.7326 0.525,-1.209 1.749,-2.8161 2.707,-3.5718 0.96,-0.756 2.405,-2.5193 3.212,-3.9189 0.81,-1.3995 2.994,-4.1958 4.86,-6.2136 1.866,-2.0178 4.068,-4.6532 4.893,-5.8563 1.065,-1.551 2.034,-2.3615 3.334,-2.7852 2.553,-0.8325 4.412,-2.3819 6.36,-5.3039 1.973,-2.9578 4.049,-4.4769 6.737,-4.9311 2.115,-0.357 4.702,-1.6687 6.595,-3.3424 1.647,-1.4565 2.72,-1.9533 5.985,-2.7674 1.554,-0.387 3.683,-1.0275 4.73,-1.4235 1.17,-0.444 2.664,-0.6195 3.885,-0.4575 1.735,0.2295 2.224,0.06 3.978,-1.344 1.696,-1.3635 2.37,-1.6047 4.45,-1.5955 2.418,0.011 2.93,0.2055 9.155,3.4798 1.335,0.699 3.688,2.4149 5.239,3.8118 1.551,1.3965 3.887,3.0855 5.189,3.7524 1.305,0.6675 3.684,2.5296 5.295,4.1393 2.652,2.6524 2.995,3.2295 3.663,6.1602 0.63,2.7612 1.095,3.606 3.147,5.7814 1.32,1.401 2.709,3.2628 3.073,4.1366 1.08,2.5873 1.835,4.8358 2.09,6.2379 0.15,0.792 0.795,1.6431 1.633,2.1393 0.825,0.489 1.908,1.8907 2.658,3.4474 0.69,1.443 1.755,3.4224 2.36,4.3995 1.215,1.977 1.38,3.2252 0.525,4.0814 -0.975,0.978 -2.229,0.642 -5.286,-1.4235 -5.036,-3.4002 -5.325,-3.5774 -6.404,-3.9198 -0.585,-0.183 -1.455,-0.849 -1.951,-1.479 -1.44,-1.8231 -5.589,-5.0444 -9.534,-7.3919 -2.727,-1.6227 -3.912,-2.6602 -4.731,-4.1416 -0.6,-1.0875 -1.889,-2.4411 -2.858,-3.0086 -0.975,-0.567 -2.526,-1.8711 -3.456,-2.8968 -1.855,-2.0443 -3.285,-2.4723 -10.692,-3.1999 -2.095,-0.2055 -4.326,-0.6525 -4.959,-0.993 -1.786,-0.9615 -5.743,0.135 -9.759,2.7228 -1.858,1.194 -4.282,2.4444 -5.385,2.7786 -3.15,0.954 -6.931,4.0603 -9.333,7.6653 -2.295,3.4428 -3.967,5.2002 -6.282,6.5961 -2.541,1.5324 -4.57,3.73 -5.764,6.2395 -0.645,1.35 -1.697,2.8013 -2.345,3.2258 -0.78,0.5085 -1.185,1.215 -1.185,2.0706 0,1.7089 -0.645,2.8524 -6.219,11.1015 -0.99,1.4625 -2.104,3.3913 -2.479,4.2862 -0.375,0.8955 -1.275,2.3276 -1.994,3.1836 -1.659,1.9677 -4.869,8.5647 -5.308,10.9133 -0.18,0.981 -1.395,4.8993 -2.678,8.7066 -1.29,3.8074 -2.749,8.6574 -3.246,10.7778 -0.495,2.1204 -1.693,5.6565 -2.656,7.858 -1.485,3.3837 -1.76,4.5611 -1.802,7.6112 0,3.1606 -0.21,3.8212 -1.365,5.3259 -1.11,1.452 -1.305,2.1807 -1.305,4.7016 0,3.5253 -0.765,9.9376 -1.683,14.0961 -0.375,1.7106 -0.54,3.9778 -0.375,5.3545 0.195,1.6923 0,3.0209 -0.54,4.5617 -0.6,1.551 -0.735,2.7856 -0.51,4.3084 0.225,1.458 0,2.876 -0.45,4.4738 -0.42,1.287 -0.855,3.9034 -0.93,5.8152 -0.15,1.9117 -0.435,6.4761 -0.765,10.1433 -0.33,3.667 -0.63,9.3463 -0.645,12.6205 0,3.2744 -0.195,6.1922 -0.39,6.4842 -0.18,0.2925 -0.15,1.731 0.225,3.1976 0.51,2.4412 0.465,2.896 -0.57,5.3811 -1.05,2.5266 -1.08,2.8659 -0.465,4.8987 0.36,1.2015 0.69,3.6843 0.735,5.5179 0,1.8336 0.15,4.788 0.15,6.5655 0,1.7775 0,3.4554 -0.24,3.7287 -0.165,0.273 -0.48,2.3551 -0.69,4.6264 -0.21,2.2712 -0.645,5.5566 -0.96,7.3011 -0.525,2.9175 -0.495,3.3374 0.42,5.2388 0.96,1.9849 0.975,2.3976 0.51,10.4013 -0.795,13.9039 -0.915,19.6483 -0.42,21.4845 0.345,1.305 0.285,2.5788 -0.285,4.9977 -0.585,2.5246 -0.645,3.6742 -0.24,5.17 0.525,1.9619 0.15,12.44 -0.885,22.164 -0.255,2.4885 -0.345,5.7273 -0.195,7.1973 0.15,1.47 0,4.2494 -0.315,6.1761 -0.48,2.7971 -0.465,4.2777 0,7.3442 0.57,3.6912 0.555,3.9541 -0.57,6.7474 -1.065,2.6194 -1.11,3.0325 -0.51,4.1839 0.72,1.3785 1.485,7.4427 1.814,14.3093 0.15,2.934 0,5.3686 -0.585,7.7172 -0.63,2.7423 -0.675,3.7939 -0.255,5.2387 1.125,3.8105 1.71,10.6274 1.11,12.9924 -0.495,1.9326 -0.435,2.6993 0.405,5.7524 1.125,4.0315 1.215,6.4491 0.42,10.7713 -0.495,2.6699 -0.45,3.3537 0.3,5.4474 0.84,2.3343 0.84,2.5037 -0.15,6.7649 -1.706,7.6626 -2.013,10.7317 -1.425,14.188 0.525,3.1074 0.225,7.6791 -1.05,15.7872 -0.345,2.2052 -0.27,3.2348 0.405,5.2388 0.705,2.0859 0.81,3.7417 0.645,10.1142 -0.27,10.9702 -0.195,13.918 0.435,17.2584 0.435,2.2581 0.435,3.8058 0,6.4497 -0.45,2.9001 -0.42,3.8296 0.18,5.5881 0.615,1.7961 0.645,2.5708 0.15,5.2183 -0.33,1.7102 -0.555,4.6094 -0.495,6.443 0.15,3.7449 0.15,4.2312 -0.15,21.4312 -0.15,6.8103 0,15.0614 0.15,18.3356 0.165,3.2743 0.15,6.7033 -0.15,7.62 -0.945,3.6913 -0.915,4.7971 0.165,7.6957 0.96,2.5646 1.02,3.1548 0.525,4.9884 -0.42,1.5923 -0.42,2.5745 0,4.1904 0.42,1.574 0.435,2.8212 0,4.9056 -0.33,1.745 -0.36,3.591 -0.15,4.914 0.39,2.036 0,4.8806 -1.577,12.7398 -0.45,2.1833 -0.375,3.02 0.525,6.1913 0.975,3.4158 1.05,4.7137 1.095,18.9654 0,8.4142 -0.15,15.5358 -0.27,15.8254 -0.48,0.771 0.705,4.3508 1.589,4.7823 0.405,0.204 3,0.183 5.749,-0.045 2.751,-0.228 7.137,-0.4395 9.747,-0.4695 3.581,-0.045 5.264,-0.2835 6.845,-0.9825 1.47,-0.6525 2.539,-0.8265 3.588,-0.585 0.825,0.189 7.705,0.42 15.301,0.5145 7.596,0.09 14.133,0.2265 14.526,0.2955 0.39,0.075 2.814,-0.045 5.381,-0.2385 3.924,-0.306 4.938,-0.2355 6.369,0.444 1.47,0.696 1.909,0.7215 3.192,0.1815 2.017,-0.849 5.046,-1.128 6.468,-0.597 0.705,0.264 1.932,0.2655 3.09,0.01 1.23,-0.276 2.638,-0.2505 3.907,0.075 1.335,0.336 2.789,0.348 4.425,0.045 1.95,-0.3705 2.828,-0.3075 4.38,0.315 1.809,0.7245 2.037,0.7215 3.321,-0.03 0.81,-0.4815 2.303,-0.7995 3.639,-0.7785 1.245,0.015 7.941,0.105 14.883,0.189 9.863,0.12 13.499,0.339 16.643,1.0065 3.132,0.6645 4.344,0.738 5.476,0.3345 0.795,-0.285 3.452,-0.771 5.891,-1.08 3.588,-0.4545 4.816,-0.441 6.429,0.075 1.668,0.531 6.402,0.837 13.9,0.8985 4.965,0.045 12.11,-0.432 13.247,-0.876 1.93,-0.7545 4.903,-0.645 6.622,0.2445 1.32,0.684 2.118,0.7035 7.239,0.171 6.912,-0.7185 6.24,-0.702 13.611,-0.333 3.275,0.1635 6.665,0.549 7.535,0.8565 0.945,0.3345 2.479,0.432 3.81,0.243 1.23,-0.174 4.585,-0.5145 7.467,-0.7545 2.881,-0.2415 6.499,-0.582 8.038,-0.7575 1.871,-0.213 4.004,-0.075 6.429,0.4365 1.997,0.4155 6.261,0.9825 9.476,1.2585 5.472,0.4695 5.965,0.441 7.72,-0.4545 2.096,-1.0695 3.606,-1.194 5.538,-0.459 0.99,0.3735 2.159,0.2955 4.757,-0.3165 2.812,-0.663 4.093,-0.726 6.939,-0.342 2.098,0.2835 6.711,0.3285 11.563,0.105 6.47,-0.288 8.388,-0.228 9.666,0.306 1.695,0.708 12.776,0.69 19.244,-0.03 2.733,-0.3045 3.535,-0.201 5.827,0.7485 l 2.658,1.1025 5.012,-1.011 c 3.891,-0.7845 5.334,-0.8985 6.45,-0.51 1.005,0.3495 2.337,0.351 4.402,0.01 4.397,-0.735 21.158,-0.4665 23.027,0.369 1.335,0.6 1.725,0.5655 3.81,-0.3285 1.929,-0.8265 3.066,-0.966 6.747,-0.8265 2.434,0.09 5.185,0.417 6.111,0.723 1.701,0.561 16.203,0.33 19.591,-0.312 0.855,-0.162 2.147,-0.045 2.87,0.2505 0.975,0.4035 3.039,0.414 7.948,0.045 5.834,-0.4425 6.899,-0.408 8.846,0.2925 2.061,0.741 2.376,0.7425 4.513,0.013 2.829,-0.9645 3.842,-0.9765 6.383,-0.075 1.749,0.618 2.233,0.618 3.988,0.01 2.738,-0.954 4.791,-0.8835 6.998,0.243 2.23,1.137 3.061,1.1745 5.677,0.252 2.231,-0.7875 3.495,-0.837 13.611,-0.5355 3.929,0.12 8.001,0.228 9.048,0.246 2.909,0.045 7.361,-0.2445 9.939,-0.663 1.508,-0.2445 3.206,-0.1635 4.854,0.2325 1.976,0.474 3.951,0.4965 8.945,0.105 4.39,-0.3465 6.985,-0.354 8.242,-0.015 2.13,0.5655 2.936,0.5835 5.964,0.135 1.539,-0.231 2.898,-0.105 4.416,0.414 1.89,0.6435 2.444,0.6585 4.019,0.105 1.35,-0.477 4.018,-0.6 10.233,-0.477 4.623,0.09 8.578,0.2745 8.791,0.4065 0.21,0.135 3.921,0.285 8.24,0.342 6.483,0.09 8.367,-0.045 10.801,-0.78 2.189,-0.6555 2.949,-1.1025 2.949,-1.7367 0,-0.4695 -0.675,-3.4701 -1.509,-6.6681 -1.35,-5.205 -1.455,-6.0729 -0.99,-8.2767 0.285,-1.3545 0.405,-3.7249 0.255,-5.2684 -0.18,-2.0496 0,-3.645 0.705,-5.9157 1.11,-3.584 1.245,-8.1987 0.36,-11.6571 -0.345,-1.3395 -0.555,-4.1609 -0.465,-6.4293 0.15,-2.2236 0.285,-7.6862 0.45,-12.1391 0.24,-6.5934 0.165,-8.4756 -0.42,-10.14 -0.585,-1.6437 -0.63,-2.7531 -0.27,-5.6682 0.315,-2.4798 0.3,-4.1656 0,-5.338 -0.345,-1.1595 -0.375,-3.7925 -0.15,-8.1432 0.255,-3.954 0.24,-7.2051 0,-8.4443 -0.36,-1.5708 -0.27,-2.6365 0.405,-4.8345 0.645,-2.1516 0.765,-3.3664 0.45,-5.1288 -0.36,-2.0458 -0.615,-6.9889 -0.72,-13.5012 0,-1.179 -0.24,-3.4767 -0.48,-5.1066 -0.36,-2.3961 -0.27,-3.8589 0.51,-7.6402 0.735,-3.6305 0.84,-5.0687 0.465,-6.4284 -0.27,-0.963 -0.48,-3.5261 -0.465,-5.6948 0,-2.1687 0,-6.7291 0,-10.1343 0.01,-3.4051 0.24,-7.1904 0.51,-8.4117 0.39,-1.7872 0.33,-2.7217 -0.315,-4.7899 -0.645,-2.0537 -0.72,-3.0227 -0.33,-4.826 0.36,-1.6756 0.315,-2.7889 -0.15,-4.3258 -0.675,-2.2496 -0.375,-4.5389 0.84,-6.4875 0.405,-0.639 0.855,-2.1845 1.02,-3.4332 0.24,-1.9346 0,-2.6808 -1.17,-5.0435 l -1.455,-2.7729 0.525,-4.4815 c 0.915,-7.8627 0.945,-12.3552 0.15,-14.9592 -0.93,-2.9357 -0.945,-6.7016 -0.01,-8.5848 0.75,-1.529 0.75,-6.6929 0,-12.8559 -0.57,-4.6409 -0.18,-12.8427 0.75,-15.7682 0.675,-2.1306 0.705,-3.1956 0.225,-8.3344 -0.3,-3.2405 -0.675,-6.7068 -0.855,-7.703 -0.21,-1.2165 0,-2.5288 0.525,-3.9952 0.81,-2.1332 0.81,-2.2541 -0.225,-5.1842 -0.87,-2.4505 -1.005,-3.5944 -0.765,-6.244 0.435,-4.8683 0.45,-6.7802 0,-9.7885 -0.285,-2.1363 -0.195,-3.2115 0.465,-4.9155 0.69,-1.8077 0.735,-2.522 0.3,-4.1712 -0.795,-2.9604 -0.795,-15.6632 0,-18.5877 0.855,-3.1977 0.975,-16.232 0.15,-18.1881 -0.375,-0.9 -0.66,-2.5496 -0.645,-3.6659 0,-1.116 -0.15,-3.0289 -0.405,-4.2504 -0.255,-1.2315 -0.285,-3.2472 0,-4.5244 0.21,-1.2675 0.39,-4.0857 0.405,-6.2639 0,-2.1783 0.24,-4.365 0.51,-4.8595 0.345,-0.651 0.27,-1.4355 -0.3,-2.8344 -0.585,-1.4565 -0.705,-2.7281 -0.465,-5.1417 0.165,-1.7636 0.36,-7.2785 0.42,-12.2553 0,-4.9769 0.285,-9.3215 0.495,-9.6548 0.21,-0.3375 0,-1.6728 -0.42,-3.0126 -0.615,-1.8418 -0.735,-3.2643 -0.495,-6.0615 0.36,-4.3198 0.36,-4.9771 0,-11.5494 -0.225,-3.9748 -0.15,-5.4115 0.465,-6.8139 0.495,-1.1745 0.645,-2.4741 0.465,-3.8332 -0.15,-1.131 0,-2.8148 0.27,-3.7418 0.45,-1.3725 0.42,-2.0118 -0.18,-3.4425 -0.405,-0.966 -0.75,-3.0741 -0.765,-4.6842 0,-1.6101 0,-4.2133 -0.15,-5.7849 0,-1.7089 0.285,-3.8235 0.81,-5.2608 0.855,-2.3706 0.855,-2.4301 -0.15,-4.3863 -1.02,-2.007 -1.245,-4.3429 -0.585,-6.0531 0.21,-0.549 0,-1.8952 -0.375,-3.2544 -0.705,-2.2029 -0.69,-2.4682 0.315,-5.344 1.245,-3.5522 1.38,-7.7784 0.345,-10.7058 -1.14,-3.2489 -0.93,-8.0916 0.51,-11.5281 0.96,-2.2799 1.17,-3.4085 0.96,-5.1053 -0.15,-1.1985 -0.525,-4.2144 -0.825,-6.7029 -0.465,-3.7552 -0.6,-12.7776 -0.345,-22.1455 0,-1.8327 -0.735,-10.8177 -1.275,-14.7638 -0.15,-1.0935 0,-2.8656 0.42,-4.1595 0.48,-1.5463 0.57,-2.818 0.3,-4.0482 -0.345,-1.5558 -0.66,-12.1335 -0.585,-19.4148 0.01,-1.3095 0,-3.0241 0,-3.81 0,-0.786 0.15,-3.4647 0.285,-5.9532 0.165,-2.4883 0.375,-10.0935 0.465,-16.9005 0.15,-9.6348 0,-12.7863 -0.48,-14.2282 -0.765,-2.1704 -0.87,-4.7813 -0.18,-4.3518 0.465,0.288 0.57,-0.8295 0.75,-7.8582 0,-1.7025 0.285,-4.4507 0.54,-6.107 0.3,-1.9633 0.3,-3.7206 0,-5.049 -0.3,-1.3065 -0.3,-2.7036 -0.01,-3.8941 0.33,-1.374 0.27,-2.3996 -0.24,-3.9456 -0.555,-1.6631 -0.585,-2.5529 -0.165,-4.365 0.285,-1.2525 0.405,-3.3365 0.24,-4.6322 -0.15,-1.3095 0,-3.0895 0.27,-4.0065 0.435,-1.332 0.405,-1.99 -0.195,-3.4089 -0.795,-1.8979 -1.005,-7.8009 -0.69,-18.8842 0,-1.452 -0.24,-3.3618 -0.645,-4.2862 -1.05,-2.4389 -0.825,-15.1907 0.315,-17.8413 0.45,-1.038 0.78,-2.8595 0.735,-4.0481 -0.15,-3.0571 0.81,-9.0387 1.762,-11.5027 0.45,-1.149 0.825,-3.4815 0.855,-5.1842 0,-1.7025 0.33,-3.6084 0.69,-4.2351 0.36,-0.627 0.84,-2.6442 1.065,-4.4832 0.855,-6.8394 3.873,-6.7999 5.679,0.075 0.48,1.8273 1.215,3.9869 1.635,4.7991 0.42,0.813 0.96,2.3847 1.2,3.4944 1.58,7.2791 2.63,11.4482 3.807,15.1143 2.172,6.7604 2.391,9.5832 0.96,12.3825 -1.2,2.348 -1.2,3.4419 0,6.9503 0.54,1.5471 0.9,3.2719 0.795,3.8331 -0.15,0.561 0,2.2117 0.345,3.6681 0.33,1.6689 0.405,4.4613 0.195,7.5523 -0.21,3.0025 -0.15,5.6299 0.15,6.7755 0.27,1.029 0.36,2.7705 0.195,3.8695 -0.18,1.2375 0,3.1712 0.48,5.0807 l 0.78,3.0822 -1.47,4.6974 c -0.81,2.5836 -1.47,5.0106 -1.47,5.3934 0,0.3825 0.54,2.0343 1.185,3.6702 1.26,3.1336 1.38,6.1143 0.9,20.913 -0.15,2.6193 -0.15,5.4054 -0.15,6.1912 0,1.4385 0,7.3562 0,13.0968 0,1.7027 -0.285,3.9956 -0.57,5.0954 -0.39,1.458 -0.39,2.4066 0,3.4996 0.375,1.056 0.39,3.1607 0,7.1213 -0.315,3.8779 -0.3,6.0721 0,7.074 0.36,1.0365 0.36,2.1849 0,4.0051 -0.87,4.2084 -1.035,19.1478 -0.225,21.0818 0.96,2.3041 0.84,4.795 -0.36,7.1839 -1.035,2.0565 -1.035,2.0703 -0.15,4.0853 0.6,1.3395 0.855,2.7493 0.735,4.1799 -0.255,3.1734 -0.27,8.5776 0,14.7787 0.195,4.9221 0.15,5.7101 -0.855,7.7774 l -1.065,2.3005 0.99,1.929 c 1.29,2.5211 1.629,7.479 0.915,13.2344 -0.66,5.2824 -0.66,4.3174 0,10.0012 0.795,6.5889 0.795,13.7351 0.02,15.6032 -0.54,1.2705 -0.555,1.9366 0,3.6576 0.48,1.686 0.465,2.5785 0,4.4934 -0.54,2.1174 -0.51,2.6073 0.255,4.3012 0.645,1.4355 0.78,2.4786 0.54,4.1922 -0.495,3.5091 -0.885,10.0626 -0.795,13.2344 0.15,4.599 0.15,8.4928 0,17.8593 -0.15,4.8459 -0.01,9.1611 0.18,9.5893 0.195,0.4275 0.39,5.1431 0.435,10.4775 0,9.2103 0.01,9.8109 -1.02,11.9244 l -1.095,2.2257 1.32,3.6077 c 0.975,2.6917 1.245,4.1217 1.05,5.6325 -0.15,1.113 -0.495,3.8344 -0.795,6.0462 -0.45,3.4344 -0.405,4.458 0.285,7.0134 0.6,2.2297 0.705,3.6322 0.42,5.5038 -0.21,1.3815 -0.33,3.583 -0.255,4.8927 0.36,6.8734 0,17.829 -0.87,23.0388 -0.51,3.2485 -0.48,3.67 0.465,5.6082 0.885,1.8397 0.975,2.5744 0.69,6.0126 -0.21,2.4406 -0.675,4.5022 -1.23,5.4706 -0.885,1.5398 -0.885,1.5831 0.24,4.7625 1.697,4.7939 1.826,5.8947 0.99,8.3699 -0.615,1.8036 -0.645,2.5642 -0.21,4.0457 0.33,1.101 0.42,2.847 0.21,4.4049 -0.18,1.419 -0.405,5.6247 -0.495,9.3453 -0.15,3.7208 -0.39,7.578 -0.675,8.5718 -0.39,1.437 -0.345,2.2297 0.285,3.8706 0.675,1.7803 0.705,2.4676 0.21,5.0016 -0.495,2.4874 -0.465,3.2566 0.165,5.0214 1.035,2.9142 0.93,4.5393 -0.525,8.5545 l -1.275,3.4945 0.885,2.4585 c 0.825,2.3058 0.96,4.4829 0.66,11.2691 0,0.9165 0.195,3.9268 0.525,6.6889 0.57,4.802 0.555,5.1087 -0.42,7.0004 -1.095,2.1351 -1.08,2.1939 0.72,10.0732 0.75,3.287 0.57,4.9979 -0.84,7.7702 -1.125,2.2201 -1.125,3.0639 0,5.296 0.945,1.8407 0.99,5.2358 0.285,17.2257 -0.3,4.9362 -0.285,3.7887 -0.15,28.0988 0.15,13.8577 0.345,21.3871 0.705,22.2307 0.72,1.7309 0.195,14.3691 -0.675,16.5227 -0.84,2.0734 -0.825,3.5568 0.15,7.5324 0.615,2.6608 0.66,3.8722 0.24,6.7374 -0.285,1.9213 -0.36,3.7429 -0.165,4.0482 0.195,0.3045 0.375,3.6624 0.42,7.4604 0,5.9775 0,7.1479 -0.84,8.7079 -0.51,0.9915 -0.75,2.0622 -0.555,2.3799 0.51,0.837 1.29,11.2911 1.2,16.2966 0,2.3574 0.15,4.9883 0.435,5.8463 0.36,1.128 0.345,2.4879 0,4.9137 -0.42,2.503 -0.435,3.8884 0,5.4622 0.42,1.6947 0.375,2.7845 -0.255,5.552 -0.615,2.7321 -0.675,3.8884 -0.27,5.5983 0.495,2.1088 0.705,5.728 0.555,10.0131 -0.165,4.5771 0,9.8692 0.255,12.1819 0.225,1.6752 0.15,2.9316 -0.375,4.0869 -0.48,1.161 -0.63,2.6805 -0.45,4.9989 0.285,3.9924 -0.57,7.3296 -2.838,11.0955 -1.915,3.1791 -3.529,4.1684 -7.53,4.6139 -4.213,0.4695 -5.967,0.3585 -8.148,-0.5145 -2.442,-0.9765 -4.338,-0.9405 -6.504,0.12 -1.654,0.8145 -3.19,0.8565 -24.388,0.654 -27.776,-0.2655 -27.195,-0.267 -30.842,0.1515 -2.221,0.2565 -3.811,0.135 -6.249,-0.504 -3.001,-0.7785 -3.421,-0.7875 -5.124,-0.105 -1.44,0.5775 -3.295,0.708 -8.349,0.585 -5.716,-0.135 -6.879,-0.309 -9.682,-1.431 l -3.189,-1.275 -1.967,0.885 c -1.618,0.7275 -2.809,0.849 -6.739,0.6825 -2.625,-0.105 -5.309,-0.162 -5.964,-0.12 -5.687,0.4155 -11.832,0.6705 -15.002,0.6225 -2.095,-0.03 -4.345,0.135 -5.001,0.3735 -2.355,0.8565 -3.603,0.9105 -5.476,0.2385 z m -189.239,-92.3463 c -2.938,-1.389 -4.197,-1.482 -6.574,-0.489 -2.193,0.9165 -6.35,0.912 -9.89,-0.01 -2.226,-0.579 -3.27,-0.6195 -5.22,-0.1995 -5.563,1.197 -7.608,1.083 -13.491,-0.759 -1.26,-0.3945 -3.291,-0.54 -5.478,-0.393 -5.959,0.4035 -8.469,-1.8813 -8.47,-7.7133 0,-2.3559 0.24,-3.2767 1.365,-5.0343 2.893,-4.5648 5.613,-5.5974 12.583,-4.7796 4.196,0.492 5.504,0.4575 9.723,-0.2565 4.178,-0.7065 5.166,-0.735 6.914,-0.1965 1.14,0.3495 3.514,0.5625 5.371,0.48 3.273,-0.15 5.253,-0.12 9.05,0.09 1.05,0.06 3.024,-0.06 4.39,-0.27 2.064,-0.3135 2.901,-0.1995 4.922,0.669 2.412,1.038 2.47,1.0395 6.538,0.2325 3.56,-0.7065 4.595,-0.735 7.784,-0.2175 2.022,0.3285 3.924,0.444 4.227,0.258 0.765,-0.4695 6.493,-1.329 8.839,-1.3245 1.065,0 2.457,0.3015 3.096,0.6645 1.05,0.5955 3.38,0.7935 10.686,0.903 4.79,0.075 17.676,-0.8715 19.637,-1.4385 1.755,-0.507 2.398,-0.4575 4.999,0.3945 1.643,0.537 4.196,1.215 5.673,1.5069 2.598,0.5115 2.762,0.4815 4.974,-0.9225 2.595,-1.6456 4.586,-1.8336 7.238,-0.684 0.975,0.423 2.949,1.137 4.39,1.5867 2.579,0.807 2.649,0.8025 4.641,-0.2505 1.826,-0.966 2.561,-1.0545 7.62,-0.9135 3.078,0.09 6.669,0.2955 7.979,0.465 1.896,0.246 2.766,0.105 4.269,-0.6735 2.413,-1.257 6.439,-1.2885 9.115,-0.075 2.352,1.068 5.69,1.4835 13.286,1.6544 4.147,0.09 6.174,0.3465 7.386,0.9255 0.93,0.4455 3.27,0.8805 5.296,0.987 3.932,0.2055 9.725,1.8987 10.133,2.9616 0.15,0.363 0.15,0.9735 -0.01,1.3575 -0.3,0.771 -4.134,2.3194 -7.068,2.8521 -1.035,0.189 -2.488,0.6525 -3.222,1.032 -1.543,0.7995 -5.01,1.6293 -7.755,1.8588 -1.05,0.09 -3.193,0.834 -4.761,1.6591 -2.622,1.3785 -3.097,1.476 -5.947,1.2015 -2.873,-0.276 -3.345,-0.177 -6.551,1.374 -3.445,1.667 -3.477,1.6724 -10.549,1.7472 -3.902,0.045 -7.326,-0.075 -7.608,-0.243 -0.285,-0.174 -1.536,-0.015 -2.786,0.3555 -1.963,0.5805 -2.596,0.579 -4.654,-0.013 -3.975,-1.1445 -5.316,-1.221 -7.707,-0.4395 -1.892,0.618 -3.254,0.6765 -7.764,0.333 -4.389,-0.3345 -5.727,-0.2835 -6.764,0.252 -1.858,0.9615 -4.884,0.8235 -7.135,-0.3255 -2.111,-1.077 -3.387,-1.0125 -7.734,0.396 -1.953,0.633 -2.78,0.666 -5.03,0.201 -3.402,-0.7035 -5.368,-0.702 -7.722,0 -1.425,0.429 -2.553,0.4275 -4.818,-0.01 -1.623,-0.3105 -5.952,-0.747 -9.619,-0.9705 -6.137,-0.3735 -8.294,-0.2685 -13.929,0.678 -1.185,0.198 -2.868,0.105 -4.047,-0.21 -3.327,-0.903 -9.884,-0.627 -16.076,0.6765 -0.735,0.1545 -2.173,-0.213 -3.739,-0.9525 z m -80.599,-49.2618 c -4.335,-0.477 -5.795,-1.6282 -8.135,-6.4213 -1.503,-3.0758 -1.84,-4.2341 -1.656,-5.6949 0.3,-2.3447 2.417,-5.7578 4.748,-7.6368 1.555,-1.254 2.212,-1.467 4.524,-1.464 1.624,0 3.75,0.411 5.323,1.0245 3.975,1.5492 4.98,1.6561 8.46,0.9 6.426,-1.3965 11.28,-1.722 14.223,-0.9555 2.139,0.5565 3.05,0.5895 4.361,0.1575 1.125,-0.372 3.427,-0.4365 7.189,-0.204 6.441,0.399 9.317,0.3975 16.488,-0.01 5.001,-0.2835 5.315,-0.2445 6.932,0.855 1.914,1.3005 5.121,1.9129 10.689,2.0406 2.496,0.06 4.468,0.3855 5.715,0.9495 1.155,0.522 3.786,1.002 6.667,1.215 4.82,0.357 10.586,1.7187 11.903,2.8117 1.005,0.8385 0.9,2.2578 -0.24,2.8626 -0.525,0.282 -2.723,0.7365 -4.881,1.011 -2.304,0.2925 -4.812,0.9555 -6.069,1.6022 -1.41,0.7245 -3.455,1.221 -5.954,1.446 -2.095,0.189 -4.239,0.573 -4.762,0.8565 -1.185,0.6345 -6.191,1.3605 -10.002,1.4475 -1.907,0.045 -3.29,0.3585 -4.157,0.9465 -1.854,1.2585 -4.362,1.7142 -6.439,1.1715 -3.44,-0.8985 -12.108,-1.308 -16.55,-0.7815 -3.762,0.4455 -4.767,0.393 -8.211,-0.432 l -3.922,-0.9405 -2.835,1.35 c -3.507,1.6701 -6.108,2.1165 -8.237,1.413 -1.17,-0.3885 -2.557,-0.402 -4.93,-0.045 -5.451,0.8085 -6.965,0.8865 -10.245,0.5265 z m 145.179,-2.3944 c -0.72,-0.2325 -4.685,-0.5625 -8.81,-0.7305 -4.186,-0.171 -8.343,-0.591 -9.406,-0.951 -1.05,-0.354 -2.949,-0.747 -4.226,-0.873 -2.992,-0.2955 -5.014,-2.1665 -5.394,-4.992 -0.39,-2.9322 0,-4.0134 3.243,-7.671 3.218,-3.7019 4.478,-4.3289 8.52,-4.2407 1.44,0.03 3.542,-0.24 4.67,-0.6015 1.806,-0.5805 2.314,-0.5655 4.249,0.135 1.937,0.6975 2.354,0.7095 3.521,0.105 1.749,-0.9045 4.162,-0.867 6.432,0.105 2.119,0.903 8.458,1.014 11.479,0.201 1.455,-0.39 2.415,-0.3465 4.229,0.192 2.047,0.6075 2.641,0.6105 4.615,0.015 1.761,-0.5295 2.819,-0.5715 4.752,-0.186 2.862,0.5715 14.282,-0.09 18.272,-1.059 2.133,-0.5175 2.734,-0.486 4.633,0.2385 1.626,0.621 2.838,0.7515 4.746,0.513 1.964,-0.2445 2.933,-0.135 4.137,0.4935 1.47,0.759 1.802,0.762 4.949,0.045 1.855,-0.423 5.517,-0.8145 8.136,-0.8685 7.539,-0.159 23.959,0.519 26.019,1.074 1.035,0.2775 2.887,0.4785 4.122,0.444 4.275,-0.12 7.966,0.3405 9.591,1.1835 1.245,0.6495 2.227,0.777 4.186,0.546 1.455,-0.171 2.948,-0.09 3.467,0.1875 0.51,0.2685 2.583,0.597 4.624,0.729 4.583,0.2985 6.347,0.75 7.007,1.7966 1.17,1.858 -0.63,2.6907 -12.581,5.8104 -2.488,0.6495 -5.142,1.1835 -5.898,1.185 -0.75,0 -2.148,0.486 -3.094,1.0755 -1.17,0.7245 -2.571,1.0995 -4.343,1.158 -3.829,0.12 -7.914,0.8565 -11.43,2.0446 -3.193,1.0785 -3.555,1.0845 -12.384,0.2085 -2.686,-0.267 -3.489,-0.135 -6.058,0.939 -1.628,0.6855 -3.648,1.2465 -4.49,1.2465 -0.84,0 -2.223,0.252 -3.072,0.558 -1.185,0.429 -2.68,0.423 -6.463,-0.03 -2.705,-0.3225 -5.24,-0.5475 -5.633,-0.501 -2.107,0.2535 -14.539,-0.15 -15.465,-0.501 -0.645,-0.243 -3.226,-0.1935 -6.265,0.12 -2.849,0.2925 -10.107,0.5505 -16.133,0.5745 -6.024,0.03 -12.346,0.1935 -14.049,0.3765 -1.702,0.183 -3.685,0.135 -4.405,-0.09 z m 124.42,-54.4062 c -4.167,-1.7495 -11.001,-2.1683 -13.966,-0.8565 -2.834,1.2525 -10.053,0.981 -13.368,-0.504 -2.135,-0.9555 -2.499,-0.9885 -4.287,-0.396 -1.08,0.357 -3.132,0.57 -4.574,0.474 -4.348,-0.2895 -4.911,-0.255 -7.263,0.4275 -2.028,0.5895 -2.527,0.567 -4.846,-0.2205 -2.331,-0.792 -2.765,-0.8115 -4.406,-0.1905 -1.29,0.489 -3.688,0.6735 -8.25,0.636 -5.455,-0.045 -6.741,-0.2025 -8.491,-1.0395 -1.695,-0.8115 -2.411,-0.909 -4.014,-0.549 -1.245,0.2805 -2.783,0.2595 -4.271,-0.06 -3.261,-0.699 -4.599,-0.6285 -7.879,0.42 -2.961,0.9465 -5.505,0.8415 -11.427,-0.468 -1.125,-0.2475 -2.678,-0.45 -3.468,-0.45 -0.795,0 -2.211,-0.3225 -3.156,-0.7185 -1.554,-0.6495 -1.965,-0.639 -4.311,0.105 -2.433,0.7665 -2.783,0.768 -5.615,0.03 -2.955,-0.7755 -3.106,-0.768 -7.171,0.351 -4.437,1.221 -4.229,1.2375 -9.111,-0.756 -1.365,-0.555 -1.754,-0.5085 -3.624,0.426 -4.016,2.0053 -7.446,1.068 -11.345,-3.1004 -3.768,-4.0279 -4.237,-8.1072 -1.41,-12.2194 2.097,-3.047 3.608,-3.7238 8.064,-3.6131 2.591,0.06 4.295,-0.1635 5.882,-0.786 1.978,-0.7755 2.472,-0.804 4.287,-0.2445 1.35,0.4155 5.545,0.6825 12.291,0.7815 5.949,0.09 11.136,0.39 12.382,0.7215 2.724,0.726 4.034,0.714 6.528,-0.06 1.719,-0.5325 2.364,-0.51 4.524,0.1545 2.535,0.78 8.93,0.8115 14.972,0.075 1.806,-0.2205 3.244,-0.045 5.476,0.6675 2.702,0.8625 3.999,0.948 12.063,0.7935 4.97,-0.09 9.899,-0.3255 10.953,-0.5115 1.05,-0.186 6.098,-0.321 11.207,-0.3 7.645,0.03 9.622,0.183 11.191,0.8535 1.836,0.786 5.222,0.903 17.384,0.603 4.26,-0.105 11.223,0.48 12.619,1.0605 0.78,0.327 2.609,0.648 4.049,0.714 5.077,0.234 8.589,0.6675 9.541,1.1775 0.525,0.2835 2.256,0.6105 3.837,0.726 1.583,0.12 4.218,0.7485 5.859,1.4055 1.641,0.657 3.273,1.194 3.626,1.194 0.36,0 1.305,0.201 2.106,0.4485 0.81,0.246 2.749,0.6915 4.32,0.99 1.572,0.2985 3.501,0.8295 4.287,1.1805 0.78,0.351 2.373,0.9225 3.528,1.272 4.018,1.215 3.877,3.7089 -0.24,4.307 -1.29,0.186 -4.859,0.453 -7.947,0.5925 -3.713,0.168 -6.101,0.5055 -7.05,0.9975 -1.005,0.519 -2.052,0.6495 -3.482,0.435 -1.567,-0.2355 -2.635,-0.06 -4.555,0.7725 -2.166,0.9315 -2.774,1.008 -4.442,0.564 -1.245,-0.3315 -2.349,-0.357 -3.096,-0.075 -0.645,0.243 -2.263,0.4185 -3.607,0.39 -1.641,-0.03 -3.06,0.273 -4.329,0.942 -2.04,1.077 -4.088,1.2255 -5.972,0.435 z m -277.351,-2.5494 c -2.543,-1.38 -5.201,-1.4325 -9.233,-0.18 -1.698,0.528 -2.389,0.5205 -4.285,-0.045 -1.245,-0.3675 -3.555,-0.618 -5.135,-0.5565 -1.579,0.06 -4.258,-0.2145 -5.953,-0.6135 -1.694,-0.399 -3.831,-0.7305 -4.748,-0.735 -3.381,-0.015 -6.19,-2.9183 -6.19,-6.3894 0,-2.0486 1.963,-7.5992 3.165,-8.9489 2.016,-2.2642 5.482,-2.8419 8.241,-1.3725 1.606,0.855 1.684,0.8535 3.471,-0.075 1.44,-0.7485 2.41,-0.9 4.548,-0.7035 1.5,0.135 3.615,0.03 4.707,-0.228 1.365,-0.3255 2.743,-0.3135 4.38,0.03 1.666,0.357 3.157,0.3645 4.917,0.03 1.918,-0.3705 3.043,-0.3345 4.671,0.1515 1.825,0.546 2.515,0.537 4.659,-0.06 2.112,-0.5865 3.109,-0.606 6.192,-0.12 5.148,0.822 20.82,1.0905 26.644,0.4575 5.445,-0.5925 7.25,-0.2925 12.188,2.0255 2.623,1.2315 3.061,1.29 8.175,1.0935 4.032,-0.156 5.926,-0.03 7.467,0.51 1.14,0.396 2.77,0.7215 3.636,0.726 0.87,0 2.232,0.3495 3.042,0.768 0.81,0.4215 2.026,0.6495 2.718,0.5115 0.69,-0.135 2.638,0.075 4.339,0.4725 1.701,0.3975 3.629,0.714 4.283,0.705 1.726,-0.03 5.131,1.344 5.457,2.1946 0.45,1.1685 -0.195,2.4812 -1.32,2.6909 -0.57,0.105 -2.54,0.4485 -4.374,0.7605 -1.833,0.312 -3.977,0.747 -4.763,0.9675 -4.402,1.2345 -5.995,1.5094 -9.94,1.7181 -8.399,0.444 -9.12,0.5175 -10.449,1.0575 -0.735,0.3 -1.917,0.5505 -2.621,0.5595 -0.705,0.01 -2.35,0.5415 -3.66,1.1865 -2.578,1.269 -4.221,1.452 -6.213,0.6945 -1.05,-0.396 -1.738,-0.258 -3.816,0.7575 -2.758,1.35 -4.599,1.2975 -6.877,-0.1935 -0.75,-0.489 -2.784,-0.8985 -5.477,-1.0995 -3.57,-0.2655 -4.872,-0.153 -7.788,0.672 -2.965,0.84 -3.877,0.9135 -5.953,0.486 -2.004,-0.414 -2.712,-0.372 -3.881,0.231 -0.78,0.405 -2.338,0.69 -3.453,0.633 -3.615,-0.1845 -4.612,-0.1605 -6.547,0.162 -1.544,0.2565 -2.346,0.075 -4.223,-0.942 z m 47.085,-66.7631 c -1.305,-0.414 -3.453,-0.7005 -4.763,-0.639 -3.78,0.18 -5.526,0.135 -8.439,-0.228 -2.032,-0.252 -3.211,-0.135 -4.653,0.435 -4.159,1.6647 -8.628,0.564 -10.221,-2.5167 -2.191,-4.2366 -1.918,-8.1916 0.78,-11.2594 2.387,-2.7179 4.427,-3.6776 8.681,-4.0839 2.121,-0.2025 4.821,-0.576 6,-0.8295 1.185,-0.2535 4.714,-0.501 7.858,-0.549 11.076,-0.1725 12.059,-0.105 14.061,1.026 1.607,0.9015 2.051,0.969 3.14,0.4725 1.455,-0.663 7.716,-1.659 10.183,-1.6194 0.915,0.015 4.844,0.135 8.727,0.2775 5.469,0.195 7.424,0.105 8.676,-0.4245 2.262,-0.945 4.134,-0.843 6.611,0.36 2.035,0.9885 2.214,1.0005 3.942,0.2625 2.154,-0.9195 8.454,-1.305 24.909,-1.5186 8.208,-0.105 12.091,0.015 13.096,0.4125 0.945,0.372 3.788,0.5145 8.334,0.4155 3.798,-0.075 13.335,-0.2595 21.194,-0.3945 7.858,-0.135 15.466,-0.267 16.906,-0.294 1.44,-0.03 4.227,0.183 6.192,0.468 2.576,0.372 4.302,0.372 6.191,0 1.972,-0.393 3.738,-0.3705 7.144,0.09 2.489,0.336 8.168,0.744 12.62,0.9075 7.12,0.261 8.365,0.429 10.327,1.3905 1.901,0.9315 2.657,1.0455 5.111,0.768 2.263,-0.2565 3.133,-0.1605 4.063,0.4485 0.645,0.426 1.947,0.774 2.882,0.774 0.93,0 2.451,0.315 3.37,0.699 0.915,0.384 2.28,0.5775 3.023,0.429 0.75,-0.15 1.848,0 2.457,0.3225 0.615,0.3255 1.867,0.6585 2.797,0.741 4.167,0.3645 9.395,1.2465 10.491,1.7708 1.26,0.6 1.857,2.4772 1.05,3.2841 -0.255,0.2565 -1.722,0.651 -3.255,0.876 -1.533,0.2235 -3.751,0.612 -4.93,0.8625 -1.185,0.2505 -3.536,0.6975 -5.238,0.9945 -1.703,0.297 -4.958,0.879 -7.233,1.293 -2.274,0.414 -4.839,0.6495 -5.699,0.5235 -0.855,-0.12 -2.32,0.09 -3.246,0.474 -0.93,0.387 -3.718,0.7905 -6.207,0.8955 -8.986,0.3825 -10.738,0.5415 -12.142,1.0995 -0.87,0.3465 -5.313,0.648 -11.43,0.7755 -5.502,0.12 -11.313,0.3375 -12.915,0.4965 -2.052,0.2025 -3.725,0.045 -5.667,-0.513 -1.614,-0.4695 -3.267,-0.6645 -3.993,-0.4725 -0.675,0.1815 -2.525,0.5085 -4.097,0.7275 -1.572,0.219 -3.568,0.5415 -4.435,0.7155 -1.778,0.3585 -6.573,-0.456 -9.231,-1.5662 -1.604,-0.6705 -2.109,-0.6615 -5.715,0.105 -2.175,0.4605 -4.541,0.939 -5.258,1.0665 -0.72,0.12 -2.859,-0.156 -4.762,-0.627 -4.274,-1.059 -9.054,-1.0695 -11.423,-0.03 -2.08,0.915 -5.004,1.008 -6.889,0.216 -1.11,-0.4665 -3.75,-0.711 -9.198,-0.8565 -1.883,-0.045 -12.35,0.501 -18.098,0.951 -4.788,0.375 -7.236,0.3615 -9.588,-0.06 -2.467,-0.438 -3.51,-0.432 -4.762,0.03 -0.885,0.3225 -4.029,0.7035 -6.992,0.849 -4.938,0.24 -5.583,0.171 -7.731,-0.8355 -2.218,-1.0395 -2.523,-1.0665 -5.698,-0.498 -1.847,0.33 -4.475,0.5895 -5.843,0.5775 -1.365,-0.012 -3.405,0.2895 -4.528,0.669 -2.513,0.8505 -3.501,0.831 -6.531,-0.12 z m 56.197,-74.2967 c -0.525,-0.12 -1.641,-0.75 -2.482,-1.3845 -0.84,-0.6345 -3.104,-1.5459 -5.027,-2.0264 -1.921,-0.48 -4.341,-1.332 -5.374,-1.8937 -1.035,-0.561 -2.759,-1.2345 -3.833,-1.4955 -1.08,-0.261 -2.613,-0.9585 -3.421,-1.5486 -4.803,-3.5079 -6.914,-5.3646 -7.932,-6.9801 -0.63,-1.0005 -1.685,-2.2241 -2.34,-2.7185 -1.425,-1.0725 -4.676,-5.1673 -5.663,-7.1239 -1.543,-3.0569 -2.365,-8.0795 -2.115,-12.92 0.255,-5.0565 0.6,-7.047 2.154,-12.5257 0.555,-1.9644 1.125,-4.3553 1.275,-5.3129 0.15,-0.957 1.095,-2.98 2.129,-4.4944 1.425,-2.0901 1.936,-3.3914 2.151,-5.4027 0.525,-4.9548 0.735,-5.6376 2.482,-7.9194 0.96,-1.254 2.355,-3.7892 3.105,-5.6325 0.75,-1.8435 1.865,-4.0067 2.475,-4.8074 1.08,-1.4265 1.095,-1.5229 0.435,-4.762 -0.615,-2.9618 -0.6,-3.7451 0.15,-7.5117 0.795,-4.1394 0.795,-4.2365 -0.18,-6.2082 -0.54,-1.1025 -1.125,-3.1146 -1.275,-4.4732 -0.15,-1.359 -0.69,-3.3943 -1.215,-4.5243 -0.51,-1.1295 -0.93,-2.5065 -0.945,-3.0589 -0.01,-1.2045 -2.479,-5.9589 -4.296,-8.2824 -2.34,-2.9906 -6.669,-11.7956 -6.669,-13.5629 0,-0.903 -0.42,-2.722 -0.945,-4.0425 -0.645,-1.6402 -0.915,-3.3427 -0.855,-5.3754 0,-1.6362 -0.195,-3.7249 -0.555,-4.6417 -0.36,-0.9165 -0.975,-2.4959 -1.395,-3.5093 -0.405,-1.014 -0.705,-2.6208 -0.645,-3.5719 0.255,-4.8384 0,-11.6897 -0.42,-12.531 -0.285,-0.5235 -0.465,-1.8974 -0.42,-3.0525 0.15,-2.6573 0.15,-5.1479 0,-7.5771 -0.195,-3.9858 0.585,-10.4897 1.47,-12.2445 0.495,-0.972 0.9,-2.3723 0.9,-3.1121 0,-0.7395 0.435,-2.5647 0.945,-4.0552 0.525,-1.491 0.945,-3.0905 0.945,-3.5553 0,-0.465 0.435,-2.1314 0.96,-3.7029 0.525,-1.5717 1.17,-3.7208 1.425,-4.7759 0.57,-2.3725 3.858,-7.9843 6.013,-10.246 0.885,-0.9285 1.608,-2.1708 1.608,-2.7621 0,-1.248 1.155,-3.7053 2.4,-5.076 0.48,-0.5235 1.662,-2.4527 2.64,-4.2863 0.975,-1.8336 2.357,-4.0839 3.062,-5.0007 0.705,-0.9165 1.957,-3.088 2.779,-4.825 1.514,-3.1971 2.733,-4.3932 5.073,-4.9808 0.75,-0.189 1.818,-1.1055 2.55,-2.1907 4.916,-7.2854 7.779,-10.3763 9.62,-10.3841 0.405,0 1.485,-0.774 2.382,-1.7158 0.9,-0.942 2.64,-2.2892 3.862,-2.9937 1.215,-0.705 3.792,-2.4113 5.715,-3.7926 5.219,-3.7518 8.699,-5.6636 11.978,-6.5795 1.62,-0.453 4.105,-1.431 5.523,-2.1736 1.743,-0.915 3.162,-1.317 4.389,-1.2435 1.365,0.075 2.313,-0.249 3.852,-1.347 2.901,-2.0666 5.215,-2.709 8.442,-2.3441 2.529,0.2865 2.844,0.2085 4.519,-1.1235 1.886,-1.5 2.685,-1.7119 8.138,-2.1654 2.244,-0.186 3.964,-0.06 5.238,0.369 1.896,0.6465 5.997,0.6585 14.994,0.045 3.454,-0.2355 4.429,-0.12 6.651,0.7575 1.44,0.5685 3.468,1.212 4.525,1.4295 10.523,2.1747 14.61,3.6633 17.543,6.3912 0.78,0.723 1.89,1.2405 2.667,1.2405 1.75,0 7.452,3.0102 9.612,5.075 1.11,1.0575 2.77,1.9543 4.726,2.5462 2.765,0.837 3.462,1.3545 8.294,6.1506 2.901,2.88 7.015,6.9401 9.141,9.0224 2.266,2.2188 4.005,4.3467 4.201,5.1406 0.18,0.7455 0.9,1.9448 1.583,2.666 1.41,1.476 3.289,4.5715 5.137,8.4342 0.69,1.431 1.679,2.9056 2.21,3.2769 1.395,0.981 2.292,3.4828 2.292,6.4302 0,1.7623 0.24,2.7729 0.75,3.1981 1.005,0.837 2.359,3.555 3.06,6.1607 0.315,1.1745 0.975,2.6994 1.47,3.3879 1.485,2.0812 1.914,3.7552 2.379,9.2329 0.24,2.8821 0.675,6.9548 0.945,9.0503 0.51,3.8713 1.095,13.0101 1.08,16.9068 0,1.179 -0.39,2.8806 -0.855,3.7818 -0.735,1.416 -0.81,2.3653 -0.525,6.9814 0.3,4.842 0.24,5.5238 -0.66,7.2722 -0.675,1.311 -0.99,2.8386 -0.99,4.7661 0,2.3262 -0.3,3.4026 -1.668,5.979 -1.05,1.9653 -1.668,3.8083 -1.67,4.921 0,2.241 -1.05,4.2653 -3.049,5.9157 -1.526,1.257 -2.564,3.3864 -3.593,7.3686 -0.285,1.089 -1.215,3.0179 -2.089,4.2863 -0.87,1.269 -2.486,4.2349 -3.594,6.5923 -3.044,6.4689 -3.104,6.5565 -5.594,8.1783 -3.381,2.2029 -6.799,5.8893 -8.481,9.1451 -1.155,2.2284 -6.901,7.8769 -9.229,9.0648 -1.065,0.54 -2.07,1.2165 -2.247,1.5006 -0.18,0.285 -1.851,1.4955 -3.723,2.6914 -1.872,1.1955 -4.049,2.7333 -4.839,3.4179 -0.795,0.684 -3.314,2.2022 -5.61,3.3729 -2.592,1.3215 -5.459,3.3012 -7.565,5.2235 -3.189,2.9098 -4.864,3.9178 -15.427,9.2778 -1.592,0.807 -3.668,2.2501 -4.613,3.2064 -0.945,0.957 -2.529,2.0058 -3.519,2.3325 -0.99,0.327 -2.607,1.179 -3.594,1.8933 -0.99,0.714 -2.746,1.5391 -3.91,1.8322 -1.86,0.468 -2.297,0.8475 -3.603,3.1299 -1.395,2.4467 -3.861,5.0277 -4.796,5.0277 -0.225,0 -1.245,0.84 -2.269,1.8663 -1.185,1.2 -2.597,2.0588 -3.947,2.4056 -1.155,0.297 -2.908,0.849 -3.895,1.23 -1.878,0.7215 -4.581,0.882 -6.443,0.384 -0.69,-0.186 -1.539,-1.17 -2.304,-2.6769 -1.08,-2.1323 -1.155,-2.5998 -0.69,-4.4355 0.285,-1.128 0.51,-2.7177 0.51,-3.5316 0,-1.8152 0.93,-3.6678 2.619,-5.2424 0.705,-0.654 2.124,-2.632 3.155,-4.3938 1.035,-1.7617 2.412,-3.5835 3.067,-4.0482 0.66,-0.465 1.982,-1.4475 2.946,-2.1837 0.96,-0.7365 2.684,-1.5877 3.822,-1.8921 1.614,-0.432 2.232,-0.8985 2.814,-2.1234 0.855,-1.7964 2.672,-3.2398 4.704,-3.7314 0.765,-0.186 2.382,-1.2465 3.582,-2.3577 1.215,-1.1295 2.901,-2.1712 3.81,-2.3643 2.388,-0.5055 6.14,-2.1637 8.139,-3.5944 0.96,-0.6885 2.72,-1.6224 3.908,-2.076 1.677,-0.6405 2.479,-1.3455 3.591,-3.1535 1.569,-2.5497 3.025,-3.505 6.54,-4.2913 2.296,-0.5145 5.224,-2.1458 9.094,-5.0672 1.215,-0.918 2.87,-1.6534 4.146,-1.8448 2.217,-0.333 2.831,-0.9255 4.656,-4.5032 0.465,-0.9165 2.268,-2.8455 4.001,-4.2862 1.731,-1.44 3.532,-3.2348 4.003,-3.987 0.465,-0.753 2.343,-2.9019 4.163,-4.7772 1.821,-1.8753 3.657,-4.0802 4.08,-4.8998 0.42,-0.819 1.5,-2.0989 2.391,-2.8428 1.593,-1.3305 3.313,-4.7937 4.879,-9.8214 0.39,-1.2525 1.854,-3.9567 3.251,-6.0088 1.798,-2.6418 2.781,-4.6886 3.361,-7.0094 0.45,-1.8028 1.125,-3.8566 1.485,-4.564 0.36,-0.7065 0.675,-2.5289 0.675,-4.0481 0,-1.5192 0.375,-4.1551 0.795,-5.8578 0.495,-1.9332 0.81,-5.3308 0.855,-9.0487 0,-4.5314 0.27,-6.2943 0.87,-7.3818 1.14,-2.0634 1.035,-5.9753 -0.225,-8.0961 -0.855,-1.4535 -0.975,-2.2179 -0.765,-4.9088 0.21,-2.5636 0,-3.8754 -0.885,-6.7012 -0.63,-1.9325 -1.14,-3.8109 -1.14,-4.1744 0,-0.363 -0.645,-1.7965 -1.425,-3.1846 -0.78,-1.3875 -1.63,-3.6125 -1.882,-4.9433 -0.285,-1.5363 -1.365,-3.8497 -2.948,-6.3379 -2.01,-3.1659 -2.529,-4.4115 -2.7,-6.485 -0.195,-2.3992 -0.375,-2.6971 -2.608,-4.5721 -1.32,-1.1025 -3.089,-3.0831 -3.935,-4.4 -0.84,-1.317 -2.796,-3.6801 -4.332,-5.2516 -1.536,-1.5717 -3.141,-3.5252 -3.567,-4.3413 -0.585,-1.125 -1.215,-1.5665 -2.602,-1.8267 -2.601,-0.4875 -4.14,-1.389 -6.551,-3.8348 -1.2,-1.2195 -2.553,-2.1417 -3.136,-2.1417 -0.555,0 -1.863,-0.429 -2.891,-0.9525 -1.02,-0.5235 -2.205,-0.9525 -2.619,-0.9525 -1.2,0 -4.192,-1.7025 -5.355,-3.049 -0.735,-0.855 -1.548,-1.239 -2.619,-1.245 -0.855,0 -2.62,-0.6435 -3.933,-1.4205 -1.395,-0.8325 -3.066,-1.416 -4.047,-1.4205 -0.915,0 -3.21,-0.303 -5.094,-0.663 -2.532,-0.483 -3.982,-0.5265 -5.55,-0.168 -1.548,0.354 -2.683,0.3255 -4.192,-0.105 -3.615,-1.029 -12.539,-0.9855 -16.307,0.075 -2.049,0.579 -3.883,0.8145 -4.879,0.6285 -1.2,-0.225 -2.097,-0.015 -3.624,0.855 -2.628,1.4985 -5.369,2.4102 -10.361,3.4485 -2.896,0.603 -4.996,1.4085 -7.381,2.8324 -1.835,1.095 -4.046,2.357 -4.916,2.805 -0.87,0.4485 -2.859,1.7865 -4.42,2.9741 -1.562,1.188 -4.323,2.8812 -6.137,3.7635 -1.98,0.9645 -3.624,2.1337 -4.117,2.9307 -1.23,1.9953 -4.058,4.8904 -5.513,5.6541 -0.72,0.3795 -2.142,2.1349 -3.228,3.9948 -1.245,2.1301 -2.656,3.8157 -3.948,4.7091 -1.561,1.08 -2.481,2.3316 -4.11,5.5915 -2.092,4.1894 -7.003,12.3068 -9.307,15.3866 -0.675,0.894 -1.215,2.0251 -1.215,2.5146 0,0.489 -0.54,2.1631 -1.185,3.7189 -0.765,1.8029 -1.185,3.7409 -1.2,5.3436 0,1.7321 -0.615,4.2189 -1.964,7.9914 -1.837,5.1371 -2.961,11.2985 -2.908,15.9545 0.15,10.441 1.74,22.4449 3.526,26.0557 0.48,0.972 0.885,2.0433 0.885,2.3813 0,0.3375 0.54,1.6858 1.185,2.9955 0.765,1.56 1.17,3.2029 1.17,4.7638 0,2.2767 0.15,2.5472 3.33,6.0804 4.452,4.9508 4.901,5.9129 5.157,11.0633 0.195,4.0495 0.315,4.4263 2.027,6.8221 2.302,3.2202 2.542,4.3985 1.83,8.9784 -0.63,4.0889 -0.645,4.1958 -0.42,10.4331 0.15,3.6099 0,4.8144 -0.945,7.2761 -1.005,2.6683 -1.05,3.2104 -0.555,5.6752 0.33,1.6055 1.215,3.7034 2.16,5.1063 0.885,1.3095 2.305,3.7743 3.153,5.4768 0.84,1.7027 2.028,3.68 2.626,4.394 0.6,0.714 1.23,1.9216 1.395,2.6836 0.24,1.077 0.75,1.5563 2.319,2.1545 1.11,0.423 2.822,0.7695 3.807,0.7695 2.516,0 4.23,1.029 6.213,3.7297 1.836,2.5013 4.935,5.3375 6.926,6.3387 3.534,1.7769 5.277,3.3168 5.277,4.6599 0,1.8453 -0.78,2.3484 -4.08,2.6241 -3.213,0.2685 -6.638,0.8835 -9.662,1.7322 -1.591,0.447 -2.623,0.456 -4.441,0.03 -1.305,-0.3 -2.882,-0.546 -3.51,-0.546 -0.63,0 -2.058,-0.4125 -3.179,-0.9165 -1.125,-0.504 -3.289,-1.395 -4.822,-1.9792 -2.072,-0.7905 -3.795,-2.0181 -6.731,-4.7979 -2.17,-2.0547 -4.081,-3.7358 -4.246,-3.7358 -0.165,0 -0.93,0.696 -1.709,1.5479 -1.035,1.1355 -1.41,2.0308 -1.425,3.3637 0,1.02 -0.645,3.1257 -1.455,4.8041 -0.795,1.6434 -1.632,4.1479 -1.866,5.5659 -0.24,1.4175 -0.57,2.9335 -0.735,3.3684 -0.375,0.9435 0.675,3.1279 2.141,4.4493 0.585,0.5235 1.44,1.7217 1.926,2.6631 1.005,1.9599 5.655,5.2162 9.426,6.5946 1.32,0.4845 3.042,1.332 3.816,1.8829 1.615,1.1505 2.637,1.221 6.481,0.4485 2.958,-0.594 2.391,-0.7035 11.211,2.1593 1.964,0.6375 4.607,1.6089 5.873,2.1583 1.26,0.549 2.815,0.999 3.442,0.999 1.41,0 2.796,1.9383 2.358,3.3158 -0.165,0.54 -0.96,1.32 -1.765,1.7332 -0.795,0.414 -2.615,1.6971 -4.034,2.8523 -1.41,1.155 -2.883,2.1 -3.256,2.1 -0.375,0 -1.38,0.612 -2.244,1.359 -2.355,2.0448 -3.395,2.451 -6.279,2.451 -1.509,0 -3.663,0.4065 -5.049,0.9525 -2.457,0.969 -2.838,1.02 -4.524,0.6105 z m 174.416,-68.2607 c -2.757,-1.119 -4.482,-2.1553 -6.062,-3.6424 -0.66,-0.6165 -1.935,-1.6025 -2.845,-2.1914 -1.791,-1.1595 -1.892,-1.3245 -4.754,-7.7604 -2.149,-4.8325 -2.328,-6.3478 -1.05,-8.8623 0.48,-0.9495 1.005,-3.1231 1.17,-4.8312 0.375,-3.9723 2.886,-9.9906 4.995,-11.952 0.855,-0.801 2.312,-2.1498 3.222,-2.9965 0.915,-0.8475 2.289,-1.8672 3.063,-2.2677 0.78,-0.4005 2.186,-1.2555 3.137,-1.9007 0.945,-0.645 2.509,-1.3185 3.466,-1.4985 0.96,-0.1785 2.427,-0.6135 3.27,-0.9645 0.84,-0.3525 2.388,-0.639 3.435,-0.639 1.23,0 2.202,-0.312 2.753,-0.8835 1.702,-1.765 3.438,-2.5354 5.716,-2.5366 2.583,0 6.353,-1.203 6.281,-2.0021 -0.195,-2.1169 -0.87,-2.9511 -3.536,-4.3153 -3.01,-1.542 -4.989,-3.8547 -4.989,-5.8296 0,-0.627 -0.42,-1.9695 -0.945,-2.9843 -1.47,-2.8687 -1.992,-5.9497 -2.125,-12.4045 -0.225,-10.5158 1.365,-17.787 5.565,-25.5825 3.093,-5.7383 4.654,-7.4723 8.911,-9.8981 5.886,-3.3534 6.776,-3.9694 8.822,-6.1048 1.185,-1.236 2.152,-2.3159 2.152,-2.4009 0,-0.09 -1.768,-0.9495 -3.928,-1.9196 -6.729,-3.0226 -7.169,-3.3315 -8.472,-5.9629 -0.675,-1.3575 -2.921,-4.1784 -5.067,-6.3608 -2.123,-2.1565 -4.097,-4.389 -4.388,-4.9611 -0.84,-1.6548 -1.831,-7.1425 -2.187,-12.1132 -0.3,-4.2645 -0.24,-4.7414 0.84,-6.9056 0.645,-1.278 1.32,-2.8606 1.512,-3.5155 1.035,-3.608 2.918,-7.5836 4.277,-9.0488 0.855,-0.9165 1.825,-2.3763 2.166,-3.2436 0.825,-2.0998 2.881,-3.552 6.876,-4.8594 3.274,-1.071 3.327,-1.074 6.856,-0.2415 4.623,1.0905 6.74,2.8796 7.074,5.9798 0.285,2.6638 -1.305,5.9041 -3.693,7.513 -0.9,0.6045 -1.707,1.356 -1.8,1.667 -0.15,0.312 -0.81,1.9231 -1.606,3.5811 -1.125,2.3514 -1.586,4.2889 -2.118,8.8105 l -0.675,5.7963 2.049,1.6539 c 1.125,0.909 2.943,2.5559 4.035,3.6585 2.605,2.6318 4.039,3.3114 7.819,3.7061 1.725,0.18 4.197,0.819 5.493,1.419 1.29,0.6 3.351,1.2405 4.568,1.4235 1.215,0.183 3.459,0.7725 4.984,1.3095 2.163,0.7635 3.41,0.9135 5.669,0.6855 2.512,-0.255 3.195,-0.135 5.145,0.903 2.635,1.401 3.61,1.446 9.889,0.447 5.364,-0.8535 7.068,-0.555 9.093,1.593 1.731,1.8348 2.279,4.2798 1.763,7.8525 -0.24,1.6341 -0.435,3.1245 -0.435,3.3118 0,0.8865 -3.261,3.891 -5.312,4.9299 -3.955,2.0043 -15.862,4.4925 -21.499,4.4925 -0.96,0 -2.664,0.4005 -3.785,0.8895 -1.125,0.489 -3.216,1.263 -4.656,1.7192 -1.44,0.456 -4.138,1.7704 -5.994,2.9205 -2.143,1.329 -4.401,2.2933 -6.19,2.6457 -2.331,0.459 -3.09,0.8685 -4.394,2.3704 -0.915,1.047 -2.331,2.0417 -3.358,2.3495 -1.155,0.348 -2.529,1.3875 -3.93,2.9874 -1.934,2.2071 -2.232,2.8777 -2.972,6.6793 -0.45,2.3241 -1.14,4.8317 -1.518,5.5722 -0.39,0.741 -0.69,2.3463 -0.69,3.5682 0,1.977 0.21,2.4126 1.88,3.9528 1.035,0.9525 2.322,2.7741 2.863,4.0491 0.54,1.275 1.572,2.7683 2.289,3.318 0.72,0.5505 3.27,2.8284 5.675,5.0636 2.404,2.2351 5.095,4.6387 5.98,5.3412 1.44,1.1385 9.563,4.6044 14.27,6.0847 2.277,0.717 4.543,3.3108 4.896,5.6057 0.15,0.9885 0.51,2.8989 0.795,4.2466 0.87,4.0625 -0.21,6.6341 -3.516,8.3181 -1.86,0.9495 -2.643,1.0125 -11.543,0.9375 -31.023,-0.261 -30.393,-0.273 -32.781,0.579 -1.245,0.447 -3.241,0.8115 -4.417,0.8115 -2.273,0 -8.46,2.7306 -9.585,4.2299 -0.315,0.4245 -1.23,2.3842 -2.019,4.3563 -1.335,3.3051 -1.455,4.0872 -1.539,10.0012 0,3.5288 0.15,7.9718 0.3,9.8735 0.345,3.009 0.285,3.5805 -0.465,4.4052 -1.035,1.1475 -1.29,1.1445 -4.173,-0.03 z m -142.508,-2.1295 c -2.011,-1.011 -4.441,-3.89 -5.079,-6.0216 -0.465,-1.5245 -0.375,-2.3495 0.48,-5.2703 0.57,-1.9045 1.02,-3.9246 1.02,-4.4887 0,-0.564 0.93,-2.8145 2.079,-5.0006 1.14,-2.1862 2.453,-5.1195 2.91,-6.5187 0.45,-1.3995 1.41,-3.2206 2.132,-4.048 0.72,-0.828 2.728,-3.6941 4.473,-6.3702 1.746,-2.6763 3.583,-5.0861 4.087,-5.355 0.51,-0.2685 1.23,-1.5083 1.623,-2.7542 1.704,-5.4394 3.257,-8.4826 5.288,-10.3612 1.125,-1.047 2.209,-2.397 2.392,-2.9982 0.18,-0.6015 1.697,-2.6286 3.363,-4.5053 1.967,-2.2147 3.372,-4.3377 4.005,-6.0505 1.41,-3.8204 3.656,-7.4987 5.157,-8.4542 1.647,-1.0485 2.003,-1.5492 2.012,-2.8413 0,-1.1745 -2.055,-3.0112 -3.381,-3.0112 -0.48,0 -2.331,-0.564 -4.104,-1.2525 -1.773,-0.6885 -3.818,-1.467 -4.544,-1.7292 -0.72,-0.261 -2.37,-1.5195 -3.652,-2.795 -1.29,-1.275 -2.682,-2.319 -3.111,-2.319 -1.395,0 -3.222,4.9685 -3.408,9.2495 -0.15,3.2655 -0.375,4.1314 -1.754,6.4422 -1.768,2.9707 -2.709,5.3653 -2.709,6.9006 0,0.561 -0.435,1.8597 -0.945,2.8872 -0.525,1.0275 -0.96,2.7337 -0.96,3.7917 0,1.068 -0.555,3.0888 -1.23,4.5426 -1.938,4.1182 -3.406,9.0241 -3.664,12.2331 -0.195,2.3259 -0.615,3.5596 -2.036,5.8591 -1.17,1.9053 -1.915,3.7865 -2.14,5.4387 -0.33,2.4659 -3.042,7.2561 -5.037,8.912 -0.42,0.354 -1.17,1.5532 -1.643,2.6656 -0.63,1.4835 -1.509,2.4182 -3.28,3.5085 -1.335,0.8175 -2.72,2.0745 -3.092,2.7942 -1.08,2.0732 -5.047,5.7375 -6.223,5.7375 -1.908,0 -2.295,-1.0875 -1.911,-5.3712 0.195,-2.1535 0.33,-7.2375 0.315,-11.2975 0,-6.8999 0,-7.5384 1.125,-9.7802 0.645,-1.3185 1.503,-3.3532 1.915,-4.5201 0.405,-1.167 1.502,-3.4918 2.423,-5.1666 1.51,-2.7477 1.644,-3.286 1.365,-5.511 -0.21,-1.7097 -0.15,-2.9829 0.39,-4.1515 0.39,-0.927 0.855,-2.5556 1.035,-3.6186 0.18,-1.0635 0.93,-3.4098 1.662,-5.2146 0.735,-1.8048 1.485,-3.942 1.657,-4.7492 0.18,-0.807 1.065,-2.3389 1.979,-3.4036 1.615,-1.8864 1.65,-2.0129 1.35,-4.9374 -0.345,-3.356 0.525,-7.098 2.475,-10.7771 0.615,-1.1715 1.125,-2.4852 1.125,-2.9199 0,-1.2225 2.842,-8.7337 3.64,-9.6183 1.035,-1.1445 2.037,-5.8536 2.057,-9.6271 0,-2.9637 -0.15,-3.423 -1.41,-4.8903 -0.78,-0.891 -1.551,-2.2049 -1.71,-2.9204 -0.165,-0.7155 -0.645,-2.3725 -1.08,-3.6822 -0.525,-1.5717 -0.78,-3.9195 -0.78,-6.9057 0,-6.2466 1.14,-8.9625 5.613,-13.6713 3.667,-3.8608 5.863,-5.2428 9.024,-5.676 2.763,-0.3795 4.656,0.5235 8.523,4.0641 4.156,3.8055 5.182,6.5765 5.245,14.1635 0,5.8611 -1.08,16.5634 -1.915,18.1194 -0.84,1.5567 -0.72,1.7958 1.32,2.6956 1.305,0.573 2.323,1.5546 3.328,3.1874 1.41,2.3008 1.508,2.3586 3.749,2.3586 1.834,0 3.255,0.495 7.03,2.4453 4.569,2.3616 4.874,2.4478 8.916,2.5203 l 4.187,0.075 2.682,-2.2683 c 1.47,-1.248 3.664,-2.7243 4.863,-3.2816 2.614,-1.215 3.958,-2.3887 5.829,-5.0898 1.897,-2.743 4.197,-3.8031 9.636,-4.4446 7.857,-0.927 13.441,0.978 16.911,5.7679 2.079,2.8695 2.62,5.7788 1.716,9.2157 -0.915,3.4502 -2.177,5.2907 -4.448,6.4502 -2.248,1.1475 -3.226,2.2813 -3.639,4.2184 -0.72,3.362 -4.27,5.7704 -7.597,5.1462 -1.305,-0.2445 -1.968,-0.01 -3.899,1.3905 -3.531,2.5572 -5.242,3.1902 -8.239,3.048 -7.206,-0.342 -7.233,-0.3315 -10.757,4.3262 -1.05,1.3845 -3.033,3.9357 -4.411,5.6682 -1.38,1.7326 -3.075,4.3288 -3.771,5.7694 -0.69,1.44 -1.734,3.2636 -2.31,4.0506 -0.57,0.7875 -1.821,2.9679 -2.766,4.8462 -0.945,1.8782 -1.958,3.5616 -2.247,3.741 -0.285,0.1785 -0.945,1.32 -1.47,2.5358 -0.525,1.215 -1.455,2.7454 -2.067,3.4002 -1.544,1.6365 -4.31,5.562 -5.538,7.8582 -0.555,1.0485 -1.938,2.8945 -3.062,4.104 -2.22,2.3896 -4.503,6.4692 -4.503,8.0434 0,1.23 -1.57,4.3647 -2.625,5.2401 -1.852,1.5377 -3.643,4.9349 -4.57,8.6721 -1.35,5.4506 -2.09,6.7965 -4.641,8.4668 -1.215,0.7965 -2.942,1.98 -3.831,2.6299 -1.889,1.3785 -4.748,1.5671 -6.956,0.459 z m -139.335,-189.578 c -0.51,-0.6135 -0.525,-1.6999 0,-5.856 0.315,-2.8062 0.57,-6.4345 0.57,-8.0628 0,-1.6284 0.435,-4.5094 0.96,-6.4024 0.645,-2.3111 0.87,-4.1477 0.675,-5.5899 -0.195,-1.476 0,-3.3239 0.765,-5.9042 0.78,-2.8429 0.96,-4.3822 0.72,-6.3316 -0.255,-2.0874 -0.15,-2.9261 0.645,-4.4234 0.675,-1.293 0.945,-2.7015 0.93,-4.6959 0,-2.1301 0.21,-3.2641 0.975,-4.4976 0.555,-0.9075 1.02,-2.374 1.02,-3.2598 0,-0.8865 0.525,-2.4679 1.17,-3.5157 0.93,-1.518 1.17,-2.5545 1.185,-5.1015 0,-4.8369 1.682,-9.4383 5.181,-14.3608 1.611,-2.2676 2.93,-4.5651 2.93,-5.1059 0,-1.573 3.646,-10.4624 5.46,-13.3081 0.915,-1.4325 1.665,-2.9263 1.672,-3.3193 0,-0.393 0.645,-1.893 1.425,-3.3338 0.78,-1.44 1.41,-2.8936 1.425,-3.229 0,-0.8655 -6.564,2.7219 -7.534,4.1019 -2.24,3.1848 -3.491,4.2754 -5.477,4.7757 -1.14,0.288 -2.361,0.864 -2.707,1.2825 -0.345,0.417 -1.455,1.182 -2.469,1.6975 -2.729,1.392 -8.94,5.6454 -8.94,6.122 0,0.486 -6.318,5.2289 -8.078,6.0644 -0.66,0.315 -1.899,0.5835 -2.743,0.5955 -1.14,0.015 -1.805,0.39 -2.576,1.4325 -1.275,1.7265 -3.582,2.8755 -5.77,2.8755 -1.02,0 -1.958,0.351 -2.48,0.927 -0.765,0.843 -6.39,3.8351 -7.213,3.8351 -0.51,0 -5.015,2.8692 -6.299,4.0099 -1.14,1.0095 -3.46,2.318 -7.227,4.0668 -1.185,0.5475 -2.787,1.3515 -3.573,1.7864 -4.846,2.6851 -6.948,3.4828 -7.87,2.9884 -1.692,-0.906 -1.08,-2.4511 2.385,-5.9458 1.813,-1.8336 4.351,-4.191 5.641,-5.2388 1.29,-1.0485 2.69,-2.6038 3.113,-3.4581 0.42,-0.8535 1.47,-1.8915 2.323,-2.3053 0.855,-0.414 2.156,-1.6923 2.892,-2.8409 0.735,-1.149 1.992,-2.5756 2.792,-3.1713 0.795,-0.5955 2.338,-1.9747 3.423,-3.0643 1.08,-1.0905 2.845,-2.4151 3.915,-2.9452 1.065,-0.5295 2.541,-1.7489 3.273,-2.7083 3.312,-4.3413 8.361,-8.7876 12.132,-10.684 2.502,-1.257 4.245,-2.5062 5.127,-3.6722 2.206,-2.9164 3.895,-4.3531 5.517,-4.6908 3.129,-0.6525 5.556,-2.2447 7.11,-4.6677 1.2,-1.8639 2.073,-2.6052 4.161,-3.5224 1.455,-0.639 3.181,-1.6688 3.837,-2.2884 0.66,-0.6195 2.154,-1.5539 3.333,-2.0759 1.185,-0.522 2.893,-1.7242 3.81,-2.6716 0.915,-0.9465 2.739,-2.3945 4.048,-3.2159 2.46,-1.5426 6.228,-4.3933 10.292,-7.7848 1.29,-1.0725 3.138,-2.1902 4.119,-2.4842 0.975,-0.294 3.069,-1.3125 4.641,-2.2629 1.57,-0.951 4.098,-2.3587 5.614,-3.129 1.518,-0.7695 4.125,-2.3356 5.795,-3.4783 1.803,-1.2345 4.02,-2.289 5.46,-2.598 1.335,-0.2865 3.279,-1.086 4.323,-1.7762 1.275,-0.84 2.886,-1.3695 4.878,-1.5987 1.638,-0.189 3.583,-0.5895 4.32,-0.891 0.735,-0.3015 2.004,-0.549 2.815,-0.549 0.84,0 2.469,-0.6375 3.771,-1.473 1.26,-0.81 3.21,-1.5897 4.328,-1.7325 1.125,-0.15 2.611,-0.552 3.319,-0.909 0.705,-0.357 2.568,-0.6495 4.136,-0.6495 1.567,0 3.453,-0.24 4.191,-0.534 0.735,-0.2925 3.27,-0.561 5.626,-0.5955 2.358,-0.03 4.608,-0.2775 5.001,-0.5385 0.39,-0.261 3.072,-0.486 5.954,-0.501 3.556,-0.015 6.003,-0.2805 7.62,-0.8175 1.305,-0.4365 3.774,-1.0215 5.476,-1.3005 1.703,-0.279 4.034,-0.69 5.178,-0.915 1.86,-0.363 2.109,-0.306 2.33,0.537 0.195,0.7245 0.54,0.888 1.485,0.702 7.531,-1.4625 10.129,-1.7389 12.133,-1.29 1.425,0.318 2.972,0.321 4.617,0.01 3.668,-0.696 7.793,-0.573 9.966,0.297 1.485,0.594 2.7,0.6915 5.367,0.4335 1.898,-0.1845 5.057,-0.402 7.022,-0.4845 1.963,-0.075 4.674,-0.414 6.021,-0.735 1.84,-0.4395 2.83,-0.453 3.976,-0.06 1.425,0.495 6.617,0.105 9.147,-0.6765 0.45,-0.135 1.731,0 2.858,0.2985 1.698,0.4575 2.634,0.405 5.485,-0.3045 3.263,-0.813 3.57,-0.8145 6.018,-0.045 2.28,0.7185 2.906,0.7395 5.373,0.1755 2.109,-0.4815 4.251,-0.5385 8.747,-0.2325 3.273,0.2235 6.274,0.4245 6.667,0.4485 0.39,0.03 1.679,-0.1545 2.858,-0.3975 1.35,-0.276 2.764,-0.2685 3.81,0.015 1.83,0.507 16.923,0.5355 20.716,0.045 1.575,-0.2055 3.429,-0.045 5.477,0.462 2.799,0.699 3.36,0.705 5.857,0.045 3.299,-0.8625 5.739,-0.921 7.139,-0.1725 1.395,0.7455 10.05,0.5385 12.52,-0.3 1.485,-0.504 2.393,-0.543 3.813,-0.1605 1.02,0.2745 2.402,0.489 3.056,0.477 0.66,-0.013 4.384,-0.135 8.289,-0.2685 5.5,-0.1905 7.386,-0.09 8.374,0.414 1.095,0.5655 1.619,0.558 3.695,-0.045 2.125,-0.6225 2.757,-0.6255 5.199,-0.015 2.122,0.528 5.539,0.6645 14.448,0.579 8.827,-0.09 12.039,0.045 13.194,0.5205 1.215,0.504 2.014,0.519 3.93,0.075 1.836,-0.4245 3.277,-0.423 6.094,0.01 2.03,0.309 4.563,0.5595 5.63,0.558 3.288,-0.01 10.839,1.4715 12.405,2.4261 1.02,0.624 1.939,0.8145 2.941,0.615 0.915,-0.183 2.025,-0.01 2.993,0.4755 0.84,0.4215 2.227,0.7665 3.072,0.7665 0.84,0 2.259,0.2985 3.142,0.6615 0.885,0.3645 2.999,0.804 4.701,0.9765 1.703,0.174 4.061,0.5235 5.24,0.78 1.17,0.255 4.285,0.8895 6.904,1.4085 5.006,0.9915 6.3,1.7807 5.469,3.3327 -0.645,1.2165 -6.424,2.364 -12.373,2.4603 -1.44,0.03 -3.234,0.351 -3.986,0.729 -0.75,0.378 -1.801,0.573 -2.335,0.4335 -0.855,-0.2235 -4.512,0.5145 -6.539,1.3185 -0.39,0.156 -4.036,0.366 -8.095,0.4665 -4.805,0.12 -8.547,0.4695 -10.716,1.005 -5.159,1.2705 -10.167,1.428 -14.771,0.462 -2.707,-0.5685 -4.629,-0.7185 -6.031,-0.4695 -5.265,0.933 -17.877,1.1085 -24.389,0.339 -3.958,-0.468 -5.1,-0.4425 -7.155,0.1545 -2.128,0.6195 -2.998,0.6255 -6.72,0.06 -2.352,-0.3615 -4.812,-0.858 -5.466,-1.1025 -1.935,-0.7215 -10.929,-0.3645 -12.963,0.5145 -2.188,0.9465 -4.192,0.9735 -6.321,0.09 -1.17,-0.4875 -2.077,-0.5595 -3.199,-0.2505 -3.332,0.9165 -10.404,0.5595 -18.713,-0.9465 -5.607,-1.0155 -6.286,-1.0365 -9.763,-0.3045 -1.965,0.414 -5.552,0.753 -7.97,0.753 -2.419,2e-4 -5.355,0.2565 -6.523,0.5685 -1.871,0.4995 -2.541,0.438 -5.604,-0.5235 -3.861,-1.2105 -5.964,-1.1235 -16.619,0.69 -4.813,0.819 -5.2,0.8205 -8.451,0.03 -4.837,-1.176 -14.173,-1.089 -18.082,0.1695 -1.688,0.543 -2.463,0.5535 -4.385,0.06 -1.29,-0.3285 -2.805,-0.4485 -3.382,-0.2655 -0.57,0.183 -4.181,0.372 -8.009,0.42 -3.828,0.045 -7.225,0.2505 -7.548,0.4515 -0.33,0.1995 -2.19,0.09 -4.147,-0.234 -3.312,-0.5565 -3.765,-0.525 -6.545,0.45 -3.67,1.2885 -4.885,1.305 -7.15,0.09 -1.625,-0.87 -2.154,-0.909 -6.423,-0.468 -9.848,1.0155 -12.347,1.173 -14.562,0.9165 -1.904,-0.219 -2.576,-0.075 -3.978,0.882 -1.617,1.098 -2.096,1.155 -11.283,1.3455 -6.618,0.135 -10.187,0.408 -11.501,0.873 -1.05,0.372 -2.949,0.813 -4.225,0.981 -1.275,0.168 -3.167,0.7455 -4.202,1.2855 -1.581,0.8235 -2.418,0.936 -5.244,0.699 -3.832,-0.321 -5.977,0.456 -8.95,3.2409 -0.915,0.8595 -2.241,1.8542 -2.94,2.2118 -2.216,1.131 -11.292,11.395 -11.844,13.3939 -0.33,1.2075 -1.665,2.9898 -4.091,5.4768 -2.41,2.4719 -4.033,4.6421 -4.926,6.5858 -0.735,1.5945 -2.32,4.0128 -3.529,5.3737 -1.23,1.38 -2.198,2.9477 -2.198,3.5438 0,1.579 -1.885,4.0354 -4.012,5.2308 -1.668,0.936 -1.928,1.335 -2.393,3.6754 -0.285,1.4445 -1.005,3.3981 -1.582,4.3425 -0.585,0.945 -1.065,2.4418 -1.065,3.3277 0,1.7936 -0.645,3.0993 -3.881,7.8707 -1.215,1.7958 -2.359,4.0978 -2.535,5.1156 -0.18,1.0185 -0.735,2.622 -1.23,3.5647 -0.51,0.9435 -0.915,2.3138 -0.915,3.0464 0,0.732 -0.315,2.1015 -0.72,3.0418 -0.39,0.9405 -0.72,2.1798 -0.72,2.7543 0,1.3125 -3.301,7.8605 -4.953,9.8225 -0.675,0.81 -1.245,1.7836 -1.245,2.1643 0,0.381 -0.54,1.9839 -1.2,3.5625 -0.66,1.5788 -1.425,3.9833 -1.672,5.3436 -0.345,1.8722 -0.87,2.8623 -2.151,4.0754 -1.41,1.335 -1.638,1.8279 -1.395,2.9541 0.33,1.5117 -0.855,4.4953 -1.95,4.9168 -0.375,0.15 -0.675,0.582 -0.675,0.975 0,0.393 -0.435,1.5557 -0.975,2.5838 -0.54,1.0275 -1.11,2.6896 -1.275,3.6924 -0.165,1.0035 -1.335,3.8334 -2.597,6.2902 -1.26,2.4567 -2.302,4.6893 -2.302,4.9616 0,0.2715 -0.48,1.482 -1.05,2.6901 -1.832,3.8232 -2.946,4.6438 -4.22,3.1083 z"
       id="vctrly-chalky-icon-document-3" /></g></svg>
