<?xml version="1.0" encoding="UTF-8" standalone="no"?>
<!-- Created with Inkscape (http://www.inkscape.org/) -->

<svg
   width="467.18137mm"
   height="903.5376mm"
   viewBox="0 0 467.18138 903.53762"
   version="1.1"
   id="svg1"
   xml:space="preserve"
   xmlns="http://www.w3.org/2000/svg"
   xmlns:svg="http://www.w3.org/2000/svg"><defs
     id="defs1" /><g
     id="layer1"
     transform="translate(-12682.339,-2935.5544)"><path
       style="fill:#000000;stroke-width:1"
       d="m 12747.98,3838.6828 c -4.104,-0.393 -9.453,-1.308 -11.596,-1.9842 -0.786,-0.2475 -3.144,-0.633 -5.24,-0.8565 -4.462,-0.474 -10.189,-2.8783 -12.25,-5.1427 -0.741,-0.8145 -2.006,-1.5587 -2.946,-1.7352 -2.208,-0.414 -6.978,-3.6602 -8.042,-5.4722 -0.471,-0.8025 -1.778,-2.0922 -2.904,-2.8672 -3.199,-2.2007 -6.618,-6.258 -7.558,-8.9685 -0.549,-1.5816 -1.583,-3.1313 -2.982,-4.4646 -2.257,-2.1506 -4.036,-5.2376 -4.036,-7.0028 0,-0.5775 -0.826,-1.957 -1.837,-3.0643 -2.254,-2.4696 -2.925,-3.7076 -2.925,-5.3933 0,-0.714 -0.684,-2.3643 -1.519,-3.6661 -1.742,-2.7141 -1.957,-5.5175 -0.657,-8.5602 0.73,-1.7096 0.721,-1.8443 -0.197,-2.8283 -1.011,-1.0845 -1.264,-2.5158 -0.528,-2.971 0.585,-0.3615 4.321,-7.2023 4.358,-7.9806 0.02,-0.339 1.092,-2.2251 2.389,-4.1895 1.298,-1.9646 2.702,-4.3202 3.121,-5.2349 0.418,-0.915 1.272,-2.2704 1.897,-3.013 0.625,-0.7425 1.14,-1.8161 1.144,-2.3853 0,-0.5685 0.648,-1.9781 1.428,-3.1307 0.782,-1.152 1.421,-2.3112 1.421,-2.5744 0,-0.264 0.496,-1.1415 1.102,-1.9524 0.606,-0.81 1.602,-2.7216 2.213,-4.2467 0.61,-1.525 1.604,-3.0966 2.208,-3.4924 1.327,-0.87 3.73,-5.0063 4.441,-7.6458 0.283,-1.056 0.912,-2.4291 1.395,-3.0527 0.483,-0.624 1.032,-1.7608 1.219,-2.5273 0.536,-2.1867 5.79,-11.2569 8.394,-14.4885 1.297,-1.6097 2.815,-3.8987 3.373,-5.0865 0.558,-1.188 1.431,-2.3823 1.94,-2.6544 0.508,-0.2715 1.341,-1.467 1.85,-2.6562 0.51,-1.1895 2.103,-3.5015 3.541,-5.139 1.437,-1.6376 2.619,-3.2751 2.625,-3.639 0.03,-1.8732 1.981,-4.6854 4.888,-7.044 2.689,-2.1822 3.179,-2.8208 3.461,-4.5092 0.347,-2.0769 3.556,-8.3691 4.792,-9.3946 0.401,-0.333 1.136,-1.404 1.634,-2.3795 0.498,-0.9765 1.768,-2.7714 2.823,-3.9898 1.054,-1.218 1.917,-2.3865 1.917,-2.5958 0,-0.2085 0.749,-1.3215 1.663,-2.4712 0.915,-1.1505 1.664,-2.3676 1.666,-2.7054 0.01,-1.4775 2.076,-4.4795 3.852,-5.6001 1.294,-0.8175 2.217,-1.9026 2.828,-3.3273 0.498,-1.1625 1.815,-3.3449 2.926,-4.8489 1.112,-1.5041 2.534,-3.8003 3.163,-5.1027 1.702,-3.5273 4.47,-7.3952 6.945,-9.7034 1.209,-1.128 2.199,-2.4166 2.199,-2.8645 0,-0.4485 0.625,-2.097 1.39,-3.6647 0.765,-1.5678 1.539,-3.4428 1.72,-4.1668 0.335,-1.335 2.033,-3.4007 3.832,-4.659 1.659,-1.161 5.656,-7.7654 11.081,-18.3096 1.772,-3.4425 3.558,-6.1331 5.217,-7.8581 3.14,-3.2649 6.553,-8.3926 7.546,-11.3403 0.818,-2.4264 3.04,-5.7039 5.369,-7.9216 0.808,-0.7695 1.468,-1.7492 1.468,-2.1774 0,-1.8378 1.626,-5.2847 3.565,-7.5561 1.149,-1.347 3.381,-4.8578 4.959,-7.8026 1.579,-2.9446 3.621,-6.4255 4.54,-7.7351 0.92,-1.3095 2.412,-3.4715 3.317,-4.8038 0.906,-1.332 2.144,-2.7517 2.753,-3.154 0.609,-0.402 1.485,-1.8153 1.948,-3.1397 0.997,-2.8539 4.106,-5.8599 7.75,-7.4916 1.32,-0.591 2.691,-1.425 3.047,-1.8532 0.565,-0.681 0.388,-0.999 -1.415,-2.5505 -1.134,-0.975 -2.611,-2.1283 -3.284,-2.5636 -1.463,-0.945 -5.662,-4.9196 -6.964,-6.5904 -0.51,-0.6555 -1.785,-1.8194 -2.833,-2.5877 -1.047,-0.768 -4.512,-3.9831 -7.698,-7.1437 -3.187,-3.1608 -6.541,-6.4286 -7.455,-7.2618 -2.718,-2.4797 -4.942,-9.6606 -3.706,-11.9696 0.373,-0.699 0.397,-1.623 0.07,-3.0462 -0.509,-2.2618 0.15,-3.8757 1.784,-4.3954 1.149,-0.3645 8.745,2.6943 11.23,4.5217 1.048,0.771 2.24,1.404 2.647,1.4055 1.627,0.01 10.236,6.6768 14.026,10.8683 3.558,3.9366 9.626,9.4147 11.216,10.1266 1.178,0.5265 2.532,1.7474 3.617,3.2576 0.954,1.3275 2.065,2.4151 2.468,2.4151 1.257,0 3.849,1.8822 4.873,3.5399 0.54,0.873 1.675,1.8606 2.524,2.1951 0.849,0.3345 2.187,1.068 2.973,1.63 0.786,0.5625 2.393,1.296 3.572,1.6314 1.375,0.3915 2.995,1.4205 4.524,2.8719 4.337,4.1207 9.298,7.2038 12.609,7.8368 0.91,0.174 2.45,0.867 3.422,1.5414 0.972,0.6735 2.692,1.4295 3.822,1.6813 1.13,0.2505 3.447,1.278 5.15,2.2826 1.703,1.005 3.846,1.9621 4.763,2.1282 0.916,0.1665 2.524,0.903 3.571,1.6368 1.049,0.7335 3.379,1.8088 5.179,2.3883 1.801,0.579 4.461,1.9035 5.912,2.9424 1.45,1.0395 3.154,1.8889 3.785,1.8889 0.632,0 2.901,0.4215 5.043,0.936 6.61,1.5896 9.979,2.2878 12.705,2.6327 1.44,0.183 3.798,0.831 5.238,1.4415 7.142,3.0263 17.89,1.8707 20.145,-2.1662 0.506,-0.906 1.431,-2.254 2.056,-2.9964 0.625,-0.7425 1.135,-1.5454 1.135,-1.7844 0,-0.2385 1.071,-1.618 2.382,-3.0642 1.309,-1.446 2.381,-3.0259 2.381,-3.5104 0,-1.212 1.793,-3.7454 4.654,-6.5763 1.41,-1.395 2.594,-3.0746 2.868,-4.0673 0.257,-0.93 1.439,-3.2916 2.627,-5.2485 1.188,-1.9567 2.401,-4.4529 2.695,-5.547 0.347,-1.29 1.508,-3.0624 3.302,-5.0413 1.521,-1.6785 3.352,-4.2971 4.069,-5.8187 0.717,-1.5217 1.619,-3.1203 2.005,-3.5523 0.385,-0.432 0.987,-1.8709 1.338,-3.1975 0.439,-1.6646 1.389,-3.2775 3.065,-5.2053 1.757,-2.0196 2.757,-3.7554 3.611,-6.266 1.178,-3.4627 2.465,-5.9043 6.917,-13.1206 1.293,-2.0955 2.493,-4.6254 2.667,-5.622 0.428,-2.4447 1.942,-4.5233 4.209,-5.777 1.179,-0.6525 2.005,-1.5132 2.219,-2.3142 0.187,-0.702 0.771,-1.9749 1.296,-2.8299 0.525,-0.855 1.745,-3.4833 2.711,-5.8407 0.966,-2.3574 2.153,-5.0364 2.637,-5.953 1.415,-2.6796 3.185,-7.6892 3.511,-9.9323 0.165,-1.1415 0.616,-2.6838 1.002,-3.4291 0.385,-0.7455 0.7,-1.565 0.7,-1.8213 0,-0.2565 -1.231,-0.7065 -2.738,-0.999 -1.506,-0.2925 -4.371,-1.2795 -6.366,-2.1933 -1.995,-0.9135 -4.958,-1.8747 -6.584,-2.1366 -1.642,-0.264 -4.081,-1.11 -5.485,-1.9028 -1.39,-0.7845 -4.048,-1.7436 -5.907,-2.1312 -1.931,-0.402 -4.343,-1.3155 -5.626,-2.1291 -1.236,-0.783 -2.837,-1.425 -3.558,-1.425 -2.416,0 -6.082,-1.0155 -7.749,-2.1466 -0.907,-0.6165 -2.681,-1.26 -3.941,-1.431 -3.493,-0.4725 -5.321,-1.158 -6.981,-2.6151 -0.832,-0.7305 -3.148,-1.8777 -5.147,-2.5485 -1.998,-0.6705 -5.662,-2.1935 -8.141,-3.3834 -2.479,-1.1895 -4.866,-2.1635 -5.305,-2.1635 -1.369,0 -4.052,-1.3275 -5.212,-2.5795 -1.334,-1.44 -8.497,-4.2135 -10.689,-4.1393 -2.122,0.075 -4.53,-1.0065 -6.046,-2.7073 -0.942,-1.0575 -1.836,-1.4895 -3.559,-1.7175 -1.266,-0.168 -3.069,-0.8265 -4.006,-1.4625 -0.938,-0.636 -2.515,-1.3035 -3.506,-1.482 -2.23,-0.402 -3.289,-0.93 -5.205,-2.594 -0.825,-0.7155 -2.861,-1.7433 -4.524,-2.2825 -4.64,-1.5038 -6.422,-2.343 -8.127,-3.8277 -0.861,-0.75 -2.53,-1.8146 -3.709,-2.3667 -1.179,-0.552 -2.69,-1.4505 -3.36,-1.9956 -0.669,-0.546 -2.705,-1.386 -4.524,-1.8668 -4.956,-1.311 -8.773,-3.1933 -11.166,-5.5048 -2.083,-2.0124 -2.237,-2.0732 -5.477,-2.1608 -1.833,-0.045 -3.599,-0.06 -3.923,-0.03 -0.758,0.075 -4.181,6.8973 -4.594,9.1644 -0.174,0.951 -0.909,2.5587 -1.635,3.572 -1.447,2.0206 -3.167,5.815 -4.177,9.2166 -0.357,1.203 -1.723,3.5721 -3.035,5.2645 -1.313,1.6925 -2.696,3.9831 -3.075,5.0903 -0.379,1.107 -1.21,2.7145 -1.849,3.5718 -0.639,0.858 -1.529,2.7552 -1.978,4.2174 -0.449,1.4625 -1.281,3.4084 -1.848,4.3252 -0.567,0.9165 -1.46,2.3814 -1.984,3.2544 -0.524,0.873 -1.62,2.3556 -2.435,3.2946 -0.814,0.939 -1.92,2.7072 -2.456,3.9293 -0.535,1.2225 -1.555,2.6028 -2.265,3.0682 -0.709,0.465 -1.673,1.7376 -2.14,2.8271 -0.482,1.125 -1.806,2.7645 -3.061,3.7935 -1.362,1.116 -2.673,2.7861 -3.411,4.3467 -0.66,1.3935 -1.898,3.1281 -2.751,3.8539 -0.854,0.726 -2.498,2.7129 -3.653,4.4156 -1.155,1.7025 -3.332,4.4394 -4.839,6.0819 -1.507,1.6423 -3.071,3.6247 -3.474,4.4052 -0.404,0.78 -1.035,1.419 -1.404,1.419 -0.369,0 -1.155,0.696 -1.747,1.5477 -0.593,0.852 -2.75,3.3301 -4.795,5.5086 -2.045,2.1783 -3.718,4.2033 -3.718,4.4997 0,0.297 -0.978,1.9968 -2.173,3.7783 -1.501,2.2376 -2.475,3.2394 -3.148,3.2394 -1.266,0 -3.232,-1.8759 -3.245,-3.0957 -0.01,-1.3905 2.427,-8.8483 3.353,-10.2393 0.936,-1.4055 2.832,-6.3859 2.832,-7.4364 0,-0.4035 1.147,-3.3546 2.549,-6.5586 1.403,-3.204 2.706,-6.6702 2.898,-7.7025 0.192,-1.032 0.746,-2.6271 1.23,-3.5437 0.485,-0.9165 1.013,-2.6648 1.173,-3.8843 0.221,-1.6714 1.164,-3.5473 3.834,-7.62 1.947,-2.9715 3.95,-6.2769 4.45,-7.3452 0.499,-1.068 1.759,-2.6758 2.798,-3.5719 2.37,-2.0424 3.453,-4.122 3.453,-6.6299 0,-2.2351 0.808,-4.0302 2.549,-5.6557 0.666,-0.6225 1.343,-1.7303 1.504,-2.4623 0.16,-0.732 1.639,-2.91 3.286,-4.84 2.121,-2.4852 3.095,-4.0598 3.34,-5.396 0.19,-1.038 0.91,-2.851 1.603,-4.0297 0.691,-1.179 1.83,-3.3437 2.53,-4.8111 0.722,-1.512 1.945,-3.1463 2.824,-3.7722 1.088,-0.774 2.194,-2.469 3.7,-5.6666 1.182,-2.5092 2.551,-5.0811 3.041,-5.7153 0.49,-0.6345 1.131,-2.1061 1.425,-3.2707 0.292,-1.1655 1.219,-3.0161 2.057,-4.1142 1.044,-1.368 1.606,-2.7168 1.782,-4.2846 0.345,-3.0668 1.5,-4.4651 5.411,-6.5544 2.483,-1.3275 3.868,-1.7625 5.667,-1.7823 3.209,-0.03 8.171,1.5355 9.809,3.1057 l 1.335,1.2795 2.563,-2.6248 c 3.781,-3.8729 6.072,-8.9027 8.624,-18.9393 3.28,-12.8975 3.623,-15.2426 3.64,-24.9368 0.01,-7.2486 0.12,-8.506 0.642,-7.8129 1.08,1.422 1.284,0.2985 0.252,-1.3725 -0.761,-1.23 -1.016,-2.5504 -1.124,-5.8078 -0.08,-2.319 -0.364,-4.9454 -0.637,-5.8364 -0.702,-2.2801 -1.169,-7.8463 -1.677,-19.9557 -0.12,-2.7075 -0.521,-5.3851 -1.013,-6.6675 -0.453,-1.179 -1.123,-3.3399 -1.489,-4.8025 -0.366,-1.4625 -1.01,-3.4815 -1.43,-4.4862 -0.859,-2.0585 -0.657,-6.1626 0.582,-11.7633 0.776,-3.5054 1.885,-5.2523 4.045,-6.3692 1.107,-0.573 1.383,-1.0035 1.268,-1.974 -0.135,-1.182 -0.29,-1.2435 -3.068,-1.2825 -2.589,-0.03 -3.228,-0.2535 -5.657,-1.9267 -3.293,-2.2682 -8.12,-8.5568 -8.557,-11.147 -0.18,-1.0635 0,-2.5333 0.444,-3.8145 0.405,-1.146 0.736,-2.8282 0.736,-3.738 0,-4.2645 2.838,-6.7986 7.613,-6.7986 2.862,0 2.964,-0.045 2.659,-1.071 -0.174,-0.5895 -0.478,-2.1486 -0.675,-3.4648 -0.198,-1.317 -0.523,-2.6577 -0.723,-2.981 -0.763,-1.2345 0.165,-2.4838 1.846,-2.4838 0.883,0 1.739,-0.2145 1.901,-0.4755 0.436,-0.705 3.004,-0.5775 4.451,0.222 0.694,0.384 3.407,1.6803 6.026,2.8801 2.62,1.2 5.406,2.7995 6.191,3.5547 0.786,0.7545 2.548,1.9319 3.916,2.615 1.368,0.6825 2.654,1.5016 2.858,1.8189 0.324,0.504 4.691,3.6727 5.061,3.6727 0.07,0 0,-1.0185 -0.174,-2.2623 -0.307,-2.2153 -1.078,-4.3036 -2.895,-7.8333 -0.498,-0.969 -0.906,-2.3157 -0.906,-2.9934 0,-0.678 -0.297,-1.7067 -0.66,-2.2869 -0.363,-0.5805 -0.926,-2.1996 -1.248,-3.5989 -0.324,-1.3995 -1.079,-3.4352 -1.679,-4.5243 -0.6,-1.089 -1.361,-2.9446 -1.691,-4.1233 -0.33,-1.179 -0.885,-2.4816 -1.233,-2.895 -0.348,-0.414 -0.632,-1.059 -0.632,-1.4355 0,-0.3765 -0.453,-1.8594 -1.006,-3.2963 -1.573,-4.083 -1.643,-5.1234 -0.435,-6.4089 l 1.056,-1.1235 -1.301,-0.852 c -0.715,-0.468 -1.581,-1.5049 -1.925,-2.3026 -0.344,-0.798 -1.727,-2.6292 -3.074,-4.0698 -1.347,-1.44 -2.753,-3.3159 -3.126,-4.1673 -0.374,-0.852 -0.836,-1.5447 -1.029,-1.541 -0.194,0 -0.941,1.0755 -1.661,2.3816 -1.002,1.8178 -1.309,3.0183 -1.309,5.1198 0,1.7107 -0.323,3.3708 -0.857,4.4052 -0.738,1.4295 -1.714,4.9159 -2.683,9.5844 -0.524,2.5243 -2.99,2.1808 -4.488,-0.6255 -0.561,-1.0515 -1.021,-2.4815 -1.021,-3.177 0,-0.696 -0.429,-2.3921 -0.953,-3.7701 -0.523,-1.3785 -0.952,-3.3603 -0.952,-4.4054 0,-1.0455 -0.218,-1.8997 -0.483,-1.8997 -0.266,0 -0.89,-0.669 -1.386,-1.4865 -0.66,-1.086 -0.99,-2.8487 -1.226,-6.5484 -0.232,-3.6624 -0.646,-5.8926 -1.495,-8.0634 -1.023,-2.6133 -1.164,-3.6894 -1.101,-8.3345 0.07,-5.7751 -0.494,-12.5752 -1.142,-13.5801 -0.222,-0.345 -0.469,-7.7503 -0.55,-16.4569 -0.15,-15.7856 -0.15,-15.8387 -1.373,-18.746 -1.778,-4.2264 -2.518,-11.074 -1.549,-14.3389 0.647,-2.1789 0.653,-2.7029 0.05,-4.4291 -0.379,-1.077 -0.69,-3.3174 -0.69,-4.9789 0,-2.1518 -0.291,-3.5787 -1.009,-4.9589 -0.849,-1.6287 -0.954,-2.3713 -0.66,-4.6581 0.819,-6.364 -0.05,-16.4436 -1.839,-21.2941 -0.677,-1.8336 -1.235,-3.9626 -1.241,-4.7312 -0.02,-1.9852 1.717,-5.3082 4.032,-7.7241 1.832,-1.9125 2.169,-2.0703 4.41,-2.0703 2.757,0 4.804,1.326 5.815,3.7658 0.319,0.7725 1.413,1.9543 2.43,2.6269 2.363,1.5642 3.352,3.5102 3.628,7.1385 0.12,1.5947 0.762,6.1905 1.422,10.2131 0.661,4.0225 1.111,8.0938 1,9.0471 -0.105,0.954 0.08,2.679 0.431,3.8347 0.348,1.155 0.633,2.9711 0.633,4.034 0,1.0635 0.358,2.8729 0.798,4.0224 0.655,1.7148 0.708,2.5273 0.298,4.5255 -0.274,1.3425 -0.328,2.9763 -0.12,3.6409 0.312,0.9915 0.716,6.5126 1.373,18.8267 0.05,0.786 0.15,5.1792 0.231,9.7632 0.135,7.5886 0.265,8.6325 1.393,11.668 1.259,3.3887 1.596,6.9053 0.852,8.8988 -0.241,0.648 -0.135,5.8176 0.264,12.5325 l 0.675,11.43 1.78,1.6756 c 0.98,0.921 2.479,2.691 3.333,3.9321 0.876,1.2735 2.367,2.6721 3.422,3.2106 1.029,0.525 2.199,1.5887 2.6,2.3642 0.4,0.7755 1.135,1.6278 1.634,1.894 0.498,0.267 1.513,1.533 2.257,2.8149 1.257,2.1647 4.952,5.778 5.91,5.778 0.231,0 0.757,0.654 1.171,1.4535 0.414,0.7995 1.071,1.8179 1.461,2.2623 5.143,5.855 7.39,8.8848 7.181,9.6824 -0.156,0.594 0.12,1.0875 0.794,1.449 1.404,0.7485 2.186,1.8535 2.204,3.1183 0,0.669 0.505,1.3125 1.347,1.7479 0.78,0.4035 1.913,1.7954 2.738,3.3635 1.479,2.8131 1.766,3.3096 3.422,5.9362 2.176,3.4529 -1.398,4.4307 -5.1,1.395 -0.911,-0.747 -1.994,-1.3575 -2.407,-1.3575 -0.413,0 -1.781,-0.6525 -3.039,-1.4505 -2.68,-1.6992 -3.943,-1.6315 -2.063,0.105 0.714,0.6615 1.625,1.9847 2.023,2.9391 0.399,0.954 0.932,1.7354 1.185,1.7354 0.254,0 0.923,0.9105 1.487,2.0239 0.564,1.113 1.86,3.024 2.878,4.2462 1.019,1.2225 2.095,2.9367 2.393,3.81 0.297,0.873 1.141,2.2817 1.874,3.1295 0.733,0.8475 1.57,2.4552 1.86,3.5719 0.888,3.419 2.36,7.1055 3.329,8.3375 0.507,0.6435 1.061,1.9533 1.23,2.9089 0.17,0.9555 0.792,2.2734 1.383,2.9283 1.448,1.6034 2.144,3.038 2.144,4.4169 0,0.63 0.639,2.3052 1.42,3.7223 0.782,1.4175 1.425,3.1122 1.433,3.7671 0,0.6555 0.438,1.8334 0.958,2.6193 l 0.947,1.4295 v -1.2705 c 0,-0.699 -0.432,-2.2844 -0.963,-3.5241 -1.137,-2.6537 -1.8,-5.12 -2.403,-8.9427 -0.242,-1.5308 -0.869,-3.3855 -1.392,-4.1217 -0.536,-0.753 -0.953,-2.1014 -0.953,-3.0821 0,-0.9585 -0.229,-2.1726 -0.51,-2.6965 -0.28,-0.5235 -0.691,-1.9566 -0.913,-3.1835 -0.222,-1.227 -0.732,-3.1948 -1.134,-4.3735 -1.684,-4.9322 -1.902,-6.123 -1.265,-6.8903 0.966,-1.1655 2.251,-0.8535 3.56,0.8625 0.668,0.876 1.215,1.811 1.215,2.0777 0,0.267 0.635,1.284 1.41,2.2596 0.776,0.9765 1.863,2.988 2.415,4.4707 0.552,1.4835 1.503,3.2319 2.113,3.8868 1.618,1.7376 3.107,4.3772 3.109,5.5128 0,0.543 0.565,1.5081 1.252,2.1432 0.689,0.6345 1.858,2.4941 2.6,4.1312 0.772,1.7068 1.649,2.9766 2.054,2.9766 1.194,0 1.272,-0.7815 0.215,-2.1267 -0.645,-0.819 -1.134,-2.3525 -1.347,-4.2231 -0.255,-2.2331 -0.966,-4.136 -2.964,-7.9377 -1.446,-2.7504 -2.88,-5.7785 -3.188,-6.729 -0.309,-0.951 -0.981,-2.109 -1.496,-2.5742 -0.514,-0.465 -0.934,-1.08 -0.934,-1.3665 0,-0.2865 -0.612,-1.8138 -1.359,-3.3933 -0.747,-1.5795 -1.508,-3.8658 -1.69,-5.0808 -0.182,-1.215 -0.642,-2.4664 -1.022,-2.7811 -0.379,-0.315 -1,-1.5647 -1.381,-2.7774 -1.839,-5.8593 -2.143,-6.4364 -5.462,-10.3964 -0.483,-0.5759 -1.014,-1.7734 -1.18,-2.6608 -0.167,-0.888 -1.019,-2.452 -1.895,-3.477 -0.876,-1.0245 -1.758,-2.3992 -1.961,-3.054 -0.202,-0.6555 -1.06,-1.8678 -1.904,-2.6952 -0.845,-0.828 -1.663,-2.1133 -1.818,-2.8575 -0.154,-0.744 -1.15,-2.3943 -2.211,-3.667 -1.094,-1.311 -1.93,-2.8166 -1.93,-3.4736 0,-0.6375 -0.75,-3.1623 -1.667,-5.61 -0.916,-2.4477 -1.667,-4.8207 -1.667,-5.2731 0,-0.453 -0.358,-1.8324 -0.796,-3.0664 -0.438,-1.2345 -0.659,-2.6024 -0.491,-3.0405 0.491,-1.2795 2.647,-0.972 4.101,0.5835 0.969,1.038 1.594,1.3215 2.519,1.1445 2.358,-0.4515 2.929,0.2055 6.921,7.9519 0.607,1.179 1.279,2.4645 1.492,2.8575 0.213,0.393 0.8,1.5716 1.302,2.6193 0.759,1.5821 1.122,1.8809 2.14,1.7625 1.399,-0.1635 2.357,1.0515 5.614,7.1184 1.075,2.0031 2.705,4.7826 3.623,6.1767 0.918,1.3935 1.918,3.2912 2.221,4.2159 0.303,0.9255 1.058,2.4842 1.674,3.4652 0.617,0.9809 1.358,2.9098 1.645,4.2862 0.51,2.439 1.114,3.6348 1.595,3.1537 0.135,-0.135 0.03,-0.9675 -0.226,-1.8594 -0.569,-1.9842 0.271,-3.1153 1.993,-2.6833 0.826,0.207 1.702,1.4385 3.374,4.7389 1.242,2.4522 2.258,4.8201 2.258,5.2617 0,0.441 0.537,1.2705 1.194,1.8414 0.669,0.5805 1.547,2.205 1.995,3.6878 0.441,1.4565 1.074,2.9788 1.407,3.3816 0.333,0.4035 1.632,2.8182 2.886,5.3677 3.058,6.2172 4.49,8.9181 5.532,10.4373 0.479,0.6975 0.933,2.0504 1.008,3.0054 0.135,1.7166 2.166,4.5837 2.171,3.0659 0,-0.879 -2.138,-8.0042 -3.358,-11.1786 -0.504,-1.3095 -1.134,-3.5411 -1.401,-4.9587 -0.267,-1.419 -1.043,-3.3072 -1.724,-4.2008 -1.722,-2.2567 -1.958,-4.6911 -0.726,-7.4749 0.547,-1.2375 1.032,-3.3932 1.078,-4.7915 0.08,-2.1348 -0.157,-2.9058 -1.417,-4.8084 -0.825,-1.2465 -1.501,-2.832 -1.501,-3.5239 0,-0.771 -0.545,-1.779 -1.407,-2.6062 -1.501,-1.4385 -3.985,-8.1725 -4.455,-12.0807 -0.135,-1.1325 -0.803,-2.8584 -1.479,-3.8355 -0.677,-0.978 -1.235,-2.301 -1.238,-2.9418 0,-0.6405 -0.567,-3.0939 -1.252,-5.4513 -1.502,-5.1674 -1.876,-7.772 -1.212,-8.436 1.012,-1.0125 2.879,0.12 5.068,3.0769 1.212,1.6377 2.838,3.7079 3.613,4.6002 0.775,0.8925 1.408,1.8572 1.408,2.1438 0,0.2865 1.179,1.7777 2.62,3.3134 1.441,1.5357 2.619,3.0688 2.619,3.4072 0,0.339 0.696,1.467 1.548,2.51 0.852,1.0425 1.927,2.509 2.391,3.2596 0.464,0.75 1.59,2.4071 2.501,3.6809 0.91,1.2735 1.656,2.7571 1.656,3.2962 0,0.5385 0.368,1.386 0.818,1.8836 2.426,2.6803 4.874,7.784 4.887,10.1861 0,1.1925 0.304,2.2092 0.756,2.5847 1.335,1.1085 2.22,3.361 1.916,4.8799 -0.183,0.918 -0.05,1.715 0.375,2.1963 0.845,0.9645 2.202,5.6795 2.202,7.65 0,0.8295 0.53,2.4114 1.176,3.5147 1.226,2.0901 2.796,8.3806 2.371,9.4903 -0.135,0.351 0.186,1.5902 0.714,2.7525 0.583,1.2855 0.963,3.1452 0.969,4.7459 0,1.449 0.306,3.0546 0.667,3.5718 1.127,1.6114 2.255,6.9153 1.931,9.0774 -0.192,1.2765 -0.08,2.397 0.324,3.1185 0.344,0.6195 0.668,2.5191 0.723,4.2217 0.06,1.7025 0.338,4.2743 0.629,5.715 0.291,1.44 0.96,6.0483 1.486,10.2393 0.527,4.191 1.146,8.3702 1.374,9.287 0.588,2.3511 1.455,10.6515 1.467,14.0493 0,1.5717 0.243,4.3576 0.527,6.1912 0.789,5.0976 0.933,9.3656 0.339,10.0814 -0.29,0.3495 -1.139,0.6345 -1.886,0.6345 -1.677,0 -3.051,-1.8333 -2.63,-3.51 0.207,-0.8265 -0.105,-1.6287 -1.155,-2.9484 -0.792,-0.9975 -1.325,-2.1173 -1.181,-2.4896 0.371,-0.9675 -0.693,-4.339 -1.982,-6.2836 -0.605,-0.912 -1.1,-2.3586 -1.1,-3.2147 0,-0.8565 -0.229,-1.5562 -0.508,-1.5562 -0.287,0 -0.38,0.4035 -0.213,0.9285 0.373,1.1775 -0.971,3.8338 -1.941,3.8338 -1.119,0 -2.576,-0.9105 -2.576,-1.6099 0,-0.3435 -0.429,-1.011 -0.953,-1.4865 -0.523,-0.474 -0.952,-1.2195 -0.952,-1.655 0,-0.4365 -0.75,-1.6693 -1.667,-2.7403 -0.917,-1.071 -1.667,-2.3861 -1.667,-2.922 0,-0.5355 -0.523,-1.7453 -1.162,-2.6868 -0.639,-0.942 -1.4,-2.8596 -1.691,-4.262 -0.528,-2.541 -2.603,-5.9242 -3.654,-5.9572 -1.128,-0.03 -3.018,-2.9169 -3.018,-4.6019 0,-1.5724 -1.128,-4.4641 -1.741,-4.4641 -0.527,0 0.379,6.8575 1.258,9.5197 0.477,1.443 1.242,4.5006 1.702,6.7937 0.68,3.3862 0.732,4.5144 0.285,6.0084 -0.666,2.2213 -0.711,4.1928 -0.105,4.5667 0.587,0.363 0.501,8.4201 -0.09,9.1874 -0.6,0.7695 -3.035,0.771 -3.534,0 -0.211,-0.327 -0.814,-1.8804 -1.338,-3.4529 -0.873,-2.6209 -1.17,-2.9845 -3.572,-4.368 -4.821,-2.7775 -5.46,-3.2575 -6.423,-4.8283 -0.527,-0.8595 -2.089,-3.2145 -3.47,-5.2329 -1.381,-2.0184 -2.909,-4.2735 -3.396,-5.0115 -0.486,-0.738 -1.03,-2.4525 -1.207,-3.81 -0.305,-2.3235 -0.581,-3.3371 -2.684,-9.8501 -0.465,-1.44 -0.978,-3.5728 -1.14,-4.7382 -0.345,-2.4855 -3.742,-9.675 -3.982,-8.4289 -0.09,0.4545 0.08,1.4925 0.356,2.3059 0.283,0.813 0.516,1.9908 0.516,2.6171 0,0.627 0.421,1.7196 0.937,2.4292 0.516,0.7095 1.076,2.1777 1.244,3.2621 0.25,1.6227 0.12,2.1493 -0.701,2.9766 -0.552,0.5535 -1.264,1.005 -1.582,1.005 -0.318,0 -1.71,-1.218 -3.095,-2.7063 l -2.519,-2.7062 v 1.9319 c 0,1.062 0.33,2.8678 0.734,4.0117 0.846,2.3964 2.248,14.2496 2.031,17.1675 -0.09,1.2675 -0.451,2.1555 -1.003,2.4935 -0.719,0.4395 -1.161,0.201 -2.739,-1.4805 -1.119,-1.1925 -1.881,-2.4722 -1.881,-3.1563 0,-0.633 -0.315,-1.413 -0.702,-1.7333 -0.385,-0.321 -0.835,-1.2975 -0.999,-2.1702 -0.163,-0.873 -0.708,-1.9585 -1.207,-2.4115 -0.501,-0.453 -1.226,-1.8876 -1.613,-3.1881 -0.387,-1.3005 -0.891,-2.6046 -1.123,-2.8985 -0.233,-0.294 -0.677,-1.6237 -0.989,-2.9557 -0.312,-1.332 -1.036,-2.8623 -1.61,-3.4007 -4.612,-4.3279 -8.113,-8.4378 -9.646,-11.3226 -0.975,-1.8336 -2.355,-3.9766 -3.068,-4.7625 -0.714,-0.786 -1.542,-2.1591 -1.839,-3.0517 -0.299,-0.8925 -0.944,-1.9041 -1.433,-2.2475 -0.49,-0.3435 -1.242,-1.6966 -1.671,-3.007 -0.429,-1.311 -1.312,-3.1688 -1.964,-4.1294 -1.41,-2.077 -1.551,-4.2423 -0.32,-4.9014 0.893,-0.4785 1.853,-0.013 4.325,2.097 1.17,0.9975 1.214,1.0455 3.116,3.3338 1.073,1.2915 1.19,1.332 1.203,0.4305 0.01,-1.035 1.373,-2.574 2.27,-2.574 0.641,0 0.336,-1.2375 -1.302,-5.292 -1.411,-3.4929 -4.521,-7.5668 -5.777,-7.5668 -0.447,0 -1.812,-0.429 -3.034,-0.9525 -1.223,-0.5235 -2.803,-0.9525 -3.512,-0.9525 -0.727,0 -2.934,-1.038 -5.059,-2.3803 -3.904,-2.4651 -5.36,-3.1356 -5.817,-2.6787 -0.321,0.321 0.991,2.4594 2.518,4.1065 0.608,0.654 1.428,1.9683 1.826,2.919 0.397,0.951 1.263,2.3715 1.924,3.1577 1.421,1.6879 3.927,7.036 4.8,10.2411 0.339,1.248 1.191,2.962 1.89,3.81 2.256,2.733 4.526,7.075 4.526,8.6581 0,0.954 0.529,2.225 1.416,3.3951 0.778,1.029 1.552,2.5697 1.72,3.4239 0.168,0.8535 0.495,1.6706 0.728,1.814 0.232,0.15 0.427,0.8385 0.432,1.5426 0,0.705 0.514,2.7115 1.131,4.4592 0.616,1.7478 1.024,3.6895 0.904,4.3152 -0.135,0.681 0.09,1.389 0.536,1.7623 0.414,0.3435 0.753,1.2435 0.753,2.0015 0,0.7575 0.255,1.7853 0.567,2.2843 0.448,0.717 0.427,1.074 -0.09,1.707 -1.182,1.4235 -5.232,0.204 -5.232,-1.5765 0,-0.405 -0.318,-1.089 -0.707,-1.5177 -0.798,-0.882 -2.731,-4.2063 -3.853,-6.6246 -0.849,-1.8295 -3.958,-6.1615 -5.108,-7.1161 -0.684,-0.567 -0.735,-0.4425 -0.49,1.191 0.15,1.0035 0.696,3.1743 1.215,4.8241 0.583,1.8569 0.834,3.5825 0.657,4.5302 -0.185,0.984 0.06,2.463 0.666,4.1374 0.523,1.434 0.952,2.7554 0.952,2.9369 0,0.7815 -1.599,1.8267 -2.793,1.8267 -1.12,0 -1.369,0.2715 -1.832,2.0083 -0.468,1.7543 -0.386,2.4624 0.655,5.5959 0.963,2.901 1.14,4.1687 0.926,6.6243 -0.189,2.1581 0.01,4.2942 0.715,7.382 0.842,3.7276 0.992,6.144 1.059,17.0041 l 0.08,12.6591 -1.305,1.886 c -1.264,1.8268 -1.287,1.972 -0.73,4.6288 0.645,3.0729 0.276,4.5755 -2.711,11.0295 -1.216,2.6301 -1.601,4.203 -1.824,7.4526 -0.271,3.9633 -1.119,6.9401 -2.415,8.4843 -0.337,0.402 -0.889,1.6962 -1.227,2.8751 -0.337,1.179 -1.228,2.9209 -1.981,3.8716 l -1.368,1.7286 0.981,1.248 c 0.765,0.972 1.399,1.248 2.875,1.248 2.402,0 4.322,0.99 5.881,3.0342 0.988,1.2975 1.639,1.6533 3.369,1.8483 1.179,0.135 2.943,0.78 3.919,1.4385 0.976,0.6585 2.549,1.4415 3.496,1.7396 0.946,0.2985 2.864,1.3965 4.263,2.4399 1.398,1.044 3.41,2.124 4.471,2.4013 1.06,0.2775 2.678,0.9915 3.594,1.5855 0.917,0.594 2.51,1.239 3.54,1.431 1.031,0.192 3.388,1.113 5.239,2.0453 3.395,1.7101 8.013,3.4677 9.11,3.4677 0.327,0 1.188,-1.0125 1.912,-2.2482 1.293,-2.2055 1.308,-2.3183 0.783,-5.9178 -0.535,-3.6783 -0.264,-5.9726 0.87,-7.3392 0.483,-0.582 1.675,-7.8248 2.112,-12.8318 0.447,-5.1163 0.894,-8.178 1.311,-8.9866 0.561,-1.086 1.722,-8.4492 2,-12.6827 0.228,-3.4591 1.388,-8.3392 2.222,-9.3436 1.369,-1.6503 2.916,-0.03 3.69,3.8667 0.261,1.3095 0.803,3.2385 1.205,4.2862 0.402,1.047 0.741,2.8901 0.753,4.094 0.01,1.2045 0.36,2.8696 0.775,3.7014 0.512,1.026 0.656,2.0944 0.449,3.3244 -0.209,1.233 0,2.7132 0.63,4.6329 0.514,1.5516 1.071,3.7854 1.234,4.9643 0.164,1.179 0.525,3.2146 0.803,4.5243 0.277,1.3095 0.684,4.7386 0.903,7.62 0.219,2.8813 0.544,6.3231 0.721,7.6485 0.395,2.9353 -0.786,10.3086 -2.14,13.369 -0.522,1.182 -1.083,3.1521 -1.246,4.3799 -0.368,2.7682 0.456,3.6804 3.91,4.3356 1.31,0.249 2.688,0.5175 3.063,0.6 0.888,0.192 1.186,-3.4014 0.457,-5.4941 -0.382,-1.098 -0.372,-2.449 0.05,-5.0713 0.623,-3.9648 1.326,-5.5193 4.466,-9.8729 1.176,-1.6306 2.337,-3.8509 2.58,-4.9341 0.243,-1.083 0.987,-2.5381 1.654,-3.2334 0.666,-0.6945 1.52,-2.1181 1.899,-3.1621 1.335,-3.6851 2.758,-6.4755 4.073,-7.9883 0.732,-0.8415 1.478,-2.3296 1.657,-3.3069 0.223,-1.215 0.813,-2.1487 1.868,-2.9529 1.063,-0.8115 1.727,-1.867 2.138,-3.4041 0.328,-1.2255 1.03,-2.7898 1.561,-3.4765 0.531,-0.687 1.597,-2.1591 2.37,-3.2724 1.453,-2.0949 2.746,-2.555 3.756,-1.3365 0.446,0.537 0.395,1.5501 -0.234,4.6435 -0.442,2.1761 -0.988,5.7689 -1.213,7.9839 -0.225,2.2152 -0.552,4.3583 -0.728,4.7625 -0.175,0.4035 -0.472,2.4495 -0.66,4.545 -0.187,2.0955 -0.568,4.4529 -0.847,5.2388 -0.689,1.9465 -1.528,5.275 -1.98,7.8582 -0.207,1.179 -0.941,4.2561 -1.632,6.8386 -0.692,2.5826 -1.254,5.2614 -1.251,5.9531 0.01,2.5402 -3.004,9.1884 -5.318,11.722 l -2.216,2.4264 1.978,1.155 c 1.919,1.1205 4.987,2.3655 8.407,3.4107 0.917,0.2805 2.432,0.8985 3.366,1.374 0.935,0.4755 3.473,1.107 5.641,1.404 2.168,0.297 4.45,0.7335 5.071,0.969 1.401,0.5325 1.603,0.2265 1.965,-2.976 0.19,-1.681 0.733,-3.1332 1.645,-4.3914 0.749,-1.0335 1.362,-2.1718 1.362,-2.5288 0,-0.357 1.043,-1.7613 2.316,-3.1208 1.274,-1.359 2.573,-2.9658 2.888,-3.5694 0.333,-0.639 2.005,-1.7733 3.995,-2.7118 2.926,-1.38 8.003,-5.2275 7.422,-5.6241 -0.105,-0.075 -0.833,-0.339 -1.619,-0.597 -1.893,-0.618 -2.032,-1.9446 -0.544,-5.1954 0.901,-1.9698 1.504,-2.6775 2.488,-2.9246 1.658,-0.4155 2.691,0.2355 3.308,2.0891 l 0.489,1.4685 1.119,-1.634 c 0.617,-0.8985 1.338,-1.6338 1.605,-1.6338 0.267,0 1.623,-1.233 3.014,-2.7385 2.224,-2.4078 2.747,-2.7384 4.335,-2.7384 1.795,0 1.808,-0.014 2.213,-2.3813 0.581,-3.3955 1.116,-4.6374 3.215,-7.4485 1.02,-1.368 1.855,-2.6522 1.855,-2.8545 0,-0.2025 -0.762,-0.729 -1.694,-1.1715 -0.931,-0.4425 -2.271,-1.566 -2.977,-2.4978 -0.705,-0.9315 -1.755,-2.2082 -2.332,-2.8365 -1.954,-2.1263 -2.698,-4.9733 -2.301,-8.7989 0.196,-1.8939 0.33,-4.2486 0.294,-5.2327 -0.03,-0.984 0.396,-2.8551 0.955,-4.1577 1.029,-2.3912 0.974,-3.8133 -0.15,-3.8193 -0.91,0 -2.594,-2.8307 -2.976,-4.9974 -0.185,-1.0485 -0.542,-2.8694 -0.792,-4.0481 -0.251,-1.179 -0.627,-3.1075 -0.836,-4.2862 -0.208,-1.179 -0.639,-2.6825 -0.957,-3.3417 -0.39,-0.81 -0.433,-1.5818 -0.135,-2.3813 0.333,-0.885 0.218,-1.6315 -0.46,-2.9679 -0.555,-1.098 -0.791,-2.2335 -0.612,-2.9494 0.16,-0.6405 0.12,-1.4355 -0.08,-1.7678 -0.548,-0.8865 -1.13,1.4805 -1.578,6.4151 -0.426,4.698 -1.15,6.0252 -2.808,5.1384 -0.532,-0.285 -1.11,-1.161 -1.282,-1.9461 -0.455,-2.0688 -1.193,-2.2499 -1.193,-0.2925 0,1.9488 -1.453,3.1551 -2.628,2.1805 -0.942,-0.7815 -3.087,-4.5472 -3.087,-5.419 0,-0.4035 -0.297,-1.437 -0.661,-2.2965 -1.982,-4.6859 -3.149,-8.1674 -3.149,-9.3926 0,-1.6881 -0.426,-2.8869 -1.027,-2.8869 -0.248,0 -0.401,1.0755 -0.339,2.3909 0.135,2.8701 -0.483,3.7191 -2.143,2.9628 -0.8,-0.3645 -1.406,-1.3035 -1.972,-3.059 -0.45,-1.3935 -1.083,-2.9614 -1.409,-3.4854 -0.325,-0.5235 -0.831,-2.3229 -1.125,-3.9976 -0.294,-1.6749 -0.915,-3.4655 -1.38,-3.9791 -0.495,-0.546 -0.868,-1.7536 -0.901,-2.9079 -0.03,-1.086 -0.497,-3.0457 -1.035,-4.3554 -0.909,-2.2131 -1.407,-3.9565 -3.262,-11.43 -0.39,-1.5715 -0.943,-3.6076 -1.228,-4.5243 -0.287,-0.9165 -0.596,-3.2658 -0.689,-5.22 -0.135,-2.887 -0.402,-3.8902 -1.414,-5.3512 -1.208,-1.7418 -1.239,-1.9719 -1.034,-7.3479 0.168,-4.4043 0.04,-6.0639 -0.609,-8.0396 -0.451,-1.3695 -0.948,-4.0719 -1.102,-6.0058 -0.411,-5.1291 -1.239,-13.8801 -1.392,-14.708 -0.321,-1.7464 -1.49,-5.0635 -2.014,-5.715 -0.316,-0.393 -0.694,-1.3575 -0.841,-2.1432 -0.15,-0.786 -0.507,-2.3931 -0.8,-3.5718 -0.292,-1.179 -0.723,-3.3219 -0.957,-4.7625 -0.232,-1.44 -0.906,-3.6511 -1.497,-4.9119 -0.829,-1.7715 -0.955,-2.4816 -0.553,-3.1242 0.571,-0.9165 -0.36,-3.8701 -1.221,-3.8701 -0.254,0 -0.693,-0.696 -0.974,-1.5479 -0.282,-0.852 -1.263,-2.1463 -2.18,-2.8778 -0.918,-0.732 -1.669,-1.6499 -1.669,-2.0408 0,-1.0035 -1.345,-3.006 -3.376,-5.0211 -0.955,-0.948 -2.126,-2.77 -2.602,-4.048 -0.476,-1.278 -1.469,-3.0278 -2.206,-3.8882 -0.737,-0.861 -1.34,-1.9593 -1.34,-2.442 0,-0.483 -0.298,-1.125 -0.663,-1.428 -0.364,-0.303 -0.948,-1.2405 -1.294,-2.0823 -0.348,-0.843 -1.443,-2.8179 -2.436,-4.3896 -0.992,-1.5715 -2.038,-3.3933 -2.323,-4.048 -0.285,-0.6555 -0.818,-1.8336 -1.184,-2.6195 -1.236,-2.6596 -3.054,-8.0862 -3.054,-9.1147 0,-0.8595 0.806,-1.6008 1.742,-1.6008 0.552,0 5.878,5.44 5.878,6.0031 0,0.3405 0.881,1.326 1.957,2.1897 1.082,0.8685 2.551,2.7413 3.285,4.1897 0.73,1.44 1.993,3.1078 2.806,3.7051 0.813,0.597 1.477,1.4205 1.477,1.829 0,0.4095 0.932,1.849 2.07,3.2005 1.139,1.3515 2.826,4.0646 3.75,6.0291 0.924,1.9644 2.124,3.969 2.666,4.4547 0.541,0.486 1.128,1.557 1.302,2.3813 0.174,0.8235 0.691,1.927 1.15,2.4508 1.406,1.6061 3.226,5.5353 4.303,9.2869 0.564,1.9644 1.33,4.5209 1.703,5.6807 0.374,1.1595 0.678,2.4988 0.678,2.9754 0,0.9615 2.429,6.3033 3.995,8.787 0.553,0.8775 1.542,1.7184 2.197,1.8679 1.98,0.4515 2.585,0.9555 2.889,2.4038 0.309,1.4745 2.914,6.5781 3.979,7.7961 0.351,0.402 0.78,1.194 0.952,1.7595 0.173,0.5655 0.606,1.272 0.963,1.5684 0.704,0.5835 0.663,0.3495 -0.915,-5.2163 -0.439,-1.5496 -0.709,-4.1754 -0.663,-6.4294 0.05,-2.0955 -0.171,-5.5245 -0.477,-7.62 -0.306,-2.0955 -0.667,-6.584 -0.804,-9.9743 -0.15,-3.5962 -0.477,-6.4403 -0.798,-6.8272 -0.303,-0.3645 -1.369,-0.9915 -2.372,-1.392 -1.002,-0.4005 -2.299,-1.3275 -2.884,-2.0589 -0.585,-0.732 -2.264,-2.3007 -3.733,-3.4872 -1.469,-1.1865 -3.037,-2.929 -3.484,-3.8722 -0.447,-0.9435 -1.711,-2.6175 -2.807,-3.7205 -1.374,-1.383 -2.334,-2.9826 -3.092,-5.1508 -1.05,-3.0047 -3.092,-6.2759 -6.243,-10.0002 -1.685,-1.991 -3.348,-5.4356 -3.363,-6.965 0,-0.609 -0.538,-1.4055 -1.249,-1.8726 -0.681,-0.447 -1.763,-1.6416 -2.403,-2.6554 -0.924,-1.464 -1.365,-1.7796 -2.141,-1.5333 -1.925,0.6105 -5.075,-1.1235 -7.157,-3.9413 -1.071,-1.449 -2.998,-3.7962 -4.283,-5.2152 -1.285,-1.419 -2.463,-3.2125 -2.617,-3.9855 -0.291,-1.452 -0.821,-1.7913 -1.382,-0.8835 -0.177,0.2865 -1.03,0.4395 -1.894,0.3375 l -1.573,-0.183 -0.05,4.7918 c -0.06,6.9159 -1.233,10.8664 -3.934,13.2061 -1.131,0.9795 -2.962,2.1345 -4.068,2.5667 -1.106,0.432 -2.124,1.1415 -2.262,1.5751 -0.135,0.4335 -1.39,1.9145 -2.782,3.2897 -5.294,5.2287 -8.718,3.6831 -14.45,-6.5238 -1.991,-3.5448 -2.35,-5.8703 -1.356,-8.7917 0.717,-2.109 0.72,-2.4667 0.03,-4.1769 -0.798,-1.993 -0.915,-4.7041 -0.339,-7.804 0.243,-1.3065 0.09,-2.8781 -0.482,-5.0006 -0.976,-3.6175 -1.793,-6.8029 -2.26,-8.8107 l -0.333,-1.4295 -0.834,1.263 c -0.513,0.777 -0.935,2.6093 -1.095,4.7625 -0.15,1.925 -0.669,4.6334 -1.167,6.0183 -0.498,1.3845 -0.906,3.2306 -0.906,4.1013 0,3.8939 -4.949,11.2794 -8.93,13.326 -1.171,0.603 -1.548,1.1115 -1.549,2.0933 0,2.6086 -3.254,6.7744 -5.286,6.7744 -1.514,0 -3.285,-1.9203 -3.285,-3.5623 0,-0.579 -0.422,-1.434 -0.936,-1.8992 -1.091,-0.9855 -1.97,-3.3403 -3.152,-8.4324 -1.057,-4.5573 -0.549,-6.8424 1.971,-8.8404 1.015,-0.8055 1.845,-2.0011 2.139,-3.0807 0.726,-2.6737 2.591,-4.59 5.078,-5.2162 l 2.15,-0.5415 -0.324,-2.8619 c -0.178,-1.5739 -0.862,-4.2748 -1.522,-6.0021 -1.248,-3.2709 -1.258,-3.8355 -0.207,-10.5222 0.299,-1.8925 0.216,-3.4785 -0.292,-5.715 -0.387,-1.7026 -0.675,-4.2744 -0.638,-5.715 0.203,-7.7205 -0.09,-12.3745 -0.943,-15.3321 -0.546,-1.8808 -0.548,-3.1644 -0.01,-8.0962 0.351,-3.2237 0.6,-7.79 0.552,-10.1474 -0.05,-2.3574 -0.07,-5.0364 -0.07,-5.953 0,-0.9165 0,-5.096 0,-9.287 0,-5.1673 0.201,-8.3281 0.651,-9.8203 0.53,-1.7601 0.564,-3.1895 0.173,-7.1438 -0.605,-6.0939 -0.614,-7.6944 -0.06,-10.4202 0.241,-1.179 0.31,-3.6433 0.153,-5.4769 -0.426,-4.9386 0.438,-19.3539 1.212,-20.2364 0.615,-0.7005 1.606,-6.6979 1.96,-11.8573 0.09,-1.4115 0.501,-3.9833 0.898,-5.715 0.398,-1.7319 0.78,-3.6627 0.849,-4.2908 0.164,-1.4685 1.513,-2.3641 2.565,-1.7007 0.87,0.549 2.269,3.0809 2.887,5.2239 0.756,2.6181 1.34,1.476 1.583,-3.0955 0.195,-3.6785 0.475,-4.9697 1.5,-6.9057 1.663,-3.1421 3.258,-4.5744 5.152,-4.6284 0.84,-0.03 1.641,-0.3375 1.779,-0.6975 0.135,-0.36 0.65,-0.867 1.137,-1.128 1.148,-0.615 2.812,0.9465 2.812,2.6383 0,0.7575 0.876,2.1536 2.429,3.8673 3.862,4.2644 5.036,7.2654 5.439,13.9029 0.186,3.0641 0.649,6.3213 1.03,7.2381 0.44,1.0575 0.735,3.7019 0.812,7.2281 0.105,5.2264 0.201,5.6853 1.485,7.62 1.571,2.3695 1.977,5.3469 1.302,9.5361 -0.407,2.5219 -0.321,2.9953 1.2,6.663 1.36,3.2812 1.588,4.318 1.347,6.1375 -0.192,1.4535 -0.05,2.8958 0.46,4.2908 0.413,1.155 0.866,3.6015 1.008,5.4351 0.243,3.1389 1.193,6.217 3.452,11.1919 0.535,1.179 0.978,2.9304 0.984,3.8927 0.03,4.1482 2.128,11.9353 4.094,15.1573 0.879,1.44 1.73,3.5837 1.892,4.7625 0.162,1.179 0.795,3.1074 1.406,4.2863 0.61,1.179 1.252,3.0003 1.425,4.048 0.172,1.047 0.553,2.5479 0.847,3.3338 0.573,1.536 3.792,6.147 4.672,6.6904 0.294,0.1815 1.122,1.6439 1.839,3.2493 l 1.305,2.919 0.801,-1.5436 c 0.44,-0.849 0.687,-2.0279 0.548,-2.6195 -0.351,-1.4925 0.424,-8.5849 1.314,-12.0294 0.406,-1.5715 0.868,-3.4429 1.026,-4.1584 0.157,-0.7155 0.888,-2.0015 1.621,-2.8575 0.734,-0.8565 1.827,-2.7353 2.429,-4.1759 0.603,-1.44 1.338,-2.9202 1.636,-3.288 0.315,-0.3885 0.544,-2.5137 0.55,-5.0803 0.01,-4.2045 0.08,-4.5125 1.548,-6.5531 0.846,-1.1775 1.538,-2.3331 1.538,-2.5677 0,-0.234 0.732,-1.6425 1.627,-3.1287 0.896,-1.4865 1.892,-3.5097 2.215,-4.4964 0.323,-0.987 1.266,-2.5908 2.096,-3.5647 0.83,-0.9735 2.321,-3.6527 3.314,-5.9531 0.993,-2.3004 2.091,-4.5067 2.439,-4.9029 0.575,-0.6525 1.166,-2.634 1.891,-6.3355 0.303,-1.547 2.593,-2.7605 4.516,-2.3931 1.114,0.213 1.194,0.09 1.246,-1.8293 0.03,-1.131 0.618,-3.3106 1.305,-4.8433 0.687,-1.5327 1.334,-3.6983 1.439,-4.8125 0.295,-3.1633 2.049,-5.9739 3.728,-5.9739 1.046,0 2.283,2.5421 2.283,4.6889 0,1.6521 1.271,3.0244 1.662,1.7941 0.135,-0.423 0.352,-1.1085 0.483,-1.5259 0.135,-0.417 -0.08,-1.986 -0.468,-3.4871 -0.758,-2.9233 -0.524,-4.6426 0.931,-6.8641 0.686,-1.047 0.786,-2.3421 0.674,-8.7519 -0.09,-5.0235 0.05,-7.8584 0.418,-8.5316 0.303,-0.555 0.536,-2.1886 0.519,-3.6315 -0.03,-2.8927 0.537,-4.3566 2.012,-5.1456 1.157,-0.6195 2.34,0.12 2.34,1.47 0,0.4695 0.242,0.9345 0.537,1.0335 0.482,0.1605 1.248,3.179 1.509,5.9345 0.06,0.5685 0.552,1.5328 1.107,2.1432 0.726,0.798 1.086,1.9887 1.284,4.2325 0.172,1.9658 0.735,4.0428 1.521,5.6058 1.048,2.0862 1.249,3.1287 1.258,6.5214 0,2.2209 0.207,4.0382 0.446,4.0382 0.238,0 0.435,-1.152 0.435,-2.5589 0,-1.5774 0.39,-3.4404 1.017,-4.857 0.9,-2.0359 0.975,-2.7628 0.651,-6.3708 -0.53,-5.8926 -0.363,-8.2075 0.666,-9.2365 0.822,-0.822 0.97,-0.8295 2.368,-0.105 1.191,0.615 1.491,1.0725 1.491,2.2689 0,0.8235 0.348,1.8822 0.772,2.3518 0.425,0.4695 0.951,1.8069 1.169,2.9718 0.217,1.1655 0.84,3.0626 1.381,4.2167 0.543,1.155 1.073,2.7745 1.176,3.6007 0.105,0.8265 0.528,1.9845 0.941,2.574 0.412,0.5895 0.751,1.6592 0.751,2.3769 0,0.7185 0.429,2.3927 0.953,3.7218 0.523,1.329 0.952,2.9613 0.952,3.6273 0,0.666 0.513,2.5332 1.142,4.1496 0.627,1.6163 1.263,4.3841 1.41,6.1508 0.15,1.7665 0.529,3.6954 0.847,4.2862 0.318,0.591 0.728,1.8243 0.912,2.7411 0.659,3.2852 1.549,6.4665 2.422,8.6607 0.603,1.5158 0.888,3.4394 0.888,5.9976 0,2.5917 0.309,4.6436 0.988,6.5793 0.743,2.1129 0.93,3.524 0.749,5.6699 -0.197,2.3382 -0.06,3.1477 0.748,4.4574 1.512,2.446 1.899,0.9945 1.238,-4.6421 -0.542,-4.6116 -0.521,-4.8832 0.528,-7.1235 1.029,-2.1969 1.047,-2.3965 0.31,-3.5206 -0.429,-0.6555 -0.769,-1.8087 -0.754,-2.5629 0.273,-14.3699 0.615,-18.7775 1.654,-21.2643 0.591,-1.4145 0.578,-1.9722 -0.12,-4.5477 -0.657,-2.4546 -0.691,-3.2877 -0.21,-5.0894 0.348,-1.3035 0.576,-5.5077 0.576,-10.6462 0,-7.622 0.09,-8.5727 0.872,-9.2801 1.757,-1.5907 3.415,-0.471 3.415,2.3075 0,0.69 0.216,1.6579 0.481,2.1525 0.266,0.495 0.612,2.2485 0.771,3.8977 0.159,1.6491 0.581,3.4641 0.935,4.0332 0.354,0.5685 0.859,3.3032 1.122,6.0755 0.262,2.7723 1.035,7.1287 1.715,9.6808 0.794,2.9739 1.302,6.3003 1.416,9.2628 0.105,2.9132 0.431,5.0265 0.863,5.715 0.619,0.9885 1.171,4.9541 1.52,10.9239 0.08,1.2165 0.49,3.4547 0.931,4.974 0.501,1.7226 0.696,3.4901 0.521,4.6943 -0.228,1.5561 0,2.4868 1.149,4.789 1.198,2.3933 1.431,3.423 1.432,6.3375 0,1.914 0.242,4.4309 0.534,5.5931 0.437,1.7323 0.389,2.5503 -0.262,4.5421 -0.636,1.9458 -0.701,2.918 -0.32,4.8846 0.882,4.5605 1.139,12.0534 0.522,15.1961 -0.489,2.4903 -0.468,3.3636 0.12,5.3566 l 0.711,2.3813 0.561,-2.0486 c 0.599,-2.1837 1.588,-2.9308 2.838,-2.1432 1.121,0.7065 3.379,7.17 3.384,9.687 0,1.2135 0.422,2.9807 0.957,4.0298 0.524,1.0275 0.953,2.7813 0.953,3.8971 0,1.116 0.504,3.1674 1.119,4.559 1.281,2.8972 2.045,8.8927 1.308,10.2691 -0.386,0.72 -0.179,1.32 1.02,2.9496 1.479,2.012 1.505,2.1402 1.578,7.8161 0.06,4.5519 0.258,6.1206 0.942,7.428 1.104,2.1114 1.11,5.4786 0.01,7.5757 -0.759,1.452 -0.787,1.9122 -0.246,4.166 0.495,2.0601 0.494,2.9124 0,4.5591 -0.357,1.1775 -0.674,5.238 -0.758,9.7029 -0.105,5.7321 -0.339,8.1445 -0.915,9.5209 -0.423,1.014 -0.766,3.024 -0.76,4.4669 0.05,10.9594 -0.639,25.8413 -1.226,26.7917 -0.12,0.1965 -0.732,0.3585 -1.357,0.3585 -1.314,0 -2.619,-1.6098 -2.619,-3.2329 0,-0.6135 -0.208,-1.5065 -0.465,-1.9836 -0.255,-0.477 -0.808,-3.5136 -1.23,-6.7476 -0.849,-6.5278 -1.89,-9.5098 -1.411,-4.0401 0.159,1.8063 0.537,4.2144 0.841,5.3514 0.77,2.8771 -0.12,9.6138 -1.715,13.0525 -0.666,1.431 -1.324,3.1566 -1.464,3.836 -0.259,1.2675 -2.416,3.7656 -3.25,3.7656 -0.256,0 -1.138,-0.7215 -1.959,-1.6031 -0.822,-0.882 -2.405,-2.1709 -3.52,-2.865 -2.484,-1.5474 -4.755,-4.5846 -5.157,-6.8992 -0.165,-0.951 -0.801,-2.4798 -1.413,-3.3965 -0.612,-0.9165 -1.332,-2.2536 -1.602,-2.9707 l -0.489,-1.3035 -2.276,1.2165 c -3.495,1.8672 -6.401,0.927 -8.233,-2.6634 -1.023,-2.0057 -1.877,-2.36 -2.854,-1.1835 -0.325,0.393 -1.102,0.714 -1.725,0.714 -0.622,0 -1.132,0.1875 -1.132,0.4185 0,0.5805 1.26,3.2997 2.452,5.2969 0.548,0.9165 1.398,2.9229 1.888,4.4582 0.491,1.5351 1.537,3.525 2.324,4.4218 0.788,0.897 1.433,2.055 1.433,2.5737 0,0.519 0.643,2.0825 1.428,3.4748 0.934,1.6569 1.429,3.1975 1.429,4.4589 0,1.2165 0.291,2.1681 0.792,2.5809 0.726,0.6 0.768,0.4365 0.513,-1.9658 -0.153,-1.4415 -0.636,-3.3213 -1.071,-4.179 -1.176,-2.3187 -1.933,-8.017 -1.185,-8.9187 1.13,-1.3605 2.38,-0.837 3.374,1.41 0.516,1.1685 1.111,2.2296 1.321,2.3594 0.21,0.135 0.989,1.6926 1.73,3.4726 0.741,1.7801 1.635,3.5748 1.986,3.9884 0.351,0.414 0.637,1.038 0.637,1.3875 0,0.3495 1.179,2.6107 2.62,5.025 1.44,2.4142 2.62,4.576 2.622,4.8039 0,0.228 0.966,2.3137 2.143,4.6353 1.178,2.3215 2.14,4.7431 2.14,5.3814 0,1.4205 0.869,3.1456 2.812,5.584 0.811,1.0185 1.474,2.3652 1.474,2.9933 0,0.6285 0.297,1.6165 0.662,2.1967 0.363,0.5805 0.81,1.9121 0.991,2.9598 0.182,1.047 0.743,3.1305 1.244,4.6284 0.502,1.4985 0.913,3.2706 0.913,3.9393 0,0.669 0.543,2.0354 1.206,3.0371 0.705,1.065 1.409,3.087 1.694,4.8714 0.269,1.6776 0.798,3.6724 1.176,4.4329 0.378,0.7605 0.687,1.6847 0.687,2.0537 0,1.0605 1.549,5.5819 2.02,5.8984 1.431,0.9615 5.982,4.7273 7.368,6.0977 0.902,0.891 2.812,2.5308 4.243,3.6423 3.025,2.3488 6.1,6.4345 7.464,9.9154 0.526,1.3425 1.137,4.371 1.357,6.7284 0.378,4.0442 0.713,6.4389 1.762,12.6207 0.492,2.9012 0.27,6.6596 -0.516,8.7351 -0.282,0.744 -0.565,3.3161 -0.628,5.715 -0.135,5.3376 -0.806,9.9266 -1.8,12.458 -0.412,1.0485 -0.762,3.4051 -0.78,5.2387 -0.03,3.4896 -2.254,10.9335 -4.297,14.3946 -0.523,0.888 -0.952,2.3589 -0.952,3.2691 0,2.2623 -1.164,4.8689 -3.063,6.8633 -0.873,0.9165 -1.854,2.524 -2.179,3.5718 -0.326,1.047 -1.413,2.9857 -2.419,4.3066 -1.158,1.5218 -2.349,3.9959 -3.25,6.7532 -0.781,2.3934 -1.979,5.451 -2.66,6.7948 -1.294,2.5538 -3.177,7.4591 -5.26,13.703 -1.526,4.5729 -8.774,18.6337 -13.125,25.4611 -4.338,6.8079 -5.071,8.3255 -5.608,11.6228 -0.251,1.5378 -0.683,3.3835 -0.959,4.1016 -0.276,0.7185 -0.384,1.6158 -0.238,1.995 0.15,0.3795 0.01,1.8661 -0.279,3.3045 -0.531,2.5558 -2.007,4.9539 -5.462,8.8731 -1.377,1.5627 -1.826,2.6413 -3.073,7.3818 -0.276,1.047 -1.439,2.9766 -2.585,4.2862 -1.272,1.455 -2.21,3.063 -2.409,4.1331 -0.32,1.7163 -1.499,3.2219 -4.43,5.6555 -1.058,0.8775 -1.563,1.8054 -1.817,3.3337 -0.507,3.0537 -1.436,4.5782 -3.628,5.9621 -1.326,0.837 -2.237,1.9186 -2.907,3.4501 -1.108,2.5389 -5.621,9.5847 -6.723,10.4993 -0.402,0.3345 -0.871,1.2435 -1.042,2.0218 -0.171,0.7785 -1.073,2.4125 -2.004,3.6323 -0.931,1.2195 -2.085,3.1053 -2.565,4.1899 -1.269,2.8668 -3.871,7.0698 -5.593,9.0314 -0.824,0.9375 -1.826,2.4915 -2.228,3.4533 -0.402,0.9615 -1.907,3.3124 -3.346,5.2234 -1.438,1.9109 -3.33,5.0271 -4.205,6.9249 -0.875,1.8978 -2.257,4.0748 -3.071,4.8378 -0.862,0.8085 -2.009,2.7731 -2.747,4.7048 -0.698,1.8246 -2.184,4.4418 -3.303,5.8159 -1.119,1.374 -2.385,3.1743 -2.812,4.0003 -0.427,0.8265 -1.723,2.3922 -2.879,3.4803 -1.534,1.4445 -2.397,2.8152 -3.195,5.0781 -0.723,2.0501 -1.835,3.9156 -3.283,5.5091 -1.205,1.3245 -2.757,3.3145 -3.451,4.4211 -0.693,1.107 -1.842,2.3925 -2.551,2.8575 -1.299,0.852 -6.661,1.5246 -14.43,1.8105 -1.965,0.075 -4.429,0.3615 -5.477,0.6435 -3.031,0.8145 -8.252,0.6285 -12.071,-0.429 -2.443,-0.6765 -4.152,-0.8745 -5.738,-0.6645 -1.728,0.2295 -3.148,0.013 -6.036,-0.918 -2.078,-0.669 -5.348,-1.668 -7.268,-2.2182 -2.797,-0.801 -3.901,-1.4115 -5.557,-3.0665 l -2.066,-2.0659 -1.248,1.302 c -0.687,0.717 -1.465,2.0919 -1.732,3.0567 -0.267,0.9645 -1.12,2.4778 -1.896,3.3621 -0.777,0.8835 -1.703,2.5749 -2.058,3.7569 -0.674,2.2396 -4.478,7.6042 -5.951,8.3925 -0.953,0.51 -3.514,5.4837 -4.27,8.29 -0.491,1.8228 -3.853,7.3976 -5.071,8.4083 -0.351,0.291 -0.788,1.428 -0.972,2.5261 -0.446,2.6655 -2.613,6.8819 -4.892,9.5154 -1.188,1.3725 -1.962,2.8146 -2.154,4.0109 -0.199,1.248 -0.856,2.4264 -1.982,3.5518 -1.083,1.083 -1.902,2.5169 -2.294,4.0169 -0.336,1.2825 -1.563,3.9061 -2.73,5.8288 -1.165,1.9227 -2.692,4.5582 -3.391,5.8565 -0.699,1.299 -2.682,3.9367 -4.407,5.8633 -2.576,2.8784 -3.311,4.0845 -4.125,6.7643 -0.544,1.7937 -1.5,4.0476 -2.123,5.0086 -0.624,0.9615 -1.275,2.3541 -1.449,3.0957 -0.4,1.7118 -4.738,9.8577 -5.652,10.6164 -0.378,0.3135 -0.94,1.3575 -1.248,2.319 -0.307,0.9615 -1.068,2.43 -1.691,3.2639 -0.623,0.834 -1.131,1.7206 -1.131,1.9705 0,0.2505 -0.717,1.497 -1.592,2.7704 -0.876,1.2735 -1.865,3.1473 -2.2,4.1637 -0.335,1.017 -1.304,2.6239 -2.153,3.5719 -0.849,0.948 -1.986,2.7345 -2.528,3.9699 -1.494,3.4077 -3.834,6.5519 -5.694,7.6491 -1.666,0.984 -3.916,4.8095 -3.926,6.678 0,1.254 -1.326,3.6048 -3.411,6.0792 -1.008,1.1955 -1.832,2.4063 -1.832,2.6906 0,0.285 -0.774,1.6635 -1.721,3.0649 -0.947,1.401 -1.993,3.4436 -2.324,4.5378 -0.332,1.0935 -1.049,2.6138 -1.592,3.3767 -0.543,0.7635 -1.456,2.6391 -2.028,4.1695 -0.728,1.9443 -1.807,3.5417 -3.582,5.3028 -1.398,1.386 -2.678,3.1151 -2.847,3.8421 -0.168,0.7275 -1.138,2.6226 -2.155,4.2125 -1.017,1.59 -1.849,3.3537 -1.849,3.9195 0,1.7649 -1.428,4.7001 -2.944,6.051 -0.8,0.7125 -2.179,2.8659 -3.066,4.7863 -0.888,1.9206 -1.836,3.6291 -2.107,3.797 -0.272,0.168 -1.014,1.1295 -1.65,2.1366 -0.636,1.008 -1.985,2.6517 -2.997,3.654 -1.366,1.353 -1.928,2.37 -2.18,3.9465 -0.188,1.1685 -0.836,2.7741 -1.442,3.5688 -0.606,0.795 -1.802,2.8377 -2.657,4.5403 -0.857,1.7025 -1.951,3.6545 -2.433,4.3377 -0.481,0.6825 -1.393,2.8692 -2.025,4.8581 -0.739,2.3283 -1.917,4.6396 -3.309,6.4908 -1.188,1.5813 -3.342,5.2888 -4.786,8.2389 -1.843,3.7671 -3.265,5.9766 -4.776,7.4224 -2.421,2.3163 -4.136,5.9634 -3.23,6.8694 0.989,0.9885 0.585,2.1668 -1.846,5.3786 -1.317,1.7407 -2.912,4.1833 -3.542,5.4279 -1.271,2.5062 -2.516,3.5107 -5.297,4.2717 -1.025,0.2805 -2.934,1.3665 -4.244,2.4129 -3.044,2.4334 -5.316,3.4926 -10.777,5.0254 -1.214,0.3405 -2.863,0.96 -3.667,1.3755 -1.569,0.8115 -5.099,0.894 -11.584,0.2745 z m -7.536,-21.4545 c 0.332,-0.801 1.376,-2.034 2.32,-2.7384 2.168,-1.6176 2.583,-2.1378 4.168,-5.2251 0.746,-1.452 2.359,-3.427 3.815,-4.6716 1.992,-1.7013 2.676,-2.6671 3.244,-4.5786 0.396,-1.332 1.338,-3.4093 2.095,-4.6152 0.756,-1.206 1.523,-2.8234 1.704,-3.5943 0.18,-0.771 1.354,-2.6997 2.608,-4.2862 2.714,-3.4328 3.143,-4.2248 3.57,-6.5855 0.214,-1.1865 0.894,-2.317 2.006,-3.3337 3.686,-3.3702 5.415,-5.394 5.415,-6.3386 0,-0.5445 0.55,-2.0454 1.222,-3.334 0.672,-1.2885 2.053,-4.3388 3.068,-6.7784 1.038,-2.4936 2.587,-5.2567 3.54,-6.3117 0.932,-1.032 1.695,-2.169 1.695,-2.5269 0,-0.3585 0.83,-1.6968 1.842,-2.9752 1.631,-2.0577 4.134,-7.0514 5.038,-10.0502 0.176,-0.582 1.139,-1.7608 2.141,-2.6194 1.491,-1.278 2.102,-2.3811 3.367,-6.0854 1.77,-5.1856 2.643,-6.7836 4.849,-8.8755 0.96,-0.9105 2.036,-2.7403 2.755,-4.6858 0.789,-2.1332 2.031,-4.1654 3.742,-6.1263 2.791,-3.198 3.208,-3.9548 3.637,-6.6005 0.159,-0.9825 0.997,-2.6139 1.897,-3.6906 0.887,-1.062 1.748,-2.5456 1.913,-3.2988 0.165,-0.753 0.834,-1.8699 1.485,-2.4817 0.651,-0.612 1.416,-2.034 1.7,-3.1601 0.337,-1.341 1.383,-3.0199 3.031,-4.8669 3.492,-3.9133 5.484,-6.9238 6.237,-9.4276 0.845,-2.8055 2.26,-5.0421 3.666,-5.7951 1.022,-0.546 3.205,-5.2626 4.372,-9.4395 0.339,-1.2135 3.079,-5.3435 5.076,-7.6491 0.745,-0.861 1.354,-2.0996 1.354,-2.7537 0,-2.1441 1.424,-4.6833 4.255,-7.5882 2.366,-2.4269 2.834,-3.1991 3.105,-5.1233 0.231,-1.6326 1.06,-3.3627 2.968,-6.1912 1.456,-2.1591 2.942,-4.7534 3.302,-5.7651 0.36,-1.0125 1.243,-2.514 1.965,-3.3383 2.112,-2.4118 4.287,-6.0996 4.845,-8.214 0.285,-1.0785 0.915,-2.4721 1.4,-3.0957 0.484,-0.624 1.147,-1.9485 1.471,-2.9442 0.326,-0.996 1.642,-3.1204 2.927,-4.7215 1.759,-2.1915 2.336,-3.3074 2.336,-4.515 0,-2.219 1.119,-4.6821 3.221,-7.0935 3.061,-3.5118 5.005,-6.5175 6.183,-9.5631 0.662,-1.7102 2.118,-4.0596 3.484,-5.6202 1.29,-1.4745 2.445,-3.1529 2.565,-3.7289 0.12,-0.576 0.452,-2.2227 0.737,-3.6592 0.294,-1.482 1.21,-3.6461 2.12,-5.0007 0.882,-1.314 1.745,-3.2195 1.919,-4.2348 0.36,-2.1033 3.619,-8.5154 5.233,-10.2981 1.035,-1.143 2.161,-3.7652 2.161,-5.0336 0,-0.333 -1.079,-0.9629 -2.396,-1.4009 -1.319,-0.438 -3.013,-1.3155 -3.768,-1.9497 -0.754,-0.6345 -2.194,-1.494 -3.199,-1.9094 -1.005,-0.4155 -2.15,-1.0185 -2.543,-1.3395 -0.393,-0.3225 -1.677,-0.8595 -2.852,-1.197 -1.176,-0.336 -2.76,-1.1355 -3.52,-1.7746 -0.761,-0.639 -2.692,-1.7684 -4.292,-2.5082 -1.716,-0.7935 -3.716,-2.2212 -4.876,-3.4801 -1.081,-1.1745 -2.534,-2.2776 -3.228,-2.4518 -0.693,-0.174 -2.452,-0.8805 -3.908,-1.57 l -2.648,-1.254 -1.144,1.3845 c -0.63,0.762 -1.235,1.8136 -1.346,2.3374 -0.105,0.5235 -0.459,2.2385 -0.774,3.81 -1.017,5.0768 -1.434,5.8934 -4.995,9.7712 -1.928,2.1 -3.606,4.1894 -3.729,4.6435 -0.12,0.4545 -0.354,1.4115 -0.513,2.127 -0.159,0.7155 -1.263,2.3973 -2.451,3.7362 -1.19,1.338 -2.672,3.588 -3.296,4.998 -1.107,2.5045 -2.706,4.81 -5.837,8.4201 -0.852,0.9825 -1.55,2.0812 -1.55,2.4405 0,0.36 -0.75,1.4715 -1.667,2.4729 -1.33,1.452 -1.667,2.2095 -1.668,3.7509 0,2.3259 -1.305,4.6197 -3.292,5.793 -0.888,0.525 -1.675,1.5243 -2.006,2.5486 -0.972,3.0113 -2.173,4.9721 -4.947,8.0811 -1.499,1.6794 -3.351,4.3565 -4.117,5.949 -2.403,5.0012 -4.059,7.8369 -5.604,9.596 -0.822,0.936 -1.987,2.7045 -2.589,3.93 -2.033,4.1352 -4.193,7.461 -5.549,8.5447 -0.755,0.603 -1.682,2.0723 -2.104,3.3338 -0.798,2.3845 -3.17,5.689 -5.269,7.3402 -0.692,0.5445 -1.751,2.0874 -2.354,3.4295 -0.603,1.3425 -1.787,3.0829 -2.63,3.8688 -1.937,1.8061 -2.876,3.5937 -2.876,5.4769 0,1.9578 -0.939,3.6494 -3.286,5.9217 -1.186,1.149 -2.232,2.769 -2.703,4.1883 -0.423,1.2735 -1.499,3.0233 -2.391,3.8895 -0.892,0.8655 -1.866,2.3033 -2.164,3.1937 -0.642,1.9167 -2.067,3.5992 -3.821,4.5121 -0.983,0.5115 -1.389,1.2255 -1.805,3.1695 -0.483,2.2553 -2.522,6.1721 -5.643,10.8383 -0.61,0.9135 -2.789,3.271 -4.84,5.2387 -2.052,1.9676 -3.887,4.1133 -4.079,4.7682 -0.852,2.9054 -3.212,6.7292 -5.16,8.3574 -1.776,1.4835 -2.134,2.0801 -2.338,3.8955 -0.287,2.5452 -1.397,4.1769 -4.069,5.987 -1.426,0.966 -2.103,1.8334 -2.458,3.1525 -0.27,1.0005 -0.905,2.3471 -1.413,2.9921 -0.507,0.645 -1.347,2.292 -1.868,3.6604 -0.985,2.5934 -3.013,5.3355 -6.855,9.2684 -1.246,1.2765 -2.39,2.8128 -2.541,3.4146 -0.151,0.6015 -1.891,2.5471 -3.867,4.3225 -2.04,1.8333 -3.897,3.9615 -4.296,4.9254 -0.387,0.933 -2.557,3.5504 -4.821,5.8151 -5.091,5.0934 -7.746,8.211 -8.481,9.9579 -0.31,0.738 -1.222,1.6816 -2.028,2.0982 -0.806,0.417 -1.466,0.963 -1.466,1.2135 0,0.6465 -7.438,8.605 -9.694,10.3723 -1.099,0.861 -0.975,1.5272 0.288,1.5395 3.239,0.03 7.243,3.4161 7.75,6.552 0.158,0.975 0.702,2.9161 1.209,4.3146 0.507,1.398 0.923,3.2761 0.923,4.1724 0,2.4493 1.819,5.8594 4.548,8.5249 2.709,2.6468 4.903,5.762 6.331,8.9921 0.698,1.576 1.454,2.3982 2.871,3.1213 1.224,0.6255 2.375,1.7501 3.163,3.0938 0.922,1.5733 1.625,2.1958 2.759,2.4408 2.106,0.4545 5.777,2.3647 8.64,4.4935 2.117,1.5746 5.657,3.1902 7.23,3.3003 0.295,0.015 0.81,-0.618 1.141,-1.4205 z m 28.91,-6.757 c 1.251,-2.2788 1.221,-3.3653 -0.06,-2.2977 -0.383,0.318 -0.831,1.1955 -0.998,1.9506 -0.166,0.756 -0.768,1.9728 -1.338,2.7055 l -1.036,1.332 1.096,-0.714 c 0.603,-0.393 1.656,-1.7322 2.339,-2.9761 z m 90.141,-156.0027 c 0,-0.552 -0.135,-0.5685 -0.714,-0.09 -0.393,0.3255 -0.708,1.0485 -0.699,1.606 0.01,0.993 0.03,0.9945 0.714,0.09 0.384,-0.5085 0.699,-1.2315 0.699,-1.6062 z m 40.679,-73.7375 c 0.438,-1.14 0.09,-1.227 -0.577,-0.15 -0.32,0.5115 -0.389,0.9315 -0.152,0.9315 0.236,0 0.564,-0.3525 0.729,-0.783 z m 12.396,-24.0885 c 0.942,-1.344 0.948,-2.2752 0.01,-2.2752 -0.653,0 -1.655,1.749 -1.655,2.8884 0,0.798 0.882,0.4695 1.639,-0.6135 z m 155.952,-144.9392 c 1.206,-2.0441 1.213,-2.1159 0.196,-2.1159 -1.093,0 -3.007,1.8717 -3.007,2.9404 0,1.5111 1.732,1.002 2.81,-0.825 z m -21.861,-6.1491 c 0,-0.426 -0.279,-0.5925 -0.714,-0.426 -0.393,0.1515 -0.714,0.465 -0.714,0.699 0,0.234 0.321,0.426 0.714,0.426 0.393,0 0.714,-0.315 0.714,-0.699 z m -17.145,-5.73 c 0,-0.393 -0.348,-0.714 -0.772,-0.714 -0.633,0 -0.666,0.135 -0.18,0.714 0.325,0.393 0.673,0.714 0.772,0.714 0.105,0 0.18,-0.321 0.18,-0.714 z m 36.671,-16.4306 c 0.329,-0.612 0.341,-0.9525 0.03,-0.9525 -0.262,0 -0.705,0.429 -0.985,0.9525 -0.329,0.612 -0.341,0.9525 -0.03,0.9525 0.262,0 0.705,-0.429 0.985,-0.9525 z m 6.15,-7.4673 c 1.367,-0.8955 2.09,-1.7841 2.421,-2.9766 0.999,-3.5932 0.393,-3.7842 -2.3,-0.7245 -1.867,2.1207 -3.289,4.9773 -2.479,4.9773 0.225,0 1.286,-0.5745 2.358,-1.2765 z m 6.697,-13.4877 c 0.467,-0.9165 0.99,-2.3224 1.163,-3.1236 0.172,-0.801 1.162,-2.8372 2.201,-4.5244 1.038,-1.6872 1.887,-3.3966 1.887,-3.7986 0,-0.402 0.429,-1.9503 0.952,-3.4409 0.612,-1.7397 0.953,-3.9309 0.953,-6.1198 v -3.41 l -0.953,1.2105 c -0.696,0.885 -0.952,1.932 -0.952,3.8895 0,2.861 -0.911,5.6063 -2.375,7.1661 -0.495,0.528 -1.139,2.0307 -1.43,3.3402 -0.291,1.3095 -1.171,3.1851 -1.957,4.1678 -1.456,1.8223 -2.796,5.3868 -2.805,7.4641 v 1.155 l 1.237,-1.155 c 0.681,-0.6345 1.619,-1.9047 2.085,-2.8213 z m 30.01,-49.7151 c -0.315,-0.5535 -1.301,-1.6161 -2.189,-2.3622 l -1.615,-1.356 v 1.416 c 0,0.7785 0.556,2.6753 1.237,4.2141 l 1.238,2.7977 0.951,-1.8519 c 0.783,-1.526 0.85,-2.0288 0.378,-2.8575 z m -18.859,-12.4789 c -0.152,-0.603 -0.03,-1.859 0.283,-2.7905 0.776,-2.3503 0.228,-4.3641 -1.458,-5.3598 -0.897,-0.5295 -1.392,-1.212 -1.392,-1.917 0,-0.6015 -0.567,-3.3954 -1.26,-6.2076 -0.693,-2.8122 -1.225,-6.2373 -1.183,-7.6113 0.05,-1.374 -0.248,-3.2754 -0.645,-4.2253 -0.398,-0.9495 -0.722,-2.6525 -0.722,-3.7833 0,-2.0253 -0.03,-2.0585 -1.754,-2.2041 -1.415,-0.12 -1.817,-0.381 -2.074,-1.3515 -0.175,-0.6615 -1.315,-2.9585 -2.532,-5.1032 -1.216,-2.1448 -2.212,-4.1484 -2.212,-4.4523 0,-0.501 -3.129,-8.6866 -3.686,-9.6421 -0.135,-0.219 -0.439,-0.192 -0.693,0.06 -0.297,0.297 -0.249,1.116 0.135,2.3037 0.327,1.014 0.741,4.5219 0.92,7.7962 0.178,3.2742 0.571,7.4111 0.873,9.1931 0.711,4.1887 1.591,12.6804 1.673,16.1266 0.03,1.4835 0.198,2.8322 0.361,2.9961 0.164,0.1635 0.971,-0.2685 1.793,-0.96 0.822,-0.693 1.805,-1.14 2.183,-0.9945 1.114,0.4275 3.136,4.0226 3.886,6.9117 0.382,1.476 1.239,3.863 1.902,5.3037 1.125,2.4465 1.705,4.7607 2.507,10.0034 0.577,3.7785 1.066,3.834 2.272,0.258 0.604,-1.794 0.975,-3.7478 0.822,-4.3521 z m -13.996,1.7103 c 0,-2.8631 -0.59,-3.7964 -1.128,-1.7861 -0.386,1.44 -0.375,3.9329 0.01,4.326 0.804,0.804 1.111,0.105 1.111,-2.5399 z m -44.452,-22.5029 c -0.135,-0.327 -0.24,-0.06 -0.24,0.5955 0,0.6555 0.105,0.9225 0.24,0.5955 0.135,-0.327 0.135,-0.8625 0,-1.191 z m 3.842,-38.1148 -0.763,-1.533 -0.03,2.1828 c -0.03,2.4999 0.46,3.3393 1.111,1.8814 0.315,-0.7065 0.222,-1.4475 -0.318,-2.5312 z m -38.407,-3.8264 c -0.371,-0.3705 -0.516,-0.177 -0.516,0.69 0,1.5704 0.667,2.2419 0.874,0.879 0.09,-0.579 -0.08,-1.2855 -0.357,-1.5693 z m 60.909,0.984 c 0,-0.327 -0.423,-1.5046 -0.927,-2.6161 -0.839,-1.848 -1.442,-4.2519 -2.358,-9.4092 -0.186,-1.047 -0.603,-2.3921 -0.926,-2.9873 -0.385,-0.711 -0.484,-2.0191 -0.288,-3.81 0.216,-1.974 0.09,-3.217 -0.454,-4.4983 -0.491,-1.1565 -0.755,-3.2225 -0.759,-5.9532 0,-3.9788 -0.483,-5.9934 -1.239,-5.2377 -0.191,0.1905 -0.09,1.7166 0.216,3.3918 0.624,3.3847 0.43,4.3935 -0.927,4.824 -1.167,0.3705 -2.995,-1.1445 -6.167,-5.1074 -1.323,-1.6531 -3.007,-3.4807 -3.743,-4.0614 -0.737,-0.5805 -1.598,-1.6833 -1.916,-2.4504 -0.318,-0.7665 -1.368,-2.0295 -2.333,-2.8053 l -1.755,-1.41 -0.07,10.0523 c -0.05,5.5287 -0.09,10.6786 -0.12,11.4444 -0.03,0.7665 0.169,1.6122 0.438,1.8811 0.268,0.2685 0.51,0.393 0.534,0.2745 0.03,-0.12 0.292,-3.429 0.595,-7.3581 l 0.551,-7.1437 h 1.185 c 0.811,0 1.374,0.3975 1.788,1.26 0.515,1.0755 2.646,10.8133 3.944,18.0277 0.588,3.263 0.914,3.81 2.276,3.81 1.265,0 3.904,2.1087 3.904,3.1196 0,0.5145 2.349,2.7652 6.295,6.0337 1.737,1.4385 2.283,1.6145 2.267,0.729 z m -23.978,-5.788 c -1.731,-2.5493 -2.065,-1.182 -0.464,1.8936 1.284,2.4654 1.362,2.5291 1.499,1.2225 0.09,-0.87 -0.291,-2.019 -1.035,-3.1169 z m -38.085,0.549 c -0.135,-0.327 -0.24,-0.06 -0.24,0.5955 0,0.654 0.105,0.9225 0.24,0.5955 0.135,-0.327 0.135,-0.8625 0,-1.191 z m -1.286,-4.2863 c 0,-0.5895 -0.322,-1.6074 -0.697,-2.2621 l -0.681,-1.191 -0.01,1.191 c -0.01,1.6537 0.481,3.3337 0.984,3.3337 0.231,0 0.412,-0.483 0.403,-1.071 z m 55.627,-39.687 c -0.651,-2.4384 -0.181,-4.4851 1.028,-4.4851 0.78,0 0.864,-0.267 0.64,-2.0241 -0.135,-1.113 -0.423,-2.3478 -0.625,-2.7435 -0.555,-1.0875 0.03,-3.327 1.033,-3.9531 0.809,-0.5055 0.549,-0.876 -2.902,-4.1519 -4.124,-3.9133 -5.077,-5.6032 -5.544,-9.8332 -0.235,-2.1273 -0.618,-3.1066 -1.646,-4.2024 -1.812,-1.9321 -2.479,-3.8941 -2.127,-6.253 0.261,-1.7456 0.135,-2.1272 -1.131,-3.3918 -0.783,-0.7845 -1.558,-2.0418 -1.722,-2.7957 -0.417,-1.9248 -1.732,-4.9425 -2.154,-4.9425 -0.552,0 -0.938,1.3485 -1.256,4.3912 -0.321,3.0735 -1.461,4.9809 -3.118,5.2209 -1.556,0.225 -2.049,3.1914 -1.037,6.2373 0.453,1.362 0.668,3.0308 0.513,3.9806 -0.15,0.921 0.05,2.5023 0.435,3.6211 0.386,1.092 0.59,2.2767 0.453,2.6325 -0.135,0.3555 0.05,1.2225 0.399,1.9262 0.356,0.7035 0.761,2.6725 0.899,4.3751 0.135,1.7025 0.513,3.7385 0.831,4.5243 l 0.579,1.428 0.868,-1.9954 c 0.711,-1.6364 1.209,-2.0979 2.769,-2.565 2.26,-0.678 3.103,-0.4305 3.956,1.161 0.76,1.419 4.11,6.4552 6.061,9.1137 0.77,1.047 1.537,2.7622 1.705,3.81 0.627,3.901 0.771,4.3275 1.205,3.5547 0.228,-0.408 0.18,-1.5497 -0.105,-2.6414 z m -124.917,-23.5604 c -0.794,-1.5356 -0.837,-1.5897 -4.505,-5.675 -2.784,-3.1015 -3.646,-2.9521 -1.23,0.213 0.935,1.224 1.828,2.7347 1.983,3.3555 0.293,1.1655 2.688,3.0974 4.373,3.5268 0.08,0.015 -0.207,-0.621 -0.621,-1.4205 z m 164.081,-3.3366 c 0,-0.8505 -0.198,-1.335 -0.475,-1.1625 -0.263,0.162 -0.477,0.8175 -0.477,1.4565 0,0.639 0.214,1.1625 0.477,1.1625 0.262,0 0.475,-0.6555 0.475,-1.4565 z m -0.96,-7.9491 c 0,-0.459 -0.214,-1.155 -0.469,-1.5477 -0.351,-0.5415 -0.464,-0.3405 -0.47,0.834 0,0.852 0.207,1.5478 0.47,1.5478 0.262,0 0.472,-0.375 0.469,-0.834 z m -66.468,-18.3143 c -1.119,-0.708 -2.28,-1.6731 -2.581,-2.1432 -0.522,-0.8145 -0.534,-0.813 -0.273,0.015 0.151,0.4815 0.417,1.7672 0.589,2.8575 0.173,1.0905 0.762,2.6703 1.308,3.5112 l 0.995,1.5287 0.997,-2.2431 0.998,-2.2431 z m -30.873,-38.1703 c -0.296,-1.5755 -1.466,-3.0948 -1.983,-2.5767 -0.135,0.135 0.231,1.2345 0.816,2.4385 1.209,2.4873 1.617,2.5358 1.167,0.135 z m 62.099,-6.1704 c 0,-0.474 -0.207,-0.729 -0.47,-0.567 -0.262,0.162 -0.472,0.8715 -0.469,1.5759 0,1.002 0.105,1.1265 0.469,0.567 0.254,-0.393 0.465,-1.1025 0.47,-1.5761 z m -113.968,-1.8471 c -0.151,-0.3795 -0.265,-0.267 -0.288,0.288 -0.02,0.5025 0.09,0.783 0.251,0.6255 0.157,-0.1575 0.175,-0.5685 0.05,-0.9135 z m 93.285,-3.7766 c -0.183,-1.8642 -0.679,-4.1145 -1.102,-5.0005 -0.786,-1.6491 -1.544,-2.1213 -1.544,-0.9615 0,0.7845 1.889,8.466 2.21,8.9848 0.609,0.984 0.741,0.075 0.436,-3.0222 z m -45.985,0.354 c 0,-0.36 -0.321,-1.5655 -0.714,-2.6791 -0.393,-1.1145 -0.722,-2.5872 -0.729,-3.2747 0,-0.687 -0.542,-2.3214 -1.187,-3.631 -0.687,-1.3965 -1.173,-3.2249 -1.176,-4.422 0,-1.8998 -0.07,-2.0052 -0.966,-1.5258 -0.529,0.2835 -1.129,0.4125 -1.332,0.2865 -0.204,-0.12 -0.616,-0.075 -0.916,0.105 -0.576,0.357 0.651,4.3389 2.665,8.6479 0.551,1.179 1.007,2.453 1.013,2.8319 0.01,0.8505 2.367,4.3119 2.933,4.3119 0.226,0 0.411,-0.294 0.411,-0.654 z m 20.206,-3.5127 c -0.303,-1.5963 0.33,-6.6946 1.701,-13.6921 0.564,-2.8814 1.011,-5.6673 0.992,-6.1913 -0.159,-4.344 0.12,-6.9078 1.27,-11.5042 1.335,-5.3552 1.546,-9.9258 0.44,-9.5571 -0.294,0.105 -1.236,1.5547 -2.096,3.2377 -0.86,1.6829 -1.764,3.3813 -2.011,3.7743 -0.246,0.393 -0.571,1.4925 -0.723,2.4449 -0.151,0.9525 -0.916,2.5591 -1.699,3.5719 -0.783,1.0125 -1.867,2.5299 -2.407,3.3716 -0.54,0.8415 -1.716,1.7955 -2.612,2.1196 -1.853,0.6705 -1.999,1.2195 -0.756,2.8343 0.481,0.6255 1.675,2.7205 2.654,4.6576 1.578,3.1214 1.783,3.9336 1.806,7.1438 0.03,3.2824 0.183,3.8785 1.699,6.3603 0.921,1.5061 1.746,2.7385 1.833,2.7385 0.09,0 0.05,-0.5895 -0.09,-1.3095 z m 79.766,-6.0721 c 0.01,-0.2625 -0.182,-0.1545 -0.435,0.2385 -0.254,0.393 -0.45,1.0365 -0.435,1.4295 0.03,0.7545 0.822,-0.765 0.871,-1.667 z m -148.55,-3.719 c 0,-0.3435 -0.289,-1.0185 -0.642,-1.5009 -0.87,-1.1895 -1.497,-0.135 -0.688,1.152 0.69,1.104 1.33,1.272 1.33,0.348 z m -0.267,-15.2464 c 0.332,-0.936 0.24,-1.7018 -0.349,-2.9376 -0.438,-0.9195 -1.001,-1.6713 -1.25,-1.6713 -0.847,0 -1.089,2.0008 -0.496,4.1154 0.643,2.2984 1.395,2.4756 2.095,0.4935 z m 88.185,-71.6313 c -0.485,-0.4845 -0.884,0.2445 -0.486,0.888 0.3,0.486 0.412,0.486 0.573,0 0.105,-0.33 0.08,-0.7305 -0.09,-0.8895 z m -74.444,356.4632 c -0.863,-1.1295 -2.52,-4.6746 -2.52,-5.3883 0,-0.393 -0.546,-1.7265 -1.213,-2.9619 -0.668,-1.236 -1.5,-2.7822 -1.851,-3.4369 -0.871,-1.6272 -1.761,-4.2332 -2.034,-5.9532 -0.12,-0.786 -1.037,-3.1433 -2.027,-5.2388 -0.99,-2.0955 -1.926,-4.4818 -2.078,-5.3029 -0.151,-0.8205 -0.823,-2.2977 -1.489,-3.2811 -0.669,-0.9855 -1.214,-2.4656 -1.214,-3.2961 0,-0.8505 -0.507,-2.1947 -1.162,-3.0843 -1.244,-1.6854 -2.171,-5.138 -2.171,-8.0826 0,-2.288 1.577,-6.9132 3.101,-9.0929 2.478,-3.5449 7.067,-5.2168 10.064,-3.6666 0.923,0.477 1.656,0.5805 2.103,0.2985 1.386,-0.876 3.348,-0.4815 4.652,0.9345 2.631,2.8599 3.461,4.3355 3.734,6.6338 0.235,1.9885 0.12,2.4975 -0.759,3.3775 -0.717,0.717 -1.344,0.939 -2.037,0.7185 -0.85,-0.27 -0.936,-0.1845 -0.574,0.5715 0.655,1.368 0.84,7.8011 0.747,26.0106 -0.01,3.9947 -0.05,10.032 -0.06,13.4166 -0.02,3.7421 -0.234,6.4017 -0.554,6.7866 -0.661,0.798 -2.056,0.8175 -2.651,0.03 z m 51.557,-34.236 c -3.767,-1.5823 -4.646,-2.2612 -6.388,-4.9356 -2.93,-4.4964 -3.788,-9.3729 -1.969,-11.1918 1.278,-1.278 1.995,-1.209 5.418,0.5205 4.331,2.1882 5.66,3.3675 7.47,6.6251 0.901,1.6219 1.901,3.4101 2.223,3.9735 0.928,1.6275 -0.294,5.1553 -2.069,5.9635 -0.649,0.2955 -1.224,0.5145 -1.278,0.486 -0.06,-0.03 -1.587,-0.678 -3.408,-1.443 z m 131.832,-21.1092 c -1.095,-0.7665 -1.856,-2.4531 -2.286,-5.0607 -0.154,-0.939 -1.023,-3.1815 -1.928,-4.9825 -1.331,-2.6453 -1.64,-3.795 -1.61,-5.9831 0.02,-1.4895 -0.171,-3.0813 -0.426,-3.537 -0.412,-0.738 -0.586,-0.6615 -1.589,0.6945 -1.89,2.5563 -5.013,4.3241 -7.638,4.3241 -3.001,0 -5.103,-1.8068 -7.434,-6.3894 -1.435,-2.8221 -1.729,-3.9191 -1.8,-6.7076 -0.05,-1.8336 -0.243,-4.2981 -0.436,-5.4768 -0.258,-1.5652 -0.07,-3.2677 0.679,-6.3129 0.843,-3.4087 0.935,-4.4623 0.503,-5.7739 -0.476,-1.44 -0.747,-1.6289 -2.649,-1.8434 -2.752,-0.3105 -4.057,-1.209 -6.439,-4.4326 -2.467,-3.339 -3.032,-4.9743 -2.659,-7.692 0.438,-3.1986 1.803,-5.0318 5.024,-6.7488 l 2.828,-1.5071 0.271,-2.7282 c 0.15,-1.5004 0.441,-3.7099 0.648,-4.9102 0.207,-1.2 0.188,-2.9091 -0.05,-3.7977 -0.922,-3.5592 0.536,-18.1406 2.091,-20.907 l 1,-1.7807 -1.051,-2.0617 c -0.854,-1.6733 -0.986,-2.4719 -0.704,-4.2399 0.447,-2.7927 0.447,-5.2742 0,-8.8458 -0.261,-2.1046 -0.153,-3.5389 0.414,-5.4442 0.96,-3.228 0.983,-9.1422 0.05,-11.8307 -0.66,-1.8967 -0.639,-2.2363 0.332,-5.0007 0.874,-2.4925 1.063,-4.2192 1.188,-10.8237 0.204,-10.8672 1.026,-22.9048 1.849,-27.0408 0.379,-1.9065 0.688,-4.1568 0.688,-5.0008 0,-0.8445 0.351,-3.0345 0.78,-4.868 0.429,-1.8334 0.938,-5.691 1.133,-8.5723 0.193,-2.8814 0.691,-6.096 1.105,-7.1438 0.47,-1.191 0.759,-3.4365 0.773,-5.9928 0.01,-2.2483 0.18,-4.2468 0.373,-4.441 0.194,-0.1935 0.783,-1.5489 1.31,-3.0102 1.635,-4.5438 4.01,-4.7069 4.606,-0.3165 0.174,1.2825 0.57,3.9379 0.882,5.9025 0.801,5.0574 1.079,7.9876 1.01,10.6243 -0.03,1.26 0.261,2.9099 0.652,3.6674 0.392,0.7575 0.713,2.3698 0.713,3.583 0,1.2135 0.583,3.8492 1.297,5.8577 0.882,2.4835 1.305,4.6423 1.323,6.7476 0.01,1.7025 0.408,4.8085 0.875,6.9022 0.898,4.0286 1.507,19.7327 1.404,36.1983 -0.06,8.5781 -0.07,18.0287 -0.07,30.4123 0,4.154 0.07,7.4696 0.183,7.3683 0.268,-0.2685 1.242,-6.3933 1.501,-9.4437 0.333,-3.919 0.33,-4.3044 -0.05,-7.1437 -0.311,-2.3556 -0.224,-2.782 0.864,-4.234 0.967,-1.2915 1.11,-1.802 0.711,-2.5488 -0.588,-1.098 -0.195,-7.5645 0.543,-8.9436 0.271,-0.507 0.36,-1.4565 0.196,-2.1083 -0.163,-0.6525 -0.08,-2.2101 0.206,-3.4626 0.72,-3.2566 1.884,-9.9675 2.213,-12.7546 0.155,-1.3095 0.555,-4.8101 0.89,-7.7786 0.589,-5.2255 0.993,-6.2427 2.487,-6.2635 1.454,-0.015 2.003,1.7694 2.483,8.089 0.269,3.5361 0.503,6.858 0.521,7.3818 0.02,0.5235 0.243,2.8556 0.499,5.1816 0.315,2.859 0.309,4.5252 -0.01,5.1431 -0.339,0.6345 -0.325,1.41 0.05,2.5386 0.338,1.0215 0.414,2.871 0.206,4.9839 -0.248,2.5083 -0.15,3.8701 0.4,5.3766 0.954,2.6274 1.582,12.8512 1.325,21.5437 -0.09,2.7909 0.333,7.8477 0.804,9.7632 0.225,0.9165 0.249,2.6895 0.06,3.9394 -0.23,1.467 -0.12,3.4076 0.324,5.4768 1.014,4.7846 0.903,11.4221 -0.243,14.4974 -0.516,1.3845 -1.037,3.9112 -1.157,5.6139 -0.12,1.7025 -0.448,3.6985 -0.729,4.4356 -0.393,1.035 -0.331,1.8834 0.27,3.7238 0.932,2.8495 0.422,5.2809 -1.486,7.0729 -1.011,0.951 -1.199,1.5542 -1.199,3.8696 0,1.509 0.237,3.3468 0.528,4.0842 0.663,1.6842 1.499,7.395 1.451,9.9132 -0.01,1.0485 -0.05,4.1553 -0.05,6.9057 -0.01,5.2189 -0.966,9.0784 -2.966,11.9797 -0.479,0.696 -0.872,1.9394 -0.872,2.7645 0,2.9016 -4.04,9.9644 -5.728,10.0134 -0.135,0 -0.697,-0.306 -1.243,-0.6885 z m -3.062,-97.3723 c 0.05,-1.6641 -0.27,-1.0605 -0.606,1.1505 -0.203,1.3275 -0.159,1.6164 0.135,0.9525 0.237,-0.5235 0.447,-1.47 0.465,-2.1035 z m -178.973,93.6205 c -0.291,-0.351 -1.359,-0.8865 -2.375,-1.191 -1.016,-0.3045 -2.422,-1.0065 -3.126,-1.5601 -1.377,-1.083 -5.04,-5.822 -5.04,-6.5199 0,-0.2325 -0.333,-1.092 -0.741,-1.9079 -0.564,-1.1325 -0.618,-1.7145 -0.222,-2.4544 0.702,-1.3125 1.437,-1.227 4.39,0.5145 1.384,0.816 3.006,1.6704 3.604,1.8978 0.599,0.228 1.535,1.1715 2.082,2.0997 0.548,0.927 1.412,1.909 1.919,2.1808 2.181,1.167 3.585,5.627 2.206,7.0059 -0.757,0.7575 -2.041,0.726 -2.698,-0.06 z m 143.567,-67.4206 c -0.452,-0.498 -1.097,-2.0976 -1.436,-3.5532 -0.538,-2.3169 -0.513,-2.9474 0.203,-5.0628 0.976,-2.8841 2.472,-4.6044 4.366,-5.0204 1.673,-0.3675 2.327,0.12 3.981,2.9384 1.244,2.1214 1.244,2.1325 0.518,5.3173 -0.594,2.6051 -1.047,3.4761 -2.468,4.7394 -1.99,1.7709 -3.925,2.0112 -5.165,0.6405 z m 38.43,-99.6781 c -0.273,-0.3405 -0.634,-2.0114 -0.801,-3.7139 -0.168,-1.7026 -0.408,-3.7386 -0.534,-4.5244 -0.37,-2.2995 -0.418,-11.4488 -0.06,-12.0233 0.179,-0.2895 0.09,-1.038 -0.193,-1.6636 -0.395,-0.867 -0.332,-1.8585 0.265,-4.1636 0.516,-1.9942 0.678,-3.7962 0.474,-5.2849 -0.231,-1.6799 -0.12,-2.5578 0.453,-3.425 0.42,-0.642 0.632,-1.5109 0.47,-1.9324 -0.324,-0.8445 1.03,-4.9391 1.979,-5.9814 0.838,-0.9225 1.854,-0.399 2.832,1.4595 0.952,1.8105 1.365,7.101 1.236,15.8703 -0.08,5.0731 -0.297,8.4196 -1.229,18.4377 -0.468,5.0382 -3.247,8.9865 -4.889,6.9456 z m 2.154,-46.1435 c -0.431,-0.2415 -0.929,-1.134 -1.106,-1.9836 -0.177,-0.849 -1.051,-2.8657 -1.942,-4.4799 -0.891,-1.6141 -1.62,-3.355 -1.62,-3.8685 0,-0.513 -0.447,-1.9426 -0.992,-3.1758 -1.527,-3.4519 -1.398,-10.7842 0.254,-14.3911 4.219,-9.2153 7.312,-11.1168 12.458,-7.6575 3.493,2.3485 5.059,5.2509 5.326,9.8706 0.215,3.6937 0.182,3.8275 -1.772,7.3872 -1.251,2.2795 -2.095,4.5144 -2.273,6.0208 -0.156,1.317 -0.767,3.1067 -1.356,3.9755 -0.59,0.8685 -1.23,2.0842 -1.424,2.7006 -0.493,1.5762 -2.952,5.0682 -3.941,5.5975 -0.506,0.2715 -1.133,0.273 -1.612,0 z"
       id="vctrly-chalky-icon-brush" /></g></svg>
