<?xml version="1.0" encoding="UTF-8" standalone="no"?>
<!-- Created with Inkscape (http://www.inkscape.org/) -->

<svg
   width="403.18689mm"
   height="772.39258mm"
   viewBox="0 0 403.18691 772.3926"
   version="1.1"
   id="svg1"
   xml:space="preserve"
   xmlns="http://www.w3.org/2000/svg"
   xmlns:svg="http://www.w3.org/2000/svg"><defs
     id="defs1" /><g
     id="layer1"
     transform="translate(-13709.899,-5864.1895)"><path
       style="fill:#000000;stroke-width:1"
       d="m 14046.944,6636.0035 c -1.44,-0.3705 -2.796,-0.4095 -4.12,-0.12 -1.5,0.3285 -2.565,0.243 -4.376,-0.3495 -2.856,-0.9345 -9.301,-1.0305 -16.225,-0.243 -3.12,0.354 -5.378,0.3855 -6.566,0.09 -0.99,-0.2475 -2.562,-0.285 -3.478,-0.09 -1.08,0.2385 -2.531,0.12 -4.115,-0.3255 -2.188,-0.621 -2.641,-0.612 -4.285,0.075 -1.41,0.5895 -2.558,0.6885 -4.934,0.4245 -4.252,-0.471 -5.569,-0.429 -8.392,0.2685 -2.217,0.5475 -2.616,0.513 -4.443,-0.3915 -1.988,-0.984 -2.027,-0.984 -3.993,-0.09 -2.472,1.122 -3.759,1.1445 -6.629,0.12 -2.148,-0.7695 -2.383,-0.768 -4.671,0.06 -1.699,0.612 -3.067,0.78 -4.644,0.5745 -4.725,-0.618 -7.98,-1.1655 -8.733,-1.473 -0.435,-0.1755 -3.753,-0.015 -7.381,0.348 -7.485,0.7575 -22.432,0.7125 -24.92,-0.075 -1.22,-0.3855 -2.366,-0.3765 -4.366,0.03 -2.065,0.426 -3.154,0.429 -4.558,0.01 -1.327,-0.3975 -2.35,-0.4125 -3.647,-0.06 -1.397,0.3855 -2.28,0.3345 -3.916,-0.222 -1.858,-0.633 -2.313,-0.636 -3.77,-0.03 -2.415,1.0095 -22.022,1.0365 -24.833,0.03 -1.561,-0.5565 -2.403,-0.5955 -4.01,-0.1875 -1.493,0.3795 -2.754,0.3675 -4.733,-0.045 -2.03,-0.42 -3.084,-0.423 -4.256,-0.014 -0.996,0.3465 -3.546,0.4545 -7.073,0.3 -3.034,-0.135 -6.091,-0.075 -6.793,0.12 -0.702,0.201 -4.574,0.18 -8.602,-0.045 -5.236,-0.2955 -8.108,-0.2535 -10.07,0.15 -2.323,0.4755 -3.127,0.4395 -5.239,-0.228 -3.54,-1.1205 -6.728,-1.3035 -9.284,-0.534 -3.499,1.053 -17.31,1.0215 -20.333,-0.045 -1.951,-0.6885 -3.186,-0.774 -7.144,-0.492 -2.632,0.1875 -7.786,0.384 -11.453,0.435 -3.667,0.045 -7.473,0.2715 -8.458,0.4875 -1.317,0.2895 -2.362,0.1755 -3.952,-0.432 -1.878,-0.717 -2.361,-0.741 -3.686,-0.1845 -1.115,0.4695 -4.222,0.642 -11.562,0.6435 -9.599,0 -10.145,-0.045 -12.478,-1.14 -2.381,-1.1145 -2.473,-1.1205 -3.746,-0.2865 -3.975,2.6046 -10.36,1.2855 -16.448,-3.3992 -3.775,-2.9049 -5.622,-6.5443 -5.646,-11.1268 -0.03,-5.6814 -0.87,-12.7779 -1.704,-14.3885 -1.064,-2.0538 -1.757,-7.3494 -1.891,-14.4247 -0.08,-3.9513 -0.358,-6.4077 -0.919,-7.9598 -0.752,-2.0793 -0.755,-2.4102 -0.04,-4.4901 0.421,-1.2345 0.768,-2.7966 0.772,-3.4702 0,-0.6735 0.543,-2.9394 1.197,-5.0349 0.654,-2.0955 1.314,-4.8816 1.466,-6.1913 0.151,-1.3095 0.759,-3.1312 1.348,-4.048 0.59,-0.9165 1.334,-2.4599 1.652,-3.429 0.552,-1.6766 3.35,-4.6673 4.366,-4.6673 0.263,0 1.478,-1.0185 2.702,-2.2623 l 2.224,-2.2621 -0.09,-6.2836 c -0.06,-4.6613 0.105,-6.8132 0.652,-8.3345 0.485,-1.344 0.8,-4.2669 0.912,-8.4799 0.23,-8.5151 1.517,-20.4977 2.458,-22.86 0.261,-0.6555 0.321,-1.7265 0.135,-2.3813 -0.594,-2.0841 0.05,-13.8796 0.853,-15.7162 0.404,-0.9165 0.776,-2.8457 0.828,-4.2863 0.05,-1.44 0.473,-3.3486 0.933,-4.2397 0.737,-1.422 0.768,-1.9506 0.263,-4.3304 -0.543,-2.5591 -0.503,-2.8801 0.733,-5.7616 1.127,-2.6277 1.334,-3.8406 1.491,-8.7351 0.17,-5.2748 0.303,-5.949 1.848,-9.3716 1.337,-2.9607 1.607,-4.0482 1.373,-5.5164 -0.203,-1.263 0.01,-2.7057 0.703,-4.6612 0.557,-1.5855 0.996,-4.0149 0.996,-5.5173 0,-2.1027 0.255,-3.0354 1.179,-4.3028 1.959,-2.6899 2.209,-3.601 1.627,-5.9157 -0.375,-1.491 -0.384,-2.7525 -0.03,-4.3758 0.274,-1.254 0.631,-3.0954 0.792,-4.0914 0.16,-0.996 0.903,-2.773 1.649,-3.9492 0.991,-1.5642 1.517,-3.2521 1.954,-6.2854 0.328,-2.2809 0.993,-4.9422 1.474,-5.9141 0.483,-0.972 0.881,-2.3647 0.885,-3.0955 0.01,-1.8159 2.052,-8.2533 3.148,-9.9213 0.49,-0.7485 1.141,-2.4428 1.446,-3.7656 1.068,-4.6583 1.58,-6.2379 2.77,-8.5584 0.662,-1.2885 1.202,-2.6289 1.202,-2.9784 0,-0.3495 0.943,-2.6171 2.096,-5.039 1.152,-2.4219 2.338,-5.3092 2.634,-6.4162 0.297,-1.107 1.389,-2.9954 2.429,-4.1963 1.673,-1.9333 1.891,-2.4663 1.9,-4.6546 0.01,-2.4887 1.249,-5.9706 2.693,-7.5653 0.411,-0.4545 0.935,-1.83 1.164,-3.0583 0.23,-1.2285 1.007,-2.978 1.728,-3.8879 0.72,-0.9105 1.766,-2.4675 2.323,-3.4612 0.556,-0.993 1.896,-2.6478 2.976,-3.6756 1.475,-1.4025 1.965,-2.2356 1.965,-3.3402 0,-2.1516 0.699,-3.6557 2.757,-5.9352 1.007,-1.1145 2.212,-3.0528 2.678,-4.3059 0.519,-1.3965 1.488,-2.7788 2.503,-3.5718 1.71,-1.3365 5,-6.0317 7.024,-10.0265 0.636,-1.254 1.484,-2.5534 1.886,-2.8866 0.402,-0.333 1.254,-1.5012 1.896,-2.5954 1.524,-2.6007 6.145,-6.8763 8.611,-7.9671 1.073,-0.474 3.372,-2.321 5.112,-4.1039 1.739,-1.783 4.415,-4.1467 5.945,-5.2528 1.531,-1.1055 4.625,-3.8109 6.876,-6.0107 2.691,-2.6299 4.73,-4.2072 5.953,-4.6056 1.023,-0.333 2.581,-1.233 3.461,-1.9983 1.795,-1.561 3.394,-2.2812 5.066,-2.2812 0.656,0 2.485,-1.0965 4.374,-2.6214 1.837,-1.482 4.075,-2.8326 5.152,-3.1075 1.047,-0.267 3.249,-0.909 4.892,-1.4265 1.642,-0.5175 3.324,-0.9405 3.736,-0.9405 0.803,0 3.516,-1.461 3.516,-1.8932 0,-0.828 -2.695,-1.7847 -11.235,-3.9883 -1.333,-0.3435 -2.934,-0.984 -3.558,-1.4205 -0.624,-0.4365 -1.58,-0.795 -2.124,-0.795 -1.221,0 -2.133,-0.8595 -2.133,-2.0105 0,-0.951 -1.222,-1.5904 -3.851,-2.0145 -0.939,-0.1515 -2.547,-0.99 -3.572,-1.8634 -1.025,-0.873 -2.701,-1.8624 -3.724,-2.1975 -1.219,-0.399 -3.271,-1.9884 -5.953,-4.6092 -2.251,-2.1999 -5.345,-4.9047 -6.876,-6.0108 -1.53,-1.1055 -4.206,-3.4698 -5.945,-5.2527 -1.74,-1.7829 -4.04,-3.6297 -5.112,-4.104 -2.466,-1.0905 -7.087,-5.3664 -8.611,-7.9671 -0.642,-1.0935 -1.494,-2.2622 -1.896,-2.5953 -0.402,-0.333 -1.25,-1.6296 -1.883,-2.8811 -1.998,-3.942 -4.849,-8.0386 -7.023,-10.0911 -1.153,-1.089 -2.195,-2.2912 -2.313,-2.6704 -0.182,-0.582 -0.446,-0.594 -1.689,-0.075 -1.108,0.459 -1.719,0.4785 -2.468,0.075 -1.278,-0.684 -1.265,-1.9337 0.03,-3.5876 0.903,-1.149 0.952,-1.437 0.391,-2.3263 -1.446,-2.2943 -1.894,-3.4779 -1.897,-5.0177 0,-1.278 -0.418,-2.0169 -1.967,-3.4902 -1.08,-1.0275 -2.42,-2.6818 -2.976,-3.6756 -0.557,-0.9944 -1.602,-2.5513 -2.323,-3.4612 -0.72,-0.9105 -1.499,-2.6595 -1.728,-3.8878 -0.229,-1.2285 -0.753,-2.6048 -1.164,-3.0584 -1.443,-1.5946 -2.683,-5.0767 -2.693,-7.5652 0,-2.1885 -0.227,-2.7215 -1.9,-4.6548 -1.04,-1.2015 -2.132,-3.0891 -2.429,-4.1961 -0.297,-1.107 -1.482,-3.9944 -2.634,-6.4163 -1.154,-2.4219 -2.096,-4.6894 -2.096,-5.0391 0,-0.3495 -0.542,-1.6897 -1.202,-2.9782 -1.189,-2.3205 -1.702,-3.9003 -2.77,-8.5584 -0.303,-1.323 -0.954,-3.0176 -1.446,-3.7656 -1.095,-1.668 -3.138,-8.1056 -3.148,-9.9213 0,-0.7305 -0.402,-2.1239 -0.885,-3.0957 -0.483,-0.972 -1.146,-3.6332 -1.475,-5.9139 -0.436,-3.0333 -0.961,-4.7214 -1.953,-6.2856 -0.746,-1.176 -1.488,-2.9532 -1.65,-3.9492 -0.162,-0.996 -0.517,-2.837 -0.792,-4.0914 -0.355,-1.6233 -0.348,-2.8844 0.03,-4.3758 0.584,-2.3147 0.333,-3.2256 -1.626,-5.9156 -0.923,-1.2675 -1.179,-2.2002 -1.179,-4.3027 0,-1.5024 -0.438,-3.932 -0.996,-5.5173 -0.687,-1.9556 -0.905,-3.399 -0.704,-4.6614 0.234,-1.4685 -0.03,-2.5557 -1.372,-5.5164 -1.545,-3.4224 -1.678,-4.0967 -1.848,-9.3714 -0.158,-4.8947 -0.365,-6.1074 -1.491,-8.7353 -1.235,-2.8813 -1.277,-3.2025 -0.734,-5.7616 0.506,-2.3796 0.473,-2.9076 -0.262,-4.3304 -0.461,-0.891 -0.881,-2.799 -0.933,-4.2396 -0.05,-1.44 -0.425,-3.3694 -0.828,-4.2862 -0.807,-1.8368 -1.448,-13.6323 -0.854,-15.7163 0.186,-0.6555 0.12,-1.7265 -0.135,-2.3812 -0.94,-2.3624 -2.228,-14.3451 -2.457,-22.86 -0.12,-4.3556 -0.423,-7.1207 -0.948,-8.5725 -0.574,-1.5914 -0.738,-3.4311 -0.631,-7.146 l 0.15,-5.0028 -1.887,-2.2599 c -1.038,-1.2435 -2.284,-2.3861 -2.77,-2.5401 -1.623,-0.5145 -4.089,-3.0821 -4.673,-4.8635 -0.816,-2.4913 -1.835,-3.9052 -2.811,-3.9052 -1.503,0 -1.846,-0.9975 -1.28,-3.7266 0.441,-2.1273 0.386,-3.048 -0.349,-5.715 -0.482,-1.7484 -1.028,-4.1435 -1.214,-5.3222 -0.186,-1.179 -0.604,-3.0004 -0.931,-4.0482 -0.506,-1.6221 -0.474,-2.2233 0.211,-4.048 0.563,-1.497 0.836,-3.8684 0.908,-7.8582 0.12,-7.0611 0.82,-12.3662 1.885,-14.4246 0.834,-1.6106 1.674,-8.7071 1.704,-14.3885 0.03,-4.5825 1.871,-8.2221 5.646,-11.1268 6.088,-4.6842 12.473,-6.0039 16.448,-3.3992 1.273,0.834 1.365,0.828 3.746,-0.2865 2.333,-1.092 2.879,-1.1415 12.477,-1.14 7.341,0 10.448,0.174 11.563,0.6435 1.324,0.558 1.808,0.534 3.686,-0.1845 1.59,-0.6075 2.635,-0.7215 3.952,-0.432 0.984,0.216 4.791,0.4365 8.458,0.4875 3.667,0.045 8.821,0.2475 11.453,0.435 3.958,0.282 5.193,0.1965 7.144,-0.492 3.023,-1.068 16.834,-1.098 20.333,-0.045 2.556,0.7695 5.743,0.5865 9.284,-0.534 2.112,-0.6675 2.916,-0.7035 5.239,-0.228 1.962,0.4005 4.834,0.4425 10.069,0.15 4.029,-0.228 7.9,-0.249 8.603,-0.045 0.702,0.201 3.759,0.2565 6.793,0.12 3.527,-0.156 6.077,-0.045 7.073,0.3 1.172,0.408 2.226,0.405 4.256,-0.014 1.979,-0.4095 3.24,-0.42 4.732,-0.045 1.608,0.408 2.45,0.369 4.011,-0.1875 2.811,-1.002 22.417,-0.975 24.833,0.03 1.457,0.609 1.912,0.6045 3.77,-0.03 1.636,-0.558 2.52,-0.6075 3.916,-0.222 1.297,0.3585 2.32,0.3435 3.647,-0.06 1.404,-0.42 2.493,-0.4185 4.558,0.01 2,0.414 3.147,0.423 4.366,0.03 2.487,-0.7875 17.435,-0.8325 24.92,-0.075 3.628,0.3675 6.951,0.525 7.381,0.348 0.75,-0.3075 4.008,-0.8565 8.733,-1.473 1.577,-0.2055 2.945,-0.03 4.644,0.5745 2.288,0.8235 2.523,0.825 4.671,0.06 2.87,-1.029 4.157,-1.0065 6.629,0.12 1.966,0.8925 2.005,0.8925 3.993,-0.09 1.827,-0.903 2.226,-0.939 4.443,-0.3915 2.823,0.6975 4.14,0.7395 8.392,0.2685 2.376,-0.264 3.524,-0.165 4.934,0.4245 1.644,0.687 2.097,0.6945 4.285,0.075 1.584,-0.4485 3.036,-0.564 4.115,-0.3255 0.915,0.2025 2.482,0.165 3.478,-0.09 1.185,-0.2955 3.446,-0.264 6.566,0.09 6.924,0.7875 13.369,0.69 16.225,-0.243 1.811,-0.5925 2.88,-0.678 4.376,-0.3495 1.32,0.2925 2.685,0.252 4.12,-0.12 2.349,-0.6075 3.641,-0.48 6.243,0.6135 1.545,0.648 1.944,0.645 3.947,-0.03 2.605,-0.885 4.347,-0.9525 6.369,-0.2475 1.155,0.4005 1.768,0.3495 2.905,-0.2385 2.067,-1.0695 4.316,-0.9255 7.007,0.45 2.191,1.119 2.559,1.167 5.677,0.7215 4.061,-0.579 15.954,-0.8955 15.954,-0.4245 0,0.186 1.335,0.3195 2.976,0.2955 3.492,-0.045 7.419,1.125 8.855,2.6537 1.365,1.446 2.932,6.1591 2.932,8.7781 0,1.1655 0.33,3.4161 0.75,5.0018 0.405,1.5855 0.63,3.3621 0.48,3.9478 -0.15,0.585 0,1.8308 0.45,2.7666 0.855,2.0336 0.93,5.9169 0.15,8.4672 -0.42,1.4205 -0.42,2.9111 0,6.4847 0.48,3.6012 0.48,5.0994 0,6.694 -0.48,1.7762 -0.42,2.4375 0.42,4.8834 1.305,3.7692 1.365,9.9794 0.15,12.3573 -0.69,1.314 -0.84,2.5044 -0.735,5.708 0.15,2.2264 0.285,4.9354 0.45,6.0198 0.27,1.7212 0,2.5684 -1.963,6.6675 -1.569,3.237 -2.955,5.3406 -4.461,6.7714 l -2.186,2.0756 0.15,5.0682 c 0.15,3.7743 0,5.6152 -0.63,7.2112 -0.525,1.452 -0.825,4.217 -0.945,8.5725 -0.225,8.5149 -1.516,20.4977 -2.457,22.86 -0.255,0.654 -0.315,1.7264 -0.15,2.3813 0.6,2.0839 0,13.8795 -0.855,15.7162 -0.405,0.9165 -0.78,2.8455 -0.825,4.2863 0,1.44 -0.465,3.3484 -0.93,4.2396 -0.735,1.422 -0.765,1.9507 -0.255,4.3303 0.54,2.5592 0.51,2.8803 -0.735,5.7617 -1.125,2.6278 -1.335,3.8406 -1.485,8.7352 -0.165,5.2748 -0.3,5.949 -1.848,9.3714 -1.335,2.9607 -1.608,4.0484 -1.38,5.5164 0.21,1.263 0,2.7059 -0.705,4.6614 -0.555,1.5854 -0.99,4.0149 -0.99,5.5173 0,2.1026 -0.255,3.0353 -1.185,4.3028 -1.959,2.6899 -2.209,3.6009 -1.626,5.9155 0.375,1.491 0.39,2.7525 0,4.3758 -0.27,1.254 -0.63,3.0956 -0.795,4.0914 -0.165,0.996 -0.9,2.7731 -1.648,3.9492 -0.99,1.5642 -1.517,3.2523 -1.955,6.2856 -0.33,2.2808 -0.99,4.9421 -1.47,5.9139 -0.48,0.972 -0.885,2.3649 -0.885,3.0957 0,1.8158 -2.052,8.2533 -3.147,9.9213 -0.495,0.7485 -1.14,2.4426 -1.44,3.7656 -1.065,4.6581 -1.579,6.2379 -2.77,8.5584 -0.66,1.2885 -1.2,2.6288 -1.2,2.9783 0,0.3495 -0.945,2.6172 -2.096,5.0391 -1.155,2.4219 -2.338,5.3092 -2.635,6.4162 -0.3,1.107 -1.395,2.9954 -2.429,4.1961 -1.672,1.9334 -1.89,2.4663 -1.9,4.6548 -0.01,2.4885 -1.245,5.9706 -2.693,7.5653 -0.405,0.453 -0.93,1.8298 -1.17,3.0583 -0.225,1.2285 -1.005,2.978 -1.728,3.8879 -0.72,0.9105 -1.765,2.4673 -2.322,3.4612 -0.555,0.993 -1.896,2.6478 -2.977,3.6756 -1.47,1.4025 -1.964,2.2354 -1.964,3.34 0,2.1518 -0.705,3.6558 -2.757,5.9352 -1.005,1.1145 -2.212,3.053 -2.679,4.3059 -0.525,1.3965 -1.485,2.7789 -2.502,3.572 -1.71,1.3365 -5.001,6.0315 -7.024,10.0264 -0.63,1.254 -1.485,2.5535 -1.886,2.8866 -0.405,0.333 -1.26,1.5011 -1.896,2.5953 -1.524,2.6007 -6.145,6.8765 -8.611,7.9671 -1.08,0.474 -3.372,2.3211 -5.112,4.104 -1.74,1.7829 -4.415,4.1466 -5.946,5.2527 -1.53,1.1055 -4.625,3.8109 -6.875,6.0108 -2.692,2.63 -4.731,4.2072 -5.953,4.6055 -1.02,0.333 -2.582,1.233 -3.462,1.9984 -1.794,1.5611 -3.393,2.2812 -5.066,2.2812 -0.66,0 -2.484,1.0965 -4.374,2.6214 -1.828,1.476 -4.078,2.8352 -5.151,3.1106 -7.285,1.8711 -11.668,3.4746 -11.668,4.2693 0,0.795 4.383,2.398 11.668,4.2691 1.065,0.276 3.323,1.6349 5.151,3.1107 1.89,1.5255 3.719,2.6214 4.374,2.6214 1.673,0 3.272,0.72 5.066,2.2812 0.885,0.7665 2.439,1.6652 3.462,1.9983 1.23,0.399 3.261,1.9757 5.953,4.6056 2.25,2.1998 5.345,4.9046 6.875,6.0107 1.531,1.1055 4.206,3.4698 5.946,5.2528 1.74,1.7829 4.039,3.6297 5.112,4.1039 2.466,1.0905 7.087,5.3664 8.611,7.9671 0.645,1.0935 1.5,2.2621 1.896,2.5954 0.405,0.333 1.245,1.6322 1.886,2.8866 2.023,3.9948 5.314,8.6906 7.024,10.0265 1.02,0.7935 1.983,2.1753 2.502,3.5718 0.465,1.2525 1.671,3.1906 2.679,4.3059 2.058,2.2795 2.757,3.7836 2.757,5.9352 0,1.104 0.495,1.9374 1.964,3.3402 1.08,1.0275 2.421,2.6818 2.977,3.6756 0.555,0.9945 1.602,2.5513 2.322,3.4612 0.72,0.9105 1.5,2.6595 1.728,3.8879 0.225,1.2285 0.75,2.6046 1.17,3.0583 1.44,1.5947 2.682,5.0766 2.693,7.5653 0.01,2.1883 0.225,2.7213 1.9,4.6546 1.035,1.2015 2.133,3.0891 2.429,4.1963 0.3,1.107 1.485,3.9943 2.635,6.4162 1.155,2.4219 2.096,4.6895 2.096,5.039 0,0.3495 0.54,1.6897 1.2,2.9784 1.185,2.3205 1.702,3.9001 2.77,8.5584 0.3,1.323 0.96,3.0174 1.44,3.7656 1.095,1.668 3.138,8.1054 3.147,9.9213 0,0.7305 0.405,2.1238 0.885,3.0955 0.48,0.972 1.14,3.6332 1.47,5.9141 0.435,3.0333 0.96,4.7212 1.955,6.2854 0.75,1.176 1.485,2.9534 1.648,3.9492 0.165,0.996 0.51,2.8371 0.795,4.0914 0.36,1.6233 0.345,2.8844 0,4.3758 -0.585,2.3147 -0.33,3.2258 1.626,5.9157 0.93,1.2675 1.185,2.2001 1.185,4.3028 0,1.5024 0.435,3.9318 0.99,5.5173 0.69,1.9555 0.9,3.399 0.705,4.6612 -0.24,1.4685 0,2.5557 1.38,5.5164 1.545,3.4226 1.677,4.0968 1.848,9.3716 0.15,4.8945 0.36,6.1074 1.485,8.7351 1.23,2.8815 1.275,3.2025 0.735,5.7616 -0.51,2.3798 -0.48,2.9078 0.255,4.3304 0.465,0.891 0.885,2.799 0.93,4.2397 0,1.44 0.42,3.3695 0.825,4.2863 0.81,1.8366 1.44,13.6321 0.855,15.7162 -0.18,0.654 -0.15,1.7264 0.15,2.3813 0.945,2.3623 2.228,14.3449 2.457,22.86 0.15,4.2243 0.435,7.1353 0.915,8.4877 0.555,1.527 0.72,3.6393 0.645,8.1801 l -0.15,6.1217 2.171,2.0593 c 1.485,1.4145 2.881,3.528 4.446,6.7549 1.986,4.0991 2.236,4.9463 1.963,6.6675 -0.165,1.0845 -0.375,3.7935 -0.45,6.02 -0.15,3.2035 0,4.3944 0.735,5.7079 1.245,2.3778 1.2,8.5881 -0.15,12.3573 -0.84,2.4458 -0.9,3.1073 -0.42,4.8834 0.435,1.5947 0.42,3.0929 0,6.6941 -0.465,3.5736 -0.48,5.0635 0,6.4846 0.765,2.5503 0.69,6.4337 -0.15,8.4672 -0.39,0.936 -0.585,2.1807 -0.45,2.7666 0.15,0.585 0,2.3624 -0.48,3.9479 -0.405,1.5855 -0.75,3.8362 -0.75,5.0017 0,2.6189 -1.575,7.3323 -2.932,8.7782 -1.44,1.528 -5.363,2.7048 -8.855,2.6535 -1.636,-0.03 -2.976,0.105 -2.976,0.2955 0,0.471 -11.893,0.1545 -15.954,-0.4245 -3.118,-0.444 -3.486,-0.3975 -5.677,0.7215 -2.691,1.374 -4.94,1.5192 -7.007,0.45 -1.14,-0.588 -1.756,-0.639 -2.905,-0.2385 -2.022,0.705 -3.764,0.6375 -6.369,-0.2475 -2.003,-0.6795 -2.402,-0.6825 -3.947,-0.03 -2.602,1.0935 -3.894,1.221 -6.243,0.6135 z m 14.631,-18.6789 c 1.946,-0.294 2.991,-1.7771 2.991,-4.2449 0,-1.3905 0.45,-2.6428 1.625,-4.4556 1.8,-2.7951 2.362,-4.0702 3.151,-7.158 0.39,-1.5115 1.275,-2.8246 3.177,-4.7337 1.455,-1.4535 2.808,-3.1906 3.011,-3.8614 0.195,-0.6705 0.525,-1.5945 0.705,-2.0529 0.6,-1.494 -0.96,-0.933 -3.708,1.3275 -1.877,1.5448 -2.706,2.5966 -2.913,3.6909 -0.45,2.394 -1.985,4.5007 -4.031,5.5446 -1.035,0.5265 -2.344,1.7155 -2.917,2.6428 -1.2,1.9457 -4.197,3.8396 -6.834,4.3221 -1.095,0.201 -2.679,1.0725 -3.959,2.1786 -1.17,1.014 -2.362,1.8443 -2.644,1.8443 -0.285,0 -1.395,0.414 -2.472,0.9195 -1.08,0.5055 -2.493,1.0395 -3.147,1.1865 -1.41,0.3135 -2.688,1.0785 -2.361,1.4055 0.39,0.384 5.317,0.4365 7.599,0.075 1.777,-0.2775 2.509,-0.135 4.287,0.837 2.155,1.179 3.541,1.2645 8.439,0.525 z m 29.12,-0.459 c 0.375,-0.3495 1.455,-6.2831 1.47,-8.0685 0,-3.8792 -0.525,-3.731 -5.562,1.5081 -2.559,2.6629 -5.153,4.9863 -5.762,5.1631 -1.455,0.4215 -0.99,0.825 1.74,1.5039 1.887,0.471 7.568,0.396 8.114,-0.105 z m -144.239,-0.3885 c 4.997,-0.075 6.674,-0.8715 4.167,-1.971 -1.65,-0.723 -1.716,-4.2584 -0.15,-7.689 0.675,-1.4625 1.215,-3.4409 1.215,-4.3962 0,-1.068 0.465,-2.4117 1.185,-3.489 1.095,-1.6196 1.56,-3.2315 0.915,-3.2315 -0.57,0 -2.4,1.1145 -3.54,2.156 -0.66,0.5985 -2.155,1.5412 -3.334,2.0965 -2.118,0.9975 -4.73,4.1411 -5.453,6.5613 -0.48,1.5897 -2.713,3.2331 -6.31,4.6299 -3.596,1.3965 -6.153,3.2196 -5.652,4.0298 0.18,0.291 1.653,0.546 3.275,0.5655 1.622,0.015 3.699,0.3345 4.615,0.6975 0.969,0.384 2.366,0.5445 3.334,0.3825 0.915,-0.153 3.489,-0.3075 5.715,-0.342 z m 49.748,-0.588 c 1.848,-0.846 3.154,-1.155 4.093,-0.9675 1.305,0.2625 1.455,0.12 3.059,-3.1341 0.93,-1.8753 1.678,-3.963 1.678,-4.6392 0,-2.2839 1.761,-7.5963 3.098,-9.35 0.735,-0.9585 2.571,-2.5188 4.089,-3.4681 1.708,-1.068 2.943,-2.225 3.24,-3.0356 0.81,-2.2101 -0.675,-1.6054 -3.672,1.4925 -1.485,1.5414 -3.189,3.0494 -3.779,3.351 -0.585,0.3015 -1.38,1.287 -1.758,2.1909 -1.005,2.3873 -3.598,5.625 -6.846,8.5223 -3.214,2.8687 -6.867,4.2382 -12.735,4.7737 -2.982,0.2715 -3.457,0.1995 -4.222,-0.645 -0.78,-0.864 -0.81,-1.251 -0.285,-4.1869 0.315,-1.7792 0.99,-4.5206 1.506,-6.0923 0.51,-1.5715 1.245,-3.8421 1.638,-5.0455 0.39,-1.203 1.609,-3.2901 2.715,-4.6371 1.11,-1.347 2.521,-3.1106 3.147,-3.9194 0.63,-0.8085 1.948,-1.9824 2.938,-2.608 0.99,-0.6255 1.956,-1.622 2.144,-2.2143 0.78,-2.4651 3.723,-6.048 6.771,-8.2527 1.761,-1.2735 4.212,-3.2396 5.445,-4.3689 1.23,-1.1295 2.448,-2.0534 2.701,-2.0534 0.255,0 1.14,-0.672 1.953,-1.494 l 1.5,-1.494 -2.668,-0.9 c -2.171,-0.7335 -3.015,-0.807 -4.527,-0.4005 -1.02,0.276 -2.774,0.441 -3.891,0.3705 l -2.033,-0.135 -0.345,2.3813 c -0.255,1.7179 -0.69,2.6515 -1.564,3.3517 -0.945,0.7515 -1.215,1.404 -1.215,2.8902 0,3.0579 -5.373,10.9856 -8.021,11.8343 -0.435,0.135 -1.531,1.3425 -2.437,2.6739 -0.9,1.332 -2.049,2.6361 -2.54,2.899 -0.495,0.2625 -1.185,1.1895 -1.554,2.0574 -0.36,0.8685 -1.485,2.298 -2.512,3.1764 -1.02,0.879 -2.184,2.24 -2.591,3.0258 -0.99,1.9188 -2.992,3.7172 -5.577,5.0141 -1.17,0.5895 -3.639,2.6302 -5.476,4.5363 -2.868,2.9724 -3.642,3.513 -5.447,3.7993 -1.155,0.183 -3.063,0.8445 -4.237,1.4685 -1.17,0.624 -2.52,1.1355 -2.99,1.1355 -0.465,0 -0.975,0.1965 -1.125,0.438 -0.15,0.2415 1.185,0.588 2.949,0.771 1.77,0.183 4.076,0.6255 5.124,0.984 2.435,0.8325 3.155,0.825 4.827,-0.045 1.754,-0.915 3.963,-0.9075 6.281,0.015 1.566,0.627 2.506,0.6555 6.319,0.1965 8.766,-1.056 8.646,-1.056 10.91,-0.03 2.715,1.2375 2.692,1.2375 5.932,-0.246 z m 37.459,0.06 c 4.947,0 5.042,-0.015 4.443,-0.9525 -0.51,-0.7935 -0.465,-1.5518 0.27,-4.4772 1.035,-4.085 1.854,-6.2415 2.393,-6.2415 0.21,0 0.735,-1.0695 1.17,-2.3757 0.435,-1.3065 0.975,-2.4893 1.2,-2.6282 0.225,-0.135 0.735,-1.392 1.14,-2.7835 0.855,-2.9507 5.371,-8.256 8.236,-9.6809 1.26,-0.624 2.358,-1.8699 3.933,-4.4392 1.734,-2.8272 2.723,-3.891 4.743,-5.1023 3.137,-1.8796 4.197,-2.8515 8.132,-7.4478 4.152,-4.852 5.395,-6.5013 5.113,-6.7831 -0.15,-0.135 -1.23,0.015 -2.46,0.324 -2.187,0.5505 -7.815,0.39 -9.42,-0.27 -0.63,-0.258 -0.87,-0.03 -1.095,1.0185 -0.645,3.0597 -1.455,5.1741 -2.484,6.3922 -0.6,0.7095 -1.095,1.5801 -1.095,1.9352 0,1.6462 -2.032,4.752 -5.103,7.9011 -1.848,1.8949 -4.023,4.621 -4.834,6.0579 -0.81,1.437 -2.073,2.9218 -2.804,3.3001 -0.735,0.378 -2.974,2.367 -4.983,4.4196 -2.008,2.0525 -4.734,4.8039 -6.055,6.114 -1.32,1.3095 -2.405,2.5691 -2.405,2.7975 0,0.7725 -7.573,7.8743 -9.388,8.804 -1.775,0.909 -3.947,3.3184 -3.947,4.3786 0,0.396 1.38,0.4335 5.12,0.135 2.817,-0.222 7.395,-0.402 10.174,-0.4005 z m -217.489,-0.498 c 1.04,-0.4335 3.056,-0.7155 4.94,-0.6915 1.751,0.03 4.408,-0.09 5.904,-0.2625 2.226,-0.249 2.779,-0.492 3.044,-1.3335 0.178,-0.5655 0.936,-1.7739 1.685,-2.6849 0.749,-0.9105 1.362,-2.014 1.362,-2.4513 0,-0.4365 1.302,-3.3351 2.893,-6.4398 1.592,-3.1048 3.322,-6.7167 3.846,-8.0263 1.173,-2.9307 2.439,-4.3361 4.531,-5.0265 1.025,-0.3375 1.883,-1.0755 2.373,-2.0378 0.423,-0.8295 1.758,-2.605 2.969,-3.9456 1.21,-1.341 2.594,-3.0136 3.076,-3.7177 0.482,-0.7035 1.805,-1.7321 2.942,-2.2841 1.636,-0.795 2.229,-1.4325 2.854,-3.0693 1.059,-2.7715 5.43,-6.3508 7.757,-6.3508 0.505,0 1.709,-0.6285 2.675,-1.3965 0.966,-0.768 2.387,-1.5347 3.156,-1.7036 3.878,-0.852 0.621,-1.7269 -7.163,-1.9243 -6.609,-0.168 -11.906,0.6135 -11.906,1.756 0,0.909 -1.588,3.897 -2.876,5.4113 -0.445,0.5235 -0.94,2.1213 -1.099,3.5497 -0.18,1.6115 -0.797,3.419 -1.627,4.7625 -0.735,1.191 -1.718,3.173 -2.184,4.4046 -0.563,1.485 -1.764,3.0899 -3.564,4.7625 -1.494,1.3875 -3.185,3.1853 -3.757,3.9944 -0.573,0.8085 -2.533,2.6052 -4.357,3.9913 -2.807,2.1339 -3.394,2.8334 -3.829,4.5632 -0.443,1.7577 -1.212,2.6475 -5.51,6.3738 -2.748,2.382 -5.535,4.5765 -6.194,4.8768 -0.659,0.3 -1.199,0.7095 -1.199,0.9075 0,0.1995 -1.233,1.116 -2.738,2.0373 -2.676,1.6374 -2.711,1.6866 -1.548,2.1511 1.594,0.636 1.541,0.639 3.544,-0.198 z m 93.676,-0.4935 c 1.476,-0.372 3.307,-0.5505 4.069,-0.399 1.302,0.261 1.464,0.105 2.718,-2.5013 2.133,-4.4419 2.758,-5.5759 3.635,-6.5884 0.455,-0.5235 1.091,-1.781 1.415,-2.7936 0.324,-1.0125 1.369,-2.6199 2.321,-3.572 2.79,-2.7907 6.383,-7.6506 7.922,-10.7155 1.246,-2.4825 1.805,-3.0516 4.377,-4.4586 2.214,-1.2105 3.372,-2.2511 4.649,-4.1747 2.038,-3.0711 3.241,-4.0708 6.559,-5.4546 1.836,-0.7665 3.008,-1.6944 4.35,-3.4509 1.538,-2.0104 2.568,-2.7442 6.311,-4.4929 2.46,-1.149 4.473,-2.279 4.473,-2.5097 0,-0.417 -7.53,-0.267 -13.209,0.2625 l -2.969,0.2775 -1.17,2.4437 c -1.065,2.2153 -1.996,3.3106 -6.111,7.1359 -0.72,0.669 -1.31,1.6692 -1.31,2.2212 0,2.6949 -7.114,12.8001 -9.557,13.5756 -0.507,0.1605 -1.163,0.7605 -1.46,1.332 -1.282,2.48 -5.068,6.9963 -6.531,7.7925 -0.979,0.5325 -2.034,1.7319 -2.737,3.1113 -2.015,3.95 -3.733,5.4926 -7.305,6.5562 -1.768,0.5265 -3.624,1.413 -4.124,1.9689 -0.501,0.5565 -2.249,1.9692 -3.886,3.14 -1.637,1.17 -2.977,2.1648 -2.977,2.2092 0,0.3495 8.42,-0.381 10.542,-0.915 z m -106.963,0.2415 c 0.173,-0.2805 0.702,-2.0945 1.175,-4.0313 0.472,-1.9368 1.629,-4.7895 2.57,-6.3391 1.193,-1.9622 1.712,-3.3827 1.712,-4.6787 0,-1.023 0.393,-2.6029 0.873,-3.5097 2.008,-3.7944 2.404,-4.5916 3.126,-6.3028 l 0.759,-1.7969 -1.356,0.7005 c -1.44,0.7455 -4.354,3.8066 -4.354,4.5749 0,0.8415 -3.325,4.1521 -4.774,4.752 -0.915,0.3795 -1.528,1.0425 -1.704,1.8415 -1.137,5.1666 -2.69,6.6308 -8.647,8.1524 -1.774,0.453 -6.648,3.9489 -6.747,4.8399 -0.05,0.444 4.605,1.7884 6.87,1.9828 4.597,0.3945 10.201,0.2955 10.498,-0.186 z m 49.986,-0.1605 c 1.572,-0.015 3.822,0.135 5.001,0.3375 2.143,0.369 2.143,0.369 2.931,-1.434 0.433,-0.9915 0.918,-2.2502 1.078,-2.7956 0.159,-0.546 1.032,-2.2234 1.939,-3.7288 0.906,-1.5054 1.855,-3.4869 2.108,-4.4034 0.254,-0.9165 0.977,-2.346 1.607,-3.1767 0.632,-0.831 1.573,-2.475 2.092,-3.6537 0.519,-1.179 1.718,-2.8221 2.663,-3.6521 0.945,-0.8295 2.244,-2.5444 2.886,-3.81 0.642,-1.266 1.65,-2.7297 2.24,-3.2536 0.591,-0.5235 1.777,-2.0433 2.637,-3.3765 1.15,-1.7844 2.263,-2.7899 4.217,-3.81 1.973,-1.0305 2.779,-1.7634 3.141,-2.8553 0.609,-1.8367 2.217,-3.3504 6.207,-5.8389 2.385,-1.488 6.655,-5.3131 6.638,-5.9466 0,-0.12 -11.364,-0.06 -13.134,0.06 -1.197,0.075 -1.761,0.5535 -3.057,2.5533 -0.874,1.3485 -1.877,3.2903 -2.23,4.314 -0.353,1.0245 -0.957,2.3426 -1.343,2.9307 -0.385,0.588 -1.128,2.3117 -1.65,3.8303 -1.367,3.9732 -2.486,5.5537 -5.742,8.1117 -1.587,1.2465 -3.755,3.4441 -4.818,4.8823 -1.062,1.4385 -2.856,3.2664 -3.986,4.0631 -1.134,0.7995 -2.598,2.4463 -3.267,3.675 -1.429,2.6269 -2.213,3.3828 -5.001,4.8244 -1.365,0.7065 -2.3,1.6028 -2.721,2.6084 -0.771,1.8439 -3.241,4.0275 -4.557,4.0275 -0.523,0 -2.226,1.2165 -3.785,2.703 -3.378,3.2226 -3.123,3.6979 1.714,3.1962 1.834,-0.1905 4.62,-0.36 6.192,-0.378 z m 25.722,-0.075 c 1.491,-0.6225 2.174,-0.654 4.114,-0.189 1.28,0.3075 2.824,0.4335 3.431,0.282 1.398,-0.351 5.607,-6.6161 8.361,-12.4428 4.938,-10.4487 4.911,-10.4057 7.188,-11.6343 1.179,-0.636 2.338,-1.482 2.576,-1.8792 0.238,-0.3975 1.203,-1.5123 2.143,-2.4782 0.94,-0.966 2.139,-2.4775 2.662,-3.3597 0.603,-1.0155 1.869,-2.0502 3.451,-2.8219 1.374,-0.6705 3.088,-1.7699 3.81,-2.4438 0.722,-0.6735 1.856,-1.5186 2.522,-1.8773 0.666,-0.3585 2.272,-1.464 3.571,-2.4574 2.978,-2.2758 8.79,-6.0525 9.315,-6.0525 0.217,0 1.101,-0.5985 1.961,-1.3305 0.861,-0.732 2.172,-1.7133 2.915,-2.1812 1.891,-1.191 1.31,-1.4355 -1.772,-0.7455 -2.261,0.5055 -2.929,0.48 -4.68,-0.1815 -2.788,-1.0545 -7.65,-1.1175 -10.902,-0.15 -3.259,0.9765 -3.907,2.0829 -3.803,6.4877 0.105,4.2633 -1.263,6.9342 -4.305,8.4288 -1.928,0.9465 -2.272,1.35 -2.742,3.2203 -0.656,2.6033 -2.887,5.2563 -5.009,5.9568 -0.866,0.285 -2.055,1.032 -2.643,1.6577 -0.588,0.6255 -1.684,1.3935 -2.434,1.7038 -0.843,0.3495 -1.897,1.5032 -2.755,3.0149 -0.94,1.6588 -2.061,2.8338 -3.469,3.6402 -1.145,0.6555 -3.967,3.0901 -6.272,5.4117 -3.163,3.1848 -4.696,4.3729 -6.246,4.8394 -1.917,0.5775 -8.054,4.1916 -10.756,6.3348 l -1.191,0.945 1.667,0.4785 c 2.59,0.744 7.297,0.651 9.292,-0.183 z m -128.949,-1.059 c 0.327,-0.417 0.595,-1.2105 0.595,-1.7646 0,-0.5535 0.521,-1.7126 1.157,-2.5748 1.066,-1.4445 2.088,-5.0563 1.576,-5.5684 -0.537,-0.5355 -3.176,1.029 -5.815,3.4482 -1.579,1.4475 -3.039,2.7738 -3.245,2.9481 -0.206,0.174 -0.743,0.684 -1.191,1.134 -0.449,0.4485 -1.549,1.434 -2.443,2.1874 l -1.628,1.371 5.199,-0.2115 c 4.004,-0.1635 5.336,-0.3855 5.795,-0.969 z m 25.101,0.558 c 0.895,-0.3435 2.302,-3.4212 1.965,-4.2998 -0.12,-0.3285 1.045,-3.0859 2.604,-6.127 1.989,-3.8816 2.834,-6.0668 2.834,-7.3335 0,-1.005 0.522,-2.7866 1.179,-4.0224 l 1.179,-2.2179 -1.894,0.966 c -1.59,0.8115 -2.229,1.6329 -3.982,5.1235 -2.282,4.5426 -3.978,6.5558 -6.38,7.5704 -0.859,0.363 -1.93,1.26 -2.381,1.9936 -1.416,2.3052 -5.525,6.6282 -6.891,7.2485 -0.72,0.327 -1.309,0.774 -1.309,0.9945 0,0.4575 11.906,0.552 13.075,0.105 z m -40.721,-2.4426 c 1.055,-2.2764 1.946,-4.986 3.117,-9.4707 0.707,-2.7068 2.227,-6.4563 4.022,-9.9218 1.587,-3.064 2.885,-5.6934 2.885,-5.8431 0,-0.15 -0.375,0.06 -0.834,0.4815 -0.459,0.414 -1.87,1.1985 -3.137,1.7417 -2.988,1.281 -8.89,6.4909 -8.883,7.8415 0,0.5505 0.334,2.0738 0.738,3.3834 0.501,1.6286 0.637,3.2306 0.43,5.0679 -0.322,2.8614 0.135,8.0291 0.71,8.0291 0.19,0 0.618,-0.5895 0.951,-1.3095 z m 347.139,-25.9736 c 1.619,-2.3521 5.571,-4.7292 8.139,-4.8937 0.93,-0.06 1.934,-0.135 2.228,-0.159 0.285,-0.03 0.66,-0.96 0.81,-2.0738 0.15,-1.113 0.495,-3.5242 0.765,-5.3578 0.54,-3.7224 0.66,-8.9762 0.225,-9.4128 -0.615,-0.6195 -1.622,0.297 -1.625,1.4865 0,0.693 -0.315,1.8726 -0.72,2.6227 -0.39,0.75 -0.705,1.8804 -0.705,2.5113 0,0.6315 -0.69,2.7816 -1.525,4.7793 -1.305,3.0989 -1.841,3.8328 -3.675,4.9968 -2.231,1.4145 -6.729,7.5417 -5.538,7.5417 0.15,0 0.855,-0.9195 1.62,-2.0421 z m -58.197,-2.4406 c 1.35,-1.332 3.6,-3.5378 5,-4.9002 1.395,-1.362 3.363,-3.4505 4.362,-4.6398 1.005,-1.1895 3.034,-2.8731 4.525,-3.7416 1.634,-0.9525 2.967,-2.1347 3.363,-2.9802 0.36,-0.771 1.2,-1.9883 1.871,-2.7059 0.675,-0.717 1.08,-1.4355 0.93,-1.5957 -0.165,-0.1605 -2.534,-0.135 -5.274,0.045 -4.646,0.3165 -5.043,0.4245 -5.906,1.5959 -0.51,0.6915 -1.065,1.7919 -1.23,2.4468 -0.405,1.5579 -0.75,1.9843 -2.521,3.226 -0.93,0.654 -1.601,1.6088 -1.796,2.5833 -0.165,0.8505 -0.96,2.2166 -1.753,3.0359 -0.855,0.885 -1.709,2.4963 -2.099,3.972 -0.36,1.365 -0.99,2.9511 -1.395,3.5241 -0.405,0.573 -1.095,1.5285 -1.528,2.1232 -0.735,1.0245 -0.735,1.0635 0.15,0.756 0.495,-0.1785 2.004,-1.416 3.354,-2.7483 z m -204.403,0.624 c 0.926,-0.813 2.344,-2.8647 3.154,-4.5608 1.855,-3.886 7.319,-9.9799 10.387,-11.5836 3.81,-1.9918 7.18,-4.0311 7.187,-4.3498 0.02,-0.6675 -2.391,-0.699 -3.882,-0.045 -1.455,0.6315 -2.901,0.711 -8.236,0.447 -1.77,-0.09 -1.915,0.01 -2.385,1.5736 -0.276,0.9165 -0.738,2.0955 -1.028,2.6193 -0.289,0.5235 -0.432,1.2165 -0.315,1.5404 0.12,0.324 -0.22,1.5019 -0.748,2.6193 -0.528,1.1175 -1.083,2.7978 -1.233,3.7341 -0.165,1.026 -0.852,2.2558 -1.731,3.0957 -2.337,2.2357 -4.511,6.3937 -3.343,6.3937 0.27,0 1.25,-0.6645 2.174,-1.4775 z m -27.339,0.39 c 0.408,-0.3195 1.613,-1.7589 2.678,-3.1995 2.363,-3.1944 7.965,-8.6379 9.915,-9.6335 0.786,-0.4005 2.117,-0.8775 2.959,-1.059 1.015,-0.219 1.858,-0.8595 2.506,-1.9089 1.401,-2.2662 2.225,-2.8129 4.671,-3.0993 2.804,-0.3285 3.104,-1.224 0.548,-1.6326 -1.086,-0.174 -2.574,-0.6255 -3.308,-1.005 -1.894,-0.9795 -11.402,-0.7875 -11.92,0.2415 -0.198,0.393 -0.747,1.6517 -1.221,2.7974 -0.474,1.146 -1.461,2.8362 -2.192,3.7564 -0.732,0.921 -1.33,2.0459 -1.33,2.501 0,0.4545 -0.777,2.5152 -1.726,4.578 -1.779,3.8652 -3.19,8.2863 -2.636,8.2596 0.172,-0.01 0.648,-0.276 1.056,-0.5955 z m 177.973,-4.9856 c 1.562,-1.768 3.273,-4.2036 3.804,-5.4124 0.555,-1.2495 1.742,-2.7906 2.765,-3.5718 0.99,-0.756 2.766,-2.2724 3.948,-3.3702 1.455,-1.3605 2.878,-2.172 4.447,-2.5482 2.169,-0.5205 3.17,-1.1715 2.63,-1.7117 -0.15,-0.135 -1.11,0.015 -2.159,0.336 -1.395,0.4185 -2.451,0.441 -3.871,0.075 l -1.95,-0.495 -1.844,2.6915 c -1.02,1.4805 -2.269,3.1383 -2.788,3.6846 -0.525,0.546 -1.56,2.2608 -2.31,3.81 -0.93,1.9158 -1.935,3.1849 -3.15,3.9681 -1.02,0.66 -1.787,1.534 -1.787,2.0476 0,0.4935 -0.33,1.5287 -0.72,2.3015 -1.2,2.3133 0,1.6035 2.991,-1.8096 z m -192.539,-8.1754 c 0.48,-1.5123 2.834,-3.2537 6.442,-4.7651 4.078,-1.7082 7.603,-3.4603 7.902,-3.9276 0.105,-0.1755 -0.438,-0.459 -1.224,-0.6315 -0.942,-0.207 -2.325,0.015 -4.071,0.675 -1.453,0.5445 -3.573,0.9885 -4.709,0.9885 -1.135,0 -2.722,0.135 -3.525,0.2925 -1.434,0.2865 -1.455,0.3315 -1.189,2.5683 0.189,1.5998 0.05,2.7383 -0.506,3.8295 -0.426,0.8535 -0.774,1.7276 -0.774,1.941 0,0.6915 1.385,-0.12 1.654,-0.9705 z m -44.03,-2.5401 c 0.835,-1.3755 2.073,-3.0897 2.749,-3.81 l 1.23,-1.3095 h -1.185 c -1.524,0 -2.328,0.8235 -2.328,2.3839 0,0.6825 -0.535,1.9671 -1.191,2.8548 -1.102,1.494 -1.473,2.3813 -0.993,2.3813 0.105,0 0.882,-1.125 1.718,-2.5004 z m 83.619,-24.5814 c 1.022,-0.75 2.394,-1.9492 3.048,-2.6643 0.656,-0.7155 3.568,-2.8921 6.474,-4.8378 2.906,-1.9458 5.563,-4.0599 5.904,-4.698 0.342,-0.639 1.554,-1.5988 2.694,-2.1348 1.14,-0.5355 2.073,-1.1715 2.073,-1.4115 0,-1.059 2.599,-3.3706 4.657,-4.1427 2.381,-0.8925 4.868,-2.4847 4.868,-3.1156 0,-0.7995 -2.331,-0.9225 -3.735,-0.1965 -0.801,0.414 -1.983,0.753 -2.627,0.753 -0.795,0 -2.064,0.8985 -3.952,2.7963 -2.586,2.5993 -4.482,4.0987 -8.768,6.9352 -0.934,0.618 -2.064,1.6808 -2.509,2.3604 -0.445,0.6795 -1.931,1.8035 -3.301,2.4975 -1.371,0.6945 -3.185,1.7903 -4.033,2.436 -1.006,0.7665 -2.492,1.2915 -4.286,1.5102 -1.51,0.1845 -3.388,0.669 -4.174,1.0755 -0.786,0.4065 -2.608,1.011 -4.048,1.341 -3.337,0.7665 -4.782,1.5803 -2.144,1.2075 6.103,-0.861 7.085,-0.822 9.287,0.3675 2.76,1.491 2.428,1.497 4.572,-0.075 z m 75.286,-0.06 c 2.494,0.258 4.701,0.573 4.905,0.699 0.563,0.348 4.222,-2.716 5.236,-4.3825 0.492,-0.8085 1.849,-2.1267 3.016,-2.9301 1.169,-0.804 2.896,-2.5361 3.84,-3.8502 0.944,-1.314 2.59,-3.0222 3.658,-3.7956 1.068,-0.774 2.564,-2.2658 3.325,-3.3164 1.865,-2.5744 2.772,-2.9893 8.319,-3.8068 9.252,-1.3635 13.573,-0.6915 13.573,2.112 0,1.5019 -1.98,5.4189 -3.294,6.5169 -0.546,0.456 -0.993,1.206 -0.994,1.6669 0,1.6266 -1.775,3.7122 -4.325,5.0922 -2.278,1.233 -6.078,4.703 -6.132,5.5989 -0.05,0.726 4.516,0.9795 6.849,0.381 1.323,-0.339 4.033,-0.6555 6.023,-0.7035 1.989,-0.045 3.842,-0.2265 4.118,-0.3975 0.276,-0.171 0.65,-1.296 0.83,-2.5021 0.285,-1.8716 0.765,-2.6102 3.27,-5.0496 3.397,-3.3006 5.148,-4.2 8.179,-4.2 3.482,0 5.36,1.0425 6.494,3.6045 1.305,2.9685 0.915,4.6524 -1.77,7.516 -1.2,1.2705 -2.039,2.4383 -1.883,2.595 0.15,0.1575 1.245,0.03 2.42,-0.2865 1.17,-0.3135 4.543,-0.5805 7.486,-0.591 2.943,-0.011 6.305,-0.204 7.47,-0.429 1.29,-0.2505 3.158,-0.216 4.793,0.09 1.47,0.273 3.664,0.348 4.878,0.1665 1.935,-0.291 2.31,-0.546 3.066,-2.089 1.543,-3.1539 5.632,-3.3314 6.534,-0.2835 l 0.435,1.47 10.042,0.4215 c 11.832,0.4965 22.304,0.366 24.387,-0.306 0.9,-0.2895 2.213,-0.318 3.333,-0.075 1.05,0.231 3.699,0.2145 6.15,-0.045 3.698,-0.384 4.77,-0.3195 7.647,0.471 2.271,0.6225 3.798,0.795 4.749,0.537 0.765,-0.21 2.717,-0.3555 4.325,-0.324 1.609,0.03 3.195,-0.105 3.526,-0.3135 0.33,-0.204 3.551,-0.393 7.157,-0.417 3.604,-0.03 6.715,-0.207 6.912,-0.4035 0.195,-0.1965 0,-0.8925 -0.285,-1.5476 -0.735,-1.3725 -2.982,-2.136 -6.299,-2.14 -1.245,0 -3.675,-0.5385 -5.415,-1.194 -1.74,-0.654 -4.155,-1.1955 -5.368,-1.2015 -1.215,-0.01 -3.063,-0.399 -4.11,-0.873 -1.05,-0.474 -2.496,-1.0095 -3.218,-1.1895 -0.72,-0.18 -3.309,-1.293 -5.752,-2.4732 -2.771,-1.3395 -5.411,-2.2569 -7.023,-2.4404 -2.382,-0.2715 -8.219,-2.7297 -9.963,-4.1971 -0.75,-0.636 -3.929,-1.4175 -7.838,-1.9293 -1.305,-0.1695 -4.05,-1.1595 -6.117,-2.1981 -2.217,-1.1145 -4.762,-2.0042 -6.211,-2.1702 -1.35,-0.1545 -3.612,-0.8925 -5.024,-1.6392 -1.41,-0.747 -2.923,-1.3575 -3.36,-1.3575 -0.435,0 -1.806,-0.6435 -3.045,-1.4295 -1.245,-0.786 -2.463,-1.428 -2.721,-1.428 -1.395,0 -6.537,-2.6015 -8.242,-4.1712 -1.772,-1.6296 -2.382,-1.8744 -6.02,-2.4137 -9.325,-1.383 -12.031,-2.1046 -13.798,-3.6814 -1.29,-1.155 -2.285,-1.5693 -4.308,-1.7996 -1.44,-0.165 -4.319,-0.732 -6.386,-1.26 -2.068,-0.528 -4.662,-0.9615 -5.766,-0.9615 -1.11,0 -2.853,-0.2985 -3.885,-0.663 l -1.879,-0.663 -3.301,2.8667 c -1.819,1.5793 -3.644,3.643 -4.066,4.5958 -0.42,0.951 -1.132,2.0346 -1.583,2.4078 -0.45,0.3735 -1.239,1.505 -1.754,2.5151 -1.092,2.1405 -2.973,3.4228 -6.584,4.4881 -1.932,0.57 -3.165,1.356 -4.861,3.0963 -1.296,1.3305 -3.558,2.9435 -5.268,3.7556 -1.649,0.783 -4.895,2.9193 -7.215,4.7476 -3.853,3.0377 -5.271,3.7505 -8.941,4.4964 -0.689,0.135 -2.421,1.422 -3.848,2.8497 -1.428,1.428 -3.221,2.7459 -3.986,2.9303 -0.765,0.1845 -2.267,0.84 -3.338,1.458 -1.071,0.618 -2.38,1.1235 -2.91,1.1235 -0.529,0 -1.903,0.7515 -3.053,1.6704 -1.151,0.918 -2.891,1.8025 -3.867,1.9642 -0.977,0.162 -2.153,0.57 -2.614,0.906 -0.747,0.546 -0.636,0.6495 1.043,0.9645 1.102,0.207 2.728,0.12 3.93,-0.195 2.606,-0.6975 4.285,-0.666 6.083,0.12 1.178,0.51 1.751,0.5085 3.254,-0.014 1.42,-0.4935 2.83,-0.5295 6.358,-0.1635 z m -99.858,-4.1761 c 3.371,-4.0119 2.88,-4.5141 -1.697,-1.7346 -1.556,0.945 -3.668,2.0194 -4.693,2.3877 -1.025,0.3675 -2.097,0.858 -2.382,1.0905 -0.285,0.231 -1.428,0.6915 -2.541,1.0215 -1.113,0.33 -2.024,0.84 -2.024,1.1325 0,0.3885 1.401,0.4005 5.217,0.045 l 5.218,-0.489 z m 54.393,3.3828 c 0.974,-0.159 2.723,-0.045 3.886,0.243 2.74,0.69 5.065,-0.2865 8.257,-3.4682 7.061,-7.0384 13.036,-12.6597 13.455,-12.6597 0.675,0 3.086,-3.7569 2.675,-4.1679 -0.186,-0.186 -1.021,0.075 -1.855,0.5655 -0.834,0.498 -2.255,1.2945 -3.157,1.7724 -0.901,0.477 -2.295,1.4985 -3.096,2.2694 -0.801,0.771 -2.634,1.8397 -4.075,2.3755 -1.44,0.5355 -3.791,1.7289 -5.223,2.6514 -2.481,1.5983 -3.47,1.92 -5.394,1.7547 -0.469,-0.045 -1.911,0.462 -3.204,1.1175 -1.293,0.6555 -3.515,1.6268 -4.937,2.159 -1.422,0.5325 -2.842,1.275 -3.154,1.6513 -0.312,0.3765 -1.35,0.8295 -2.306,1.0065 -2.084,0.387 -3.881,1.4775 -3.881,2.3544 0,0.48 0.56,0.5715 2.262,0.3735 1.244,-0.15 3.013,-0.045 3.929,0.234 0.917,0.273 2.203,0.399 2.858,0.2775 0.655,-0.12 1.987,-0.351 2.96,-0.51 z m -98.403,-0.699 c 0.5,-0.555 1.854,-1.6607 3.01,-2.4585 2.606,-1.7975 5.251,-4.2173 8.261,-7.5591 1.02,-1.1325 2.305,-1.9376 3.684,-2.3091 1.166,-0.3135 2.724,-1.08 3.463,-1.7012 0.739,-0.6225 2.245,-1.5759 3.346,-2.1199 1.101,-0.5445 2.753,-1.407 3.67,-1.9172 0.935,-0.5205 2.574,-0.9285 3.732,-0.9285 1.877,-7e-4 2.292,-0.237 4.551,-2.5879 1.452,-1.5117 3.069,-2.7132 3.888,-2.8904 1.809,-0.3915 2.931,-0.936 4.927,-2.3917 0.891,-0.6495 2.391,-1.3935 3.334,-1.6518 1.895,-0.5205 7.974,-3.5406 9.096,-4.5198 0.393,-0.3435 1.729,-0.963 2.969,-1.38 2.396,-0.8025 6.538,-2.9607 9.604,-5.0024 1.575,-1.05 2.328,-1.224 4.964,-1.1505 3.791,0.105 4.606,-0.291 5.343,-2.5927 1.167,-3.6425 4.62,-6.7002 8.474,-7.5047 0.873,-0.183 2.802,-0.9735 4.286,-1.7574 2.881,-1.5225 2.739,-1.5159 10.092,-0.4695 1.827,0.2595 4.098,0.9945 5.509,1.7825 l 2.401,1.341 2.471,-1.6011 c 1.416,-0.918 2.96,-2.4354 3.616,-3.5556 1.657,-2.8277 8.918,-10.3784 11.69,-12.1572 1.305,-0.837 2.798,-2.2119 3.319,-3.0546 0.965,-1.5596 4.826,-5.3282 9.764,-9.5288 2.447,-2.0805 2.712,-2.4819 2.465,-3.7189 -0.342,-1.7087 1.415,-3.7121 3.254,-3.7121 0.888,0 1.522,-0.4995 2.403,-1.8955 0.659,-1.0425 1.197,-2.1677 1.199,-2.5004 0,-1.6155 1.886,-3.5665 4.344,-4.5051 2.435,-0.93 2.555,-1.056 2.472,-2.5867 -0.135,-2.6091 -0.878,-6.2948 -1.473,-7.3847 -0.305,-0.5565 -0.537,-1.6287 -0.516,-2.3812 0.01,-0.753 -0.423,-2.6541 -0.986,-4.2258 -0.718,-2.0048 -0.933,-3.3953 -0.721,-4.6599 0.193,-1.1595 0.09,-2.0604 -0.299,-2.5257 -0.676,-0.8145 -1.258,-3.6138 -1.776,-8.5307 -0.192,-1.8336 -0.544,-3.6406 -0.78,-4.0158 -0.237,-0.375 -0.471,-2.6254 -0.522,-5.0005 -0.05,-2.3753 -0.331,-5.4974 -0.624,-6.938 -0.691,-3.4041 -0.757,-9.1003 -0.202,-17.3832 0.348,-5.1949 0.303,-7.39 -0.206,-9.939 -0.657,-3.2956 -0.349,-5.7096 0.935,-7.3276 0.262,-0.3315 0.337,-1.452 0.168,-2.5125 -0.18,-1.122 -0.01,-3.1611 0.391,-4.9235 0.593,-2.5569 0.602,-3.3282 0.06,-5.1358 -0.412,-1.3725 -0.586,-3.8915 -0.49,-7.0992 0.498,-16.5395 0.757,-21.3819 1.242,-23.1998 0.337,-1.2675 0.453,-4.2273 0.303,-7.8454 -0.135,-3.1958 -0.06,-6.4529 0.169,-7.2381 0.251,-0.8745 0.201,-2.448 -0.135,-4.0608 -0.462,-2.2614 -0.418,-2.9022 0.305,-4.5383 1.122,-2.5386 1.339,-11.6119 0.336,-14.0479 -0.471,-1.1445 -0.596,-2.5262 -0.399,-4.4163 0.345,-3.3018 -0.732,-6.6098 -2.991,-9.182 -0.924,-1.0515 -1.471,-2.1924 -1.471,-3.0619 0,-0.774 -0.501,-1.9689 -1.136,-2.7063 -0.957,-1.1115 -1.252,-1.224 -1.873,-0.7095 -0.754,0.627 -4.364,1.341 -9.85,1.9486 -3.256,0.3615 -9.658,2.3303 -11.522,3.5442 -0.604,0.393 -3.304,1.1715 -6.001,1.7285 -2.696,0.5565 -5.589,1.2915 -6.429,1.6333 -0.84,0.3405 -3.018,0.894 -4.84,1.23 -2.802,0.516 -3.645,0.915 -5.476,2.5961 -3.538,3.247 -6.312,4.9734 -8.708,5.4198 -2.77,0.516 -3.461,1.0665 -4.893,3.8919 -0.998,1.9693 -3.249,4.4097 -5.114,5.5432 -0.358,0.219 -0.967,0.8595 -1.353,1.425 -0.385,0.5655 -2.04,2.0357 -3.677,3.2666 -1.638,1.2315 -3.547,3.0183 -4.243,3.972 -0.696,0.954 -2.013,2.532 -2.926,3.5071 -0.914,0.975 -2.212,2.9042 -2.887,4.2863 -0.831,1.7037 -1.722,2.7612 -2.767,3.2835 -2.387,1.1925 -2.934,1.806 -3.505,3.9285 -0.366,1.362 -1.322,2.7361 -3.099,4.4583 -1.413,1.3695 -2.57,2.7783 -2.57,3.1309 0,0.3525 -0.75,1.6961 -1.667,2.9856 -0.916,1.29 -1.668,2.6667 -1.669,3.0605 0,1.8795 -1.179,4.536 -2.768,6.2758 -1.595,1.7469 -4.369,6.1946 -7.374,11.8232 -0.63,1.179 -1.409,3.5361 -1.733,5.2387 -0.657,3.4562 -1.841,5.7092 -3.609,6.8673 -0.936,0.6135 -1.182,1.176 -1.182,2.7 0,2.1251 -0.526,3.4043 -2.141,5.1965 -0.599,0.6645 -1.184,2.0751 -1.323,3.1923 -0.135,1.101 -0.675,2.6011 -1.194,3.3337 -0.519,0.732 -1.61,3.2459 -2.424,5.585 -0.815,2.3391 -2.019,5.0296 -2.676,5.9787 -1.028,1.4835 -1.196,2.2486 -1.196,5.4526 0,2.7776 -0.303,4.5675 -1.191,7.0275 -0.655,1.8153 -1.192,4.1987 -1.194,5.2964 0,1.098 -0.3,2.5642 -0.661,3.2593 -0.363,0.6945 -0.923,2.061 -1.244,3.0357 -0.321,0.975 -1.255,2.8532 -2.076,4.1744 -1.421,2.2875 -1.493,2.643 -1.514,7.4418 -0.03,6.0477 -0.645,9.0754 -2.634,12.8953 -1.047,2.0111 -1.404,3.2249 -1.194,4.061 0.587,2.3371 -0.271,8.7742 -1.387,10.4205 -1.056,1.5567 -1.074,1.6776 -2.07,13.8675 -0.261,3.199 -0.558,4.1917 -1.829,6.1075 -1.439,2.1692 -1.503,2.4581 -1.242,5.5767 0.211,2.5205 0.08,3.8091 -0.575,5.5151 -0.468,1.224 -0.931,3.6396 -1.03,5.3671 -0.371,6.4481 -0.44,14.1422 -0.135,15.5459 0.174,0.813 0.01,2.4891 -0.368,3.81 -0.373,1.2975 -0.649,3.4903 -0.615,4.873 0.03,1.4295 -0.252,3.1452 -0.666,3.9774 -0.52,1.0425 -0.652,2.2379 -0.46,4.1537 0.156,1.5541 -0.05,4.6387 -0.485,7.3053 -0.481,2.9454 -0.654,5.8749 -0.475,8.0962 0.253,3.1584 0.16,3.6998 -0.996,5.8421 -1.046,1.9383 -1.22,2.7273 -0.968,4.4053 0.351,2.3424 1.401,2.7158 2.913,1.0365 z m 335.472,-14.4753 c 0,-0.135 -0.345,-2.3306 -0.765,-4.8816 -0.435,-2.6852 -0.645,-5.7711 -0.495,-7.3283 0.195,-1.9158 0,-3.1113 -0.465,-4.1536 -0.42,-0.8325 -0.705,-2.5476 -0.66,-3.9774 0,-1.383 -0.24,-3.5756 -0.615,-4.8731 -0.375,-1.3215 -0.54,-2.9974 -0.36,-3.81 0.3,-1.404 0.225,-9.0978 -0.15,-15.5458 -0.15,-1.7276 -0.57,-4.1429 -1.035,-5.3672 -0.645,-1.7059 -0.78,-2.9946 -0.57,-5.515 0.255,-3.1187 0.195,-3.4076 -1.245,-5.5767 -1.275,-1.9158 -1.567,-2.9085 -1.828,-6.1076 -0.99,-12.1899 -1.02,-12.3108 -2.07,-13.8675 -1.125,-1.6462 -1.976,-8.0833 -1.395,-10.4205 0.21,-0.8355 -0.15,-2.0499 -1.185,-4.0609 -1.989,-3.8199 -2.607,-6.8477 -2.634,-12.8954 0,-4.7988 -0.15,-5.1543 -1.515,-7.4418 -0.825,-1.3215 -1.754,-3.1996 -2.076,-4.1743 -0.315,-0.975 -0.885,-2.3408 -1.245,-3.0357 -0.36,-0.6945 -0.66,-2.1618 -0.66,-3.2594 0,-1.098 -0.54,-3.481 -1.2,-5.2963 -0.885,-2.46 -1.185,-4.25 -1.185,-7.0275 0,-3.204 -0.165,-3.9689 -1.2,-5.4527 -0.66,-0.9495 -1.863,-3.6396 -2.676,-5.9787 -0.81,-2.3391 -1.905,-4.8523 -2.426,-5.5849 -0.525,-0.732 -1.05,-2.2328 -1.2,-3.3338 -0.15,-1.1175 -0.72,-2.5278 -1.32,-3.1923 -1.614,-1.7922 -2.142,-3.0714 -2.142,-5.1964 0,-1.5246 -0.24,-2.0867 -1.185,-2.7 -1.767,-1.158 -2.95,-3.4112 -3.609,-6.8673 -0.315,-1.7027 -1.095,-4.0601 -1.732,-5.2388 -3.005,-5.6286 -5.78,-10.0762 -7.374,-11.8231 -1.59,-1.7399 -2.762,-4.3964 -2.768,-6.2759 0,-0.393 -0.75,-1.771 -1.669,-3.0604 -0.915,-1.29 -1.668,-2.633 -1.668,-2.9856 0,-0.3525 -1.155,-1.7616 -2.57,-3.131 -1.777,-1.7221 -2.731,-3.0964 -3.099,-4.4583 -0.57,-2.1225 -1.125,-2.7363 -3.504,-3.9285 -1.05,-0.522 -1.938,-1.5798 -2.767,-3.2835 -0.675,-1.3815 -1.974,-3.3109 -2.888,-4.2862 -0.915,-0.975 -2.23,-2.5535 -2.926,-3.5072 -0.69,-0.954 -2.604,-2.7411 -4.242,-3.972 -1.638,-1.2315 -3.293,-2.7007 -3.678,-3.2665 -0.39,-0.5655 -0.99,-1.2075 -1.35,-1.425 -1.863,-1.134 -4.115,-3.5739 -5.114,-5.5433 -1.425,-2.8258 -2.122,-3.3762 -4.893,-3.8919 -2.395,-0.447 -5.169,-2.1727 -8.707,-5.4198 -1.838,-1.6872 -2.663,-2.0764 -5.477,-2.5834 -1.822,-0.3285 -4.072,-0.978 -5.001,-1.443 -0.93,-0.465 -2.643,-1.005 -3.81,-1.2 -1.17,-0.195 -2.871,-0.726 -3.789,-1.182 -0.915,-0.456 -2.815,-0.9585 -4.219,-1.1175 -1.395,-0.159 -3.291,-0.726 -4.194,-1.2585 -0.9,-0.5325 -2.405,-0.969 -3.336,-0.969 -0.945,0 -3.587,-0.84 -5.957,-1.8918 -3.487,-1.5482 -4.623,-1.8452 -6.255,-1.6352 -1.775,0.228 -5.636,-0.354 -10.913,-1.6477 l -1.775,-0.435 -1.216,2.4477 c -1.942,3.9072 -2.46,4.7209 -4.228,6.6459 -1.438,1.5657 -1.803,1.7443 -2.647,1.293 -0.843,-0.4515 -0.98,-0.3855 -0.98,0.4755 0,0.5505 -0.445,2.0346 -0.988,3.2989 -0.938,2.1786 -0.95,2.4141 -0.239,4.5078 0.558,1.6439 0.639,2.7015 0.318,4.1337 -0.259,1.155 -0.259,2.5295 0,3.4355 0.66,2.3007 0.518,7.6656 -0.265,9.9696 -0.384,1.131 -0.693,3.3352 -0.686,4.8981 0.03,7.4127 -0.592,20.1673 -1.065,21.7192 -0.439,1.4475 -0.357,2.2545 0.498,4.9047 0.564,1.7448 0.86,3.4298 0.656,3.7445 -0.203,0.315 -0.512,2.3938 -0.686,4.6203 -0.174,2.2264 -0.615,5.3622 -0.981,6.9682 -0.525,2.3073 -0.586,4.9554 -0.289,12.6206 0.327,8.4594 0.274,9.9865 -0.416,11.9356 -0.709,2.0076 -0.727,2.9162 -0.181,8.9252 l 0.609,6.69 -1.251,2.1345 c -1.343,2.2912 -1.338,2.769 0.09,7.2744 0.675,2.1367 0.703,2.899 0.204,5.3184 -0.321,1.5534 -0.899,5.7888 -1.286,9.412 -1.249,11.729 -1.592,13.8897 -2.452,15.4907 -0.61,1.1355 -0.867,2.7834 -0.924,5.9092 -0.05,2.5037 -0.339,4.817 -0.697,5.4768 -0.341,0.6285 -0.663,2.1069 -0.716,3.2856 -0.15,3.2673 -1.077,7.2192 -1.917,8.1479 -0.696,0.7695 -0.645,0.888 0.695,1.5808 0.796,0.4125 2.322,0.7485 3.391,0.7485 2.592,0 4.889,1.017 6.083,2.6928 0.96,1.3485 1.398,1.535 7.731,3.2952 1.437,0.399 3.086,1.17 3.663,1.7117 0.577,0.5415 2.079,1.176 3.339,1.4085 1.508,0.279 3.458,1.236 5.707,2.8014 2.762,1.9225 3.795,2.3784 5.393,2.3784 1.08,0 3.573,0.5355 5.523,1.191 1.951,0.6555 4.591,1.191 5.869,1.191 1.85,0 3.317,0.501 7.218,2.4681 5.156,2.5999 6.335,2.8141 9.993,1.8159 2.076,-0.567 2.343,-0.516 6.191,1.173 3.378,1.4835 4.57,2.3328 7.449,5.3134 2.701,2.7953 3.513,3.9723 3.823,5.5491 0.48,2.4233 1.715,3.1893 5.157,3.1994 2.439,0.01 5.721,1.5804 7.296,3.4975 0.465,0.5595 1.395,0.795 3.161,0.795 2.07,0 2.917,0.2805 4.843,1.6067 3.254,2.238 5.703,3.408 8.523,4.0711 2.393,0.5625 5.204,2.4062 8.769,5.7522 1.155,1.086 2.157,2.7114 2.867,4.661 0.675,1.8583 1.56,3.3252 2.329,3.8668 2.382,1.6775 5.069,2.7737 7.59,3.0966 3.107,0.3975 7.386,1.9502 8.25,2.993 1.035,1.245 3.723,2.1546 7.545,2.5516 2.408,0.2505 4.58,0.849 6.668,1.8401 2.131,1.011 3.813,1.4685 5.398,1.4685 1.275,3e-4 3.929,0.4725 5.915,1.05 3.15,0.915 3.967,1.401 6.406,3.81 2.472,2.4421 3.711,3.2827 3.711,2.5176 z m -183.098,-22.1721 c 0.513,-0.8295 -0.07,-1.005 -0.724,-0.2175 -0.375,0.453 -0.413,0.726 -0.09,0.726 0.279,0 0.648,-0.228 0.82,-0.5085 z m 8.241,-5.1968 c 1.613,-1.0425 2.932,-2.0064 2.932,-2.1432 0,-0.8055 -2.589,-0.03 -3.913,1.1715 -0.86,0.7815 -1.993,1.7388 -2.517,2.1279 -0.768,0.57 -0.805,0.711 -0.193,0.723 0.417,0.01 2.078,-0.837 3.691,-1.8795 z m 11.028,-234.6198 c 0,-0.393 -0.215,-0.582 -0.476,-0.42 -0.262,0.162 -0.475,0.6165 -0.475,1.008 0,0.393 0.214,0.582 0.475,0.42 0.263,-0.162 0.476,-0.6165 0.476,-1.0095 z m 1.395,-9.5295 c 0.01,-1.116 -0.248,-2.1985 -0.615,-2.5044 -0.527,-0.4365 -0.705,-0.135 -0.942,1.6034 -0.162,1.1835 -0.06,2.7303 0.225,3.4569 0.484,1.2255 0.544,1.251 0.909,0.363 0.214,-0.5235 0.405,-1.8371 0.424,-2.9183 z m -2.348,-7.5828 c 0,-0.93 0.305,-2.2693 0.678,-2.9766 0.896,-1.7007 5.372,-5.9949 7.208,-6.9151 2.56,-1.2825 9.851,-2.8419 13.784,-2.9466 3.222,-0.09 4.409,-0.369 7.697,-1.8351 2.137,-0.954 4.644,-1.7336 5.569,-1.7336 0.93,0 2.42,-0.4365 3.323,-0.969 0.9,-0.5325 2.791,-1.0995 4.194,-1.2585 1.41,-0.159 3.303,-0.6615 4.219,-1.1175 0.915,-0.456 2.622,-0.987 3.789,-1.182 1.17,-0.195 2.882,-0.7335 3.81,-1.2 0.93,-0.465 3.179,-1.1145 5.001,-1.443 2.814,-0.507 3.639,-0.897 5.477,-2.5834 3.538,-3.2472 6.312,-4.9736 8.707,-5.4198 2.771,-0.516 3.462,-1.0665 4.893,-3.8921 1.005,-1.9692 3.251,-4.4097 5.114,-5.5432 0.36,-0.2175 0.975,-0.8595 1.35,-1.425 0.39,-0.5655 2.04,-2.0358 3.678,-3.2667 1.638,-1.2315 3.546,-3.0183 4.242,-3.972 0.69,-0.954 2.013,-2.5319 2.926,-3.5072 0.915,-0.975 2.213,-2.904 2.888,-4.2862 0.825,-1.7037 1.722,-2.7612 2.767,-3.2835 2.387,-1.1925 2.934,-1.8059 3.504,-3.9285 0.36,-1.362 1.32,-2.736 3.099,-4.4583 1.41,-1.3695 2.57,-2.7782 2.57,-3.1308 0,-0.3525 0.75,-1.6962 1.668,-2.9856 0.915,-1.29 1.668,-2.6667 1.669,-3.0605 0,-1.8794 1.185,-4.5359 2.768,-6.2759 1.594,-1.7468 4.369,-6.1944 7.374,-11.823 0.63,-1.179 1.41,-3.5363 1.732,-5.2388 0.66,-3.4561 1.842,-5.7091 3.609,-6.8673 0.93,-0.6135 1.185,-1.176 1.185,-2.7 0,-2.1252 0.525,-3.4044 2.142,-5.1964 0.6,-0.6645 1.185,-2.0751 1.32,-3.1925 0.15,-1.101 0.675,-2.6011 1.2,-3.3337 0.525,-0.732 1.611,-3.2459 2.426,-5.585 0.81,-2.3391 2.017,-5.0295 2.676,-5.9787 1.02,-1.4835 1.2,-2.2485 1.2,-5.4525 0,-2.7775 0.3,-4.5675 1.185,-7.0275 0.66,-1.8154 1.185,-4.1988 1.2,-5.2963 0,-1.098 0.3,-2.5644 0.66,-3.2594 0.36,-0.6945 0.93,-2.088 1.26,-3.0957 0.33,-1.008 1.005,-2.4088 1.5,-3.114 1.938,-2.7627 2.413,-4.6795 2.071,-8.3398 -0.465,-4.9098 -1.999,-4.5666 -4.042,0.9015 -1.215,3.2403 -3.269,5.2062 -6.617,6.3183 -1.752,0.582 -2.671,1.2285 -3.384,2.3817 -0.54,0.87 -2.107,2.5471 -3.487,3.726 -1.38,1.179 -3.129,3.2824 -3.887,4.6747 -1.305,2.4107 -3.988,5.1705 -25.939,26.7527 -2.991,2.9415 -6.306,5.7768 -7.365,6.3006 -1.584,0.7845 -2.003,1.2885 -2.363,2.8575 -0.36,1.5409 -1.35,2.7819 -5.211,6.4933 -2.626,2.5236 -5.973,5.3007 -7.438,6.1715 -4.412,2.6226 -11.874,9.7629 -13.122,12.5551 -1.23,2.7383 -5.871,7.4267 -8.417,8.4903 -0.9,0.378 -2.556,1.7768 -3.672,3.1097 -1.11,1.3334 -2.713,2.8573 -3.552,3.3875 -0.84,0.531 -2.701,2.4162 -4.14,4.1909 -1.44,1.7746 -4.494,5.1106 -6.787,7.4131 -2.292,2.3025 -4.169,4.3686 -4.169,4.5911 0,0.786 -8.833,9.4525 -10.477,10.2811 -0.915,0.462 -2.267,1.3395 -2.999,1.9505 -0.732,0.6105 -2.231,1.5108 -3.333,1.9996 -1.131,0.5025 -4.051,2.8931 -6.704,5.4899 -2.586,2.5303 -4.895,4.6008 -5.131,4.6008 -0.235,0 -1.335,0.8295 -2.442,1.8432 -1.107,1.014 -2.872,2.2773 -3.921,2.8077 -1.048,0.531 -2.815,2.041 -3.924,3.3567 -1.284,1.5223 -2.542,2.5074 -3.459,2.7088 -0.877,0.192 -1.703,0.8145 -2.11,1.5866 -0.367,0.699 -2.209,2.4487 -4.091,3.8895 -1.882,1.44 -4.739,3.6267 -6.348,4.8579 -1.609,1.2315 -3.515,2.6941 -4.235,3.2509 -1.547,1.1955 -1.678,1.8924 -0.355,1.8924 0.525,0 1.754,0.429 2.731,0.9525 0.978,0.5235 2.162,0.9525 2.633,0.9525 1.281,0 4.243,1.341 5.434,2.4609 0.717,0.6735 1.809,1.0275 3.438,1.116 2.668,0.15 4.687,1.2075 7.168,3.774 0.903,0.9345 1.813,1.6983 2.024,1.6983 0.21,0 0.382,-0.7605 0.382,-1.6905 z m 15.835,-21.4849 c -1.263,-0.51 -0.646,-3.0057 1.191,-4.8239 1.875,-1.855 7.671,-8.202 12.251,-13.4151 1.485,-1.692 3.705,-3.7602 4.93,-4.596 1.23,-0.8355 3.08,-2.6125 4.122,-3.9483 1.05,-1.3365 2.064,-2.4288 2.27,-2.4288 0.21,0 0.78,-0.6765 1.29,-1.5031 1.93,-3.1733 6.685,-7.8899 8.749,-8.6783 2.087,-0.7965 5.087,-4.116 5.786,-6.4015 0.315,-1.0125 3.102,-3.1635 7.222,-5.5628 0.9,-0.5235 2.028,-1.5954 2.508,-2.3812 0.48,-0.786 1.455,-1.9646 2.175,-2.6193 0.72,-0.6555 1.935,-2.4394 2.709,-3.9658 0.915,-1.8075 1.925,-3.053 2.895,-3.5718 2.018,-1.08 9.573,-8.5665 10.548,-10.4511 0.435,-0.8355 2.543,-2.8232 4.689,-4.4186 2.19,-1.6263 4.388,-3.7096 5.003,-4.7419 0.765,-1.284 1.855,-2.1995 3.601,-3.0257 1.38,-0.651 2.927,-1.6608 3.444,-2.2431 0.51,-0.582 2.12,-1.8174 3.56,-2.7444 1.44,-0.927 4.023,-3.118 5.737,-4.8685 3.567,-3.642 5.411,-4.7432 8.34,-4.9818 1.17,-0.09 2.697,-0.6315 3.518,-1.239 1.44,-1.0635 6.588,-2.0429 7.962,-1.5153 1.638,0.6285 1.065,5.8186 -0.75,6.7902 -0.48,0.2595 -1.005,1.1745 -1.14,2.0317 -0.465,2.8176 -1.725,6.6794 -2.582,7.8819 -0.465,0.6495 -1.485,2.2115 -2.271,3.4712 -1.507,2.4148 -4.9,5.2936 -7.543,6.3978 -1.2,0.4995 -1.712,1.11 -2.135,2.5209 -0.66,2.1945 -4.891,6.436 -7.522,7.5352 -1.662,0.6945 -7.331,5.4579 -12.035,10.1139 -3.027,2.9959 -7.156,6.2632 -7.917,6.2632 -0.345,0 -2.26,1.3935 -4.264,3.0956 -2.004,1.7026 -3.864,3.0957 -4.134,3.0957 -0.27,0 -1.812,1.2615 -3.426,2.8027 -1.832,1.7481 -4.391,3.5307 -6.806,4.7378 -2.626,1.314 -4.357,2.5513 -5.389,3.8551 -1.035,1.3095 -2.118,2.0811 -3.402,2.4269 -1.305,0.3525 -2.205,1.002 -2.945,2.1376 -0.585,0.897 -2.086,2.1902 -3.337,2.8734 -1.245,0.684 -2.751,1.8903 -3.335,2.682 -0.585,0.792 -1.872,1.8561 -2.865,2.3652 -0.99,0.5085 -2.602,1.6331 -3.573,2.498 -0.975,0.864 -2.763,2.1502 -3.982,2.8567 -1.215,0.7065 -2.343,1.6065 -2.495,2.0003 -0.15,0.3945 -0.975,1.0365 -1.828,1.4295 -0.855,0.393 -2.199,1.1865 -2.988,1.7644 -3.71,2.7209 -9.305,6.8733 -11.783,8.7453 -2.772,2.0933 -2.981,2.1837 -4.048,1.7532 z m 68.237,-29.9807 c -0.405,-0.4005 -0.72,-0.981 -0.72,-1.29 0,-1.6732 1.38,-4.6786 2.73,-6.0652 0.855,-0.87 1.548,-1.8693 1.548,-2.22 0,-1.401 8.923,-10.1354 10.356,-10.1354 0.375,0 1.305,-0.3645 2.061,-0.81 2.65,-1.5655 5.527,0.876 3.669,3.1118 -0.36,0.4365 -0.93,1.4145 -1.245,2.1736 -0.84,1.9724 -3.435,5.1543 -8.168,10.0307 -1.527,1.5738 -4.6,3.8661 -6.19,4.6173 -2.694,1.272 -3.266,1.356 -4.035,0.5865 z m -110.306,32.5583 c 4.728,-4.9197 8.905,-9.9795 9.321,-11.2919 0.152,-0.4755 1.142,-1.4385 2.202,-2.1405 1.133,-0.75 2.225,-1.9866 2.648,-2.9995 0.688,-1.6475 6.433,-7.7378 7.298,-7.7378 0.228,0 0.539,-0.39 0.69,-0.8655 0.152,-0.477 1.621,-2.2527 3.266,-3.9471 1.646,-1.6945 3.281,-3.7789 3.634,-4.632 0.354,-0.8535 1.653,-2.4523 2.888,-3.5538 1.234,-1.101 2.855,-3.144 3.6,-4.5387 0.921,-1.7238 1.979,-2.9013 3.301,-3.6765 1.071,-0.627 2.636,-2.1193 3.48,-3.3157 0.843,-1.1955 2.291,-2.6225 3.218,-3.1692 0.927,-0.546 2.081,-1.7711 2.565,-2.7209 1.08,-2.1241 1.89,-2.8648 5.43,-4.9954 1.655,-0.9945 3.522,-2.6656 4.608,-4.1208 2.486,-3.3318 7.146,-7.809 9.881,-9.4936 1.245,-0.765 2.674,-2.097 3.183,-2.961 1.546,-2.6219 4.53,-5.5532 7.474,-7.3419 1.536,-0.933 2.792,-1.8615 2.792,-2.0637 0,-0.2025 1.02,-1.5744 2.262,-3.0494 1.245,-1.4745 2.785,-3.3597 3.426,-4.1884 0.645,-0.8295 2.193,-2.2472 3.453,-3.1521 1.26,-0.9045 2.289,-1.8608 2.289,-2.124 0,-1.5258 1.78,-3.8139 4.2,-5.3993 3.745,-2.4537 4.774,-3.4657 6.04,-5.9389 1.455,-2.8323 3.152,-4.362 5.867,-5.271 1.914,-0.6405 2.422,-1.101 3.592,-3.2595 0.915,-1.6916 2.072,-2.9615 3.527,-3.8846 2.323,-1.473 5.937,-5.3164 7.645,-8.1321 0.585,-0.954 1.758,-2.0695 2.619,-2.4781 1.973,-0.936 2.765,-1.8401 4.301,-4.9052 0.795,-1.5963 1.857,-2.8353 3.031,-3.5533 0.99,-0.606 2.874,-2.1824 4.184,-3.5022 1.305,-1.32 4.176,-3.8999 6.369,-5.7335 2.194,-1.8336 4.659,-4.0563 5.478,-4.9393 0.825,-0.8835 2.572,-2.4134 3.897,-3.4005 1.777,-1.323 2.559,-2.294 2.979,-3.6944 0.315,-1.044 1.155,-2.488 1.876,-3.2076 1.586,-1.5853 9.147,-6.3103 11.786,-7.3636 4.012,-1.6019 7.693,-3.8193 9.525,-5.7386 l 1.905,-1.9957 -2.144,0.345 c -1.17,0.189 -2.937,0.747 -3.909,1.239 -0.975,0.492 -2.385,0.8955 -3.141,0.8955 -2.632,0 -6.55,1.7361 -8.757,3.8806 -1.17,1.1415 -4.204,3.2529 -6.735,4.6929 -2.53,1.44 -5.538,3.1541 -6.684,3.809 -1.14,0.6555 -3.558,2.3907 -5.359,3.8574 -1.802,1.467 -4.347,3.2413 -5.657,3.9436 -1.305,0.702 -5.169,3.7884 -8.575,6.8582 -3.408,3.0697 -7.662,6.5458 -9.456,7.7245 -2.205,1.4505 -3.561,2.7323 -4.191,3.9647 -0.54,1.0665 -1.791,2.35 -3.005,3.0957 -1.14,0.7005 -2.416,1.8475 -2.836,2.5486 -0.42,0.7005 -1.455,1.7072 -2.318,2.2356 -1.155,0.7095 -1.705,1.5261 -2.133,3.1259 -0.315,1.191 -1.305,2.9707 -2.187,3.9556 -0.885,0.9855 -2.046,2.6576 -2.581,3.7172 -1.065,2.0914 -4.418,5.4292 -6.599,6.5566 -0.75,0.3885 -3.721,3.1328 -6.603,6.0989 -6.736,6.9367 -7.036,7.2333 -20.262,20.083 -6.142,5.9688 -12.027,11.6885 -13.074,12.7103 -1.05,1.0215 -3.192,2.5719 -4.762,3.4446 -2.609,1.4475 -3.004,1.8889 -4.525,5.0364 -0.916,1.8972 -2.524,4.2609 -3.572,5.2527 -1.047,0.9915 -2.477,2.5634 -3.177,3.4928 -0.787,1.0455 -2.695,2.4299 -5.001,3.63 -2.052,1.0665 -4.265,2.5158 -4.92,3.219 -0.654,0.7035 -2.088,1.9004 -3.186,2.6606 -1.162,0.804 -2.545,2.3907 -3.31,3.795 -0.846,1.5549 -1.999,2.8236 -3.242,3.5676 -1.06,0.6345 -3.305,2.5479 -4.987,4.2507 -1.682,1.7028 -3.227,3.096 -3.434,3.096 -0.207,0 -1.214,0.846 -2.238,1.8804 -1.025,1.0335 -2.479,2.0166 -3.234,2.1829 -2.381,0.525 -2.517,0.6225 -3.224,2.3163 -0.381,0.912 -1.513,2.2052 -2.516,2.8731 -3.709,2.472 -4.258,2.8953 -6.823,5.2623 -1.44,1.329 -3.71,3.1083 -5.043,3.9531 -1.334,0.8445 -2.674,2.0826 -2.978,2.7506 -0.304,0.6675 -1.272,1.5145 -2.15,1.8814 -0.877,0.3675 -1.932,1.1805 -2.343,1.8069 -0.411,0.627 -1.888,1.6911 -3.284,2.3645 -4.265,2.0583 -6.695,5.1135 -4.067,5.1135 0.6,0 1.939,0.4425 2.977,0.9825 3.274,1.7058 10.032,3.7783 12.434,3.8131 1.271,0.015 2.74,0.2175 3.264,0.4425 2.529,1.0875 3.433,0.633 7.817,-3.9291 z m -35.846,-5.477 c 0.444,-0.72 1.467,-1.9777 2.273,-2.7945 5.832,-5.9071 12.21,-13.117 13.766,-15.5628 0.467,-0.732 1.358,-1.5636 1.981,-1.8477 0.624,-0.2835 1.395,-1.1505 1.716,-1.9245 0.321,-0.774 1.404,-1.9267 2.409,-2.5603 1.104,-0.696 2.118,-1.8566 2.567,-2.9352 0.89,-2.1353 3.658,-5.0853 5.48,-5.84 1.017,-0.4215 1.437,-1.047 1.859,-2.7682 0.482,-1.9622 1.319,-2.9805 7.113,-8.6532 3.612,-3.5363 7.048,-7.233 7.637,-8.2152 1.231,-2.056 4.406,-4.7992 6.643,-5.7397 1.641,-0.69 7.865,-7.3005 9.202,-9.7731 0.442,-0.8175 1.973,-2.2355 3.403,-3.1502 2.386,-1.5259 4.604,-4.1431 4.604,-5.4321 0,-0.9975 -3.043,-9e-4 -8.804,2.8823 -3.14,1.5714 -6.416,3.4776 -7.28,4.2363 -0.864,0.759 -1.789,1.3785 -2.055,1.3785 -0.265,0 -0.777,0.7005 -1.134,1.5574 -0.762,1.8243 -1.64,2.6486 -4.478,4.2059 -1.622,0.8895 -2.323,1.6861 -3.171,3.603 -0.63,1.425 -1.659,2.8138 -2.442,3.2995 -0.744,0.462 -2.104,1.5138 -3.021,2.3383 -2.318,2.0856 -8.032,5.3903 -9.999,5.7837 -1.082,0.216 -2.393,1.1145 -3.856,2.6406 -1.482,1.5453 -3.146,2.679 -5.016,3.4164 -1.539,0.6075 -3.632,1.6731 -4.65,2.3693 -1.019,0.696 -2.072,1.266 -2.34,1.266 -0.268,0 -1.47,0.6195 -2.672,1.3785 -1.201,0.7575 -2.721,1.5324 -3.375,1.7215 -0.656,0.189 -1.62,0.7335 -2.144,1.2105 -0.523,0.477 -2.034,1.3665 -3.357,1.9785 -1.323,0.612 -2.969,1.5369 -3.658,2.0556 -0.688,0.519 -2.36,1.5861 -3.713,2.372 -1.353,0.786 -3.029,1.8729 -3.724,2.4156 -0.695,0.543 -2.597,1.4775 -4.226,2.0767 -1.629,0.5985 -3.224,1.4055 -3.544,1.791 -0.319,0.3855 -1.95,1.368 -3.623,2.1842 -2.336,1.1385 -3.225,1.3665 -3.838,0.981 -1.621,-1.0215 -1.164,-2.0903 2.277,-5.3145 1.867,-1.7499 5.937,-5.6787 9.045,-8.7309 3.108,-3.0524 6.056,-5.6781 6.551,-5.8353 0.495,-0.1575 2.535,-1.9461 4.533,-3.9755 1.998,-2.0293 4.512,-4.5471 5.586,-5.5948 1.074,-1.047 3.073,-3.0077 4.442,-4.3553 1.368,-1.347 3.185,-2.7997 4.036,-3.2269 0.852,-0.4275 1.548,-0.984 1.548,-1.239 0,-0.255 0.78,-1.326 1.733,-2.3815 0.954,-1.056 1.64,-2.0132 1.525,-2.1282 -0.12,-0.12 -1.271,0.333 -2.567,0.9975 -2.055,1.0515 -2.735,1.167 -5.293,0.903 -2.207,-0.228 -3.295,-0.12 -4.382,0.444 -0.795,0.411 -2.543,0.984 -3.885,1.2705 -3.122,0.669 -5.603,2.1016 -7.601,4.3868 -0.871,0.9975 -2.463,2.2578 -3.536,2.8002 -1.072,0.543 -2.914,1.8218 -4.093,2.8431 -1.179,1.0215 -2.786,2.4084 -3.572,3.0822 -0.786,0.6735 -3.215,2.3787 -5.398,3.7884 -2.184,1.41 -4.611,3.1023 -5.395,3.7616 -0.783,0.6585 -1.625,1.1985 -1.871,1.1985 -0.246,0 -1.569,0.7035 -2.94,1.5637 -3.877,2.4317 -4.325,2.6933 -5.47,3.1881 -1.141,0.4935 -1.383,1.191 -0.585,1.6841 0.267,0.165 1.325,1.434 2.348,2.8201 1.023,1.386 3.209,3.5325 4.856,4.7708 1.648,1.239 3.31,2.7144 3.696,3.2802 0.385,0.5655 0.994,1.2075 1.353,1.425 1.864,1.134 4.115,3.574 5.113,5.5432 1.433,2.826 2.124,3.3762 4.893,3.8921 2.424,0.4515 5.347,2.2692 8.527,5.3013 1.41,1.3455 2.717,2.0691 4.524,2.5062 3.859,0.933 4.565,0.855 5.47,-0.6135 z m -39.795,-38.2366 c 2.203,-2.1053 4.455,-3.9419 5.005,-4.0817 0.549,-0.135 1.814,-1.3215 2.809,-2.6278 1.182,-1.5488 2.278,-2.4672 3.154,-2.6426 0.74,-0.15 1.469,-0.663 1.622,-1.1445 0.34,-1.074 5.56,-5.2854 7.98,-6.4394 3.182,-1.5174 2.576,-1.7084 -8.203,-2.5845 -3.259,-0.2655 -6.74,-0.726 -7.734,-1.0245 -1.685,-0.504 -1.89,-0.4545 -2.982,0.723 -0.645,0.696 -1.408,1.2645 -1.698,1.2645 -0.82,0 -3.329,2.9695 -3.329,3.9397 0,2.3629 -2.55,5.1828 -5.688,6.2898 -3.388,1.1955 -3.493,1.407 -2.072,4.2168 0.684,1.353 1.485,2.9962 1.78,3.6511 0.294,0.654 1.291,1.5482 2.215,1.9851 0.924,0.4365 1.96,1.134 2.304,1.5479 0.343,0.414 0.672,0.753 0.727,0.753 0.06,0 1.906,-1.7225 4.109,-3.8277 z m -17.546,-20.8183 c 0.954,-0.9825 2.237,-2.3408 2.853,-3.0191 0.705,-0.777 1.86,-1.3515 3.122,-1.5534 2.995,-0.4785 2.577,-2.2032 -0.703,-2.9041 -0.834,-0.1785 -2.441,-1.134 -3.572,-2.1245 -1.131,-0.99 -2.592,-2.0752 -3.247,-2.4109 -1.462,-0.75 -4.743,-3.0905 -7.071,-5.0453 -0.957,-0.8025 -2.47,-1.9671 -3.363,-2.5866 l -1.623,-1.1265 0.321,2.7371 c 0.177,1.5054 0.864,3.741 1.528,4.968 3.274,6.0528 5.851,10.1737 7.469,11.9458 0.983,1.0755 1.786,2.1696 1.786,2.4308 0,0.8805 0.758,0.483 2.499,-1.311 z m 39.939,-17.5943 c 1.77,-0.2115 2.46,-0.588 3.571,-1.9423 0.758,-0.924 1.674,-1.9157 2.036,-2.204 1.776,-1.416 5.448,-5.3923 6.046,-6.5469 0.37,-0.717 1.264,-1.6546 1.985,-2.0853 1.248,-0.744 3.259,-3.009 2.907,-3.2736 -0.09,-0.075 -1.196,0.177 -2.454,0.5445 -1.933,0.564 -2.51,1.029 -3.719,2.9928 -1.344,2.1845 -3.866,4.2732 -5.16,4.2732 -0.789,0 -6.43,2.2233 -9.184,3.6198 -1.239,0.6285 -2.85,1.143 -3.579,1.143 -1.481,0 -4.495,1.4535 -4.778,2.3051 -0.12,0.375 0.711,0.564 2.594,0.588 1.528,0.015 3.528,0.3255 4.445,0.678 0.916,0.3525 1.988,0.5355 2.381,0.4065 0.393,-0.135 1.702,-0.354 2.909,-0.498 z m 27.095,-1.3365 c 1.113,-0.393 2.801,-0.723 3.75,-0.732 3.289,-0.03 7.15,-2.6185 12.065,-8.0787 2.477,-2.7504 4.627,-5.4889 4.78,-6.0856 l 0.278,-1.0845 -1.507,0.9075 c -0.83,0.4995 -2.311,1.1655 -3.294,1.479 -1.245,0.3975 -2.4,1.3575 -3.81,3.1645 -1.113,1.4265 -2.648,2.8562 -3.412,3.1775 -0.763,0.321 -2.264,1.053 -3.334,1.6257 -4.711,2.524 -6.323,3.1396 -9.127,3.4875 -4.691,0.582 -5.368,1.446 -1.747,2.2309 3.202,0.6945 3.124,0.696 5.358,-0.09 z m -44.153,-4.2147 c 0.709,-1.401 1.29,-2.7543 1.29,-3.0066 0,-0.252 0.643,-1.074 1.428,-1.8274 0.786,-0.753 1.429,-1.5513 1.429,-1.7742 0,-0.2235 1.304,-2.3441 2.897,-4.7135 1.593,-2.3695 2.793,-4.4122 2.666,-4.5394 -0.12,-0.12 -1.056,0.186 -2.064,0.696 -1.008,0.51 -2.582,1.0875 -3.499,1.284 -0.916,0.1965 -2.37,0.972 -3.231,1.725 -0.861,0.753 -1.958,1.368 -2.44,1.368 -0.84,0 -3.323,0.9675 -7.457,2.9029 -1.065,0.4995 -2.164,0.9075 -2.442,0.9075 -0.279,0 -0.759,0.3045 -1.068,0.6765 -0.309,0.372 -1.444,0.8265 -2.524,1.008 -1.592,0.2685 -2.081,0.1695 -2.592,-0.5295 -0.346,-0.474 -0.63,-1.0635 -0.63,-1.311 0,-0.2475 1.889,-2.4028 4.197,-4.7905 2.309,-2.3876 4.554,-4.9142 4.988,-5.6147 0.435,-0.7005 1.172,-1.3965 1.637,-1.5466 0.465,-0.15 1.215,-0.9225 1.666,-1.7171 0.45,-0.795 1.516,-1.8127 2.368,-2.2633 1.648,-0.8715 3.694,-2.8307 5.594,-5.3577 1.051,-1.398 1.068,-1.4955 0.189,-1.0245 -0.536,0.2865 -1.874,1.2735 -2.975,2.1933 -1.945,1.6254 -4.462,2.6466 -6.536,2.652 -0.594,0 -2.25,1.1895 -3.977,2.8537 -1.819,1.7523 -4.18,3.4248 -6.126,4.34 -1.742,0.819 -3.947,1.8933 -4.899,2.3877 -0.953,0.495 -2.067,0.8985 -2.476,0.8985 -0.409,0 -2.737,1.092 -5.174,2.4273 -5.179,2.8378 -7.213,3.2098 -7.429,1.359 -0.105,-0.936 0.711,-2.1963 3.572,-5.4942 2.043,-2.3541 4.645,-5.2365 5.784,-6.4058 1.139,-1.1685 2.639,-2.8671 3.334,-3.7732 0.694,-0.906 2.291,-2.7279 3.546,-4.0482 2.368,-2.4887 4.89,-6.4485 4.109,-6.4485 -0.246,0 -1.729,1.179 -3.296,2.6193 -1.567,1.44 -3.151,2.6194 -3.52,2.6194 -0.369,0 -1.802,0.849 -3.184,1.8884 -1.676,1.2585 -3.238,1.9972 -4.688,2.2146 -2.232,0.3345 -3.704,1.17 -6.826,3.8742 -0.983,0.8505 -2.141,1.5478 -2.574,1.5478 -0.661,0 -5.717,2.1393 -6.305,2.6684 -0.105,0.09 0.403,1.065 1.126,2.1574 0.723,1.0935 1.425,2.8658 1.559,3.9389 0.135,1.0725 0.726,2.4867 1.315,3.1416 0.59,0.654 1.316,1.6653 1.615,2.2453 0.334,0.6495 1.315,1.26 2.558,1.5897 5.455,1.4475 6.985,1.8239 9.481,2.3331 1.486,0.303 2.959,0.861 3.273,1.239 0.313,0.378 1.293,0.6885 2.175,0.6885 0.882,0 2.986,0.5535 4.676,1.23 2.81,1.125 3.293,1.185 5.647,0.696 2.804,-0.582 4.806,-0.2895 9.388,1.374 1.44,0.5235 2.735,0.9585 2.877,0.969 0.135,0.01 0.838,-1.1295 1.548,-2.5306 z m 78.202,-5.5458 c 1.209,-1.047 2.775,-2.0307 3.481,-2.1874 2.544,-0.564 2.977,-0.756 4.382,-1.9385 2.122,-1.7856 1.727,-2.2347 -0.835,-0.951 -1.244,0.624 -3.063,1.392 -4.041,1.7094 -0.978,0.3165 -2.157,1.05 -2.619,1.6299 -1.229,1.5393 -3.044,2.687 -4.253,2.687 -0.58,0 -1.189,0.2145 -1.351,0.4755 -0.176,0.2835 0.382,0.4755 1.372,0.4755 1.259,0 2.203,-0.465 3.864,-1.9025 z m -120.089,-24.7209 c 1.614,-1.759 4.22,-5.0983 5.791,-7.4206 1.572,-2.3223 3.979,-5.4032 5.35,-6.8462 1.371,-1.443 2.409,-2.7073 2.307,-2.8093 -0.312,-0.312 -3.304,1.38 -4.46,2.5228 -0.598,0.5925 -1.67,1.2165 -2.381,1.389 -0.711,0.171 -3.006,1.344 -5.102,2.6079 -2.095,1.263 -4.56,2.4357 -5.477,2.6054 -0.916,0.1695 -2.684,1.0545 -3.929,1.968 -2.205,1.618 -2.262,1.7236 -2.262,4.1821 0,1.9359 0.275,2.8938 1.179,4.1204 0.648,0.879 1.418,2.3202 1.709,3.2026 l 0.529,1.6044 1.906,-1.9638 c 1.049,-1.08 3.226,-3.403 4.84,-5.1621 z m 112.645,-6.1867 c 0.984,-0.7785 2.418,-1.5584 3.189,-1.7319 2.078,-0.468 6.48,-2.7227 6.055,-3.1005 -0.758,-0.6735 -3.673,-1.41 -5.581,-1.41 -1.712,0 -2.287,0.303 -4.334,2.2837 -1.298,1.2555 -2.799,2.81 -3.336,3.4529 -0.537,0.6435 -1.394,1.4445 -1.905,1.7827 -0.801,0.5295 -0.581,0.5805 1.597,0.3765 1.851,-0.174 3.005,-0.6165 4.315,-1.6534 z m -26.129,-3.8412 c 1.736,-1.1775 7.446,-3.83 8.244,-3.83 0.927,0 5.091,-2.3572 5.091,-2.8815 0,-0.7455 -1.598,-1.269 -4.838,-1.5874 l -3.172,-0.312 -0.877,1.7884 c -0.483,0.984 -1.522,2.22 -2.31,2.7473 -0.788,0.528 -2.396,2.0073 -3.572,3.2887 -1.857,2.0229 -1.982,2.2814 -0.948,1.9616 0.654,-0.2025 1.726,-0.732 2.381,-1.176 z m 103.55,-4.7825 c 0.57,0 3.606,-2.8899 3.606,-3.4272 0,-0.6 -1.035,-0.4485 -1.868,0.273 -0.42,0.3615 -2.143,1.0035 -3.846,1.4265 -1.702,0.4245 -3.171,0.9975 -3.264,1.275 -0.225,0.6645 -0.93,1.263 -2.809,2.3778 -0.9,0.5355 -1.548,1.3035 -1.548,1.8465 0,0.8235 0.525,0.663 4.632,-1.422 2.547,-1.293 4.84,-2.3509 5.097,-2.3509 z m -126.519,1.2285 c 1.055,-0.372 2.828,-1.3365 3.942,-2.1432 1.114,-0.807 2.368,-1.464 2.787,-1.461 0.418,0 2.905,-1.062 5.524,-2.3668 2.62,-1.305 5.614,-2.5059 6.654,-2.6675 1.631,-0.2535 1.768,-0.363 0.997,-0.7935 -0.492,-0.2745 -2.628,-0.9075 -4.748,-1.407 -2.121,-0.498 -4.292,-1.0215 -4.826,-1.161 -0.745,-0.1965 -1.852,0.6315 -4.762,3.561 -3.324,3.345 -8.177,9.1152 -7.666,9.1152 0.105,0 1.044,-0.3045 2.098,-0.6765 z m -73.97,-1.3965 c 0.669,-0.8775 2.051,-1.9714 3.07,-2.431 1.317,-0.594 2.096,-1.374 2.692,-2.6957 0.462,-1.023 0.727,-1.9717 0.591,-2.1082 -0.135,-0.135 -1.398,0.5085 -2.802,1.434 -1.404,0.9255 -2.917,1.6819 -3.36,1.6819 -1.931,0 -2.312,0.5175 -2.312,3.1466 0,1.413 0.204,2.5684 0.452,2.5684 0.249,0 0.999,-0.7185 1.669,-1.5955 z m 58.604,-8.2197 c 1.308,-0.684 3.342,-1.8439 4.521,-2.5791 1.179,-0.735 3,-1.5663 4.048,-1.8472 1.049,-0.2805 2.548,-1.0335 3.334,-1.6734 l 1.428,-1.1625 -1.771,-0.7485 c -0.973,-0.411 -2.551,-0.7485 -3.504,-0.7485 -1.466,0 -2.121,0.3945 -4.234,2.5399 -1.375,1.3965 -2.71,2.916 -2.967,3.3756 -0.258,0.459 -1.29,1.299 -2.293,1.8654 -1.881,1.0605 -2.705,2.2203 -1.579,2.2203 0.351,0 1.709,-0.5595 3.017,-1.2435 z m 155.877,-3.7234 c 2.767,-2.5884 4.897,-4.1813 6,-4.4856 1.185,-0.327 3.534,-2.2013 7.656,-6.1067 5.017,-4.7551 6.727,-6.0483 10.957,-8.2848 4.239,-2.2414 5.228,-2.9895 6.408,-4.851 1.709,-2.6934 7.92,-7.9267 10.7,-9.0135 1.125,-0.4395 3.081,-1.4565 4.35,-2.2621 1.275,-0.8055 2.548,-1.464 2.842,-1.464 0.3,0 2.376,-1.4775 4.626,-3.2823 2.25,-1.8053 4.815,-3.5214 5.702,-3.8138 0.945,-0.3105 1.968,-1.1385 2.473,-1.993 1.125,-1.8915 3.285,-3.1872 5.99,-3.5789 1.185,-0.1725 3.766,-1.125 5.73,-2.1184 3.75,-1.8954 6.574,-2.8278 8.58,-2.8323 0.66,0 2.587,-0.681 4.287,-1.5113 1.698,-0.8295 4.105,-1.6071 5.35,-1.7274 l 2.262,-0.219 v -2.8122 c 0,-1.5468 0.345,-3.609 0.75,-4.5828 0.42,-0.9735 0.855,-3.2709 0.96,-5.1045 0.39,-6.1936 0.48,-14.2786 0.165,-15.7384 -0.18,-0.813 -0.01,-2.489 0.36,-3.81 0.375,-1.2975 0.645,-3.4904 0.615,-4.8731 0,-1.4295 0.255,-3.145 0.66,-3.9774 0.525,-1.0425 0.645,-2.2377 0.465,-4.1535 -0.15,-1.5543 0,-4.6387 0.48,-7.3054 0.48,-2.9453 0.66,-5.8748 0.48,-8.0963 -0.255,-3.1537 -0.165,-3.7012 0.99,-5.8261 1.518,-2.8112 1.32,-4.2012 -0.735,-5.0493 -1.47,-0.612 -3.21,-0.4275 -8.14,0.8655 -1.925,0.504 -18.164,0.3645 -19.017,-0.1635 -0.3,-0.183 -1.854,-0.306 -3.464,-0.2745 -1.608,0.03 -3.555,-0.12 -4.324,-0.324 -0.945,-0.258 -2.478,-0.09 -4.749,0.537 -2.877,0.789 -3.95,0.855 -7.647,0.471 -2.451,-0.255 -5.096,-0.273 -6.15,-0.045 -1.215,0.267 -2.438,0.2115 -3.572,-0.1635 -1.17,-0.387 -4.671,-0.5235 -10.891,-0.423 -11.753,0.189 -30.348,0.1725 -34.647,-0.03 -1.833,-0.09 -4.191,-0.105 -5.238,-0.03 -1.05,0.075 -5.549,-0.105 -10.002,-0.4065 -11.442,-0.765 -12.048,-0.765 -20.003,0.011 -8.399,0.819 -12.281,0.8055 -15.861,-0.045 -2.266,-0.5445 -3.137,-0.5205 -6.536,0.18 -4.848,0.9975 -9.001,1.0275 -12.619,0.09 -2.01,-0.5205 -3.113,-0.5865 -4.029,-0.2385 -1.853,0.705 -4.375,0.585 -6.064,-0.2895 -1.262,-0.6525 -1.993,-0.69 -4.858,-0.2535 -6.417,0.9795 -8.16,1.0455 -10.069,0.384 -1.596,-0.552 -2.111,-0.546 -3.525,0.045 -1.173,0.489 -2.287,0.585 -3.814,0.3255 -2.909,-0.495 -7.614,-0.4065 -14.844,0.2805 -4.765,0.4515 -6.394,0.4485 -7.815,-0.015 -1.443,-0.4755 -2.442,-0.471 -5.084,0.03 -2.591,0.489 -3.762,0.501 -5.52,0.06 -1.607,-0.408 -2.698,-0.426 -3.899,-0.075 -2.123,0.6345 -9.625,0.105 -12.032,-0.8385 -1.442,-0.5685 -2.208,-0.603 -3.902,-0.177 -2.88,0.7245 -5.204,0.666 -7.237,-0.183 -2.294,-0.9585 -2.868,-0.909 -5.603,0.4785 -2.474,1.2555 -4.95,1.4895 -7.842,0.744 -0.946,-0.2445 -4.005,-0.6795 -6.796,-0.966 -4.492,-0.4635 -5.269,-0.429 -6.775,0.288 -1.529,0.729 -2.328,0.756 -7.865,0.2625 -4.454,-0.396 -6.573,-0.405 -7.643,-0.03 -1.658,0.5775 -3.875,0.2865 -5.916,-0.7785 -1.796,-0.9375 -2.042,-0.912 -4.788,0.4815 -2.634,1.3365 -4.359,1.482 -6.603,0.5565 -0.843,-0.348 -2.604,-0.561 -3.913,-0.474 -9.519,0.63 -9.287,0.5775 -9.287,2.0616 0,0.495 0.556,1.9286 1.236,3.1866 1.113,2.061 1.207,2.6319 0.955,5.7683 -0.178,2.2215 0,5.151 0.476,8.0962 0.436,2.6667 0.64,5.7512 0.484,7.3055 -0.192,1.9158 -0.06,3.1113 0.461,4.1535 0.415,0.8325 0.702,2.5477 0.666,3.9774 -0.03,1.383 0.241,3.5755 0.615,4.873 0.379,1.3215 0.541,2.9976 0.367,3.81 -0.3,1.404 -0.231,9.098 0.135,15.5459 0.105,1.7277 0.563,4.143 1.031,5.3673 0.651,1.7058 0.786,2.9944 0.574,5.515 -0.261,3.1187 -0.196,3.4076 1.242,5.5766 1.604,2.4181 1.517,1.9228 2.489,14.2327 0.264,3.3465 0.567,4.5912 1.364,5.5887 l 1.023,1.284 3.391,-2.5515 3.392,-2.5513 4.454,-0.336 c 4.363,-0.3285 5.833,-0.375 10.646,-0.3375 1.309,0.01 4.5,0.015 7.09,0.03 2.785,0 5.704,0.297 7.144,0.7215 1.339,0.3945 3.721,0.8115 5.292,0.927 1.572,0.12 4.102,0.4935 5.623,0.84 2.598,0.591 2.886,0.5655 4.763,-0.4275 3.453,-1.8288 4.18,-1.5221 4.717,1.9885 0.09,0.588 0.799,1.098 2.042,1.47 1.047,0.312 2.807,1.032 3.91,1.5998 1.326,0.681 2.875,1.0305 4.573,1.0305 1.979,0 2.94,0.27 4.186,1.179 2.213,1.6116 3.558,2.1522 6.11,2.4568 2.611,0.312 10.584,2.8386 12.625,4.0014 0.801,0.4575 2.223,0.9645 3.159,1.1265 0.936,0.1635 2.423,0.8295 3.307,1.482 0.883,0.6525 2.046,1.1865 2.585,1.1895 0.538,0 3.122,0.771 5.741,1.7067 2.62,0.936 6.049,1.9001 7.62,2.1416 1.928,0.2955 3.555,0.927 4.999,1.9377 1.177,0.825 2.678,1.5397 3.334,1.5897 0.655,0.045 1.577,0.12 2.046,0.165 0.47,0.045 1.863,1.0125 3.096,2.1586 1.985,1.845 2.569,2.1177 5.099,2.3774 7.315,0.75 9.646,1.185 11.192,2.0847 0.917,0.534 2.738,1.1985 4.048,1.4775 1.31,0.279 4.096,0.8715 6.191,1.317 2.096,0.4455 5.203,0.957 6.906,1.1385 1.703,0.1815 4.201,0.5895 5.552,0.909 1.83,0.432 2.951,0.447 4.392,0.06 2.21,-0.5955 7.437,-0.207 10.208,0.759 1.165,0.4065 2.794,0.531 4.549,0.348 2.171,-0.2265 3.119,-0.09 4.613,0.654 1.666,0.8325 2.587,0.9135 8.073,0.7155 3.405,-0.12 6.94,-0.2115 7.857,-0.1965 0.915,0.015 4.942,0.045 8.943,0.06 6.03,0.015 7.324,0.15 7.552,0.744 0.15,0.3945 0.45,0.7185 0.645,0.7185 0.21,0 2.309,-1.8062 4.668,-4.0137 z m -217.931,0.561 c 0.64,-0.852 1.791,-2.7096 2.557,-4.1297 0.765,-1.4205 1.981,-3.1716 2.701,-3.8925 1.351,-1.3515 1.69,-2.3362 0.804,-2.3362 -0.972,0 -5.454,1.5759 -6.162,2.1667 -0.393,0.327 -1.518,0.927 -2.5,1.3335 -1.518,0.627 -1.786,0.9585 -1.786,2.2059 0,2.2301 1.831,6.2003 2.859,6.2003 0.198,0 0.885,-0.696 1.527,-1.5479 z m 46.1,-5.361 c 1.1,-0.918 2.566,-1.7913 3.26,-1.9395 2.523,-0.5385 4.911,-1.8299 5.865,-3.1704 0.537,-0.7545 0.9,-1.428 0.806,-1.497 -1.136,-0.8325 -5.943,-2.1185 -7.071,-1.8927 -1.641,0.3285 -3.815,2.9148 -3.818,4.5414 0,0.606 -0.429,1.8049 -0.952,2.6626 -1.007,1.6506 -1.236,2.9651 -0.519,2.9651 0.237,0 1.33,-0.7515 2.43,-1.6701 z m -17.744,-142.2821 c 2.19,0.09 2.5,-0.015 2.5,-0.825 0,-1.023 0.917,-3.3627 2.66,-6.7897 0.633,-1.2435 1.15,-2.3426 1.15,-2.4405 0,-0.4815 -4.265,1.9705 -5.822,3.3478 -0.975,0.8625 -2.339,1.7108 -3.029,1.884 -0.69,0.1725 -2.217,1.278 -3.394,2.4543 -2.498,2.4977 -2.145,3.2159 1.291,2.634 1.179,-0.1995 3.269,-0.3195 4.644,-0.2655 z m 69.217,0.2985 3.137,-0.297 0.841,-2.6767 c 2.023,-6.4376 2.828,-8.5217 4.069,-10.535 0.726,-1.179 1.47,-2.7802 1.652,-3.559 l 0.332,-1.416 -1.107,0.936 c -0.609,0.5145 -1.994,1.7233 -3.077,2.6851 -1.083,0.9615 -2.691,2.1183 -3.572,2.5701 -0.882,0.4515 -2.995,2.04 -4.698,3.5294 -1.702,1.4895 -4.06,3.3654 -5.238,4.1689 -1.179,0.804 -2.663,2.0198 -3.298,2.7024 l -1.155,1.2405 2.107,0.06 c 1.159,0.03 2.75,0.2205 3.536,0.42 1.942,0.4935 2.822,0.5175 6.47,0.1725 z m 61.441,-0.1725 c 0.579,0 1.209,-0.6015 1.694,-1.6206 0.425,-0.891 1.28,-1.8511 1.898,-2.1328 0.618,-0.282 1.125,-0.8955 1.125,-1.3635 0,-0.468 0.861,-2.3258 1.914,-4.1279 1.053,-1.8022 1.845,-3.3469 1.759,-3.4327 -0.27,-0.27 -3.673,2.2123 -3.673,2.6785 0,0.2445 -1.233,1.3395 -2.739,2.4347 -1.506,1.095 -3.239,2.6061 -3.852,3.3582 -0.612,0.753 -1.737,1.6903 -2.5,2.0848 -0.762,0.3945 -1.386,0.9045 -1.386,1.134 0,0.5085 3.324,1.437 4.206,1.176 0.349,-0.105 1.048,-0.1875 1.555,-0.1875 z m 127.249,-0.48 2.165,-0.957 0.3,-3.6864 c 0.195,-2.4063 0.705,-4.5592 1.47,-6.1996 l 1.17,-2.5131 -1.44,0.741 c -0.795,0.408 -1.973,1.5582 -2.634,2.5578 -1.275,1.9198 -6.465,5.686 -9.272,6.721 -1.639,0.6045 -3.333,2.0874 -3.333,2.9178 0,0.2325 1.335,0.438 2.976,0.4575 1.638,0.015 3.405,0.2175 3.93,0.4425 1.485,0.6375 2.331,0.5505 4.661,-0.48 z m -239.233,-0.816 c 2.268,-0.813 2.653,-1.1385 3.015,-2.5558 0.228,-0.894 0.826,-2.0669 1.329,-2.6076 0.502,-0.5415 0.915,-1.398 0.916,-1.905 0,-0.507 1.181,-2.6319 2.62,-4.7219 1.438,-2.0899 2.616,-4.0972 2.616,-4.4607 0,-1.0545 -3.924,2.7722 -4.931,4.8086 -0.5,1.0095 -1.452,2.1981 -2.117,2.6431 -0.664,0.4455 -2.311,1.8806 -3.658,3.1902 -1.347,1.3095 -3.446,3.1314 -4.664,4.0482 -2.948,2.2181 -2.944,3.0195 0.01,2.7209 1.245,-0.12 3.432,-0.648 4.862,-1.1595 z m 96.291,0.8085 c 2.034,-0.5655 2.889,-1.72 3.693,-4.9891 0.323,-1.3095 0.86,-2.8098 1.196,-3.3338 0.334,-0.5235 0.732,-1.8786 0.88,-3.0106 0.15,-1.1325 0.825,-2.8955 1.503,-3.9188 1.81,-2.7354 1.507,-2.7672 -0.896,-0.09 -2.06,2.2917 -5.843,4.5839 -8.411,5.0961 -1.519,0.303 -4.629,2.8052 -5.908,4.7531 -0.861,1.3095 -3.27,3.2508 -4.65,3.7449 -1.238,0.444 0.181,0.8445 4.001,1.1295 2.199,0.1635 4.428,0.468 4.951,0.675 1.295,0.51 1.636,0.5055 3.642,-0.045 z m 70.192,-0.2025 c 1.517,-0.633 1.653,-0.858 1.67,-2.7384 0,-1.1265 0.33,-2.5842 0.705,-3.2389 0.375,-0.6555 0.69,-1.8336 0.705,-2.6195 0,-1.4385 1.29,-3.9508 2.881,-5.715 0.48,-0.5235 1.02,-2.0178 1.215,-3.3199 l 0.345,-2.3676 -3.636,3.2538 c -1.999,1.7896 -4.054,3.9265 -4.566,4.7488 -1.6,2.5749 -4.921,5.4546 -8.022,6.956 -1.639,0.795 -3.232,1.4445 -3.538,1.4445 -0.615,0 -2.762,1.8715 -2.762,2.4036 0,0.183 1.02,0.468 2.262,0.633 1.245,0.165 3.333,0.4845 4.644,0.711 3.735,0.645 6.32,0.597 8.111,-0.1515 z m -235.485,-0.5595 c 3.65,-0.6285 6.135,-0.708 13.3,-0.4245 8.578,0.339 10.711,0.3645 19.891,0.2325 l 4.414,-0.06 -0.06,-4.4505 c -0.03,-2.4478 0.163,-5.1631 0.435,-6.0342 0.27,-0.8715 0.747,-3.1911 1.057,-5.1556 0.678,-4.2654 1.115,-5.1885 4.199,-8.8811 1.454,-1.7398 2.493,-3.5068 2.695,-4.5835 0.467,-2.4849 3.913,-7.2075 7.067,-9.6828 1.692,-1.329 2.685,-2.466 2.685,-3.077 0,-1.371 1.178,-3.484 3.892,-6.9807 l 2.348,-3.025 -4.662,0.135 c -4.228,0.12 -4.679,0.225 -4.843,1.089 -0.105,0.5235 -0.555,1.488 -1.014,2.1432 -0.459,0.6555 -0.993,1.7263 -1.188,2.3812 -0.193,0.6555 -0.961,1.8335 -1.706,2.6193 -0.744,0.786 -2.099,3.0362 -3.011,5.0007 -0.912,1.9646 -2.209,4.31 -2.881,5.2122 -0.672,0.9015 -1.223,2.1881 -1.224,2.8575 0,2.4939 -1.082,5.0511 -2.818,6.6941 -0.969,0.9165 -2.316,2.6314 -2.993,3.8106 -0.677,1.179 -1.674,2.5443 -2.215,3.034 -0.542,0.489 -1.223,1.6118 -1.513,2.4933 -0.638,1.9331 -4.39,5.325 -8.05,7.2783 -1.457,0.777 -3.279,2.0717 -4.048,2.8761 -1.494,1.562 -4.014,2.0084 -4.899,0.867 -0.254,-0.327 -0.831,-2.1525 -1.283,-4.0557 -0.892,-3.7633 -0.693,-7.8672 0.498,-10.2081 1.512,-2.9746 0.629,-2.9845 -2.12,-0.03 -1.521,1.6371 -2.974,2.9766 -3.229,2.9766 -0.645,0 -12.094,11.1186 -12.094,11.7449 0,0.279 -0.866,1.1085 -1.925,1.8421 -1.388,0.9615 -1.754,1.443 -1.31,1.7243 0.86,0.5445 1.511,0.5085 6.604,-0.3675 z m 97.34,-3.0111 c 1.188,-1.6882 2.161,-3.5158 2.161,-4.0615 0,-0.9735 0.793,-2.2565 3.496,-5.657 0.811,-1.02 1.456,-2.5195 1.613,-3.7437 0.359,-2.8093 1.253,-4.3944 3.131,-5.5558 1.46,-0.903 4.535,-5.5392 4.017,-6.0573 -0.356,-0.3555 -2.767,2.1919 -5.71,6.0316 -1.507,1.9659 -3.386,3.956 -4.176,4.4225 -0.789,0.4665 -2.295,2.0106 -3.344,3.4315 -1.085,1.467 -3.395,3.6242 -5.35,4.9928 -2.153,1.5079 -4.108,3.3757 -5.226,4.9929 -0.983,1.4205 -1.786,2.6772 -1.786,2.7915 0,0.12 0.891,0.3585 1.98,0.543 1.089,0.1845 2.621,0.6045 3.405,0.9345 2.21,0.9285 3.435,0.2805 5.789,-3.0638 z m 36.391,3.3399 c 0.456,-0.2445 1.739,-0.549 2.85,-0.6765 2.565,-0.294 3.024,-0.6975 4.589,-4.0191 0.705,-1.4955 1.55,-3.04 1.879,-3.4329 0.329,-0.393 0.737,-1.1025 0.906,-1.5778 0.288,-0.8115 0.228,-0.8085 -0.999,0.045 -0.718,0.5025 -1.949,1.1235 -2.735,1.3785 -0.786,0.255 -1.964,1.227 -2.619,2.1612 -0.656,0.9345 -2.263,2.6074 -3.572,3.7191 -1.31,1.1115 -2.453,2.2056 -2.54,2.431 -0.212,0.5445 1.2,0.5235 2.242,-0.03 z m 66.021,-0.5505 c 2.357,-0.288 5.25,-0.375 6.429,-0.1935 2.021,0.3105 7.2,0.3375 7.497,0.045 0.39,-0.39 1.47,-5.6934 1.751,-8.5585 0.18,-1.8024 0.63,-4.032 1.02,-4.9548 0.39,-0.9225 0.615,-1.7598 0.525,-1.8602 -0.15,-0.105 -1.185,0.789 -2.406,1.9781 -1.23,1.188 -2.513,2.1607 -2.867,2.1607 -0.36,0 -1.645,0.828 -2.869,1.8386 -1.23,1.011 -3.123,2.107 -4.22,2.4351 -1.095,0.3285 -2.787,1.269 -3.754,2.0904 -2.666,2.2612 -4.275,3.4192 -5.949,4.2792 -2.13,1.095 -2.58,1.962 -0.816,1.5726 0.759,-0.168 3.309,-0.54 5.667,-0.828 z m 54.191,0.333 9.901,-0.06 1.155,-1.905 c 0.63,-1.0485 1.395,-2.4408 1.692,-3.0955 1.245,-2.7683 4.146,-7.0193 6.036,-8.8346 0.585,-0.561 1.485,-1.9639 1.989,-3.1176 1.617,-3.6619 4.958,-8.6101 7.697,-11.4034 2.827,-2.8815 5.167,-6.3098 4.003,-5.8632 -0.36,0.135 -1.23,1.218 -1.917,2.3973 -0.765,1.308 -1.842,2.3883 -2.758,2.7726 -0.825,0.3465 -2.039,1.2135 -2.694,1.9263 -0.66,0.714 -2.12,1.7146 -3.255,2.2252 -1.485,0.6675 -2.258,1.389 -2.751,2.567 -0.81,1.9552 -8.391,9.843 -10.979,11.4334 -1.005,0.618 -3.166,1.7703 -4.803,2.562 -1.638,0.792 -2.977,1.6224 -2.977,1.8459 0,1.212 -2.637,2.8511 -5.834,3.6257 -3.451,0.8355 -7.014,2.4987 -7.021,3.2767 0,0.2265 0.585,0.2505 1.305,0.06 0.72,-0.198 5.764,-0.384 11.209,-0.4125 z m 78.093,-2.0772 c 0.66,-1.506 1.689,-4.0843 2.277,-5.7295 0.585,-1.6452 1.26,-3.1044 1.47,-3.2429 0.57,-0.348 0.51,-1.1475 0,-1.1475 -0.27,0 -1.11,1.0275 -1.886,2.2823 -0.87,1.4025 -2.185,2.7216 -3.432,3.4222 -1.11,0.627 -2.785,1.9121 -3.711,2.8557 -0.93,0.9435 -2.218,2.0714 -2.874,2.5059 l -1.185,0.7905 2.142,0.075 c 1.185,0.045 2.679,0.2445 3.335,0.4545 2.347,0.7515 2.692,0.5535 3.934,-2.2623 z m -49.094,0.7575 c 0.855,-1.6509 1.82,-3.9202 1.82,-4.2837 0,-0.8625 -1.425,-0.3315 -3.29,1.227 -1.08,0.897 -2.754,1.8893 -3.736,2.2058 -2.34,0.7545 -2.568,0.9045 -2.226,1.4595 0.435,0.7065 7.03,0.1665 7.432,-0.6075 z m 66.401,0.3585 c 0.15,-0.3675 0.18,-1.386 0.15,-2.2621 l -0.15,-1.5932 -1.065,1.667 c -0.585,0.9165 -1.065,1.9347 -1.065,2.2621 0,0.8175 1.872,0.7545 2.19,-0.075 z m -359.676,-0.978 c -0.15,-0.3825 0.162,-1.9362 0.685,-3.4528 0.524,-1.5165 1.092,-3.8291 1.265,-5.1387 0.172,-1.3095 0.588,-3.1313 0.924,-4.0481 0.336,-0.9165 0.936,-2.6313 1.332,-3.81 0.396,-1.179 0.88,-2.5182 1.075,-2.9766 0.215,-0.5025 0.15,-0.834 -0.165,-0.834 -0.286,0 -0.817,0.7095 -1.18,1.5773 -0.494,1.182 -4.637,5.278 -6.42,6.3469 -0.09,0.06 -0.342,1.5584 -0.564,3.3455 -0.387,3.1164 -0.345,3.3357 0.994,5.3583 0.768,1.1595 1.397,2.608 1.397,3.2181 0,0.6105 0.207,1.1085 0.462,1.1085 0.253,0 0.342,-0.3135 0.195,-0.696 z m 356.175,-18.3787 c 2.521,-1.8059 2.737,-2.1071 2.737,-3.798 0,-1.0095 -0.18,-1.9476 -0.405,-2.0832 -0.525,-0.327 -3.585,2.8947 -4.531,4.777 -0.405,0.8205 -1.365,2.0034 -2.103,2.6297 -0.75,0.6255 -1.485,1.494 -1.656,1.9287 -0.33,0.876 0.945,0.135 5.952,-3.4542 z m -183.615,-11.979 c 0.27,-0.339 0.751,-1.4265 1.071,-2.4159 0.349,-1.086 1.263,-2.3127 2.303,-3.0956 0.948,-0.714 3.038,-2.6023 4.643,-4.1974 2.252,-2.2377 3.434,-3.03 5.174,-3.4683 1.525,-0.384 2.84,-1.1625 4.054,-2.4023 0.989,-1.0095 2.26,-1.9809 2.824,-2.1598 2.399,-0.762 0.831,-1.266 -3.618,-1.1625 l -4.643,0.105 -2.025,1.9251 c -1.294,1.2315 -2.024,2.3409 -2.024,3.0793 0,1.455 -1.573,4.0353 -3.05,5.0033 -0.621,0.4065 -1.631,1.5538 -2.245,2.5495 -0.615,0.996 -2.139,3.1611 -3.388,4.812 -1.248,1.6511 -2.27,3.2193 -2.27,3.4853 0,0.5115 2.361,-1.011 3.195,-2.0595 z m -70.465,-0.759 c 1.146,-0.861 1.548,-1.5339 1.548,-2.5958 v -1.434 l -2.024,1.6664 c -1.308,1.077 -2.08,2.1276 -2.18,2.9698 -0.171,1.437 -0.02,1.4025 2.656,-0.606 z m 32.347,-8.4308 c 2.409,-2.3574 5.733,-5.5137 7.388,-7.014 2.462,-2.2321 2.878,-2.8149 2.294,-3.2073 -0.969,-0.6495 -5.581,-0.618 -8.515,0.06 -2.02,0.4665 -2.441,0.7545 -2.679,1.8381 -0.156,0.7065 -0.915,1.8908 -1.688,2.6315 -0.918,0.8805 -1.406,1.8211 -1.406,2.7159 0,0.753 -0.306,2.3739 -0.681,3.6018 -0.375,1.2285 -0.808,2.8273 -0.964,3.5544 -0.156,0.7275 -1.079,2.227 -2.051,3.3337 -1.494,1.7004 -1.326,1.6064 1.078,-0.6075 1.565,-1.44 4.816,-4.5483 7.224,-6.9057 z m 83.88,5.8788 c 0.6,-0.717 1.951,-1.683 3,-2.146 1.065,-0.471 2.332,-1.5284 2.871,-2.3979 1.095,-1.7799 3.022,-3.2771 4.774,-3.7167 0.66,-0.1665 2.094,-1.248 3.182,-2.4026 1.08,-1.155 2.568,-2.2285 3.291,-2.3851 3.561,-0.771 7.68,-2.1809 8.199,-2.8055 1.38,-1.6662 -1.35,-2.2684 -4.43,-0.978 -2.211,0.924 -4.288,0.906 -6.313,-0.06 -0.885,-0.423 -2.103,-0.6495 -2.691,-0.5025 -5.895,1.476 -5.589,1.299 -7.536,4.3386 -1.02,1.5872 -1.853,3.4028 -1.859,4.0346 0,0.6315 -0.51,2.0248 -1.14,3.0955 -0.615,1.071 -1.275,2.729 -1.44,3.6849 -0.18,0.9555 -0.84,2.5193 -1.5,3.474 -0.645,0.9555 -1.17,1.8872 -1.155,2.072 0.01,0.1845 0.39,-0.1905 0.825,-0.8355 0.45,-0.6435 1.305,-1.7579 1.902,-2.4753 z m 49.293,0.468 c 0.75,-1.0215 2.32,-2.2465 3.784,-2.9445 2.474,-1.1805 6.506,-4.9563 9.128,-8.5492 0.795,-1.0845 2.313,-2.282 3.784,-2.9787 2.31,-1.0935 4.043,-2.8223 3.437,-3.4283 -0.15,-0.15 -2.633,-0.013 -5.52,0.3 -3.872,0.42 -5.763,0.432 -7.196,0.045 -2.496,-0.672 -3.498,-0.3405 -2.817,0.93 1.035,1.9317 0,6.8457 -1.903,8.8626 -0.495,0.531 -1.23,1.9137 -1.646,3.072 -0.405,1.158 -1.08,2.4759 -1.485,2.9282 -0.405,0.4515 -0.93,1.6141 -1.14,2.5821 -0.42,1.8802 -0.39,1.8598 1.577,-0.8205 z m 34.033,-3.1302 c 0.72,-1.086 3.038,-3.4738 6.068,-6.2733 0.525,-0.4845 1.35,-1.458 1.837,-2.1652 0.495,-0.7065 1.773,-1.6706 2.858,-2.1413 1.08,-0.471 2.472,-1.3965 3.082,-2.0559 l 1.11,-1.2 -2.061,-0.3765 c -3.198,-0.585 -7.219,-0.261 -7.777,0.624 -0.27,0.4155 -1.11,1.4955 -1.88,2.4 -1.05,1.224 -1.38,2.0591 -1.29,3.2705 0.195,2.8651 -0.81,5.3383 -3.279,8.0619 -1.305,1.431 -2.358,2.7223 -2.358,2.8683 0,0.5415 2.897,-1.8191 3.696,-3.0125 z m -192.921,-4.482 c 2.05,-1.3515 4.869,-3.4941 6.265,-4.7625 1.396,-1.269 2.816,-2.3061 3.156,-2.3061 0.339,0 0.851,-0.2805 1.136,-0.624 0.415,-0.501 -0.32,-0.7485 -3.711,-1.251 -2.365,-0.351 -5.191,-0.483 -6.413,-0.2985 l -2.184,0.327 v 2.4842 c 0,1.3665 -0.294,2.907 -0.654,3.4237 -0.585,0.8415 -1.826,5.4638 -1.467,5.4638 0.08,0 1.822,-1.1055 3.871,-2.4564 z m 51.61,0.363 c 1.634,-1.7967 8.165,-5.8264 10.704,-6.6058 0.9,-0.276 2.096,-0.993 2.659,-1.5918 l 1.025,-1.0905 -1.133,-0.2325 c -0.622,-0.135 -2.869,-0.3435 -4.993,-0.48 -3.737,-0.24 -3.879,-0.2115 -4.389,0.909 -0.29,0.636 -1.058,1.29 -1.706,1.4535 -0.794,0.1995 -1.275,0.735 -1.475,1.6432 -0.163,0.741 -0.901,2.2749 -1.641,3.4083 -0.739,1.134 -1.491,2.543 -1.669,3.1323 -0.498,1.6463 0.885,1.3575 2.618,-0.546 z m -136.128,-8.0646 c 1.037,-0.7365 0.927,-0.7605 -2.243,-0.4815 -1.834,0.162 -3.438,0.3855 -3.566,0.4995 -0.338,0.3015 -2.399,6.3302 -2.721,7.9601 -0.231,1.17 0.338,0.708 3.582,-2.9061 2.122,-2.3634 4.348,-4.6457 4.948,-5.0718 z m 184.924,2.9795 c 1.05,-0.564 2.332,-1.407 2.857,-1.8758 0.525,-0.468 1.785,-1.248 2.804,-1.7322 2.677,-1.2735 2.19,-1.8598 -1.395,-1.672 -2.99,0.156 -3.156,0.234 -5.58,2.6193 -2.121,2.0854 -3.691,4.3744 -3.691,5.3817 0,0.15 0.696,-0.18 1.548,-0.7185 0.851,-0.5385 2.405,-1.4385 3.454,-2.0027 z m -167.159,0.03 c 0.52,-0.576 1.801,-1.4835 2.845,-2.0162 1.663,-0.849 1.781,-1.0125 0.952,-1.3155 -0.52,-0.1905 -2.94,-0.3735 -5.377,-0.4065 -4.784,-0.06 -4.671,-0.171 -2.697,2.5544 0.57,0.786 1.17,1.813 1.336,2.2827 0.351,0.9945 1.401,0.603 2.941,-1.098 z m -41.028,-0.5895 c 0.648,-0.5895 1.324,-1.5755 1.502,-2.1914 0.306,-1.059 0.237,-1.101 -1.27,-0.774 -1.853,0.402 -2.292,0.9225 -2.302,2.7269 0,1.5901 0.517,1.6506 2.07,0.2385 z m 333.047,-0.045 c 0.735,-0.6135 2.377,-1.7133 3.639,-2.445 2.475,-1.4355 2.452,-1.6439 -0.285,-2.5694 -2.117,-0.717 -4.593,-0.3075 -4.937,0.816 -0.15,0.4335 -0.435,1.155 -0.675,1.6028 -0.48,0.897 -0.15,3.7102 0.525,3.7102 0.21,0 0.99,-0.501 1.727,-1.1145 z m -73.775,-1.4955 c 1.643,-0.684 3.195,-1.116 3.45,-0.9585 0.255,0.1575 0.78,0.105 1.17,-0.105 0.915,-0.5085 -5.103,-3.2285 -6.202,-2.8067 -0.405,0.156 -1.035,0.987 -1.395,1.847 -0.36,0.861 -1.095,1.9681 -1.646,2.4618 -2.203,1.9947 -0.915,1.8744 4.613,-0.432 z m 96.789,-2.8664 c 0,-0.393 -0.21,-0.714 -0.48,-0.714 -0.27,0 -0.48,0.321 -0.48,0.714 0,0.393 0.21,0.714 0.48,0.714 0.255,0 0.48,-0.321 0.48,-0.714 z m -35.043,-1.0035 c 0.42,-0.159 0.75,-0.48 0.75,-0.714 0,-0.651 -1.14,-0.507 -2.17,0.2745 -0.795,0.603 -0.81,0.702 -0.15,0.714 0.435,0.01 1.14,-0.12 1.548,-0.2745 z"
       id="vctrly-chalky-icon-hourglass" /></g></svg>
