<?xml version="1.0" encoding="UTF-8" standalone="no"?>
<svg
   width="2537.1821"
   height="3464.9055"
   viewBox="0 0 2537.1821 3464.9055"
   version="1.1"
   xml:space="preserve"
   style="clip-rule:evenodd;fill-rule:evenodd;stroke-linecap:round;stroke-linejoin:round;stroke-miterlimit:1.5"
   id="svg1780"
   xmlns="http://www.w3.org/2000/svg"
   xmlns:svg="http://www.w3.org/2000/svg"><defs
   id="defs1780" />
    <g
   id="vctrly-notion-learn-school-study-presentation-business"
   transform="matrix(2.0003049,0,0,2.0006295,-4606.6205,-7990.6386)"
   style="stroke-width:9.99766;stroke-dasharray:none"><path
     d="m 2756.618,4464.521 c -64.16,-1.19 -114.51,-37.74 -115.3,-113.42 -0.28,-27.13 22.09,-89.07 106.22,-102.61 37.46,-84.36 145.33,-105.03 152.1,-50.72 12.24,98.31 -92.25,129.09 -89.07,135.48 21.25,42.58 29.62,97.85 14.72,107.05 -17.07,10.53 -26.68,-11.95 -42.26,-14.22 -28.53,-4.15 -35.52,15.87 -28.55,33.57 0.66,1.69 1.38,3.31 2.14,4.87 z"
     id="path68"
     style="stroke-width:9.99766;stroke-dasharray:none" /><path
     d="m 2395.118,4073.111 339.31,1.19"
     style="fill:none;stroke:#000000;stroke-width:9.99766;stroke-dasharray:none"
     id="path893" /><path
     d="m 2389.1534,4144.115 239.216,0.8408"
     style="fill:none;stroke:#000000;stroke-width:9.99766;stroke-dasharray:none"
     id="path894" /><path
     d="m 2389.1549,4196.7499 215.3121,0.7574"
     style="fill:none;stroke:#000000;stroke-width:9.99766;stroke-dasharray:none"
     id="path895" /><path
     d="m 2389.1537,4249.379 283.2685,0.9945"
     style="fill:none;stroke:#000000;stroke-width:9.99766;stroke-dasharray:none"
     id="path896" /><path
     d="m 3043.928,4086.751 113.64,-0.55"
     style="fill:none;stroke:#000000;stroke-width:9.99766;stroke-dasharray:none"
     id="path897" /><path
     d="m 3043.9204,4122.9118 152.3455,-0.7378"
     style="fill:none;stroke:#000000;stroke-width:9.99766;stroke-dasharray:none"
     id="path898" /><path
     d="m 3221.698,4197.501 c 3.9,-20.45 19.88,-96.12 29.97,-98.19 10.08,-2.06 3.88,53.66 3.88,53.66"
     style="fill:none;stroke:#000000;stroke-width:9.99766;stroke-dasharray:none"
     id="path899" /><path
     d="m 3229.558,4130.021 -33.29,-7.85 40.4,-11.66 c 0,0 118.51,-13.64 128.3,-14.84 9.79,-1.2 21.15,16.09 4.65,19.78 -16.5,3.68 -103.07,13.66 -103.07,13.66"
     style="fill:none;stroke:#000000;stroke-width:9.99766;stroke-dasharray:none"
     id="path900" /><path
     d="m 3310.648,4090.201 c -17.39,0.53 -42.7,1.21 -45.14,5.41 -2.43,4.2 15.71,7.17 15.71,7.17"
     style="fill:none;stroke:#000000;stroke-width:9.99766;stroke-dasharray:none"
     id="path901" /><path
     d="m 3349.798,4097.451 c -23.13,-15.36 -33.47,-22.64 -46.34,-17.57"
     style="fill:none;stroke:#000000;stroke-width:9.99766;stroke-dasharray:none"
     id="path902" /><path
     d="m 3303.458,4124.711 c 0,0 -24.24,21.5 -38.17,28.58"
     style="fill:none;stroke:#000000;stroke-width:9.99766;stroke-dasharray:none"
     id="path903" /><path
     d="m 3307.978,4153.291 c 0,0 28.08,-27.06 29.62,-32.94"
     style="fill:none;stroke:#000000;stroke-width:9.99766;stroke-dasharray:none"
     id="path904" /><path
     d="m 3276.708,4273.831 c 53.2,-73.25 81.24,-137 78.7,-145.52"
     style="fill:none;stroke:#000000;stroke-width:9.99766;stroke-dasharray:none"
     id="path905" /><path
     d="m 3108.388,4369.821 c 27.37,3.16 100.76,-3.65 132.14,-65.85"
     style="fill:none;stroke:#000000;stroke-width:9.99766;stroke-dasharray:none"
     id="path906" /><path
     d="m 3183.748,4398.421 c 0,0 13.79,17.13 16.34,28.28"
     style="fill:none;stroke:#000000;stroke-width:9.99766;stroke-dasharray:none"
     id="path907" /><path
     d="m 3145.738,4444.541 c -32.66,1.56 -58.91,-3.32 -95.86,39.96"
     style="fill:none;stroke:#000000;stroke-width:9.99766;stroke-dasharray:none"
     id="path908" /><path
     d="m 3040.648,4533.111 c 0,0 26.7,13.81 32.46,25.82"
     style="fill:none;stroke:#000000;stroke-width:9.99766;stroke-dasharray:none"
     id="path909" /><path
     d="m 2962.868,4582.421 c -1.83,21.09 26.79,55.75 58.74,56.41"
     style="fill:none;stroke:#000000;stroke-width:9.99766;stroke-dasharray:none"
     id="path910" /><path
     d="m 3073.108,4615.231 c 0,0 14.43,-4.85 21.09,-12.79"
     style="fill:none;stroke:#000000;stroke-width:9.99766;stroke-dasharray:none"
     id="path911" /><path
     d="m 2992.198,4712.811 c 0,0 14.45,-1.92 29.41,-22.77"
     style="fill:none;stroke:#000000;stroke-width:9.99766;stroke-dasharray:none"
     id="path912" /><path
     d="m 2870.358,4602.441 c 0,0 324.19,-363.78 334.88,-376.38 10.69,-12.59 117.73,109.83 111.61,119.06 -6.11,9.23 -330.16,474.21 -330.16,474.21"
     style="fill:none;stroke:#000000;stroke-width:9.99766;stroke-dasharray:none"
     id="path913" /><path
     d="m 2863.328,4527.601 c 14.03,4.87 36.71,24.67 21.25,58.88"
     style="fill:none;stroke:#000000;stroke-width:9.99766;stroke-dasharray:none"
     id="path914" /><path
     d="m 2812.138,4522.241 c -35.41,-11.09 -69.87,1.63 -73.35,36.69 -5.07,51.06 39.17,55.71 32.24,69.32 -6.93,13.62 -261.32,569.1 -271.33,594.32 -4.91,12.36 131.92,23.92 270.71,45.03 144.22,21.94 290.71,53.03 290.03,43.21 -1.33,-19.28 -97.65,-485.17 -97.65,-485.17"
     style="fill:none;stroke:#000000;stroke-width:9.99766;stroke-dasharray:none"
     id="path915" /><path
     d="m 2837.578,4569.251 c 0,0 -2.37,25.08 -13.77,33.19"
     style="fill:none;stroke:#000000;stroke-width:9.99766;stroke-dasharray:none"
     id="path916" /><path
     d="m 2837.578,4690.041 c 0,0 -18.41,65.53 13.63,129.29"
     style="fill:none;stroke:#000000;stroke-width:9.99766;stroke-dasharray:none"
     id="path917" /><path
     d="m 2780.008,4737.101 c 0,0 -24.55,17.89 -31.28,27.35"
     style="fill:none;stroke:#000000;stroke-width:9.99766;stroke-dasharray:none"
     id="path918" /><path
     d="m 2714.948,4896.051 c 0,0 -9.27,42.35 17.59,73.93"
     style="fill:none;stroke:#000000;stroke-width:9.99766;stroke-dasharray:none"
     id="path919" /><path
     d="m 2670.338,4986.151 c 0,0 14.37,-8.33 21.16,-16.17"
     style="fill:none;stroke:#000000;stroke-width:9.99766;stroke-dasharray:none"
     id="path920" /><path
     d="m 2648.968,5030.551 c 0,0 -0.39,45 49.14,65.15"
     style="fill:none;stroke:#000000;stroke-width:9.99766;stroke-dasharray:none"
     id="path921" /><path
     d="m 2609.718,5127.981 c 0,0 -15.87,28.41 -18.56,41.97"
     style="fill:none;stroke:#000000;stroke-width:9.99766;stroke-dasharray:none"
     id="path922" /><path
     d="m 2713.398,5169.951 c 0,0 47.57,35.6 91.13,32.2"
     style="fill:none;stroke:#000000;stroke-width:9.99766;stroke-dasharray:none"
     id="path923" /><path
     d="m 2931.078,5109.111 c 0,0 21.65,39.85 68,60.84"
     style="fill:none;stroke:#000000;stroke-width:9.99766;stroke-dasharray:none"
     id="path924" /><path
     d="m 2834.428,5022.691 c 0,0 -7.39,37.2 -1.05,52.54"
     style="fill:none;stroke:#000000;stroke-width:9.99766;stroke-dasharray:none"
     id="path925" /><path
     d="m 2758.958,4996.211 c 0,0 -2.52,19.23 -20.19,26.48"
     style="fill:none;stroke:#000000;stroke-width:9.99766;stroke-dasharray:none"
     id="path926" /><path
     d="m 2876.888,4996.211 c 0,0 2.16,25.02 8.59,34.34"
     style="fill:none;stroke:#000000;stroke-width:9.99766;stroke-dasharray:none"
     id="path927" /><path
     d="m 2814.628,4899.611 c 0,0 39.91,8.64 66.55,-13.51"
     style="fill:none;stroke:#000000;stroke-width:9.99766;stroke-dasharray:none"
     id="path928" /><path
     d="m 2931.078,4893.681 c 0,0 9.15,27.93 0,40.38"
     style="fill:none;stroke:#000000;stroke-width:9.99766;stroke-dasharray:none"
     id="path929" /><path
     d="m 2969.888,4860.071 c 25.43,-2.48 40.68,-1.29 43.03,5.73 2.36,7.03 -25.79,16.09 -25.79,16.09"
     style="fill:none;stroke:#000000;stroke-width:9.99766;stroke-dasharray:none"
     id="path930" /><path
     d="m 3135.128,4638.961 c 0,0 92.07,1.37 98.75,2.62 6.68,1.25 -144.58,210.14 -191.69,328.89 -3.47,8.76 -29.13,4.9 -29.13,4.9"
     style="fill:none;stroke:#000000;stroke-width:9.99766;stroke-dasharray:none"
     id="path931" /><path
     d="m 3056.498,4976.221 c 0,0 52.59,4.85 57.23,4.85 4.65,0 -36.5,-76.04 33.43,-189.24 52.94,-85.69 98.43,-102.71 92.4,-107.54 -6.03,-4.83 -24.53,-10.07 -24.53,-10.07"
     style="fill:none;stroke:#000000;stroke-width:9.99766;stroke-dasharray:none"
     id="path932" /><path
     d="m 2824.758,4484.381 c -9.99,18 -54.52,15.32 -70.28,-24.73 -6.97,-17.7 0.02,-37.72 28.55,-33.57 15.58,2.27 25.19,24.75 42.26,14.22 14.9,-9.2 6.53,-64.47 -14.72,-107.05 -3.18,-6.39 101.31,-37.17 89.07,-135.48 -6.77,-54.31 -114.64,-33.64 -152.1,50.72 -84.13,13.54 -106.5,75.48 -106.22,102.61 0.79,75.68 51.14,112.23 115.3,113.42"
     style="fill:none;stroke:#000000;stroke-width:9.99766;stroke-dasharray:none"
     id="path933" /><path
     d="m 2876.298,4281.781 c 12.12,11.35 78.68,77.95 43.13,106.26 -6.44,5.14 19.53,68.06 -32.42,113.43"
     style="fill:none;stroke:#000000;stroke-width:9.99766;stroke-dasharray:none"
     id="path934" /><path
     d="m 2889.168,4436.721 c 4.37,4.43 18,9.36 30.36,2.87"
     style="fill:none;stroke:#000000;stroke-width:9.99766;stroke-dasharray:none"
     id="path935" /><ellipse
     cx="539.72467"
     cy="5170.7295"
     rx="7.1935654"
     ry="12.480551"
     id="ellipse935"
     transform="matrix(0.88571448,-0.46423039,0.46422924,0.88571509,0,0)"
     style="stroke-width:9.99766;stroke-dasharray:none" /><path
     d="m 2872.588,4296.611 c 0,0 -6.76,-1.88 -11.38,0.99"
     style="fill:none;stroke:#000000;stroke-width:9.99766;stroke-dasharray:none"
     id="path936" /><path
     d="m 3151.248,4818.391 408.06,-2.89 7.05,-814.34 -1248.73,-2.1"
     style="fill:none;stroke:#000000;stroke-width:9.99766;stroke-dasharray:none"
     id="path937" /><path
     d="m 2307.958,4010.271 2.48,808.12 h 354.37"
     style="fill:none;stroke:#000000;stroke-width:9.99766;stroke-dasharray:none"
     id="path938" /><path
     d="m 2596.468,5243.891 c 0,0 -51.07,427.87 -60.72,477.08"
     style="fill:none;stroke:#000000;stroke-width:9.99766;stroke-dasharray:none"
     id="path939" /><path
     d="m 2750.628,5467.481 29.38,253.49"
     style="fill:none;stroke:#000000;stroke-width:9.99766;stroke-dasharray:none"
     id="path940" /><path
     d="m 2989.108,5304.361 c 0,0 25.33,379.98 25,416.61"
     style="fill:none;stroke:#000000;stroke-width:9.99766;stroke-dasharray:none"
     id="path941" /></g>
</svg>
